solid ascii
  facet normal -2.128939e-017 -7.071068e-001 7.071068e-001
    outer loop
      vertex   3.650000e+001 7.000000e+000 9.000000e+000
      vertex   7.000000e+000 7.000000e+000 9.000000e+000
      vertex   4.350000e+001 0.000000e+000 2.000000e+000
    endloop
  endfacet
  facet normal 0.000000e+000 -7.071068e-001 7.071068e-001
    outer loop
      vertex   4.350000e+001 0.000000e+000 2.000000e+000
      vertex   7.000000e+000 7.000000e+000 9.000000e+000
      vertex   0.000000e+000 0.000000e+000 2.000000e+000
    endloop
  endfacet
  facet normal -7.071068e-001 2.128939e-017 7.071068e-001
    outer loop
      vertex   7.000000e+000 7.000000e+000 9.000000e+000
      vertex   7.000000e+000 3.650000e+001 9.000000e+000
      vertex   0.000000e+000 0.000000e+000 2.000000e+000
    endloop
  endfacet
  facet normal -7.071068e-001 0.000000e+000 7.071068e-001
    outer loop
      vertex   0.000000e+000 0.000000e+000 2.000000e+000
      vertex   7.000000e+000 3.650000e+001 9.000000e+000
      vertex   0.000000e+000 4.350000e+001 2.000000e+000
    endloop
  endfacet
  facet normal -0.000000e+000 7.071068e-001 7.071068e-001
    outer loop
      vertex   7.000000e+000 3.650000e+001 9.000000e+000
      vertex   3.650000e+001 3.650000e+001 9.000000e+000
      vertex   0.000000e+000 4.350000e+001 2.000000e+000
    endloop
  endfacet
  facet normal 0.000000e+000 7.071068e-001 7.071068e-001
    outer loop
      vertex   0.000000e+000 4.350000e+001 2.000000e+000
      vertex   3.650000e+001 3.650000e+001 9.000000e+000
      vertex   4.350000e+001 4.350000e+001 2.000000e+000
    endloop
  endfacet
  facet normal 7.071068e-001 0.000000e+000 7.071068e-001
    outer loop
      vertex   4.350000e+001 4.350000e+001 2.000000e+000
      vertex   3.650000e+001 3.650000e+001 9.000000e+000
      vertex   4.350000e+001 0.000000e+000 2.000000e+000
    endloop
  endfacet
  facet normal 7.071068e-001 0.000000e+000 7.071068e-001
    outer loop
      vertex   4.350000e+001 0.000000e+000 2.000000e+000
      vertex   3.650000e+001 3.650000e+001 9.000000e+000
      vertex   3.650000e+001 7.000000e+000 9.000000e+000
    endloop
  endfacet
  facet normal 1.000000e+000 0.000000e+000 0.000000e+000
    outer loop
      vertex   4.350000e+001 4.350000e+001 2.000000e+000
      vertex   4.350000e+001 0.000000e+000 2.000000e+000
      vertex   4.350000e+001 4.350000e+001 0.000000e+000
    endloop
  endfacet
  facet normal 1.000000e+000 0.000000e+000 0.000000e+000
    outer loop
      vertex   4.350000e+001 4.350000e+001 0.000000e+000
      vertex   4.350000e+001 0.000000e+000 2.000000e+000
      vertex   4.350000e+001 0.000000e+000 0.000000e+000
    endloop
  endfacet
  facet normal -0.000000e+000 -1.000000e+000 -0.000000e+000
    outer loop
      vertex   4.350000e+001 0.000000e+000 2.000000e+000
      vertex   0.000000e+000 0.000000e+000 2.000000e+000
      vertex   4.350000e+001 0.000000e+000 0.000000e+000
    endloop
  endfacet
  facet normal -0.000000e+000 -1.000000e+000 -0.000000e+000
    outer loop
      vertex   4.350000e+001 0.000000e+000 0.000000e+000
      vertex   0.000000e+000 0.000000e+000 2.000000e+000
      vertex   0.000000e+000 0.000000e+000 0.000000e+000
    endloop
  endfacet
  facet normal -0.000000e+000 -0.000000e+000 1.000000e+000
    outer loop
      vertex   7.000000e+000 7.000000e+000 9.000000e+000
      vertex   3.650000e+001 7.000000e+000 9.000000e+000
      vertex   7.000000e+000 3.650000e+001 9.000000e+000
    endloop
  endfacet
  facet normal -0.000000e+000 0.000000e+000 1.000000e+000
    outer loop
      vertex   7.000000e+000 3.650000e+001 9.000000e+000
      vertex   3.650000e+001 7.000000e+000 9.000000e+000
      vertex   3.650000e+001 3.650000e+001 9.000000e+000
    endloop
  endfacet
  facet normal -1.000000e+000 0.000000e+000 -0.000000e+000
    outer loop
      vertex   0.000000e+000 0.000000e+000 2.000000e+000
      vertex   0.000000e+000 4.350000e+001 2.000000e+000
      vertex   0.000000e+000 0.000000e+000 0.000000e+000
    endloop
  endfacet
  facet normal -1.000000e+000 0.000000e+000 0.000000e+000
    outer loop
      vertex   0.000000e+000 0.000000e+000 0.000000e+000
      vertex   0.000000e+000 4.350000e+001 2.000000e+000
      vertex   0.000000e+000 4.350000e+001 0.000000e+000
    endloop
  endfacet
  facet normal -0.000000e+000 1.000000e+000 0.000000e+000
    outer loop
      vertex   0.000000e+000 4.350000e+001 2.000000e+000
      vertex   4.350000e+001 4.350000e+001 2.000000e+000
      vertex   0.000000e+000 4.350000e+001 0.000000e+000
    endloop
  endfacet
  facet normal -0.000000e+000 1.000000e+000 0.000000e+000
    outer loop
      vertex   0.000000e+000 4.350000e+001 0.000000e+000
      vertex   4.350000e+001 4.350000e+001 2.000000e+000
      vertex   4.350000e+001 4.350000e+001 0.000000e+000
    endloop
  endfacet
  facet normal 0.000000e+000 0.000000e+000 -1.000000e+000
    outer loop
      vertex   4.350000e+001 0.000000e+000 0.000000e+000
      vertex   0.000000e+000 0.000000e+000 0.000000e+000
      vertex   4.350000e+001 4.350000e+001 0.000000e+000
    endloop
  endfacet
  facet normal -0.000000e+000 0.000000e+000 -1.000000e+000
    outer loop
      vertex   4.350000e+001 4.350000e+001 0.000000e+000
      vertex   0.000000e+000 0.000000e+000 0.000000e+000
      vertex   0.000000e+000 4.350000e+001 0.000000e+000
    endloop
  endfacet
endsolid
