solid Untitled-5450018e
facet normal -1.0 7.833240229299716e-17 0.0
  outer loop
    vertex 5.000000000000006 94.99999999999999 5.0
    vertex 4.999999999999999 4.999999999999999 0.0
    vertex 4.999999999999999 4.999999999999999 5.0
  endloop
endfacet
facet normal -1.0 7.833240229299716e-17 0.0
  outer loop
    vertex 4.999999999999999 4.999999999999999 0.0
    vertex 5.000000000000006 94.99999999999999 5.0
    vertex 5.000000000000006 94.99999999999999 0.0
  endloop
endfacet
facet normal -1.2533184366879544e-16 1.0 -0.0
  outer loop
    vertex 5.000000000000006 94.99999999999999 5.0
    vertex 95.0 95.0 0.0
    vertex 5.000000000000006 94.99999999999999 0.0
  endloop
endfacet
facet normal -1.2533184366879544e-16 1.0 -0.0
  outer loop
    vertex 95.0 95.0 0.0
    vertex 5.000000000000006 94.99999999999999 5.0
    vertex 95.0 95.0 5.0
  endloop
endfacet
facet normal 1.0 -0.0 -0.0
  outer loop
    vertex 95.0 95.0 0.0
    vertex 95.0 5.000000000000001 5.0
    vertex 95.0 5.000000000000001 0.0
  endloop
endfacet
facet normal 1.0 -0.0 -0.0
  outer loop
    vertex 95.0 5.000000000000001 5.0
    vertex 95.0 95.0 0.0
    vertex 95.0 95.0 5.0
  endloop
endfacet
facet normal 1.566648045859943e-17 -1.0 0.0
  outer loop
    vertex 95.0 5.000000000000001 5.0
    vertex 4.999999999999999 4.999999999999999 0.0
    vertex 95.0 5.000000000000001 0.0
  endloop
endfacet
facet normal 1.566648045859943e-17 -1.0 0.0
  outer loop
    vertex 4.999999999999999 4.999999999999999 0.0
    vertex 95.0 5.000000000000001 5.0
    vertex 4.999999999999999 4.999999999999999 5.0
  endloop
endfacet
facet normal -1.0 2.2734465423721353e-17 8.444197333276549e-17
  outer loop
    vertex 100.0 0.0 100.0
    vertex 100.00000000000001 5.0000000000000355 95.0
    vertex 100.0 0.0 0.0
  endloop
endfacet
facet normal -1.0 2.2734465423721353e-17 8.444197333276549e-17
  outer loop
    vertex 100.00000000000001 5.0000000000000355 95.0
    vertex 100.0 0.0 100.0
    vertex 100.00000000000001 100.00000000000001 100.0
  endloop
endfacet
facet normal -1.0 2.2734465423721353e-17 8.444197333276549e-17
  outer loop
    vertex 100.0 0.0 0.0
    vertex 100.00000000000001 5.0000000000000355 95.0
    vertex 100.0 5.000000000000001 5.0
  endloop
endfacet
facet normal -1.0 2.2734465423721353e-17 8.444197333276549e-17
  outer loop
    vertex 100.00000000000001 5.0000000000000355 95.0
    vertex 100.00000000000001 100.00000000000001 100.0
    vertex 100.00000000000001 95.0 95.0
  endloop
endfacet
facet normal -1.0 2.2734465423721353e-17 8.444197333276549e-17
  outer loop
    vertex 100.00000000000001 95.0 95.0
    vertex 100.00000000000001 100.00000000000001 100.0
    vertex 100.0 100.0 0.0
  endloop
endfacet
facet normal -1.0 2.2734465423721353e-17 8.444197333276549e-17
  outer loop
    vertex 100.0 5.000000000000001 5.0
    vertex 100.0 100.0 0.0
    vertex 100.0 0.0 0.0
  endloop
endfacet
facet normal -1.0 2.2734465423721353e-17 8.444197333276549e-17
  outer loop
    vertex 100.0 100.0 0.0
    vertex 100.0 5.000000000000001 5.0
    vertex 100.0 95.0 5.0
  endloop
endfacet
facet normal -1.0 2.2734465423721353e-17 8.444197333276549e-17
  outer loop
    vertex 100.0 100.0 0.0
    vertex 100.0 95.0 5.0
    vertex 100.00000000000001 95.0 95.0
  endloop
endfacet
facet normal 2.2588153463714237e-17 -1.0 9.03475040979656e-17
  outer loop
    vertex 100.0 100.0 0.0
    vertex 95.0 100.0 5.0
    vertex 0.0 100.0 0.0
  endloop
endfacet
facet normal 2.2588153463714237e-17 -1.0 9.03475040979656e-17
  outer loop
    vertex 95.0 100.0 5.0
    vertex 100.0 100.0 0.0
    vertex 100.00000000000001 100.00000000000001 100.0
  endloop
endfacet
facet normal 2.2588153463714237e-17 -1.0 9.03475040979656e-17
  outer loop
    vertex 95.0 100.0 5.0
    vertex 100.00000000000001 100.00000000000001 100.0
    vertex 95.0 100.00000000000001 95.0
  endloop
endfacet
facet normal 2.2588153463714237e-17 -1.0 9.03475040979656e-17
  outer loop
    vertex 95.0 100.00000000000001 95.0
    vertex 100.00000000000001 100.00000000000001 100.0
    vertex 5.000000000000047 100.00000000000001 95.0
  endloop
endfacet
facet normal 2.2588153463714237e-17 -1.0 9.03475040979656e-17
  outer loop
    vertex 5.000000000000047 100.00000000000001 95.0
    vertex 100.00000000000001 100.00000000000001 100.0
    vertex -6.697420396051243e-15 100.0 99.99999999999997
  endloop
endfacet
facet normal 2.2588153463714237e-17 -1.0 9.03475040979656e-17
  outer loop
    vertex 0.0 100.0 0.0
    vertex 5.0 100.0 5.0
    vertex -6.697420396051243e-15 100.0 99.99999999999997
  endloop
endfacet
facet normal 2.2588153463714237e-17 -1.0 9.03475040979656e-17
  outer loop
    vertex 5.0 100.0 5.0
    vertex 0.0 100.0 0.0
    vertex 95.0 100.0 5.0
  endloop
endfacet
facet normal 2.2588153463714237e-17 -1.0 9.03475040979656e-17
  outer loop
    vertex -6.697420396051243e-15 100.0 99.99999999999997
    vertex 5.0 100.0 5.0
    vertex 5.000000000000047 100.00000000000001 95.0
  endloop
endfacet
facet normal 1.0 2.519531422109474e-18 2.917883045054489e-18
  outer loop
    vertex 0.0 0.0 0.0
    vertex 0.0 5.0 5.0
    vertex 0.0 0.0 100.0
  endloop
endfacet
facet normal 1.0 2.519531422109474e-18 2.917883045054489e-18
  outer loop
    vertex 0.0 5.0 5.0
    vertex 0.0 0.0 0.0
    vertex 0.0 100.0 0.0
  endloop
endfacet
facet normal 1.0 2.519531422109474e-18 2.917883045054489e-18
  outer loop
    vertex 0.0 5.0 5.0
    vertex 0.0 100.0 0.0
    vertex 0.0 95.0 5.0
  endloop
endfacet
facet normal 1.0 2.519531422109474e-18 2.917883045054489e-18
  outer loop
    vertex 0.0 95.0 5.0
    vertex 0.0 100.0 0.0
    vertex 6.344924585732763e-15 95.0 94.99999999999999
  endloop
endfacet
facet normal 1.0 2.519531422109474e-18 2.917883045054489e-18
  outer loop
    vertex 0.0 0.0 100.0
    vertex 0.0 5.0 94.99999999999999
    vertex -6.697420396051243e-15 100.0 99.99999999999997
  endloop
endfacet
facet normal 1.0 2.519531422109474e-18 2.917883045054489e-18
  outer loop
    vertex 0.0 5.0 94.99999999999999
    vertex 0.0 0.0 100.0
    vertex 0.0 5.0 5.0
  endloop
endfacet
facet normal 1.0 2.519531422109474e-18 2.917883045054489e-18
  outer loop
    vertex -6.697420396051243e-15 100.0 99.99999999999997
    vertex 0.0 5.0 94.99999999999999
    vertex 6.344924585732763e-15 95.0 94.99999999999999
  endloop
endfacet
facet normal 1.0 2.519531422109474e-18 2.917883045054489e-18
  outer loop
    vertex -6.697420396051243e-15 100.0 99.99999999999997
    vertex 6.344924585732763e-15 95.0 94.99999999999999
    vertex 0.0 100.0 0.0
  endloop
endfacet
facet normal -2.288874134251705e-17 1.0 -2.914914088326847e-17
  outer loop
    vertex 0.0 0.0 0.0
    vertex 5.0 0.0 5.0
    vertex 100.0 0.0 0.0
  endloop
endfacet
facet normal -2.288874134251705e-17 1.0 -2.914914088326847e-17
  outer loop
    vertex 5.0 0.0 5.0
    vertex 0.0 0.0 0.0
    vertex 0.0 0.0 100.0
  endloop
endfacet
facet normal -2.288874134251705e-17 1.0 -2.914914088326847e-17
  outer loop
    vertex 5.0 0.0 5.0
    vertex 0.0 0.0 100.0
    vertex 5.0 0.0 95.0
  endloop
endfacet
facet normal -2.288874134251705e-17 1.0 -2.914914088326847e-17
  outer loop
    vertex 5.0 0.0 95.0
    vertex 0.0 0.0 100.0
    vertex 94.99999999999999 1.2689849171465534e-14 95.0
  endloop
endfacet
facet normal -2.288874134251705e-17 1.0 -2.914914088326847e-17
  outer loop
    vertex 100.0 0.0 0.0
    vertex 95.0 0.0 5.0
    vertex 100.0 0.0 100.0
  endloop
endfacet
facet normal -2.288874134251705e-17 1.0 -2.914914088326847e-17
  outer loop
    vertex 95.0 0.0 5.0
    vertex 100.0 0.0 0.0
    vertex 5.0 0.0 5.0
  endloop
endfacet
facet normal -2.288874134251705e-17 1.0 -2.914914088326847e-17
  outer loop
    vertex 100.0 0.0 100.0
    vertex 95.0 0.0 5.0
    vertex 94.99999999999999 1.2689849171465534e-14 95.0
  endloop
endfacet
facet normal -2.288874134251705e-17 1.0 -2.914914088326847e-17
  outer loop
    vertex 100.0 0.0 100.0
    vertex 94.99999999999999 1.2689849171465534e-14 95.0
    vertex 0.0 0.0 100.0
  endloop
endfacet
facet normal 0.0 0.0 -1.0
  outer loop
    vertex 95.0 100.0 5.0
    vertex 5.000000000000006 94.99999999999999 5.0
    vertex 5.0 100.0 5.0
  endloop
endfacet
facet normal 0.0 0.0 -1.0
  outer loop
    vertex 5.000000000000006 94.99999999999999 5.0
    vertex 95.0 100.0 5.0
    vertex 95.0 95.0 5.0
  endloop
endfacet
facet normal 9.580845587912318e-17 -9.516682515658246e-17 -1.0
  outer loop
    vertex -6.697420396051243e-15 100.0 99.99999999999997
    vertex 5.000000000000004 94.99999999999999 99.99999999999997
    vertex 0.0 0.0 100.0
  endloop
endfacet
facet normal 9.580845587912318e-17 -9.516682515658246e-17 -1.0
  outer loop
    vertex 5.000000000000004 94.99999999999999 99.99999999999997
    vertex -6.697420396051243e-15 100.0 99.99999999999997
    vertex 100.00000000000001 100.00000000000001 100.0
  endloop
endfacet
facet normal 9.580845587912318e-17 -9.516682515658246e-17 -1.0
  outer loop
    vertex 0.0 0.0 100.0
    vertex 5.000000000000004 94.99999999999999 99.99999999999997
    vertex 5.000000000000002 5.0 100.0
  endloop
endfacet
facet normal 9.580845587912318e-17 -9.516682515658246e-17 -1.0
  outer loop
    vertex 5.000000000000004 94.99999999999999 99.99999999999997
    vertex 100.00000000000001 100.00000000000001 100.0
    vertex 95.0 95.0 100.0
  endloop
endfacet
facet normal 9.580845587912318e-17 -9.516682515658246e-17 -1.0
  outer loop
    vertex 95.0 95.0 100.0
    vertex 100.00000000000001 100.00000000000001 100.0
    vertex 100.0 0.0 100.0
  endloop
endfacet
facet normal 9.580845587912318e-17 -9.516682515658246e-17 -1.0
  outer loop
    vertex 5.000000000000002 5.0 100.0
    vertex 100.0 0.0 100.0
    vertex 0.0 0.0 100.0
  endloop
endfacet
facet normal 9.580845587912318e-17 -9.516682515658246e-17 -1.0
  outer loop
    vertex 100.0 0.0 100.0
    vertex 5.000000000000002 5.0 100.0
    vertex 95.0 5.000000000000001 100.0
  endloop
endfacet
facet normal 9.580845587912318e-17 -9.516682515658246e-17 -1.0
  outer loop
    vertex 100.0 0.0 100.0
    vertex 95.0 5.000000000000001 100.0
    vertex 95.0 95.0 100.0
  endloop
endfacet
facet normal 1.0 1.4420009212351035e-31 1.2533184366879544e-16
  outer loop
    vertex 95.0 5.000000000000001 5.0
    vertex 94.99999999999999 1.2689849171465534e-14 95.0
    vertex 95.0 0.0 5.0
  endloop
endfacet
facet normal 1.0 1.4420009212351035e-31 1.2533184366879544e-16
  outer loop
    vertex 94.99999999999999 1.2689849171465534e-14 95.0
    vertex 95.0 5.000000000000001 5.0
    vertex 94.99999999999999 5.000000000000008 94.99999999999999
  endloop
endfacet
facet normal 1.879977655031934e-15 -1.0 1.0482382697517696e-16
  outer loop
    vertex 100.00000000000001 5.0000000000000355 95.0
    vertex 95.0 5.000000000000001 5.0
    vertex 100.0 5.000000000000001 5.0
  endloop
endfacet
facet normal 1.879977655031934e-15 -1.0 1.0482382697517696e-16
  outer loop
    vertex 95.0 5.000000000000001 5.0
    vertex 100.00000000000001 5.0000000000000355 95.0
    vertex 94.99999999999999 5.000000000000008 94.99999999999999
  endloop
endfacet
facet normal 0.0 0.0 -1.0
  outer loop
    vertex 95.0 5.000000000000001 5.0
    vertex 5.0 0.0 5.0
    vertex 4.999999999999999 4.999999999999999 5.0
  endloop
endfacet
facet normal 0.0 0.0 -1.0
  outer loop
    vertex 5.0 0.0 5.0
    vertex 95.0 5.000000000000001 5.0
    vertex 95.0 0.0 5.0
  endloop
endfacet
facet normal 0.0 0.0 -1.0
  outer loop
    vertex 100.0 95.0 5.0
    vertex 95.0 5.000000000000001 5.0
    vertex 95.0 95.0 5.0
  endloop
endfacet
facet normal 0.0 0.0 -1.0
  outer loop
    vertex 95.0 5.000000000000001 5.0
    vertex 100.0 95.0 5.0
    vertex 100.0 5.000000000000001 5.0
  endloop
endfacet
facet normal 0.0 0.0 -1.0
  outer loop
    vertex 5.000000000000006 94.99999999999999 5.0
    vertex 0.0 5.0 5.0
    vertex 0.0 95.0 5.0
  endloop
endfacet
facet normal 0.0 0.0 -1.0
  outer loop
    vertex 0.0 5.0 5.0
    vertex 5.000000000000006 94.99999999999999 5.0
    vertex 4.999999999999999 4.999999999999999 5.0
  endloop
endfacet
facet normal -6.2203961308181e-32 1.0 -1.2533184366879544e-16
  outer loop
    vertex 95.0 95.0 95.0
    vertex 100.0 95.0 5.0
    vertex 95.0 95.0 5.0
  endloop
endfacet
facet normal -6.2203961308181e-32 1.0 -1.2533184366879544e-16
  outer loop
    vertex 100.0 95.0 5.0
    vertex 95.0 95.0 95.0
    vertex 100.00000000000001 95.0 95.0
  endloop
endfacet
facet normal 1.0 -1.879977655031931e-16 -1.1279865930191587e-15
  outer loop
    vertex 94.99999999999999 5.000000000000008 94.99999999999999
    vertex 95.0 95.0 100.0
    vertex 95.0 5.000000000000001 100.0
  endloop
endfacet
facet normal 1.0 -1.879977655031931e-16 -1.1279865930191587e-15
  outer loop
    vertex 95.0 95.0 100.0
    vertex 94.99999999999999 5.000000000000008 94.99999999999999
    vertex 95.0 95.0 95.0
  endloop
endfacet
facet normal -1.0 -6.344924585732766e-16 4.895775143312323e-16
  outer loop
    vertex 5.000000000000047 95.0 95.0
    vertex 5.0 100.0 5.0
    vertex 5.000000000000006 94.99999999999999 5.0
  endloop
endfacet
facet normal -1.0 -6.344924585732766e-16 4.895775143312323e-16
  outer loop
    vertex 5.0 100.0 5.0
    vertex 5.000000000000047 95.0 95.0
    vertex 5.000000000000047 100.00000000000001 95.0
  endloop
endfacet
facet normal 7.519910620127546e-16 1.0 -5.590604105342781e-17
  outer loop
    vertex 6.344924585732763e-15 95.0 94.99999999999999
    vertex 5.000000000000006 94.99999999999999 5.0
    vertex 0.0 95.0 5.0
  endloop
endfacet
facet normal 7.519910620127546e-16 1.0 -5.590604105342781e-17
  outer loop
    vertex 5.000000000000006 94.99999999999999 5.0
    vertex 6.344924585732763e-15 95.0 94.99999999999999
    vertex 5.000000000000047 95.0 95.0
  endloop
endfacet
facet normal 1.0 -6.2203961308181e-32 -1.2533184366879544e-16
  outer loop
    vertex 95.0 100.0 5.0
    vertex 95.0 95.0 95.0
    vertex 95.0 95.0 5.0
  endloop
endfacet
facet normal 1.0 -6.2203961308181e-32 -1.2533184366879544e-16
  outer loop
    vertex 95.0 95.0 95.0
    vertex 95.0 100.0 5.0
    vertex 95.0 100.00000000000001 95.0
  endloop
endfacet
facet normal -1.409983241273949e-16 -1.0 0.0
  outer loop
    vertex 4.999999999999999 4.999999999999999 94.99999999999999
    vertex 0.0 5.0 5.0
    vertex 4.999999999999999 4.999999999999999 5.0
  endloop
endfacet
facet normal -1.409983241273949e-16 -1.0 0.0
  outer loop
    vertex 0.0 5.0 5.0
    vertex 4.999999999999999 4.999999999999999 94.99999999999999
    vertex 0.0 5.0 94.99999999999999
  endloop
endfacet
facet normal -1.0 -1.4099832412739488e-16 -1.3253684937822609e-34
  outer loop
    vertex 4.999999999999999 4.999999999999999 94.99999999999999
    vertex 5.0 0.0 5.0
    vertex 5.0 0.0 95.0
  endloop
endfacet
facet normal -1.0 -1.4099832412739488e-16 -1.3253684937822609e-34
  outer loop
    vertex 5.0 0.0 5.0
    vertex 4.999999999999999 4.999999999999999 94.99999999999999
    vertex 4.999999999999999 4.999999999999999 5.0
  endloop
endfacet
facet normal -2.7218160090088446e-31 2.255973186038319e-15 1.0
  outer loop
    vertex 5.0 0.0 95.0
    vertex 94.99999999999999 5.000000000000008 94.99999999999999
    vertex 4.999999999999999 4.999999999999999 94.99999999999999
  endloop
endfacet
facet normal -2.7218160090088446e-31 2.255973186038319e-15 1.0
  outer loop
    vertex 94.99999999999999 5.000000000000008 94.99999999999999
    vertex 5.0 0.0 95.0
    vertex 94.99999999999999 1.2689849171465534e-14 95.0
  endloop
endfacet
facet normal -1.127986593019158e-15 -6.266592183439761e-17 1.0
  outer loop
    vertex 100.00000000000001 5.0000000000000355 95.0
    vertex 95.0 95.0 95.0
    vertex 94.99999999999999 5.000000000000008 94.99999999999999
  endloop
endfacet
facet normal -1.127986593019158e-15 -6.266592183439761e-17 1.0
  outer loop
    vertex 95.0 95.0 95.0
    vertex 100.00000000000001 5.0000000000000355 95.0
    vertex 100.00000000000001 95.0 95.0
  endloop
endfacet
facet normal -1.253318436687958e-16 1.0 2.2559731860383165e-15
  outer loop
    vertex 5.000000000000004 94.99999999999999 99.99999999999997
    vertex 95.0 95.0 95.0
    vertex 5.000000000000047 95.0 95.0
  endloop
endfacet
facet normal -1.253318436687958e-16 1.0 2.2559731860383165e-15
  outer loop
    vertex 95.0 95.0 95.0
    vertex 5.000000000000004 94.99999999999999 99.99999999999997
    vertex 95.0 95.0 100.0
  endloop
endfacet
facet normal -0.0 -0.0 1.0
  outer loop
    vertex 95.0 95.0 95.0
    vertex 5.000000000000047 100.00000000000001 95.0
    vertex 5.000000000000047 95.0 95.0
  endloop
endfacet
facet normal -0.0 -0.0 1.0
  outer loop
    vertex 5.000000000000047 100.00000000000001 95.0
    vertex 95.0 95.0 95.0
    vertex 95.0 100.00000000000001 95.0
  endloop
endfacet
facet normal 5.0916061490448154e-17 -1.0 -6.344924585732754e-16
  outer loop
    vertex 95.0 5.000000000000001 100.0
    vertex 4.999999999999999 4.999999999999999 94.99999999999999
    vertex 94.99999999999999 5.000000000000008 94.99999999999999
  endloop
endfacet
facet normal 5.0916061490448154e-17 -1.0 -6.344924585732754e-16
  outer loop
    vertex 4.999999999999999 4.999999999999999 94.99999999999999
    vertex 95.0 5.000000000000001 100.0
    vertex 5.000000000000002 5.0 100.0
  endloop
endfacet
facet normal -1.127986593019159e-15 -6.266592183439739e-17 1.0
  outer loop
    vertex 4.999999999999999 4.999999999999999 94.99999999999999
    vertex 6.344924585732763e-15 95.0 94.99999999999999
    vertex 0.0 5.0 94.99999999999999
  endloop
endfacet
facet normal -1.127986593019159e-15 -6.266592183439739e-17 1.0
  outer loop
    vertex 6.344924585732763e-15 95.0 94.99999999999999
    vertex 4.999999999999999 4.999999999999999 94.99999999999999
    vertex 5.000000000000047 95.0 95.0
  endloop
endfacet
facet normal -1.0 2.780800281401397e-16 -4.018452237630741e-15
  outer loop
    vertex 5.000000000000002 5.0 100.0
    vertex 5.000000000000047 95.0 95.0
    vertex 4.999999999999999 4.999999999999999 94.99999999999999
  endloop
endfacet
facet normal -1.0 2.780800281401397e-16 -4.018452237630741e-15
  outer loop
    vertex 5.000000000000047 95.0 95.0
    vertex 5.000000000000002 5.0 100.0
    vertex 5.000000000000004 94.99999999999999 99.99999999999997
  endloop
endfacet
facet normal -0.0 -0.0 1.0
  outer loop
    vertex 0.0 0.0 0.0
    vertex 4.999999999999999 4.999999999999999 0.0
    vertex 0.0 100.0 0.0
  endloop
endfacet
facet normal -0.0 -0.0 1.0
  outer loop
    vertex 4.999999999999999 4.999999999999999 0.0
    vertex 0.0 0.0 0.0
    vertex 100.0 0.0 0.0
  endloop
endfacet
facet normal -0.0 -0.0 1.0
  outer loop
    vertex 4.999999999999999 4.999999999999999 0.0
    vertex 100.0 0.0 0.0
    vertex 95.0 5.000000000000001 0.0
  endloop
endfacet
facet normal -0.0 -0.0 1.0
  outer loop
    vertex 95.0 5.000000000000001 0.0
    vertex 100.0 0.0 0.0
    vertex 95.0 95.0 0.0
  endloop
endfacet
facet normal -0.0 -0.0 1.0
  outer loop
    vertex 0.0 100.0 0.0
    vertex 5.000000000000006 94.99999999999999 0.0
    vertex 100.0 100.0 0.0
  endloop
endfacet
facet normal -0.0 -0.0 1.0
  outer loop
    vertex 5.000000000000006 94.99999999999999 0.0
    vertex 0.0 100.0 0.0
    vertex 4.999999999999999 4.999999999999999 0.0
  endloop
endfacet
facet normal -0.0 -0.0 1.0
  outer loop
    vertex 100.0 100.0 0.0
    vertex 5.000000000000006 94.99999999999999 0.0
    vertex 95.0 95.0 0.0
  endloop
endfacet
facet normal -0.0 -0.0 1.0
  outer loop
    vertex 100.0 100.0 0.0
    vertex 95.0 95.0 0.0
    vertex 100.0 0.0 0.0
  endloop
endfacet
endsolid Untitled-5450018e
