solid Untitled-5405269c
facet normal 0.0 0.0 -1.0
  outer loop
    vertex -2.3749999999999996 4.113620667976084 0.0
    vertex -1.931851652578136 0.5176380902050418 0.0
    vertex -1.9999999999999996 1.224646799147353e-16 0.0
  endloop
endfacet
facet normal 0.0 0.0 -1.0
  outer loop
    vertex -1.931851652578136 0.5176380902050418 0.0
    vertex -2.3749999999999996 4.113620667976084 0.0
    vertex -1.2293904642369735 4.588147674873074 0.0
  endloop
endfacet
facet normal 0.0 0.0 -1.0
  outer loop
    vertex -1.931851652578136 0.5176380902050418 0.0
    vertex -1.2293904642369735 4.588147674873074 0.0
    vertex -1.732050807568877 0.9999999999999999 0.0
  endloop
endfacet
facet normal 0.0 0.0 -1.0
  outer loop
    vertex -1.732050807568877 0.9999999999999999 0.0
    vertex -1.2293904642369735 4.588147674873074 0.0
    vertex -1.4142135623730945 1.414213562373095 0.0
  endloop
endfacet
facet normal 0.0 0.0 -1.0
  outer loop
    vertex -1.4142135623730945 1.414213562373095 0.0
    vertex -1.2293904642369735 4.588147674873074 0.0
    vertex -0.9999999999999996 1.732050807568877 0.0
  endloop
endfacet
facet normal 0.0 0.0 -1.0
  outer loop
    vertex -0.9999999999999996 1.732050807568877 0.0
    vertex -1.2293904642369735 4.588147674873074 0.0
    vertex 0.0 4.75 0.0
  endloop
endfacet
facet normal 0.0 0.0 -1.0
  outer loop
    vertex -0.9999999999999996 1.732050807568877 0.0
    vertex 0.0 4.75 0.0
    vertex -0.5176380902050414 1.931851652578136 0.0
  endloop
endfacet
facet normal 0.0 0.0 -1.0
  outer loop
    vertex -0.5176380902050414 1.931851652578136 0.0
    vertex 0.0 4.75 0.0
    vertex 0.0 1.9999999999999996 0.0
  endloop
endfacet
facet normal 0.0 0.0 -1.0
  outer loop
    vertex 0.0 1.9999999999999996 0.0
    vertex 0.0 4.75 0.0
    vertex 1.2293904642369773 4.588147674873073 0.0
  endloop
endfacet
facet normal 0.0 0.0 -1.0
  outer loop
    vertex 0.0 1.9999999999999996 0.0
    vertex 1.2293904642369773 4.588147674873073 0.0
    vertex 0.517638090205043 1.9318516525781357 0.0
  endloop
endfacet
facet normal 0.0 0.0 -1.0
  outer loop
    vertex 0.517638090205043 1.9318516525781357 0.0
    vertex 1.2293904642369773 4.588147674873073 0.0
    vertex 1.0000000000000007 1.7320508075688763 0.0
  endloop
endfacet
facet normal 0.0 0.0 -1.0
  outer loop
    vertex 1.0000000000000007 1.7320508075688763 0.0
    vertex 1.2293904642369773 4.588147674873073 0.0
    vertex 1.4142135623730951 1.4142135623730943 0.0
  endloop
endfacet
facet normal 0.0 0.0 -1.0
  outer loop
    vertex 1.4142135623730951 1.4142135623730943 0.0
    vertex 1.2293904642369773 4.588147674873073 0.0
    vertex 2.3750000000000018 4.113620667976082 0.0
  endloop
endfacet
facet normal 0.0 0.0 -1.0
  outer loop
    vertex 1.4142135623730951 1.4142135623730943 0.0
    vertex 2.3750000000000018 4.113620667976082 0.0
    vertex 1.7320508075688776 0.9999999999999983 0.0
  endloop
endfacet
facet normal 0.0 0.0 -1.0
  outer loop
    vertex 1.7320508075688776 0.9999999999999983 0.0
    vertex 2.3750000000000018 4.113620667976082 0.0
    vertex 1.9318516525781364 0.5176380902050405 0.0
  endloop
endfacet
facet normal 0.0 0.0 -1.0
  outer loop
    vertex 1.9318516525781364 0.5176380902050405 0.0
    vertex 2.3750000000000018 4.113620667976082 0.0
    vertex 1.9999999999999996 -3.6739403974420584e-16 0.0
  endloop
endfacet
facet normal 0.0 0.0 -1.0
  outer loop
    vertex 1.9999999999999996 -3.6739403974420584e-16 0.0
    vertex 2.3750000000000018 4.113620667976082 0.0
    vertex 2.3749999999999987 -4.113620667976084 0.0
  endloop
endfacet
facet normal 0.0 0.0 -1.0
  outer loop
    vertex 2.3749999999999987 -4.113620667976084 0.0
    vertex 2.3750000000000018 4.113620667976082 0.0
    vertex 3.3587572106360986 -3.358757210636102 0.0
  endloop
endfacet
facet normal 0.0 0.0 -1.0
  outer loop
    vertex 3.3587572106360986 -3.358757210636102 0.0
    vertex 2.3750000000000018 4.113620667976082 0.0
    vertex 3.358757210636101 3.3587572106361 0.0
  endloop
endfacet
facet normal 0.0 0.0 -1.0
  outer loop
    vertex 3.3587572106360986 -3.358757210636102 0.0
    vertex 3.358757210636101 3.3587572106361 0.0
    vertex 4.113620667976082 -2.3750000000000018 0.0
  endloop
endfacet
facet normal 0.0 0.0 -1.0
  outer loop
    vertex 4.113620667976082 -2.3750000000000018 0.0
    vertex 3.358757210636101 3.3587572106361 0.0
    vertex 4.113620667976085 2.374999999999997 0.0
  endloop
endfacet
facet normal 0.0 0.0 -1.0
  outer loop
    vertex 4.113620667976082 -2.3750000000000018 0.0
    vertex 4.113620667976085 2.374999999999997 0.0
    vertex 4.588147674873073 -1.229390464236977 0.0
  endloop
endfacet
facet normal 0.0 0.0 -1.0
  outer loop
    vertex 4.588147674873073 -1.229390464236977 0.0
    vertex 4.113620667976085 2.374999999999997 0.0
    vertex 4.588147674873075 1.2293904642369713 0.0
  endloop
endfacet
facet normal 0.0 0.0 -1.0
  outer loop
    vertex 4.588147674873073 -1.229390464236977 0.0
    vertex 4.588147674873075 1.2293904642369713 0.0
    vertex 4.75 -8.725608443924891e-16 0.0
  endloop
endfacet
facet normal 0.0 0.0 -1.0
  outer loop
    vertex -4.588147674873074 1.2293904642369744 0.0
    vertex -4.588147674873074 -1.2293904642369728 0.0
    vertex -4.75 2.9085361479749637e-16 0.0
  endloop
endfacet
facet normal 0.0 0.0 -1.0
  outer loop
    vertex -4.588147674873074 -1.2293904642369728 0.0
    vertex -4.588147674873074 1.2293904642369744 0.0
    vertex -4.113620667976083 2.3750000000000004 0.0
  endloop
endfacet
facet normal 0.0 0.0 -1.0
  outer loop
    vertex -4.588147674873074 -1.2293904642369728 0.0
    vertex -4.113620667976083 2.3750000000000004 0.0
    vertex -4.113620667976084 -2.3749999999999987 0.0
  endloop
endfacet
facet normal 0.0 0.0 -1.0
  outer loop
    vertex -4.113620667976084 -2.3749999999999987 0.0
    vertex -4.113620667976083 2.3750000000000004 0.0
    vertex -3.3587572106361008 -3.3587572106361 0.0
  endloop
endfacet
facet normal 0.0 0.0 -1.0
  outer loop
    vertex -3.3587572106361008 -3.3587572106361 0.0
    vertex -4.113620667976083 2.3750000000000004 0.0
    vertex -3.3587572106361 3.3587572106361008 0.0
  endloop
endfacet
facet normal 0.0 0.0 -1.0
  outer loop
    vertex -3.3587572106361008 -3.3587572106361 0.0
    vertex -3.3587572106361 3.3587572106361008 0.0
    vertex -2.3750000000000013 -4.1136206679760825 0.0
  endloop
endfacet
facet normal 0.0 0.0 -1.0
  outer loop
    vertex -2.3750000000000013 -4.1136206679760825 0.0
    vertex -3.3587572106361 3.3587572106361008 0.0
    vertex -2.3749999999999996 4.113620667976084 0.0
  endloop
endfacet
facet normal 0.0 0.0 -1.0
  outer loop
    vertex -2.3750000000000013 -4.1136206679760825 0.0
    vertex -2.3749999999999996 4.113620667976084 0.0
    vertex -1.9999999999999996 1.224646799147353e-16 0.0
  endloop
endfacet
facet normal 0.0 0.0 -1.0
  outer loop
    vertex -2.3750000000000013 -4.1136206679760825 0.0
    vertex -1.9999999999999996 1.224646799147353e-16 0.0
    vertex -1.931851652578136 -0.5176380902050411 0.0
  endloop
endfacet
facet normal 0.0 0.0 -1.0
  outer loop
    vertex -2.3750000000000013 -4.1136206679760825 0.0
    vertex -1.931851652578136 -0.5176380902050411 0.0
    vertex -1.2293904642369746 -4.588147674873074 0.0
  endloop
endfacet
facet normal 0.0 0.0 -1.0
  outer loop
    vertex -1.2293904642369746 -4.588147674873074 0.0
    vertex -1.931851652578136 -0.5176380902050411 0.0
    vertex -1.732050807568877 -0.9999999999999992 0.0
  endloop
endfacet
facet normal 0.0 0.0 -1.0
  outer loop
    vertex -1.2293904642369746 -4.588147674873074 0.0
    vertex -1.732050807568877 -0.9999999999999992 0.0
    vertex -1.414213562373095 -1.4142135623730945 0.0
  endloop
endfacet
facet normal 0.0 0.0 -1.0
  outer loop
    vertex -1.2293904642369746 -4.588147674873074 0.0
    vertex -1.414213562373095 -1.4142135623730945 0.0
    vertex -1.0000000000000004 -1.7320508075688765 0.0
  endloop
endfacet
facet normal 0.0 0.0 -1.0
  outer loop
    vertex -1.2293904642369746 -4.588147674873074 0.0
    vertex -1.0000000000000004 -1.7320508075688765 0.0
    vertex -5.817072295949927e-16 -4.75 0.0
  endloop
endfacet
facet normal 0.0 0.0 -1.0
  outer loop
    vertex -5.817072295949927e-16 -4.75 0.0
    vertex -1.0000000000000004 -1.7320508075688765 0.0
    vertex -0.5176380902050419 -1.931851652578136 0.0
  endloop
endfacet
facet normal 0.0 0.0 -1.0
  outer loop
    vertex -5.817072295949927e-16 -4.75 0.0
    vertex -0.5176380902050419 -1.931851652578136 0.0
    vertex -2.449293598294706e-16 -1.9999999999999996 0.0
  endloop
endfacet
facet normal 0.0 0.0 -1.0
  outer loop
    vertex -5.817072295949927e-16 -4.75 0.0
    vertex -2.449293598294706e-16 -1.9999999999999996 0.0
    vertex 1.2293904642369717 -4.588147674873075 0.0
  endloop
endfacet
facet normal 0.0 0.0 -1.0
  outer loop
    vertex 1.2293904642369717 -4.588147674873075 0.0
    vertex -2.449293598294706e-16 -1.9999999999999996 0.0
    vertex 0.5176380902050406 -1.9318516525781364 0.0
  endloop
endfacet
facet normal 0.0 0.0 -1.0
  outer loop
    vertex 1.2293904642369717 -4.588147674873075 0.0
    vertex 0.5176380902050406 -1.9318516525781364 0.0
    vertex 0.9999999999999992 -1.7320508075688772 0.0
  endloop
endfacet
facet normal 0.0 0.0 -1.0
  outer loop
    vertex 1.2293904642369717 -4.588147674873075 0.0
    vertex 0.9999999999999992 -1.7320508075688772 0.0
    vertex 1.414213562373094 -1.4142135623730954 0.0
  endloop
endfacet
facet normal 0.0 0.0 -1.0
  outer loop
    vertex 1.2293904642369717 -4.588147674873075 0.0
    vertex 1.414213562373094 -1.4142135623730954 0.0
    vertex 2.3749999999999987 -4.113620667976084 0.0
  endloop
endfacet
facet normal 0.0 0.0 -1.0
  outer loop
    vertex 2.3749999999999987 -4.113620667976084 0.0
    vertex 1.414213562373094 -1.4142135623730954 0.0
    vertex 1.7320508075688763 -1.0000000000000007 0.0
  endloop
endfacet
facet normal 0.0 0.0 -1.0
  outer loop
    vertex 2.3749999999999987 -4.113620667976084 0.0
    vertex 1.7320508075688763 -1.0000000000000007 0.0
    vertex 1.9318516525781357 -0.5176380902050429 0.0
  endloop
endfacet
facet normal 0.0 0.0 -1.0
  outer loop
    vertex 2.3749999999999987 -4.113620667976084 0.0
    vertex 1.9318516525781357 -0.5176380902050429 0.0
    vertex 1.9999999999999996 -3.6739403974420584e-16 0.0
  endloop
endfacet
facet normal -0.0 -0.0 1.0
  outer loop
    vertex -4.588147674873074 -1.2293904642369728 6.0
    vertex -4.588147674873074 1.2293904642369744 6.0
    vertex -4.75 2.9085361479749637e-16 6.0
  endloop
endfacet
facet normal -0.0 -0.0 1.0
  outer loop
    vertex -4.588147674873074 1.2293904642369744 6.0
    vertex -4.588147674873074 -1.2293904642369728 6.0
    vertex -4.113620667976084 -2.3749999999999987 6.0
  endloop
endfacet
facet normal -0.0 -0.0 1.0
  outer loop
    vertex -4.588147674873074 1.2293904642369744 6.0
    vertex -4.113620667976084 -2.3749999999999987 6.0
    vertex -4.113620667976083 2.3750000000000004 6.0
  endloop
endfacet
facet normal -0.0 -0.0 1.0
  outer loop
    vertex -4.113620667976083 2.3750000000000004 6.0
    vertex -4.113620667976084 -2.3749999999999987 6.0
    vertex -3.3587572106361008 -3.3587572106361 6.0
  endloop
endfacet
facet normal -0.0 -0.0 1.0
  outer loop
    vertex -4.113620667976083 2.3750000000000004 6.0
    vertex -3.3587572106361008 -3.3587572106361 6.0
    vertex -3.3587572106361 3.3587572106361008 6.0
  endloop
endfacet
facet normal -0.0 -0.0 1.0
  outer loop
    vertex -3.3587572106361 3.3587572106361008 6.0
    vertex -3.3587572106361008 -3.3587572106361 6.0
    vertex -2.3750000000000013 -4.1136206679760825 6.0
  endloop
endfacet
facet normal -0.0 -0.0 1.0
  outer loop
    vertex -3.3587572106361 3.3587572106361008 6.0
    vertex -2.3750000000000013 -4.1136206679760825 6.0
    vertex -2.3749999999999996 4.113620667976084 6.0
  endloop
endfacet
facet normal -0.0 -0.0 1.0
  outer loop
    vertex -2.3749999999999996 4.113620667976084 6.0
    vertex -2.3750000000000013 -4.1136206679760825 6.0
    vertex -1.9999999999999996 1.224646799147353e-16 6.0
  endloop
endfacet
facet normal -0.0 -0.0 1.0
  outer loop
    vertex -1.9999999999999996 1.224646799147353e-16 6.0
    vertex -2.3750000000000013 -4.1136206679760825 6.0
    vertex -1.931851652578136 -0.5176380902050411 6.0
  endloop
endfacet
facet normal -0.0 -0.0 1.0
  outer loop
    vertex -1.931851652578136 -0.5176380902050411 6.0
    vertex -2.3750000000000013 -4.1136206679760825 6.0
    vertex -1.2293904642369746 -4.588147674873074 6.0
  endloop
endfacet
facet normal -0.0 -0.0 1.0
  outer loop
    vertex -1.931851652578136 -0.5176380902050411 6.0
    vertex -1.2293904642369746 -4.588147674873074 6.0
    vertex -1.732050807568877 -0.9999999999999992 6.0
  endloop
endfacet
facet normal -0.0 -0.0 1.0
  outer loop
    vertex -1.732050807568877 -0.9999999999999992 6.0
    vertex -1.2293904642369746 -4.588147674873074 6.0
    vertex -1.414213562373095 -1.4142135623730945 6.0
  endloop
endfacet
facet normal -0.0 -0.0 1.0
  outer loop
    vertex -1.414213562373095 -1.4142135623730945 6.0
    vertex -1.2293904642369746 -4.588147674873074 6.0
    vertex -1.0000000000000004 -1.7320508075688765 6.0
  endloop
endfacet
facet normal -0.0 -0.0 1.0
  outer loop
    vertex -1.0000000000000004 -1.7320508075688765 6.0
    vertex -1.2293904642369746 -4.588147674873074 6.0
    vertex -5.817072295949927e-16 -4.75 6.0
  endloop
endfacet
facet normal -0.0 -0.0 1.0
  outer loop
    vertex -1.0000000000000004 -1.7320508075688765 6.0
    vertex -5.817072295949927e-16 -4.75 6.0
    vertex -0.5176380902050419 -1.931851652578136 6.0
  endloop
endfacet
facet normal -0.0 -0.0 1.0
  outer loop
    vertex -0.5176380902050419 -1.931851652578136 6.0
    vertex -5.817072295949927e-16 -4.75 6.0
    vertex -2.449293598294706e-16 -1.9999999999999996 6.0
  endloop
endfacet
facet normal -0.0 -0.0 1.0
  outer loop
    vertex -2.449293598294706e-16 -1.9999999999999996 6.0
    vertex -5.817072295949927e-16 -4.75 6.0
    vertex 1.2293904642369717 -4.588147674873075 6.0
  endloop
endfacet
facet normal -0.0 -0.0 1.0
  outer loop
    vertex -2.449293598294706e-16 -1.9999999999999996 6.0
    vertex 1.2293904642369717 -4.588147674873075 6.0
    vertex 0.5176380902050406 -1.9318516525781364 6.0
  endloop
endfacet
facet normal -0.0 -0.0 1.0
  outer loop
    vertex 0.5176380902050406 -1.9318516525781364 6.0
    vertex 1.2293904642369717 -4.588147674873075 6.0
    vertex 0.9999999999999992 -1.7320508075688772 6.0
  endloop
endfacet
facet normal -0.0 -0.0 1.0
  outer loop
    vertex 0.9999999999999992 -1.7320508075688772 6.0
    vertex 1.2293904642369717 -4.588147674873075 6.0
    vertex 1.414213562373094 -1.4142135623730954 6.0
  endloop
endfacet
facet normal -0.0 -0.0 1.0
  outer loop
    vertex 1.414213562373094 -1.4142135623730954 6.0
    vertex 1.2293904642369717 -4.588147674873075 6.0
    vertex 2.3749999999999987 -4.113620667976084 6.0
  endloop
endfacet
facet normal -0.0 -0.0 1.0
  outer loop
    vertex 1.414213562373094 -1.4142135623730954 6.0
    vertex 2.3749999999999987 -4.113620667976084 6.0
    vertex 1.7320508075688763 -1.0000000000000007 6.0
  endloop
endfacet
facet normal -0.0 -0.0 1.0
  outer loop
    vertex 1.7320508075688763 -1.0000000000000007 6.0
    vertex 2.3749999999999987 -4.113620667976084 6.0
    vertex 1.9318516525781357 -0.5176380902050429 6.0
  endloop
endfacet
facet normal -0.0 -0.0 1.0
  outer loop
    vertex 1.9318516525781357 -0.5176380902050429 6.0
    vertex 2.3749999999999987 -4.113620667976084 6.0
    vertex 1.9999999999999996 -3.6739403974420584e-16 6.0
  endloop
endfacet
facet normal -0.0 -0.0 1.0
  outer loop
    vertex -2.3749999999999996 4.113620667976084 6.0
    vertex -1.931851652578136 0.5176380902050418 6.0
    vertex -1.2293904642369735 4.588147674873074 6.0
  endloop
endfacet
facet normal -0.0 -0.0 1.0
  outer loop
    vertex -1.931851652578136 0.5176380902050418 6.0
    vertex -2.3749999999999996 4.113620667976084 6.0
    vertex -1.9999999999999996 1.224646799147353e-16 6.0
  endloop
endfacet
facet normal -0.0 -0.0 1.0
  outer loop
    vertex -1.2293904642369735 4.588147674873074 6.0
    vertex -1.931851652578136 0.5176380902050418 6.0
    vertex -1.732050807568877 0.9999999999999999 6.0
  endloop
endfacet
facet normal -0.0 -0.0 1.0
  outer loop
    vertex -1.2293904642369735 4.588147674873074 6.0
    vertex -1.732050807568877 0.9999999999999999 6.0
    vertex -1.4142135623730945 1.414213562373095 6.0
  endloop
endfacet
facet normal -0.0 -0.0 1.0
  outer loop
    vertex -1.2293904642369735 4.588147674873074 6.0
    vertex -1.4142135623730945 1.414213562373095 6.0
    vertex -0.9999999999999996 1.732050807568877 6.0
  endloop
endfacet
facet normal -0.0 -0.0 1.0
  outer loop
    vertex -1.2293904642369735 4.588147674873074 6.0
    vertex -0.9999999999999996 1.732050807568877 6.0
    vertex 0.0 4.75 6.0
  endloop
endfacet
facet normal -0.0 -0.0 1.0
  outer loop
    vertex 0.0 4.75 6.0
    vertex -0.9999999999999996 1.732050807568877 6.0
    vertex -0.5176380902050414 1.931851652578136 6.0
  endloop
endfacet
facet normal -0.0 -0.0 1.0
  outer loop
    vertex 0.0 4.75 6.0
    vertex -0.5176380902050414 1.931851652578136 6.0
    vertex 0.0 1.9999999999999996 6.0
  endloop
endfacet
facet normal -0.0 -0.0 1.0
  outer loop
    vertex 0.0 4.75 6.0
    vertex 0.0 1.9999999999999996 6.0
    vertex 0.517638090205043 1.9318516525781357 6.0
  endloop
endfacet
facet normal -0.0 -0.0 1.0
  outer loop
    vertex 0.0 4.75 6.0
    vertex 0.517638090205043 1.9318516525781357 6.0
    vertex 1.2293904642369773 4.588147674873073 6.0
  endloop
endfacet
facet normal -0.0 -0.0 1.0
  outer loop
    vertex 1.2293904642369773 4.588147674873073 6.0
    vertex 0.517638090205043 1.9318516525781357 6.0
    vertex 1.0000000000000007 1.7320508075688763 6.0
  endloop
endfacet
facet normal -0.0 -0.0 1.0
  outer loop
    vertex 1.2293904642369773 4.588147674873073 6.0
    vertex 1.0000000000000007 1.7320508075688763 6.0
    vertex 1.4142135623730951 1.4142135623730943 6.0
  endloop
endfacet
facet normal -0.0 -0.0 1.0
  outer loop
    vertex 1.2293904642369773 4.588147674873073 6.0
    vertex 1.4142135623730951 1.4142135623730943 6.0
    vertex 2.3750000000000018 4.113620667976082 6.0
  endloop
endfacet
facet normal -0.0 -0.0 1.0
  outer loop
    vertex 2.3750000000000018 4.113620667976082 6.0
    vertex 1.4142135623730951 1.4142135623730943 6.0
    vertex 1.7320508075688776 0.9999999999999983 6.0
  endloop
endfacet
facet normal -0.0 -0.0 1.0
  outer loop
    vertex 2.3750000000000018 4.113620667976082 6.0
    vertex 1.7320508075688776 0.9999999999999983 6.0
    vertex 1.9318516525781364 0.5176380902050405 6.0
  endloop
endfacet
facet normal -0.0 -0.0 1.0
  outer loop
    vertex 2.3750000000000018 4.113620667976082 6.0
    vertex 1.9318516525781364 0.5176380902050405 6.0
    vertex 1.9999999999999996 -3.6739403974420584e-16 6.0
  endloop
endfacet
facet normal -0.0 -0.0 1.0
  outer loop
    vertex 2.3750000000000018 4.113620667976082 6.0
    vertex 1.9999999999999996 -3.6739403974420584e-16 6.0
    vertex 2.3749999999999987 -4.113620667976084 6.0
  endloop
endfacet
facet normal -0.0 -0.0 1.0
  outer loop
    vertex 2.3750000000000018 4.113620667976082 6.0
    vertex 2.3749999999999987 -4.113620667976084 6.0
    vertex 3.3587572106360986 -3.358757210636102 6.0
  endloop
endfacet
facet normal -0.0 -0.0 1.0
  outer loop
    vertex 2.3750000000000018 4.113620667976082 6.0
    vertex 3.3587572106360986 -3.358757210636102 6.0
    vertex 3.358757210636101 3.3587572106361 6.0
  endloop
endfacet
facet normal -0.0 -0.0 1.0
  outer loop
    vertex 3.358757210636101 3.3587572106361 6.0
    vertex 3.3587572106360986 -3.358757210636102 6.0
    vertex 4.113620667976082 -2.3750000000000018 6.0
  endloop
endfacet
facet normal -0.0 -0.0 1.0
  outer loop
    vertex 3.358757210636101 3.3587572106361 6.0
    vertex 4.113620667976082 -2.3750000000000018 6.0
    vertex 4.113620667976085 2.374999999999997 6.0
  endloop
endfacet
facet normal -0.0 -0.0 1.0
  outer loop
    vertex 4.113620667976085 2.374999999999997 6.0
    vertex 4.113620667976082 -2.3750000000000018 6.0
    vertex 4.588147674873073 -1.229390464236977 6.0
  endloop
endfacet
facet normal -0.0 -0.0 1.0
  outer loop
    vertex 4.113620667976085 2.374999999999997 6.0
    vertex 4.588147674873073 -1.229390464236977 6.0
    vertex 4.588147674873075 1.2293904642369713 6.0
  endloop
endfacet
facet normal -0.0 -0.0 1.0
  outer loop
    vertex 4.588147674873075 1.2293904642369713 6.0
    vertex 4.588147674873073 -1.229390464236977 6.0
    vertex 4.75 -8.725608443924891e-16 6.0
  endloop
endfacet
facet normal -0.8660254037844388 -0.4999999999999999 0.0
  outer loop
    vertex -4.113620667976084 -2.3749999999999987 6.0
    vertex -3.3587572106361008 -3.3587572106361 0.0
    vertex -3.3587572106361008 -3.3587572106361 6.0
  endloop
endfacet
facet normal -0.7071067811865477 -0.7071067811865475 0.0
  outer loop
    vertex -3.3587572106361008 -3.3587572106361 0.0
    vertex -4.113620667976084 -2.3749999999999987 6.0
    vertex -4.113620667976084 -2.3749999999999987 0.0
  endloop
endfacet
facet normal -0.9659258262890683 -0.2588190451025206 0.0
  outer loop
    vertex -4.588147674873074 -1.2293904642369728 6.0
    vertex -4.113620667976084 -2.3749999999999987 0.0
    vertex -4.113620667976084 -2.3749999999999987 6.0
  endloop
endfacet
facet normal -0.8660254037844388 -0.4999999999999999 0.0
  outer loop
    vertex -4.113620667976084 -2.3749999999999987 0.0
    vertex -4.588147674873074 -1.2293904642369728 6.0
    vertex -4.588147674873074 -1.2293904642369728 0.0
  endloop
endfacet
facet normal -1.0 -4.455554947823453e-17 0.0
  outer loop
    vertex -4.75 2.9085361479749637e-16 6.0
    vertex -4.588147674873074 -1.2293904642369728 0.0
    vertex -4.588147674873074 -1.2293904642369728 6.0
  endloop
endfacet
facet normal -0.9659258262890683 -0.2588190451025206 0.0
  outer loop
    vertex -4.588147674873074 -1.2293904642369728 0.0
    vertex -4.75 2.9085361479749637e-16 6.0
    vertex -4.75 2.9085361479749637e-16 0.0
  endloop
endfacet
facet normal -0.9659258262890682 0.25881904510252085 0.0
  outer loop
    vertex -4.588147674873074 1.2293904642369744 6.0
    vertex -4.75 2.9085361479749637e-16 0.0
    vertex -4.75 2.9085361479749637e-16 6.0
  endloop
endfacet
facet normal -1.0 -4.455554947823453e-17 0.0
  outer loop
    vertex -4.75 2.9085361479749637e-16 0.0
    vertex -4.588147674873074 1.2293904642369744 6.0
    vertex -4.588147674873074 1.2293904642369744 0.0
  endloop
endfacet
facet normal -0.8660254037844386 0.5000000000000003 0.0
  outer loop
    vertex -4.113620667976083 2.3750000000000004 6.0
    vertex -4.588147674873074 1.2293904642369744 0.0
    vertex -4.588147674873074 1.2293904642369744 6.0
  endloop
endfacet
facet normal -0.9659258262890682 0.25881904510252085 0.0
  outer loop
    vertex -4.588147674873074 1.2293904642369744 0.0
    vertex -4.113620667976083 2.3750000000000004 6.0
    vertex -4.113620667976083 2.3750000000000004 0.0
  endloop
endfacet
facet normal -0.7071067811865476 0.7071067811865476 0.0
  outer loop
    vertex -3.3587572106361 3.3587572106361008 6.0
    vertex -4.113620667976083 2.3750000000000004 0.0
    vertex -4.113620667976083 2.3750000000000004 6.0
  endloop
endfacet
facet normal -0.8660254037844386 0.5000000000000003 0.0
  outer loop
    vertex -4.113620667976083 2.3750000000000004 0.0
    vertex -3.3587572106361 3.3587572106361008 6.0
    vertex -3.3587572106361 3.3587572106361008 0.0
  endloop
endfacet
facet normal -0.7071067811865476 0.7071067811865476 0.0
  outer loop
    vertex -3.3587572106361 3.3587572106361008 6.0
    vertex -2.3749999999999996 4.113620667976084 0.0
    vertex -3.3587572106361 3.3587572106361008 0.0
  endloop
endfacet
facet normal -0.49999999999999994 0.8660254037844387 0.0
  outer loop
    vertex -2.3749999999999996 4.113620667976084 0.0
    vertex -3.3587572106361 3.3587572106361008 6.0
    vertex -2.3749999999999996 4.113620667976084 6.0
  endloop
endfacet
facet normal -0.49999999999999994 0.8660254037844387 0.0
  outer loop
    vertex -2.3749999999999996 4.113620667976084 6.0
    vertex -1.2293904642369735 4.588147674873074 0.0
    vertex -2.3749999999999996 4.113620667976084 0.0
  endloop
endfacet
facet normal -0.2588190451025206 0.9659258262890684 0.0
  outer loop
    vertex -1.2293904642369735 4.588147674873074 0.0
    vertex -2.3749999999999996 4.113620667976084 6.0
    vertex -1.2293904642369735 4.588147674873074 6.0
  endloop
endfacet
facet normal -0.2588190451025206 0.9659258262890684 0.0
  outer loop
    vertex -1.2293904642369735 4.588147674873074 6.0
    vertex 0.0 4.75 0.0
    vertex -1.2293904642369735 4.588147674873074 0.0
  endloop
endfacet
facet normal 7.128887916517525e-17 1.0 0.0
  outer loop
    vertex 0.0 4.75 0.0
    vertex -1.2293904642369735 4.588147674873074 6.0
    vertex 0.0 4.75 6.0
  endloop
endfacet
facet normal 7.128887916517525e-17 1.0 0.0
  outer loop
    vertex 0.0 4.75 6.0
    vertex 1.2293904642369773 4.588147674873073 0.0
    vertex 0.0 4.75 0.0
  endloop
endfacet
facet normal 0.25881904510252135 0.9659258262890681 0.0
  outer loop
    vertex 1.2293904642369773 4.588147674873073 0.0
    vertex 0.0 4.75 6.0
    vertex 1.2293904642369773 4.588147674873073 6.0
  endloop
endfacet
facet normal 0.25881904510252135 0.9659258262890681 0.0
  outer loop
    vertex 1.2293904642369773 4.588147674873073 6.0
    vertex 2.3750000000000018 4.113620667976082 0.0
    vertex 1.2293904642369773 4.588147674873073 0.0
  endloop
endfacet
facet normal 0.5000000000000004 0.8660254037844384 0.0
  outer loop
    vertex 2.3750000000000018 4.113620667976082 0.0
    vertex 1.2293904642369773 4.588147674873073 6.0
    vertex 2.3750000000000018 4.113620667976082 6.0
  endloop
endfacet
facet normal 0.5000000000000004 0.8660254037844384 0.0
  outer loop
    vertex 2.3750000000000018 4.113620667976082 6.0
    vertex 3.358757210636101 3.3587572106361 0.0
    vertex 2.3750000000000018 4.113620667976082 0.0
  endloop
endfacet
facet normal 0.7071067811865477 0.7071067811865472 0.0
  outer loop
    vertex 3.358757210636101 3.3587572106361 0.0
    vertex 2.3750000000000018 4.113620667976082 6.0
    vertex 3.358757210636101 3.3587572106361 6.0
  endloop
endfacet
facet normal 0.7071067811865477 0.7071067811865472 0.0
  outer loop
    vertex 3.358757210636101 3.3587572106361 0.0
    vertex 4.113620667976085 2.374999999999997 6.0
    vertex 4.113620667976085 2.374999999999997 0.0
  endloop
endfacet
facet normal 0.8660254037844389 0.49999999999999944 0.0
  outer loop
    vertex 4.113620667976085 2.374999999999997 6.0
    vertex 3.358757210636101 3.3587572106361 0.0
    vertex 3.358757210636101 3.3587572106361 6.0
  endloop
endfacet
facet normal 0.8660254037844389 0.49999999999999944 0.0
  outer loop
    vertex 4.113620667976085 2.374999999999997 0.0
    vertex 4.588147674873075 1.2293904642369713 6.0
    vertex 4.588147674873075 1.2293904642369713 0.0
  endloop
endfacet
facet normal 0.9659258262890685 0.2588190451025203 0.0
  outer loop
    vertex 4.588147674873075 1.2293904642369713 6.0
    vertex 4.113620667976085 2.374999999999997 0.0
    vertex 4.113620667976085 2.374999999999997 6.0
  endloop
endfacet
facet normal 0.9659258262890685 0.2588190451025203 0.0
  outer loop
    vertex 4.588147674873075 1.2293904642369713 0.0
    vertex 4.75 -8.725608443924891e-16 6.0
    vertex 4.75 -8.725608443924891e-16 0.0
  endloop
endfacet
facet normal 1.0 -3.3862217603458237e-16 0.0
  outer loop
    vertex 4.75 -8.725608443924891e-16 6.0
    vertex 4.588147674873075 1.2293904642369713 0.0
    vertex 4.588147674873075 1.2293904642369713 6.0
  endloop
endfacet
facet normal 1.0 -3.3862217603458237e-16 0.0
  outer loop
    vertex 4.75 -8.725608443924891e-16 0.0
    vertex 4.588147674873073 -1.229390464236977 6.0
    vertex 4.588147674873073 -1.229390464236977 0.0
  endloop
endfacet
facet normal 0.9659258262890681 -0.25881904510252135 0.0
  outer loop
    vertex 4.588147674873073 -1.229390464236977 6.0
    vertex 4.75 -8.725608443924891e-16 0.0
    vertex 4.75 -8.725608443924891e-16 6.0
  endloop
endfacet
facet normal 0.9659258262890681 -0.25881904510252135 0.0
  outer loop
    vertex 4.588147674873073 -1.229390464236977 0.0
    vertex 4.113620667976082 -2.3750000000000018 6.0
    vertex 4.113620667976082 -2.3750000000000018 0.0
  endloop
endfacet
facet normal 0.8660254037844383 -0.5000000000000006 0.0
  outer loop
    vertex 4.113620667976082 -2.3750000000000018 6.0
    vertex 4.588147674873073 -1.229390464236977 0.0
    vertex 4.588147674873073 -1.229390464236977 6.0
  endloop
endfacet
facet normal 0.8660254037844383 -0.5000000000000006 0.0
  outer loop
    vertex 4.113620667976082 -2.3750000000000018 0.0
    vertex 3.3587572106360986 -3.358757210636102 6.0
    vertex 3.3587572106360986 -3.358757210636102 0.0
  endloop
endfacet
facet normal 0.7071067811865471 -0.7071067811865479 0.0
  outer loop
    vertex 3.3587572106360986 -3.358757210636102 6.0
    vertex 4.113620667976082 -2.3750000000000018 0.0
    vertex 4.113620667976082 -2.3750000000000018 6.0
  endloop
endfacet
facet normal 0.7071067811865471 -0.7071067811865479 0.0
  outer loop
    vertex 3.3587572106360986 -3.358757210636102 6.0
    vertex 2.3749999999999987 -4.113620667976084 0.0
    vertex 3.3587572106360986 -3.358757210636102 0.0
  endloop
endfacet
facet normal 0.4999999999999998 -0.8660254037844388 0.0
  outer loop
    vertex 2.3749999999999987 -4.113620667976084 0.0
    vertex 3.3587572106360986 -3.358757210636102 6.0
    vertex 2.3749999999999987 -4.113620667976084 6.0
  endloop
endfacet
facet normal 0.4999999999999998 -0.8660254037844388 0.0
  outer loop
    vertex 2.3749999999999987 -4.113620667976084 6.0
    vertex 1.2293904642369717 -4.588147674873075 0.0
    vertex 2.3749999999999987 -4.113620667976084 0.0
  endloop
endfacet
facet normal 0.2588190451025206 -0.9659258262890684 0.0
  outer loop
    vertex 1.2293904642369717 -4.588147674873075 0.0
    vertex 2.3749999999999987 -4.113620667976084 6.0
    vertex 1.2293904642369717 -4.588147674873075 6.0
  endloop
endfacet
facet normal 0.2588190451025206 -0.9659258262890684 0.0
  outer loop
    vertex 1.2293904642369717 -4.588147674873075 6.0
    vertex -5.817072295949927e-16 -4.75 0.0
    vertex 1.2293904642369717 -4.588147674873075 0.0
  endloop
endfacet
facet normal -1.8713330780858502e-16 -1.0 0.0
  outer loop
    vertex -5.817072295949927e-16 -4.75 0.0
    vertex 1.2293904642369717 -4.588147674873075 6.0
    vertex -5.817072295949927e-16 -4.75 6.0
  endloop
endfacet
facet normal -1.8713330780858502e-16 -1.0 0.0
  outer loop
    vertex -5.817072295949927e-16 -4.75 6.0
    vertex -1.2293904642369746 -4.588147674873074 0.0
    vertex -5.817072295949927e-16 -4.75 0.0
  endloop
endfacet
facet normal -0.2588190451025209 -0.9659258262890682 0.0
  outer loop
    vertex -1.2293904642369746 -4.588147674873074 0.0
    vertex -5.817072295949927e-16 -4.75 6.0
    vertex -1.2293904642369746 -4.588147674873074 6.0
  endloop
endfacet
facet normal -0.2588190451025209 -0.9659258262890682 0.0
  outer loop
    vertex -1.2293904642369746 -4.588147674873074 6.0
    vertex -2.3750000000000013 -4.1136206679760825 0.0
    vertex -1.2293904642369746 -4.588147674873074 0.0
  endloop
endfacet
facet normal -0.5000000000000004 -0.8660254037844384 0.0
  outer loop
    vertex -2.3750000000000013 -4.1136206679760825 0.0
    vertex -1.2293904642369746 -4.588147674873074 6.0
    vertex -2.3750000000000013 -4.1136206679760825 6.0
  endloop
endfacet
facet normal -0.5000000000000004 -0.8660254037844384 0.0
  outer loop
    vertex -2.3750000000000013 -4.1136206679760825 6.0
    vertex -3.3587572106361008 -3.3587572106361 0.0
    vertex -2.3750000000000013 -4.1136206679760825 0.0
  endloop
endfacet
facet normal -0.7071067811865477 -0.7071067811865475 0.0
  outer loop
    vertex -3.3587572106361008 -3.3587572106361 0.0
    vertex -2.3750000000000013 -4.1136206679760825 6.0
    vertex -3.3587572106361008 -3.3587572106361 6.0
  endloop
endfacet
facet normal -0.25881904510252035 0.9659258262890683 0.0
  outer loop
    vertex 0.5176380902050406 -1.9318516525781364 6.0
    vertex 0.9999999999999992 -1.7320508075688772 0.0
    vertex 0.5176380902050406 -1.9318516525781364 0.0
  endloop
endfacet
facet normal -0.49999999999999967 0.8660254037844388 0.0
  outer loop
    vertex 0.9999999999999992 -1.7320508075688772 0.0
    vertex 0.5176380902050406 -1.9318516525781364 6.0
    vertex 0.9999999999999992 -1.7320508075688772 6.0
  endloop
endfacet
facet normal -0.49999999999999967 0.8660254037844388 0.0
  outer loop
    vertex 0.9999999999999992 -1.7320508075688772 6.0
    vertex 1.414213562373094 -1.4142135623730954 0.0
    vertex 0.9999999999999992 -1.7320508075688772 0.0
  endloop
endfacet
facet normal -0.7071067811865474 0.7071067811865477 0.0
  outer loop
    vertex 1.414213562373094 -1.4142135623730954 0.0
    vertex 0.9999999999999992 -1.7320508075688772 6.0
    vertex 1.414213562373094 -1.4142135623730954 6.0
  endloop
endfacet
facet normal -0.8660254037844384 0.5000000000000004 0.0
  outer loop
    vertex 1.7320508075688763 -1.0000000000000007 6.0
    vertex 1.414213562373094 -1.4142135623730954 0.0
    vertex 1.414213562373094 -1.4142135623730954 6.0
  endloop
endfacet
facet normal -0.7071067811865474 0.7071067811865477 0.0
  outer loop
    vertex 1.414213562373094 -1.4142135623730954 0.0
    vertex 1.7320508075688763 -1.0000000000000007 6.0
    vertex 1.7320508075688763 -1.0000000000000007 0.0
  endloop
endfacet
facet normal -0.965925826289068 0.25881904510252135 0.0
  outer loop
    vertex 1.9318516525781357 -0.5176380902050429 6.0
    vertex 1.7320508075688763 -1.0000000000000007 0.0
    vertex 1.7320508075688763 -1.0000000000000007 6.0
  endloop
endfacet
facet normal -0.8660254037844384 0.5000000000000004 0.0
  outer loop
    vertex 1.7320508075688763 -1.0000000000000007 0.0
    vertex 1.9318516525781357 -0.5176380902050429 6.0
    vertex 1.9318516525781357 -0.5176380902050429 0.0
  endloop
endfacet
facet normal -1.0 4.633777145736391e-16 0.0
  outer loop
    vertex 1.9999999999999996 -3.6739403974420584e-16 6.0
    vertex 1.9318516525781357 -0.5176380902050429 0.0
    vertex 1.9318516525781357 -0.5176380902050429 6.0
  endloop
endfacet
facet normal -0.965925826289068 0.25881904510252135 0.0
  outer loop
    vertex 1.9318516525781357 -0.5176380902050429 0.0
    vertex 1.9999999999999996 -3.6739403974420584e-16 6.0
    vertex 1.9999999999999996 -3.6739403974420584e-16 0.0
  endloop
endfacet
facet normal -0.9659258262890685 -0.25881904510252035 0.0
  outer loop
    vertex 1.9318516525781364 0.5176380902050405 6.0
    vertex 1.9999999999999996 -3.6739403974420584e-16 0.0
    vertex 1.9999999999999996 -3.6739403974420584e-16 6.0
  endloop
endfacet
facet normal -1.0 4.633777145736391e-16 0.0
  outer loop
    vertex 1.9999999999999996 -3.6739403974420584e-16 0.0
    vertex 1.9318516525781364 0.5176380902050405 6.0
    vertex 1.9318516525781364 0.5176380902050405 0.0
  endloop
endfacet
facet normal -0.8660254037844389 -0.49999999999999956 0.0
  outer loop
    vertex 1.7320508075688776 0.9999999999999983 6.0
    vertex 1.9318516525781364 0.5176380902050405 0.0
    vertex 1.9318516525781364 0.5176380902050405 6.0
  endloop
endfacet
facet normal -0.9659258262890685 -0.25881904510252035 0.0
  outer loop
    vertex 1.9318516525781364 0.5176380902050405 0.0
    vertex 1.7320508075688776 0.9999999999999983 6.0
    vertex 1.7320508075688776 0.9999999999999983 0.0
  endloop
endfacet
facet normal -0.7071067811865478 -0.7071067811865472 0.0
  outer loop
    vertex 1.4142135623730951 1.4142135623730943 6.0
    vertex 1.7320508075688776 0.9999999999999983 0.0
    vertex 1.7320508075688776 0.9999999999999983 6.0
  endloop
endfacet
facet normal -0.8660254037844389 -0.49999999999999956 0.0
  outer loop
    vertex 1.7320508075688776 0.9999999999999983 0.0
    vertex 1.4142135623730951 1.4142135623730943 6.0
    vertex 1.4142135623730951 1.4142135623730943 0.0
  endloop
endfacet
facet normal -0.7071067811865478 -0.7071067811865472 0.0
  outer loop
    vertex 1.4142135623730951 1.4142135623730943 6.0
    vertex 1.0000000000000007 1.7320508075688763 0.0
    vertex 1.4142135623730951 1.4142135623730943 0.0
  endloop
endfacet
facet normal -0.5000000000000003 -0.8660254037844384 0.0
  outer loop
    vertex 1.0000000000000007 1.7320508075688763 0.0
    vertex 1.4142135623730951 1.4142135623730943 6.0
    vertex 1.0000000000000007 1.7320508075688763 6.0
  endloop
endfacet
facet normal -0.5000000000000003 -0.8660254037844384 0.0
  outer loop
    vertex 1.0000000000000007 1.7320508075688763 6.0
    vertex 0.517638090205043 1.9318516525781357 0.0
    vertex 1.0000000000000007 1.7320508075688763 0.0
  endloop
endfacet
facet normal -0.25881904510252135 -0.9659258262890682 0.0
  outer loop
    vertex 0.517638090205043 1.9318516525781357 0.0
    vertex 1.0000000000000007 1.7320508075688763 6.0
    vertex 0.517638090205043 1.9318516525781357 6.0
  endloop
endfacet
facet normal -0.25881904510252135 -0.9659258262890682 0.0
  outer loop
    vertex 0.517638090205043 1.9318516525781357 6.0
    vertex 0.0 1.9999999999999996 0.0
    vertex 0.517638090205043 1.9318516525781357 0.0
  endloop
endfacet
facet normal -1.3366664843470358e-16 -1.0 0.0
  outer loop
    vertex 0.0 1.9999999999999996 0.0
    vertex 0.517638090205043 1.9318516525781357 6.0
    vertex 0.0 1.9999999999999996 6.0
  endloop
endfacet
facet normal -1.3366664843470358e-16 -1.0 0.0
  outer loop
    vertex 0.0 1.9999999999999996 6.0
    vertex -0.5176380902050414 1.931851652578136 0.0
    vertex 0.0 1.9999999999999996 0.0
  endloop
endfacet
facet normal 0.25881904510252074 -0.9659258262890682 0.0
  outer loop
    vertex -0.5176380902050414 1.931851652578136 0.0
    vertex 0.0 1.9999999999999996 6.0
    vertex -0.5176380902050414 1.931851652578136 6.0
  endloop
endfacet
facet normal 0.25881904510252074 -0.9659258262890682 0.0
  outer loop
    vertex -0.5176380902050414 1.931851652578136 6.0
    vertex -0.9999999999999996 1.732050807568877 0.0
    vertex -0.5176380902050414 1.931851652578136 0.0
  endloop
endfacet
facet normal 0.49999999999999994 -0.8660254037844388 0.0
  outer loop
    vertex -0.9999999999999996 1.732050807568877 0.0
    vertex -0.5176380902050414 1.931851652578136 6.0
    vertex -0.9999999999999996 1.732050807568877 6.0
  endloop
endfacet
facet normal 0.49999999999999994 -0.8660254037844388 0.0
  outer loop
    vertex -0.9999999999999996 1.732050807568877 6.0
    vertex -1.4142135623730945 1.414213562373095 0.0
    vertex -0.9999999999999996 1.732050807568877 0.0
  endloop
endfacet
facet normal 0.7071067811865475 -0.7071067811865477 0.0
  outer loop
    vertex -1.4142135623730945 1.414213562373095 0.0
    vertex -0.9999999999999996 1.732050807568877 6.0
    vertex -1.4142135623730945 1.414213562373095 6.0
  endloop
endfacet
facet normal 0.7071067811865475 -0.7071067811865477 0.0
  outer loop
    vertex -1.4142135623730945 1.414213562373095 0.0
    vertex -1.732050807568877 0.9999999999999999 6.0
    vertex -1.732050807568877 0.9999999999999999 0.0
  endloop
endfacet
facet normal 0.8660254037844386 -0.5 0.0
  outer loop
    vertex -1.732050807568877 0.9999999999999999 6.0
    vertex -1.4142135623730945 1.414213562373095 0.0
    vertex -1.4142135623730945 1.414213562373095 6.0
  endloop
endfacet
facet normal 0.8660254037844386 -0.5 0.0
  outer loop
    vertex -1.732050807568877 0.9999999999999999 0.0
    vertex -1.931851652578136 0.5176380902050418 6.0
    vertex -1.931851652578136 0.5176380902050418 0.0
  endloop
endfacet
facet normal 0.9659258262890683 -0.25881904510252074 0.0
  outer loop
    vertex -1.931851652578136 0.5176380902050418 6.0
    vertex -1.732050807568877 0.9999999999999999 0.0
    vertex -1.732050807568877 0.9999999999999999 6.0
  endloop
endfacet
facet normal 0.9659258262890683 -0.25881904510252074 0.0
  outer loop
    vertex -1.931851652578136 0.5176380902050418 0.0
    vertex -1.9999999999999996 1.224646799147353e-16 6.0
    vertex -1.9999999999999996 1.224646799147353e-16 0.0
  endloop
endfacet
facet normal 1.0 5.346665937388143e-17 0.0
  outer loop
    vertex -1.9999999999999996 1.224646799147353e-16 6.0
    vertex -1.931851652578136 0.5176380902050418 0.0
    vertex -1.931851652578136 0.5176380902050418 6.0
  endloop
endfacet
facet normal 1.0 5.346665937388143e-17 0.0
  outer loop
    vertex -1.9999999999999996 1.224646799147353e-16 0.0
    vertex -1.931851652578136 -0.5176380902050411 6.0
    vertex -1.931851652578136 -0.5176380902050411 0.0
  endloop
endfacet
facet normal 0.9659258262890683 0.2588190451025208 0.0
  outer loop
    vertex -1.931851652578136 -0.5176380902050411 6.0
    vertex -1.9999999999999996 1.224646799147353e-16 0.0
    vertex -1.9999999999999996 1.224646799147353e-16 6.0
  endloop
endfacet
facet normal 0.9659258262890683 0.2588190451025208 0.0
  outer loop
    vertex -1.931851652578136 -0.5176380902050411 0.0
    vertex -1.732050807568877 -0.9999999999999992 6.0
    vertex -1.732050807568877 -0.9999999999999992 0.0
  endloop
endfacet
facet normal 0.8660254037844389 0.4999999999999998 0.0
  outer loop
    vertex -1.732050807568877 -0.9999999999999992 6.0
    vertex -1.931851652578136 -0.5176380902050411 0.0
    vertex -1.931851652578136 -0.5176380902050411 6.0
  endloop
endfacet
facet normal 0.8660254037844389 0.4999999999999998 0.0
  outer loop
    vertex -1.732050807568877 -0.9999999999999992 0.0
    vertex -1.414213562373095 -1.4142135623730945 6.0
    vertex -1.414213562373095 -1.4142135623730945 0.0
  endloop
endfacet
facet normal 0.7071067811865479 0.7071067811865471 0.0
  outer loop
    vertex -1.414213562373095 -1.4142135623730945 6.0
    vertex -1.732050807568877 -0.9999999999999992 0.0
    vertex -1.732050807568877 -0.9999999999999992 6.0
  endloop
endfacet
facet normal 0.7071067811865479 0.7071067811865471 0.0
  outer loop
    vertex -1.414213562373095 -1.4142135623730945 6.0
    vertex -1.0000000000000004 -1.7320508075688765 0.0
    vertex -1.414213562373095 -1.4142135623730945 0.0
  endloop
endfacet
facet normal 0.5000000000000002 0.8660254037844385 0.0
  outer loop
    vertex -1.0000000000000004 -1.7320508075688765 0.0
    vertex -1.414213562373095 -1.4142135623730945 6.0
    vertex -1.0000000000000004 -1.7320508075688765 6.0
  endloop
endfacet
facet normal 0.5000000000000002 0.8660254037844385 0.0
  outer loop
    vertex -1.0000000000000004 -1.7320508075688765 6.0
    vertex -0.5176380902050419 -1.931851652578136 0.0
    vertex -1.0000000000000004 -1.7320508075688765 0.0
  endloop
endfacet
facet normal 0.25881904510252085 0.9659258262890682 0.0
  outer loop
    vertex -0.5176380902050419 -1.931851652578136 0.0
    vertex -1.0000000000000004 -1.7320508075688765 6.0
    vertex -0.5176380902050419 -1.931851652578136 6.0
  endloop
endfacet
facet normal 0.25881904510252085 0.9659258262890682 0.0
  outer loop
    vertex -0.5176380902050419 -1.931851652578136 6.0
    vertex -2.449293598294706e-16 -1.9999999999999996 0.0
    vertex -0.5176380902050419 -1.931851652578136 0.0
  endloop
endfacet
facet normal 2.2277774739117265e-16 1.0 0.0
  outer loop
    vertex -2.449293598294706e-16 -1.9999999999999996 0.0
    vertex -0.5176380902050419 -1.931851652578136 6.0
    vertex -2.449293598294706e-16 -1.9999999999999996 6.0
  endloop
endfacet
facet normal 2.2277774739117265e-16 1.0 0.0
  outer loop
    vertex -2.449293598294706e-16 -1.9999999999999996 6.0
    vertex 0.5176380902050406 -1.9318516525781364 0.0
    vertex -2.449293598294706e-16 -1.9999999999999996 0.0
  endloop
endfacet
facet normal -0.25881904510252035 0.9659258262890683 0.0
  outer loop
    vertex 0.5176380902050406 -1.9318516525781364 0.0
    vertex -2.449293598294706e-16 -1.9999999999999996 6.0
    vertex 0.5176380902050406 -1.9318516525781364 6.0
  endloop
endfacet
endsolid Untitled-5405269c
