solid Grounded Plug
facet normal 0.0 0.0 -1.0
  outer loop
    vertex 11.76000192751695 17.86279155225794 0.0
    vertex 11.0 6.999999999999998 0.0
    vertex 8.896962100893917 19.134154985709866 0.0
  endloop
endfacet
facet normal 0.0 0.0 -1.0
  outer loop
    vertex 11.0 6.999999999999998 0.0
    vertex 11.76000192751695 17.86279155225794 0.0
    vertex 12.75 6.999999999999998 0.0
  endloop
endfacet
facet normal 0.0 0.0 -1.0
  outer loop
    vertex 12.75 6.999999999999998 0.0
    vertex 11.76000192751695 17.86279155225794 0.0
    vertex 14.196432967922021 15.893739543270119 0.0
  endloop
endfacet
facet normal 0.0 0.0 -1.0
  outer loop
    vertex 12.75 6.999999999999998 0.0
    vertex 14.196432967922021 15.893739543270119 0.0
    vertex 12.75 0.0 0.0
  endloop
endfacet
facet normal 0.0 0.0 -1.0
  outer loop
    vertex 12.75 0.0 0.0
    vertex 14.196432967922021 15.893739543270119 0.0
    vertex 13.768739543270119 -1.071432967922025 0.0
  endloop
endfacet
facet normal 0.0 0.0 -1.0
  outer loop
    vertex 13.768739543270119 -1.071432967922025 0.0
    vertex 14.196432967922021 15.893739543270119 0.0
    vertex 15.737791552257942 1.3649980724830473 0.0
  endloop
endfacet
facet normal 0.0 0.0 -1.0
  outer loop
    vertex 15.737791552257942 1.3649980724830473 0.0
    vertex 14.196432967922021 15.893739543270119 0.0
    vertex 16.0402164730982 13.361186599146619 0.0
  endloop
endfacet
facet normal 0.0 0.0 -1.0
  outer loop
    vertex 15.737791552257942 1.3649980724830473 0.0
    vertex 16.0402164730982 13.361186599146619 0.0
    vertex 17.009154985709873 4.2280378991060825 0.0
  endloop
endfacet
facet normal 0.0 0.0 -1.0
  outer loop
    vertex 17.009154985709873 4.2280378991060825 0.0
    vertex 16.0402164730982 13.361186599146619 0.0
    vertex 17.165701644164034 10.437722017787845 0.0
  endloop
endfacet
facet normal 0.0 0.0 -1.0
  outer loop
    vertex 17.009154985709873 4.2280378991060825 0.0
    vertex 17.165701644164034 10.437722017787845 0.0
    vertex 17.496188526663573 7.322575079159735 0.0
  endloop
endfacet
facet normal 0.0 0.0 -1.0
  outer loop
    vertex 8.896962100893917 19.134154985709866 0.0
    vertex 7.999999999999998 15.499999999999996 0.0
    vertex 7.999999999999998 19.27532330997995 0.0
  endloop
endfacet
facet normal 0.0 0.0 -1.0
  outer loop
    vertex 7.999999999999998 15.499999999999996 0.0
    vertex 8.896962100893917 19.134154985709866 0.0
    vertex 8.312722017787847 -4.040701644164039 0.0
  endloop
endfacet
facet normal 0.0 0.0 -1.0
  outer loop
    vertex 8.312722017787847 -4.040701644164039 0.0
    vertex 8.896962100893917 19.134154985709866 0.0
    vertex 11.236186599146624 -2.9152164730982046 0.0
  endloop
endfacet
facet normal 0.0 0.0 -1.0
  outer loop
    vertex 11.236186599146624 -2.9152164730982046 0.0
    vertex 8.896962100893917 19.134154985709866 0.0
    vertex 11.0 0.0 0.0
  endloop
endfacet
facet normal 0.0 0.0 -1.0
  outer loop
    vertex 11.0 0.0 0.0
    vertex 8.896962100893917 19.134154985709866 0.0
    vertex 11.0 6.999999999999998 0.0
  endloop
endfacet
facet normal 0.0 0.0 -1.0
  outer loop
    vertex 11.236186599146624 -2.9152164730982046 0.0
    vertex 11.0 0.0 0.0
    vertex 12.75 0.0 0.0
  endloop
endfacet
facet normal 0.0 0.0 -1.0
  outer loop
    vertex 11.236186599146624 -2.9152164730982046 0.0
    vertex 12.75 0.0 0.0
    vertex 13.768739543270119 -1.071432967922025 0.0
  endloop
endfacet
facet normal 0.0 0.0 -1.0
  outer loop
    vertex -0.23618659914662135 18.1652164730982 0.0
    vertex -1.75 6.999999999999998 0.0
    vertex -2.7687395432701236 16.321432967922018 0.0
  endloop
endfacet
facet normal 0.0 0.0 -1.0
  outer loop
    vertex -1.75 6.999999999999998 0.0
    vertex -0.23618659914662135 18.1652164730982 0.0
    vertex 0.0 6.999999999999998 0.0
  endloop
endfacet
facet normal 0.0 0.0 -1.0
  outer loop
    vertex 0.0 6.999999999999998 0.0
    vertex -0.23618659914662135 18.1652164730982 0.0
    vertex 2.687277982212152 19.29070164416403 0.0
  endloop
endfacet
facet normal 0.0 0.0 -1.0
  outer loop
    vertex 0.0 6.999999999999998 0.0
    vertex 2.687277982212152 19.29070164416403 0.0
    vertex 0.0 0.0 0.0
  endloop
endfacet
facet normal 0.0 0.0 -1.0
  outer loop
    vertex 0.0 0.0 0.0
    vertex 2.687277982212152 19.29070164416403 0.0
    vertex 2.1030378991060847 -3.884154985709876 0.0
  endloop
endfacet
facet normal 0.0 0.0 -1.0
  outer loop
    vertex 2.1030378991060847 -3.884154985709876 0.0
    vertex 2.687277982212152 19.29070164416403 0.0
    vertex 3.0000000000000013 15.499999999999996 0.0
  endloop
endfacet
facet normal 0.0 0.0 -1.0
  outer loop
    vertex 2.1030378991060847 -3.884154985709876 0.0
    vertex 3.0000000000000013 15.499999999999996 0.0
    vertex 5.197575079159742 -4.371188526663578 0.0
  endloop
endfacet
facet normal 0.0 0.0 -1.0
  outer loop
    vertex 3.0000000000000013 15.499999999999996 0.0
    vertex 2.687277982212152 19.29070164416403 0.0
    vertex 3.0000000000000013 19.32387841777497 0.0
  endloop
endfacet
facet normal 0.0 0.0 -1.0
  outer loop
    vertex 5.197575079159742 -4.371188526663578 0.0
    vertex 3.0000000000000013 15.499999999999996 0.0
    vertex 3.085185434277331 14.852952387243695 0.0
  endloop
endfacet
facet normal 0.0 0.0 -1.0
  outer loop
    vertex 5.197575079159742 -4.371188526663578 0.0
    vertex 3.085185434277331 14.852952387243695 0.0
    vertex 3.3349364905389045 14.249999999999996 0.0
  endloop
endfacet
facet normal 0.0 0.0 -1.0
  outer loop
    vertex 5.197575079159742 -4.371188526663578 0.0
    vertex 3.3349364905389045 14.249999999999996 0.0
    vertex 3.732233047033632 13.73223304703363 0.0
  endloop
endfacet
facet normal 0.0 0.0 -1.0
  outer loop
    vertex 5.197575079159742 -4.371188526663578 0.0
    vertex 3.732233047033632 13.73223304703363 0.0
    vertex 4.250000000000001 13.334936490538903 0.0
  endloop
endfacet
facet normal 0.0 0.0 -1.0
  outer loop
    vertex 5.197575079159742 -4.371188526663578 0.0
    vertex 4.250000000000001 13.334936490538903 0.0
    vertex 4.852952387243699 13.085185434277328 0.0
  endloop
endfacet
facet normal 0.0 0.0 -1.0
  outer loop
    vertex 5.197575079159742 -4.371188526663578 0.0
    vertex 4.852952387243699 13.085185434277328 0.0
    vertex 5.5 12.999999999999998 0.0
  endloop
endfacet
facet normal 0.0 0.0 -1.0
  outer loop
    vertex 5.197575079159742 -4.371188526663578 0.0
    vertex 5.5 12.999999999999998 0.0
    vertex 8.312722017787847 -4.040701644164039 0.0
  endloop
endfacet
facet normal 0.0 0.0 -1.0
  outer loop
    vertex 8.312722017787847 -4.040701644164039 0.0
    vertex 5.5 12.999999999999998 0.0
    vertex 6.147047612756303 13.085185434277328 0.0
  endloop
endfacet
facet normal 0.0 0.0 -1.0
  outer loop
    vertex 8.312722017787847 -4.040701644164039 0.0
    vertex 6.147047612756303 13.085185434277328 0.0
    vertex 6.75 13.334936490538903 0.0
  endloop
endfacet
facet normal 0.0 0.0 -1.0
  outer loop
    vertex 8.312722017787847 -4.040701644164039 0.0
    vertex 6.75 13.334936490538903 0.0
    vertex 7.267766952966367 13.73223304703363 0.0
  endloop
endfacet
facet normal 0.0 0.0 -1.0
  outer loop
    vertex 8.312722017787847 -4.040701644164039 0.0
    vertex 7.267766952966367 13.73223304703363 0.0
    vertex 7.665063509461096 14.25 0.0
  endloop
endfacet
facet normal 0.0 0.0 -1.0
  outer loop
    vertex 8.312722017787847 -4.040701644164039 0.0
    vertex 7.665063509461096 14.25 0.0
    vertex 7.9148145657226685 14.852952387243695 0.0
  endloop
endfacet
facet normal 0.0 0.0 -1.0
  outer loop
    vertex 8.312722017787847 -4.040701644164039 0.0
    vertex 7.9148145657226685 14.852952387243695 0.0
    vertex 7.999999999999998 15.499999999999996 0.0
  endloop
endfacet
facet normal 0.0 0.0 -1.0
  outer loop
    vertex -6.009154985709876 11.02196210089391 0.0
    vertex -6.165701644164035 4.812277982212146 0.0
    vertex -6.496188526663575 7.927424920840253 0.0
  endloop
endfacet
facet normal 0.0 0.0 -1.0
  outer loop
    vertex -6.165701644164035 4.812277982212146 0.0
    vertex -6.009154985709876 11.02196210089391 0.0
    vertex -5.0402164730982015 1.8888134008533712 0.0
  endloop
endfacet
facet normal 0.0 0.0 -1.0
  outer loop
    vertex -5.0402164730982015 1.8888134008533712 0.0
    vertex -6.009154985709876 11.02196210089391 0.0
    vertex -4.737791552257945 13.885001927516942 0.0
  endloop
endfacet
facet normal 0.0 0.0 -1.0
  outer loop
    vertex -5.0402164730982015 1.8888134008533712 0.0
    vertex -4.737791552257945 13.885001927516942 0.0
    vertex -3.196432967922022 -0.6437395432701252 0.0
  endloop
endfacet
facet normal 0.0 0.0 -1.0
  outer loop
    vertex -3.196432967922022 -0.6437395432701252 0.0
    vertex -4.737791552257945 13.885001927516942 0.0
    vertex -2.7687395432701236 16.321432967922018 0.0
  endloop
endfacet
facet normal 0.0 0.0 -1.0
  outer loop
    vertex -3.196432967922022 -0.6437395432701252 0.0
    vertex -2.7687395432701236 16.321432967922018 0.0
    vertex -1.75 0.0 0.0
  endloop
endfacet
facet normal 0.0 0.0 -1.0
  outer loop
    vertex -3.196432967922022 -0.6437395432701252 0.0
    vertex -1.75 0.0 0.0
    vertex -0.7600019275169487 -2.612791552257947 0.0
  endloop
endfacet
facet normal 0.0 0.0 -1.0
  outer loop
    vertex -1.75 0.0 0.0
    vertex -2.7687395432701236 16.321432967922018 0.0
    vertex -1.75 6.999999999999998 0.0
  endloop
endfacet
facet normal 0.0 0.0 -1.0
  outer loop
    vertex -0.7600019275169487 -2.612791552257947 0.0
    vertex -1.75 0.0 0.0
    vertex 0.0 0.0 0.0
  endloop
endfacet
facet normal 0.0 0.0 -1.0
  outer loop
    vertex -0.7600019275169487 -2.612791552257947 0.0
    vertex 0.0 0.0 0.0
    vertex 2.1030378991060847 -3.884154985709876 0.0
  endloop
endfacet
facet normal -0.6890616286058435 0.7247027473268352 0.0
  outer loop
    vertex -2.7687395432701236 16.321432967922018 22.0
    vertex -4.737791552257945 13.885001927516942 0.0
    vertex -4.737791552257945 13.885001927516942 22.0
  endloop
endfacet
facet normal -0.8531492960214951 0.5216668272930792 0.0
  outer loop
    vertex -4.737791552257945 13.885001927516942 0.0
    vertex -2.7687395432701236 16.321432967922018 22.0
    vertex -2.7687395432701236 16.321432967922018 0.0
  endloop
endfacet
facet normal -0.6890616286058435 0.7247027473268352 0.0
  outer loop
    vertex -2.7687395432701236 16.321432967922018 22.0
    vertex -0.23618659914662135 18.1652164730982 0.0
    vertex -2.7687395432701236 16.321432967922018 0.0
  endloop
endfacet
facet normal -0.47801554992888523 0.8783513727581835 0.0
  outer loop
    vertex -0.23618659914662135 18.1652164730982 0.0
    vertex -2.7687395432701236 16.321432967922018 22.0
    vertex -0.23618659914662135 18.1652164730982 22.0
  endloop
endfacet
facet normal -0.47801554992888523 0.8783513727581835 0.0
  outer loop
    vertex -0.23618659914662135 18.1652164730982 22.0
    vertex 2.687277982212152 19.29070164416403 0.0
    vertex -0.23618659914662135 18.1652164730982 0.0
  endloop
endfacet
facet normal -0.2343935014823192 0.9721418036803366 0.0
  outer loop
    vertex 2.687277982212152 19.29070164416403 0.0
    vertex -0.23618659914662135 18.1652164730982 22.0
    vertex 2.687277982212152 19.29070164416403 22.0
  endloop
endfacet
facet normal -0.2343935014823192 0.9721418036803366 0.0
  outer loop
    vertex 2.687277982212152 19.29070164416403 22.0
    vertex 3.0000000000000013 19.32387841777497 0.0
    vertex 2.687277982212152 19.29070164416403 0.0
  endloop
endfacet
facet normal -0.10549826465173176 0.9944194870151496 -0.0
  outer loop
    vertex 3.0000000000000013 19.32387841777497 0.0
    vertex 2.687277982212152 19.29070164416403 22.0
    vertex 3.0000000000000013 19.32387841777497 22.0
  endloop
endfacet
facet normal 0.1554712036048119 0.9878404247901942 -0.0
  outer loop
    vertex 7.999999999999998 19.27532330997995 22.0
    vertex 8.896962100893917 19.134154985709866 0.0
    vertex 7.999999999999998 19.27532330997995 0.0
  endloop
endfacet
facet normal 0.2830801750744938 0.9590962488091558 0.0
  outer loop
    vertex 8.896962100893917 19.134154985709866 0.0
    vertex 7.999999999999998 19.27532330997995 22.0
    vertex 8.896962100893917 19.134154985709866 22.0
  endloop
endfacet
facet normal 0.2830801750744938 0.9590962488091558 0.0
  outer loop
    vertex 8.896962100893917 19.134154985709866 22.0
    vertex 11.76000192751695 17.86279155225794 0.0
    vertex 8.896962100893917 19.134154985709866 0.0
  endloop
endfacet
facet normal 0.521666827293079 0.8531492960214953 0.0
  outer loop
    vertex 11.76000192751695 17.86279155225794 0.0
    vertex 8.896962100893917 19.134154985709866 22.0
    vertex 11.76000192751695 17.86279155225794 22.0
  endloop
endfacet
facet normal 0.521666827293079 0.8531492960214953 0.0
  outer loop
    vertex 11.76000192751695 17.86279155225794 22.0
    vertex 14.196432967922021 15.893739543270119 0.0
    vertex 11.76000192751695 17.86279155225794 0.0
  endloop
endfacet
facet normal 0.7247027473268352 0.6890616286058434 0.0
  outer loop
    vertex 14.196432967922021 15.893739543270119 0.0
    vertex 11.76000192751695 17.86279155225794 22.0
    vertex 14.196432967922021 15.893739543270119 22.0
  endloop
endfacet
facet normal 0.7247027473268352 0.6890616286058434 0.0
  outer loop
    vertex 14.196432967922021 15.893739543270119 0.0
    vertex 16.0402164730982 13.361186599146619 22.0
    vertex 16.0402164730982 13.361186599146619 0.0
  endloop
endfacet
facet normal 0.8783513727581835 0.47801554992888506 0.0
  outer loop
    vertex 16.0402164730982 13.361186599146619 22.0
    vertex 14.196432967922021 15.893739543270119 0.0
    vertex 14.196432967922021 15.893739543270119 22.0
  endloop
endfacet
facet normal 0.8783513727581835 0.47801554992888506 0.0
  outer loop
    vertex 16.0402164730982 13.361186599146619 0.0
    vertex 17.165701644164034 10.437722017787845 22.0
    vertex 17.165701644164034 10.437722017787845 0.0
  endloop
endfacet
facet normal 0.9721418036803363 0.23439350148232055 0.0
  outer loop
    vertex 17.165701644164034 10.437722017787845 22.0
    vertex 16.0402164730982 13.361186599146619 0.0
    vertex 16.0402164730982 13.361186599146619 22.0
  endloop
endfacet
facet normal 0.9721418036803363 0.23439350148232055 0.0
  outer loop
    vertex 17.165701644164034 10.437722017787845 0.0
    vertex 17.496188526663573 7.322575079159735 22.0
    vertex 17.496188526663573 7.322575079159735 0.0
  endloop
endfacet
facet normal 0.9996823772219644 -0.025202076736688155 0.0
  outer loop
    vertex 17.496188526663573 7.322575079159735 22.0
    vertex 17.165701644164034 10.437722017787845 0.0
    vertex 17.165701644164034 10.437722017787845 22.0
  endloop
endfacet
facet normal 0.9996823772219644 -0.025202076736688155 0.0
  outer loop
    vertex 17.496188526663573 7.322575079159735 0.0
    vertex 17.009154985709873 4.2280378991060825 22.0
    vertex 17.009154985709873 4.2280378991060825 0.0
  endloop
endfacet
facet normal 0.9590962488091559 -0.28308017507449296 0.0
  outer loop
    vertex 17.009154985709873 4.2280378991060825 22.0
    vertex 17.496188526663573 7.322575079159735 0.0
    vertex 17.496188526663573 7.322575079159735 22.0
  endloop
endfacet
facet normal 0.9590962488091559 -0.28308017507449296 0.0
  outer loop
    vertex 17.009154985709873 4.2280378991060825 0.0
    vertex 15.737791552257942 1.3649980724830473 22.0
    vertex 15.737791552257942 1.3649980724830473 0.0
  endloop
endfacet
facet normal 0.853149296021495 -0.5216668272930792 0.0
  outer loop
    vertex 15.737791552257942 1.3649980724830473 22.0
    vertex 17.009154985709873 4.2280378991060825 0.0
    vertex 17.009154985709873 4.2280378991060825 22.0
  endloop
endfacet
facet normal 0.853149296021495 -0.5216668272930792 0.0
  outer loop
    vertex 15.737791552257942 1.3649980724830473 0.0
    vertex 13.768739543270119 -1.071432967922025 22.0
    vertex 13.768739543270119 -1.071432967922025 0.0
  endloop
endfacet
facet normal 0.6890616286058432 -0.7247027473268354 0.0
  outer loop
    vertex 13.768739543270119 -1.071432967922025 22.0
    vertex 15.737791552257942 1.3649980724830473 0.0
    vertex 15.737791552257942 1.3649980724830473 22.0
  endloop
endfacet
facet normal 0.6890616286058432 -0.7247027473268354 0.0
  outer loop
    vertex 13.768739543270119 -1.071432967922025 22.0
    vertex 11.236186599146624 -2.9152164730982046 0.0
    vertex 13.768739543270119 -1.071432967922025 0.0
  endloop
endfacet
facet normal 0.4780155499288858 -0.8783513727581833 0.0
  outer loop
    vertex 11.236186599146624 -2.9152164730982046 0.0
    vertex 13.768739543270119 -1.071432967922025 22.0
    vertex 11.236186599146624 -2.9152164730982046 22.0
  endloop
endfacet
facet normal 0.4780155499288858 -0.8783513727581833 0.0
  outer loop
    vertex 11.236186599146624 -2.9152164730982046 22.0
    vertex 8.312722017787847 -4.040701644164039 0.0
    vertex 11.236186599146624 -2.9152164730982046 0.0
  endloop
endfacet
facet normal 0.23439350148232063 -0.9721418036803362 0.0
  outer loop
    vertex 8.312722017787847 -4.040701644164039 0.0
    vertex 11.236186599146624 -2.9152164730982046 22.0
    vertex 8.312722017787847 -4.040701644164039 22.0
  endloop
endfacet
facet normal 0.23439350148232063 -0.9721418036803362 0.0
  outer loop
    vertex 8.312722017787847 -4.040701644164039 22.0
    vertex 5.197575079159742 -4.371188526663578 0.0
    vertex 8.312722017787847 -4.040701644164039 0.0
  endloop
endfacet
facet normal -0.025202076736688173 -0.9996823772219644 0.0
  outer loop
    vertex 5.197575079159742 -4.371188526663578 0.0
    vertex 8.312722017787847 -4.040701644164039 22.0
    vertex 5.197575079159742 -4.371188526663578 22.0
  endloop
endfacet
facet normal -0.025202076736688173 -0.9996823772219644 0.0
  outer loop
    vertex 5.197575079159742 -4.371188526663578 22.0
    vertex 2.1030378991060847 -3.884154985709876 0.0
    vertex 5.197575079159742 -4.371188526663578 0.0
  endloop
endfacet
facet normal -0.2830801750744927 -0.9590962488091559 0.0
  outer loop
    vertex 2.1030378991060847 -3.884154985709876 0.0
    vertex 5.197575079159742 -4.371188526663578 22.0
    vertex 2.1030378991060847 -3.884154985709876 22.0
  endloop
endfacet
facet normal -0.2830801750744927 -0.9590962488091559 0.0
  outer loop
    vertex 2.1030378991060847 -3.884154985709876 22.0
    vertex -0.7600019275169487 -2.612791552257947 0.0
    vertex 2.1030378991060847 -3.884154985709876 0.0
  endloop
endfacet
facet normal -0.521666827293079 -0.8531492960214951 0.0
  outer loop
    vertex -0.7600019275169487 -2.612791552257947 0.0
    vertex 2.1030378991060847 -3.884154985709876 22.0
    vertex -0.7600019275169487 -2.612791552257947 22.0
  endloop
endfacet
facet normal -0.521666827293079 -0.8531492960214951 0.0
  outer loop
    vertex -0.7600019275169487 -2.612791552257947 22.0
    vertex -3.196432967922022 -0.6437395432701252 0.0
    vertex -0.7600019275169487 -2.612791552257947 0.0
  endloop
endfacet
facet normal -0.7247027473268354 -0.6890616286058434 0.0
  outer loop
    vertex -3.196432967922022 -0.6437395432701252 0.0
    vertex -0.7600019275169487 -2.612791552257947 22.0
    vertex -3.196432967922022 -0.6437395432701252 22.0
  endloop
endfacet
facet normal -0.8783513727581832 -0.4780155499288858 0.0
  outer loop
    vertex -5.0402164730982015 1.8888134008533712 22.0
    vertex -3.196432967922022 -0.6437395432701252 0.0
    vertex -3.196432967922022 -0.6437395432701252 22.0
  endloop
endfacet
facet normal -0.7247027473268354 -0.6890616286058434 0.0
  outer loop
    vertex -3.196432967922022 -0.6437395432701252 0.0
    vertex -5.0402164730982015 1.8888134008533712 22.0
    vertex -5.0402164730982015 1.8888134008533712 0.0
  endloop
endfacet
facet normal -0.9721418036803362 -0.23439350148232088 0.0
  outer loop
    vertex -6.165701644164035 4.812277982212146 22.0
    vertex -5.0402164730982015 1.8888134008533712 0.0
    vertex -5.0402164730982015 1.8888134008533712 22.0
  endloop
endfacet
facet normal -0.8783513727581832 -0.4780155499288858 0.0
  outer loop
    vertex -5.0402164730982015 1.8888134008533712 0.0
    vertex -6.165701644164035 4.812277982212146 22.0
    vertex -6.165701644164035 4.812277982212146 0.0
  endloop
endfacet
facet normal -0.9996823772219646 0.02520207673668782 0.0
  outer loop
    vertex -6.496188526663575 7.927424920840253 22.0
    vertex -6.165701644164035 4.812277982212146 0.0
    vertex -6.165701644164035 4.812277982212146 22.0
  endloop
endfacet
facet normal -0.9721418036803362 -0.23439350148232088 0.0
  outer loop
    vertex -6.165701644164035 4.812277982212146 0.0
    vertex -6.496188526663575 7.927424920840253 22.0
    vertex -6.496188526663575 7.927424920840253 0.0
  endloop
endfacet
facet normal -0.959096248809156 0.2830801750744927 0.0
  outer loop
    vertex -6.009154985709876 11.02196210089391 22.0
    vertex -6.496188526663575 7.927424920840253 0.0
    vertex -6.496188526663575 7.927424920840253 22.0
  endloop
endfacet
facet normal -0.9996823772219646 0.02520207673668782 0.0
  outer loop
    vertex -6.496188526663575 7.927424920840253 0.0
    vertex -6.009154985709876 11.02196210089391 22.0
    vertex -6.009154985709876 11.02196210089391 0.0
  endloop
endfacet
facet normal -0.8531492960214951 0.5216668272930792 0.0
  outer loop
    vertex -4.737791552257945 13.885001927516942 22.0
    vertex -6.009154985709876 11.02196210089391 0.0
    vertex -6.009154985709876 11.02196210089391 22.0
  endloop
endfacet
facet normal -0.959096248809156 0.2830801750744927 0.0
  outer loop
    vertex -6.009154985709876 11.02196210089391 0.0
    vertex -4.737791552257945 13.885001927516942 22.0
    vertex -4.737791552257945 13.885001927516942 0.0
  endloop
endfacet
facet normal 1.0 0.0 0.0
  outer loop
    vertex 11.0 6.999999999999998 0.0
    vertex 11.0 0.0 22.0
    vertex 11.0 0.0 0.0
  endloop
endfacet
facet normal 1.0 0.0 0.0
  outer loop
    vertex 11.0 0.0 22.0
    vertex 11.0 6.999999999999998 0.0
    vertex 11.0 6.999999999999998 22.0
  endloop
endfacet
facet normal -0.0 1.0 0.0
  outer loop
    vertex 11.0 0.0 22.0
    vertex 12.75 0.0 0.0
    vertex 11.0 0.0 0.0
  endloop
endfacet
facet normal -0.0 1.0 0.0
  outer loop
    vertex 12.75 0.0 0.0
    vertex 11.0 0.0 22.0
    vertex 12.75 0.0 22.0
  endloop
endfacet
facet normal -1.0 0.0 0.0
  outer loop
    vertex 12.75 6.999999999999998 22.0
    vertex 12.75 0.0 0.0
    vertex 12.75 0.0 22.0
  endloop
endfacet
facet normal -1.0 0.0 0.0
  outer loop
    vertex 12.75 0.0 0.0
    vertex 12.75 6.999999999999998 22.0
    vertex 12.75 6.999999999999998 0.0
  endloop
endfacet
facet normal -0.0 -1.0 -0.0
  outer loop
    vertex 12.75 6.999999999999998 22.0
    vertex 11.0 6.999999999999998 0.0
    vertex 12.75 6.999999999999998 0.0
  endloop
endfacet
facet normal -0.0 -1.0 -0.0
  outer loop
    vertex 11.0 6.999999999999998 0.0
    vertex 12.75 6.999999999999998 22.0
    vertex 11.0 6.999999999999998 22.0
  endloop
endfacet
facet normal -0.0 1.0 0.0
  outer loop
    vertex -1.75 0.0 22.0
    vertex 0.0 0.0 0.0
    vertex -1.75 0.0 0.0
  endloop
endfacet
facet normal -0.0 1.0 0.0
  outer loop
    vertex 0.0 0.0 0.0
    vertex -1.75 0.0 22.0
    vertex 0.0 0.0 22.0
  endloop
endfacet
facet normal -1.0 0.0 0.0
  outer loop
    vertex 0.0 6.999999999999998 22.0
    vertex 0.0 0.0 0.0
    vertex 0.0 0.0 22.0
  endloop
endfacet
facet normal -1.0 0.0 0.0
  outer loop
    vertex 0.0 0.0 0.0
    vertex 0.0 6.999999999999998 22.0
    vertex 0.0 6.999999999999998 0.0
  endloop
endfacet
facet normal -0.0 -1.0 -0.0
  outer loop
    vertex 0.0 6.999999999999998 22.0
    vertex -1.75 6.999999999999998 0.0
    vertex 0.0 6.999999999999998 0.0
  endloop
endfacet
facet normal -0.0 -1.0 -0.0
  outer loop
    vertex -1.75 6.999999999999998 0.0
    vertex 0.0 6.999999999999998 22.0
    vertex -1.75 6.999999999999998 22.0
  endloop
endfacet
facet normal 1.0 0.0 0.0
  outer loop
    vertex -1.75 6.999999999999998 0.0
    vertex -1.75 0.0 22.0
    vertex -1.75 0.0 0.0
  endloop
endfacet
facet normal 1.0 0.0 0.0
  outer loop
    vertex -1.75 0.0 22.0
    vertex -1.75 6.999999999999998 0.0
    vertex -1.75 6.999999999999998 22.0
  endloop
endfacet
facet normal 8.911808742280093e-32 -1.4568264329779727e-32 1.0
  outer loop
    vertex -2.7687395432701236 16.321432967922018 22.0
    vertex -1.75 6.999999999999998 22.0
    vertex -0.23618659914662135 18.1652164730982 22.0
  endloop
endfacet
facet normal 8.911808742280093e-32 -1.4568264329779727e-32 1.0
  outer loop
    vertex -1.75 6.999999999999998 22.0
    vertex -2.7687395432701236 16.321432967922018 22.0
    vertex -1.75 0.0 22.0
  endloop
endfacet
facet normal 8.911808742280093e-32 -1.4568264329779727e-32 1.0
  outer loop
    vertex -0.23618659914662135 18.1652164730982 22.0
    vertex -1.75 6.999999999999998 22.0
    vertex 0.0 6.999999999999998 22.0
  endloop
endfacet
facet normal 8.911808742280093e-32 -1.4568264329779727e-32 1.0
  outer loop
    vertex -0.23618659914662135 18.1652164730982 22.0
    vertex 0.0 6.999999999999998 22.0
    vertex 2.687277982212152 19.29070164416403 22.0
  endloop
endfacet
facet normal 8.911808742280093e-32 -1.4568264329779727e-32 1.0
  outer loop
    vertex 2.687277982212152 19.29070164416403 22.0
    vertex 0.0 6.999999999999998 22.0
    vertex 2.1030378991060847 -3.884154985709876 22.0
  endloop
endfacet
facet normal 8.911808742280093e-32 -1.4568264329779727e-32 1.0
  outer loop
    vertex 2.687277982212152 19.29070164416403 22.0
    vertex 2.1030378991060847 -3.884154985709876 22.0
    vertex 3.0000000000000013 15.499999999999996 22.0
  endloop
endfacet
facet normal 8.911808742280093e-32 -1.4568264329779727e-32 1.0
  outer loop
    vertex 3.0000000000000013 15.499999999999996 22.0
    vertex 2.1030378991060847 -3.884154985709876 22.0
    vertex 5.197575079159742 -4.371188526663578 22.0
  endloop
endfacet
facet normal 8.911808742280093e-32 -1.4568264329779727e-32 1.0
  outer loop
    vertex 3.0000000000000013 15.499999999999996 22.0
    vertex 5.197575079159742 -4.371188526663578 22.0
    vertex 3.085185434277331 14.852952387243695 22.0
  endloop
endfacet
facet normal 8.911808742280093e-32 -1.4568264329779727e-32 1.0
  outer loop
    vertex 3.085185434277331 14.852952387243695 22.0
    vertex 5.197575079159742 -4.371188526663578 22.0
    vertex 3.3349364905389045 14.249999999999996 22.0
  endloop
endfacet
facet normal 8.911808742280093e-32 -1.4568264329779727e-32 1.0
  outer loop
    vertex 3.3349364905389045 14.249999999999996 22.0
    vertex 5.197575079159742 -4.371188526663578 22.0
    vertex 3.732233047033632 13.73223304703363 22.0
  endloop
endfacet
facet normal 8.911808742280093e-32 -1.4568264329779727e-32 1.0
  outer loop
    vertex 3.732233047033632 13.73223304703363 22.0
    vertex 5.197575079159742 -4.371188526663578 22.0
    vertex 4.250000000000001 13.334936490538903 22.0
  endloop
endfacet
facet normal 8.911808742280093e-32 -1.4568264329779727e-32 1.0
  outer loop
    vertex 4.250000000000001 13.334936490538903 22.0
    vertex 5.197575079159742 -4.371188526663578 22.0
    vertex 4.852952387243699 13.085185434277328 22.0
  endloop
endfacet
facet normal 8.911808742280093e-32 -1.4568264329779727e-32 1.0
  outer loop
    vertex 4.852952387243699 13.085185434277328 22.0
    vertex 5.197575079159742 -4.371188526663578 22.0
    vertex 5.5 12.999999999999998 22.0
  endloop
endfacet
facet normal 8.911808742280093e-32 -1.4568264329779727e-32 1.0
  outer loop
    vertex 5.5 12.999999999999998 22.0
    vertex 5.197575079159742 -4.371188526663578 22.0
    vertex 8.312722017787847 -4.040701644164039 22.0
  endloop
endfacet
facet normal 8.911808742280093e-32 -1.4568264329779727e-32 1.0
  outer loop
    vertex 5.5 12.999999999999998 22.0
    vertex 8.312722017787847 -4.040701644164039 22.0
    vertex 6.147047612756303 13.085185434277328 22.0
  endloop
endfacet
facet normal 8.911808742280093e-32 -1.4568264329779727e-32 1.0
  outer loop
    vertex 6.147047612756303 13.085185434277328 22.0
    vertex 8.312722017787847 -4.040701644164039 22.0
    vertex 6.75 13.334936490538903 22.0
  endloop
endfacet
facet normal 8.911808742280093e-32 -1.4568264329779727e-32 1.0
  outer loop
    vertex 6.75 13.334936490538903 22.0
    vertex 8.312722017787847 -4.040701644164039 22.0
    vertex 7.267766952966367 13.73223304703363 22.0
  endloop
endfacet
facet normal 8.911808742280093e-32 -1.4568264329779727e-32 1.0
  outer loop
    vertex 7.267766952966367 13.73223304703363 22.0
    vertex 8.312722017787847 -4.040701644164039 22.0
    vertex 7.665063509461096 14.25 22.0
  endloop
endfacet
facet normal 8.911808742280093e-32 -1.4568264329779727e-32 1.0
  outer loop
    vertex 7.665063509461096 14.25 22.0
    vertex 8.312722017787847 -4.040701644164039 22.0
    vertex 7.9148145657226685 14.852952387243695 22.0
  endloop
endfacet
facet normal 8.911808742280093e-32 -1.4568264329779727e-32 1.0
  outer loop
    vertex 7.9148145657226685 14.852952387243695 22.0
    vertex 8.312722017787847 -4.040701644164039 22.0
    vertex 7.999999999999998 15.499999999999996 22.0
  endloop
endfacet
facet normal 8.911808742280093e-32 -1.4568264329779727e-32 1.0
  outer loop
    vertex 7.999999999999998 15.499999999999996 22.0
    vertex 8.312722017787847 -4.040701644164039 22.0
    vertex 7.999999999999998 19.27532330997995 22.0
  endloop
endfacet
facet normal 8.911808742280093e-32 -1.4568264329779727e-32 1.0
  outer loop
    vertex 7.999999999999998 19.27532330997995 22.0
    vertex 8.312722017787847 -4.040701644164039 22.0
    vertex 8.896962100893917 19.134154985709866 22.0
  endloop
endfacet
facet normal 8.911808742280093e-32 -1.4568264329779727e-32 1.0
  outer loop
    vertex 8.896962100893917 19.134154985709866 22.0
    vertex 8.312722017787847 -4.040701644164039 22.0
    vertex 11.236186599146624 -2.9152164730982046 22.0
  endloop
endfacet
facet normal 8.911808742280093e-32 -1.4568264329779727e-32 1.0
  outer loop
    vertex 8.896962100893917 19.134154985709866 22.0
    vertex 11.236186599146624 -2.9152164730982046 22.0
    vertex 11.0 0.0 22.0
  endloop
endfacet
facet normal 8.911808742280093e-32 -1.4568264329779727e-32 1.0
  outer loop
    vertex 11.0 0.0 22.0
    vertex 11.236186599146624 -2.9152164730982046 22.0
    vertex 12.75 0.0 22.0
  endloop
endfacet
facet normal 8.911808742280093e-32 -1.4568264329779727e-32 1.0
  outer loop
    vertex 12.75 0.0 22.0
    vertex 11.236186599146624 -2.9152164730982046 22.0
    vertex 13.768739543270119 -1.071432967922025 22.0
  endloop
endfacet
facet normal 8.911808742280093e-32 -1.4568264329779727e-32 1.0
  outer loop
    vertex 12.75 0.0 22.0
    vertex 13.768739543270119 -1.071432967922025 22.0
    vertex 12.75 6.999999999999998 22.0
  endloop
endfacet
facet normal 8.911808742280093e-32 -1.4568264329779727e-32 1.0
  outer loop
    vertex 8.896962100893917 19.134154985709866 22.0
    vertex 11.0 6.999999999999998 22.0
    vertex 11.76000192751695 17.86279155225794 22.0
  endloop
endfacet
facet normal 8.911808742280093e-32 -1.4568264329779727e-32 1.0
  outer loop
    vertex 11.0 6.999999999999998 22.0
    vertex 8.896962100893917 19.134154985709866 22.0
    vertex 11.0 0.0 22.0
  endloop
endfacet
facet normal 8.911808742280093e-32 -1.4568264329779727e-32 1.0
  outer loop
    vertex 11.76000192751695 17.86279155225794 22.0
    vertex 11.0 6.999999999999998 22.0
    vertex 12.75 6.999999999999998 22.0
  endloop
endfacet
facet normal 8.911808742280093e-32 -1.4568264329779727e-32 1.0
  outer loop
    vertex 11.76000192751695 17.86279155225794 22.0
    vertex 12.75 6.999999999999998 22.0
    vertex 14.196432967922021 15.893739543270119 22.0
  endloop
endfacet
facet normal 8.911808742280093e-32 -1.4568264329779727e-32 1.0
  outer loop
    vertex 14.196432967922021 15.893739543270119 22.0
    vertex 12.75 6.999999999999998 22.0
    vertex 13.768739543270119 -1.071432967922025 22.0
  endloop
endfacet
facet normal 8.911808742280093e-32 -1.4568264329779727e-32 1.0
  outer loop
    vertex 14.196432967922021 15.893739543270119 22.0
    vertex 13.768739543270119 -1.071432967922025 22.0
    vertex 15.737791552257942 1.3649980724830473 22.0
  endloop
endfacet
facet normal 8.911808742280093e-32 -1.4568264329779727e-32 1.0
  outer loop
    vertex 14.196432967922021 15.893739543270119 22.0
    vertex 15.737791552257942 1.3649980724830473 22.0
    vertex 16.0402164730982 13.361186599146619 22.0
  endloop
endfacet
facet normal 8.911808742280093e-32 -1.4568264329779727e-32 1.0
  outer loop
    vertex 16.0402164730982 13.361186599146619 22.0
    vertex 15.737791552257942 1.3649980724830473 22.0
    vertex 17.009154985709873 4.2280378991060825 22.0
  endloop
endfacet
facet normal 8.911808742280093e-32 -1.4568264329779727e-32 1.0
  outer loop
    vertex 16.0402164730982 13.361186599146619 22.0
    vertex 17.009154985709873 4.2280378991060825 22.0
    vertex 17.165701644164034 10.437722017787845 22.0
  endloop
endfacet
facet normal 8.911808742280093e-32 -1.4568264329779727e-32 1.0
  outer loop
    vertex 17.165701644164034 10.437722017787845 22.0
    vertex 17.009154985709873 4.2280378991060825 22.0
    vertex 17.496188526663573 7.322575079159735 22.0
  endloop
endfacet
facet normal 8.911808742280093e-32 -1.4568264329779727e-32 1.0
  outer loop
    vertex -6.165701644164035 4.812277982212146 22.0
    vertex -6.009154985709876 11.02196210089391 22.0
    vertex -6.496188526663575 7.927424920840253 22.0
  endloop
endfacet
facet normal 8.911808742280093e-32 -1.4568264329779727e-32 1.0
  outer loop
    vertex -6.009154985709876 11.02196210089391 22.0
    vertex -6.165701644164035 4.812277982212146 22.0
    vertex -5.0402164730982015 1.8888134008533712 22.0
  endloop
endfacet
facet normal 8.911808742280093e-32 -1.4568264329779727e-32 1.0
  outer loop
    vertex -6.009154985709876 11.02196210089391 22.0
    vertex -5.0402164730982015 1.8888134008533712 22.0
    vertex -4.737791552257945 13.885001927516942 22.0
  endloop
endfacet
facet normal 8.911808742280093e-32 -1.4568264329779727e-32 1.0
  outer loop
    vertex -4.737791552257945 13.885001927516942 22.0
    vertex -5.0402164730982015 1.8888134008533712 22.0
    vertex -3.196432967922022 -0.6437395432701252 22.0
  endloop
endfacet
facet normal 8.911808742280093e-32 -1.4568264329779727e-32 1.0
  outer loop
    vertex -4.737791552257945 13.885001927516942 22.0
    vertex -3.196432967922022 -0.6437395432701252 22.0
    vertex -2.7687395432701236 16.321432967922018 22.0
  endloop
endfacet
facet normal 8.911808742280093e-32 -1.4568264329779727e-32 1.0
  outer loop
    vertex -2.7687395432701236 16.321432967922018 22.0
    vertex -3.196432967922022 -0.6437395432701252 22.0
    vertex -1.75 0.0 22.0
  endloop
endfacet
facet normal 8.911808742280093e-32 -1.4568264329779727e-32 1.0
  outer loop
    vertex -1.75 0.0 22.0
    vertex -3.196432967922022 -0.6437395432701252 22.0
    vertex -0.7600019275169487 -2.612791552257947 22.0
  endloop
endfacet
facet normal 8.911808742280093e-32 -1.4568264329779727e-32 1.0
  outer loop
    vertex -1.75 0.0 22.0
    vertex -0.7600019275169487 -2.612791552257947 22.0
    vertex 0.0 0.0 22.0
  endloop
endfacet
facet normal 8.911808742280093e-32 -1.4568264329779727e-32 1.0
  outer loop
    vertex 0.0 0.0 22.0
    vertex -0.7600019275169487 -2.612791552257947 22.0
    vertex 2.1030378991060847 -3.884154985709876 22.0
  endloop
endfacet
facet normal 8.911808742280093e-32 -1.4568264329779727e-32 1.0
  outer loop
    vertex 0.0 0.0 22.0
    vertex 2.1030378991060847 -3.884154985709876 22.0
    vertex 0.0 6.999999999999998 22.0
  endloop
endfacet
facet normal 8.911808742280093e-32 -1.4568264329779727e-32 1.0
  outer loop
    vertex 3.0000000000000013 19.32387841777497 22.0
    vertex 2.687277982212152 19.29070164416403 22.0
    vertex 3.0000000000000013 15.499999999999996 22.0
  endloop
endfacet
facet normal -0.9978589232386034 0.0654031292301432 0.0
  outer loop
    vertex 7.999999999999998 15.499999999999996 22.0
    vertex 7.9148145657226685 14.852952387243695 0.0
    vertex 7.9148145657226685 14.852952387243695 22.0
  endloop
endfacet
facet normal -0.9659258262890684 0.25881904510252013 0.0
  outer loop
    vertex 7.9148145657226685 14.852952387243695 0.0
    vertex 7.999999999999998 15.499999999999996 22.0
    vertex 7.999999999999998 15.499999999999996 0.0
  endloop
endfacet
facet normal -1.0 0.0 0.0
  outer loop
    vertex 7.999999999999998 19.27532330997995 22.0
    vertex 7.999999999999998 15.499999999999996 0.0
    vertex 7.999999999999998 15.499999999999996 22.0
  endloop
endfacet
facet normal -0.9978589232386034 0.0654031292301432 0.0
  outer loop
    vertex 7.999999999999998 15.499999999999996 0.0
    vertex 7.999999999999998 19.27532330997995 22.0
    vertex 7.999999999999998 19.27532330997995 0.0
  endloop
endfacet
facet normal 1.0 -0.0 -0.0
  outer loop
    vertex 3.0000000000000013 19.32387841777497 0.0
    vertex 3.0000000000000013 15.499999999999996 22.0
    vertex 3.0000000000000013 15.499999999999996 0.0
  endloop
endfacet
facet normal 0.9978589232386034 0.0654031292301432 0.0
  outer loop
    vertex 3.0000000000000013 15.499999999999996 22.0
    vertex 3.0000000000000013 19.32387841777497 0.0
    vertex 3.0000000000000013 19.32387841777497 22.0
  endloop
endfacet
facet normal 0.9978589232386034 0.0654031292301432 0.0
  outer loop
    vertex 3.0000000000000013 15.499999999999996 0.0
    vertex 3.085185434277331 14.852952387243695 22.0
    vertex 3.085185434277331 14.852952387243695 0.0
  endloop
endfacet
facet normal 0.9659258262890684 0.25881904510252035 0.0
  outer loop
    vertex 3.085185434277331 14.852952387243695 22.0
    vertex 3.0000000000000013 15.499999999999996 0.0
    vertex 3.0000000000000013 15.499999999999996 22.0
  endloop
endfacet
facet normal 0.9659258262890684 0.25881904510252035 0.0
  outer loop
    vertex 3.085185434277331 14.852952387243695 0.0
    vertex 3.3349364905389045 14.249999999999996 22.0
    vertex 3.3349364905389045 14.249999999999996 0.0
  endloop
endfacet
facet normal 0.8660254037844387 0.5 0.0
  outer loop
    vertex 3.3349364905389045 14.249999999999996 22.0
    vertex 3.085185434277331 14.852952387243695 0.0
    vertex 3.085185434277331 14.852952387243695 22.0
  endloop
endfacet
facet normal 0.8660254037844387 0.5 0.0
  outer loop
    vertex 3.3349364905389045 14.249999999999996 0.0
    vertex 3.732233047033632 13.73223304703363 22.0
    vertex 3.732233047033632 13.73223304703363 0.0
  endloop
endfacet
facet normal 0.707106781186547 0.7071067811865481 0.0
  outer loop
    vertex 3.732233047033632 13.73223304703363 22.0
    vertex 3.3349364905389045 14.249999999999996 0.0
    vertex 3.3349364905389045 14.249999999999996 22.0
  endloop
endfacet
facet normal 0.707106781186547 0.7071067811865481 0.0
  outer loop
    vertex 3.732233047033632 13.73223304703363 22.0
    vertex 4.250000000000001 13.334936490538903 0.0
    vertex 3.732233047033632 13.73223304703363 0.0
  endloop
endfacet
facet normal 0.4999999999999999 0.8660254037844388 0.0
  outer loop
    vertex 4.250000000000001 13.334936490538903 0.0
    vertex 3.732233047033632 13.73223304703363 22.0
    vertex 4.250000000000001 13.334936490538903 22.0
  endloop
endfacet
facet normal 0.4999999999999999 0.8660254037844388 0.0
  outer loop
    vertex 4.250000000000001 13.334936490538903 22.0
    vertex 4.852952387243699 13.085185434277328 0.0
    vertex 4.250000000000001 13.334936490538903 0.0
  endloop
endfacet
facet normal 0.25881904510252074 0.9659258262890683 0.0
  outer loop
    vertex 4.852952387243699 13.085185434277328 0.0
    vertex 4.250000000000001 13.334936490538903 22.0
    vertex 4.852952387243699 13.085185434277328 22.0
  endloop
endfacet
facet normal 0.25881904510252074 0.9659258262890683 0.0
  outer loop
    vertex 4.852952387243699 13.085185434277328 22.0
    vertex 5.5 12.999999999999998 0.0
    vertex 4.852952387243699 13.085185434277328 0.0
  endloop
endfacet
facet normal 2.1386663749552568e-16 1.0 0.0
  outer loop
    vertex 5.5 12.999999999999998 0.0
    vertex 4.852952387243699 13.085185434277328 22.0
    vertex 5.5 12.999999999999998 22.0
  endloop
endfacet
facet normal 2.1386663749552568e-16 1.0 0.0
  outer loop
    vertex 5.5 12.999999999999998 22.0
    vertex 6.147047612756303 13.085185434277328 0.0
    vertex 5.5 12.999999999999998 0.0
  endloop
endfacet
facet normal -0.2588190451025207 0.9659258262890682 0.0
  outer loop
    vertex 6.147047612756303 13.085185434277328 0.0
    vertex 5.5 12.999999999999998 22.0
    vertex 6.147047612756303 13.085185434277328 22.0
  endloop
endfacet
facet normal -0.2588190451025207 0.9659258262890682 0.0
  outer loop
    vertex 6.147047612756303 13.085185434277328 22.0
    vertex 6.75 13.334936490538903 0.0
    vertex 6.147047612756303 13.085185434277328 0.0
  endloop
endfacet
facet normal -0.5000000000000006 0.8660254037844384 0.0
  outer loop
    vertex 6.75 13.334936490538903 0.0
    vertex 6.147047612756303 13.085185434277328 22.0
    vertex 6.75 13.334936490538903 22.0
  endloop
endfacet
facet normal -0.5000000000000006 0.8660254037844384 0.0
  outer loop
    vertex 6.75 13.334936490538903 22.0
    vertex 7.267766952966367 13.73223304703363 0.0
    vertex 6.75 13.334936490538903 0.0
  endloop
endfacet
facet normal -0.7071067811865478 0.7071067811865472 0.0
  outer loop
    vertex 7.267766952966367 13.73223304703363 0.0
    vertex 6.75 13.334936490538903 22.0
    vertex 7.267766952966367 13.73223304703363 22.0
  endloop
endfacet
facet normal -0.8660254037844389 0.4999999999999995 0.0
  outer loop
    vertex 7.665063509461096 14.25 22.0
    vertex 7.267766952966367 13.73223304703363 0.0
    vertex 7.267766952966367 13.73223304703363 22.0
  endloop
endfacet
facet normal -0.7071067811865478 0.7071067811865472 0.0
  outer loop
    vertex 7.267766952966367 13.73223304703363 0.0
    vertex 7.665063509461096 14.25 22.0
    vertex 7.665063509461096 14.25 0.0
  endloop
endfacet
facet normal -0.9659258262890684 0.25881904510252013 0.0
  outer loop
    vertex 7.9148145657226685 14.852952387243695 22.0
    vertex 7.665063509461096 14.25 0.0
    vertex 7.665063509461096 14.25 22.0
  endloop
endfacet
facet normal -0.8660254037844389 0.4999999999999995 0.0
  outer loop
    vertex 7.665063509461096 14.25 0.0
    vertex 7.9148145657226685 14.852952387243695 22.0
    vertex 7.9148145657226685 14.852952387243695 0.0
  endloop
endfacet
endsolid Grounded Plug
