solid Pluggable-Normal
facet normal -0.6830880662081349 -0.7303360143139807 0.0
  outer loop
    vertex 55.48538219030794 11.499999999999998 22.0
    vertex 56.27997530329739 10.464466094067262 0.0
    vertex 56.27997530329739 10.464466094067262 22.0
  endloop
endfacet
facet normal -0.7071067811865477 -0.7071067811865475 0.0
  outer loop
    vertex 56.27997530329739 10.464466094067262 0.0
    vertex 55.48538219030794 11.499999999999998 22.0
    vertex 55.48538219030794 11.499999999999998 0.0
  endloop
endfacet
facet normal -0.5 0.8660254037844387 0.0
  outer loop
    vertex 57.31550920923014 18.330127018922198 22.0
    vertex 58.52141398371754 18.829629131445344 0.0
    vertex 57.31550920923014 18.330127018922198 0.0
  endloop
endfacet
facet normal -0.25881904510252063 0.9659258262890682 0.0
  outer loop
    vertex 58.52141398371754 18.829629131445344 0.0
    vertex 57.31550920923014 18.330127018922198 22.0
    vertex 58.52141398371754 18.829629131445344 22.0
  endloop
endfacet
facet normal 5.346665937388143e-16 1.0 0.0
  outer loop
    vertex 59.81550920923014 19.000000000000004 22.0
    vertex 61.10960443474274 18.829629131445344 0.0
    vertex 59.81550920923014 19.000000000000004 0.0
  endloop
endfacet
facet normal 0.2588190451025219 0.9659258262890681 0.0
  outer loop
    vertex 61.10960443474274 18.829629131445344 0.0
    vertex 59.81550920923014 19.000000000000004 22.0
    vertex 61.10960443474274 18.829629131445344 22.0
  endloop
endfacet
facet normal 0.9659258262890678 -0.2588190451025224 0.0
  outer loop
    vertex 64.64513834067547 12.705904774487394 0.0
    vertex 64.14563622815233 11.499999999999996 22.0
    vertex 64.14563622815233 11.499999999999996 0.0
  endloop
endfacet
facet normal 0.8660254037844388 -0.4999999999999998 0.0
  outer loop
    vertex 64.14563622815233 11.499999999999996 22.0
    vertex 64.64513834067547 12.705904774487394 0.0
    vertex 64.64513834067547 12.705904774487394 22.0
  endloop
endfacet
facet normal 1.0 9.802220885211598e-17 0.0
  outer loop
    vertex 64.81550920923014 14.0 0.0
    vertex 64.64513834067547 12.705904774487394 22.0
    vertex 64.64513834067547 12.705904774487394 0.0
  endloop
endfacet
facet normal 0.9659258262890678 -0.2588190451025224 0.0
  outer loop
    vertex 64.64513834067547 12.705904774487394 22.0
    vertex 64.81550920923014 14.0 0.0
    vertex 64.81550920923014 14.0 22.0
  endloop
endfacet
facet normal 0.25881904510252135 -0.9659258262890682 0.0
  outer loop
    vertex 61.10960443474274 9.170370868554656 22.0
    vertex 59.81550920923014 8.999999999999998 0.0
    vertex 61.10960443474274 9.170370868554656 0.0
  endloop
endfacet
facet normal 5.792221432170487e-16 -1.0 0.0
  outer loop
    vertex 59.81550920923014 8.999999999999998 0.0
    vertex 61.10960443474274 9.170370868554656 22.0
    vertex 59.81550920923014 8.999999999999998 22.0
  endloop
endfacet
facet normal 0.2588190451025219 0.9659258262890681 0.0
  outer loop
    vertex 61.10960443474274 18.829629131445344 22.0
    vertex 62.315509209230136 18.33012701892219 0.0
    vertex 61.10960443474274 18.829629131445344 0.0
  endloop
endfacet
facet normal 0.5000000000000003 0.8660254037844384 0.0
  outer loop
    vertex 62.315509209230136 18.33012701892219 0.0
    vertex 61.10960443474274 18.829629131445344 22.0
    vertex 62.315509209230136 18.33012701892219 22.0
  endloop
endfacet
facet normal 0.7071067811865471 -0.707106781186548 0.0
  outer loop
    vertex 63.351043115162874 10.46446609406726 22.0
    vertex 62.315509209230136 9.669872981077804 0.0
    vertex 63.351043115162874 10.46446609406726 0.0
  endloop
endfacet
facet normal 0.5 -0.8660254037844388 0.0
  outer loop
    vertex 62.315509209230136 9.669872981077804 0.0
    vertex 63.351043115162874 10.46446609406726 22.0
    vertex 62.315509209230136 9.669872981077804 22.0
  endloop
endfacet
facet normal -0.25881904510252063 0.9659258262890682 0.0
  outer loop
    vertex 58.52141398371754 18.829629131445344 22.0
    vertex 59.81550920923014 19.000000000000004 0.0
    vertex 58.52141398371754 18.829629131445344 0.0
  endloop
endfacet
facet normal 5.346665937388143e-16 1.0 0.0
  outer loop
    vertex 59.81550920923014 19.000000000000004 0.0
    vertex 58.52141398371754 18.829629131445344 22.0
    vertex 59.81550920923014 19.000000000000004 22.0
  endloop
endfacet
facet normal 0.5000000000000003 0.8660254037844384 0.0
  outer loop
    vertex 62.315509209230136 18.33012701892219 22.0
    vertex 63.351043115162874 17.535533905932738 0.0
    vertex 62.315509209230136 18.33012701892219 0.0
  endloop
endfacet
facet normal 0.7071067811865476 0.7071067811865475 0.0
  outer loop
    vertex 63.351043115162874 17.535533905932738 0.0
    vertex 62.315509209230136 18.33012701892219 22.0
    vertex 63.351043115162874 17.535533905932738 22.0
  endloop
endfacet
facet normal 0.5 -0.8660254037844388 0.0
  outer loop
    vertex 62.315509209230136 9.669872981077804 22.0
    vertex 61.10960443474274 9.170370868554656 0.0
    vertex 62.315509209230136 9.669872981077804 0.0
  endloop
endfacet
facet normal 0.25881904510252135 -0.9659258262890682 0.0
  outer loop
    vertex 61.10960443474274 9.170370868554656 0.0
    vertex 62.315509209230136 9.669872981077804 22.0
    vertex 61.10960443474274 9.170370868554656 22.0
  endloop
endfacet
facet normal 0.8660254037844392 0.49999999999999933 0.0
  outer loop
    vertex 64.14563622815233 16.499999999999996 0.0
    vertex 64.64513834067547 15.294095225512603 22.0
    vertex 64.64513834067547 15.294095225512603 0.0
  endloop
endfacet
facet normal 0.9659258262890678 0.2588190451025225 0.0
  outer loop
    vertex 64.64513834067547 15.294095225512603 22.0
    vertex 64.14563622815233 16.499999999999996 0.0
    vertex 64.14563622815233 16.499999999999996 22.0
  endloop
endfacet
facet normal 5.792221432170487e-16 -1.0 0.0
  outer loop
    vertex 59.81550920923014 8.999999999999998 22.0
    vertex 58.52141398371752 9.170370868554656 0.0
    vertex 59.81550920923014 8.999999999999998 0.0
  endloop
endfacet
facet normal -0.2588190451025208 -0.9659258262890682 0.0
  outer loop
    vertex 58.52141398371752 9.170370868554656 0.0
    vertex 59.81550920923014 8.999999999999998 22.0
    vertex 58.52141398371752 9.170370868554656 22.0
  endloop
endfacet
facet normal -0.5000000000000002 -0.8660254037844385 0.0
  outer loop
    vertex 57.315509209230136 9.669872981077804 22.0
    vertex 56.27997530329739 10.464466094067262 0.0
    vertex 57.315509209230136 9.669872981077804 0.0
  endloop
endfacet
facet normal -0.7071067811865477 -0.7071067811865475 0.0
  outer loop
    vertex 56.27997530329739 10.464466094067262 0.0
    vertex 57.315509209230136 9.669872981077804 22.0
    vertex 56.27997530329739 10.464466094067262 22.0
  endloop
endfacet
facet normal 0.9659258262890678 0.2588190451025225 0.0
  outer loop
    vertex 64.64513834067547 15.294095225512603 0.0
    vertex 64.81550920923014 14.0 22.0
    vertex 64.81550920923014 14.0 0.0
  endloop
endfacet
facet normal 1.0 9.802220885211598e-17 0.0
  outer loop
    vertex 64.81550920923014 14.0 22.0
    vertex 64.64513834067547 15.294095225512603 0.0
    vertex 64.64513834067547 15.294095225512603 22.0
  endloop
endfacet
facet normal 0.7071067811865458 0.7071067811865493 0.0
  outer loop
    vertex 4.933492352724218 10.093031256101249 22.0
    vertex 6.077817003928279 9.214960068222775 0.0
    vertex 4.933492352724218 10.093031256101249 0.0
  endloop
endfacet
facet normal 0.49999999999999684 0.8660254037844406 0.0
  outer loop
    vertex 6.077817003928279 9.214960068222775 0.0
    vertex 4.933492352724218 10.093031256101249 22.0
    vertex 6.077817003928279 9.214960068222775 22.0
  endloop
endfacet
facet normal 0.49999999999999684 0.8660254037844406 0.0
  outer loop
    vertex 6.077817003928279 9.214960068222775 22.0
    vertex 7.410411284564236 8.662981444042543 0.0
    vertex 6.077817003928279 9.214960068222775 0.0
  endloop
endfacet
facet normal 0.2588190451025154 0.9659258262890696 0.0
  outer loop
    vertex 7.410411284564236 8.662981444042543 0.0
    vertex 6.077817003928279 9.214960068222775 22.0
    vertex 7.410411284564236 8.662981444042543 22.0
  endloop
endfacet
facet normal -6.326888025909304e-16 -1.0 0.0
  outer loop
    vertex 8.840461096622969 19.525288185389357 22.0
    vertex 7.410411284564248 19.337018555957435 0.0
    vertex 8.840461096622969 19.525288185389357 0.0
  endloop
endfacet
facet normal 0.2588190451025233 -0.9659258262890676 0.0
  outer loop
    vertex 7.410411284564248 19.337018555957435 0.0
    vertex 8.840461096622969 19.525288185389357 22.0
    vertex 7.410411284564248 19.337018555957435 22.0
  endloop
endfacet
facet normal 1.207455349930122e-16 1.0 0.0
  outer loop
    vertex 51.81550920923014 15.999999999999998 22.0
    vertex 54.73483711927573 15.999999999999998 0.0
    vertex 51.81550920923014 15.999999999999998 0.0
  endloop
endfacet
facet normal 1.207455349930122e-16 1.0 0.0
  outer loop
    vertex 54.73483711927573 15.999999999999998 0.0
    vertex 51.81550920923014 15.999999999999998 22.0
    vertex 54.73483711927573 15.999999999999998 22.0
  endloop
endfacet
facet normal -0.6830880662081349 -0.7303360143139807 0.0
  outer loop
    vertex 55.48538219030794 11.499999999999998 22.0
    vertex 54.73483711927573 12.0 0.0
    vertex 55.48538219030794 11.499999999999998 0.0
  endloop
endfacet
facet normal -0.5544212121814408 -0.8322362161569646 -0.0
  outer loop
    vertex 54.73483711927573 12.0 0.0
    vertex 55.48538219030794 11.499999999999998 22.0
    vertex 54.73483711927573 12.0 22.0
  endloop
endfacet
facet normal 1.0 0.0 0.0
  outer loop
    vertex 51.81550920923014 12.0 0.0
    vertex 51.81550920923014 0.0 22.0
    vertex 51.81550920923014 0.0 0.0
  endloop
endfacet
facet normal 1.0 0.0 0.0
  outer loop
    vertex 51.81550920923014 0.0 22.0
    vertex 51.81550920923014 12.0 0.0
    vertex 51.81550920923014 12.0 22.0
  endloop
endfacet
facet normal -0.0 1.0 -0.0
  outer loop
    vertex 2.0000000000000004 11.789884725844265 1.4099832412739487e-15
    vertex 3.2260256021304476 11.789884725844265 22.0
    vertex 3.2260256021304476 11.789884725844265 0.0
  endloop
endfacet
facet normal -0.0 1.0 -0.0
  outer loop
    vertex 3.2260256021304476 11.789884725844265 22.0
    vertex 2.0000000000000004 11.789884725844265 1.4099832412739487e-15
    vertex 2.0000000000000004 11.789884725844265 22.0
  endloop
endfacet
facet normal 0.5544212121814613 0.8322362161569508 0.0
  outer loop
    vertex 3.2260256021304476 11.789884725844265 22.0
    vertex 4.055421164845741 11.2373559073053 0.0
    vertex 3.2260256021304476 11.789884725844265 0.0
  endloop
endfacet
facet normal 0.6830880662081441 0.730336014313972 0.0
  outer loop
    vertex 4.055421164845741 11.2373559073053 0.0
    vertex 3.2260256021304476 11.789884725844265 22.0
    vertex 4.055421164845741 11.2373559073053 22.0
  endloop
endfacet
facet normal 0.6830880662081441 0.730336014313972 0.0
  outer loop
    vertex 4.055421164845741 11.2373559073053 0.0
    vertex 4.933492352724218 10.093031256101249 22.0
    vertex 4.933492352724218 10.093031256101249 0.0
  endloop
endfacet
facet normal 0.7071067811865458 0.7071067811865493 0.0
  outer loop
    vertex 4.933492352724218 10.093031256101249 22.0
    vertex 4.055421164845741 11.2373559073053 0.0
    vertex 4.055421164845741 11.2373559073053 22.0
  endloop
endfacet
facet normal -1.207455349930122e-16 -1.0 -0.0
  outer loop
    vertex 54.73483711927573 12.0 22.0
    vertex 51.81550920923014 12.0 0.0
    vertex 54.73483711927573 12.0 0.0
  endloop
endfacet
facet normal -1.207455349930122e-16 -1.0 -0.0
  outer loop
    vertex 51.81550920923014 12.0 0.0
    vertex 54.73483711927573 12.0 22.0
    vertex 51.81550920923014 12.0 22.0
  endloop
endfacet
facet normal -0.7071067811865445 0.7071067811865507 0.0
  outer loop
    vertex 56.279975303297405 17.53553390593274 22.0
    vertex 55.882955147428405 17.018127165274898 0.0
    vertex 55.882955147428405 17.018127165274898 22.0
  endloop
endfacet
facet normal -0.840927943139012 0.5411471098028617 0.0
  outer loop
    vertex 55.882955147428405 17.018127165274898 0.0
    vertex 56.279975303297405 17.53553390593274 22.0
    vertex 56.279975303297405 17.53553390593274 0.0
  endloop
endfacet
facet normal -0.49999999999999756 0.86602540378444 0.0
  outer loop
    vertex 11.603105189317645 9.214960068222775 22.0
    vertex 12.747429840521695 10.093031256101249 0.0
    vertex 11.603105189317645 9.214960068222775 0.0
  endloop
endfacet
facet normal -0.7071067811865486 0.7071067811865466 0.0
  outer loop
    vertex 12.747429840521695 10.093031256101249 0.0
    vertex 11.603105189317645 9.214960068222775 22.0
    vertex 12.747429840521695 10.093031256101249 22.0
  endloop
endfacet
facet normal -2.300087761338491e-15 -1.0 1.2110457322375255e-33
  outer loop
    vertex 3.2260256021304476 16.21011527415573 0.0
    vertex 1.9999999999999998 16.210115274155733 22.0
    vertex 1.9999999999999998 16.210115274155733 -1.4099832412739487e-15
  endloop
endfacet
facet normal -2.300087761338491e-15 -1.0 1.2110457322375255e-33
  outer loop
    vertex 1.9999999999999998 16.210115274155733 22.0
    vertex 3.2260256021304476 16.21011527415573 0.0
    vertex 3.2260256021304476 16.21011527415573 22.0
  endloop
endfacet
facet normal -0.840927943139012 0.5411471098028617 0.0
  outer loop
    vertex 55.882955147428405 17.018127165274898 22.0
    vertex 55.8142649654865 16.88906757812906 0.0
    vertex 55.8142649654865 16.88906757812906 22.0
  endloop
endfacet
facet normal -0.8138770344843207 0.5810371526322634 0.0
  outer loop
    vertex 55.8142649654865 16.88906757812906 0.0
    vertex 55.882955147428405 17.018127165274898 22.0
    vertex 55.882955147428405 17.018127165274898 0.0
  endloop
endfacet
facet normal 0.8409279431390165 -0.541147109802855 0.0
  outer loop
    vertex 4.494762197407359 17.335204473659214 0.0
    vertex 4.41885558726019 17.192586191245585 22.0
    vertex 4.41885558726019 17.192586191245585 0.0
  endloop
endfacet
facet normal 0.8138770344843207 -0.5810371526322633 0.0
  outer loop
    vertex 4.41885558726019 17.192586191245585 22.0
    vertex 4.494762197407359 17.335204473659214 0.0
    vertex 4.494762197407359 17.335204473659214 22.0
  endloop
endfacet
facet normal -0.7630998163373723 0.6462806436107061 0.0
  outer loop
    vertex 55.643638513054135 16.706243655215385 22.0
    vertex 55.48538219030794 16.500000000000004 0.0
    vertex 55.48538219030794 16.500000000000004 22.0
  endloop
endfacet
facet normal -0.6830880662081323 0.7303360143139828 0.0
  outer loop
    vertex 55.48538219030794 16.500000000000004 0.0
    vertex 55.643638513054135 16.706243655215385 22.0
    vertex 55.643638513054135 16.706243655215385 0.0
  endloop
endfacet
facet normal -0.5544212121814432 0.832236216156963 0.0
  outer loop
    vertex 54.73483711927573 15.999999999999998 22.0
    vertex 55.48538219030794 16.500000000000004 0.0
    vertex 54.73483711927573 15.999999999999998 0.0
  endloop
endfacet
facet normal -0.6830880662081323 0.7303360143139828 0.0
  outer loop
    vertex 55.48538219030794 16.500000000000004 0.0
    vertex 54.73483711927573 15.999999999999998 22.0
    vertex 55.48538219030794 16.500000000000004 22.0
  endloop
endfacet
facet normal 0.7630998163373577 -0.6462806436107236 0.0
  outer loop
    vertex 4.230303522912284 16.990555218989282 0.0
    vertex 4.055421164845741 16.76264409269469 22.0
    vertex 4.055421164845741 16.76264409269469 0.0
  endloop
endfacet
facet normal 0.6830880662081222 -0.7303360143139924 0.0
  outer loop
    vertex 4.055421164845741 16.76264409269469 22.0
    vertex 4.230303522912284 16.990555218989282 0.0
    vertex 4.230303522912284 16.990555218989282 22.0
  endloop
endfacet
facet normal -0.9659258262890683 0.2588190451025203 0.0
  outer loop
    vertex 14.177479652580402 12.56995018794128 22.0
    vertex 13.625501028400166 11.2373559073053 0.0
    vertex 13.625501028400166 11.2373559073053 22.0
  endloop
endfacet
facet normal -0.8660254037844407 0.4999999999999966 0.0
  outer loop
    vertex 13.625501028400166 11.2373559073053 0.0
    vertex 14.177479652580402 12.56995018794128 22.0
    vertex 14.177479652580402 12.56995018794128 0.0
  endloop
endfacet
facet normal -0.9659258262890684 -0.2588190451025201 0.0
  outer loop
    vertex 14.177479652580402 15.430049812058707 22.0
    vertex 14.36574928201232 13.999999999999982 0.0
    vertex 14.36574928201232 13.999999999999982 22.0
  endloop
endfacet
facet normal -1.0 1.0336887478950411e-15 0.0
  outer loop
    vertex 14.36574928201232 13.999999999999982 0.0
    vertex 14.177479652580402 15.430049812058707 22.0
    vertex 14.177479652580402 15.430049812058707 0.0
  endloop
endfacet
facet normal -0.8138770344843207 0.5810371526322634 0.0
  outer loop
    vertex 55.8142649654865 16.88906757812906 22.0
    vertex 55.643638513054135 16.706243655215385 0.0
    vertex 55.643638513054135 16.706243655215385 22.0
  endloop
endfacet
facet normal -0.7630998163373723 0.6462806436107061 0.0
  outer loop
    vertex 55.643638513054135 16.706243655215385 0.0
    vertex 55.8142649654865 16.88906757812906 22.0
    vertex 55.8142649654865 16.88906757812906 0.0
  endloop
endfacet
facet normal -1.1495331765384493e-15 1.0 0.0
  outer loop
    vertex 8.840461096622969 8.474711814610641 22.0
    vertex 10.270510908681677 8.662981444042543 0.0
    vertex 8.840461096622969 8.474711814610641 0.0
  endloop
endfacet
facet normal -0.258819045102515 0.9659258262890699 0.0
  outer loop
    vertex 10.270510908681677 8.662981444042543 0.0
    vertex 8.840461096622969 8.474711814610641 22.0
    vertex 10.270510908681677 8.662981444042543 22.0
  endloop
endfacet
facet normal -0.8660254037844399 -0.49999999999999784 0.0
  outer loop
    vertex 13.625501028400166 16.762644092694682 22.0
    vertex 14.177479652580402 15.430049812058707 0.0
    vertex 14.177479652580402 15.430049812058707 22.0
  endloop
endfacet
facet normal -0.9659258262890684 -0.2588190451025201 0.0
  outer loop
    vertex 14.177479652580402 15.430049812058707 0.0
    vertex 13.625501028400166 16.762644092694682 22.0
    vertex 13.625501028400166 16.762644092694682 0.0
  endloop
endfacet
facet normal -1.0 1.0336887478950411e-15 0.0
  outer loop
    vertex 14.36574928201232 13.999999999999982 22.0
    vertex 14.177479652580402 12.56995018794128 0.0
    vertex 14.177479652580402 12.56995018794128 22.0
  endloop
endfacet
facet normal -0.9659258262890683 0.2588190451025203 0.0
  outer loop
    vertex 14.177479652580402 12.56995018794128 0.0
    vertex 14.36574928201232 13.999999999999982 22.0
    vertex 14.36574928201232 13.999999999999982 0.0
  endloop
endfacet
facet normal -0.7071067811865455 -0.7071067811865496 0.0
  outer loop
    vertex 12.747429840521695 17.90696874389873 22.0
    vertex 11.603105189317645 18.785039931777195 0.0
    vertex 12.747429840521695 17.90696874389873 0.0
  endloop
endfacet
facet normal -0.4999999999999977 -0.8660254037844402 0.0
  outer loop
    vertex 11.603105189317645 18.785039931777195 0.0
    vertex 12.747429840521695 17.90696874389873 22.0
    vertex 11.603105189317645 18.785039931777195 22.0
  endloop
endfacet
facet normal -0.258819045102515 0.9659258262890699 0.0
  outer loop
    vertex 10.270510908681677 8.662981444042543 22.0
    vertex 11.603105189317645 9.214960068222775 0.0
    vertex 10.270510908681677 8.662981444042543 0.0
  endloop
endfacet
facet normal -0.49999999999999756 0.86602540378444 0.0
  outer loop
    vertex 11.603105189317645 9.214960068222775 0.0
    vertex 10.270510908681677 8.662981444042543 22.0
    vertex 11.603105189317645 9.214960068222775 22.0
  endloop
endfacet
facet normal -0.7071067811865455 -0.7071067811865496 0.0
  outer loop
    vertex 12.747429840521695 17.90696874389873 22.0
    vertex 13.625501028400166 16.762644092694682 0.0
    vertex 13.625501028400166 16.762644092694682 22.0
  endloop
endfacet
facet normal -0.8660254037844399 -0.49999999999999784 0.0
  outer loop
    vertex 13.625501028400166 16.762644092694682 0.0
    vertex 12.747429840521695 17.90696874389873 22.0
    vertex 12.747429840521695 17.90696874389873 0.0
  endloop
endfacet
facet normal -0.2588190451025242 -0.9659258262890673 0.0
  outer loop
    vertex 10.270510908681677 19.337018555957435 22.0
    vertex 8.840461096622969 19.525288185389357 0.0
    vertex 10.270510908681677 19.337018555957435 0.0
  endloop
endfacet
facet normal -6.326888025909304e-16 -1.0 0.0
  outer loop
    vertex 8.840461096622969 19.525288185389357 0.0
    vertex 10.270510908681677 19.337018555957435 22.0
    vertex 8.840461096622969 19.525288185389357 22.0
  endloop
endfacet
facet normal -0.7071067811865445 0.7071067811865507 0.0
  outer loop
    vertex 56.279975303297405 17.53553390593274 22.0
    vertex 57.31550920923014 18.330127018922198 0.0
    vertex 56.279975303297405 17.53553390593274 0.0
  endloop
endfacet
facet normal -0.5 0.8660254037844387 0.0
  outer loop
    vertex 57.31550920923014 18.330127018922198 0.0
    vertex 56.279975303297405 17.53553390593274 22.0
    vertex 57.31550920923014 18.330127018922198 22.0
  endloop
endfacet
facet normal -0.8660254037844407 0.4999999999999966 0.0
  outer loop
    vertex 13.625501028400166 11.2373559073053 22.0
    vertex 12.747429840521695 10.093031256101249 0.0
    vertex 12.747429840521695 10.093031256101249 22.0
  endloop
endfacet
facet normal -0.7071067811865486 0.7071067811865466 0.0
  outer loop
    vertex 12.747429840521695 10.093031256101249 0.0
    vertex 13.625501028400166 11.2373559073053 22.0
    vertex 13.625501028400166 11.2373559073053 0.0
  endloop
endfacet
facet normal -0.0 1.0 -0.0
  outer loop
    vertex 1.9999999999999998 28.0 22.0
    vertex 51.81550920923014 28.0 0.0
    vertex 1.9999999999999998 28.0 -1.4099832412739487e-15
  endloop
endfacet
facet normal -0.0 1.0 -0.0
  outer loop
    vertex 51.81550920923014 28.0 0.0
    vertex 1.9999999999999998 28.0 22.0
    vertex 51.81550920923014 28.0 22.0
  endloop
endfacet
facet normal 0.2588190451025233 -0.9659258262890676 0.0
  outer loop
    vertex 7.410411284564248 19.337018555957435 22.0
    vertex 6.07781700392829 18.7850399317772 0.0
    vertex 7.410411284564248 19.337018555957435 0.0
  endloop
endfacet
facet normal 0.49999999999999634 -0.8660254037844407 0.0
  outer loop
    vertex 6.07781700392829 18.7850399317772 0.0
    vertex 7.410411284564248 19.337018555957435 22.0
    vertex 6.07781700392829 18.7850399317772 22.0
  endloop
endfacet
facet normal 0.6830880662081222 -0.7303360143139924 0.0
  outer loop
    vertex 4.055421164845741 16.76264409269469 22.0
    vertex 3.2260256021304476 16.21011527415573 0.0
    vertex 4.055421164845741 16.76264409269469 0.0
  endloop
endfacet
facet normal 0.5544212121814575 -0.8322362161569535 0.0
  outer loop
    vertex 3.2260256021304476 16.21011527415573 0.0
    vertex 4.055421164845741 16.76264409269469 22.0
    vertex 3.2260256021304476 16.21011527415573 22.0
  endloop
endfacet
facet normal 0.49999999999999634 -0.8660254037844407 0.0
  outer loop
    vertex 6.07781700392829 18.7850399317772 22.0
    vertex 4.933492352724235 17.906968743898737 0.0
    vertex 6.07781700392829 18.7850399317772 0.0
  endloop
endfacet
facet normal 0.7071067811865458 -0.7071067811865493 0.0
  outer loop
    vertex 4.933492352724235 17.906968743898737 0.0
    vertex 6.07781700392829 18.7850399317772 22.0
    vertex 4.933492352724235 17.906968743898737 22.0
  endloop
endfacet
facet normal 0.7071067811865458 -0.7071067811865493 0.0
  outer loop
    vertex 4.933492352724235 17.906968743898737 0.0
    vertex 4.494762197407359 17.335204473659214 22.0
    vertex 4.494762197407359 17.335204473659214 0.0
  endloop
endfacet
facet normal 0.8409279431390165 -0.541147109802855 0.0
  outer loop
    vertex 4.494762197407359 17.335204473659214 22.0
    vertex 4.933492352724235 17.906968743898737 0.0
    vertex 4.933492352724235 17.906968743898737 22.0
  endloop
endfacet
facet normal -0.4999999999999977 -0.8660254037844402 0.0
  outer loop
    vertex 11.603105189317645 18.785039931777195 22.0
    vertex 10.270510908681677 19.337018555957435 0.0
    vertex 11.603105189317645 18.785039931777195 0.0
  endloop
endfacet
facet normal -0.2588190451025242 -0.9659258262890673 0.0
  outer loop
    vertex 10.270510908681677 19.337018555957435 0.0
    vertex 11.603105189317645 18.785039931777195 22.0
    vertex 10.270510908681677 19.337018555957435 22.0
  endloop
endfacet
facet normal 0.8138770344843207 -0.5810371526322633 0.0
  outer loop
    vertex 4.41885558726019 17.192586191245585 0.0
    vertex 4.230303522912284 16.990555218989282 22.0
    vertex 4.230303522912284 16.990555218989282 0.0
  endloop
endfacet
facet normal 0.7630998163373577 -0.6462806436107236 0.0
  outer loop
    vertex 4.230303522912284 16.990555218989282 22.0
    vertex 4.41885558726019 17.192586191245585 0.0
    vertex 4.41885558726019 17.192586191245585 22.0
  endloop
endfacet
facet normal -0.2588190451025208 -0.9659258262890682 0.0
  outer loop
    vertex 58.52141398371752 9.170370868554656 22.0
    vertex 57.315509209230136 9.669872981077804 0.0
    vertex 58.52141398371752 9.170370868554656 0.0
  endloop
endfacet
facet normal -0.5000000000000002 -0.8660254037844385 0.0
  outer loop
    vertex 57.315509209230136 9.669872981077804 0.0
    vertex 58.52141398371752 9.170370868554656 22.0
    vertex 57.315509209230136 9.669872981077804 22.0
  endloop
endfacet
facet normal 0.7071067811865476 0.7071067811865475 0.0
  outer loop
    vertex 63.351043115162874 17.535533905932738 0.0
    vertex 64.14563622815233 16.499999999999996 22.0
    vertex 64.14563622815233 16.499999999999996 0.0
  endloop
endfacet
facet normal 0.8660254037844392 0.49999999999999933 0.0
  outer loop
    vertex 64.14563622815233 16.499999999999996 22.0
    vertex 63.351043115162874 17.535533905932738 0.0
    vertex 63.351043115162874 17.535533905932738 22.0
  endloop
endfacet
facet normal 0.8660254037844388 -0.4999999999999998 0.0
  outer loop
    vertex 64.14563622815233 11.499999999999996 0.0
    vertex 63.351043115162874 10.46446609406726 22.0
    vertex 63.351043115162874 10.46446609406726 0.0
  endloop
endfacet
facet normal 0.7071067811865471 -0.707106781186548 0.0
  outer loop
    vertex 63.351043115162874 10.46446609406726 22.0
    vertex 64.14563622815233 11.499999999999996 0.0
    vertex 64.14563622815233 11.499999999999996 22.0
  endloop
endfacet
facet normal 1.0 0.0 0.0
  outer loop
    vertex 51.81550920923014 28.0 0.0
    vertex 51.81550920923014 15.999999999999998 22.0
    vertex 51.81550920923014 15.999999999999998 0.0
  endloop
endfacet
facet normal 1.0 0.0 0.0
  outer loop
    vertex 51.81550920923014 15.999999999999998 22.0
    vertex 51.81550920923014 28.0 0.0
    vertex 51.81550920923014 28.0 22.0
  endloop
endfacet
facet normal 0.2588190451025154 0.9659258262890696 0.0
  outer loop
    vertex 7.410411284564236 8.662981444042543 22.0
    vertex 8.840461096622969 8.474711814610641 0.0
    vertex 7.410411284564236 8.662981444042543 0.0
  endloop
endfacet
facet normal -1.1495331765384493e-15 1.0 0.0
  outer loop
    vertex 8.840461096622969 8.474711814610641 0.0
    vertex 7.410411284564236 8.662981444042543 22.0
    vertex 8.840461096622969 8.474711814610641 22.0
  endloop
endfacet
facet normal -1.0 0.0 0.0
  outer loop
    vertex 1.9999999999999998 28.0 22.0
    vertex 1.9999999999999998 16.210115274155733 -1.4099832412739487e-15
    vertex 1.9999999999999998 16.210115274155733 22.0
  endloop
endfacet
facet normal -1.0 0.0 0.0
  outer loop
    vertex 1.9999999999999998 16.210115274155733 -1.4099832412739487e-15
    vertex 1.9999999999999998 28.0 22.0
    vertex 1.9999999999999998 28.0 -1.4099832412739487e-15
  endloop
endfacet
facet normal -1.0 -2.989815579331249e-17 0.0
  outer loop
    vertex 2.0000000000000004 11.789884725844265 22.0
    vertex 2.000000000000001 0.0 1.4099832412739487e-15
    vertex 2.000000000000001 0.0 22.0
  endloop
endfacet
facet normal -1.0 -2.989815579331249e-17 0.0
  outer loop
    vertex 2.000000000000001 0.0 1.4099832412739487e-15
    vertex 2.0000000000000004 11.789884725844265 22.0
    vertex 2.0000000000000004 11.789884725844265 1.4099832412739487e-15
  endloop
endfacet
facet normal -5.809764284670444e-20 -2.991907294410614e-17 -1.0
  outer loop
    vertex 1.9999999999999998 28.0 -1.4099832412739487e-15
    vertex 6.07781700392829 18.7850399317772 0.0
    vertex 1.9999999999999998 16.210115274155733 -1.4099832412739487e-15
  endloop
endfacet
facet normal -5.809764284670444e-20 -2.991907294410614e-17 -1.0
  outer loop
    vertex 6.07781700392829 18.7850399317772 0.0
    vertex 1.9999999999999998 28.0 -1.4099832412739487e-15
    vertex 7.410411284564248 19.337018555957435 0.0
  endloop
endfacet
facet normal -5.809764284670444e-20 -2.991907294410614e-17 -1.0
  outer loop
    vertex 7.410411284564248 19.337018555957435 0.0
    vertex 1.9999999999999998 28.0 -1.4099832412739487e-15
    vertex 27.617934130070402 25.646511836643544 -7.049916206369744e-15
  endloop
endfacet
facet normal -5.809764284670444e-20 -2.991907294410614e-17 -1.0
  outer loop
    vertex 27.617934130070402 25.646511836643544 -7.049916206369744e-15
    vertex 1.9999999999999998 28.0 -1.4099832412739487e-15
    vertex 51.81550920923014 28.0 0.0
  endloop
endfacet
facet normal -5.809764284670444e-20 -2.991907294410614e-17 -1.0
  outer loop
    vertex 1.9999999999999998 16.210115274155733 -1.4099832412739487e-15
    vertex 6.07781700392829 18.7850399317772 0.0
    vertex 4.933492352724235 17.906968743898737 0.0
  endloop
endfacet
facet normal -5.809764284670444e-20 -2.991907294410614e-17 -1.0
  outer loop
    vertex 1.9999999999999998 16.210115274155733 -1.4099832412739487e-15
    vertex 4.933492352724235 17.906968743898737 0.0
    vertex 3.2260256021304476 16.21011527415573 0.0
  endloop
endfacet
facet normal -5.809764284670444e-20 -2.991907294410614e-17 -1.0
  outer loop
    vertex 3.2260256021304476 16.21011527415573 0.0
    vertex 4.933492352724235 17.906968743898737 0.0
    vertex 4.055421164845741 16.76264409269469 0.0
  endloop
endfacet
facet normal -5.809764284670444e-20 -2.991907294410614e-17 -1.0
  outer loop
    vertex 4.055421164845741 16.76264409269469 0.0
    vertex 4.933492352724235 17.906968743898737 0.0
    vertex 4.230303522912284 16.990555218989282 0.0
  endloop
endfacet
facet normal -5.809764284670444e-20 -2.991907294410614e-17 -1.0
  outer loop
    vertex 4.230303522912284 16.990555218989282 0.0
    vertex 4.933492352724235 17.906968743898737 0.0
    vertex 4.494762197407359 17.335204473659214 0.0
  endloop
endfacet
facet normal -5.809764284670444e-20 -2.991907294410614e-17 -1.0
  outer loop
    vertex 4.230303522912284 16.990555218989282 0.0
    vertex 4.494762197407359 17.335204473659214 0.0
    vertex 4.41885558726019 17.192586191245585 0.0
  endloop
endfacet
facet normal -5.809764284670444e-20 -2.991907294410614e-17 -1.0
  outer loop
    vertex 7.410411284564248 19.337018555957435 0.0
    vertex 27.617934130070402 25.646511836643544 -7.049916206369744e-15
    vertex 8.840461096622969 19.525288185389357 0.0
  endloop
endfacet
facet normal -5.809764284670444e-20 -2.991907294410614e-17 -1.0
  outer loop
    vertex 8.840461096622969 19.525288185389357 0.0
    vertex 27.617934130070402 25.646511836643544 -7.049916206369744e-15
    vertex 10.270510908681677 19.337018555957435 0.0
  endloop
endfacet
facet normal -5.809764284670444e-20 -2.991907294410614e-17 -1.0
  outer loop
    vertex 10.270510908681677 19.337018555957435 0.0
    vertex 27.617934130070402 25.646511836643544 -7.049916206369744e-15
    vertex 11.603105189317645 18.785039931777195 0.0
  endloop
endfacet
facet normal -5.809764284670444e-20 -2.991907294410614e-17 -1.0
  outer loop
    vertex 11.603105189317645 18.785039931777195 0.0
    vertex 27.617934130070402 25.646511836643544 -7.049916206369744e-15
    vertex 12.747429840521695 17.90696874389873 0.0
  endloop
endfacet
facet normal -5.809764284670444e-20 -2.991907294410614e-17 -1.0
  outer loop
    vertex 12.747429840521695 17.90696874389873 0.0
    vertex 27.617934130070402 25.646511836643544 -7.049916206369744e-15
    vertex 13.625501028400166 16.762644092694682 0.0
  endloop
endfacet
facet normal -5.809764284670444e-20 -2.991907294410614e-17 -1.0
  outer loop
    vertex 13.625501028400166 16.762644092694682 0.0
    vertex 27.617934130070402 25.646511836643544 -7.049916206369744e-15
    vertex 14.177479652580402 15.430049812058707 0.0
  endloop
endfacet
facet normal -5.809764284670444e-20 -2.991907294410614e-17 -1.0
  outer loop
    vertex 14.177479652580402 15.430049812058707 0.0
    vertex 27.617934130070402 25.646511836643544 -7.049916206369744e-15
    vertex 14.36574928201232 13.999999999999982 0.0
  endloop
endfacet
facet normal -5.809764284670444e-20 -2.991907294410614e-17 -1.0
  outer loop
    vertex 14.36574928201232 13.999999999999982 0.0
    vertex 27.617934130070402 25.646511836643544 -7.049916206369744e-15
    vertex 22.86793413007041 13.371188526663584 4.229949723821846e-15
  endloop
endfacet
facet normal -5.809764284670444e-20 -2.991907294410614e-17 -1.0
  outer loop
    vertex 22.86793413007041 13.371188526663584 4.229949723821846e-15
    vertex 27.617934130070402 25.646511836643544 -7.049916206369744e-15
    vertex 24.61793413007041 13.371188526663584 4.229949723821846e-15
  endloop
endfacet
facet normal -5.809764284670444e-20 -2.991907294410614e-17 -1.0
  outer loop
    vertex 24.61793413007041 13.371188526663584 4.229949723821846e-15
    vertex 27.617934130070402 25.646511836643544 -7.049916206369744e-15
    vertex 24.61793413007041 6.371188526663585 4.229949723821846e-15
  endloop
endfacet
facet normal -5.809764284670444e-20 -2.991907294410614e-17 -1.0
  outer loop
    vertex 27.617934130070402 25.646511836643544 -7.049916206369744e-15
    vertex 51.81550920923014 28.0 0.0
    vertex 32.6179341300704 25.646511836643544 -7.049916206369744e-15
  endloop
endfacet
facet normal -5.809764284670444e-20 -2.991907294410614e-17 -1.0
  outer loop
    vertex 32.6179341300704 25.646511836643544 -7.049916206369744e-15
    vertex 51.81550920923014 28.0 0.0
    vertex 32.6179341300704 21.87118852666358 -7.049916206369744e-15
  endloop
endfacet
facet normal -5.809764284670444e-20 -2.991907294410614e-17 -1.0
  outer loop
    vertex 32.6179341300704 21.87118852666358 -7.049916206369744e-15
    vertex 51.81550920923014 28.0 0.0
    vertex 35.6179341300704 13.371188526663584 9.86988268891764e-15
  endloop
endfacet
facet normal -5.809764284670444e-20 -2.991907294410614e-17 -1.0
  outer loop
    vertex 35.6179341300704 13.371188526663584 9.86988268891764e-15
    vertex 51.81550920923014 28.0 0.0
    vertex 37.36793413007041 13.371188526663584 9.86988268891764e-15
  endloop
endfacet
facet normal -5.809764284670444e-20 -2.991907294410614e-17 -1.0
  outer loop
    vertex 37.36793413007041 13.371188526663584 9.86988268891764e-15
    vertex 51.81550920923014 28.0 0.0
    vertex 37.36793413007041 6.371188526663585 9.86988268891764e-15
  endloop
endfacet
facet normal -5.809764284670444e-20 -2.991907294410614e-17 -1.0
  outer loop
    vertex 54.73483711927573 15.999999999999998 0.0
    vertex 51.81550920923014 12.0 0.0
    vertex 51.81550920923014 15.999999999999998 0.0
  endloop
endfacet
facet normal -5.809764284670444e-20 -2.991907294410614e-17 -1.0
  outer loop
    vertex 51.81550920923014 12.0 0.0
    vertex 54.73483711927573 15.999999999999998 0.0
    vertex 54.73483711927573 12.0 0.0
  endloop
endfacet
facet normal -5.809764284670444e-20 -2.991907294410614e-17 -1.0
  outer loop
    vertex 54.73483711927573 12.0 0.0
    vertex 54.73483711927573 15.999999999999998 0.0
    vertex 55.48538219030794 16.500000000000004 0.0
  endloop
endfacet
facet normal -5.809764284670444e-20 -2.991907294410614e-17 -1.0
  outer loop
    vertex 54.73483711927573 12.0 0.0
    vertex 55.48538219030794 16.500000000000004 0.0
    vertex 55.48538219030794 11.499999999999998 0.0
  endloop
endfacet
facet normal -5.809764284670444e-20 -2.991907294410614e-17 -1.0
  outer loop
    vertex 55.48538219030794 11.499999999999998 0.0
    vertex 55.48538219030794 16.500000000000004 0.0
    vertex 55.643638513054135 16.706243655215385 0.0
  endloop
endfacet
facet normal -5.809764284670444e-20 -2.991907294410614e-17 -1.0
  outer loop
    vertex 55.48538219030794 11.499999999999998 0.0
    vertex 55.643638513054135 16.706243655215385 0.0
    vertex 56.27997530329739 10.464466094067262 0.0
  endloop
endfacet
facet normal -5.809764284670444e-20 -2.991907294410614e-17 -1.0
  outer loop
    vertex 56.27997530329739 10.464466094067262 0.0
    vertex 55.643638513054135 16.706243655215385 0.0
    vertex 55.8142649654865 16.88906757812906 0.0
  endloop
endfacet
facet normal -5.809764284670444e-20 -2.991907294410614e-17 -1.0
  outer loop
    vertex 56.27997530329739 10.464466094067262 0.0
    vertex 55.8142649654865 16.88906757812906 0.0
    vertex 55.882955147428405 17.018127165274898 0.0
  endloop
endfacet
facet normal -5.809764284670444e-20 -2.991907294410614e-17 -1.0
  outer loop
    vertex 56.27997530329739 10.464466094067262 0.0
    vertex 55.882955147428405 17.018127165274898 0.0
    vertex 56.279975303297405 17.53553390593274 0.0
  endloop
endfacet
facet normal -5.809764284670444e-20 -2.991907294410614e-17 -1.0
  outer loop
    vertex 56.27997530329739 10.464466094067262 0.0
    vertex 56.279975303297405 17.53553390593274 0.0
    vertex 57.315509209230136 9.669872981077804 0.0
  endloop
endfacet
facet normal -5.809764284670444e-20 -2.991907294410614e-17 -1.0
  outer loop
    vertex 57.315509209230136 9.669872981077804 0.0
    vertex 56.279975303297405 17.53553390593274 0.0
    vertex 57.31550920923014 18.330127018922198 0.0
  endloop
endfacet
facet normal -5.809764284670444e-20 -2.991907294410614e-17 -1.0
  outer loop
    vertex 57.315509209230136 9.669872981077804 0.0
    vertex 57.31550920923014 18.330127018922198 0.0
    vertex 58.52141398371752 9.170370868554656 0.0
  endloop
endfacet
facet normal -5.809764284670444e-20 -2.991907294410614e-17 -1.0
  outer loop
    vertex 58.52141398371752 9.170370868554656 0.0
    vertex 57.31550920923014 18.330127018922198 0.0
    vertex 58.52141398371754 18.829629131445344 0.0
  endloop
endfacet
facet normal -5.809764284670444e-20 -2.991907294410614e-17 -1.0
  outer loop
    vertex 58.52141398371752 9.170370868554656 0.0
    vertex 58.52141398371754 18.829629131445344 0.0
    vertex 59.81550920923014 8.999999999999998 0.0
  endloop
endfacet
facet normal -5.809764284670444e-20 -2.991907294410614e-17 -1.0
  outer loop
    vertex 59.81550920923014 8.999999999999998 0.0
    vertex 58.52141398371754 18.829629131445344 0.0
    vertex 59.81550920923014 19.000000000000004 0.0
  endloop
endfacet
facet normal -5.809764284670444e-20 -2.991907294410614e-17 -1.0
  outer loop
    vertex 59.81550920923014 8.999999999999998 0.0
    vertex 59.81550920923014 19.000000000000004 0.0
    vertex 61.10960443474274 18.829629131445344 0.0
  endloop
endfacet
facet normal -5.809764284670444e-20 -2.991907294410614e-17 -1.0
  outer loop
    vertex 59.81550920923014 8.999999999999998 0.0
    vertex 61.10960443474274 18.829629131445344 0.0
    vertex 61.10960443474274 9.170370868554656 0.0
  endloop
endfacet
facet normal -5.809764284670444e-20 -2.991907294410614e-17 -1.0
  outer loop
    vertex 61.10960443474274 9.170370868554656 0.0
    vertex 61.10960443474274 18.829629131445344 0.0
    vertex 62.315509209230136 18.33012701892219 0.0
  endloop
endfacet
facet normal -5.809764284670444e-20 -2.991907294410614e-17 -1.0
  outer loop
    vertex 61.10960443474274 9.170370868554656 0.0
    vertex 62.315509209230136 18.33012701892219 0.0
    vertex 62.315509209230136 9.669872981077804 0.0
  endloop
endfacet
facet normal -5.809764284670444e-20 -2.991907294410614e-17 -1.0
  outer loop
    vertex 62.315509209230136 9.669872981077804 0.0
    vertex 62.315509209230136 18.33012701892219 0.0
    vertex 63.351043115162874 17.535533905932738 0.0
  endloop
endfacet
facet normal -5.809764284670444e-20 -2.991907294410614e-17 -1.0
  outer loop
    vertex 62.315509209230136 9.669872981077804 0.0
    vertex 63.351043115162874 17.535533905932738 0.0
    vertex 63.351043115162874 10.46446609406726 0.0
  endloop
endfacet
facet normal -5.809764284670444e-20 -2.991907294410614e-17 -1.0
  outer loop
    vertex 63.351043115162874 10.46446609406726 0.0
    vertex 63.351043115162874 17.535533905932738 0.0
    vertex 64.14563622815233 16.499999999999996 0.0
  endloop
endfacet
facet normal -5.809764284670444e-20 -2.991907294410614e-17 -1.0
  outer loop
    vertex 63.351043115162874 10.46446609406726 0.0
    vertex 64.14563622815233 16.499999999999996 0.0
    vertex 64.14563622815233 11.499999999999996 0.0
  endloop
endfacet
facet normal -5.809764284670444e-20 -2.991907294410614e-17 -1.0
  outer loop
    vertex 64.14563622815233 11.499999999999996 0.0
    vertex 64.14563622815233 16.499999999999996 0.0
    vertex 64.64513834067547 15.294095225512603 0.0
  endloop
endfacet
facet normal -5.809764284670444e-20 -2.991907294410614e-17 -1.0
  outer loop
    vertex 64.14563622815233 11.499999999999996 0.0
    vertex 64.64513834067547 15.294095225512603 0.0
    vertex 64.64513834067547 12.705904774487394 0.0
  endloop
endfacet
facet normal -5.809764284670444e-20 -2.991907294410614e-17 -1.0
  outer loop
    vertex 64.64513834067547 12.705904774487394 0.0
    vertex 64.64513834067547 15.294095225512603 0.0
    vertex 64.81550920923014 14.0 0.0
  endloop
endfacet
facet normal -5.809764284670444e-20 -2.991907294410614e-17 -1.0
  outer loop
    vertex 3.2260256021304476 11.789884725844265 0.0
    vertex 2.000000000000001 0.0 1.4099832412739487e-15
    vertex 2.0000000000000004 11.789884725844265 1.4099832412739487e-15
  endloop
endfacet
facet normal -5.809764284670444e-20 -2.991907294410614e-17 -1.0
  outer loop
    vertex 2.000000000000001 0.0 1.4099832412739487e-15
    vertex 3.2260256021304476 11.789884725844265 0.0
    vertex 4.933492352724218 10.093031256101249 0.0
  endloop
endfacet
facet normal -5.809764284670444e-20 -2.991907294410614e-17 -1.0
  outer loop
    vertex 2.000000000000001 0.0 1.4099832412739487e-15
    vertex 4.933492352724218 10.093031256101249 0.0
    vertex 6.077817003928279 9.214960068222775 0.0
  endloop
endfacet
facet normal -5.809764284670444e-20 -2.991907294410614e-17 -1.0
  outer loop
    vertex 2.000000000000001 0.0 1.4099832412739487e-15
    vertex 6.077817003928279 9.214960068222775 0.0
    vertex 7.410411284564236 8.662981444042543 0.0
  endloop
endfacet
facet normal -5.809764284670444e-20 -2.991907294410614e-17 -1.0
  outer loop
    vertex 2.000000000000001 0.0 1.4099832412739487e-15
    vertex 7.410411284564236 8.662981444042543 0.0
    vertex 51.81550920923014 0.0 0.0
  endloop
endfacet
facet normal -5.809764284670444e-20 -2.991907294410614e-17 -1.0
  outer loop
    vertex 4.933492352724218 10.093031256101249 0.0
    vertex 3.2260256021304476 11.789884725844265 0.0
    vertex 4.055421164845741 11.2373559073053 0.0
  endloop
endfacet
facet normal -5.809764284670444e-20 -2.991907294410614e-17 -1.0
  outer loop
    vertex 51.81550920923014 0.0 0.0
    vertex 7.410411284564236 8.662981444042543 0.0
    vertex 8.840461096622969 8.474711814610641 0.0
  endloop
endfacet
facet normal -5.809764284670444e-20 -2.991907294410614e-17 -1.0
  outer loop
    vertex 51.81550920923014 0.0 0.0
    vertex 8.840461096622969 8.474711814610641 0.0
    vertex 10.270510908681677 8.662981444042543 0.0
  endloop
endfacet
facet normal -5.809764284670444e-20 -2.991907294410614e-17 -1.0
  outer loop
    vertex 51.81550920923014 0.0 0.0
    vertex 10.270510908681677 8.662981444042543 0.0
    vertex 22.86793413007041 6.371188526663585 4.229949723821846e-15
  endloop
endfacet
facet normal -5.809764284670444e-20 -2.991907294410614e-17 -1.0
  outer loop
    vertex 22.86793413007041 6.371188526663585 4.229949723821846e-15
    vertex 10.270510908681677 8.662981444042543 0.0
    vertex 11.603105189317645 9.214960068222775 0.0
  endloop
endfacet
facet normal -5.809764284670444e-20 -2.991907294410614e-17 -1.0
  outer loop
    vertex 22.86793413007041 6.371188526663585 4.229949723821846e-15
    vertex 11.603105189317645 9.214960068222775 0.0
    vertex 12.747429840521695 10.093031256101249 0.0
  endloop
endfacet
facet normal -5.809764284670444e-20 -2.991907294410614e-17 -1.0
  outer loop
    vertex 22.86793413007041 6.371188526663585 4.229949723821846e-15
    vertex 12.747429840521695 10.093031256101249 0.0
    vertex 13.625501028400166 11.2373559073053 0.0
  endloop
endfacet
facet normal -5.809764284670444e-20 -2.991907294410614e-17 -1.0
  outer loop
    vertex 22.86793413007041 6.371188526663585 4.229949723821846e-15
    vertex 13.625501028400166 11.2373559073053 0.0
    vertex 14.177479652580402 12.56995018794128 0.0
  endloop
endfacet
facet normal -5.809764284670444e-20 -2.991907294410614e-17 -1.0
  outer loop
    vertex 22.86793413007041 6.371188526663585 4.229949723821846e-15
    vertex 14.177479652580402 12.56995018794128 0.0
    vertex 14.36574928201232 13.999999999999982 0.0
  endloop
endfacet
facet normal -5.809764284670444e-20 -2.991907294410614e-17 -1.0
  outer loop
    vertex 22.86793413007041 6.371188526663585 4.229949723821846e-15
    vertex 14.36574928201232 13.999999999999982 0.0
    vertex 22.86793413007041 13.371188526663584 4.229949723821846e-15
  endloop
endfacet
facet normal -5.809764284670444e-20 -2.991907294410614e-17 -1.0
  outer loop
    vertex 51.81550920923014 0.0 0.0
    vertex 22.86793413007041 6.371188526663585 4.229949723821846e-15
    vertex 24.61793413007041 6.371188526663585 4.229949723821846e-15
  endloop
endfacet
facet normal -5.809764284670444e-20 -2.991907294410614e-17 -1.0
  outer loop
    vertex 51.81550920923014 0.0 0.0
    vertex 24.61793413007041 6.371188526663585 4.229949723821846e-15
    vertex 35.6179341300704 6.371188526663585 9.86988268891764e-15
  endloop
endfacet
facet normal -5.809764284670444e-20 -2.991907294410614e-17 -1.0
  outer loop
    vertex 35.6179341300704 6.371188526663585 9.86988268891764e-15
    vertex 24.61793413007041 6.371188526663585 4.229949723821846e-15
    vertex 27.952870620609314 20.621188526663577 -7.049916206369744e-15
  endloop
endfacet
facet normal -5.809764284670444e-20 -2.991907294410614e-17 -1.0
  outer loop
    vertex 27.952870620609314 20.621188526663577 -7.049916206369744e-15
    vertex 24.61793413007041 6.371188526663585 4.229949723821846e-15
    vertex 27.70311956434774 21.22414091390728 -7.049916206369744e-15
  endloop
endfacet
facet normal -5.809764284670444e-20 -2.991907294410614e-17 -1.0
  outer loop
    vertex 27.70311956434774 21.22414091390728 -7.049916206369744e-15
    vertex 24.61793413007041 6.371188526663585 4.229949723821846e-15
    vertex 27.61793413007041 21.87118852666358 -7.049916206369744e-15
  endloop
endfacet
facet normal -5.809764284670444e-20 -2.991907294410614e-17 -1.0
  outer loop
    vertex 27.61793413007041 21.87118852666358 -7.049916206369744e-15
    vertex 24.61793413007041 6.371188526663585 4.229949723821846e-15
    vertex 27.617934130070402 25.646511836643544 -7.049916206369744e-15
  endloop
endfacet
facet normal -5.809764284670444e-20 -2.991907294410614e-17 -1.0
  outer loop
    vertex 35.6179341300704 6.371188526663585 9.86988268891764e-15
    vertex 27.952870620609314 20.621188526663577 -7.049916206369744e-15
    vertex 28.35016717710404 20.10342157369721 -7.049916206369744e-15
  endloop
endfacet
facet normal -5.809764284670444e-20 -2.991907294410614e-17 -1.0
  outer loop
    vertex 35.6179341300704 6.371188526663585 9.86988268891764e-15
    vertex 28.35016717710404 20.10342157369721 -7.049916206369744e-15
    vertex 28.867934130070406 19.70612501720248 -7.049916206369744e-15
  endloop
endfacet
facet normal -5.809764284670444e-20 -2.991907294410614e-17 -1.0
  outer loop
    vertex 35.6179341300704 6.371188526663585 9.86988268891764e-15
    vertex 28.867934130070406 19.70612501720248 -7.049916206369744e-15
    vertex 29.47088651731411 19.45637396094092 -7.049916206369744e-15
  endloop
endfacet
facet normal -5.809764284670444e-20 -2.991907294410614e-17 -1.0
  outer loop
    vertex 35.6179341300704 6.371188526663585 9.86988268891764e-15
    vertex 29.47088651731411 19.45637396094092 -7.049916206369744e-15
    vertex 30.11793413007041 19.371188526663584 -7.049916206369744e-15
  endloop
endfacet
facet normal -5.809764284670444e-20 -2.991907294410614e-17 -1.0
  outer loop
    vertex 35.6179341300704 6.371188526663585 9.86988268891764e-15
    vertex 30.11793413007041 19.371188526663584 -7.049916206369744e-15
    vertex 30.420359050910665 19.411003522824878 -7.049916206369744e-15
  endloop
endfacet
facet normal -5.809764284670444e-20 -2.991907294410614e-17 -1.0
  outer loop
    vertex 35.6179341300704 6.371188526663585 9.86988268891764e-15
    vertex 30.420359050910665 19.411003522824878 -7.049916206369744e-15
    vertex 30.764981742826713 19.45637396094092 -7.049916206369744e-15
  endloop
endfacet
facet normal -5.809764284670444e-20 -2.991907294410614e-17 -1.0
  outer loop
    vertex 35.6179341300704 6.371188526663585 9.86988268891764e-15
    vertex 30.764981742826713 19.45637396094092 -7.049916206369744e-15
    vertex 31.367934130070406 19.70612501720248 -7.049916206369744e-15
  endloop
endfacet
facet normal -5.809764284670444e-20 -2.991907294410614e-17 -1.0
  outer loop
    vertex 35.6179341300704 6.371188526663585 9.86988268891764e-15
    vertex 31.367934130070406 19.70612501720248 -7.049916206369744e-15
    vertex 31.88570108303678 20.10342157369721 -7.049916206369744e-15
  endloop
endfacet
facet normal -5.809764284670444e-20 -2.991907294410614e-17 -1.0
  outer loop
    vertex 35.6179341300704 6.371188526663585 9.86988268891764e-15
    vertex 31.88570108303678 20.10342157369721 -7.049916206369744e-15
    vertex 32.28299763953151 20.621188526663577 -7.049916206369744e-15
  endloop
endfacet
facet normal -5.809764284670444e-20 -2.991907294410614e-17 -1.0
  outer loop
    vertex 35.6179341300704 6.371188526663585 9.86988268891764e-15
    vertex 32.28299763953151 20.621188526663577 -7.049916206369744e-15
    vertex 32.53274869579308 21.22414091390728 -7.049916206369744e-15
  endloop
endfacet
facet normal -5.809764284670444e-20 -2.991907294410614e-17 -1.0
  outer loop
    vertex 35.6179341300704 6.371188526663585 9.86988268891764e-15
    vertex 32.53274869579308 21.22414091390728 -7.049916206369744e-15
    vertex 32.6179341300704 21.87118852666358 -7.049916206369744e-15
  endloop
endfacet
facet normal -5.809764284670444e-20 -2.991907294410614e-17 -1.0
  outer loop
    vertex 35.6179341300704 6.371188526663585 9.86988268891764e-15
    vertex 32.6179341300704 21.87118852666358 -7.049916206369744e-15
    vertex 35.6179341300704 13.371188526663584 9.86988268891764e-15
  endloop
endfacet
facet normal -5.809764284670444e-20 -2.991907294410614e-17 -1.0
  outer loop
    vertex 51.81550920923014 0.0 0.0
    vertex 35.6179341300704 6.371188526663585 9.86988268891764e-15
    vertex 37.36793413007041 6.371188526663585 9.86988268891764e-15
  endloop
endfacet
facet normal -5.809764284670444e-20 -2.991907294410614e-17 -1.0
  outer loop
    vertex 51.81550920923014 0.0 0.0
    vertex 37.36793413007041 6.371188526663585 9.86988268891764e-15
    vertex 51.81550920923014 28.0 0.0
  endloop
endfacet
facet normal -5.809764284670444e-20 -2.991907294410614e-17 -1.0
  outer loop
    vertex 51.81550920923014 0.0 0.0
    vertex 51.81550920923014 28.0 0.0
    vertex 51.81550920923014 15.999999999999998 0.0
  endloop
endfacet
facet normal -5.809764284670444e-20 -2.991907294410614e-17 -1.0
  outer loop
    vertex 51.81550920923014 0.0 0.0
    vertex 51.81550920923014 15.999999999999998 0.0
    vertex 51.81550920923014 12.0 0.0
  endloop
endfacet
facet normal 0.0 -1.0 0.0
  outer loop
    vertex 51.81550920923014 0.0 22.0
    vertex 2.000000000000001 0.0 1.4099832412739487e-15
    vertex 51.81550920923014 0.0 0.0
  endloop
endfacet
facet normal 0.0 -1.0 0.0
  outer loop
    vertex 2.000000000000001 0.0 1.4099832412739487e-15
    vertex 51.81550920923014 0.0 22.0
    vertex 2.000000000000001 0.0 22.0
  endloop
endfacet
facet normal 1.8654082230582507e-32 -5.109818621169381e-32 1.0
  outer loop
    vertex 2.000000000000001 0.0 22.0
    vertex 3.2260256021304476 11.789884725844265 22.0
    vertex 2.0000000000000004 11.789884725844265 22.0
  endloop
endfacet
facet normal 1.8654082230582507e-32 -5.109818621169381e-32 1.0
  outer loop
    vertex 3.2260256021304476 11.789884725844265 22.0
    vertex 2.000000000000001 0.0 22.0
    vertex 4.933492352724218 10.093031256101249 22.0
  endloop
endfacet
facet normal 1.8654082230582507e-32 -5.109818621169381e-32 1.0
  outer loop
    vertex 4.933492352724218 10.093031256101249 22.0
    vertex 2.000000000000001 0.0 22.0
    vertex 6.077817003928279 9.214960068222775 22.0
  endloop
endfacet
facet normal 1.8654082230582507e-32 -5.109818621169381e-32 1.0
  outer loop
    vertex 6.077817003928279 9.214960068222775 22.0
    vertex 2.000000000000001 0.0 22.0
    vertex 7.410411284564236 8.662981444042543 22.0
  endloop
endfacet
facet normal 1.8654082230582507e-32 -5.109818621169381e-32 1.0
  outer loop
    vertex 7.410411284564236 8.662981444042543 22.0
    vertex 2.000000000000001 0.0 22.0
    vertex 51.81550920923014 0.0 22.0
  endloop
endfacet
facet normal 1.8654082230582507e-32 -5.109818621169381e-32 1.0
  outer loop
    vertex 3.2260256021304476 11.789884725844265 22.0
    vertex 4.933492352724218 10.093031256101249 22.0
    vertex 4.055421164845741 11.2373559073053 22.0
  endloop
endfacet
facet normal 1.8654082230582507e-32 -5.109818621169381e-32 1.0
  outer loop
    vertex 7.410411284564236 8.662981444042543 22.0
    vertex 51.81550920923014 0.0 22.0
    vertex 8.840461096622969 8.474711814610641 22.0
  endloop
endfacet
facet normal 1.8654082230582507e-32 -5.109818621169381e-32 1.0
  outer loop
    vertex 8.840461096622969 8.474711814610641 22.0
    vertex 51.81550920923014 0.0 22.0
    vertex 10.270510908681677 8.662981444042543 22.0
  endloop
endfacet
facet normal 1.8654082230582507e-32 -5.109818621169381e-32 1.0
  outer loop
    vertex 10.270510908681677 8.662981444042543 22.0
    vertex 51.81550920923014 0.0 22.0
    vertex 22.86793413007041 6.371188526663585 22.0
  endloop
endfacet
facet normal 1.8654082230582507e-32 -5.109818621169381e-32 1.0
  outer loop
    vertex 10.270510908681677 8.662981444042543 22.0
    vertex 22.86793413007041 6.371188526663585 22.0
    vertex 11.603105189317645 9.214960068222775 22.0
  endloop
endfacet
facet normal 1.8654082230582507e-32 -5.109818621169381e-32 1.0
  outer loop
    vertex 11.603105189317645 9.214960068222775 22.0
    vertex 22.86793413007041 6.371188526663585 22.0
    vertex 12.747429840521695 10.093031256101249 22.0
  endloop
endfacet
facet normal 1.8654082230582507e-32 -5.109818621169381e-32 1.0
  outer loop
    vertex 12.747429840521695 10.093031256101249 22.0
    vertex 22.86793413007041 6.371188526663585 22.0
    vertex 13.625501028400166 11.2373559073053 22.0
  endloop
endfacet
facet normal 1.8654082230582507e-32 -5.109818621169381e-32 1.0
  outer loop
    vertex 13.625501028400166 11.2373559073053 22.0
    vertex 22.86793413007041 6.371188526663585 22.0
    vertex 14.177479652580402 12.56995018794128 22.0
  endloop
endfacet
facet normal 1.8654082230582507e-32 -5.109818621169381e-32 1.0
  outer loop
    vertex 14.177479652580402 12.56995018794128 22.0
    vertex 22.86793413007041 6.371188526663585 22.0
    vertex 14.36574928201232 13.999999999999982 22.0
  endloop
endfacet
facet normal 1.8654082230582507e-32 -5.109818621169381e-32 1.0
  outer loop
    vertex 22.86793413007041 6.371188526663585 22.0
    vertex 51.81550920923014 0.0 22.0
    vertex 24.61793413007041 6.371188526663585 22.0
  endloop
endfacet
facet normal 1.8654082230582507e-32 -5.109818621169381e-32 1.0
  outer loop
    vertex 24.61793413007041 6.371188526663585 22.0
    vertex 51.81550920923014 0.0 22.0
    vertex 35.6179341300704 6.371188526663585 22.0
  endloop
endfacet
facet normal 1.8654082230582507e-32 -5.109818621169381e-32 1.0
  outer loop
    vertex 24.61793413007041 6.371188526663585 22.0
    vertex 35.6179341300704 6.371188526663585 22.0
    vertex 24.61793413007041 13.371188526663584 22.0
  endloop
endfacet
facet normal 1.8654082230582507e-32 -5.109818621169381e-32 1.0
  outer loop
    vertex 24.61793413007041 13.371188526663584 22.0
    vertex 35.6179341300704 6.371188526663585 22.0
    vertex 27.952870620609314 20.621188526663577 22.0
  endloop
endfacet
facet normal 1.8654082230582507e-32 -5.109818621169381e-32 1.0
  outer loop
    vertex 24.61793413007041 13.371188526663584 22.0
    vertex 27.952870620609314 20.621188526663577 22.0
    vertex 27.70311956434774 21.22414091390728 22.0
  endloop
endfacet
facet normal 1.8654082230582507e-32 -5.109818621169381e-32 1.0
  outer loop
    vertex 24.61793413007041 13.371188526663584 22.0
    vertex 27.70311956434774 21.22414091390728 22.0
    vertex 27.61793413007041 21.87118852666358 22.0
  endloop
endfacet
facet normal 1.8654082230582507e-32 -5.109818621169381e-32 1.0
  outer loop
    vertex 24.61793413007041 13.371188526663584 22.0
    vertex 27.61793413007041 21.87118852666358 22.0
    vertex 27.617934130070402 25.646511836643544 22.0
  endloop
endfacet
facet normal 1.8654082230582507e-32 -5.109818621169381e-32 1.0
  outer loop
    vertex 27.952870620609314 20.621188526663577 22.0
    vertex 35.6179341300704 6.371188526663585 22.0
    vertex 28.35016717710404 20.10342157369721 22.0
  endloop
endfacet
facet normal 1.8654082230582507e-32 -5.109818621169381e-32 1.0
  outer loop
    vertex 28.35016717710404 20.10342157369721 22.0
    vertex 35.6179341300704 6.371188526663585 22.0
    vertex 28.867934130070406 19.70612501720248 22.0
  endloop
endfacet
facet normal 1.8654082230582507e-32 -5.109818621169381e-32 1.0
  outer loop
    vertex 28.867934130070406 19.70612501720248 22.0
    vertex 35.6179341300704 6.371188526663585 22.0
    vertex 29.47088651731411 19.45637396094092 22.0
  endloop
endfacet
facet normal 1.8654082230582507e-32 -5.109818621169381e-32 1.0
  outer loop
    vertex 29.47088651731411 19.45637396094092 22.0
    vertex 35.6179341300704 6.371188526663585 22.0
    vertex 30.11793413007041 19.371188526663584 22.0
  endloop
endfacet
facet normal 1.8654082230582507e-32 -5.109818621169381e-32 1.0
  outer loop
    vertex 30.11793413007041 19.371188526663584 22.0
    vertex 35.6179341300704 6.371188526663585 22.0
    vertex 30.420359050910665 19.411003522824878 22.0
  endloop
endfacet
facet normal 1.8654082230582507e-32 -5.109818621169381e-32 1.0
  outer loop
    vertex 30.420359050910665 19.411003522824878 22.0
    vertex 35.6179341300704 6.371188526663585 22.0
    vertex 30.764981742826713 19.45637396094092 22.0
  endloop
endfacet
facet normal 1.8654082230582507e-32 -5.109818621169381e-32 1.0
  outer loop
    vertex 30.764981742826713 19.45637396094092 22.0
    vertex 35.6179341300704 6.371188526663585 22.0
    vertex 31.367934130070406 19.70612501720248 22.0
  endloop
endfacet
facet normal 1.8654082230582507e-32 -5.109818621169381e-32 1.0
  outer loop
    vertex 31.367934130070406 19.70612501720248 22.0
    vertex 35.6179341300704 6.371188526663585 22.0
    vertex 31.88570108303678 20.10342157369721 22.0
  endloop
endfacet
facet normal 1.8654082230582507e-32 -5.109818621169381e-32 1.0
  outer loop
    vertex 31.88570108303678 20.10342157369721 22.0
    vertex 35.6179341300704 6.371188526663585 22.0
    vertex 32.28299763953151 20.621188526663577 22.0
  endloop
endfacet
facet normal 1.8654082230582507e-32 -5.109818621169381e-32 1.0
  outer loop
    vertex 32.28299763953151 20.621188526663577 22.0
    vertex 35.6179341300704 6.371188526663585 22.0
    vertex 32.53274869579308 21.22414091390728 22.0
  endloop
endfacet
facet normal 1.8654082230582507e-32 -5.109818621169381e-32 1.0
  outer loop
    vertex 32.53274869579308 21.22414091390728 22.0
    vertex 35.6179341300704 6.371188526663585 22.0
    vertex 32.6179341300704 21.87118852666358 22.0
  endloop
endfacet
facet normal 1.8654082230582507e-32 -5.109818621169381e-32 1.0
  outer loop
    vertex 32.6179341300704 21.87118852666358 22.0
    vertex 35.6179341300704 6.371188526663585 22.0
    vertex 32.6179341300704 25.646511836643544 22.0
  endloop
endfacet
facet normal 1.8654082230582507e-32 -5.109818621169381e-32 1.0
  outer loop
    vertex 35.6179341300704 6.371188526663585 22.0
    vertex 51.81550920923014 0.0 22.0
    vertex 37.36793413007041 6.371188526663585 22.0
  endloop
endfacet
facet normal 1.8654082230582507e-32 -5.109818621169381e-32 1.0
  outer loop
    vertex 37.36793413007041 6.371188526663585 22.0
    vertex 51.81550920923014 0.0 22.0
    vertex 37.36793413007041 13.371188526663584 22.0
  endloop
endfacet
facet normal 1.8654082230582507e-32 -5.109818621169381e-32 1.0
  outer loop
    vertex 54.73483711927573 12.0 22.0
    vertex 51.81550920923014 15.999999999999998 22.0
    vertex 51.81550920923014 12.0 22.0
  endloop
endfacet
facet normal 1.8654082230582507e-32 -5.109818621169381e-32 1.0
  outer loop
    vertex 51.81550920923014 15.999999999999998 22.0
    vertex 54.73483711927573 12.0 22.0
    vertex 54.73483711927573 15.999999999999998 22.0
  endloop
endfacet
facet normal 1.8654082230582507e-32 -5.109818621169381e-32 1.0
  outer loop
    vertex 54.73483711927573 15.999999999999998 22.0
    vertex 54.73483711927573 12.0 22.0
    vertex 55.48538219030794 11.499999999999998 22.0
  endloop
endfacet
facet normal 1.8654082230582507e-32 -5.109818621169381e-32 1.0
  outer loop
    vertex 54.73483711927573 15.999999999999998 22.0
    vertex 55.48538219030794 11.499999999999998 22.0
    vertex 55.48538219030794 16.500000000000004 22.0
  endloop
endfacet
facet normal 1.8654082230582507e-32 -5.109818621169381e-32 1.0
  outer loop
    vertex 55.48538219030794 16.500000000000004 22.0
    vertex 55.48538219030794 11.499999999999998 22.0
    vertex 56.27997530329739 10.464466094067262 22.0
  endloop
endfacet
facet normal 1.8654082230582507e-32 -5.109818621169381e-32 1.0
  outer loop
    vertex 55.48538219030794 16.500000000000004 22.0
    vertex 56.27997530329739 10.464466094067262 22.0
    vertex 55.643638513054135 16.706243655215385 22.0
  endloop
endfacet
facet normal 1.8654082230582507e-32 -5.109818621169381e-32 1.0
  outer loop
    vertex 55.643638513054135 16.706243655215385 22.0
    vertex 56.27997530329739 10.464466094067262 22.0
    vertex 55.8142649654865 16.88906757812906 22.0
  endloop
endfacet
facet normal 1.8654082230582507e-32 -5.109818621169381e-32 1.0
  outer loop
    vertex 55.8142649654865 16.88906757812906 22.0
    vertex 56.27997530329739 10.464466094067262 22.0
    vertex 55.882955147428405 17.018127165274898 22.0
  endloop
endfacet
facet normal 1.8654082230582507e-32 -5.109818621169381e-32 1.0
  outer loop
    vertex 55.882955147428405 17.018127165274898 22.0
    vertex 56.27997530329739 10.464466094067262 22.0
    vertex 56.279975303297405 17.53553390593274 22.0
  endloop
endfacet
facet normal 1.8654082230582507e-32 -5.109818621169381e-32 1.0
  outer loop
    vertex 56.279975303297405 17.53553390593274 22.0
    vertex 56.27997530329739 10.464466094067262 22.0
    vertex 57.315509209230136 9.669872981077804 22.0
  endloop
endfacet
facet normal 1.8654082230582507e-32 -5.109818621169381e-32 1.0
  outer loop
    vertex 56.279975303297405 17.53553390593274 22.0
    vertex 57.315509209230136 9.669872981077804 22.0
    vertex 57.31550920923014 18.330127018922198 22.0
  endloop
endfacet
facet normal 1.8654082230582507e-32 -5.109818621169381e-32 1.0
  outer loop
    vertex 57.31550920923014 18.330127018922198 22.0
    vertex 57.315509209230136 9.669872981077804 22.0
    vertex 58.52141398371752 9.170370868554656 22.0
  endloop
endfacet
facet normal 1.8654082230582507e-32 -5.109818621169381e-32 1.0
  outer loop
    vertex 57.31550920923014 18.330127018922198 22.0
    vertex 58.52141398371752 9.170370868554656 22.0
    vertex 58.52141398371754 18.829629131445344 22.0
  endloop
endfacet
facet normal 1.8654082230582507e-32 -5.109818621169381e-32 1.0
  outer loop
    vertex 58.52141398371754 18.829629131445344 22.0
    vertex 58.52141398371752 9.170370868554656 22.0
    vertex 59.81550920923014 8.999999999999998 22.0
  endloop
endfacet
facet normal 1.8654082230582507e-32 -5.109818621169381e-32 1.0
  outer loop
    vertex 58.52141398371754 18.829629131445344 22.0
    vertex 59.81550920923014 8.999999999999998 22.0
    vertex 59.81550920923014 19.000000000000004 22.0
  endloop
endfacet
facet normal 1.8654082230582507e-32 -5.109818621169381e-32 1.0
  outer loop
    vertex 59.81550920923014 19.000000000000004 22.0
    vertex 59.81550920923014 8.999999999999998 22.0
    vertex 61.10960443474274 9.170370868554656 22.0
  endloop
endfacet
facet normal 1.8654082230582507e-32 -5.109818621169381e-32 1.0
  outer loop
    vertex 59.81550920923014 19.000000000000004 22.0
    vertex 61.10960443474274 9.170370868554656 22.0
    vertex 61.10960443474274 18.829629131445344 22.0
  endloop
endfacet
facet normal 1.8654082230582507e-32 -5.109818621169381e-32 1.0
  outer loop
    vertex 61.10960443474274 18.829629131445344 22.0
    vertex 61.10960443474274 9.170370868554656 22.0
    vertex 62.315509209230136 9.669872981077804 22.0
  endloop
endfacet
facet normal 1.8654082230582507e-32 -5.109818621169381e-32 1.0
  outer loop
    vertex 61.10960443474274 18.829629131445344 22.0
    vertex 62.315509209230136 9.669872981077804 22.0
    vertex 62.315509209230136 18.33012701892219 22.0
  endloop
endfacet
facet normal 1.8654082230582507e-32 -5.109818621169381e-32 1.0
  outer loop
    vertex 62.315509209230136 18.33012701892219 22.0
    vertex 62.315509209230136 9.669872981077804 22.0
    vertex 63.351043115162874 10.46446609406726 22.0
  endloop
endfacet
facet normal 1.8654082230582507e-32 -5.109818621169381e-32 1.0
  outer loop
    vertex 62.315509209230136 18.33012701892219 22.0
    vertex 63.351043115162874 10.46446609406726 22.0
    vertex 63.351043115162874 17.535533905932738 22.0
  endloop
endfacet
facet normal 1.8654082230582507e-32 -5.109818621169381e-32 1.0
  outer loop
    vertex 63.351043115162874 17.535533905932738 22.0
    vertex 63.351043115162874 10.46446609406726 22.0
    vertex 64.14563622815233 11.499999999999996 22.0
  endloop
endfacet
facet normal 1.8654082230582507e-32 -5.109818621169381e-32 1.0
  outer loop
    vertex 63.351043115162874 17.535533905932738 22.0
    vertex 64.14563622815233 11.499999999999996 22.0
    vertex 64.14563622815233 16.499999999999996 22.0
  endloop
endfacet
facet normal 1.8654082230582507e-32 -5.109818621169381e-32 1.0
  outer loop
    vertex 64.14563622815233 16.499999999999996 22.0
    vertex 64.14563622815233 11.499999999999996 22.0
    vertex 64.64513834067547 12.705904774487394 22.0
  endloop
endfacet
facet normal 1.8654082230582507e-32 -5.109818621169381e-32 1.0
  outer loop
    vertex 64.14563622815233 16.499999999999996 22.0
    vertex 64.64513834067547 12.705904774487394 22.0
    vertex 64.64513834067547 15.294095225512603 22.0
  endloop
endfacet
facet normal 1.8654082230582507e-32 -5.109818621169381e-32 1.0
  outer loop
    vertex 64.64513834067547 15.294095225512603 22.0
    vertex 64.64513834067547 12.705904774487394 22.0
    vertex 64.81550920923014 14.0 22.0
  endloop
endfacet
facet normal 1.8654082230582507e-32 -5.109818621169381e-32 1.0
  outer loop
    vertex 3.2260256021304476 16.21011527415573 22.0
    vertex 1.9999999999999998 28.0 22.0
    vertex 1.9999999999999998 16.210115274155733 22.0
  endloop
endfacet
facet normal 1.8654082230582507e-32 -5.109818621169381e-32 1.0
  outer loop
    vertex 1.9999999999999998 28.0 22.0
    vertex 3.2260256021304476 16.21011527415573 22.0
    vertex 4.933492352724235 17.906968743898737 22.0
  endloop
endfacet
facet normal 1.8654082230582507e-32 -5.109818621169381e-32 1.0
  outer loop
    vertex 1.9999999999999998 28.0 22.0
    vertex 4.933492352724235 17.906968743898737 22.0
    vertex 6.07781700392829 18.7850399317772 22.0
  endloop
endfacet
facet normal 1.8654082230582507e-32 -5.109818621169381e-32 1.0
  outer loop
    vertex 1.9999999999999998 28.0 22.0
    vertex 6.07781700392829 18.7850399317772 22.0
    vertex 7.410411284564248 19.337018555957435 22.0
  endloop
endfacet
facet normal 1.8654082230582507e-32 -5.109818621169381e-32 1.0
  outer loop
    vertex 1.9999999999999998 28.0 22.0
    vertex 7.410411284564248 19.337018555957435 22.0
    vertex 27.617934130070402 25.646511836643544 22.0
  endloop
endfacet
facet normal 1.8654082230582507e-32 -5.109818621169381e-32 1.0
  outer loop
    vertex 1.9999999999999998 28.0 22.0
    vertex 27.617934130070402 25.646511836643544 22.0
    vertex 51.81550920923014 28.0 22.0
  endloop
endfacet
facet normal 1.8654082230582507e-32 -5.109818621169381e-32 1.0
  outer loop
    vertex 4.933492352724235 17.906968743898737 22.0
    vertex 3.2260256021304476 16.21011527415573 22.0
    vertex 4.055421164845741 16.76264409269469 22.0
  endloop
endfacet
facet normal 1.8654082230582507e-32 -5.109818621169381e-32 1.0
  outer loop
    vertex 4.933492352724235 17.906968743898737 22.0
    vertex 4.055421164845741 16.76264409269469 22.0
    vertex 4.230303522912284 16.990555218989282 22.0
  endloop
endfacet
facet normal 1.8654082230582507e-32 -5.109818621169381e-32 1.0
  outer loop
    vertex 4.933492352724235 17.906968743898737 22.0
    vertex 4.230303522912284 16.990555218989282 22.0
    vertex 4.494762197407359 17.335204473659214 22.0
  endloop
endfacet
facet normal 1.8654082230582507e-32 -5.109818621169381e-32 1.0
  outer loop
    vertex 4.494762197407359 17.335204473659214 22.0
    vertex 4.230303522912284 16.990555218989282 22.0
    vertex 4.41885558726019 17.192586191245585 22.0
  endloop
endfacet
facet normal 1.8654082230582507e-32 -5.109818621169381e-32 1.0
  outer loop
    vertex 27.617934130070402 25.646511836643544 22.0
    vertex 7.410411284564248 19.337018555957435 22.0
    vertex 8.840461096622969 19.525288185389357 22.0
  endloop
endfacet
facet normal 1.8654082230582507e-32 -5.109818621169381e-32 1.0
  outer loop
    vertex 27.617934130070402 25.646511836643544 22.0
    vertex 8.840461096622969 19.525288185389357 22.0
    vertex 10.270510908681677 19.337018555957435 22.0
  endloop
endfacet
facet normal 1.8654082230582507e-32 -5.109818621169381e-32 1.0
  outer loop
    vertex 27.617934130070402 25.646511836643544 22.0
    vertex 10.270510908681677 19.337018555957435 22.0
    vertex 11.603105189317645 18.785039931777195 22.0
  endloop
endfacet
facet normal 1.8654082230582507e-32 -5.109818621169381e-32 1.0
  outer loop
    vertex 27.617934130070402 25.646511836643544 22.0
    vertex 11.603105189317645 18.785039931777195 22.0
    vertex 12.747429840521695 17.90696874389873 22.0
  endloop
endfacet
facet normal 1.8654082230582507e-32 -5.109818621169381e-32 1.0
  outer loop
    vertex 27.617934130070402 25.646511836643544 22.0
    vertex 12.747429840521695 17.90696874389873 22.0
    vertex 13.625501028400166 16.762644092694682 22.0
  endloop
endfacet
facet normal 1.8654082230582507e-32 -5.109818621169381e-32 1.0
  outer loop
    vertex 27.617934130070402 25.646511836643544 22.0
    vertex 13.625501028400166 16.762644092694682 22.0
    vertex 14.177479652580402 15.430049812058707 22.0
  endloop
endfacet
facet normal 1.8654082230582507e-32 -5.109818621169381e-32 1.0
  outer loop
    vertex 27.617934130070402 25.646511836643544 22.0
    vertex 14.177479652580402 15.430049812058707 22.0
    vertex 14.36574928201232 13.999999999999982 22.0
  endloop
endfacet
facet normal 1.8654082230582507e-32 -5.109818621169381e-32 1.0
  outer loop
    vertex 27.617934130070402 25.646511836643544 22.0
    vertex 14.36574928201232 13.999999999999982 22.0
    vertex 22.86793413007041 13.371188526663584 22.0
  endloop
endfacet
facet normal 1.8654082230582507e-32 -5.109818621169381e-32 1.0
  outer loop
    vertex 22.86793413007041 13.371188526663584 22.0
    vertex 14.36574928201232 13.999999999999982 22.0
    vertex 22.86793413007041 6.371188526663585 22.0
  endloop
endfacet
facet normal 1.8654082230582507e-32 -5.109818621169381e-32 1.0
  outer loop
    vertex 27.617934130070402 25.646511836643544 22.0
    vertex 22.86793413007041 13.371188526663584 22.0
    vertex 24.61793413007041 13.371188526663584 22.0
  endloop
endfacet
facet normal 1.8654082230582507e-32 -5.109818621169381e-32 1.0
  outer loop
    vertex 51.81550920923014 28.0 22.0
    vertex 27.617934130070402 25.646511836643544 22.0
    vertex 32.6179341300704 25.646511836643544 22.0
  endloop
endfacet
facet normal 1.8654082230582507e-32 -5.109818621169381e-32 1.0
  outer loop
    vertex 51.81550920923014 28.0 22.0
    vertex 32.6179341300704 25.646511836643544 22.0
    vertex 35.6179341300704 13.371188526663584 22.0
  endloop
endfacet
facet normal 1.8654082230582507e-32 -5.109818621169381e-32 1.0
  outer loop
    vertex 35.6179341300704 13.371188526663584 22.0
    vertex 32.6179341300704 25.646511836643544 22.0
    vertex 35.6179341300704 6.371188526663585 22.0
  endloop
endfacet
facet normal 1.8654082230582507e-32 -5.109818621169381e-32 1.0
  outer loop
    vertex 51.81550920923014 28.0 22.0
    vertex 35.6179341300704 13.371188526663584 22.0
    vertex 37.36793413007041 13.371188526663584 22.0
  endloop
endfacet
facet normal 1.8654082230582507e-32 -5.109818621169381e-32 1.0
  outer loop
    vertex 51.81550920923014 28.0 22.0
    vertex 37.36793413007041 13.371188526663584 22.0
    vertex 51.81550920923014 0.0 22.0
  endloop
endfacet
facet normal 1.8654082230582507e-32 -5.109818621169381e-32 1.0
  outer loop
    vertex 51.81550920923014 28.0 22.0
    vertex 51.81550920923014 0.0 22.0
    vertex 51.81550920923014 12.0 22.0
  endloop
endfacet
facet normal 1.8654082230582507e-32 -5.109818621169381e-32 1.0
  outer loop
    vertex 51.81550920923014 28.0 22.0
    vertex 51.81550920923014 12.0 22.0
    vertex 51.81550920923014 15.999999999999998 22.0
  endloop
endfacet
facet normal -0.0 1.0 -0.0
  outer loop
    vertex 35.6179341300704 6.371188526663585 22.0
    vertex 37.36793413007041 6.371188526663585 9.86988268891764e-15
    vertex 35.6179341300704 6.371188526663585 9.86988268891764e-15
  endloop
endfacet
facet normal -0.0 1.0 -0.0
  outer loop
    vertex 37.36793413007041 6.371188526663585 9.86988268891764e-15
    vertex 35.6179341300704 6.371188526663585 22.0
    vertex 37.36793413007041 6.371188526663585 22.0
  endloop
endfacet
facet normal -1.0 0.0 -0.0
  outer loop
    vertex 37.36793413007041 13.371188526663584 22.0
    vertex 37.36793413007041 6.371188526663585 9.86988268891764e-15
    vertex 37.36793413007041 6.371188526663585 22.0
  endloop
endfacet
facet normal -1.0 0.0 -0.0
  outer loop
    vertex 37.36793413007041 6.371188526663585 9.86988268891764e-15
    vertex 37.36793413007041 13.371188526663584 22.0
    vertex 37.36793413007041 13.371188526663584 9.86988268891764e-15
  endloop
endfacet
facet normal -0.0 -1.0 -0.0
  outer loop
    vertex 37.36793413007041 13.371188526663584 22.0
    vertex 35.6179341300704 13.371188526663584 9.86988268891764e-15
    vertex 37.36793413007041 13.371188526663584 9.86988268891764e-15
  endloop
endfacet
facet normal -0.0 -1.0 -0.0
  outer loop
    vertex 35.6179341300704 13.371188526663584 9.86988268891764e-15
    vertex 37.36793413007041 13.371188526663584 22.0
    vertex 35.6179341300704 13.371188526663584 22.0
  endloop
endfacet
facet normal 1.0 0.0 0.0
  outer loop
    vertex 35.6179341300704 13.371188526663584 9.86988268891764e-15
    vertex 35.6179341300704 6.371188526663585 22.0
    vertex 35.6179341300704 6.371188526663585 9.86988268891764e-15
  endloop
endfacet
facet normal 1.0 0.0 0.0
  outer loop
    vertex 35.6179341300704 6.371188526663585 22.0
    vertex 35.6179341300704 13.371188526663584 9.86988268891764e-15
    vertex 35.6179341300704 13.371188526663584 22.0
  endloop
endfacet
facet normal -0.0 -1.0 -0.0
  outer loop
    vertex 24.61793413007041 13.371188526663584 22.0
    vertex 22.86793413007041 13.371188526663584 4.229949723821846e-15
    vertex 24.61793413007041 13.371188526663584 4.229949723821846e-15
  endloop
endfacet
facet normal -0.0 -1.0 -0.0
  outer loop
    vertex 22.86793413007041 13.371188526663584 4.229949723821846e-15
    vertex 24.61793413007041 13.371188526663584 22.0
    vertex 22.86793413007041 13.371188526663584 22.0
  endloop
endfacet
facet normal 1.0 0.0 0.0
  outer loop
    vertex 22.86793413007041 13.371188526663584 4.229949723821846e-15
    vertex 22.86793413007041 6.371188526663585 22.0
    vertex 22.86793413007041 6.371188526663585 4.229949723821846e-15
  endloop
endfacet
facet normal 1.0 0.0 0.0
  outer loop
    vertex 22.86793413007041 6.371188526663585 22.0
    vertex 22.86793413007041 13.371188526663584 4.229949723821846e-15
    vertex 22.86793413007041 13.371188526663584 22.0
  endloop
endfacet
facet normal -0.0 1.0 -0.0
  outer loop
    vertex 22.86793413007041 6.371188526663585 22.0
    vertex 24.61793413007041 6.371188526663585 4.229949723821846e-15
    vertex 22.86793413007041 6.371188526663585 4.229949723821846e-15
  endloop
endfacet
facet normal -0.0 1.0 -0.0
  outer loop
    vertex 24.61793413007041 6.371188526663585 4.229949723821846e-15
    vertex 22.86793413007041 6.371188526663585 22.0
    vertex 24.61793413007041 6.371188526663585 22.0
  endloop
endfacet
facet normal -1.0 0.0 -0.0
  outer loop
    vertex 24.61793413007041 13.371188526663584 22.0
    vertex 24.61793413007041 6.371188526663585 4.229949723821846e-15
    vertex 24.61793413007041 6.371188526663585 22.0
  endloop
endfacet
facet normal -1.0 0.0 -0.0
  outer loop
    vertex 24.61793413007041 6.371188526663585 4.229949723821846e-15
    vertex 24.61793413007041 13.371188526663584 22.0
    vertex 24.61793413007041 13.371188526663584 4.229949723821846e-15
  endloop
endfacet
facet normal -1.0 0.0 -0.0
  outer loop
    vertex 32.6179341300704 25.646511836643544 22.0
    vertex 32.6179341300704 21.87118852666358 -7.049916206369744e-15
    vertex 32.6179341300704 21.87118852666358 22.0
  endloop
endfacet
facet normal -1.0 0.0 -0.0
  outer loop
    vertex 32.6179341300704 21.87118852666358 -7.049916206369744e-15
    vertex 32.6179341300704 25.646511836643544 22.0
    vertex 32.6179341300704 25.646511836643544 -7.049916206369744e-15
  endloop
endfacet
facet normal 0.0 -1.0 0.0
  outer loop
    vertex 32.6179341300704 25.646511836643544 22.0
    vertex 27.617934130070402 25.646511836643544 -7.049916206369744e-15
    vertex 32.6179341300704 25.646511836643544 -7.049916206369744e-15
  endloop
endfacet
facet normal 0.0 -1.0 0.0
  outer loop
    vertex 27.617934130070402 25.646511836643544 -7.049916206369744e-15
    vertex 32.6179341300704 25.646511836643544 22.0
    vertex 27.617934130070402 25.646511836643544 22.0
  endloop
endfacet
facet normal 1.0 1.493894032912833e-15 -0.0
  outer loop
    vertex 27.617934130070402 25.646511836643544 -7.049916206369744e-15
    vertex 27.61793413007041 21.87118852666358 22.0
    vertex 27.61793413007041 21.87118852666358 -7.049916206369744e-15
  endloop
endfacet
facet normal 1.0 1.493894032912833e-15 -0.0
  outer loop
    vertex 27.61793413007041 21.87118852666358 22.0
    vertex 27.617934130070402 25.646511836643544 -7.049916206369744e-15
    vertex 27.617934130070402 25.646511836643544 22.0
  endloop
endfacet
facet normal 0.9914448613738099 0.13052619222005613 0.0
  outer loop
    vertex 27.61793413007041 21.87118852666358 -7.049916206369744e-15
    vertex 27.70311956434774 21.22414091390728 22.0
    vertex 27.70311956434774 21.22414091390728 -7.049916206369744e-15
  endloop
endfacet
facet normal 0.965925826289068 0.25881904510252157 0.0
  outer loop
    vertex 27.70311956434774 21.22414091390728 22.0
    vertex 27.61793413007041 21.87118852666358 -7.049916206369744e-15
    vertex 27.61793413007041 21.87118852666358 22.0
  endloop
endfacet
facet normal 0.965925826289068 0.25881904510252157 0.0
  outer loop
    vertex 27.70311956434774 21.22414091390728 -7.049916206369744e-15
    vertex 27.952870620609314 20.621188526663577 22.0
    vertex 27.952870620609314 20.621188526663577 -7.049916206369744e-15
  endloop
endfacet
facet normal 0.8660254037844384 0.5000000000000004 0.0
  outer loop
    vertex 27.952870620609314 20.621188526663577 22.0
    vertex 27.70311956434774 21.22414091390728 -7.049916206369744e-15
    vertex 27.70311956434774 21.22414091390728 22.0
  endloop
endfacet
facet normal 0.8660254037844384 0.5000000000000004 0.0
  outer loop
    vertex 27.952870620609314 20.621188526663577 -7.049916206369744e-15
    vertex 28.35016717710404 20.10342157369721 22.0
    vertex 28.35016717710404 20.10342157369721 -7.049916206369744e-15
  endloop
endfacet
facet normal 0.7071067811865499 0.7071067811865451 0.0
  outer loop
    vertex 28.35016717710404 20.10342157369721 22.0
    vertex 27.952870620609314 20.621188526663577 -7.049916206369744e-15
    vertex 27.952870620609314 20.621188526663577 22.0
  endloop
endfacet
facet normal 0.7071067811865499 0.7071067811865451 0.0
  outer loop
    vertex 28.35016717710404 20.10342157369721 22.0
    vertex 28.867934130070406 19.70612501720248 -7.049916206369744e-15
    vertex 28.35016717710404 20.10342157369721 -7.049916206369744e-15
  endloop
endfacet
facet normal 0.4999999999999965 0.8660254037844406 0.0
  outer loop
    vertex 28.867934130070406 19.70612501720248 -7.049916206369744e-15
    vertex 28.35016717710404 20.10342157369721 22.0
    vertex 28.867934130070406 19.70612501720248 22.0
  endloop
endfacet
facet normal 0.4999999999999965 0.8660254037844406 0.0
  outer loop
    vertex 28.867934130070406 19.70612501720248 22.0
    vertex 29.47088651731411 19.45637396094092 -7.049916206369744e-15
    vertex 28.867934130070406 19.70612501720248 -7.049916206369744e-15
  endloop
endfacet
facet normal 0.25881904510251386 0.9659258262890701 0.0
  outer loop
    vertex 29.47088651731411 19.45637396094092 -7.049916206369744e-15
    vertex 28.867934130070406 19.70612501720248 22.0
    vertex 29.47088651731411 19.45637396094092 22.0
  endloop
endfacet
facet normal 0.25881904510251386 0.9659258262890701 0.0
  outer loop
    vertex 29.47088651731411 19.45637396094092 22.0
    vertex 30.11793413007041 19.371188526663584 -7.049916206369744e-15
    vertex 29.47088651731411 19.45637396094092 -7.049916206369744e-15
  endloop
endfacet
facet normal 0.13052619222005613 0.9914448613738099 0.0
  outer loop
    vertex 30.11793413007041 19.371188526663584 -7.049916206369744e-15
    vertex 29.47088651731411 19.45637396094092 22.0
    vertex 30.11793413007041 19.371188526663584 22.0
  endloop
endfacet
facet normal -0.13052619222005518 0.9914448613738099 -0.0
  outer loop
    vertex 30.11793413007041 19.371188526663584 22.0
    vertex 30.420359050910665 19.411003522824878 -7.049916206369744e-15
    vertex 30.11793413007041 19.371188526663584 -7.049916206369744e-15
  endloop
endfacet
facet normal -0.13052619222005518 0.9914448613738099 -0.0
  outer loop
    vertex 30.420359050910665 19.411003522824878 -7.049916206369744e-15
    vertex 30.11793413007041 19.371188526663584 22.0
    vertex 30.420359050910665 19.411003522824878 22.0
  endloop
endfacet
facet normal -0.13052619222005693 0.9914448613738097 -0.0
  outer loop
    vertex 30.420359050910665 19.411003522824878 22.0
    vertex 30.764981742826713 19.45637396094092 -7.049916206369744e-15
    vertex 30.420359050910665 19.411003522824878 -7.049916206369744e-15
  endloop
endfacet
facet normal -0.25881904510251585 0.9659258262890696 0.0
  outer loop
    vertex 30.764981742826713 19.45637396094092 -7.049916206369744e-15
    vertex 30.420359050910665 19.411003522824878 22.0
    vertex 30.764981742826713 19.45637396094092 22.0
  endloop
endfacet
facet normal -0.25881904510251585 0.9659258262890696 0.0
  outer loop
    vertex 30.764981742826713 19.45637396094092 22.0
    vertex 31.367934130070406 19.70612501720248 -7.049916206369744e-15
    vertex 30.764981742826713 19.45637396094092 -7.049916206369744e-15
  endloop
endfacet
facet normal -0.4999999999999957 0.8660254037844413 0.0
  outer loop
    vertex 31.367934130070406 19.70612501720248 -7.049916206369744e-15
    vertex 30.764981742826713 19.45637396094092 22.0
    vertex 31.367934130070406 19.70612501720248 22.0
  endloop
endfacet
facet normal -0.4999999999999957 0.8660254037844413 0.0
  outer loop
    vertex 31.367934130070406 19.70612501720248 22.0
    vertex 31.88570108303678 20.10342157369721 -7.049916206369744e-15
    vertex 31.367934130070406 19.70612501720248 -7.049916206369744e-15
  endloop
endfacet
facet normal -0.7071067811865481 0.707106781186547 0.0
  outer loop
    vertex 31.88570108303678 20.10342157369721 -7.049916206369744e-15
    vertex 31.367934130070406 19.70612501720248 22.0
    vertex 31.88570108303678 20.10342157369721 22.0
  endloop
endfacet
facet normal -0.8660254037844384 0.5000000000000004 0.0
  outer loop
    vertex 32.28299763953151 20.621188526663577 22.0
    vertex 31.88570108303678 20.10342157369721 -7.049916206369744e-15
    vertex 31.88570108303678 20.10342157369721 22.0
  endloop
endfacet
facet normal -0.7071067811865481 0.707106781186547 0.0
  outer loop
    vertex 31.88570108303678 20.10342157369721 -7.049916206369744e-15
    vertex 32.28299763953151 20.621188526663577 22.0
    vertex 32.28299763953151 20.621188526663577 -7.049916206369744e-15
  endloop
endfacet
facet normal -0.9659258262890692 0.2588190451025175 0.0
  outer loop
    vertex 32.53274869579308 21.22414091390728 22.0
    vertex 32.28299763953151 20.621188526663577 -7.049916206369744e-15
    vertex 32.28299763953151 20.621188526663577 22.0
  endloop
endfacet
facet normal -0.8660254037844384 0.5000000000000004 0.0
  outer loop
    vertex 32.28299763953151 20.621188526663577 -7.049916206369744e-15
    vertex 32.53274869579308 21.22414091390728 22.0
    vertex 32.53274869579308 21.22414091390728 -7.049916206369744e-15
  endloop
endfacet
facet normal -0.9914448613738109 0.13052619222004763 -0.0
  outer loop
    vertex 32.6179341300704 21.87118852666358 22.0
    vertex 32.53274869579308 21.22414091390728 -7.049916206369744e-15
    vertex 32.53274869579308 21.22414091390728 22.0
  endloop
endfacet
facet normal -0.9659258262890692 0.2588190451025175 0.0
  outer loop
    vertex 32.53274869579308 21.22414091390728 -7.049916206369744e-15
    vertex 32.6179341300704 21.87118852666358 22.0
    vertex 32.6179341300704 21.87118852666358 -7.049916206369744e-15
  endloop
endfacet
endsolid Pluggable-Normal
