solid PlugEnds
facet normal -0.7933533402912314 -0.6087614290087255 0.0
  outer loop
    vertex 55.66987298107778 -2.5000000000000004 22.0
    vertex 56.46446609406725 -3.5355339059327386 0.0
    vertex 56.46446609406725 -3.5355339059327386 22.0
  endloop
endfacet
facet normal -0.7933533402912314 -0.6087614290087255 0.0
  outer loop
    vertex 56.46446609406725 -3.5355339059327386 0.0
    vertex 55.66987298107778 -2.5000000000000004 22.0
    vertex 55.66987298107778 -2.5000000000000004 0.0
  endloop
endfacet
facet normal -1.4648350356583139e-31 2.344141883796454e-31 1.0
  outer loop
    vertex -27.815509209230136 -14.0 22.0
    vertex -23.737692205301858 -4.7850399317772245 22.0
    vertex -27.815509209230136 -2.2101152741557346 22.0
  endloop
endfacet
facet normal -1.4648350356583139e-31 2.344141883796454e-31 1.0
  outer loop
    vertex -23.737692205301858 -4.7850399317772245 22.0
    vertex -27.815509209230136 -14.0 22.0
    vertex -22.405097924665903 -5.337018555957456 22.0
  endloop
endfacet
facet normal -1.4648350356583139e-31 2.344141883796454e-31 1.0
  outer loop
    vertex -22.405097924665903 -5.337018555957456 22.0
    vertex -27.815509209230136 -14.0 22.0
    vertex 1.0502400727821801 -14.0 22.0
  endloop
endfacet
facet normal -1.4648350356583139e-31 2.344141883796454e-31 1.0
  outer loop
    vertex -27.815509209230136 -2.2101152741557346 22.0
    vertex -23.737692205301858 -4.7850399317772245 22.0
    vertex -24.88201685650592 -3.906968743898751 22.0
  endloop
endfacet
facet normal -1.4648350356583139e-31 2.344141883796454e-31 1.0
  outer loop
    vertex -27.815509209230136 -2.2101152741557346 22.0
    vertex -24.88201685650592 -3.906968743898751 22.0
    vertex -26.58948360709969 -2.2101152741557346 22.0
  endloop
endfacet
facet normal -1.4648350356583139e-31 2.344141883796454e-31 1.0
  outer loop
    vertex -26.58948360709969 -2.2101152741557346 22.0
    vertex -24.88201685650592 -3.906968743898751 22.0
    vertex -25.760088044384396 -2.7626440926946993 22.0
  endloop
endfacet
facet normal -1.4648350356583139e-31 2.344141883796454e-31 1.0
  outer loop
    vertex -22.405097924665903 -5.337018555957456 22.0
    vertex 1.0502400727821801 -14.0 22.0
    vertex -20.97504811260717 -5.525288185389359 22.0
  endloop
endfacet
facet normal -1.4648350356583139e-31 2.344141883796454e-31 1.0
  outer loop
    vertex -20.97504811260717 -5.525288185389359 22.0
    vertex 1.0502400727821801 -14.0 22.0
    vertex -19.54499830054846 -5.337018555957456 22.0
  endloop
endfacet
facet normal -1.4648350356583139e-31 2.344141883796454e-31 1.0
  outer loop
    vertex -19.54499830054846 -5.337018555957456 22.0
    vertex 1.0502400727821801 -14.0 22.0
    vertex -18.21240401991249 -4.7850399317772245 22.0
  endloop
endfacet
facet normal -1.4648350356583139e-31 2.344141883796454e-31 1.0
  outer loop
    vertex -18.21240401991249 -4.7850399317772245 22.0
    vertex 1.0502400727821801 -14.0 22.0
    vertex -17.068079368708442 -3.906968743898751 22.0
  endloop
endfacet
facet normal -1.4648350356583139e-31 2.344141883796454e-31 1.0
  outer loop
    vertex -17.068079368708442 -3.906968743898751 22.0
    vertex 1.0502400727821801 -14.0 22.0
    vertex -16.190008180829974 -2.7626440926946993 22.0
  endloop
endfacet
facet normal -1.4648350356583139e-31 2.344141883796454e-31 1.0
  outer loop
    vertex -16.190008180829974 -2.7626440926946993 22.0
    vertex 1.0502400727821801 -14.0 22.0
    vertex -15.638029556649736 -1.4300498120587188 22.0
  endloop
endfacet
facet normal -1.4648350356583139e-31 2.344141883796454e-31 1.0
  outer loop
    vertex -15.638029556649736 -1.4300498120587188 22.0
    vertex 1.0502400727821801 -14.0 22.0
    vertex -15.449759927217817 -1.6919798895287383e-14 22.0
  endloop
endfacet
facet normal -1.4648350356583139e-31 2.344141883796454e-31 1.0
  outer loop
    vertex -26.58948360709969 2.2101152741557293 22.0
    vertex -27.815509209230136 14.0 22.0
    vertex -27.815509209230136 2.210115274155731 22.0
  endloop
endfacet
facet normal -1.4648350356583139e-31 2.344141883796454e-31 1.0
  outer loop
    vertex -27.815509209230136 14.0 22.0
    vertex -26.58948360709969 2.2101152741557293 22.0
    vertex -24.882016856505903 3.9069687438987373 22.0
  endloop
endfacet
facet normal -1.4648350356583139e-31 2.344141883796454e-31 1.0
  outer loop
    vertex -27.815509209230136 14.0 22.0
    vertex -24.882016856505903 3.9069687438987373 22.0
    vertex -23.737692205301848 4.785039931777198 22.0
  endloop
endfacet
facet normal -1.4648350356583139e-31 2.344141883796454e-31 1.0
  outer loop
    vertex -27.815509209230136 14.0 22.0
    vertex -23.737692205301848 4.785039931777198 22.0
    vertex -22.405097924665892 5.337018555957435 22.0
  endloop
endfacet
facet normal -1.4648350356583139e-31 2.344141883796454e-31 1.0
  outer loop
    vertex -27.815509209230136 14.0 22.0
    vertex -22.405097924665892 5.337018555957435 22.0
    vertex 1.0502400727821808 14.0 22.0
  endloop
endfacet
facet normal -1.4648350356583139e-31 2.344141883796454e-31 1.0
  outer loop
    vertex -24.882016856505903 3.9069687438987373 22.0
    vertex -26.58948360709969 2.2101152741557293 22.0
    vertex -25.760088044384396 2.7626440926946882 22.0
  endloop
endfacet
facet normal -1.4648350356583139e-31 2.344141883796454e-31 1.0
  outer loop
    vertex -24.882016856505903 3.9069687438987373 22.0
    vertex -25.760088044384396 2.7626440926946882 22.0
    vertex -25.585205686317853 2.990555218989283 22.0
  endloop
endfacet
facet normal -1.4648350356583139e-31 2.344141883796454e-31 1.0
  outer loop
    vertex -24.882016856505903 3.9069687438987373 22.0
    vertex -25.585205686317853 2.990555218989283 22.0
    vertex -25.320747011822778 3.3352044736592132 22.0
  endloop
endfacet
facet normal -1.4648350356583139e-31 2.344141883796454e-31 1.0
  outer loop
    vertex -25.320747011822778 3.3352044736592132 22.0
    vertex -25.585205686317853 2.990555218989283 22.0
    vertex -25.39665362196995 3.192586191245585 22.0
  endloop
endfacet
facet normal -1.4648350356583139e-31 2.344141883796454e-31 1.0
  outer loop
    vertex 1.0502400727821808 14.0 22.0
    vertex -22.405097924665892 5.337018555957435 22.0
    vertex -20.97504811260717 5.525288185389355 22.0
  endloop
endfacet
facet normal -1.4648350356583139e-31 2.344141883796454e-31 1.0
  outer loop
    vertex 1.0502400727821808 14.0 22.0
    vertex -20.97504811260717 5.525288185389355 22.0
    vertex -19.54499830054846 5.337018555957435 22.0
  endloop
endfacet
facet normal -1.4648350356583139e-31 2.344141883796454e-31 1.0
  outer loop
    vertex 1.0502400727821808 14.0 22.0
    vertex -19.54499830054846 5.337018555957435 22.0
    vertex -18.21240401991249 4.785039931777193 22.0
  endloop
endfacet
facet normal -1.4648350356583139e-31 2.344141883796454e-31 1.0
  outer loop
    vertex 1.0502400727821808 14.0 22.0
    vertex -18.21240401991249 4.785039931777193 22.0
    vertex -17.068079368708442 3.9069687438987315 22.0
  endloop
endfacet
facet normal -1.4648350356583139e-31 2.344141883796454e-31 1.0
  outer loop
    vertex 1.0502400727821808 14.0 22.0
    vertex -17.068079368708442 3.9069687438987315 22.0
    vertex -16.190008180829974 2.7626440926946825 22.0
  endloop
endfacet
facet normal -1.4648350356583139e-31 2.344141883796454e-31 1.0
  outer loop
    vertex 1.0502400727821808 14.0 22.0
    vertex -16.190008180829974 2.7626440926946825 22.0
    vertex -15.638029556649736 1.430049812058708 22.0
  endloop
endfacet
facet normal -1.4648350356583139e-31 2.344141883796454e-31 1.0
  outer loop
    vertex 1.0502400727821808 14.0 22.0
    vertex -15.638029556649736 1.430049812058708 22.0
    vertex -15.449759927217817 -1.6919798895287383e-14 22.0
  endloop
endfacet
facet normal -1.4648350356583139e-31 2.344141883796454e-31 1.0
  outer loop
    vertex 1.0502400727821808 14.0 22.0
    vertex -15.449759927217817 -1.6919798895287383e-14 22.0
    vertex 1.0502400727821801 -14.0 22.0
  endloop
endfacet
facet normal -2.414910699860256e-16 -1.0 0.0
  outer loop
    vertex 54.919327910045574 -1.9999999999999998 22.0
    vertex 51.99999999999999 -1.9999999999999991 0.0
    vertex 54.919327910045574 -1.9999999999999998 0.0
  endloop
endfacet
facet normal -2.414910699860256e-16 -1.0 0.0
  outer loop
    vertex 51.99999999999999 -1.9999999999999991 0.0
    vertex 54.919327910045574 -1.9999999999999998 22.0
    vertex 51.99999999999999 -1.9999999999999991 22.0
  endloop
endfacet
facet normal 0.5544212121814613 0.8322362161569508 0.0
  outer loop
    vertex -26.58948360709969 -2.2101152741557346 22.0
    vertex -25.760088044384396 -2.7626440926946993 0.0
    vertex -26.58948360709969 -2.2101152741557346 0.0
  endloop
endfacet
facet normal 0.5544212121814613 0.8322362161569508 0.0
  outer loop
    vertex -25.760088044384396 -2.7626440926946993 0.0
    vertex -26.58948360709969 -2.2101152741557346 22.0
    vertex -25.760088044384396 -2.7626440926946993 22.0
  endloop
endfacet
facet normal 0.6087614290087152 0.7933533402912393 0.0
  outer loop
    vertex -24.88201685650592 -3.906968743898751 22.0
    vertex -23.737692205301858 -4.7850399317772245 0.0
    vertex -24.88201685650592 -3.906968743898751 0.0
  endloop
endfacet
facet normal 0.6087614290087152 0.7933533402912393 0.0
  outer loop
    vertex -23.737692205301858 -4.7850399317772245 0.0
    vertex -24.88201685650592 -3.906968743898751 22.0
    vertex -23.737692205301858 -4.7850399317772245 22.0
  endloop
endfacet
facet normal 0.13052619222004125 0.9914448613738117 0.0
  outer loop
    vertex -22.405097924665903 -5.337018555957456 22.0
    vertex -20.97504811260717 -5.525288185389359 0.0
    vertex -22.405097924665903 -5.337018555957456 0.0
  endloop
endfacet
facet normal 0.13052619222004125 0.9914448613738117 0.0
  outer loop
    vertex -20.97504811260717 -5.525288185389359 0.0
    vertex -22.405097924665903 -5.337018555957456 22.0
    vertex -20.97504811260717 -5.525288185389359 22.0
  endloop
endfacet
facet normal -0.38268343236508645 0.9238795325112881 0.0
  outer loop
    vertex -19.54499830054846 -5.337018555957456 22.0
    vertex -18.21240401991249 -4.7850399317772245 0.0
    vertex -19.54499830054846 -5.337018555957456 0.0
  endloop
endfacet
facet normal -0.38268343236508645 0.9238795325112881 0.0
  outer loop
    vertex -18.21240401991249 -4.7850399317772245 0.0
    vertex -19.54499830054846 -5.337018555957456 22.0
    vertex -18.21240401991249 -4.7850399317772245 22.0
  endloop
endfacet
facet normal -0.793353340291238 0.6087614290087168 0.0
  outer loop
    vertex -16.190008180829974 -2.7626440926946993 22.0
    vertex -17.068079368708442 -3.906968743898751 0.0
    vertex -17.068079368708442 -3.906968743898751 22.0
  endloop
endfacet
facet normal -0.793353340291238 0.6087614290087168 0.0
  outer loop
    vertex -17.068079368708442 -3.906968743898751 0.0
    vertex -16.190008180829974 -2.7626440926946993 22.0
    vertex -16.190008180829974 -2.7626440926946993 0.0
  endloop
endfacet
facet normal -0.9914448613738103 0.13052619222005366 0.0
  outer loop
    vertex -15.449759927217817 -1.6919798895287383e-14 22.0
    vertex -15.638029556649736 -1.4300498120587188 0.0
    vertex -15.638029556649736 -1.4300498120587188 22.0
  endloop
endfacet
facet normal -0.9914448613738103 0.13052619222005366 0.0
  outer loop
    vertex -15.638029556649736 -1.4300498120587188 0.0
    vertex -15.449759927217817 -1.6919798895287383e-14 22.0
    vertex -15.449759927217817 -1.6919798895287383e-14 0.0
  endloop
endfacet
facet normal 0.3826834323650892 0.923879532511287 0.0
  outer loop
    vertex -23.737692205301858 -4.7850399317772245 22.0
    vertex -22.405097924665903 -5.337018555957456 0.0
    vertex -23.737692205301858 -4.7850399317772245 0.0
  endloop
endfacet
facet normal 0.3826834323650892 0.923879532511287 0.0
  outer loop
    vertex -22.405097924665903 -5.337018555957456 0.0
    vertex -23.737692205301858 -4.7850399317772245 22.0
    vertex -22.405097924665903 -5.337018555957456 22.0
  endloop
endfacet
facet normal -0.9914448613738105 -0.1305261922200516 -0.0
  outer loop
    vertex -15.638029556649736 1.430049812058708 22.0
    vertex -15.449759927217817 -1.6919798895287383e-14 0.0
    vertex -15.449759927217817 -1.6919798895287383e-14 22.0
  endloop
endfacet
facet normal -0.9914448613738105 -0.1305261922200516 -0.0
  outer loop
    vertex -15.449759927217817 -1.6919798895287383e-14 0.0
    vertex -15.638029556649736 1.430049812058708 22.0
    vertex -15.638029556649736 1.430049812058708 0.0
  endloop
endfacet
facet normal -0.9238795325112874 -0.38268343236508845 -0.0
  outer loop
    vertex -16.190008180829974 2.7626440926946825 22.0
    vertex -15.638029556649736 1.430049812058708 0.0
    vertex -15.638029556649736 1.430049812058708 22.0
  endloop
endfacet
facet normal -0.9238795325112874 -0.38268343236508845 -0.0
  outer loop
    vertex -15.638029556649736 1.430049812058708 0.0
    vertex -16.190008180829974 2.7626440926946825 22.0
    vertex -16.190008180829974 2.7626440926946825 0.0
  endloop
endfacet
facet normal -0.7933533402912373 -0.6087614290087179 -0.0
  outer loop
    vertex -17.068079368708442 3.9069687438987315 22.0
    vertex -16.190008180829974 2.7626440926946825 0.0
    vertex -16.190008180829974 2.7626440926946825 22.0
  endloop
endfacet
facet normal -0.7933533402912373 -0.6087614290087179 -0.0
  outer loop
    vertex -16.190008180829974 2.7626440926946825 0.0
    vertex -17.068079368708442 3.9069687438987315 22.0
    vertex -17.068079368708442 3.9069687438987315 0.0
  endloop
endfacet
facet normal -0.923879532511288 0.38268343236508706 0.0
  outer loop
    vertex -15.638029556649736 -1.4300498120587188 22.0
    vertex -16.190008180829974 -2.7626440926946993 0.0
    vertex -16.190008180829974 -2.7626440926946993 22.0
  endloop
endfacet
facet normal -0.923879532511288 0.38268343236508706 0.0
  outer loop
    vertex -16.190008180829974 -2.7626440926946993 0.0
    vertex -15.638029556649736 -1.4300498120587188 22.0
    vertex -15.638029556649736 -1.4300498120587188 0.0
  endloop
endfacet
facet normal -0.6087614290087136 -0.7933533402912407 -0.0
  outer loop
    vertex -17.068079368708442 3.9069687438987315 22.0
    vertex -18.21240401991249 4.785039931777193 0.0
    vertex -17.068079368708442 3.9069687438987315 0.0
  endloop
endfacet
facet normal -0.6087614290087136 -0.7933533402912407 -0.0
  outer loop
    vertex -18.21240401991249 4.785039931777193 0.0
    vertex -17.068079368708442 3.9069687438987315 22.0
    vertex -18.21240401991249 4.785039931777193 22.0
  endloop
endfacet
facet normal -0.3826834323650931 -0.9238795325112853 -0.0
  outer loop
    vertex -18.21240401991249 4.785039931777193 22.0
    vertex -19.54499830054846 5.337018555957435 0.0
    vertex -18.21240401991249 4.785039931777193 0.0
  endloop
endfacet
facet normal -0.3826834323650931 -0.9238795325112853 -0.0
  outer loop
    vertex -19.54499830054846 5.337018555957435 0.0
    vertex -18.21240401991249 4.785039931777193 22.0
    vertex -19.54499830054846 5.337018555957435 22.0
  endloop
endfacet
facet normal -0.13052619222005504 -0.9914448613738099 -0.0
  outer loop
    vertex -19.54499830054846 5.337018555957435 22.0
    vertex -20.97504811260717 5.525288185389355 0.0
    vertex -19.54499830054846 5.337018555957435 0.0
  endloop
endfacet
facet normal -0.13052619222005504 -0.9914448613738099 -0.0
  outer loop
    vertex -20.97504811260717 5.525288185389355 0.0
    vertex -19.54499830054846 5.337018555957435 22.0
    vertex -20.97504811260717 5.525288185389355 22.0
  endloop
endfacet
facet normal -0.13052619222004352 0.9914448613738115 0.0
  outer loop
    vertex -20.97504811260717 -5.525288185389359 22.0
    vertex -19.54499830054846 -5.337018555957456 0.0
    vertex -20.97504811260717 -5.525288185389359 0.0
  endloop
endfacet
facet normal -0.13052619222004352 0.9914448613738115 0.0
  outer loop
    vertex -19.54499830054846 -5.337018555957456 0.0
    vertex -20.97504811260717 -5.525288185389359 22.0
    vertex -19.54499830054846 -5.337018555957456 22.0
  endloop
endfacet
facet normal 0.0 0.0 -1.0
  outer loop
    vertex 54.919327910045574 1.9999999999999991 0.0
    vertex 51.99999999999999 -1.9999999999999991 0.0
    vertex 51.99999999999999 2.0000000000000004 0.0
  endloop
endfacet
facet normal 0.0 0.0 -1.0
  outer loop
    vertex 51.99999999999999 -1.9999999999999991 0.0
    vertex 54.919327910045574 1.9999999999999991 0.0
    vertex 54.919327910045574 -1.9999999999999998 0.0
  endloop
endfacet
facet normal 0.0 0.0 -1.0
  outer loop
    vertex 54.919327910045574 -1.9999999999999998 0.0
    vertex 54.919327910045574 1.9999999999999991 0.0
    vertex 55.66987298107778 2.500000000000004 0.0
  endloop
endfacet
facet normal 0.0 0.0 -1.0
  outer loop
    vertex 54.919327910045574 -1.9999999999999998 0.0
    vertex 55.66987298107778 2.500000000000004 0.0
    vertex 55.66987298107778 -2.5000000000000004 0.0
  endloop
endfacet
facet normal 0.0 0.0 -1.0
  outer loop
    vertex 55.66987298107778 -2.5000000000000004 0.0
    vertex 55.66987298107778 2.500000000000004 0.0
    vertex 55.82812930382397 2.706243655215387 0.0
  endloop
endfacet
facet normal 0.0 0.0 -1.0
  outer loop
    vertex 55.66987298107778 -2.5000000000000004 0.0
    vertex 55.82812930382397 2.706243655215387 0.0
    vertex 56.46446609406725 -3.5355339059327386 0.0
  endloop
endfacet
facet normal 0.0 0.0 -1.0
  outer loop
    vertex 56.46446609406725 -3.5355339059327386 0.0
    vertex 55.82812930382397 2.706243655215387 0.0
    vertex 55.998755756256344 2.8890675781290596 0.0
  endloop
endfacet
facet normal 0.0 0.0 -1.0
  outer loop
    vertex 56.46446609406725 -3.5355339059327386 0.0
    vertex 55.998755756256344 2.8890675781290596 0.0
    vertex 56.06744593819825 3.018127165274898 0.0
  endloop
endfacet
facet normal 0.0 0.0 -1.0
  outer loop
    vertex 56.46446609406725 -3.5355339059327386 0.0
    vertex 56.06744593819825 3.018127165274898 0.0
    vertex 56.46446609406725 3.535533905932741 0.0
  endloop
endfacet
facet normal 0.0 0.0 -1.0
  outer loop
    vertex 56.46446609406725 -3.5355339059327386 0.0
    vertex 56.46446609406725 3.535533905932741 0.0
    vertex 57.49999999999999 4.330127018922197 0.0
  endloop
endfacet
facet normal 0.0 0.0 -1.0
  outer loop
    vertex 56.46446609406725 -3.5355339059327386 0.0
    vertex 57.49999999999999 4.330127018922197 0.0
    vertex 57.49999999999997 -4.330127018922195 0.0
  endloop
endfacet
facet normal 0.0 0.0 -1.0
  outer loop
    vertex 57.49999999999997 -4.330127018922195 0.0
    vertex 57.49999999999999 4.330127018922197 0.0
    vertex 58.705904774487365 -4.829629131445343 0.0
  endloop
endfacet
facet normal 0.0 0.0 -1.0
  outer loop
    vertex 58.705904774487365 -4.829629131445343 0.0
    vertex 57.49999999999999 4.330127018922197 0.0
    vertex 58.70590477448739 4.829629131445343 0.0
  endloop
endfacet
facet normal 0.0 0.0 -1.0
  outer loop
    vertex 58.705904774487365 -4.829629131445343 0.0
    vertex 58.70590477448739 4.829629131445343 0.0
    vertex 59.99999999999999 -5.000000000000002 0.0
  endloop
endfacet
facet normal 0.0 0.0 -1.0
  outer loop
    vertex 59.99999999999999 -5.000000000000002 0.0
    vertex 58.70590477448739 4.829629131445343 0.0
    vertex 59.99999999999999 5.000000000000002 0.0
  endloop
endfacet
facet normal 0.0 0.0 -1.0
  outer loop
    vertex 59.99999999999999 -5.000000000000002 0.0
    vertex 59.99999999999999 5.000000000000002 0.0
    vertex 61.29409522551259 4.829629131445343 0.0
  endloop
endfacet
facet normal 0.0 0.0 -1.0
  outer loop
    vertex 59.99999999999999 -5.000000000000002 0.0
    vertex 61.29409522551259 4.829629131445343 0.0
    vertex 61.29409522551259 -4.829629131445343 0.0
  endloop
endfacet
facet normal 0.0 0.0 -1.0
  outer loop
    vertex 61.29409522551259 -4.829629131445343 0.0
    vertex 61.29409522551259 4.829629131445343 0.0
    vertex 62.499999999999986 4.330127018922193 0.0
  endloop
endfacet
facet normal 0.0 0.0 -1.0
  outer loop
    vertex 61.29409522551259 -4.829629131445343 0.0
    vertex 62.499999999999986 4.330127018922193 0.0
    vertex 62.499999999999986 -4.330127018922195 0.0
  endloop
endfacet
facet normal 0.0 0.0 -1.0
  outer loop
    vertex 62.499999999999986 -4.330127018922195 0.0
    vertex 62.499999999999986 4.330127018922193 0.0
    vertex 63.535533905932716 3.535533905932738 0.0
  endloop
endfacet
facet normal 0.0 0.0 -1.0
  outer loop
    vertex 62.499999999999986 -4.330127018922195 0.0
    vertex 63.535533905932716 3.535533905932738 0.0
    vertex 63.535533905932716 -3.5355339059327395 0.0
  endloop
endfacet
facet normal 0.0 0.0 -1.0
  outer loop
    vertex 63.535533905932716 -3.5355339059327395 0.0
    vertex 63.535533905932716 3.535533905932738 0.0
    vertex 64.33012701892218 2.4999999999999996 0.0
  endloop
endfacet
facet normal 0.0 0.0 -1.0
  outer loop
    vertex 63.535533905932716 -3.5355339059327395 0.0
    vertex 64.33012701892218 2.4999999999999996 0.0
    vertex 64.33012701892218 -2.500000000000003 0.0
  endloop
endfacet
facet normal 0.0 0.0 -1.0
  outer loop
    vertex 64.33012701892218 -2.500000000000003 0.0
    vertex 64.33012701892218 2.4999999999999996 0.0
    vertex 64.82962913144532 1.2940952255126026 0.0
  endloop
endfacet
facet normal 0.0 0.0 -1.0
  outer loop
    vertex 64.33012701892218 -2.500000000000003 0.0
    vertex 64.82962913144532 1.2940952255126026 0.0
    vertex 64.82962913144532 -1.2940952255126061 0.0
  endloop
endfacet
facet normal 0.0 0.0 -1.0
  outer loop
    vertex 64.82962913144532 -1.2940952255126061 0.0
    vertex 64.82962913144532 1.2940952255126026 0.0
    vertex 64.99999999999999 -1.4099832412739487e-15 0.0
  endloop
endfacet
facet normal 0.0 0.0 -1.0
  outer loop
    vertex 51.99999999999999 14.0 0.0
    vertex 32.05024007278218 -14.0 0.0
    vertex 32.05024007278218 14.0 0.0
  endloop
endfacet
facet normal 0.0 0.0 -1.0
  outer loop
    vertex 32.05024007278218 -14.0 0.0
    vertex 51.99999999999999 14.0 0.0
    vertex 51.99999999999999 -14.0 0.0
  endloop
endfacet
facet normal 0.0 0.0 -1.0
  outer loop
    vertex 51.99999999999999 -14.0 0.0
    vertex 51.99999999999999 14.0 0.0
    vertex 51.99999999999999 2.0000000000000004 0.0
  endloop
endfacet
facet normal 0.0 0.0 -1.0
  outer loop
    vertex 51.99999999999999 -14.0 0.0
    vertex 51.99999999999999 2.0000000000000004 0.0
    vertex 51.99999999999999 -1.9999999999999991 0.0
  endloop
endfacet
facet normal -0.5544212121814422 -0.8322362161569636 0.0
  outer loop
    vertex 55.66987298107778 -2.5000000000000004 22.0
    vertex 54.919327910045574 -1.9999999999999998 0.0
    vertex 55.66987298107778 -2.5000000000000004 0.0
  endloop
endfacet
facet normal -0.5544212121814422 -0.8322362161569636 0.0
  outer loop
    vertex 54.919327910045574 -1.9999999999999998 0.0
    vertex 55.66987298107778 -2.5000000000000004 22.0
    vertex 54.919327910045574 -1.9999999999999998 22.0
  endloop
endfacet
facet normal 1.0 -0.0 -0.0
  outer loop
    vertex 51.99999999999999 -1.9999999999999991 0.0
    vertex 51.99999999999999 -14.0 22.0
    vertex 51.99999999999999 -14.0 0.0
  endloop
endfacet
facet normal 1.0 -0.0 -0.0
  outer loop
    vertex 51.99999999999999 -14.0 22.0
    vertex 51.99999999999999 -1.9999999999999991 0.0
    vertex 51.99999999999999 -1.9999999999999991 22.0
  endloop
endfacet
facet normal 0.0 -1.0 0.0
  outer loop
    vertex 51.99999999999999 -14.0 22.0
    vertex 32.05024007278218 -14.0 0.0
    vertex 51.99999999999999 -14.0 0.0
  endloop
endfacet
facet normal 0.0 -1.0 0.0
  outer loop
    vertex 32.05024007278218 -14.0 0.0
    vertex 51.99999999999999 -14.0 22.0
    vertex 32.05024007278218 -14.0 22.0
  endloop
endfacet
facet normal -0.0 1.0 -0.0
  outer loop
    vertex -27.815509209230136 -2.2101152741557346 22.0
    vertex -26.58948360709969 -2.2101152741557346 0.0
    vertex -27.815509209230136 -2.2101152741557346 -1.4099832412739487e-15
  endloop
endfacet
facet normal -0.0 1.0 -0.0
  outer loop
    vertex -26.58948360709969 -2.2101152741557346 0.0
    vertex -27.815509209230136 -2.2101152741557346 22.0
    vertex -26.58948360709969 -2.2101152741557346 22.0
  endloop
endfacet
facet normal 0.7933533402912363 0.6087614290087193 0.0
  outer loop
    vertex -25.760088044384396 -2.7626440926946993 0.0
    vertex -24.88201685650592 -3.906968743898751 22.0
    vertex -24.88201685650592 -3.906968743898751 0.0
  endloop
endfacet
facet normal 0.7933533402912363 0.6087614290087193 0.0
  outer loop
    vertex -24.88201685650592 -3.906968743898751 22.0
    vertex -25.760088044384396 -2.7626440926946993 0.0
    vertex -25.760088044384396 -2.7626440926946993 22.0
  endloop
endfacet
facet normal -0.608761429008719 0.7933533402912364 0.0
  outer loop
    vertex -18.21240401991249 -4.7850399317772245 22.0
    vertex -17.068079368708442 -3.906968743898751 0.0
    vertex -18.21240401991249 -4.7850399317772245 0.0
  endloop
endfacet
facet normal -0.608761429008719 0.7933533402912364 0.0
  outer loop
    vertex -17.068079368708442 -3.906968743898751 0.0
    vertex -18.21240401991249 -4.7850399317772245 22.0
    vertex -17.068079368708442 -3.906968743898751 22.0
  endloop
endfacet
facet normal -0.5544212121814455 0.8322362161569614 -0.0
  outer loop
    vertex 54.919327910045574 1.9999999999999991 22.0
    vertex 55.66987298107778 2.500000000000004 0.0
    vertex 54.919327910045574 1.9999999999999991 0.0
  endloop
endfacet
facet normal -0.5544212121814455 0.8322362161569614 -0.0
  outer loop
    vertex 55.66987298107778 2.500000000000004 0.0
    vertex 54.919327910045574 1.9999999999999991 22.0
    vertex 55.66987298107778 2.500000000000004 22.0
  endloop
endfacet
facet normal -0.6087614290087161 0.7933533402912386 -0.0
  outer loop
    vertex 56.46446609406725 3.535533905932741 22.0
    vertex 57.49999999999999 4.330127018922197 0.0
    vertex 56.46446609406725 3.535533905932741 0.0
  endloop
endfacet
facet normal -0.6087614290087161 0.7933533402912386 -0.0
  outer loop
    vertex 57.49999999999999 4.330127018922197 0.0
    vertex 56.46446609406725 3.535533905932741 22.0
    vertex 57.49999999999999 4.330127018922197 22.0
  endloop
endfacet
facet normal -0.7630998163373716 0.6462806436107071 0.0
  outer loop
    vertex 55.82812930382397 2.706243655215387 22.0
    vertex 55.66987298107778 2.500000000000004 0.0
    vertex 55.66987298107778 2.500000000000004 22.0
  endloop
endfacet
facet normal -0.7933533402912301 0.6087614290087274 0.0
  outer loop
    vertex 55.66987298107778 2.500000000000004 0.0
    vertex 55.82812930382397 2.706243655215387 22.0
    vertex 55.82812930382397 2.706243655215387 0.0
  endloop
endfacet
facet normal 0.9238795325112901 0.3826834323650816 -0.0
  outer loop
    vertex 64.33012701892218 2.4999999999999996 0.0
    vertex 64.82962913144532 1.2940952255126026 22.0
    vertex 64.82962913144532 1.2940952255126026 0.0
  endloop
endfacet
facet normal 0.9238795325112901 0.3826834323650816 -0.0
  outer loop
    vertex 64.82962913144532 1.2940952255126026 22.0
    vertex 64.33012701892218 2.4999999999999996 0.0
    vertex 64.33012701892218 2.4999999999999996 22.0
  endloop
endfacet
facet normal 0.9914448613738098 -0.1305261922200559 -0.0
  outer loop
    vertex 64.99999999999999 -1.4099832412739487e-15 0.0
    vertex 64.82962913144532 -1.2940952255126061 22.0
    vertex 64.82962913144532 -1.2940952255126061 0.0
  endloop
endfacet
facet normal 0.9914448613738098 -0.1305261922200559 -0.0
  outer loop
    vertex 64.82962913144532 -1.2940952255126061 22.0
    vertex 64.99999999999999 -1.4099832412739487e-15 0.0
    vertex 64.99999999999999 -1.4099832412739487e-15 22.0
  endloop
endfacet
facet normal 0.7933533402912307 -0.6087614290087264 -0.0
  outer loop
    vertex 64.33012701892218 -2.500000000000003 0.0
    vertex 63.535533905932716 -3.5355339059327395 22.0
    vertex 63.535533905932716 -3.5355339059327395 0.0
  endloop
endfacet
facet normal 0.7933533402912307 -0.6087614290087264 -0.0
  outer loop
    vertex 63.535533905932716 -3.5355339059327395 22.0
    vertex 64.33012701892218 -2.500000000000003 0.0
    vertex 64.33012701892218 -2.500000000000003 22.0
  endloop
endfacet
facet normal 0.6087614290087242 -0.7933533402912325 0.0
  outer loop
    vertex 63.535533905932716 -3.5355339059327395 22.0
    vertex 62.499999999999986 -4.330127018922195 0.0
    vertex 63.535533905932716 -3.5355339059327395 0.0
  endloop
endfacet
facet normal 0.6087614290087242 -0.7933533402912325 0.0
  outer loop
    vertex 62.499999999999986 -4.330127018922195 0.0
    vertex 63.535533905932716 -3.5355339059327395 22.0
    vertex 62.499999999999986 -4.330127018922195 22.0
  endloop
endfacet
facet normal 0.7630998163373577 -0.6462806436107236 0.0
  outer loop
    vertex -25.585205686317853 2.990555218989283 0.0
    vertex -25.760088044384396 2.7626440926946882 22.0
    vertex -25.760088044384396 2.7626440926946882 0.0
  endloop
endfacet
facet normal 0.7933533402912026 -0.6087614290087631 0.0
  outer loop
    vertex -25.760088044384396 2.7626440926946882 22.0
    vertex -25.585205686317853 2.990555218989283 0.0
    vertex -25.585205686317853 2.990555218989283 22.0
  endloop
endfacet
facet normal 0.8827547707011026 -0.46983402899794735 0.0
  outer loop
    vertex -25.320747011822778 3.3352044736592132 0.0
    vertex -25.39665362196995 3.192586191245585 22.0
    vertex -25.39665362196995 3.192586191245585 0.0
  endloop
endfacet
facet normal 0.8138770344843207 -0.5810371526322633 0.0
  outer loop
    vertex -25.39665362196995 3.192586191245585 22.0
    vertex -25.320747011822778 3.3352044736592132 0.0
    vertex -25.320747011822778 3.3352044736592132 22.0
  endloop
endfacet
facet normal -1.4375548508365592e-15 -1.0 -3.594103611754579e-33
  outer loop
    vertex -26.58948360709969 2.2101152741557293 0.0
    vertex -27.815509209230136 2.210115274155731 22.0
    vertex -27.815509209230136 2.210115274155731 -1.4099832412739487e-15
  endloop
endfacet
facet normal -1.4375548508365592e-15 -1.0 -3.594103611754579e-33
  outer loop
    vertex -27.815509209230136 2.210115274155731 22.0
    vertex -26.58948360709969 2.2101152741557293 0.0
    vertex -26.58948360709969 2.2101152741557293 22.0
  endloop
endfacet
facet normal -0.13052619222005185 0.9914448613738105 -0.0
  outer loop
    vertex 58.70590477448739 4.829629131445343 22.0
    vertex 59.99999999999999 5.000000000000002 0.0
    vertex 58.70590477448739 4.829629131445343 0.0
  endloop
endfacet
facet normal -0.13052619222005185 0.9914448613738105 -0.0
  outer loop
    vertex 59.99999999999999 5.000000000000002 0.0
    vertex 58.70590477448739 4.829629131445343 22.0
    vertex 59.99999999999999 5.000000000000002 22.0
  endloop
endfacet
facet normal -0.813877034484321 0.5810371526322626 0.0
  outer loop
    vertex 55.998755756256344 2.8890675781290596 22.0
    vertex 55.82812930382397 2.706243655215387 0.0
    vertex 55.82812930382397 2.706243655215387 22.0
  endloop
endfacet
facet normal -0.7630998163373716 0.6462806436107071 0.0
  outer loop
    vertex 55.82812930382397 2.706243655215387 0.0
    vertex 55.998755756256344 2.8890675781290596 22.0
    vertex 55.998755756256344 2.8890675781290596 0.0
  endloop
endfacet
facet normal 0.13052619222005185 0.9914448613738105 -0.0
  outer loop
    vertex 59.99999999999999 5.000000000000002 22.0
    vertex 61.29409522551259 4.829629131445343 0.0
    vertex 59.99999999999999 5.000000000000002 0.0
  endloop
endfacet
facet normal 0.13052619222005185 0.9914448613738105 -0.0
  outer loop
    vertex 61.29409522551259 4.829629131445343 0.0
    vertex 59.99999999999999 5.000000000000002 22.0
    vertex 61.29409522551259 4.829629131445343 22.0
  endloop
endfacet
facet normal -0.8827547707011041 0.4698340289979445 0.0
  outer loop
    vertex 56.06744593819825 3.018127165274898 22.0
    vertex 55.998755756256344 2.8890675781290596 0.0
    vertex 55.998755756256344 2.8890675781290596 22.0
  endloop
endfacet
facet normal -0.813877034484321 0.5810371526322626 0.0
  outer loop
    vertex 55.998755756256344 2.8890675781290596 0.0
    vertex 56.06744593819825 3.018127165274898 22.0
    vertex 56.06744593819825 3.018127165274898 0.0
  endloop
endfacet
facet normal 0.9914448613738098 0.13052619222005596 -0.0
  outer loop
    vertex 64.82962913144532 1.2940952255126026 0.0
    vertex 64.99999999999999 -1.4099832412739487e-15 22.0
    vertex 64.99999999999999 -1.4099832412739487e-15 0.0
  endloop
endfacet
facet normal 0.9914448613738098 0.13052619222005596 -0.0
  outer loop
    vertex 64.99999999999999 -1.4099832412739487e-15 22.0
    vertex 64.82962913144532 1.2940952255126026 0.0
    vertex 64.82962913144532 1.2940952255126026 22.0
  endloop
endfacet
facet normal 0.793353340291239 -0.6087614290087157 0.0
  outer loop
    vertex -24.882016856505903 3.9069687438987373 0.0
    vertex -25.320747011822778 3.3352044736592132 22.0
    vertex -25.320747011822778 3.3352044736592132 0.0
  endloop
endfacet
facet normal 0.793353340291239 -0.6087614290087157 0.0
  outer loop
    vertex -25.320747011822778 3.3352044736592132 22.0
    vertex -24.882016856505903 3.9069687438987373 0.0
    vertex -24.882016856505903 3.9069687438987373 22.0
  endloop
endfacet
facet normal 0.3826834323650926 -0.9238795325112857 0.0
  outer loop
    vertex -22.405097924665892 5.337018555957435 22.0
    vertex -23.737692205301848 4.785039931777198 0.0
    vertex -22.405097924665892 5.337018555957435 0.0
  endloop
endfacet
facet normal 0.3826834323650926 -0.9238795325112857 0.0
  outer loop
    vertex -23.737692205301848 4.785039931777198 0.0
    vertex -22.405097924665892 5.337018555957435 22.0
    vertex -23.737692205301848 4.785039931777198 22.0
  endloop
endfacet
facet normal 0.1305261922200538 -0.9914448613738102 0.0
  outer loop
    vertex -20.97504811260717 5.525288185389355 22.0
    vertex -22.405097924665892 5.337018555957435 0.0
    vertex -20.97504811260717 5.525288185389355 0.0
  endloop
endfacet
facet normal 0.1305261922200538 -0.9914448613738102 0.0
  outer loop
    vertex -22.405097924665892 5.337018555957435 0.0
    vertex -20.97504811260717 5.525288185389355 22.0
    vertex -22.405097924665892 5.337018555957435 22.0
  endloop
endfacet
facet normal 0.6087614290087116 -0.793353340291242 0.0
  outer loop
    vertex -23.737692205301848 4.785039931777198 22.0
    vertex -24.882016856505903 3.9069687438987373 0.0
    vertex -23.737692205301848 4.785039931777198 0.0
  endloop
endfacet
facet normal 0.6087614290087116 -0.793353340291242 0.0
  outer loop
    vertex -24.882016856505903 3.9069687438987373 0.0
    vertex -23.737692205301848 4.785039931777198 22.0
    vertex -24.882016856505903 3.9069687438987373 22.0
  endloop
endfacet
facet normal 0.8138770344843207 -0.5810371526322633 0.0
  outer loop
    vertex -25.39665362196995 3.192586191245585 0.0
    vertex -25.585205686317853 2.990555218989283 22.0
    vertex -25.585205686317853 2.990555218989283 0.0
  endloop
endfacet
facet normal 0.7630998163373577 -0.6462806436107236 0.0
  outer loop
    vertex -25.585205686317853 2.990555218989283 22.0
    vertex -25.39665362196995 3.192586191245585 0.0
    vertex -25.39665362196995 3.192586191245585 22.0
  endloop
endfacet
facet normal 0.38268343236509206 0.9238795325112857 -0.0
  outer loop
    vertex 61.29409522551259 4.829629131445343 22.0
    vertex 62.499999999999986 4.330127018922193 0.0
    vertex 61.29409522551259 4.829629131445343 0.0
  endloop
endfacet
facet normal 0.38268343236509206 0.9238795325112857 -0.0
  outer loop
    vertex 62.499999999999986 4.330127018922193 0.0
    vertex 61.29409522551259 4.829629131445343 22.0
    vertex 62.499999999999986 4.330127018922193 22.0
  endloop
endfacet
facet normal 0.7933533402912314 0.6087614290087255 -0.0
  outer loop
    vertex 63.535533905932716 3.535533905932738 0.0
    vertex 64.33012701892218 2.4999999999999996 22.0
    vertex 64.33012701892218 2.4999999999999996 0.0
  endloop
endfacet
facet normal 0.7933533402912314 0.6087614290087255 -0.0
  outer loop
    vertex 64.33012701892218 2.4999999999999996 22.0
    vertex 63.535533905932716 3.535533905932738 0.0
    vertex 63.535533905932716 3.535533905932738 22.0
  endloop
endfacet
facet normal 0.3826834323650907 -0.9238795325112863 0.0
  outer loop
    vertex 62.499999999999986 -4.330127018922195 22.0
    vertex 61.29409522551259 -4.829629131445343 0.0
    vertex 62.499999999999986 -4.330127018922195 0.0
  endloop
endfacet
facet normal 0.3826834323650907 -0.9238795325112863 0.0
  outer loop
    vertex 61.29409522551259 -4.829629131445343 0.0
    vertex 62.499999999999986 -4.330127018922195 22.0
    vertex 61.29409522551259 -4.829629131445343 22.0
  endloop
endfacet
facet normal -0.7933533402912298 0.6087614290087277 0.0
  outer loop
    vertex 56.46446609406725 3.535533905932741 22.0
    vertex 56.06744593819825 3.018127165274898 0.0
    vertex 56.06744593819825 3.018127165274898 22.0
  endloop
endfacet
facet normal -0.7933533402912298 0.6087614290087277 0.0
  outer loop
    vertex 56.06744593819825 3.018127165274898 0.0
    vertex 56.46446609406725 3.535533905932741 22.0
    vertex 56.46446609406725 3.535533905932741 0.0
  endloop
endfacet
facet normal -0.38268343236508934 0.9238795325112871 -0.0
  outer loop
    vertex 57.49999999999999 4.330127018922197 22.0
    vertex 58.70590477448739 4.829629131445343 0.0
    vertex 57.49999999999999 4.330127018922197 0.0
  endloop
endfacet
facet normal -0.38268343236508934 0.9238795325112871 -0.0
  outer loop
    vertex 58.70590477448739 4.829629131445343 0.0
    vertex 57.49999999999999 4.330127018922197 22.0
    vertex 58.70590477448739 4.829629131445343 22.0
  endloop
endfacet
facet normal 0.6087614290087238 0.7933533402912327 -0.0
  outer loop
    vertex 62.499999999999986 4.330127018922193 22.0
    vertex 63.535533905932716 3.535533905932738 0.0
    vertex 62.499999999999986 4.330127018922193 0.0
  endloop
endfacet
facet normal 0.6087614290087238 0.7933533402912327 -0.0
  outer loop
    vertex 63.535533905932716 3.535533905932738 0.0
    vertex 62.499999999999986 4.330127018922193 22.0
    vertex 63.535533905932716 3.535533905932738 22.0
  endloop
endfacet
facet normal 0.5544212121814575 -0.8322362161569535 0.0
  outer loop
    vertex -25.760088044384396 2.7626440926946882 22.0
    vertex -26.58948360709969 2.2101152741557293 0.0
    vertex -25.760088044384396 2.7626440926946882 0.0
  endloop
endfacet
facet normal 0.5544212121814575 -0.8322362161569535 0.0
  outer loop
    vertex -26.58948360709969 2.2101152741557293 0.0
    vertex -25.760088044384396 2.7626440926946882 22.0
    vertex -26.58948360709969 2.2101152741557293 22.0
  endloop
endfacet
facet normal -0.0 1.0 -0.0
  outer loop
    vertex 32.05024007278218 14.0 22.0
    vertex 51.99999999999999 14.0 0.0
    vertex 32.05024007278218 14.0 0.0
  endloop
endfacet
facet normal -0.0 1.0 -0.0
  outer loop
    vertex 51.99999999999999 14.0 0.0
    vertex 32.05024007278218 14.0 22.0
    vertex 51.99999999999999 14.0 22.0
  endloop
endfacet
facet normal 0.9238795325112901 -0.3826834323650816 -0.0
  outer loop
    vertex 64.82962913144532 -1.2940952255126061 0.0
    vertex 64.33012701892218 -2.500000000000003 22.0
    vertex 64.33012701892218 -2.500000000000003 0.0
  endloop
endfacet
facet normal 0.9238795325112901 -0.3826834323650816 -0.0
  outer loop
    vertex 64.33012701892218 -2.500000000000003 22.0
    vertex 64.82962913144532 -1.2940952255126061 0.0
    vertex 64.82962913144532 -1.2940952255126061 22.0
  endloop
endfacet
facet normal 1.0 -0.0 -0.0
  outer loop
    vertex 51.99999999999999 14.0 0.0
    vertex 51.99999999999999 2.0000000000000004 22.0
    vertex 51.99999999999999 2.0000000000000004 0.0
  endloop
endfacet
facet normal 1.0 -0.0 -0.0
  outer loop
    vertex 51.99999999999999 2.0000000000000004 22.0
    vertex 51.99999999999999 14.0 0.0
    vertex 51.99999999999999 14.0 22.0
  endloop
endfacet
facet normal 4.829821399720511e-16 1.0 -0.0
  outer loop
    vertex 51.99999999999999 2.0000000000000004 22.0
    vertex 54.919327910045574 1.9999999999999991 0.0
    vertex 51.99999999999999 2.0000000000000004 0.0
  endloop
endfacet
facet normal 4.829821399720511e-16 1.0 -0.0
  outer loop
    vertex 54.919327910045574 1.9999999999999991 0.0
    vertex 51.99999999999999 2.0000000000000004 22.0
    vertex 54.919327910045574 1.9999999999999991 22.0
  endloop
endfacet
facet normal -0.13052619222004966 -0.9914448613738107 0.0
  outer loop
    vertex 59.99999999999999 -5.000000000000002 22.0
    vertex 58.705904774487365 -4.829629131445343 0.0
    vertex 59.99999999999999 -5.000000000000002 0.0
  endloop
endfacet
facet normal -0.13052619222004966 -0.9914448613738107 0.0
  outer loop
    vertex 58.705904774487365 -4.829629131445343 0.0
    vertex 59.99999999999999 -5.000000000000002 22.0
    vertex 58.705904774487365 -4.829629131445343 22.0
  endloop
endfacet
facet normal -0.3826834323650907 -0.9238795325112863 0.0
  outer loop
    vertex 58.705904774487365 -4.829629131445343 22.0
    vertex 57.49999999999997 -4.330127018922195 0.0
    vertex 58.705904774487365 -4.829629131445343 0.0
  endloop
endfacet
facet normal -0.3826834323650907 -0.9238795325112863 0.0
  outer loop
    vertex 57.49999999999997 -4.330127018922195 0.0
    vertex 58.705904774487365 -4.829629131445343 22.0
    vertex 57.49999999999997 -4.330127018922195 22.0
  endloop
endfacet
facet normal 0.13052619222005185 -0.9914448613738105 0.0
  outer loop
    vertex 61.29409522551259 -4.829629131445343 22.0
    vertex 59.99999999999999 -5.000000000000002 0.0
    vertex 61.29409522551259 -4.829629131445343 0.0
  endloop
endfacet
facet normal 0.13052619222005185 -0.9914448613738105 0.0
  outer loop
    vertex 59.99999999999999 -5.000000000000002 0.0
    vertex 61.29409522551259 -4.829629131445343 22.0
    vertex 59.99999999999999 -5.000000000000002 22.0
  endloop
endfacet
facet normal -0.6087614290087245 -0.7933533402912324 0.0
  outer loop
    vertex 57.49999999999997 -4.330127018922195 22.0
    vertex 56.46446609406725 -3.5355339059327386 0.0
    vertex 57.49999999999997 -4.330127018922195 0.0
  endloop
endfacet
facet normal -0.6087614290087245 -0.7933533402912324 0.0
  outer loop
    vertex 56.46446609406725 -3.5355339059327386 0.0
    vertex 57.49999999999997 -4.330127018922195 22.0
    vertex 56.46446609406725 -3.5355339059327386 22.0
  endloop
endfacet
facet normal 5.080802971334329e-32 -9.019014455188831e-32 1.0
  outer loop
    vertex 54.919327910045574 -1.9999999999999998 22.0
    vertex 51.99999999999999 2.0000000000000004 22.0
    vertex 51.99999999999999 -1.9999999999999991 22.0
  endloop
endfacet
facet normal 5.080802971334329e-32 -9.019014455188831e-32 1.0
  outer loop
    vertex 51.99999999999999 2.0000000000000004 22.0
    vertex 54.919327910045574 -1.9999999999999998 22.0
    vertex 54.919327910045574 1.9999999999999991 22.0
  endloop
endfacet
facet normal 5.080802971334329e-32 -9.019014455188831e-32 1.0
  outer loop
    vertex 54.919327910045574 1.9999999999999991 22.0
    vertex 54.919327910045574 -1.9999999999999998 22.0
    vertex 55.66987298107778 -2.5000000000000004 22.0
  endloop
endfacet
facet normal 5.080802971334329e-32 -9.019014455188831e-32 1.0
  outer loop
    vertex 54.919327910045574 1.9999999999999991 22.0
    vertex 55.66987298107778 -2.5000000000000004 22.0
    vertex 55.66987298107778 2.500000000000004 22.0
  endloop
endfacet
facet normal 5.080802971334329e-32 -9.019014455188831e-32 1.0
  outer loop
    vertex 55.66987298107778 2.500000000000004 22.0
    vertex 55.66987298107778 -2.5000000000000004 22.0
    vertex 56.46446609406725 -3.5355339059327386 22.0
  endloop
endfacet
facet normal 5.080802971334329e-32 -9.019014455188831e-32 1.0
  outer loop
    vertex 55.66987298107778 2.500000000000004 22.0
    vertex 56.46446609406725 -3.5355339059327386 22.0
    vertex 55.82812930382397 2.706243655215387 22.0
  endloop
endfacet
facet normal 5.080802971334329e-32 -9.019014455188831e-32 1.0
  outer loop
    vertex 55.82812930382397 2.706243655215387 22.0
    vertex 56.46446609406725 -3.5355339059327386 22.0
    vertex 55.998755756256344 2.8890675781290596 22.0
  endloop
endfacet
facet normal 5.080802971334329e-32 -9.019014455188831e-32 1.0
  outer loop
    vertex 55.998755756256344 2.8890675781290596 22.0
    vertex 56.46446609406725 -3.5355339059327386 22.0
    vertex 56.06744593819825 3.018127165274898 22.0
  endloop
endfacet
facet normal 5.080802971334329e-32 -9.019014455188831e-32 1.0
  outer loop
    vertex 56.06744593819825 3.018127165274898 22.0
    vertex 56.46446609406725 -3.5355339059327386 22.0
    vertex 56.46446609406725 3.535533905932741 22.0
  endloop
endfacet
facet normal 5.080802971334329e-32 -9.019014455188831e-32 1.0
  outer loop
    vertex 56.46446609406725 3.535533905932741 22.0
    vertex 56.46446609406725 -3.5355339059327386 22.0
    vertex 57.49999999999997 -4.330127018922195 22.0
  endloop
endfacet
facet normal 5.080802971334329e-32 -9.019014455188831e-32 1.0
  outer loop
    vertex 56.46446609406725 3.535533905932741 22.0
    vertex 57.49999999999997 -4.330127018922195 22.0
    vertex 57.49999999999999 4.330127018922197 22.0
  endloop
endfacet
facet normal 5.080802971334329e-32 -9.019014455188831e-32 1.0
  outer loop
    vertex 57.49999999999999 4.330127018922197 22.0
    vertex 57.49999999999997 -4.330127018922195 22.0
    vertex 58.705904774487365 -4.829629131445343 22.0
  endloop
endfacet
facet normal 5.080802971334329e-32 -9.019014455188831e-32 1.0
  outer loop
    vertex 57.49999999999999 4.330127018922197 22.0
    vertex 58.705904774487365 -4.829629131445343 22.0
    vertex 58.70590477448739 4.829629131445343 22.0
  endloop
endfacet
facet normal 5.080802971334329e-32 -9.019014455188831e-32 1.0
  outer loop
    vertex 58.70590477448739 4.829629131445343 22.0
    vertex 58.705904774487365 -4.829629131445343 22.0
    vertex 59.99999999999999 -5.000000000000002 22.0
  endloop
endfacet
facet normal 5.080802971334329e-32 -9.019014455188831e-32 1.0
  outer loop
    vertex 58.70590477448739 4.829629131445343 22.0
    vertex 59.99999999999999 -5.000000000000002 22.0
    vertex 59.99999999999999 5.000000000000002 22.0
  endloop
endfacet
facet normal 5.080802971334329e-32 -9.019014455188831e-32 1.0
  outer loop
    vertex 59.99999999999999 5.000000000000002 22.0
    vertex 59.99999999999999 -5.000000000000002 22.0
    vertex 61.29409522551259 -4.829629131445343 22.0
  endloop
endfacet
facet normal 5.080802971334329e-32 -9.019014455188831e-32 1.0
  outer loop
    vertex 59.99999999999999 5.000000000000002 22.0
    vertex 61.29409522551259 -4.829629131445343 22.0
    vertex 61.29409522551259 4.829629131445343 22.0
  endloop
endfacet
facet normal 5.080802971334329e-32 -9.019014455188831e-32 1.0
  outer loop
    vertex 61.29409522551259 4.829629131445343 22.0
    vertex 61.29409522551259 -4.829629131445343 22.0
    vertex 62.499999999999986 -4.330127018922195 22.0
  endloop
endfacet
facet normal 5.080802971334329e-32 -9.019014455188831e-32 1.0
  outer loop
    vertex 61.29409522551259 4.829629131445343 22.0
    vertex 62.499999999999986 -4.330127018922195 22.0
    vertex 62.499999999999986 4.330127018922193 22.0
  endloop
endfacet
facet normal 5.080802971334329e-32 -9.019014455188831e-32 1.0
  outer loop
    vertex 62.499999999999986 4.330127018922193 22.0
    vertex 62.499999999999986 -4.330127018922195 22.0
    vertex 63.535533905932716 -3.5355339059327395 22.0
  endloop
endfacet
facet normal 5.080802971334329e-32 -9.019014455188831e-32 1.0
  outer loop
    vertex 62.499999999999986 4.330127018922193 22.0
    vertex 63.535533905932716 -3.5355339059327395 22.0
    vertex 63.535533905932716 3.535533905932738 22.0
  endloop
endfacet
facet normal 5.080802971334329e-32 -9.019014455188831e-32 1.0
  outer loop
    vertex 63.535533905932716 3.535533905932738 22.0
    vertex 63.535533905932716 -3.5355339059327395 22.0
    vertex 64.33012701892218 -2.500000000000003 22.0
  endloop
endfacet
facet normal 5.080802971334329e-32 -9.019014455188831e-32 1.0
  outer loop
    vertex 63.535533905932716 3.535533905932738 22.0
    vertex 64.33012701892218 -2.500000000000003 22.0
    vertex 64.33012701892218 2.4999999999999996 22.0
  endloop
endfacet
facet normal 5.080802971334329e-32 -9.019014455188831e-32 1.0
  outer loop
    vertex 64.33012701892218 2.4999999999999996 22.0
    vertex 64.33012701892218 -2.500000000000003 22.0
    vertex 64.82962913144532 -1.2940952255126061 22.0
  endloop
endfacet
facet normal 5.080802971334329e-32 -9.019014455188831e-32 1.0
  outer loop
    vertex 64.33012701892218 2.4999999999999996 22.0
    vertex 64.82962913144532 -1.2940952255126061 22.0
    vertex 64.82962913144532 1.2940952255126026 22.0
  endloop
endfacet
facet normal 5.080802971334329e-32 -9.019014455188831e-32 1.0
  outer loop
    vertex 64.82962913144532 1.2940952255126026 22.0
    vertex 64.82962913144532 -1.2940952255126061 22.0
    vertex 64.99999999999999 -1.4099832412739487e-15 22.0
  endloop
endfacet
facet normal 5.080802971334329e-32 -9.019014455188831e-32 1.0
  outer loop
    vertex 51.99999999999999 -14.0 22.0
    vertex 32.05024007278218 14.0 22.0
    vertex 32.05024007278218 -14.0 22.0
  endloop
endfacet
facet normal 5.080802971334329e-32 -9.019014455188831e-32 1.0
  outer loop
    vertex 32.05024007278218 14.0 22.0
    vertex 51.99999999999999 -14.0 22.0
    vertex 51.99999999999999 14.0 22.0
  endloop
endfacet
facet normal 5.080802971334329e-32 -9.019014455188831e-32 1.0
  outer loop
    vertex 51.99999999999999 14.0 22.0
    vertex 51.99999999999999 -14.0 22.0
    vertex 51.99999999999999 -1.9999999999999991 22.0
  endloop
endfacet
facet normal 5.080802971334329e-32 -9.019014455188831e-32 1.0
  outer loop
    vertex 51.99999999999999 14.0 22.0
    vertex 51.99999999999999 -1.9999999999999991 22.0
    vertex 51.99999999999999 2.0000000000000004 22.0
  endloop
endfacet
facet normal 0.0 -1.0 0.0
  outer loop
    vertex 1.0502400727821795 -14.0 0.0
    vertex -27.815509209230136 -14.0 22.0
    vertex -27.815509209230136 -14.0 -1.4099832412739487e-15
  endloop
endfacet
facet normal 0.0 -1.0 0.0
  outer loop
    vertex -27.815509209230136 -14.0 22.0
    vertex 1.0502400727821795 -14.0 0.0
    vertex 1.0502400727821801 -14.0 22.0
  endloop
endfacet
facet normal 2.223925713034397e-17 5.9816537240981945e-18 -1.0
  outer loop
    vertex -27.815509209230136 14.0 -1.4099832412739487e-15
    vertex -23.737692205301848 4.785039931777198 0.0
    vertex -27.815509209230136 2.210115274155731 -1.4099832412739487e-15
  endloop
endfacet
facet normal 2.223925713034397e-17 5.9816537240981945e-18 -1.0
  outer loop
    vertex -23.737692205301848 4.785039931777198 0.0
    vertex -27.815509209230136 14.0 -1.4099832412739487e-15
    vertex -22.405097924665892 5.337018555957435 0.0
  endloop
endfacet
facet normal 2.223925713034397e-17 5.9816537240981945e-18 -1.0
  outer loop
    vertex -22.405097924665892 5.337018555957435 0.0
    vertex -27.815509209230136 14.0 -1.4099832412739487e-15
    vertex 1.0502400727821795 14.0 0.0
  endloop
endfacet
facet normal 2.223925713034397e-17 5.9816537240981945e-18 -1.0
  outer loop
    vertex -27.815509209230136 2.210115274155731 -1.4099832412739487e-15
    vertex -23.737692205301848 4.785039931777198 0.0
    vertex -24.882016856505903 3.9069687438987373 0.0
  endloop
endfacet
facet normal 2.223925713034397e-17 5.9816537240981945e-18 -1.0
  outer loop
    vertex -27.815509209230136 2.210115274155731 -1.4099832412739487e-15
    vertex -24.882016856505903 3.9069687438987373 0.0
    vertex -26.58948360709969 2.2101152741557293 0.0
  endloop
endfacet
facet normal 2.223925713034397e-17 5.9816537240981945e-18 -1.0
  outer loop
    vertex -26.58948360709969 2.2101152741557293 0.0
    vertex -24.882016856505903 3.9069687438987373 0.0
    vertex -25.760088044384396 2.7626440926946882 0.0
  endloop
endfacet
facet normal 2.223925713034397e-17 5.9816537240981945e-18 -1.0
  outer loop
    vertex -25.760088044384396 2.7626440926946882 0.0
    vertex -24.882016856505903 3.9069687438987373 0.0
    vertex -25.585205686317853 2.990555218989283 0.0
  endloop
endfacet
facet normal 2.223925713034397e-17 5.9816537240981945e-18 -1.0
  outer loop
    vertex -25.585205686317853 2.990555218989283 0.0
    vertex -24.882016856505903 3.9069687438987373 0.0
    vertex -25.320747011822778 3.3352044736592132 0.0
  endloop
endfacet
facet normal 2.223925713034397e-17 5.9816537240981945e-18 -1.0
  outer loop
    vertex -25.585205686317853 2.990555218989283 0.0
    vertex -25.320747011822778 3.3352044736592132 0.0
    vertex -25.39665362196995 3.192586191245585 0.0
  endloop
endfacet
facet normal 2.223925713034397e-17 5.9816537240981945e-18 -1.0
  outer loop
    vertex -22.405097924665892 5.337018555957435 0.0
    vertex 1.0502400727821795 14.0 0.0
    vertex -20.97504811260717 5.525288185389355 0.0
  endloop
endfacet
facet normal 2.223925713034397e-17 5.9816537240981945e-18 -1.0
  outer loop
    vertex -20.97504811260717 5.525288185389355 0.0
    vertex 1.0502400727821795 14.0 0.0
    vertex -19.54499830054846 5.337018555957435 0.0
  endloop
endfacet
facet normal 2.223925713034397e-17 5.9816537240981945e-18 -1.0
  outer loop
    vertex -19.54499830054846 5.337018555957435 0.0
    vertex 1.0502400727821795 14.0 0.0
    vertex -18.21240401991249 4.785039931777193 0.0
  endloop
endfacet
facet normal 2.223925713034397e-17 5.9816537240981945e-18 -1.0
  outer loop
    vertex -18.21240401991249 4.785039931777193 0.0
    vertex 1.0502400727821795 14.0 0.0
    vertex -17.068079368708442 3.9069687438987315 0.0
  endloop
endfacet
facet normal 2.223925713034397e-17 5.9816537240981945e-18 -1.0
  outer loop
    vertex -17.068079368708442 3.9069687438987315 0.0
    vertex 1.0502400727821795 14.0 0.0
    vertex -16.190008180829974 2.7626440926946825 0.0
  endloop
endfacet
facet normal 2.223925713034397e-17 5.9816537240981945e-18 -1.0
  outer loop
    vertex -16.190008180829974 2.7626440926946825 0.0
    vertex 1.0502400727821795 14.0 0.0
    vertex -15.638029556649736 1.430049812058708 0.0
  endloop
endfacet
facet normal 2.223925713034397e-17 5.9816537240981945e-18 -1.0
  outer loop
    vertex -15.638029556649736 1.430049812058708 0.0
    vertex 1.0502400727821795 14.0 0.0
    vertex -15.449759927217817 -1.6919798895287383e-14 0.0
  endloop
endfacet
facet normal 2.223925713034397e-17 5.9816537240981945e-18 -1.0
  outer loop
    vertex -26.58948360709969 -2.2101152741557346 0.0
    vertex -27.815509209230136 -14.0 -1.4099832412739487e-15
    vertex -27.815509209230136 -2.2101152741557346 -1.4099832412739487e-15
  endloop
endfacet
facet normal 2.223925713034397e-17 5.9816537240981945e-18 -1.0
  outer loop
    vertex -27.815509209230136 -14.0 -1.4099832412739487e-15
    vertex -26.58948360709969 -2.2101152741557346 0.0
    vertex -24.88201685650592 -3.906968743898751 0.0
  endloop
endfacet
facet normal 2.223925713034397e-17 5.9816537240981945e-18 -1.0
  outer loop
    vertex -27.815509209230136 -14.0 -1.4099832412739487e-15
    vertex -24.88201685650592 -3.906968743898751 0.0
    vertex -23.737692205301858 -4.7850399317772245 0.0
  endloop
endfacet
facet normal 2.223925713034397e-17 5.9816537240981945e-18 -1.0
  outer loop
    vertex -27.815509209230136 -14.0 -1.4099832412739487e-15
    vertex -23.737692205301858 -4.7850399317772245 0.0
    vertex -22.405097924665903 -5.337018555957456 0.0
  endloop
endfacet
facet normal 2.223925713034397e-17 5.9816537240981945e-18 -1.0
  outer loop
    vertex -27.815509209230136 -14.0 -1.4099832412739487e-15
    vertex -22.405097924665903 -5.337018555957456 0.0
    vertex 1.0502400727821795 -14.0 0.0
  endloop
endfacet
facet normal 2.223925713034397e-17 5.9816537240981945e-18 -1.0
  outer loop
    vertex -24.88201685650592 -3.906968743898751 0.0
    vertex -26.58948360709969 -2.2101152741557346 0.0
    vertex -25.760088044384396 -2.7626440926946993 0.0
  endloop
endfacet
facet normal 2.223925713034397e-17 5.9816537240981945e-18 -1.0
  outer loop
    vertex 1.0502400727821795 -14.0 0.0
    vertex -22.405097924665903 -5.337018555957456 0.0
    vertex -20.97504811260717 -5.525288185389359 0.0
  endloop
endfacet
facet normal 2.223925713034397e-17 5.9816537240981945e-18 -1.0
  outer loop
    vertex 1.0502400727821795 -14.0 0.0
    vertex -20.97504811260717 -5.525288185389359 0.0
    vertex -19.54499830054846 -5.337018555957456 0.0
  endloop
endfacet
facet normal 2.223925713034397e-17 5.9816537240981945e-18 -1.0
  outer loop
    vertex 1.0502400727821795 -14.0 0.0
    vertex -19.54499830054846 -5.337018555957456 0.0
    vertex -18.21240401991249 -4.7850399317772245 0.0
  endloop
endfacet
facet normal 2.223925713034397e-17 5.9816537240981945e-18 -1.0
  outer loop
    vertex 1.0502400727821795 -14.0 0.0
    vertex -18.21240401991249 -4.7850399317772245 0.0
    vertex -17.068079368708442 -3.906968743898751 0.0
  endloop
endfacet
facet normal 2.223925713034397e-17 5.9816537240981945e-18 -1.0
  outer loop
    vertex 1.0502400727821795 -14.0 0.0
    vertex -17.068079368708442 -3.906968743898751 0.0
    vertex -16.190008180829974 -2.7626440926946993 0.0
  endloop
endfacet
facet normal 2.223925713034397e-17 5.9816537240981945e-18 -1.0
  outer loop
    vertex 1.0502400727821795 -14.0 0.0
    vertex -16.190008180829974 -2.7626440926946993 0.0
    vertex -15.638029556649736 -1.4300498120587188 0.0
  endloop
endfacet
facet normal 2.223925713034397e-17 5.9816537240981945e-18 -1.0
  outer loop
    vertex 1.0502400727821795 -14.0 0.0
    vertex -15.638029556649736 -1.4300498120587188 0.0
    vertex -15.449759927217817 -1.6919798895287383e-14 0.0
  endloop
endfacet
facet normal 2.223925713034397e-17 5.9816537240981945e-18 -1.0
  outer loop
    vertex 1.0502400727821795 -14.0 0.0
    vertex -15.449759927217817 -1.6919798895287383e-14 0.0
    vertex 1.0502400727821795 14.0 0.0
  endloop
endfacet
facet normal -0.0 1.0 -0.0
  outer loop
    vertex -27.815509209230136 14.0 22.0
    vertex 1.0502400727821795 14.0 0.0
    vertex -27.815509209230136 14.0 -1.4099832412739487e-15
  endloop
endfacet
facet normal -0.0 1.0 -0.0
  outer loop
    vertex 1.0502400727821795 14.0 0.0
    vertex -27.815509209230136 14.0 22.0
    vertex 1.0502400727821808 14.0 22.0
  endloop
endfacet
facet normal 1.0 -0.0 -0.0
  outer loop
    vertex 32.05024007278218 14.0 0.0
    vertex 32.05024007278218 -14.0 22.0
    vertex 32.05024007278218 -14.0 0.0
  endloop
endfacet
facet normal 1.0 -0.0 -0.0
  outer loop
    vertex 32.05024007278218 -14.0 22.0
    vertex 32.05024007278218 14.0 0.0
    vertex 32.05024007278218 14.0 22.0
  endloop
endfacet
facet normal -1.0 9.441852062102336e-18 4.4061976289810904e-17
  outer loop
    vertex 1.0502400727821808 14.0 22.0
    vertex 1.0502400727821795 -14.0 0.0
    vertex 1.0502400727821801 -14.0 22.0
  endloop
endfacet
facet normal -1.0 9.441852062102336e-18 4.4061976289810904e-17
  outer loop
    vertex 1.0502400727821795 -14.0 0.0
    vertex 1.0502400727821808 14.0 22.0
    vertex 1.0502400727821795 14.0 0.0
  endloop
endfacet
facet normal -1.0 0.0 0.0
  outer loop
    vertex -27.815509209230136 -2.2101152741557346 22.0
    vertex -27.815509209230136 -14.0 -1.4099832412739487e-15
    vertex -27.815509209230136 -14.0 22.0
  endloop
endfacet
facet normal -1.0 0.0 0.0
  outer loop
    vertex -27.815509209230136 -14.0 -1.4099832412739487e-15
    vertex -27.815509209230136 -2.2101152741557346 22.0
    vertex -27.815509209230136 -2.2101152741557346 -1.4099832412739487e-15
  endloop
endfacet
facet normal -1.0 0.0 0.0
  outer loop
    vertex -27.815509209230136 14.0 22.0
    vertex -27.815509209230136 2.210115274155731 -1.4099832412739487e-15
    vertex -27.815509209230136 2.210115274155731 22.0
  endloop
endfacet
facet normal -1.0 0.0 0.0
  outer loop
    vertex -27.815509209230136 2.210115274155731 -1.4099832412739487e-15
    vertex -27.815509209230136 14.0 22.0
    vertex -27.815509209230136 14.0 -1.4099832412739487e-15
  endloop
endfacet
endsolid PlugEnds
