solid Untitled
facet normal 0.0 0.0 -1.0
  outer loop
    vertex 84.99999999999999 37.50000000000001 0.0
    vertex 15.0 22.500000000000007 0.0
    vertex 15.0 37.50000000000001 0.0
  endloop
endfacet
facet normal 0.0 0.0 -1.0
  outer loop
    vertex 15.0 22.500000000000007 0.0
    vertex 84.99999999999999 37.50000000000001 0.0
    vertex 85.00000000000003 22.500000000000007 0.0
  endloop
endfacet
facet normal 0.0 0.0 -1.0
  outer loop
    vertex 15.0 60.0 0.0
    vertex 0.0 0.0 0.0
    vertex 0.0 60.0 0.0
  endloop
endfacet
facet normal 0.0 0.0 -1.0
  outer loop
    vertex 0.0 0.0 0.0
    vertex 15.0 60.0 0.0
    vertex 15.0 1.127986593019159e-14 0.0
  endloop
endfacet
facet normal 0.0 0.0 -1.0
  outer loop
    vertex 15.0 1.127986593019159e-14 0.0
    vertex 15.0 60.0 0.0
    vertex 15.0 37.50000000000001 0.0
  endloop
endfacet
facet normal 0.0 0.0 -1.0
  outer loop
    vertex 15.0 1.127986593019159e-14 0.0
    vertex 15.0 37.50000000000001 0.0
    vertex 15.0 22.500000000000007 0.0
  endloop
endfacet
facet normal -0.0 -0.0 1.0
  outer loop
    vertex 85.00000000000003 22.500000000000007 15.0
    vertex 15.0 37.50000000000001 15.0
    vertex 15.0 22.500000000000007 15.0
  endloop
endfacet
facet normal -0.0 -0.0 1.0
  outer loop
    vertex 15.0 37.50000000000001 15.0
    vertex 85.00000000000003 22.500000000000007 15.0
    vertex 84.99999999999999 37.50000000000001 15.0
  endloop
endfacet
facet normal -0.0 -0.0 1.0
  outer loop
    vertex 15.0 1.127986593019159e-14 15.0
    vertex 0.0 60.0 15.0
    vertex 0.0 0.0 15.0
  endloop
endfacet
facet normal -0.0 -0.0 1.0
  outer loop
    vertex 0.0 60.0 15.0
    vertex 15.0 1.127986593019159e-14 15.0
    vertex 15.0 60.0 15.0
  endloop
endfacet
facet normal -0.0 -0.0 1.0
  outer loop
    vertex 15.0 60.0 15.0
    vertex 15.0 1.127986593019159e-14 15.0
    vertex 15.0 22.500000000000007 15.0
  endloop
endfacet
facet normal -0.0 -0.0 1.0
  outer loop
    vertex 15.0 60.0 15.0
    vertex 15.0 22.500000000000007 15.0
    vertex 15.0 37.50000000000001 15.0
  endloop
endfacet
facet normal 7.519910620127726e-16 -1.0 0.0
  outer loop
    vertex 15.0 1.127986593019159e-14 15.0
    vertex 0.0 0.0 0.0
    vertex 15.0 1.127986593019159e-14 0.0
  endloop
endfacet
facet normal 7.519910620127726e-16 -1.0 0.0
  outer loop
    vertex 0.0 0.0 0.0
    vertex 15.0 1.127986593019159e-14 15.0
    vertex 0.0 0.0 15.0
  endloop
endfacet
facet normal -1.0 0.0 0.0
  outer loop
    vertex 0.0 60.0 15.0
    vertex 0.0 0.0 0.0
    vertex 0.0 0.0 15.0
  endloop
endfacet
facet normal -1.0 0.0 0.0
  outer loop
    vertex 0.0 0.0 0.0
    vertex 0.0 60.0 15.0
    vertex 0.0 60.0 0.0
  endloop
endfacet
facet normal -0.0 1.0 0.0
  outer loop
    vertex 0.0 60.0 15.0
    vertex 15.0 60.0 0.0
    vertex 0.0 60.0 0.0
  endloop
endfacet
facet normal -0.0 1.0 0.0
  outer loop
    vertex 15.0 60.0 0.0
    vertex 0.0 60.0 15.0
    vertex 15.0 60.0 15.0
  endloop
endfacet
facet normal 1.0 -0.0 -0.0
  outer loop
    vertex 15.0 60.0 0.0
    vertex 15.0 37.50000000000001 15.0
    vertex 15.0 37.50000000000001 0.0
  endloop
endfacet
facet normal 1.0 -0.0 -0.0
  outer loop
    vertex 15.0 37.50000000000001 15.0
    vertex 15.0 60.0 0.0
    vertex 15.0 60.0 15.0
  endloop
endfacet
facet normal 1.0 -0.0 -0.0
  outer loop
    vertex 15.0 22.500000000000007 0.0
    vertex 15.0 1.127986593019159e-14 15.0
    vertex 15.0 1.127986593019159e-14 0.0
  endloop
endfacet
facet normal 1.0 -0.0 -0.0
  outer loop
    vertex 15.0 1.127986593019159e-14 15.0
    vertex 15.0 22.500000000000007 0.0
    vertex 15.0 22.500000000000007 15.0
  endloop
endfacet
facet normal -0.0 -1.0 -0.0
  outer loop
    vertex 85.00000000000003 22.500000000000007 15.0
    vertex 15.0 22.500000000000007 0.0
    vertex 85.00000000000003 22.500000000000007 0.0
  endloop
endfacet
facet normal -0.0 -1.0 -0.0
  outer loop
    vertex 15.0 22.500000000000007 0.0
    vertex 85.00000000000003 22.500000000000007 15.0
    vertex 15.0 22.500000000000007 15.0
  endloop
endfacet
facet normal 1.0 2.3400827678221107e-15 8.410958178379055e-17
  outer loop
    vertex 85.00000000000003 22.500000000000007 0.0
    vertex 85.0 27.83493649053891 6.250000000000001
    vertex 85.00000000000003 22.500000000000007 15.0
  endloop
endfacet
facet normal 1.0 2.3400827678221107e-15 8.410958178379055e-17
  outer loop
    vertex 85.0 27.83493649053891 6.250000000000001
    vertex 85.00000000000003 22.500000000000007 0.0
    vertex 85.0 28.23223304703364 5.732233047033633
  endloop
endfacet
facet normal 1.0 2.3400827678221107e-15 8.410958178379055e-17
  outer loop
    vertex 85.0 28.23223304703364 5.732233047033633
    vertex 85.00000000000003 22.500000000000007 0.0
    vertex 85.0 28.75000000000001 5.334936490538904
  endloop
endfacet
facet normal 1.0 2.3400827678221107e-15 8.410958178379055e-17
  outer loop
    vertex 85.0 28.75000000000001 5.334936490538904
    vertex 85.00000000000003 22.500000000000007 0.0
    vertex 84.99999999999999 37.50000000000001 0.0
  endloop
endfacet
facet normal 1.0 2.3400827678221107e-15 8.410958178379055e-17
  outer loop
    vertex 85.00000000000003 22.500000000000007 15.0
    vertex 85.0 27.83493649053891 6.250000000000001
    vertex 85.0 27.58518543427734 6.852952387243698
  endloop
endfacet
facet normal 1.0 2.3400827678221107e-15 8.410958178379055e-17
  outer loop
    vertex 85.00000000000003 22.500000000000007 15.0
    vertex 85.0 27.58518543427734 6.852952387243698
    vertex 85.0 27.500000000000007 7.5
  endloop
endfacet
facet normal 1.0 2.3400827678221107e-15 8.410958178379055e-17
  outer loop
    vertex 85.0 28.75000000000001 5.334936490538904
    vertex 84.99999999999999 37.50000000000001 0.0
    vertex 85.0 29.352952387243707 5.08518543427733
  endloop
endfacet
facet normal 1.0 2.3400827678221107e-15 8.410958178379055e-17
  outer loop
    vertex 85.0 29.352952387243707 5.08518543427733
    vertex 84.99999999999999 37.50000000000001 0.0
    vertex 85.0 30.000000000000007 5.000000000000001
  endloop
endfacet
facet normal 1.0 2.3400827678221107e-15 8.410958178379055e-17
  outer loop
    vertex 85.0 30.000000000000007 5.000000000000001
    vertex 84.99999999999999 37.50000000000001 0.0
    vertex 85.0 30.647047612756307 5.08518543427733
  endloop
endfacet
facet normal 1.0 2.3400827678221107e-15 8.410958178379055e-17
  outer loop
    vertex 85.0 30.647047612756307 5.08518543427733
    vertex 84.99999999999999 37.50000000000001 0.0
    vertex 85.0 31.250000000000004 5.3349364905389045
  endloop
endfacet
facet normal 1.0 2.3400827678221107e-15 8.410958178379055e-17
  outer loop
    vertex 85.0 31.250000000000004 5.3349364905389045
    vertex 84.99999999999999 37.50000000000001 0.0
    vertex 85.0 31.767766952966376 5.732233047033631
  endloop
endfacet
facet normal 1.0 2.3400827678221107e-15 8.410958178379055e-17
  outer loop
    vertex 85.0 31.767766952966376 5.732233047033631
    vertex 84.99999999999999 37.50000000000001 0.0
    vertex 85.0 32.1650635094611 6.25
  endloop
endfacet
facet normal 1.0 2.3400827678221107e-15 8.410958178379055e-17
  outer loop
    vertex 85.0 32.1650635094611 6.25
    vertex 84.99999999999999 37.50000000000001 0.0
    vertex 85.0 32.41481456572268 6.8529523872436995
  endloop
endfacet
facet normal 1.0 2.3400827678221107e-15 8.410958178379055e-17
  outer loop
    vertex 85.0 32.41481456572268 6.8529523872436995
    vertex 84.99999999999999 37.50000000000001 0.0
    vertex 85.0 32.50000000000001 7.499999999999999
  endloop
endfacet
facet normal 1.0 2.3400827678221107e-15 8.410958178379055e-17
  outer loop
    vertex 85.00000000000003 22.500000000000007 15.0
    vertex 85.0 28.75000000000001 9.665063509461097
    vertex 84.99999999999999 37.50000000000001 15.0
  endloop
endfacet
facet normal 1.0 2.3400827678221107e-15 8.410958178379055e-17
  outer loop
    vertex 85.0 28.75000000000001 9.665063509461097
    vertex 85.00000000000003 22.500000000000007 15.0
    vertex 85.0 28.23223304703364 9.267766952966369
  endloop
endfacet
facet normal 1.0 2.3400827678221107e-15 8.410958178379055e-17
  outer loop
    vertex 85.0 28.23223304703364 9.267766952966369
    vertex 85.00000000000003 22.500000000000007 15.0
    vertex 85.0 27.83493649053891 8.75
  endloop
endfacet
facet normal 1.0 2.3400827678221107e-15 8.410958178379055e-17
  outer loop
    vertex 85.0 27.83493649053891 8.75
    vertex 85.00000000000003 22.500000000000007 15.0
    vertex 85.0 27.58518543427734 8.147047612756301
  endloop
endfacet
facet normal 1.0 2.3400827678221107e-15 8.410958178379055e-17
  outer loop
    vertex 85.0 27.58518543427734 8.147047612756301
    vertex 85.00000000000003 22.500000000000007 15.0
    vertex 85.0 27.500000000000007 7.5
  endloop
endfacet
facet normal 1.0 2.3400827678221107e-15 8.410958178379055e-17
  outer loop
    vertex 84.99999999999999 37.50000000000001 15.0
    vertex 85.0 28.75000000000001 9.665063509461097
    vertex 85.0 29.352952387243707 9.91481456572267
  endloop
endfacet
facet normal 1.0 2.3400827678221107e-15 8.410958178379055e-17
  outer loop
    vertex 84.99999999999999 37.50000000000001 15.0
    vertex 85.0 29.352952387243707 9.91481456572267
    vertex 85.0 30.000000000000007 10.0
  endloop
endfacet
facet normal 1.0 2.3400827678221107e-15 8.410958178379055e-17
  outer loop
    vertex 84.99999999999999 37.50000000000001 15.0
    vertex 85.0 30.000000000000007 10.0
    vertex 85.0 30.647047612756307 9.914814565722669
  endloop
endfacet
facet normal 1.0 2.3400827678221107e-15 8.410958178379055e-17
  outer loop
    vertex 84.99999999999999 37.50000000000001 15.0
    vertex 85.0 30.647047612756307 9.914814565722669
    vertex 85.0 31.250000000000004 9.665063509461095
  endloop
endfacet
facet normal 1.0 2.3400827678221107e-15 8.410958178379055e-17
  outer loop
    vertex 84.99999999999999 37.50000000000001 15.0
    vertex 85.0 31.250000000000004 9.665063509461095
    vertex 85.0 31.767766952966376 9.267766952966367
  endloop
endfacet
facet normal 1.0 2.3400827678221107e-15 8.410958178379055e-17
  outer loop
    vertex 84.99999999999999 37.50000000000001 15.0
    vertex 85.0 31.767766952966376 9.267766952966367
    vertex 85.0 32.1650635094611 8.75
  endloop
endfacet
facet normal 1.0 2.3400827678221107e-15 8.410958178379055e-17
  outer loop
    vertex 84.99999999999999 37.50000000000001 15.0
    vertex 85.0 32.1650635094611 8.75
    vertex 85.0 32.41481456572268 8.147047612756301
  endloop
endfacet
facet normal 1.0 2.3400827678221107e-15 8.410958178379055e-17
  outer loop
    vertex 84.99999999999999 37.50000000000001 15.0
    vertex 85.0 32.41481456572268 8.147047612756301
    vertex 85.0 32.50000000000001 7.499999999999999
  endloop
endfacet
facet normal 1.0 2.3400827678221107e-15 8.410958178379055e-17
  outer loop
    vertex 84.99999999999999 37.50000000000001 15.0
    vertex 85.0 32.50000000000001 7.499999999999999
    vertex 84.99999999999999 37.50000000000001 0.0
  endloop
endfacet
facet normal 0.0 1.0 -0.0
  outer loop
    vertex 15.0 37.50000000000001 15.0
    vertex 84.99999999999999 37.50000000000001 0.0
    vertex 15.0 37.50000000000001 0.0
  endloop
endfacet
facet normal 0.0 1.0 -0.0
  outer loop
    vertex 84.99999999999999 37.50000000000001 0.0
    vertex 15.0 37.50000000000001 15.0
    vertex 84.99999999999999 37.50000000000001 15.0
  endloop
endfacet
facet normal 1.0 0.0 0.0
  outer loop
    vertex 77.0 27.58518543427734 6.852952387243698
    vertex 77.0 27.58518543427734 8.147047612756301
    vertex 77.0 27.500000000000007 7.5
  endloop
endfacet
facet normal 1.0 0.0 0.0
  outer loop
    vertex 77.0 27.58518543427734 8.147047612756301
    vertex 77.0 27.58518543427734 6.852952387243698
    vertex 77.0 27.83493649053891 6.250000000000001
  endloop
endfacet
facet normal 1.0 0.0 0.0
  outer loop
    vertex 77.0 27.58518543427734 8.147047612756301
    vertex 77.0 27.83493649053891 6.250000000000001
    vertex 77.0 27.83493649053891 8.75
  endloop
endfacet
facet normal 1.0 0.0 0.0
  outer loop
    vertex 77.0 27.83493649053891 8.75
    vertex 77.0 27.83493649053891 6.250000000000001
    vertex 77.0 28.23223304703364 5.732233047033633
  endloop
endfacet
facet normal 1.0 0.0 0.0
  outer loop
    vertex 77.0 27.83493649053891 8.75
    vertex 77.0 28.23223304703364 5.732233047033633
    vertex 77.0 28.23223304703364 9.267766952966369
  endloop
endfacet
facet normal 1.0 0.0 0.0
  outer loop
    vertex 77.0 28.23223304703364 9.267766952966369
    vertex 77.0 28.23223304703364 5.732233047033633
    vertex 77.0 28.75000000000001 5.334936490538904
  endloop
endfacet
facet normal 1.0 0.0 0.0
  outer loop
    vertex 77.0 28.23223304703364 9.267766952966369
    vertex 77.0 28.75000000000001 5.334936490538904
    vertex 77.0 28.75000000000001 9.665063509461097
  endloop
endfacet
facet normal 1.0 0.0 0.0
  outer loop
    vertex 77.0 28.75000000000001 9.665063509461097
    vertex 77.0 28.75000000000001 5.334936490538904
    vertex 77.0 29.352952387243707 5.08518543427733
  endloop
endfacet
facet normal 1.0 0.0 0.0
  outer loop
    vertex 77.0 28.75000000000001 9.665063509461097
    vertex 77.0 29.352952387243707 5.08518543427733
    vertex 77.0 29.352952387243707 9.91481456572267
  endloop
endfacet
facet normal 1.0 0.0 0.0
  outer loop
    vertex 77.0 29.352952387243707 9.91481456572267
    vertex 77.0 29.352952387243707 5.08518543427733
    vertex 77.0 30.000000000000007 5.000000000000001
  endloop
endfacet
facet normal 1.0 0.0 0.0
  outer loop
    vertex 77.0 29.352952387243707 9.91481456572267
    vertex 77.0 30.000000000000007 5.000000000000001
    vertex 77.0 30.000000000000007 10.0
  endloop
endfacet
facet normal 1.0 0.0 0.0
  outer loop
    vertex 77.0 30.000000000000007 10.0
    vertex 77.0 30.000000000000007 5.000000000000001
    vertex 77.0 30.647047612756307 5.08518543427733
  endloop
endfacet
facet normal 1.0 0.0 0.0
  outer loop
    vertex 77.0 30.000000000000007 10.0
    vertex 77.0 30.647047612756307 5.08518543427733
    vertex 77.0 30.647047612756307 9.914814565722669
  endloop
endfacet
facet normal 1.0 0.0 0.0
  outer loop
    vertex 77.0 30.647047612756307 9.914814565722669
    vertex 77.0 30.647047612756307 5.08518543427733
    vertex 77.0 31.250000000000004 5.3349364905389045
  endloop
endfacet
facet normal 1.0 0.0 0.0
  outer loop
    vertex 77.0 30.647047612756307 9.914814565722669
    vertex 77.0 31.250000000000004 5.3349364905389045
    vertex 77.0 31.250000000000004 9.665063509461095
  endloop
endfacet
facet normal 1.0 0.0 0.0
  outer loop
    vertex 77.0 31.250000000000004 9.665063509461095
    vertex 77.0 31.250000000000004 5.3349364905389045
    vertex 77.0 31.767766952966376 5.732233047033631
  endloop
endfacet
facet normal 1.0 0.0 0.0
  outer loop
    vertex 77.0 31.250000000000004 9.665063509461095
    vertex 77.0 31.767766952966376 5.732233047033631
    vertex 77.0 31.767766952966376 9.267766952966367
  endloop
endfacet
facet normal 1.0 0.0 0.0
  outer loop
    vertex 77.0 31.767766952966376 9.267766952966367
    vertex 77.0 31.767766952966376 5.732233047033631
    vertex 77.0 32.1650635094611 6.25
  endloop
endfacet
facet normal 1.0 0.0 0.0
  outer loop
    vertex 77.0 31.767766952966376 9.267766952966367
    vertex 77.0 32.1650635094611 6.25
    vertex 77.0 32.1650635094611 8.75
  endloop
endfacet
facet normal 1.0 0.0 0.0
  outer loop
    vertex 77.0 32.1650635094611 8.75
    vertex 77.0 32.1650635094611 6.25
    vertex 77.0 32.41481456572268 6.8529523872436995
  endloop
endfacet
facet normal 1.0 0.0 0.0
  outer loop
    vertex 77.0 32.1650635094611 8.75
    vertex 77.0 32.41481456572268 6.8529523872436995
    vertex 77.0 32.41481456572268 8.147047612756301
  endloop
endfacet
facet normal 1.0 0.0 0.0
  outer loop
    vertex 77.0 32.41481456572268 8.147047612756301
    vertex 77.0 32.41481456572268 6.8529523872436995
    vertex 77.0 32.50000000000001 7.499999999999999
  endloop
endfacet
facet normal 0.0 0.4999999999999997 -0.8660254037844389
  outer loop
    vertex 85.0 28.75000000000001 9.665063509461097
    vertex 77.0 28.23223304703364 9.267766952966369
    vertex 77.0 28.75000000000001 9.665063509461097
  endloop
endfacet
facet normal 0.0 0.7071067811865475 -0.7071067811865475
  outer loop
    vertex 77.0 28.23223304703364 9.267766952966369
    vertex 85.0 28.75000000000001 9.665063509461097
    vertex 85.0 28.23223304703364 9.267766952966369
  endloop
endfacet
facet normal 0.0 0.7071067811865475 -0.7071067811865475
  outer loop
    vertex 77.0 28.23223304703364 9.267766952966369
    vertex 85.0 27.83493649053891 8.75
    vertex 77.0 27.83493649053891 8.75
  endloop
endfacet
facet normal 0.0 0.866025403784439 -0.4999999999999993
  outer loop
    vertex 85.0 27.83493649053891 8.75
    vertex 77.0 28.23223304703364 9.267766952966369
    vertex 85.0 28.23223304703364 9.267766952966369
  endloop
endfacet
facet normal 0.0 0.866025403784439 -0.4999999999999993
  outer loop
    vertex 77.0 27.83493649053891 8.75
    vertex 85.0 27.58518543427734 8.147047612756301
    vertex 77.0 27.58518543427734 8.147047612756301
  endloop
endfacet
facet normal 0.0 0.9659258262890676 -0.2588190451025228
  outer loop
    vertex 85.0 27.58518543427734 8.147047612756301
    vertex 77.0 27.83493649053891 8.75
    vertex 85.0 27.83493649053891 8.75
  endloop
endfacet
facet normal 0.0 0.9659258262890676 -0.2588190451025228
  outer loop
    vertex 77.0 27.58518543427734 8.147047612756301
    vertex 85.0 27.500000000000007 7.5
    vertex 77.0 27.500000000000007 7.5
  endloop
endfacet
facet normal 0.0 1.0 -1.4257775833035053e-16
  outer loop
    vertex 85.0 27.500000000000007 7.5
    vertex 77.0 27.58518543427734 8.147047612756301
    vertex 85.0 27.58518543427734 8.147047612756301
  endloop
endfacet
facet normal 0.0 1.0 -1.4257775833035053e-16
  outer loop
    vertex 77.0 27.500000000000007 7.5
    vertex 85.0 27.58518543427734 6.852952387243698
    vertex 77.0 27.58518543427734 6.852952387243698
  endloop
endfacet
facet normal 0.0 0.9659258262890676 0.25881904510252285
  outer loop
    vertex 85.0 27.58518543427734 6.852952387243698
    vertex 77.0 27.500000000000007 7.5
    vertex 85.0 27.500000000000007 7.5
  endloop
endfacet
facet normal 0.0 0.9659258262890676 0.25881904510252285
  outer loop
    vertex 77.0 27.58518543427734 6.852952387243698
    vertex 85.0 27.83493649053891 6.250000000000001
    vertex 77.0 27.83493649053891 6.250000000000001
  endloop
endfacet
facet normal 0.0 0.8660254037844384 0.5000000000000002
  outer loop
    vertex 85.0 27.83493649053891 6.250000000000001
    vertex 77.0 27.58518543427734 6.852952387243698
    vertex 85.0 27.58518543427734 6.852952387243698
  endloop
endfacet
facet normal 0.0 0.8660254037844384 0.5000000000000002
  outer loop
    vertex 77.0 27.83493649053891 6.250000000000001
    vertex 85.0 28.23223304703364 5.732233047033633
    vertex 77.0 28.23223304703364 5.732233047033633
  endloop
endfacet
facet normal 0.0 0.7071067811865475 0.7071067811865477
  outer loop
    vertex 85.0 28.23223304703364 5.732233047033633
    vertex 77.0 27.83493649053891 6.250000000000001
    vertex 85.0 27.83493649053891 6.250000000000001
  endloop
endfacet
facet normal 0.0 0.7071067811865475 0.7071067811865477
  outer loop
    vertex 85.0 28.23223304703364 5.732233047033633
    vertex 77.0 28.75000000000001 5.334936490538904
    vertex 77.0 28.23223304703364 5.732233047033633
  endloop
endfacet
facet normal 0.0 0.5000000000000004 0.8660254037844385
  outer loop
    vertex 77.0 28.75000000000001 5.334936490538904
    vertex 85.0 28.23223304703364 5.732233047033633
    vertex 85.0 28.75000000000001 5.334936490538904
  endloop
endfacet
facet normal 0.0 0.5000000000000004 0.8660254037844385
  outer loop
    vertex 85.0 28.75000000000001 5.334936490538904
    vertex 77.0 29.352952387243707 5.08518543427733
    vertex 77.0 28.75000000000001 5.334936490538904
  endloop
endfacet
facet normal 0.0 0.25881904510252113 0.9659258262890682
  outer loop
    vertex 77.0 29.352952387243707 5.08518543427733
    vertex 85.0 28.75000000000001 5.334936490538904
    vertex 85.0 29.352952387243707 5.08518543427733
  endloop
endfacet
facet normal 0.0 0.25881904510252113 0.9659258262890682
  outer loop
    vertex 85.0 29.352952387243707 5.08518543427733
    vertex 77.0 30.000000000000007 5.000000000000001
    vertex 77.0 29.352952387243707 5.08518543427733
  endloop
endfacet
facet normal 0.0 0.0 1.0
  outer loop
    vertex 77.0 30.000000000000007 5.000000000000001
    vertex 85.0 29.352952387243707 5.08518543427733
    vertex 85.0 30.000000000000007 5.000000000000001
  endloop
endfacet
facet normal 0.0 0.0 1.0
  outer loop
    vertex 85.0 30.000000000000007 5.000000000000001
    vertex 77.0 30.647047612756307 5.08518543427733
    vertex 77.0 30.000000000000007 5.000000000000001
  endloop
endfacet
facet normal 0.0 -0.2588190451025216 0.9659258262890681
  outer loop
    vertex 77.0 30.647047612756307 5.08518543427733
    vertex 85.0 30.000000000000007 5.000000000000001
    vertex 85.0 30.647047612756307 5.08518543427733
  endloop
endfacet
facet normal 0.0 -0.2588190451025216 0.9659258262890681
  outer loop
    vertex 85.0 30.647047612756307 5.08518543427733
    vertex 77.0 31.250000000000004 5.3349364905389045
    vertex 77.0 30.647047612756307 5.08518543427733
  endloop
endfacet
facet normal 0.0 -0.4999999999999997 0.8660254037844389
  outer loop
    vertex 77.0 31.250000000000004 5.3349364905389045
    vertex 85.0 30.647047612756307 5.08518543427733
    vertex 85.0 31.250000000000004 5.3349364905389045
  endloop
endfacet
facet normal 0.0 -0.4999999999999997 0.8660254037844389
  outer loop
    vertex 85.0 31.250000000000004 5.3349364905389045
    vertex 77.0 31.767766952966376 5.732233047033631
    vertex 77.0 31.250000000000004 5.3349364905389045
  endloop
endfacet
facet normal 0.0 -0.7071067811865467 0.7071067811865482
  outer loop
    vertex 77.0 31.767766952966376 5.732233047033631
    vertex 85.0 31.250000000000004 5.3349364905389045
    vertex 85.0 31.767766952966376 5.732233047033631
  endloop
endfacet
facet normal 0.0 -0.8660254037844389 0.4999999999999995
  outer loop
    vertex 85.0 32.1650635094611 6.25
    vertex 77.0 31.767766952966376 5.732233047033631
    vertex 85.0 31.767766952966376 5.732233047033631
  endloop
endfacet
facet normal 0.0 -0.7071067811865467 0.7071067811865482
  outer loop
    vertex 77.0 31.767766952966376 5.732233047033631
    vertex 85.0 32.1650635094611 6.25
    vertex 77.0 32.1650635094611 6.25
  endloop
endfacet
facet normal 0.0 -0.9659258262890678 0.25881904510252257
  outer loop
    vertex 85.0 32.41481456572268 6.8529523872436995
    vertex 77.0 32.1650635094611 6.25
    vertex 85.0 32.1650635094611 6.25
  endloop
endfacet
facet normal 0.0 -0.8660254037844389 0.4999999999999995
  outer loop
    vertex 77.0 32.1650635094611 6.25
    vertex 85.0 32.41481456572268 6.8529523872436995
    vertex 77.0 32.41481456572268 6.8529523872436995
  endloop
endfacet
facet normal 0.0 -1.0 2.8515551666070106e-16
  outer loop
    vertex 85.0 32.50000000000001 7.499999999999999
    vertex 77.0 32.41481456572268 6.8529523872436995
    vertex 85.0 32.41481456572268 6.8529523872436995
  endloop
endfacet
facet normal 0.0 -0.9659258262890678 0.25881904510252257
  outer loop
    vertex 77.0 32.41481456572268 6.8529523872436995
    vertex 85.0 32.50000000000001 7.499999999999999
    vertex 77.0 32.50000000000001 7.499999999999999
  endloop
endfacet
facet normal 0.0 -0.9659258262890679 -0.25881904510252274
  outer loop
    vertex 85.0 32.41481456572268 8.147047612756301
    vertex 77.0 32.50000000000001 7.499999999999999
    vertex 85.0 32.50000000000001 7.499999999999999
  endloop
endfacet
facet normal 0.0 -1.0 2.8515551666070106e-16
  outer loop
    vertex 77.0 32.50000000000001 7.499999999999999
    vertex 85.0 32.41481456572268 8.147047612756301
    vertex 77.0 32.41481456572268 8.147047612756301
  endloop
endfacet
facet normal 0.0 -0.8660254037844387 -0.4999999999999999
  outer loop
    vertex 85.0 32.1650635094611 8.75
    vertex 77.0 32.41481456572268 8.147047612756301
    vertex 85.0 32.41481456572268 8.147047612756301
  endloop
endfacet
facet normal 0.0 -0.9659258262890679 -0.25881904510252274
  outer loop
    vertex 77.0 32.41481456572268 8.147047612756301
    vertex 85.0 32.1650635094611 8.75
    vertex 77.0 32.1650635094611 8.75
  endloop
endfacet
facet normal 0.0 -0.707106781186547 -0.707106781186548
  outer loop
    vertex 85.0 31.767766952966376 9.267766952966367
    vertex 77.0 32.1650635094611 8.75
    vertex 85.0 32.1650635094611 8.75
  endloop
endfacet
facet normal 0.0 -0.8660254037844387 -0.4999999999999999
  outer loop
    vertex 77.0 32.1650635094611 8.75
    vertex 85.0 31.767766952966376 9.267766952966367
    vertex 77.0 31.767766952966376 9.267766952966367
  endloop
endfacet
facet normal 0.0 -0.707106781186547 -0.707106781186548
  outer loop
    vertex 85.0 31.767766952966376 9.267766952966367
    vertex 77.0 31.250000000000004 9.665063509461095
    vertex 77.0 31.767766952966376 9.267766952966367
  endloop
endfacet
facet normal 0.0 -0.4999999999999997 -0.8660254037844389
  outer loop
    vertex 77.0 31.250000000000004 9.665063509461095
    vertex 85.0 31.767766952966376 9.267766952966367
    vertex 85.0 31.250000000000004 9.665063509461095
  endloop
endfacet
facet normal 0.0 -0.4999999999999997 -0.8660254037844389
  outer loop
    vertex 85.0 31.250000000000004 9.665063509461095
    vertex 77.0 30.647047612756307 9.914814565722669
    vertex 77.0 31.250000000000004 9.665063509461095
  endloop
endfacet
facet normal 0.0 -0.2588190451025222 -0.9659258262890679
  outer loop
    vertex 77.0 30.647047612756307 9.914814565722669
    vertex 85.0 31.250000000000004 9.665063509461095
    vertex 85.0 30.647047612756307 9.914814565722669
  endloop
endfacet
facet normal 0.0 -0.2588190451025222 -0.9659258262890679
  outer loop
    vertex 85.0 30.647047612756307 9.914814565722669
    vertex 77.0 30.000000000000007 10.0
    vertex 77.0 30.647047612756307 9.914814565722669
  endloop
endfacet
facet normal 0.0 -1.0515109676863349e-15 -1.0
  outer loop
    vertex 77.0 30.000000000000007 10.0
    vertex 85.0 30.647047612756307 9.914814565722669
    vertex 85.0 30.000000000000007 10.0
  endloop
endfacet
facet normal 0.0 -1.0515109676863349e-15 -1.0
  outer loop
    vertex 85.0 30.000000000000007 10.0
    vertex 77.0 29.352952387243707 9.91481456572267
    vertex 77.0 30.000000000000007 10.0
  endloop
endfacet
facet normal 0.0 0.25881904510252113 -0.9659258262890682
  outer loop
    vertex 77.0 29.352952387243707 9.91481456572267
    vertex 85.0 30.000000000000007 10.0
    vertex 85.0 29.352952387243707 9.91481456572267
  endloop
endfacet
facet normal 0.0 0.25881904510252113 -0.9659258262890682
  outer loop
    vertex 85.0 29.352952387243707 9.91481456572267
    vertex 77.0 28.75000000000001 9.665063509461097
    vertex 77.0 29.352952387243707 9.91481456572267
  endloop
endfacet
facet normal 0.0 0.4999999999999997 -0.8660254037844389
  outer loop
    vertex 77.0 28.75000000000001 9.665063509461097
    vertex 85.0 29.352952387243707 9.91481456572267
    vertex 85.0 28.75000000000001 9.665063509461097
  endloop
endfacet
endsolid Untitled
