solid Faceplate Notched Top
facet normal 0.0 -1.0 0.0
  outer loop
    vertex 70.0 0.0 1.998000144958496
    vertex 68.0 0.0 -15.000000953674316
    vertex 70.0 0.0 -15.000000953674316
  endloop
endfacet
facet normal 0.0 -1.0 0.0
  outer loop
    vertex 68.0 0.0 -15.000000953674316
    vertex 70.0 0.0 1.998000144958496
    vertex 2.998000144958496 0.0 0.0
  endloop
endfacet
facet normal 0.0 -1.0 0.0
  outer loop
    vertex 2.998000144958496 0.0 0.0
    vertex 70.0 0.0 1.998000144958496
    vertex 2.998000144958496 0.0 1.998000144958496
  endloop
endfacet
facet normal 1.0 -0.0 -0.0
  outer loop
    vertex 70.0 0.0 -15.000000953674316
    vertex 70.0 10.322000503540039 -8.942000389099121
    vertex 70.0 0.0 1.998000144958496
  endloop
endfacet
facet normal 1.0 -0.0 -0.0
  outer loop
    vertex 70.0 10.322000503540039 -8.942000389099121
    vertex 70.0 0.0 -15.000000953674316
    vertex 70.0 10.736000061035154 -9.260000228881836
  endloop
endfacet
facet normal 1.0 -0.0 -0.0
  outer loop
    vertex 70.0 10.736000061035154 -9.260000228881836
    vertex 70.0 0.0 -15.000000953674316
    vertex 70.0 11.218000411987305 -9.460000038146973
  endloop
endfacet
facet normal 1.0 -0.0 -0.0
  outer loop
    vertex 70.0 11.218000411987305 -9.460000038146973
    vertex 70.0 0.0 -15.000000953674316
    vertex 70.0 11.73600101470947 -9.528000831604002
  endloop
endfacet
facet normal 1.0 -0.0 -0.0
  outer loop
    vertex 70.0 11.73600101470947 -9.528000831604002
    vertex 70.0 0.0 -15.000000953674316
    vertex 70.0 99.9980010986328 -15.000000953674316
  endloop
endfacet
facet normal 1.0 -0.0 -0.0
  outer loop
    vertex 70.0 0.0 1.998000144958496
    vertex 70.0 10.322000503540039 -8.942000389099121
    vertex 70.0 10.004000663757324 -8.528000831604004
  endloop
endfacet
facet normal 1.0 -0.0 -0.0
  outer loop
    vertex 70.0 0.0 1.998000144958496
    vertex 70.0 10.004000663757324 -8.528000831604004
    vertex 70.0 9.804000854492188 -8.044000625610352
  endloop
endfacet
facet normal 1.0 -0.0 -0.0
  outer loop
    vertex 70.0 0.0 1.998000144958496
    vertex 70.0 9.804000854492188 -8.044000625610352
    vertex 70.0 9.736000061035154 -7.528000354766846
  endloop
endfacet
facet normal 1.0 -0.0 -0.0
  outer loop
    vertex 70.0 11.73600101470947 -9.528000831604002
    vertex 70.0 99.9980010986328 -15.000000953674316
    vertex 70.0 12.254000663757322 -9.460000038146973
  endloop
endfacet
facet normal 1.0 -0.0 -0.0
  outer loop
    vertex 70.0 12.254000663757322 -9.460000038146973
    vertex 70.0 99.9980010986328 -15.000000953674316
    vertex 70.0 12.736001014709473 -9.260000228881836
  endloop
endfacet
facet normal 1.0 -0.0 -0.0
  outer loop
    vertex 70.0 12.736001014709473 -9.260000228881836
    vertex 70.0 99.9980010986328 -15.000000953674316
    vertex 70.0 13.15000057220459 -8.942000389099121
  endloop
endfacet
facet normal 1.0 -0.0 -0.0
  outer loop
    vertex 70.0 13.15000057220459 -8.942000389099121
    vertex 70.0 99.9980010986328 -15.000000953674316
    vertex 70.0 13.468000411987305 -8.528000831604004
  endloop
endfacet
facet normal 1.0 -0.0 -0.0
  outer loop
    vertex 70.0 13.468000411987305 -8.528000831604004
    vertex 70.0 99.9980010986328 -15.000000953674316
    vertex 70.0 13.668000221252441 -8.044000625610352
  endloop
endfacet
facet normal 1.0 -0.0 -0.0
  outer loop
    vertex 70.0 13.668000221252441 -8.044000625610352
    vertex 70.0 99.9980010986328 -15.000000953674316
    vertex 70.0 13.73600101470947 -7.528000354766846
  endloop
endfacet
facet normal 1.0 -0.0 -0.0
  outer loop
    vertex 70.0 13.73600101470947 -7.528000354766846
    vertex 70.0 99.9980010986328 -15.000000953674316
    vertex 70.0 75.73200225830078 -9.462000846862793
  endloop
endfacet
facet normal 1.0 -0.0 -0.0
  outer loop
    vertex 70.0 13.73600101470947 -7.528000354766846
    vertex 70.0 75.73200225830078 -9.462000846862793
    vertex 70.0 75.25 -9.26200008392334
  endloop
endfacet
facet normal 1.0 -0.0 -0.0
  outer loop
    vertex 70.0 13.73600101470947 -7.528000354766846
    vertex 70.0 75.25 -9.26200008392334
    vertex 70.0 74.83600616455078 -8.944000244140623
  endloop
endfacet
facet normal 1.0 -0.0 -0.0
  outer loop
    vertex 70.0 13.73600101470947 -7.528000354766846
    vertex 70.0 74.83600616455078 -8.944000244140623
    vertex 70.0 74.51800537109375 -8.530000686645508
  endloop
endfacet
facet normal 1.0 -0.0 -0.0
  outer loop
    vertex 70.0 13.73600101470947 -7.528000354766846
    vertex 70.0 74.51800537109375 -8.530000686645508
    vertex 70.0 74.31800079345703 -8.04800033569336
  endloop
endfacet
facet normal 1.0 -0.0 -0.0
  outer loop
    vertex 70.0 13.73600101470947 -7.528000354766846
    vertex 70.0 74.31800079345703 -8.04800033569336
    vertex 70.0 74.25 -7.530000209808349
  endloop
endfacet
facet normal 1.0 -0.0 -0.0
  outer loop
    vertex 70.0 75.73200225830078 -9.462000846862793
    vertex 70.0 99.9980010986328 -15.000000953674316
    vertex 70.0 76.25 -9.530000686645508
  endloop
endfacet
facet normal 1.0 -0.0 -0.0
  outer loop
    vertex 70.0 76.25 -9.530000686645508
    vertex 70.0 99.9980010986328 -15.000000953674316
    vertex 70.0 76.76800537109374 -9.462000846862793
  endloop
endfacet
facet normal 1.0 -0.0 -0.0
  outer loop
    vertex 70.0 76.76800537109374 -9.462000846862793
    vertex 70.0 99.9980010986328 -15.000000953674316
    vertex 70.0 77.25 -9.26200008392334
  endloop
endfacet
facet normal 1.0 -0.0 -0.0
  outer loop
    vertex 70.0 77.25 -9.26200008392334
    vertex 70.0 99.9980010986328 -15.000000953674316
    vertex 70.0 77.66400146484374 -8.944000244140623
  endloop
endfacet
facet normal 1.0 -0.0 -0.0
  outer loop
    vertex 70.0 77.66400146484374 -8.944000244140623
    vertex 70.0 99.9980010986328 -15.000000953674316
    vertex 70.0 77.98200225830077 -8.530000686645508
  endloop
endfacet
facet normal 1.0 -0.0 -0.0
  outer loop
    vertex 70.0 77.98200225830077 -8.530000686645508
    vertex 70.0 99.9980010986328 -15.000000953674316
    vertex 70.0 78.1820068359375 -8.04800033569336
  endloop
endfacet
facet normal 1.0 -0.0 -0.0
  outer loop
    vertex 70.0 78.1820068359375 -8.04800033569336
    vertex 70.0 99.9980010986328 -15.000000953674316
    vertex 70.0 78.24999999999999 -7.530000209808349
  endloop
endfacet
facet normal 1.0 -0.0 -0.0
  outer loop
    vertex 70.0 0.0 1.998000144958496
    vertex 70.0 11.73600101470947 -5.528000354766845
    vertex 70.0 99.9980010986328 1.998000144958496
  endloop
endfacet
facet normal 1.0 -0.0 -0.0
  outer loop
    vertex 70.0 11.73600101470947 -5.528000354766845
    vertex 70.0 0.0 1.998000144958496
    vertex 70.0 11.218000411987305 -5.59600019454956
  endloop
endfacet
facet normal 1.0 -0.0 -0.0
  outer loop
    vertex 70.0 11.218000411987305 -5.59600019454956
    vertex 70.0 0.0 1.998000144958496
    vertex 70.0 10.736000061035154 -5.796000480651855
  endloop
endfacet
facet normal 1.0 -0.0 -0.0
  outer loop
    vertex 70.0 10.736000061035154 -5.796000480651855
    vertex 70.0 0.0 1.998000144958496
    vertex 70.0 10.322000503540039 -6.114000320434569
  endloop
endfacet
facet normal 1.0 -0.0 -0.0
  outer loop
    vertex 70.0 10.322000503540039 -6.114000320434569
    vertex 70.0 0.0 1.998000144958496
    vertex 70.0 10.004000663757324 -6.528000354766845
  endloop
endfacet
facet normal 1.0 -0.0 -0.0
  outer loop
    vertex 70.0 10.004000663757324 -6.528000354766845
    vertex 70.0 0.0 1.998000144958496
    vertex 70.0 9.804000854492188 -7.010000228881835
  endloop
endfacet
facet normal 1.0 -0.0 -0.0
  outer loop
    vertex 70.0 9.804000854492188 -7.010000228881835
    vertex 70.0 0.0 1.998000144958496
    vertex 70.0 9.736000061035154 -7.528000354766846
  endloop
endfacet
facet normal 1.0 -0.0 -0.0
  outer loop
    vertex 70.0 99.9980010986328 1.998000144958496
    vertex 70.0 11.73600101470947 -5.528000354766845
    vertex 70.0 12.254000663757322 -5.59600019454956
  endloop
endfacet
facet normal 1.0 -0.0 -0.0
  outer loop
    vertex 70.0 99.9980010986328 1.998000144958496
    vertex 70.0 12.254000663757322 -5.59600019454956
    vertex 70.0 12.736001014709473 -5.796000480651855
  endloop
endfacet
facet normal 1.0 -0.0 -0.0
  outer loop
    vertex 70.0 99.9980010986328 1.998000144958496
    vertex 70.0 12.736001014709473 -5.796000480651855
    vertex 70.0 13.15000057220459 -6.114000320434569
  endloop
endfacet
facet normal 1.0 -0.0 -0.0
  outer loop
    vertex 70.0 99.9980010986328 1.998000144958496
    vertex 70.0 13.15000057220459 -6.114000320434569
    vertex 70.0 13.468000411987305 -6.528000354766845
  endloop
endfacet
facet normal 1.0 -0.0 -0.0
  outer loop
    vertex 70.0 99.9980010986328 1.998000144958496
    vertex 70.0 13.468000411987305 -6.528000354766845
    vertex 70.0 13.668000221252441 -7.010000228881835
  endloop
endfacet
facet normal 1.0 -0.0 -0.0
  outer loop
    vertex 70.0 99.9980010986328 1.998000144958496
    vertex 70.0 13.668000221252441 -7.010000228881835
    vertex 70.0 13.73600101470947 -7.528000354766846
  endloop
endfacet
facet normal 1.0 -0.0 -0.0
  outer loop
    vertex 70.0 99.9980010986328 1.998000144958496
    vertex 70.0 13.73600101470947 -7.528000354766846
    vertex 70.0 75.73200225830078 -5.5980000495910645
  endloop
endfacet
facet normal 1.0 -0.0 -0.0
  outer loop
    vertex 70.0 75.73200225830078 -5.5980000495910645
    vertex 70.0 13.73600101470947 -7.528000354766846
    vertex 70.0 75.25 -5.798000335693359
  endloop
endfacet
facet normal 1.0 -0.0 -0.0
  outer loop
    vertex 70.0 75.25 -5.798000335693359
    vertex 70.0 13.73600101470947 -7.528000354766846
    vertex 70.0 74.83600616455078 -6.116000175476074
  endloop
endfacet
facet normal 1.0 -0.0 -0.0
  outer loop
    vertex 70.0 74.83600616455078 -6.116000175476074
    vertex 70.0 13.73600101470947 -7.528000354766846
    vertex 70.0 74.51800537109375 -6.530000209808349
  endloop
endfacet
facet normal 1.0 -0.0 -0.0
  outer loop
    vertex 70.0 74.51800537109375 -6.530000209808349
    vertex 70.0 13.73600101470947 -7.528000354766846
    vertex 70.0 74.31800079345703 -7.012000560760497
  endloop
endfacet
facet normal 1.0 -0.0 -0.0
  outer loop
    vertex 70.0 74.31800079345703 -7.012000560760497
    vertex 70.0 13.73600101470947 -7.528000354766846
    vertex 70.0 74.25 -7.530000209808349
  endloop
endfacet
facet normal 1.0 -0.0 -0.0
  outer loop
    vertex 70.0 99.9980010986328 1.998000144958496
    vertex 70.0 75.73200225830078 -5.5980000495910645
    vertex 70.0 76.25 -5.53000020980835
  endloop
endfacet
facet normal 1.0 -0.0 -0.0
  outer loop
    vertex 70.0 99.9980010986328 1.998000144958496
    vertex 70.0 76.25 -5.53000020980835
    vertex 70.0 76.76800537109374 -5.5980000495910645
  endloop
endfacet
facet normal 1.0 -0.0 -0.0
  outer loop
    vertex 70.0 99.9980010986328 1.998000144958496
    vertex 70.0 76.76800537109374 -5.5980000495910645
    vertex 70.0 77.25 -5.798000335693359
  endloop
endfacet
facet normal 1.0 -0.0 -0.0
  outer loop
    vertex 70.0 99.9980010986328 1.998000144958496
    vertex 70.0 77.25 -5.798000335693359
    vertex 70.0 77.66400146484374 -6.116000175476074
  endloop
endfacet
facet normal 1.0 -0.0 -0.0
  outer loop
    vertex 70.0 99.9980010986328 1.998000144958496
    vertex 70.0 77.66400146484374 -6.116000175476074
    vertex 70.0 77.98200225830077 -6.530000209808349
  endloop
endfacet
facet normal 1.0 -0.0 -0.0
  outer loop
    vertex 70.0 99.9980010986328 1.998000144958496
    vertex 70.0 77.98200225830077 -6.530000209808349
    vertex 70.0 78.1820068359375 -7.012000560760497
  endloop
endfacet
facet normal 1.0 -0.0 -0.0
  outer loop
    vertex 70.0 99.9980010986328 1.998000144958496
    vertex 70.0 78.1820068359375 -7.012000560760497
    vertex 70.0 78.24999999999999 -7.530000209808349
  endloop
endfacet
facet normal 1.0 -0.0 -0.0
  outer loop
    vertex 70.0 99.9980010986328 1.998000144958496
    vertex 70.0 78.24999999999999 -7.530000209808349
    vertex 70.0 99.9980010986328 -15.000000953674316
  endloop
endfacet
facet normal 1.0 -0.0 -0.0
  outer loop
    vertex 19.999999999999996 74.0 0.0
    vertex 19.999999999999996 68.9990005493164 1.998000144958496
    vertex 19.999999999999996 68.9990005493164 0.0
  endloop
endfacet
facet normal 1.0 -0.0 -0.0
  outer loop
    vertex 19.999999999999996 68.9990005493164 1.998000144958496
    vertex 19.999999999999996 74.0 0.0
    vertex 19.999999999999996 74.0 1.998000144958496
  endloop
endfacet
facet normal -0.0 1.0 -0.0
  outer loop
    vertex 19.999999999999996 61.99800109863281 1.998000144958496
    vertex 47.99800109863281 61.99800109863281 0.0
    vertex 19.999999999999996 61.99800109863281 0.0
  endloop
endfacet
facet normal -0.0 1.0 -0.0
  outer loop
    vertex 47.99800109863281 61.99800109863281 0.0
    vertex 19.999999999999996 61.99800109863281 1.998000144958496
    vertex 47.99800109863281 61.99800109863281 1.998000144958496
  endloop
endfacet
facet normal -1.0 0.0 0.0
  outer loop
    vertex 47.99800109863281 74.0 1.998000144958496
    vertex 47.99800109863281 61.99800109863281 0.0
    vertex 47.99800109863281 61.99800109863281 1.998000144958496
  endloop
endfacet
facet normal -1.0 0.0 0.0
  outer loop
    vertex 47.99800109863281 61.99800109863281 0.0
    vertex 47.99800109863281 74.0 1.998000144958496
    vertex 47.99800109863281 74.0 0.0
  endloop
endfacet
facet normal 0.0 -1.0 0.0
  outer loop
    vertex 47.99800109863281 74.0 1.998000144958496
    vertex 19.999999999999996 74.0 0.0
    vertex 47.99800109863281 74.0 0.0
  endloop
endfacet
facet normal 0.0 -1.0 0.0
  outer loop
    vertex 19.999999999999996 74.0 0.0
    vertex 47.99800109863281 74.0 1.998000144958496
    vertex 19.999999999999996 74.0 1.998000144958496
  endloop
endfacet
facet normal -0.0 1.0 -0.0
  outer loop
    vertex 19.999999999999996 79.99999999999999 1.998000144958496
    vertex 47.99800109863281 79.99999999999999 0.0
    vertex 19.999999999999996 79.99999999999999 0.0
  endloop
endfacet
facet normal -0.0 1.0 -0.0
  outer loop
    vertex 47.99800109863281 79.99999999999999 0.0
    vertex 19.999999999999996 79.99999999999999 1.998000144958496
    vertex 47.99800109863281 79.99999999999999 1.998000144958496
  endloop
endfacet
facet normal -1.0 0.0 0.0
  outer loop
    vertex 47.99800109863281 91.9980010986328 1.998000144958496
    vertex 47.99800109863281 79.99999999999999 0.0
    vertex 47.99800109863281 79.99999999999999 1.998000144958496
  endloop
endfacet
facet normal -1.0 0.0 0.0
  outer loop
    vertex 47.99800109863281 79.99999999999999 0.0
    vertex 47.99800109863281 91.9980010986328 1.998000144958496
    vertex 47.99800109863281 91.9980010986328 0.0
  endloop
endfacet
facet normal 0.0 -1.0 0.0
  outer loop
    vertex 47.99800109863281 91.9980010986328 1.998000144958496
    vertex 19.999999999999996 91.9980010986328 0.0
    vertex 47.99800109863281 91.9980010986328 0.0
  endloop
endfacet
facet normal 0.0 -1.0 0.0
  outer loop
    vertex 19.999999999999996 91.9980010986328 0.0
    vertex 47.99800109863281 91.9980010986328 1.998000144958496
    vertex 19.999999999999996 91.9980010986328 1.998000144958496
  endloop
endfacet
facet normal 1.0 -0.0 -0.0
  outer loop
    vertex 19.999999999999996 91.9980010986328 0.0
    vertex 19.999999999999996 86.99900054931639 1.9980001449584956
    vertex 19.999999999999996 86.99900054931639 0.0
  endloop
endfacet
facet normal 1.0 -0.0 -0.0
  outer loop
    vertex 19.999999999999996 86.99900054931639 1.9980001449584956
    vertex 19.999999999999996 91.9980010986328 0.0
    vertex 19.999999999999996 91.9980010986328 1.998000144958496
  endloop
endfacet
facet normal -1.0 0.0 0.0
  outer loop
    vertex 68.0 41.00000381469726 0.0
    vertex 68.0 75.73200225830078 -5.5980000495910645
    vertex 68.0 41.00000381469726 -15.000000953674316
  endloop
endfacet
facet normal -1.0 0.0 0.0
  outer loop
    vertex 68.0 75.73200225830078 -5.5980000495910645
    vertex 68.0 41.00000381469726 0.0
    vertex 68.0 97.9980010986328 0.0
  endloop
endfacet
facet normal -1.0 0.0 0.0
  outer loop
    vertex 68.0 41.00000381469726 -15.000000953674316
    vertex 68.0 75.73200225830078 -5.5980000495910645
    vertex 68.0 75.25 -5.798000335693359
  endloop
endfacet
facet normal -1.0 0.0 0.0
  outer loop
    vertex 68.0 41.00000381469726 -15.000000953674316
    vertex 68.0 75.25 -5.798000335693359
    vertex 68.0 74.83600616455078 -6.116000175476074
  endloop
endfacet
facet normal -1.0 0.0 0.0
  outer loop
    vertex 68.0 41.00000381469726 -15.000000953674316
    vertex 68.0 74.83600616455078 -6.116000175476074
    vertex 68.0 74.51800537109375 -6.530000209808349
  endloop
endfacet
facet normal -1.0 0.0 0.0
  outer loop
    vertex 68.0 41.00000381469726 -15.000000953674316
    vertex 68.0 74.51800537109375 -6.530000209808349
    vertex 68.0 74.31800079345703 -7.012000560760497
  endloop
endfacet
facet normal -1.0 0.0 0.0
  outer loop
    vertex 68.0 41.00000381469726 -15.000000953674316
    vertex 68.0 74.31800079345703 -7.012000560760497
    vertex 68.0 74.25 -7.530000209808349
  endloop
endfacet
facet normal -1.0 0.0 0.0
  outer loop
    vertex 68.0 75.73200225830078 -5.5980000495910645
    vertex 68.0 97.9980010986328 0.0
    vertex 68.0 76.25 -5.53000020980835
  endloop
endfacet
facet normal -1.0 0.0 0.0
  outer loop
    vertex 68.0 76.25 -5.53000020980835
    vertex 68.0 97.9980010986328 0.0
    vertex 68.0 76.76800537109374 -5.5980000495910645
  endloop
endfacet
facet normal -1.0 0.0 0.0
  outer loop
    vertex 68.0 76.76800537109374 -5.5980000495910645
    vertex 68.0 97.9980010986328 0.0
    vertex 68.0 77.25 -5.798000335693359
  endloop
endfacet
facet normal -1.0 0.0 0.0
  outer loop
    vertex 68.0 77.25 -5.798000335693359
    vertex 68.0 97.9980010986328 0.0
    vertex 68.0 77.66400146484374 -6.116000175476074
  endloop
endfacet
facet normal -1.0 0.0 0.0
  outer loop
    vertex 68.0 77.66400146484374 -6.116000175476074
    vertex 68.0 97.9980010986328 0.0
    vertex 68.0 77.98200225830077 -6.530000209808349
  endloop
endfacet
facet normal -1.0 0.0 0.0
  outer loop
    vertex 68.0 77.98200225830077 -6.530000209808349
    vertex 68.0 97.9980010986328 0.0
    vertex 68.0 78.1820068359375 -7.012000560760497
  endloop
endfacet
facet normal -1.0 0.0 0.0
  outer loop
    vertex 68.0 78.1820068359375 -7.012000560760497
    vertex 68.0 97.9980010986328 0.0
    vertex 68.0 78.24999999999999 -7.530000209808349
  endloop
endfacet
facet normal -1.0 0.0 0.0
  outer loop
    vertex 68.0 41.00000381469726 -15.000000953674316
    vertex 68.0 75.73200225830078 -9.462000846862793
    vertex 68.0 97.9980010986328 -15.000000953674316
  endloop
endfacet
facet normal -1.0 0.0 0.0
  outer loop
    vertex 68.0 75.73200225830078 -9.462000846862793
    vertex 68.0 41.00000381469726 -15.000000953674316
    vertex 68.0 75.25 -9.26200008392334
  endloop
endfacet
facet normal -1.0 0.0 0.0
  outer loop
    vertex 68.0 75.25 -9.26200008392334
    vertex 68.0 41.00000381469726 -15.000000953674316
    vertex 68.0 74.83600616455078 -8.944000244140623
  endloop
endfacet
facet normal -1.0 0.0 0.0
  outer loop
    vertex 68.0 74.83600616455078 -8.944000244140623
    vertex 68.0 41.00000381469726 -15.000000953674316
    vertex 68.0 74.51800537109375 -8.530000686645508
  endloop
endfacet
facet normal -1.0 0.0 0.0
  outer loop
    vertex 68.0 74.51800537109375 -8.530000686645508
    vertex 68.0 41.00000381469726 -15.000000953674316
    vertex 68.0 74.31800079345703 -8.04800033569336
  endloop
endfacet
facet normal -1.0 0.0 0.0
  outer loop
    vertex 68.0 74.31800079345703 -8.04800033569336
    vertex 68.0 41.00000381469726 -15.000000953674316
    vertex 68.0 74.25 -7.530000209808349
  endloop
endfacet
facet normal -1.0 0.0 0.0
  outer loop
    vertex 68.0 97.9980010986328 -15.000000953674316
    vertex 68.0 75.73200225830078 -9.462000846862793
    vertex 68.0 76.25 -9.530000686645508
  endloop
endfacet
facet normal -1.0 0.0 0.0
  outer loop
    vertex 68.0 97.9980010986328 -15.000000953674316
    vertex 68.0 76.25 -9.530000686645508
    vertex 68.0 76.76800537109374 -9.462000846862793
  endloop
endfacet
facet normal -1.0 0.0 0.0
  outer loop
    vertex 68.0 97.9980010986328 -15.000000953674316
    vertex 68.0 76.76800537109374 -9.462000846862793
    vertex 68.0 77.25 -9.26200008392334
  endloop
endfacet
facet normal -1.0 0.0 0.0
  outer loop
    vertex 68.0 97.9980010986328 -15.000000953674316
    vertex 68.0 77.25 -9.26200008392334
    vertex 68.0 77.66400146484374 -8.944000244140623
  endloop
endfacet
facet normal -1.0 0.0 0.0
  outer loop
    vertex 68.0 97.9980010986328 -15.000000953674316
    vertex 68.0 77.66400146484374 -8.944000244140623
    vertex 68.0 77.98200225830077 -8.530000686645508
  endloop
endfacet
facet normal -1.0 0.0 0.0
  outer loop
    vertex 68.0 97.9980010986328 -15.000000953674316
    vertex 68.0 77.98200225830077 -8.530000686645508
    vertex 68.0 78.1820068359375 -8.04800033569336
  endloop
endfacet
facet normal -1.0 0.0 0.0
  outer loop
    vertex 68.0 97.9980010986328 -15.000000953674316
    vertex 68.0 78.1820068359375 -8.04800033569336
    vertex 68.0 78.24999999999999 -7.530000209808349
  endloop
endfacet
facet normal -1.0 0.0 0.0
  outer loop
    vertex 68.0 97.9980010986328 -15.000000953674316
    vertex 68.0 78.24999999999999 -7.530000209808349
    vertex 68.0 97.9980010986328 0.0
  endloop
endfacet
facet normal -0.0 1.0 -0.0
  outer loop
    vertex 56.99800109863281 41.00000381469726 0.0
    vertex 68.0 41.00000381469726 -15.000000953674316
    vertex 56.99800109863281 41.00000381469726 -15.000000953674316
  endloop
endfacet
facet normal -0.0 1.0 -0.0
  outer loop
    vertex 68.0 41.00000381469726 -15.000000953674316
    vertex 56.99800109863281 41.00000381469726 0.0
    vertex 68.0 41.00000381469726 0.0
  endloop
endfacet
facet normal 0.0 -1.0 0.0
  outer loop
    vertex 68.0 38.99999999999999 0.0
    vertex 56.99800109863281 38.99999999999999 -15.000000953674316
    vertex 68.0 38.99999999999999 -15.000000953674316
  endloop
endfacet
facet normal 0.0 -1.0 0.0
  outer loop
    vertex 56.99800109863281 38.99999999999999 -15.000000953674316
    vertex 68.0 38.99999999999999 0.0
    vertex 56.99800109863281 38.99999999999999 0.0
  endloop
endfacet
facet normal 0.0 0.0 -1.0
  outer loop
    vertex 70.0 99.9980010986328 -15.000000953674316
    vertex 68.0 97.9980010986328 -15.000000953674316
    vertex 68.0 99.9980010986328 -15.000000953674316
  endloop
endfacet
facet normal 0.0 0.0 -1.0
  outer loop
    vertex 68.0 97.9980010986328 -15.000000953674316
    vertex 70.0 99.9980010986328 -15.000000953674316
    vertex 68.0 41.00000381469726 -15.000000953674316
  endloop
endfacet
facet normal 0.0 0.0 -1.0
  outer loop
    vertex 68.0 41.00000381469726 -15.000000953674316
    vertex 70.0 99.9980010986328 -15.000000953674316
    vertex 68.0 38.99999999999999 -15.000000953674316
  endloop
endfacet
facet normal 0.0 0.0 -1.0
  outer loop
    vertex 68.0 38.99999999999999 -15.000000953674316
    vertex 70.0 99.9980010986328 -15.000000953674316
    vertex 68.0 1.998000144958496 -15.000000953674316
  endloop
endfacet
facet normal 0.0 0.0 -1.0
  outer loop
    vertex 68.0 1.998000144958496 -15.000000953674316
    vertex 70.0 99.9980010986328 -15.000000953674316
    vertex 68.0 0.0 -15.000000953674316
  endloop
endfacet
facet normal 0.0 0.0 -1.0
  outer loop
    vertex 68.0 0.0 -15.000000953674316
    vertex 70.0 99.9980010986328 -15.000000953674316
    vertex 70.0 0.0 -15.000000953674316
  endloop
endfacet
facet normal 0.0 0.0 -1.0
  outer loop
    vertex 68.0 41.00000381469726 -15.000000953674316
    vertex 56.99800109863281 38.99999999999999 -15.000000953674316
    vertex 56.99800109863281 41.00000381469726 -15.000000953674316
  endloop
endfacet
facet normal 0.0 0.0 -1.0
  outer loop
    vertex 56.99800109863281 38.99999999999999 -15.000000953674316
    vertex 68.0 41.00000381469726 -15.000000953674316
    vertex 68.0 38.99999999999999 -15.000000953674316
  endloop
endfacet
facet normal -0.22485295193784907 1.1925278788061844e-30 -0.9743927083085316
  outer loop
    vertex 68.0 99.9980010986328 -15.000000953674316
    vertex 2.998000144958496 97.9980010986328 0.0
    vertex 2.998000144958496 99.9980010986328 0.0
  endloop
endfacet
facet normal -0.22485295193784907 1.1925278788061844e-30 -0.9743927083085316
  outer loop
    vertex 2.998000144958496 97.9980010986328 0.0
    vertex 68.0 99.9980010986328 -15.000000953674316
    vertex 68.0 97.9980010986328 -15.000000953674316
  endloop
endfacet
facet normal 9.558438605976716e-18 -0.7930512345749295 -0.6091549386971922
  outer loop
    vertex 70.0 13.15000057220459 -6.114000320434569
    vertex 68.0 13.468000411987305 -6.528000354766845
    vertex 70.0 13.468000411987305 -6.528000354766845
  endloop
endfacet
facet normal 1.9116877211953435e-17 -0.7930512345749295 -0.6091549386971923
  outer loop
    vertex 68.0 13.15000057220459 -6.114000320434569
    vertex 68.0 13.468000411987305 -6.528000354766845
    vertex 70.0 13.15000057220459 -6.114000320434569
  endloop
endfacet
facet normal 0.0 -0.9236429584102054 -0.38325407418479424
  outer loop
    vertex 70.0 13.468000411987305 -6.528000354766845
    vertex 68.0 13.668000221252441 -7.010000228881835
    vertex 70.0 13.668000221252441 -7.010000228881835
  endloop
endfacet
facet normal -2.4638711508818754e-17 -0.9236429584102054 -0.3832540741847942
  outer loop
    vertex 68.0 13.468000411987305 -6.528000354766845
    vertex 68.0 13.668000221252441 -7.010000228881835
    vertex 70.0 13.468000411987305 -6.528000354766845
  endloop
endfacet
facet normal 0.0 -0.9914931485659212 -0.13015888885065138
  outer loop
    vertex 70.0 13.668000221252441 -7.010000228881835
    vertex 68.0 13.73600101470947 -7.528000354766846
    vertex 70.0 13.73600101470947 -7.528000354766846
  endloop
endfacet
facet normal 3.816686203154365e-18 -0.9914931485659212 -0.1301588888506514
  outer loop
    vertex 68.0 13.668000221252441 -7.010000228881835
    vertex 68.0 13.73600101470947 -7.528000354766846
    vertex 70.0 13.668000221252441 -7.010000228881835
  endloop
endfacet
facet normal 3.846075076536711e-18 -0.9914279281000625 0.13065474879703956
  outer loop
    vertex 70.0 13.73600101470947 -7.528000354766846
    vertex 68.0 13.668000221252441 -8.044000625610352
    vertex 70.0 13.668000221252441 -8.044000625610352
  endloop
endfacet
facet normal 0.0 -0.9914279281000625 0.13065474879703956
  outer loop
    vertex 68.0 13.73600101470947 -7.528000354766846
    vertex 68.0 13.668000221252441 -8.044000625610352
    vertex 70.0 13.73600101470947 -7.528000354766846
  endloop
endfacet
facet normal 0.0 -0.9242030134107159 0.38190154490726025
  outer loop
    vertex 70.0 13.668000221252441 -8.044000625610352
    vertex 68.0 13.468000411987305 -8.528000831604004
    vertex 70.0 13.468000411987305 -8.528000831604004
  endloop
endfacet
facet normal 0.0 -0.9242030134107159 0.3819015449072602
  outer loop
    vertex 68.0 13.668000221252441 -8.044000625610352
    vertex 68.0 13.468000411987305 -8.528000831604004
    vertex 70.0 13.668000221252441 -8.044000625610352
  endloop
endfacet
facet normal -9.558456539257366e-18 -0.7930508956316952 0.6091553799629175
  outer loop
    vertex 70.0 13.468000411987305 -8.528000831604004
    vertex 68.0 13.15000057220459 -8.942000389099121
    vertex 70.0 13.15000057220459 -8.942000389099121
  endloop
endfacet
facet normal -1.9116913078514733e-17 -0.7930508956316952 0.6091553799629175
  outer loop
    vertex 68.0 13.468000411987305 -8.528000831604004
    vertex 68.0 13.15000057220459 -8.942000389099121
    vertex 70.0 13.468000411987305 -8.528000831604004
  endloop
endfacet
facet normal 9.558456539257431e-18 -0.6091553799629169 0.7930508956316955
  outer loop
    vertex 70.0 12.736001014709473 -9.260000228881836
    vertex 68.0 13.15000057220459 -8.942000389099121
    vertex 68.0 12.736001014709473 -9.260000228881836
  endloop
endfacet
facet normal -2.86753696177723e-17 -0.609155379962917 0.7930508956316953
  outer loop
    vertex 70.0 13.15000057220459 -8.942000389099121
    vertex 68.0 13.15000057220459 -8.942000389099121
    vertex 70.0 12.736001014709473 -9.260000228881836
  endloop
endfacet
facet normal -0.0 -0.38325375072682166 0.9236430926249724
  outer loop
    vertex 70.0 12.254000663757322 -9.460000038146973
    vertex 68.0 12.736001014709473 -9.260000228881836
    vertex 68.0 12.254000663757322 -9.460000038146973
  endloop
endfacet
facet normal 8.21288877984322e-18 -0.38325375072682166 0.9236430926249724
  outer loop
    vertex 70.0 12.736001014709473 -9.260000228881836
    vertex 68.0 12.736001014709473 -9.260000228881836
    vertex 70.0 12.254000663757322 -9.460000038146973
  endloop
endfacet
facet normal -0.0 -0.13015900663671112 0.9914931331034748
  outer loop
    vertex 70.0 11.73600101470947 -9.528000831604002
    vertex 68.0 12.254000663757322 -9.460000038146973
    vertex 68.0 11.73600101470947 -9.528000831604002
  endloop
endfacet
facet normal -0.0 -0.13015900663671112 0.9914931331034748
  outer loop
    vertex 70.0 12.254000663757322 -9.460000038146973
    vertex 68.0 12.254000663757322 -9.460000038146973
    vertex 70.0 11.73600101470947 -9.528000831604002
  endloop
endfacet
facet normal 3.816679235900291e-18 0.13015877106480908 0.9914931640283249
  outer loop
    vertex 70.0 11.218000411987305 -9.460000038146973
    vertex 68.0 11.73600101470947 -9.528000831604002
    vertex 68.0 11.218000411987305 -9.460000038146973
  endloop
endfacet
facet normal -0.0 0.13015877106480905 0.9914931640283249
  outer loop
    vertex 70.0 11.73600101470947 -9.528000831604002
    vertex 68.0 11.73600101470947 -9.528000831604002
    vertex 70.0 11.218000411987305 -9.460000038146973
  endloop
endfacet
facet normal -0.0 0.38325375072682166 0.9236430926249724
  outer loop
    vertex 70.0 10.736000061035154 -9.260000228881836
    vertex 68.0 11.218000411987305 -9.460000038146973
    vertex 68.0 10.736000061035154 -9.260000228881836
  endloop
endfacet
facet normal -8.212888779843219e-18 0.3832537507268218 0.9236430926249724
  outer loop
    vertex 70.0 11.218000411987305 -9.460000038146973
    vertex 68.0 11.218000411987305 -9.460000038146973
    vertex 70.0 10.736000061035154 -9.260000228881836
  endloop
endfacet
facet normal -2.86753696177723e-17 0.6091553799629168 0.7930508956316955
  outer loop
    vertex 70.0 10.322000503540039 -8.942000389099121
    vertex 68.0 10.736000061035154 -9.260000228881836
    vertex 68.0 10.322000503540039 -8.942000389099121
  endloop
endfacet
facet normal -9.558456539257434e-18 0.609155379962917 0.7930508956316954
  outer loop
    vertex 70.0 10.736000061035154 -9.260000228881836
    vertex 68.0 10.736000061035154 -9.260000228881836
    vertex 70.0 10.322000503540039 -8.942000389099121
  endloop
endfacet
facet normal 1.9116913078514764e-17 0.7930508956316964 0.6091553799629157
  outer loop
    vertex 68.0 10.004000663757324 -8.528000831604004
    vertex 70.0 10.322000503540039 -8.942000389099121
    vertex 68.0 10.322000503540039 -8.942000389099121
  endloop
endfacet
facet normal -0.0 0.7930508956316964 0.6091553799629157
  outer loop
    vertex 70.0 10.004000663757324 -8.528000831604004
    vertex 70.0 10.322000503540039 -8.942000389099121
    vertex 68.0 10.004000663757324 -8.528000831604004
  endloop
endfacet
facet normal 8.150096500631413e-18 0.9242030134107159 0.38190154490726025
  outer loop
    vertex 68.0 9.804000854492188 -8.044000625610352
    vertex 70.0 10.004000663757324 -8.528000831604004
    vertex 68.0 10.004000663757324 -8.528000831604004
  endloop
endfacet
facet normal -8.150096500631413e-18 0.9242030134107159 0.3819015449072601
  outer loop
    vertex 70.0 9.804000854492188 -8.044000625610352
    vertex 70.0 10.004000663757324 -8.528000831604004
    vertex 68.0 9.804000854492188 -8.044000625610352
  endloop
endfacet
facet normal -3.846075076536708e-18 0.9914279281000619 0.13065474879704486
  outer loop
    vertex 68.0 9.736000061035154 -7.528000354766846
    vertex 70.0 9.804000854492188 -8.044000625610352
    vertex 68.0 9.804000854492188 -8.044000625610352
  endloop
endfacet
facet normal -3.846075076536708e-18 0.9914279281000619 0.13065474879704486
  outer loop
    vertex 70.0 9.736000061035154 -7.528000354766846
    vertex 70.0 9.804000854492188 -8.044000625610352
    vertex 68.0 9.736000061035154 -7.528000354766846
  endloop
endfacet
facet normal -3.816686203154362e-18 0.9914931485659205 -0.13015888885065674
  outer loop
    vertex 68.0 9.804000854492188 -7.010000228881835
    vertex 70.0 9.736000061035154 -7.528000354766846
    vertex 68.0 9.736000061035154 -7.528000354766846
  endloop
endfacet
facet normal -7.633372406308724e-18 0.9914931485659205 -0.13015888885065677
  outer loop
    vertex 70.0 9.804000854492188 -7.010000228881835
    vertex 70.0 9.736000061035154 -7.528000354766846
    vertex 68.0 9.804000854492188 -7.010000228881835
  endloop
endfacet
facet normal 8.212903836272919e-18 0.9236429584102054 -0.3832540741847942
  outer loop
    vertex 68.0 10.004000663757324 -6.528000354766845
    vertex 70.0 9.804000854492188 -7.010000228881835
    vertex 68.0 9.804000854492188 -7.010000228881835
  endloop
endfacet
facet normal -0.0 0.9236429584102054 -0.38325407418479424
  outer loop
    vertex 70.0 10.004000663757324 -6.528000354766845
    vertex 70.0 9.804000854492188 -7.010000228881835
    vertex 68.0 10.004000663757324 -6.528000354766845
  endloop
endfacet
facet normal -1.9116877211953466e-17 0.7930512345749308 -0.6091549386971906
  outer loop
    vertex 68.0 10.322000503540039 -6.114000320434569
    vertex 70.0 10.004000663757324 -6.528000354766845
    vertex 68.0 10.004000663757324 -6.528000354766845
  endloop
endfacet
facet normal -2.86753158179302e-17 0.793051234574931 -0.6091549386971906
  outer loop
    vertex 70.0 10.322000503540039 -6.114000320434569
    vertex 70.0 10.004000663757324 -6.528000354766845
    vertex 68.0 10.322000503540039 -6.114000320434569
  endloop
endfacet
facet normal -2.867536961777228e-17 0.609155379962918 -0.7930508956316947
  outer loop
    vertex 70.0 10.736000061035154 -5.796000480651855
    vertex 68.0 10.322000503540039 -6.114000320434569
    vertex 68.0 10.736000061035154 -5.796000480651855
  endloop
endfacet
facet normal 2.867536961777227e-17 0.6091553799629177 -0.7930508956316948
  outer loop
    vertex 70.0 10.322000503540039 -6.114000320434569
    vertex 68.0 10.322000503540039 -6.114000320434569
    vertex 70.0 10.736000061035154 -5.796000480651855
  endloop
endfacet
facet normal 0.0 0.38325453026083317 -0.9236427691670347
  outer loop
    vertex 70.0 11.218000411987305 -5.59600019454956
    vertex 68.0 10.736000061035154 -5.796000480651855
    vertex 68.0 11.218000411987305 -5.59600019454956
  endloop
endfacet
facet normal 0.0 0.38325453026083306 -0.9236427691670347
  outer loop
    vertex 70.0 10.736000061035154 -5.796000480651855
    vertex 68.0 10.736000061035154 -5.796000480651855
    vertex 70.0 11.218000411987305 -5.59600019454956
  endloop
endfacet
facet normal 7.633360285418309e-18 0.1301569765826336 -0.9914933995982362
  outer loop
    vertex 70.0 11.73600101470947 -5.528000354766845
    vertex 68.0 11.218000411987305 -5.59600019454956
    vertex 68.0 11.73600101470947 -5.528000354766845
  endloop
endfacet
facet normal 0.0 0.1301569765826336 -0.9914933995982362
  outer loop
    vertex 70.0 11.218000411987305 -5.59600019454956
    vertex 68.0 11.218000411987305 -5.59600019454956
    vertex 70.0 11.73600101470947 -5.528000354766845
  endloop
endfacet
facet normal -3.816694077242958e-18 -0.13015721215139978 -0.9914933686742314
  outer loop
    vertex 70.0 12.254000663757322 -5.59600019454956
    vertex 68.0 11.73600101470947 -5.528000354766845
    vertex 68.0 12.254000663757322 -5.59600019454956
  endloop
endfacet
facet normal 0.0 -0.1301572121513998 -0.9914933686742314
  outer loop
    vertex 70.0 11.73600101470947 -5.528000354766845
    vertex 68.0 11.73600101470947 -5.528000354766845
    vertex 70.0 12.254000663757322 -5.59600019454956
  endloop
endfacet
facet normal -8.212885903706226e-18 -0.38325453026083306 -0.9236427691670347
  outer loop
    vertex 70.0 12.736001014709473 -5.796000480651855
    vertex 68.0 12.254000663757322 -5.59600019454956
    vertex 68.0 12.736001014709473 -5.796000480651855
  endloop
endfacet
facet normal 8.212885903706228e-18 -0.3832545302608331 -0.9236427691670347
  outer loop
    vertex 70.0 12.254000663757322 -5.59600019454956
    vertex 68.0 12.254000663757322 -5.59600019454956
    vertex 70.0 12.736001014709473 -5.796000480651855
  endloop
endfacet
facet normal 0.0 -0.6091553799629179 -0.7930508956316947
  outer loop
    vertex 70.0 13.15000057220459 -6.114000320434569
    vertex 68.0 12.736001014709473 -5.796000480651855
    vertex 68.0 13.15000057220459 -6.114000320434569
  endloop
endfacet
facet normal -2.867536961777227e-17 -0.6091553799629177 -0.7930508956316948
  outer loop
    vertex 70.0 12.736001014709473 -5.796000480651855
    vertex 68.0 12.736001014709473 -5.796000480651855
    vertex 70.0 13.15000057220459 -6.114000320434569
  endloop
endfacet
facet normal 9.558384806425009e-18 -0.6091536149027196 0.7930522514002147
  outer loop
    vertex 70.0 77.25 -9.26200008392334
    vertex 68.0 77.66400146484374 -8.944000244140623
    vertex 68.0 77.25 -9.26200008392334
  endloop
endfacet
facet normal 9.558384806425009e-18 -0.6091536149027196 0.7930522514002147
  outer loop
    vertex 70.0 77.66400146484374 -8.944000244140623
    vertex 68.0 77.66400146484374 -8.944000244140623
    vertex 70.0 77.25 -9.26200008392334
  endloop
endfacet
facet normal -8.213063707150137e-18 -0.38325919133296943 0.9236408350970623
  outer loop
    vertex 70.0 76.76800537109374 -9.462000846862793
    vertex 68.0 77.25 -9.26200008392334
    vertex 68.0 76.76800537109374 -9.462000846862793
  endloop
endfacet
facet normal -0.0 -0.3832591913329694 0.9236408350970623
  outer loop
    vertex 70.0 77.25 -9.26200008392334
    vertex 68.0 77.25 -9.26200008392334
    vertex 70.0 76.76800537109374 -9.462000846862793
  endloop
endfacet
facet normal -7.633220942363224e-18 -0.13015579875148334 0.9914935542157415
  outer loop
    vertex 70.0 76.25 -9.530000686645508
    vertex 68.0 76.76800537109374 -9.462000846862793
    vertex 68.0 76.25 -9.530000686645508
  endloop
endfacet
facet normal -0.0 -0.13015579875148334 0.9914935542157415
  outer loop
    vertex 70.0 76.76800537109374 -9.462000846862793
    vertex 68.0 76.76800537109374 -9.462000846862793
    vertex 70.0 76.25 -9.530000686645508
  endloop
endfacet
facet normal -0.0 0.13015768329146854 0.9914933068257182
  outer loop
    vertex 70.0 75.73200225830078 -9.462000846862793
    vertex 68.0 76.25 -9.530000686645508
    vertex 68.0 75.73200225830078 -9.462000846862793
  endloop
endfacet
facet normal -0.0 0.13015768329146854 0.9914933068257182
  outer loop
    vertex 70.0 76.25 -9.530000686645508
    vertex 68.0 76.25 -9.530000686645508
    vertex 70.0 75.73200225830078 -9.462000846862793
  endloop
endfacet
facet normal 1.6425645604665367e-17 0.3832540159636798 0.9236429825683251
  outer loop
    vertex 70.0 75.25 -9.26200008392334
    vertex 68.0 75.73200225830078 -9.462000846862793
    vertex 68.0 75.25 -9.26200008392334
  endloop
endfacet
facet normal -0.0 0.3832540159636797 0.9236429825683251
  outer loop
    vertex 70.0 75.73200225830078 -9.462000846862793
    vertex 68.0 75.73200225830078 -9.462000846862793
    vertex 70.0 75.25 -9.26200008392334
  endloop
endfacet
facet normal -0.0 0.6091606751867834 0.7930468282554204
  outer loop
    vertex 70.0 74.83600616455078 -8.944000244140623
    vertex 68.0 75.25 -9.26200008392334
    vertex 68.0 74.83600616455078 -8.944000244140623
  endloop
endfacet
facet normal -9.558671742399417e-18 0.6091606751867834 0.7930468282554203
  outer loop
    vertex 70.0 75.25 -9.26200008392334
    vertex 68.0 75.25 -9.26200008392334
    vertex 70.0 74.83600616455078 -8.944000244140623
  endloop
endfacet
facet normal 1.9116891804618174e-17 0.7930500130999415 0.6091565289169794
  outer loop
    vertex 68.0 74.51800537109375 -8.530000686645508
    vertex 70.0 74.83600616455078 -8.944000244140623
    vertex 68.0 74.83600616455078 -8.944000244140623
  endloop
endfacet
facet normal -1.9116891804618168e-17 0.7930500130999416 0.609156528916979
  outer loop
    vertex 70.0 74.51800537109375 -8.530000686645508
    vertex 70.0 74.83600616455078 -8.944000244140623
    vertex 68.0 74.51800537109375 -8.530000686645508
  endloop
endfacet
facet normal -8.212860018300756e-18 0.9236398580261866 0.3832615460300782
  outer loop
    vertex 68.0 74.31800079345703 -8.04800033569336
    vertex 70.0 74.51800537109375 -8.530000686645508
    vertex 68.0 74.51800537109375 -8.530000686645508
  endloop
endfacet
facet normal -8.212860018300756e-18 0.9236398580261868 0.38326154603007834
  outer loop
    vertex 70.0 74.31800079345703 -8.04800033569336
    vertex 70.0 74.51800537109375 -8.530000686645508
    vertex 68.0 74.31800079345703 -8.04800033569336
  endloop
endfacet
facet normal -0.0 0.9914931485659205 0.13015888885065674
  outer loop
    vertex 68.0 74.25 -7.530000209808349
    vertex 70.0 74.31800079345703 -8.04800033569336
    vertex 68.0 74.31800079345703 -8.04800033569336
  endloop
endfacet
facet normal 7.633372406308724e-18 0.9914931485659205 0.13015888885065677
  outer loop
    vertex 70.0 74.25 -7.530000209808349
    vertex 70.0 74.31800079345703 -8.04800033569336
    vertex 68.0 74.25 -7.530000209808349
  endloop
endfacet
facet normal 7.633386340854997e-18 0.9914931331034744 -0.13015900663671373
  outer loop
    vertex 68.0 74.31800079345703 -7.012000560760497
    vertex 70.0 74.25 -7.530000209808349
    vertex 68.0 74.25 -7.530000209808349
  endloop
endfacet
facet normal 3.8166931704274985e-18 0.9914931331034744 -0.13015900663671373
  outer loop
    vertex 70.0 74.31800079345703 -7.012000560760497
    vertex 70.0 74.25 -7.530000209808349
    vertex 68.0 74.31800079345703 -7.012000560760497
  endloop
endfacet
facet normal 8.212860018300756e-18 0.9236398580261866 -0.3832615460300782
  outer loop
    vertex 68.0 74.51800537109375 -6.530000209808349
    vertex 70.0 74.31800079345703 -7.012000560760497
    vertex 68.0 74.31800079345703 -7.012000560760497
  endloop
endfacet
facet normal 8.212860018300756e-18 0.9236398580261868 -0.38326154603007834
  outer loop
    vertex 70.0 74.51800537109375 -6.530000209808349
    vertex 70.0 74.31800079345703 -7.012000560760497
    vertex 68.0 74.51800537109375 -6.530000209808349
  endloop
endfacet
facet normal -1.911685593812751e-17 0.7930503520440786 -0.6091560876514026
  outer loop
    vertex 68.0 74.83600616455078 -6.116000175476074
    vertex 70.0 74.51800537109375 -6.530000209808349
    vertex 68.0 74.51800537109375 -6.530000209808349
  endloop
endfacet
facet normal -9.558427969063754e-18 0.7930503520440785 -0.6091560876514025
  outer loop
    vertex 70.0 74.83600616455078 -6.116000175476074
    vertex 70.0 74.51800537109375 -6.530000209808349
    vertex 68.0 74.83600616455078 -6.116000175476074
  endloop
endfacet
facet normal -9.558671742399426e-18 0.6091606751867825 -0.7930468282554212
  outer loop
    vertex 70.0 75.25 -5.798000335693359
    vertex 68.0 74.83600616455078 -6.116000175476074
    vertex 68.0 75.25 -5.798000335693359
  endloop
endfacet
facet normal 0.0 0.6091606751867825 -0.793046828255421
  outer loop
    vertex 70.0 74.83600616455078 -6.116000175476074
    vertex 68.0 74.83600616455078 -6.116000175476074
    vertex 70.0 75.25 -5.798000335693359
  endloop
endfacet
facet normal 1.6425651356866e-17 0.38325323643221276 -0.9236433060246984
  outer loop
    vertex 70.0 75.73200225830078 -5.5980000495910645
    vertex 68.0 75.25 -5.798000335693359
    vertex 68.0 75.73200225830078 -5.5980000495910645
  endloop
endfacet
facet normal 0.0 0.3832532364322129 -0.9236433060246984
  outer loop
    vertex 70.0 75.25 -5.798000335693359
    vertex 68.0 75.25 -5.798000335693359
    vertex 70.0 75.73200225830078 -5.5980000495910645
  endloop
endfacet
facet normal 0.0 0.13015768329146854 -0.9914933068257182
  outer loop
    vertex 70.0 76.25 -5.53000020980835
    vertex 68.0 75.73200225830078 -5.5980000495910645
    vertex 68.0 76.25 -5.53000020980835
  endloop
endfacet
facet normal 0.0 0.13015768329146854 -0.9914933068257182
  outer loop
    vertex 70.0 75.73200225830078 -5.5980000495910645
    vertex 68.0 75.73200225830078 -5.5980000495910645
    vertex 70.0 76.25 -5.53000020980835
  endloop
endfacet
facet normal 7.633220942363224e-18 -0.13015579875148334 -0.9914935542157415
  outer loop
    vertex 70.0 76.76800537109374 -5.5980000495910645
    vertex 68.0 76.25 -5.53000020980835
    vertex 68.0 76.76800537109374 -5.5980000495910645
  endloop
endfacet
facet normal 0.0 -0.13015579875148334 -0.9914935542157415
  outer loop
    vertex 70.0 76.25 -5.53000020980835
    vertex 68.0 76.25 -5.53000020980835
    vertex 70.0 76.76800537109374 -5.5980000495910645
  endloop
endfacet
facet normal 0.0 -0.3832584117946007 -0.923641158561419
  outer loop
    vertex 70.0 77.25 -5.798000335693359
    vertex 68.0 76.76800537109374 -5.5980000495910645
    vertex 68.0 77.25 -5.798000335693359
  endloop
endfacet
facet normal 8.213066583412499e-18 -0.3832584117946007 -0.923641158561419
  outer loop
    vertex 70.0 76.76800537109374 -5.5980000495910645
    vertex 68.0 76.76800537109374 -5.5980000495910645
    vertex 70.0 77.25 -5.798000335693359
  endloop
endfacet
facet normal 0.0 -0.6091536149027187 -0.7930522514002153
  outer loop
    vertex 70.0 77.66400146484374 -6.116000175476074
    vertex 68.0 77.25 -5.798000335693359
    vertex 68.0 77.66400146484374 -6.116000175476074
  endloop
endfacet
facet normal -9.558384806425015e-18 -0.6091536149027187 -0.7930522514002153
  outer loop
    vertex 70.0 77.25 -5.798000335693359
    vertex 68.0 77.25 -5.798000335693359
    vertex 70.0 77.66400146484374 -6.116000175476074
  endloop
endfacet
facet normal 0.0 -0.7930503520440785 -0.6091560876514025
  outer loop
    vertex 70.0 77.66400146484374 -6.116000175476074
    vertex 68.0 77.98200225830077 -6.530000209808349
    vertex 70.0 77.98200225830077 -6.530000209808349
  endloop
endfacet
facet normal 1.911685593812751e-17 -0.7930503520440786 -0.6091560876514026
  outer loop
    vertex 68.0 77.66400146484374 -6.116000175476074
    vertex 68.0 77.98200225830077 -6.530000209808349
    vertex 70.0 77.66400146484374 -6.116000175476074
  endloop
endfacet
facet normal 0.0 -0.9236398580261789 -0.3832615460300967
  outer loop
    vertex 70.0 77.98200225830077 -6.530000209808349
    vertex 68.0 78.1820068359375 -7.012000560760497
    vertex 70.0 78.1820068359375 -7.012000560760497
  endloop
endfacet
facet normal 8.212860018300689e-18 -0.9236398580261789 -0.3832615460300967
  outer loop
    vertex 68.0 77.98200225830077 -6.530000209808349
    vertex 68.0 78.1820068359375 -7.012000560760497
    vertex 70.0 77.98200225830077 -6.530000209808349
  endloop
endfacet
facet normal -3.816700424613167e-18 -0.9914950175817268 -0.1301446507183892
  outer loop
    vertex 70.0 78.1820068359375 -7.012000560760497
    vertex 68.0 78.24999999999999 -7.530000209808349
    vertex 70.0 78.24999999999999 -7.530000209808349
  endloop
endfacet
facet normal -3.816700424613167e-18 -0.9914950175817268 -0.1301446507183892
  outer loop
    vertex 68.0 78.1820068359375 -7.012000560760497
    vertex 68.0 78.24999999999999 -7.530000209808349
    vertex 70.0 78.1820068359375 -7.012000560760497
  endloop
endfacet
facet normal 3.816693457313656e-18 -0.9914950330407915 0.13014453294487574
  outer loop
    vertex 70.0 78.24999999999999 -7.530000209808349
    vertex 68.0 78.1820068359375 -8.04800033569336
    vertex 70.0 78.1820068359375 -8.04800033569336
  endloop
endfacet
facet normal 0.0 -0.9914950330407915 0.13014453294487574
  outer loop
    vertex 68.0 78.24999999999999 -7.530000209808349
    vertex 68.0 78.1820068359375 -8.04800033569336
    vertex 70.0 78.24999999999999 -7.530000209808349
  endloop
endfacet
facet normal 0.0 -0.9236398580261789 0.3832615460300967
  outer loop
    vertex 70.0 78.1820068359375 -8.04800033569336
    vertex 68.0 77.98200225830077 -8.530000686645508
    vertex 70.0 77.98200225830077 -8.530000686645508
  endloop
endfacet
facet normal 8.212860018300689e-18 -0.9236398580261789 0.3832615460300967
  outer loop
    vertex 68.0 78.1820068359375 -8.04800033569336
    vertex 68.0 77.98200225830077 -8.530000686645508
    vertex 70.0 78.1820068359375 -8.04800033569336
  endloop
endfacet
facet normal -9.558445902309085e-18 -0.7930500130999415 0.6091565289169792
  outer loop
    vertex 70.0 77.98200225830077 -8.530000686645508
    vertex 68.0 77.66400146484374 -8.944000244140623
    vertex 70.0 77.66400146484374 -8.944000244140623
  endloop
endfacet
facet normal 9.558445902309084e-18 -0.7930500130999416 0.6091565289169791
  outer loop
    vertex 68.0 77.98200225830077 -8.530000686645508
    vertex 68.0 77.66400146484374 -8.944000244140623
    vertex 70.0 77.98200225830077 -8.530000686645508
  endloop
endfacet
facet normal -1.0 0.0 0.0
  outer loop
    vertex 68.0 1.998000144958496 0.0
    vertex 68.0 10.322000503540039 -6.114000320434569
    vertex 68.0 1.998000144958496 -15.000000953674316
  endloop
endfacet
facet normal -1.0 0.0 0.0
  outer loop
    vertex 68.0 10.322000503540039 -6.114000320434569
    vertex 68.0 1.998000144958496 0.0
    vertex 68.0 10.736000061035154 -5.796000480651855
  endloop
endfacet
facet normal -1.0 0.0 0.0
  outer loop
    vertex 68.0 10.736000061035154 -5.796000480651855
    vertex 68.0 1.998000144958496 0.0
    vertex 68.0 11.218000411987305 -5.59600019454956
  endloop
endfacet
facet normal -1.0 0.0 0.0
  outer loop
    vertex 68.0 11.218000411987305 -5.59600019454956
    vertex 68.0 1.998000144958496 0.0
    vertex 68.0 38.99999999999999 0.0
  endloop
endfacet
facet normal -1.0 0.0 0.0
  outer loop
    vertex 68.0 1.998000144958496 -15.000000953674316
    vertex 68.0 10.322000503540039 -6.114000320434569
    vertex 68.0 10.004000663757324 -6.528000354766845
  endloop
endfacet
facet normal -1.0 0.0 0.0
  outer loop
    vertex 68.0 1.998000144958496 -15.000000953674316
    vertex 68.0 10.004000663757324 -6.528000354766845
    vertex 68.0 9.804000854492188 -7.010000228881835
  endloop
endfacet
facet normal -1.0 0.0 0.0
  outer loop
    vertex 68.0 1.998000144958496 -15.000000953674316
    vertex 68.0 9.804000854492188 -7.010000228881835
    vertex 68.0 9.736000061035154 -7.528000354766846
  endloop
endfacet
facet normal -1.0 0.0 0.0
  outer loop
    vertex 68.0 11.218000411987305 -5.59600019454956
    vertex 68.0 38.99999999999999 0.0
    vertex 68.0 11.73600101470947 -5.528000354766845
  endloop
endfacet
facet normal -1.0 0.0 0.0
  outer loop
    vertex 68.0 11.73600101470947 -5.528000354766845
    vertex 68.0 38.99999999999999 0.0
    vertex 68.0 12.254000663757322 -5.59600019454956
  endloop
endfacet
facet normal -1.0 0.0 0.0
  outer loop
    vertex 68.0 12.254000663757322 -5.59600019454956
    vertex 68.0 38.99999999999999 0.0
    vertex 68.0 12.736001014709473 -5.796000480651855
  endloop
endfacet
facet normal -1.0 0.0 0.0
  outer loop
    vertex 68.0 12.736001014709473 -5.796000480651855
    vertex 68.0 38.99999999999999 0.0
    vertex 68.0 13.15000057220459 -6.114000320434569
  endloop
endfacet
facet normal -1.0 0.0 0.0
  outer loop
    vertex 68.0 13.15000057220459 -6.114000320434569
    vertex 68.0 38.99999999999999 0.0
    vertex 68.0 13.468000411987305 -6.528000354766845
  endloop
endfacet
facet normal -1.0 0.0 0.0
  outer loop
    vertex 68.0 13.468000411987305 -6.528000354766845
    vertex 68.0 38.99999999999999 0.0
    vertex 68.0 13.668000221252441 -7.010000228881835
  endloop
endfacet
facet normal -1.0 0.0 0.0
  outer loop
    vertex 68.0 13.668000221252441 -7.010000228881835
    vertex 68.0 38.99999999999999 0.0
    vertex 68.0 13.73600101470947 -7.528000354766846
  endloop
endfacet
facet normal -1.0 0.0 0.0
  outer loop
    vertex 68.0 1.998000144958496 -15.000000953674316
    vertex 68.0 11.218000411987305 -9.460000038146973
    vertex 68.0 38.99999999999999 -15.000000953674316
  endloop
endfacet
facet normal -1.0 0.0 0.0
  outer loop
    vertex 68.0 11.218000411987305 -9.460000038146973
    vertex 68.0 1.998000144958496 -15.000000953674316
    vertex 68.0 10.736000061035154 -9.260000228881836
  endloop
endfacet
facet normal -1.0 0.0 0.0
  outer loop
    vertex 68.0 10.736000061035154 -9.260000228881836
    vertex 68.0 1.998000144958496 -15.000000953674316
    vertex 68.0 10.322000503540039 -8.942000389099121
  endloop
endfacet
facet normal -1.0 0.0 0.0
  outer loop
    vertex 68.0 10.322000503540039 -8.942000389099121
    vertex 68.0 1.998000144958496 -15.000000953674316
    vertex 68.0 10.004000663757324 -8.528000831604004
  endloop
endfacet
facet normal -1.0 0.0 0.0
  outer loop
    vertex 68.0 10.004000663757324 -8.528000831604004
    vertex 68.0 1.998000144958496 -15.000000953674316
    vertex 68.0 9.804000854492188 -8.044000625610352
  endloop
endfacet
facet normal -1.0 0.0 0.0
  outer loop
    vertex 68.0 9.804000854492188 -8.044000625610352
    vertex 68.0 1.998000144958496 -15.000000953674316
    vertex 68.0 9.736000061035154 -7.528000354766846
  endloop
endfacet
facet normal -1.0 0.0 0.0
  outer loop
    vertex 68.0 38.99999999999999 -15.000000953674316
    vertex 68.0 11.218000411987305 -9.460000038146973
    vertex 68.0 11.73600101470947 -9.528000831604002
  endloop
endfacet
facet normal -1.0 0.0 0.0
  outer loop
    vertex 68.0 38.99999999999999 -15.000000953674316
    vertex 68.0 11.73600101470947 -9.528000831604002
    vertex 68.0 12.254000663757322 -9.460000038146973
  endloop
endfacet
facet normal -1.0 0.0 0.0
  outer loop
    vertex 68.0 38.99999999999999 -15.000000953674316
    vertex 68.0 12.254000663757322 -9.460000038146973
    vertex 68.0 12.736001014709473 -9.260000228881836
  endloop
endfacet
facet normal -1.0 0.0 0.0
  outer loop
    vertex 68.0 38.99999999999999 -15.000000953674316
    vertex 68.0 12.736001014709473 -9.260000228881836
    vertex 68.0 13.15000057220459 -8.942000389099121
  endloop
endfacet
facet normal -1.0 0.0 0.0
  outer loop
    vertex 68.0 38.99999999999999 -15.000000953674316
    vertex 68.0 13.15000057220459 -8.942000389099121
    vertex 68.0 13.468000411987305 -8.528000831604004
  endloop
endfacet
facet normal -1.0 0.0 0.0
  outer loop
    vertex 68.0 38.99999999999999 -15.000000953674316
    vertex 68.0 13.468000411987305 -8.528000831604004
    vertex 68.0 13.668000221252441 -8.044000625610352
  endloop
endfacet
facet normal -1.0 0.0 0.0
  outer loop
    vertex 68.0 38.99999999999999 -15.000000953674316
    vertex 68.0 13.668000221252441 -8.044000625610352
    vertex 68.0 13.73600101470947 -7.528000354766846
  endloop
endfacet
facet normal -1.0 0.0 0.0
  outer loop
    vertex 68.0 38.99999999999999 -15.000000953674316
    vertex 68.0 13.73600101470947 -7.528000354766846
    vertex 68.0 38.99999999999999 0.0
  endloop
endfacet
facet normal -1.0 0.0 0.0
  outer loop
    vertex 2.998000144958496 66.9990005493164 1.998000144958496
    vertex 2.998000144958496 0.0 0.0
    vertex 2.998000144958496 0.0 1.998000144958496
  endloop
endfacet
facet normal -1.0 0.0 0.0
  outer loop
    vertex 2.998000144958496 0.0 0.0
    vertex 2.998000144958496 66.9990005493164 1.998000144958496
    vertex 2.998000144958496 1.998000144958496 0.0
  endloop
endfacet
facet normal -1.0 0.0 0.0
  outer loop
    vertex 2.998000144958496 1.998000144958496 0.0
    vertex 2.998000144958496 66.9990005493164 1.998000144958496
    vertex 2.998000144958496 66.9990005493164 0.0
  endloop
endfacet
facet normal -0.0 1.0 -0.0
  outer loop
    vertex 2.998000144958496 99.9980010986328 0.0
    vertex 70.0 99.9980010986328 -15.000000953674316
    vertex 68.0 99.9980010986328 -15.000000953674316
  endloop
endfacet
facet normal -0.0 1.0 -0.0
  outer loop
    vertex 70.0 99.9980010986328 -15.000000953674316
    vertex 2.998000144958496 99.9980010986328 0.0
    vertex 70.0 99.9980010986328 1.998000144958496
  endloop
endfacet
facet normal -0.0 1.0 -0.0
  outer loop
    vertex 70.0 99.9980010986328 1.998000144958496
    vertex 2.998000144958496 99.9980010986328 0.0
    vertex 2.998000144958496 99.9980010986328 1.998000144958496
  endloop
endfacet
facet normal -1.9650634163051287e-18 1.2904874233166404e-18 1.0
  outer loop
    vertex 56.99800109863281 53.998001098632805 1.998000144958496
    vertex 19.999999999999996 61.99800109863281 1.998000144958496
    vertex 10.998000144958496 53.998001098632805 1.998000144958496
  endloop
endfacet
facet normal -1.9650634163051287e-18 1.2904874233166404e-18 1.0
  outer loop
    vertex 19.999999999999996 61.99800109863281 1.998000144958496
    vertex 56.99800109863281 53.998001098632805 1.998000144958496
    vertex 47.99800109863281 61.99800109863281 1.998000144958496
  endloop
endfacet
facet normal -1.9650634163051287e-18 1.2904874233166404e-18 1.0
  outer loop
    vertex 47.99800109863281 61.99800109863281 1.998000144958496
    vertex 56.99800109863281 53.998001098632805 1.998000144958496
    vertex 47.99800109863281 74.0 1.998000144958496
  endloop
endfacet
facet normal -1.9650634163051287e-18 1.2904874233166404e-18 1.0
  outer loop
    vertex 47.99800109863281 74.0 1.998000144958496
    vertex 56.99800109863281 53.998001098632805 1.998000144958496
    vertex 47.99800109863281 79.99999999999999 1.998000144958496
  endloop
endfacet
facet normal -1.9650634163051287e-18 1.2904874233166404e-18 1.0
  outer loop
    vertex 47.99800109863281 79.99999999999999 1.998000144958496
    vertex 56.99800109863281 53.998001098632805 1.998000144958496
    vertex 47.99800109863281 91.9980010986328 1.998000144958496
  endloop
endfacet
facet normal -1.9650634163051287e-18 1.2904874233166404e-18 1.0
  outer loop
    vertex 2.998000144958496 0.0 1.998000144958496
    vertex 10.998000144958496 7.998000144958495 1.998000144958496
    vertex 2.998000144958496 66.9990005493164 1.998000144958496
  endloop
endfacet
facet normal -1.9650634163051287e-18 1.2904874233166404e-18 1.0
  outer loop
    vertex 10.998000144958496 7.998000144958495 1.998000144958496
    vertex 2.998000144958496 0.0 1.998000144958496
    vertex 70.0 0.0 1.998000144958496
  endloop
endfacet
facet normal -1.9650634163051287e-18 1.2904874233166404e-18 1.0
  outer loop
    vertex 10.998000144958496 7.998000144958495 1.998000144958496
    vertex 70.0 0.0 1.998000144958496
    vertex 56.99800109863281 7.998000144958495 1.998000144958496
  endloop
endfacet
facet normal -1.9650634163051287e-18 1.2904874233166404e-18 1.0
  outer loop
    vertex 56.99800109863281 7.998000144958495 1.998000144958496
    vertex 70.0 0.0 1.998000144958496
    vertex 56.99800109863281 53.998001098632805 1.998000144958496
  endloop
endfacet
facet normal -1.9650634163051287e-18 1.2904874233166404e-18 1.0
  outer loop
    vertex 2.998000144958496 99.9980010986328 1.998000144958496
    vertex 19.999999999999996 91.9980010986328 1.998000144958496
    vertex 70.0 99.9980010986328 1.998000144958496
  endloop
endfacet
facet normal -1.9650634163051287e-18 1.2904874233166404e-18 1.0
  outer loop
    vertex 19.999999999999996 91.9980010986328 1.998000144958496
    vertex 2.998000144958496 99.9980010986328 1.998000144958496
    vertex 2.9980001449584965 86.99900054931639 1.9980001449584956
  endloop
endfacet
facet normal -1.9650634163051287e-18 1.2904874233166404e-18 1.0
  outer loop
    vertex 19.999999999999996 91.9980010986328 1.998000144958496
    vertex 2.9980001449584965 86.99900054931639 1.9980001449584956
    vertex 19.999999999999996 86.99900054931639 1.9980001449584956
  endloop
endfacet
facet normal -1.9650634163051287e-18 1.2904874233166404e-18 1.0
  outer loop
    vertex 70.0 99.9980010986328 1.998000144958496
    vertex 19.999999999999996 91.9980010986328 1.998000144958496
    vertex 47.99800109863281 91.9980010986328 1.998000144958496
  endloop
endfacet
facet normal -1.9650634163051287e-18 1.2904874233166404e-18 1.0
  outer loop
    vertex 70.0 99.9980010986328 1.998000144958496
    vertex 47.99800109863281 91.9980010986328 1.998000144958496
    vertex 56.99800109863281 53.998001098632805 1.998000144958496
  endloop
endfacet
facet normal -1.9650634163051287e-18 1.2904874233166404e-18 1.0
  outer loop
    vertex 70.0 99.9980010986328 1.998000144958496
    vertex 56.99800109863281 53.998001098632805 1.998000144958496
    vertex 70.0 0.0 1.998000144958496
  endloop
endfacet
facet normal -1.9650634163051287e-18 1.2904874233166404e-18 1.0
  outer loop
    vertex 47.99800109863281 74.0 1.998000144958496
    vertex 19.999999999999996 79.99999999999999 1.998000144958496
    vertex 19.999999999999996 74.0 1.998000144958496
  endloop
endfacet
facet normal -1.9650634163051287e-18 1.2904874233166404e-18 1.0
  outer loop
    vertex 19.999999999999996 79.99999999999999 1.998000144958496
    vertex 47.99800109863281 74.0 1.998000144958496
    vertex 47.99800109863281 79.99999999999999 1.998000144958496
  endloop
endfacet
facet normal -1.9650634163051287e-18 1.2904874233166404e-18 1.0
  outer loop
    vertex 19.999999999999996 68.9990005493164 1.998000144958496
    vertex 2.9980001449584996 84.99900054931639 1.9980001449584956
    vertex 2.9980001449584988 68.9990005493164 1.998000144958496
  endloop
endfacet
facet normal -1.9650634163051287e-18 1.2904874233166404e-18 1.0
  outer loop
    vertex 2.9980001449584996 84.99900054931639 1.9980001449584956
    vertex 19.999999999999996 68.9990005493164 1.998000144958496
    vertex 19.999999999999996 84.99900054931639 1.9980001449584956
  endloop
endfacet
facet normal -1.9650634163051287e-18 1.2904874233166404e-18 1.0
  outer loop
    vertex 19.999999999999996 84.99900054931639 1.9980001449584956
    vertex 19.999999999999996 68.9990005493164 1.998000144958496
    vertex 19.999999999999996 74.0 1.998000144958496
  endloop
endfacet
facet normal -1.9650634163051287e-18 1.2904874233166404e-18 1.0
  outer loop
    vertex 19.999999999999996 84.99900054931639 1.9980001449584956
    vertex 19.999999999999996 74.0 1.998000144958496
    vertex 19.999999999999996 79.99999999999999 1.998000144958496
  endloop
endfacet
facet normal -1.9650634163051287e-18 1.2904874233166404e-18 1.0
  outer loop
    vertex 2.998000144958496 66.9990005493164 1.998000144958496
    vertex 10.998000144958496 53.998001098632805 1.998000144958496
    vertex 19.999999999999996 66.9990005493164 1.998000144958496
  endloop
endfacet
facet normal -1.9650634163051287e-18 1.2904874233166404e-18 1.0
  outer loop
    vertex 10.998000144958496 53.998001098632805 1.998000144958496
    vertex 2.998000144958496 66.9990005493164 1.998000144958496
    vertex 10.998000144958496 7.998000144958495 1.998000144958496
  endloop
endfacet
facet normal -1.9650634163051287e-18 1.2904874233166404e-18 1.0
  outer loop
    vertex 19.999999999999996 66.9990005493164 1.998000144958496
    vertex 10.998000144958496 53.998001098632805 1.998000144958496
    vertex 19.999999999999996 61.99800109863281 1.998000144958496
  endloop
endfacet
facet normal 0.0 -1.0 0.0
  outer loop
    vertex 56.99800109863281 53.998001098632805 1.998000144958496
    vertex 10.998000144958496 53.998001098632805 0.0
    vertex 56.99800109863281 53.998001098632805 0.0
  endloop
endfacet
facet normal 0.0 -1.0 0.0
  outer loop
    vertex 10.998000144958496 53.998001098632805 0.0
    vertex 56.99800109863281 53.998001098632805 1.998000144958496
    vertex 10.998000144958496 53.998001098632805 1.998000144958496
  endloop
endfacet
facet normal 1.0 -0.0 -0.0
  outer loop
    vertex 10.998000144958496 53.998001098632805 0.0
    vertex 10.998000144958496 7.998000144958495 1.998000144958496
    vertex 10.998000144958496 7.998000144958495 0.0
  endloop
endfacet
facet normal 1.0 -0.0 -0.0
  outer loop
    vertex 10.998000144958496 7.998000144958495 1.998000144958496
    vertex 10.998000144958496 53.998001098632805 0.0
    vertex 10.998000144958496 53.998001098632805 1.998000144958496
  endloop
endfacet
facet normal -0.0 1.0 -0.0
  outer loop
    vertex 10.998000144958496 7.998000144958495 1.998000144958496
    vertex 56.99800109863281 7.998000144958495 0.0
    vertex 10.998000144958496 7.998000144958495 0.0
  endloop
endfacet
facet normal -0.0 1.0 -0.0
  outer loop
    vertex 56.99800109863281 7.998000144958495 0.0
    vertex 10.998000144958496 7.998000144958495 1.998000144958496
    vertex 56.99800109863281 7.998000144958495 1.998000144958496
  endloop
endfacet
facet normal -1.0 0.0 0.0
  outer loop
    vertex 56.99800109863281 53.998001098632805 1.998000144958496
    vertex 56.99800109863281 7.998000144958495 0.0
    vertex 56.99800109863281 7.998000144958495 1.998000144958496
  endloop
endfacet
facet normal -1.0 0.0 0.0
  outer loop
    vertex 56.99800109863281 7.998000144958495 0.0
    vertex 56.99800109863281 53.998001098632805 1.998000144958496
    vertex 56.99800109863281 38.99999999999999 0.0
  endloop
endfacet
facet normal -1.0 0.0 0.0
  outer loop
    vertex 56.99800109863281 38.99999999999999 0.0
    vertex 56.99800109863281 53.998001098632805 1.998000144958496
    vertex 56.99800109863281 41.00000381469726 0.0
  endloop
endfacet
facet normal -1.0 0.0 0.0
  outer loop
    vertex 56.99800109863281 38.99999999999999 0.0
    vertex 56.99800109863281 41.00000381469726 0.0
    vertex 56.99800109863281 38.99999999999999 -15.000000953674316
  endloop
endfacet
facet normal -1.0 0.0 0.0
  outer loop
    vertex 56.99800109863281 41.00000381469726 0.0
    vertex 56.99800109863281 53.998001098632805 1.998000144958496
    vertex 56.99800109863281 53.998001098632805 0.0
  endloop
endfacet
facet normal -1.0 0.0 0.0
  outer loop
    vertex 56.99800109863281 41.00000381469726 -15.000000953674316
    vertex 56.99800109863281 38.99999999999999 -15.000000953674316
    vertex 56.99800109863281 41.00000381469726 0.0
  endloop
endfacet
facet normal -0.22485295193784907 1.6810242714119977e-16 -0.9743927083085319
  outer loop
    vertex 68.0 1.998000144958496 -15.000000953674316
    vertex 2.998000144958496 0.0 0.0
    vertex 2.998000144958496 1.998000144958496 0.0
  endloop
endfacet
facet normal -0.22485295193784907 1.6810242714119977e-16 -0.9743927083085319
  outer loop
    vertex 2.998000144958496 0.0 0.0
    vertex 68.0 1.998000144958496 -15.000000953674316
    vertex 68.0 0.0 -15.000000953674316
  endloop
endfacet
facet normal 0.0 -1.0 0.0
  outer loop
    vertex 2.998000144958496 97.9980010986328 0.0
    vertex 68.0 97.9980010986328 -15.000000953674316
    vertex 68.0 97.9980010986328 0.0
  endloop
endfacet
facet normal -0.0 1.0 -0.0
  outer loop
    vertex 68.0 1.998000144958496 0.0
    vertex 68.0 1.998000144958496 -15.000000953674316
    vertex 2.998000144958496 1.998000144958496 0.0
  endloop
endfacet
facet normal 0.0 0.0 -1.0
  outer loop
    vertex 2.998000144958496 97.9980010986328 0.0
    vertex 19.999999999999996 91.9980010986328 0.0
    vertex 2.9980001449584965 86.99900054931639 0.0
  endloop
endfacet
facet normal 0.0 0.0 -1.0
  outer loop
    vertex 19.999999999999996 91.9980010986328 0.0
    vertex 2.998000144958496 97.9980010986328 0.0
    vertex 68.0 97.9980010986328 0.0
  endloop
endfacet
facet normal 0.0 0.0 -1.0
  outer loop
    vertex 19.999999999999996 91.9980010986328 0.0
    vertex 68.0 97.9980010986328 0.0
    vertex 47.99800109863281 91.9980010986328 0.0
  endloop
endfacet
facet normal 0.0 0.0 -1.0
  outer loop
    vertex 47.99800109863281 91.9980010986328 0.0
    vertex 68.0 97.9980010986328 0.0
    vertex 47.99800109863281 79.99999999999999 0.0
  endloop
endfacet
facet normal 0.0 0.0 -1.0
  outer loop
    vertex 47.99800109863281 79.99999999999999 0.0
    vertex 68.0 97.9980010986328 0.0
    vertex 47.99800109863281 74.0 0.0
  endloop
endfacet
facet normal 0.0 0.0 -1.0
  outer loop
    vertex 47.99800109863281 74.0 0.0
    vertex 68.0 97.9980010986328 0.0
    vertex 47.99800109863281 61.99800109863281 0.0
  endloop
endfacet
facet normal 0.0 0.0 -1.0
  outer loop
    vertex 47.99800109863281 61.99800109863281 0.0
    vertex 68.0 97.9980010986328 0.0
    vertex 56.99800109863281 53.998001098632805 0.0
  endloop
endfacet
facet normal 0.0 0.0 -1.0
  outer loop
    vertex 56.99800109863281 53.998001098632805 0.0
    vertex 68.0 97.9980010986328 0.0
    vertex 56.99800109863281 41.00000381469726 0.0
  endloop
endfacet
facet normal 0.0 0.0 -1.0
  outer loop
    vertex 56.99800109863281 41.00000381469726 0.0
    vertex 68.0 97.9980010986328 0.0
    vertex 68.0 41.00000381469726 0.0
  endloop
endfacet
facet normal 0.0 0.0 -1.0
  outer loop
    vertex 2.998000144958496 66.9990005493164 0.0
    vertex 10.998000144958496 53.998001098632805 0.0
    vertex 2.998000144958496 1.998000144958496 0.0
  endloop
endfacet
facet normal 0.0 0.0 -1.0
  outer loop
    vertex 10.998000144958496 53.998001098632805 0.0
    vertex 2.998000144958496 66.9990005493164 0.0
    vertex 19.999999999999996 66.9990005493164 0.0
  endloop
endfacet
facet normal 0.0 0.0 -1.0
  outer loop
    vertex 10.998000144958496 53.998001098632805 0.0
    vertex 19.999999999999996 66.9990005493164 0.0
    vertex 19.999999999999996 61.99800109863281 0.0
  endloop
endfacet
facet normal 0.0 0.0 -1.0
  outer loop
    vertex 10.998000144958496 53.998001098632805 0.0
    vertex 19.999999999999996 61.99800109863281 0.0
    vertex 56.99800109863281 53.998001098632805 0.0
  endloop
endfacet
facet normal 0.0 0.0 -1.0
  outer loop
    vertex 56.99800109863281 53.998001098632805 0.0
    vertex 19.999999999999996 61.99800109863281 0.0
    vertex 47.99800109863281 61.99800109863281 0.0
  endloop
endfacet
facet normal 0.0 0.0 -1.0
  outer loop
    vertex 47.99800109863281 79.99999999999999 0.0
    vertex 19.999999999999996 74.0 0.0
    vertex 19.999999999999996 79.99999999999999 0.0
  endloop
endfacet
facet normal 0.0 0.0 -1.0
  outer loop
    vertex 19.999999999999996 74.0 0.0
    vertex 47.99800109863281 79.99999999999999 0.0
    vertex 47.99800109863281 74.0 0.0
  endloop
endfacet
facet normal 0.0 0.0 -1.0
  outer loop
    vertex 2.9980001449584996 84.99900054931639 0.0
    vertex 19.999999999999996 68.9990005493164 0.0
    vertex 2.9980001449584988 68.9990005493164 0.0
  endloop
endfacet
facet normal 0.0 0.0 -1.0
  outer loop
    vertex 19.999999999999996 68.9990005493164 0.0
    vertex 2.9980001449584996 84.99900054931639 0.0
    vertex 19.999999999999996 84.99900054931639 0.0
  endloop
endfacet
facet normal 0.0 0.0 -1.0
  outer loop
    vertex 19.999999999999996 68.9990005493164 0.0
    vertex 19.999999999999996 84.99900054931639 0.0
    vertex 19.999999999999996 79.99999999999999 0.0
  endloop
endfacet
facet normal 0.0 0.0 -1.0
  outer loop
    vertex 19.999999999999996 68.9990005493164 0.0
    vertex 19.999999999999996 79.99999999999999 0.0
    vertex 19.999999999999996 74.0 0.0
  endloop
endfacet
facet normal 0.0 0.0 -1.0
  outer loop
    vertex 19.999999999999996 86.99900054931639 0.0
    vertex 2.9980001449584965 86.99900054931639 0.0
    vertex 19.999999999999996 91.9980010986328 0.0
  endloop
endfacet
facet normal 0.0 0.0 -1.0
  outer loop
    vertex 68.0 38.99999999999999 0.0
    vertex 56.99800109863281 7.998000144958495 0.0
    vertex 56.99800109863281 38.99999999999999 0.0
  endloop
endfacet
facet normal 0.0 0.0 -1.0
  outer loop
    vertex 2.998000144958496 1.998000144958496 0.0
    vertex 10.998000144958496 7.998000144958495 0.0
    vertex 68.0 1.998000144958496 0.0
  endloop
endfacet
facet normal 0.0 0.0 -1.0
  outer loop
    vertex 10.998000144958496 7.998000144958495 0.0
    vertex 2.998000144958496 1.998000144958496 0.0
    vertex 10.998000144958496 53.998001098632805 0.0
  endloop
endfacet
facet normal 0.0 0.0 -1.0
  outer loop
    vertex 68.0 1.998000144958496 0.0
    vertex 10.998000144958496 7.998000144958495 0.0
    vertex 56.99800109863281 7.998000144958495 0.0
  endloop
endfacet
facet normal 0.0 0.0 -1.0
  outer loop
    vertex 68.0 1.998000144958496 0.0
    vertex 56.99800109863281 7.998000144958495 0.0
    vertex 68.0 38.99999999999999 0.0
  endloop
endfacet
facet normal 0.0 -1.0 0.0
  outer loop
    vertex 19.999999999999996 68.9990005493164 1.998000144958496
    vertex 2.9980001449584988 68.9990005493164 0.0
    vertex 19.999999999999996 68.9990005493164 0.0
  endloop
endfacet
facet normal 0.0 -1.0 0.0
  outer loop
    vertex 2.9980001449584988 68.9990005493164 0.0
    vertex 19.999999999999996 68.9990005493164 1.998000144958496
    vertex 2.9980001449584988 68.9990005493164 1.998000144958496
  endloop
endfacet
facet normal -0.0 1.0 -0.0
  outer loop
    vertex 2.998000144958496 66.9990005493164 1.998000144958496
    vertex 19.999999999999996 66.9990005493164 0.0
    vertex 2.998000144958496 66.9990005493164 0.0
  endloop
endfacet
facet normal -0.0 1.0 -0.0
  outer loop
    vertex 19.999999999999996 66.9990005493164 0.0
    vertex 2.998000144958496 66.9990005493164 1.998000144958496
    vertex 19.999999999999996 66.9990005493164 1.998000144958496
  endloop
endfacet
facet normal 1.0 -0.0 -0.0
  outer loop
    vertex 19.999999999999996 66.9990005493164 0.0
    vertex 19.999999999999996 61.99800109863281 1.998000144958496
    vertex 19.999999999999996 61.99800109863281 0.0
  endloop
endfacet
facet normal 1.0 -0.0 -0.0
  outer loop
    vertex 19.999999999999996 61.99800109863281 1.998000144958496
    vertex 19.999999999999996 66.9990005493164 0.0
    vertex 19.999999999999996 66.9990005493164 1.998000144958496
  endloop
endfacet
facet normal -1.0 4.406197628981091e-17 -6.419642525818657e-33
  outer loop
    vertex 2.9980001449584996 84.99900054931639 1.9980001449584956
    vertex 2.9980001449584988 68.9990005493164 0.0
    vertex 2.9980001449584988 68.9990005493164 1.998000144958496
  endloop
endfacet
facet normal -1.0 4.406197628981091e-17 -6.419642525818657e-33
  outer loop
    vertex 2.9980001449584988 68.9990005493164 0.0
    vertex 2.9980001449584996 84.99900054931639 1.9980001449584956
    vertex 2.9980001449584996 84.99900054931639 0.0
  endloop
endfacet
facet normal -0.0 1.0 -0.0
  outer loop
    vertex 2.9980001449584996 84.99900054931639 1.9980001449584956
    vertex 19.999999999999996 84.99900054931639 0.0
    vertex 2.9980001449584996 84.99900054931639 0.0
  endloop
endfacet
facet normal -0.0 1.0 -0.0
  outer loop
    vertex 19.999999999999996 84.99900054931639 0.0
    vertex 2.9980001449584996 84.99900054931639 1.9980001449584956
    vertex 19.999999999999996 84.99900054931639 1.9980001449584956
  endloop
endfacet
facet normal 0.0 -1.0 0.0
  outer loop
    vertex 19.999999999999996 86.99900054931639 1.9980001449584956
    vertex 2.9980001449584965 86.99900054931639 0.0
    vertex 19.999999999999996 86.99900054931639 0.0
  endloop
endfacet
facet normal 0.0 -1.0 0.0
  outer loop
    vertex 2.9980001449584965 86.99900054931639 0.0
    vertex 19.999999999999996 86.99900054931639 1.9980001449584956
    vertex 2.9980001449584965 86.99900054931639 1.9980001449584956
  endloop
endfacet
facet normal 1.0 -0.0 -0.0
  outer loop
    vertex 19.999999999999996 84.99900054931639 0.0
    vertex 19.999999999999996 79.99999999999999 1.998000144958496
    vertex 19.999999999999996 79.99999999999999 0.0
  endloop
endfacet
facet normal 1.0 -0.0 -0.0
  outer loop
    vertex 19.999999999999996 79.99999999999999 1.998000144958496
    vertex 19.999999999999996 84.99900054931639 0.0
    vertex 19.999999999999996 84.99900054931639 1.9980001449584956
  endloop
endfacet
facet normal -1.0 -5.601742470403583e-17 1.6757655186776615e-17
  outer loop
    vertex 2.998000144958496 99.9980010986328 1.998000144958496
    vertex 2.9980001449584965 86.99900054931639 0.0
    vertex 2.9980001449584965 86.99900054931639 1.9980001449584956
  endloop
endfacet
facet normal -1.0 -5.601742470403583e-17 1.6757655186776615e-17
  outer loop
    vertex 2.9980001449584965 86.99900054931639 0.0
    vertex 2.998000144958496 99.9980010986328 1.998000144958496
    vertex 2.998000144958496 97.9980010986328 0.0
  endloop
endfacet
facet normal -1.0 -5.601742470403583e-17 1.6757655186776615e-17
  outer loop
    vertex 2.998000144958496 97.9980010986328 0.0
    vertex 2.998000144958496 99.9980010986328 1.998000144958496
    vertex 2.998000144958496 99.9980010986328 0.0
  endloop
endfacet
endsolid Faceplate Notched Top
