solid Untitled-54975a1a
facet normal 0.0 0.0 -1.0
  outer loop
    vertex -8.697976633857932 7.4026857893515405 0.0
    vertex -8.697976633857923 4.814495338326336 0.0
    vertex -8.8683475024126 6.108590563838939 0.0
  endloop
endfacet
facet normal 0.0 0.0 -1.0
  outer loop
    vertex -8.697976633857923 4.814495338326336 0.0
    vertex -8.697976633857932 7.4026857893515405 0.0
    vertex -8.198474521334798 8.608590563838934 0.0
  endloop
endfacet
facet normal 0.0 0.0 -1.0
  outer loop
    vertex -8.697976633857923 4.814495338326336 0.0
    vertex -8.198474521334798 8.608590563838934 0.0
    vertex -8.19847452133479 3.6085905638389364 0.0
  endloop
endfacet
facet normal 0.0 0.0 -1.0
  outer loop
    vertex -8.19847452133479 3.6085905638389364 0.0
    vertex -8.198474521334798 8.608590563838934 0.0
    vertex -7.403881408345333 9.644124469771668 0.0
  endloop
endfacet
facet normal 0.0 0.0 -1.0
  outer loop
    vertex -8.19847452133479 3.6085905638389364 0.0
    vertex -7.403881408345333 9.644124469771668 0.0
    vertex -7.403881408345333 2.573056657906205 0.0
  endloop
endfacet
facet normal 0.0 0.0 -1.0
  outer loop
    vertex -7.403881408345333 2.573056657906205 0.0
    vertex -7.403881408345333 9.644124469771668 0.0
    vertex -6.368347502412599 10.438717582761132 0.0
  endloop
endfacet
facet normal 0.0 0.0 -1.0
  outer loop
    vertex -7.403881408345333 2.573056657906205 0.0
    vertex -6.368347502412599 10.438717582761132 0.0
    vertex -6.868347502412598 6.108590563838939 0.0
  endloop
endfacet
facet normal 0.0 0.0 -1.0
  outer loop
    vertex -6.868347502412598 6.108590563838939 0.0
    vertex -6.368347502412599 10.438717582761132 0.0
    vertex -6.766124981279797 6.8850476991465035 0.0
  endloop
endfacet
facet normal 0.0 0.0 -1.0
  outer loop
    vertex -6.766124981279797 6.8850476991465035 0.0
    vertex -6.368347502412599 10.438717582761132 0.0
    vertex -6.466423713765915 7.608590563838936 0.0
  endloop
endfacet
facet normal 0.0 0.0 -1.0
  outer loop
    vertex -6.466423713765915 7.608590563838936 0.0
    vertex -6.368347502412599 10.438717582761132 0.0
    vertex -5.989667845972241 8.229910907398581 0.0
  endloop
endfacet
facet normal 0.0 0.0 -1.0
  outer loop
    vertex -5.989667845972241 8.229910907398581 0.0
    vertex -6.368347502412599 10.438717582761132 0.0
    vertex -5.162442727925213 10.938219695284278 0.0
  endloop
endfacet
facet normal 0.0 0.0 -1.0
  outer loop
    vertex -5.989667845972241 8.229910907398581 0.0
    vertex -5.162442727925213 10.938219695284278 0.0
    vertex -5.368347502412601 8.706666775192259 0.0
  endloop
endfacet
facet normal 0.0 0.0 -1.0
  outer loop
    vertex -5.368347502412601 8.706666775192259 0.0
    vertex -5.162442727925213 10.938219695284278 0.0
    vertex -4.644804637720163 9.006368042706136 0.0
  endloop
endfacet
facet normal 0.0 0.0 -1.0
  outer loop
    vertex -4.644804637720163 9.006368042706136 0.0
    vertex -5.162442727925213 10.938219695284278 0.0
    vertex -3.868347502412604 11.108590563838927 0.0
  endloop
endfacet
facet normal 0.0 0.0 -1.0
  outer loop
    vertex -4.644804637720163 9.006368042706136 0.0
    vertex -3.868347502412604 11.108590563838927 0.0
    vertex -3.8683475024126053 9.108590563838938 0.0
  endloop
endfacet
facet normal 0.0 0.0 -1.0
  outer loop
    vertex -6.868347502412598 6.108590563838939 0.0
    vertex -6.36834750241261 1.7784635449167414 0.0
    vertex -7.403881408345333 2.573056657906205 0.0
  endloop
endfacet
facet normal 0.0 0.0 -1.0
  outer loop
    vertex -6.36834750241261 1.7784635449167414 0.0
    vertex -6.868347502412598 6.108590563838939 0.0
    vertex -6.766124981279811 5.332133428531371 0.0
  endloop
endfacet
facet normal 0.0 0.0 -1.0
  outer loop
    vertex -6.36834750241261 1.7784635449167414 0.0
    vertex -6.766124981279811 5.332133428531371 0.0
    vertex -6.466423713765915 4.608590563838935 0.0
  endloop
endfacet
facet normal 0.0 0.0 -1.0
  outer loop
    vertex -6.36834750241261 1.7784635449167414 0.0
    vertex -6.466423713765915 4.608590563838935 0.0
    vertex -5.9896678459722485 3.987270220279287 0.0
  endloop
endfacet
facet normal 0.0 0.0 -1.0
  outer loop
    vertex -6.36834750241261 1.7784635449167414 0.0
    vertex -5.9896678459722485 3.987270220279287 0.0
    vertex -5.162442727925203 1.2789614323935965 0.0
  endloop
endfacet
facet normal 0.0 0.0 -1.0
  outer loop
    vertex -5.162442727925203 1.2789614323935965 0.0
    vertex -5.9896678459722485 3.987270220279287 0.0
    vertex -5.3683475024125995 3.510514352485623 0.0
  endloop
endfacet
facet normal 0.0 0.0 -1.0
  outer loop
    vertex -5.162442727925203 1.2789614323935965 0.0
    vertex -5.3683475024125995 3.510514352485623 0.0
    vertex -4.6448046377201635 3.2108130849717322 0.0
  endloop
endfacet
facet normal 0.0 0.0 -1.0
  outer loop
    vertex -5.162442727925203 1.2789614323935965 0.0
    vertex -4.6448046377201635 3.2108130849717322 0.0
    vertex -3.8683475024126066 1.1085905638389317 0.0
  endloop
endfacet
facet normal 0.0 0.0 -1.0
  outer loop
    vertex -3.8683475024126066 1.1085905638389317 0.0
    vertex -4.6448046377201635 3.2108130849717322 0.0
    vertex -3.868347502412604 3.108590563838931 0.0
  endloop
endfacet
facet normal 0.0 0.0 -1.0
  outer loop
    vertex -3.8683475024126066 1.1085905638389317 0.0
    vertex -3.868347502412604 3.108590563838931 0.0
    vertex -2.574252276900006 1.278961432393593 0.0
  endloop
endfacet
facet normal 0.0 0.0 -1.0
  outer loop
    vertex -2.574252276900006 1.278961432393593 0.0
    vertex -3.868347502412604 3.108590563838931 0.0
    vertex -3.0918903671050413 3.2108130849717305 0.0
  endloop
endfacet
facet normal 0.0 0.0 -1.0
  outer loop
    vertex -2.574252276900006 1.278961432393593 0.0
    vertex -3.0918903671050413 3.2108130849717305 0.0
    vertex -2.3683475024126044 3.510514352485616 0.0
  endloop
endfacet
facet normal 0.0 0.0 -1.0
  outer loop
    vertex -2.574252276900006 1.278961432393593 0.0
    vertex -2.3683475024126044 3.510514352485616 0.0
    vertex -1.3683475024126102 1.7784635449167352 0.0
  endloop
endfacet
facet normal 0.0 0.0 -1.0
  outer loop
    vertex -1.3683475024126102 1.7784635449167352 0.0
    vertex -2.3683475024126044 3.510514352485616 0.0
    vertex -1.7470271588529596 3.9872702202792913 0.0
  endloop
endfacet
facet normal 0.0 0.0 -1.0
  outer loop
    vertex -1.3683475024126102 1.7784635449167352 0.0
    vertex -1.7470271588529596 3.9872702202792913 0.0
    vertex -1.2702712910592868 4.6085905638389315 0.0
  endloop
endfacet
facet normal 0.0 0.0 -1.0
  outer loop
    vertex -1.3683475024126102 1.7784635449167352 0.0
    vertex -1.2702712910592868 4.6085905638389315 0.0
    vertex -1.152492854259506 1.9440946419253142 0.0
  endloop
endfacet
facet normal 0.0 0.0 -1.0
  outer loop
    vertex -1.152492854259506 1.9440946419253142 0.0
    vertex -1.2702712910592868 4.6085905638389315 0.0
    vertex -1.152492854259506 4.892932863316063 0.0
  endloop
endfacet
facet normal 0.0 0.0 -1.0
  outer loop
    vertex -1.152492854259506 1.9440946419253142 0.0
    vertex -1.152492854259506 4.892932863316063 0.0
    vertex -0.9999999999999999 6.261083180234345 0.0
  endloop
endfacet
facet normal 0.0 0.0 -1.0
  outer loop
    vertex -1.152492854259506 1.9440946419253142 0.0
    vertex -0.9999999999999999 6.261083180234345 0.0
    vertex -0.3328135964798676 2.5730566579061915 0.0
  endloop
endfacet
facet normal 0.0 0.0 -1.0
  outer loop
    vertex -0.3328135964798676 2.5730566579061915 0.0
    vertex -0.9999999999999999 6.261083180234345 0.0
    vertex -0.9999999999999819 22.131652497587442 0.0
  endloop
endfacet
facet normal 0.0 0.0 -1.0
  outer loop
    vertex -0.3328135964798676 2.5730566579061915 0.0
    vertex -0.9999999999999819 22.131652497587442 0.0
    vertex -0.9612816290327508 22.42574772310004 0.0
  endloop
endfacet
facet normal 0.0 0.0 -1.0
  outer loop
    vertex -0.3328135964798676 2.5730566579061915 0.0
    vertex -0.9612816290327508 22.42574772310004 0.0
    vertex -0.46177951650956667 23.631652497587435 0.0
  endloop
endfacet
facet normal 0.0 0.0 -1.0
  outer loop
    vertex -0.3328135964798676 2.5730566579061915 0.0
    vertex -0.46177951650956667 23.631652497587435 0.0
    vertex 0.3328135964798602 24.667186403520148 0.0
  endloop
endfacet
facet normal 0.0 0.0 -1.0
  outer loop
    vertex -0.3328135964798676 2.5730566579061915 0.0
    vertex 0.3328135964798602 24.667186403520148 0.0
    vertex 0.4617795165095857 3.608590563838928 0.0
  endloop
endfacet
facet normal 0.0 0.0 -1.0
  outer loop
    vertex 0.4617795165095857 3.608590563838928 0.0
    vertex 0.3328135964798602 24.667186403520148 0.0
    vertex 0.9705700235453932 21.908109632894988 0.0
  endloop
endfacet
facet normal 0.0 0.0 -1.0
  outer loop
    vertex 0.9705700235453932 21.908109632894988 0.0
    vertex 0.3328135964798602 24.667186403520148 0.0
    vertex 1.3683475024126055 25.461779516509594 0.0
  endloop
endfacet
facet normal 0.0 0.0 -1.0
  outer loop
    vertex 0.4617795165095857 3.608590563838928 0.0
    vertex 0.9705700235453932 21.908109632894988 0.0
    vertex 0.9612816290327395 4.814495338326324 0.0
  endloop
endfacet
facet normal 0.0 0.0 -1.0
  outer loop
    vertex 0.9705700235453932 21.908109632894988 0.0
    vertex 1.3683475024126055 25.461779516509594 0.0
    vertex 1.2702712910592835 22.631652497587424 0.0
  endloop
endfacet
facet normal 0.0 0.0 -1.0
  outer loop
    vertex 1.2702712910592835 22.631652497587424 0.0
    vertex 1.3683475024126055 25.461779516509594 0.0
    vertex 1.7470271588529813 23.25297284114708 0.0
  endloop
endfacet
facet normal 0.0 0.0 -1.0
  outer loop
    vertex 1.7470271588529813 23.25297284114708 0.0
    vertex 1.3683475024126055 25.461779516509594 0.0
    vertex 2.5742522769000007 25.96128162903274 0.0
  endloop
endfacet
facet normal 0.0 0.0 -1.0
  outer loop
    vertex 1.7470271588529813 23.25297284114708 0.0
    vertex 2.5742522769000007 25.96128162903274 0.0
    vertex 2.3683475024126204 23.729728708940762 0.0
  endloop
endfacet
facet normal 0.0 0.0 -1.0
  outer loop
    vertex 2.3683475024126204 23.729728708940762 0.0
    vertex 2.5742522769000007 25.96128162903274 0.0
    vertex 3.0918903671050337 24.02942997645463 0.0
  endloop
endfacet
facet normal 0.0 0.0 -1.0
  outer loop
    vertex 3.0918903671050337 24.02942997645463 0.0
    vertex 2.5742522769000007 25.96128162903274 0.0
    vertex 3.8683475024126173 26.131652497587393 0.0
  endloop
endfacet
facet normal 0.0 0.0 -1.0
  outer loop
    vertex 3.0918903671050337 24.02942997645463 0.0
    vertex 3.8683475024126173 26.131652497587393 0.0
    vertex 3.8683475024126044 24.131652497587396 0.0
  endloop
endfacet
facet normal 0.0 0.0 -1.0
  outer loop
    vertex 3.8683475024126044 24.131652497587396 0.0
    vertex 3.8683475024126173 26.131652497587393 0.0
    vertex 4.644804637720179 24.029429976454644 0.0
  endloop
endfacet
facet normal 0.0 0.0 -1.0
  outer loop
    vertex 4.644804637720179 24.029429976454644 0.0
    vertex 3.8683475024126173 26.131652497587393 0.0
    vertex 5.162442727925223 25.96128162903273 0.0
  endloop
endfacet
facet normal 0.0 0.0 -1.0
  outer loop
    vertex 4.644804637720179 24.029429976454644 0.0
    vertex 5.162442727925223 25.96128162903273 0.0
    vertex 5.368347502412578 23.72972870894073 0.0
  endloop
endfacet
facet normal 0.0 0.0 -1.0
  outer loop
    vertex 5.368347502412578 23.72972870894073 0.0
    vertex 5.162442727925223 25.96128162903273 0.0
    vertex 6.368347502412642 25.461779516509605 0.0
  endloop
endfacet
facet normal 0.0 0.0 -1.0
  outer loop
    vertex 5.368347502412578 23.72972870894073 0.0
    vertex 6.368347502412642 25.461779516509605 0.0
    vertex 5.989667845972249 23.252972841147066 0.0
  endloop
endfacet
facet normal 0.0 0.0 -1.0
  outer loop
    vertex 5.989667845972249 23.252972841147066 0.0
    vertex 6.368347502412642 25.461779516509605 0.0
    vertex 6.466423713765929 22.63165249758744 0.0
  endloop
endfacet
facet normal 0.0 0.0 -1.0
  outer loop
    vertex 6.466423713765929 22.63165249758744 0.0
    vertex 6.368347502412642 25.461779516509605 0.0
    vertex 7.40388140834534 24.667186403520162 0.0
  endloop
endfacet
facet normal 0.0 0.0 -1.0
  outer loop
    vertex 6.466423713765929 22.63165249758744 0.0
    vertex 7.40388140834534 24.667186403520162 0.0
    vertex 6.766124981279833 21.908109632894988 0.0
  endloop
endfacet
facet normal 0.0 0.0 -1.0
  outer loop
    vertex 6.766124981279833 21.908109632894988 0.0
    vertex 7.40388140834534 24.667186403520162 0.0
    vertex 6.868347502412568 21.131652497587403 0.0
  endloop
endfacet
facet normal 0.0 0.0 -1.0
  outer loop
    vertex 3.8683475024126257 18.131652497587435 0.0
    vertex 5.162442727925211 16.302023366142084 0.0
    vertex 3.868347502412614 16.131652497587428 0.0
  endloop
endfacet
facet normal 0.0 0.0 -1.0
  outer loop
    vertex 5.162442727925211 16.302023366142084 0.0
    vertex 3.8683475024126257 18.131652497587435 0.0
    vertex 4.644804637720107 18.233875018720216 0.0
  endloop
endfacet
facet normal 0.0 0.0 -1.0
  outer loop
    vertex 5.162442727925211 16.302023366142084 0.0
    vertex 4.644804637720107 18.233875018720216 0.0
    vertex 5.368347502412572 18.533576286234116 0.0
  endloop
endfacet
facet normal 0.0 0.0 -1.0
  outer loop
    vertex 5.162442727925211 16.302023366142084 0.0
    vertex 5.368347502412572 18.533576286234116 0.0
    vertex 6.368347502412575 16.801525478665212 0.0
  endloop
endfacet
facet normal 0.0 0.0 -1.0
  outer loop
    vertex 6.368347502412575 16.801525478665212 0.0
    vertex 5.368347502412572 18.533576286234116 0.0
    vertex 5.989667845972216 19.010332154027775 0.0
  endloop
endfacet
facet normal 0.0 0.0 -1.0
  outer loop
    vertex 6.368347502412575 16.801525478665212 0.0
    vertex 5.989667845972216 19.010332154027775 0.0
    vertex 6.4664237137659075 19.631652497587407 0.0
  endloop
endfacet
facet normal 0.0 0.0 -1.0
  outer loop
    vertex 6.368347502412575 16.801525478665212 0.0
    vertex 6.4664237137659075 19.631652497587407 0.0
    vertex 7.403881408345362 17.59611859165468 0.0
  endloop
endfacet
facet normal 0.0 0.0 -1.0
  outer loop
    vertex 7.403881408345362 17.59611859165468 0.0
    vertex 6.4664237137659075 19.631652497587407 0.0
    vertex 6.766124981279835 20.355195362279847 0.0
  endloop
endfacet
facet normal 0.0 0.0 -1.0
  outer loop
    vertex 7.403881408345362 17.59611859165468 0.0
    vertex 6.766124981279835 20.355195362279847 0.0
    vertex 6.868347502412568 21.131652497587403 0.0
  endloop
endfacet
facet normal 0.0 0.0 -1.0
  outer loop
    vertex 7.403881408345362 17.59611859165468 0.0
    vertex 6.868347502412568 21.131652497587403 0.0
    vertex 7.40388140834534 24.667186403520162 0.0
  endloop
endfacet
facet normal 0.0 0.0 -1.0
  outer loop
    vertex 7.403881408345362 17.59611859165468 0.0
    vertex 7.40388140834534 24.667186403520162 0.0
    vertex 8.19847452133482 23.631652497587424 0.0
  endloop
endfacet
facet normal 0.0 0.0 -1.0
  outer loop
    vertex 7.403881408345362 17.59611859165468 0.0
    vertex 8.19847452133482 23.631652497587424 0.0
    vertex 8.198474521334832 18.631652497587456 0.0
  endloop
endfacet
facet normal 0.0 0.0 -1.0
  outer loop
    vertex 8.198474521334832 18.631652497587456 0.0
    vertex 8.19847452133482 23.631652497587424 0.0
    vertex 8.697976633857929 22.42574772310003 0.0
  endloop
endfacet
facet normal 0.0 0.0 -1.0
  outer loop
    vertex 8.198474521334832 18.631652497587456 0.0
    vertex 8.697976633857929 22.42574772310003 0.0
    vertex 8.69797663385794 19.83755727207483 0.0
  endloop
endfacet
facet normal 0.0 0.0 -1.0
  outer loop
    vertex 8.69797663385794 19.83755727207483 0.0
    vertex 8.697976633857929 22.42574772310003 0.0
    vertex 8.86834750241261 21.13165249758742 0.0
  endloop
endfacet
facet normal 0.0 0.0 -1.0
  outer loop
    vertex 0.9705700235453932 21.908109632894988 0.0
    vertex 0.9999999999999999 5.108590563838936 0.0
    vertex 0.9612816290327395 4.814495338326324 0.0
  endloop
endfacet
facet normal 0.0 0.0 -1.0
  outer loop
    vertex 0.9999999999999999 5.108590563838936 0.0
    vertex 0.9705700235453932 21.908109632894988 0.0
    vertex 0.999999999999996 20.13165249758739 0.0
  endloop
endfacet
facet normal -0.0 -0.0 1.0
  outer loop
    vertex 0.9999999999999999 5.108590563838936 1.9999999999999998
    vertex 0.9705700235453932 21.908109632894988 1.9999999999999998
    vertex 0.9612816290327395 4.814495338326324 1.9999999999999998
  endloop
endfacet
facet normal -0.0 -0.0 1.0
  outer loop
    vertex 0.9705700235453932 21.908109632894988 1.9999999999999998
    vertex 0.9999999999999999 5.108590563838936 1.9999999999999998
    vertex 0.999999999999996 20.13165249758739 1.9999999999999998
  endloop
endfacet
facet normal -0.0 -0.0 1.0
  outer loop
    vertex 5.162442727925211 16.302023366142084 1.9999999999999998
    vertex 3.8683475024126257 18.131652497587435 1.9999999999999998
    vertex 3.868347502412614 16.131652497587428 1.9999999999999998
  endloop
endfacet
facet normal -0.0 -0.0 1.0
  outer loop
    vertex 3.8683475024126257 18.131652497587435 1.9999999999999998
    vertex 5.162442727925211 16.302023366142084 1.9999999999999998
    vertex 4.644804637720107 18.233875018720216 1.9999999999999998
  endloop
endfacet
facet normal -0.0 -0.0 1.0
  outer loop
    vertex 4.644804637720107 18.233875018720216 1.9999999999999998
    vertex 5.162442727925211 16.302023366142084 1.9999999999999998
    vertex 5.368347502412572 18.533576286234116 1.9999999999999998
  endloop
endfacet
facet normal -0.0 -0.0 1.0
  outer loop
    vertex 5.368347502412572 18.533576286234116 1.9999999999999998
    vertex 5.162442727925211 16.302023366142084 1.9999999999999998
    vertex 6.368347502412575 16.801525478665212 1.9999999999999998
  endloop
endfacet
facet normal -0.0 -0.0 1.0
  outer loop
    vertex 5.368347502412572 18.533576286234116 1.9999999999999998
    vertex 6.368347502412575 16.801525478665212 1.9999999999999998
    vertex 5.989667845972216 19.010332154027775 1.9999999999999998
  endloop
endfacet
facet normal -0.0 -0.0 1.0
  outer loop
    vertex 5.989667845972216 19.010332154027775 1.9999999999999998
    vertex 6.368347502412575 16.801525478665212 1.9999999999999998
    vertex 6.4664237137659075 19.631652497587407 1.9999999999999998
  endloop
endfacet
facet normal -0.0 -0.0 1.0
  outer loop
    vertex 6.4664237137659075 19.631652497587407 1.9999999999999998
    vertex 6.368347502412575 16.801525478665212 1.9999999999999998
    vertex 7.403881408345362 17.59611859165468 1.9999999999999998
  endloop
endfacet
facet normal -0.0 -0.0 1.0
  outer loop
    vertex 6.4664237137659075 19.631652497587407 1.9999999999999998
    vertex 7.403881408345362 17.59611859165468 1.9999999999999998
    vertex 6.766124981279835 20.355195362279847 1.9999999999999998
  endloop
endfacet
facet normal -0.0 -0.0 1.0
  outer loop
    vertex 6.766124981279835 20.355195362279847 1.9999999999999998
    vertex 7.403881408345362 17.59611859165468 1.9999999999999998
    vertex 6.868347502412568 21.131652497587403 1.9999999999999998
  endloop
endfacet
facet normal -0.0 -0.0 1.0
  outer loop
    vertex 6.868347502412568 21.131652497587403 1.9999999999999998
    vertex 7.403881408345362 17.59611859165468 1.9999999999999998
    vertex 7.40388140834534 24.667186403520162 1.9999999999999998
  endloop
endfacet
facet normal -0.0 -0.0 1.0
  outer loop
    vertex 7.40388140834534 24.667186403520162 1.9999999999999998
    vertex 7.403881408345362 17.59611859165468 1.9999999999999998
    vertex 8.19847452133482 23.631652497587424 1.9999999999999998
  endloop
endfacet
facet normal -0.0 -0.0 1.0
  outer loop
    vertex 8.19847452133482 23.631652497587424 1.9999999999999998
    vertex 7.403881408345362 17.59611859165468 1.9999999999999998
    vertex 8.198474521334832 18.631652497587456 1.9999999999999998
  endloop
endfacet
facet normal -0.0 -0.0 1.0
  outer loop
    vertex 8.19847452133482 23.631652497587424 1.9999999999999998
    vertex 8.198474521334832 18.631652497587456 1.9999999999999998
    vertex 8.697976633857929 22.42574772310003 1.9999999999999998
  endloop
endfacet
facet normal -0.0 -0.0 1.0
  outer loop
    vertex 8.697976633857929 22.42574772310003 1.9999999999999998
    vertex 8.198474521334832 18.631652497587456 1.9999999999999998
    vertex 8.69797663385794 19.83755727207483 1.9999999999999998
  endloop
endfacet
facet normal -0.0 -0.0 1.0
  outer loop
    vertex 8.697976633857929 22.42574772310003 1.9999999999999998
    vertex 8.69797663385794 19.83755727207483 1.9999999999999998
    vertex 8.86834750241261 21.13165249758742 1.9999999999999998
  endloop
endfacet
facet normal -0.0 -0.0 1.0
  outer loop
    vertex -8.697976633857923 4.814495338326336 1.9999999999999998
    vertex -8.697976633857932 7.4026857893515405 1.9999999999999998
    vertex -8.8683475024126 6.108590563838939 1.9999999999999998
  endloop
endfacet
facet normal -0.0 -0.0 1.0
  outer loop
    vertex -8.697976633857932 7.4026857893515405 1.9999999999999998
    vertex -8.697976633857923 4.814495338326336 1.9999999999999998
    vertex -8.198474521334798 8.608590563838934 1.9999999999999998
  endloop
endfacet
facet normal -0.0 -0.0 1.0
  outer loop
    vertex -8.198474521334798 8.608590563838934 1.9999999999999998
    vertex -8.697976633857923 4.814495338326336 1.9999999999999998
    vertex -8.19847452133479 3.6085905638389364 1.9999999999999998
  endloop
endfacet
facet normal -0.0 -0.0 1.0
  outer loop
    vertex -8.198474521334798 8.608590563838934 1.9999999999999998
    vertex -8.19847452133479 3.6085905638389364 1.9999999999999998
    vertex -7.403881408345333 9.644124469771668 1.9999999999999998
  endloop
endfacet
facet normal -0.0 -0.0 1.0
  outer loop
    vertex -7.403881408345333 9.644124469771668 1.9999999999999998
    vertex -8.19847452133479 3.6085905638389364 1.9999999999999998
    vertex -7.403881408345333 2.573056657906205 1.9999999999999998
  endloop
endfacet
facet normal -0.0 -0.0 1.0
  outer loop
    vertex -7.403881408345333 9.644124469771668 1.9999999999999998
    vertex -7.403881408345333 2.573056657906205 1.9999999999999998
    vertex -6.36834750241261 1.7784635449167414 1.9999999999999998
  endloop
endfacet
facet normal -0.0 -0.0 1.0
  outer loop
    vertex -7.403881408345333 9.644124469771668 1.9999999999999998
    vertex -6.36834750241261 1.7784635449167414 1.9999999999999998
    vertex -6.868347502412598 6.108590563838939 1.9999999999999998
  endloop
endfacet
facet normal -0.0 -0.0 1.0
  outer loop
    vertex -6.868347502412598 6.108590563838939 1.9999999999999998
    vertex -6.36834750241261 1.7784635449167414 1.9999999999999998
    vertex -6.766124981279811 5.332133428531371 1.9999999999999998
  endloop
endfacet
facet normal -0.0 -0.0 1.0
  outer loop
    vertex -6.766124981279811 5.332133428531371 1.9999999999999998
    vertex -6.36834750241261 1.7784635449167414 1.9999999999999998
    vertex -6.466423713765915 4.608590563838935 1.9999999999999998
  endloop
endfacet
facet normal -0.0 -0.0 1.0
  outer loop
    vertex -6.466423713765915 4.608590563838935 1.9999999999999998
    vertex -6.36834750241261 1.7784635449167414 1.9999999999999998
    vertex -5.9896678459722485 3.987270220279287 1.9999999999999998
  endloop
endfacet
facet normal -0.0 -0.0 1.0
  outer loop
    vertex -5.9896678459722485 3.987270220279287 1.9999999999999998
    vertex -6.36834750241261 1.7784635449167414 1.9999999999999998
    vertex -5.162442727925203 1.2789614323935965 1.9999999999999998
  endloop
endfacet
facet normal -0.0 -0.0 1.0
  outer loop
    vertex -5.9896678459722485 3.987270220279287 1.9999999999999998
    vertex -5.162442727925203 1.2789614323935965 1.9999999999999998
    vertex -5.3683475024125995 3.510514352485623 1.9999999999999998
  endloop
endfacet
facet normal -0.0 -0.0 1.0
  outer loop
    vertex -5.3683475024125995 3.510514352485623 1.9999999999999998
    vertex -5.162442727925203 1.2789614323935965 1.9999999999999998
    vertex -4.6448046377201635 3.2108130849717322 1.9999999999999998
  endloop
endfacet
facet normal -0.0 -0.0 1.0
  outer loop
    vertex -4.6448046377201635 3.2108130849717322 1.9999999999999998
    vertex -5.162442727925203 1.2789614323935965 1.9999999999999998
    vertex -3.8683475024126066 1.1085905638389317 1.9999999999999998
  endloop
endfacet
facet normal -0.0 -0.0 1.0
  outer loop
    vertex -4.6448046377201635 3.2108130849717322 1.9999999999999998
    vertex -3.8683475024126066 1.1085905638389317 1.9999999999999998
    vertex -3.868347502412604 3.108590563838931 1.9999999999999998
  endloop
endfacet
facet normal -0.0 -0.0 1.0
  outer loop
    vertex -3.868347502412604 3.108590563838931 1.9999999999999998
    vertex -3.8683475024126066 1.1085905638389317 1.9999999999999998
    vertex -2.574252276900006 1.278961432393593 1.9999999999999998
  endloop
endfacet
facet normal -0.0 -0.0 1.0
  outer loop
    vertex -3.868347502412604 3.108590563838931 1.9999999999999998
    vertex -2.574252276900006 1.278961432393593 1.9999999999999998
    vertex -3.0918903671050413 3.2108130849717305 1.9999999999999998
  endloop
endfacet
facet normal -0.0 -0.0 1.0
  outer loop
    vertex -3.0918903671050413 3.2108130849717305 1.9999999999999998
    vertex -2.574252276900006 1.278961432393593 1.9999999999999998
    vertex -2.3683475024126044 3.510514352485616 1.9999999999999998
  endloop
endfacet
facet normal -0.0 -0.0 1.0
  outer loop
    vertex -2.3683475024126044 3.510514352485616 1.9999999999999998
    vertex -2.574252276900006 1.278961432393593 1.9999999999999998
    vertex -1.3683475024126102 1.7784635449167352 1.9999999999999998
  endloop
endfacet
facet normal -0.0 -0.0 1.0
  outer loop
    vertex -2.3683475024126044 3.510514352485616 1.9999999999999998
    vertex -1.3683475024126102 1.7784635449167352 1.9999999999999998
    vertex -1.7470271588529596 3.9872702202792913 1.9999999999999998
  endloop
endfacet
facet normal -0.0 -0.0 1.0
  outer loop
    vertex -1.7470271588529596 3.9872702202792913 1.9999999999999998
    vertex -1.3683475024126102 1.7784635449167352 1.9999999999999998
    vertex -1.2702712910592868 4.6085905638389315 1.9999999999999998
  endloop
endfacet
facet normal -0.0 -0.0 1.0
  outer loop
    vertex -1.2702712910592868 4.6085905638389315 1.9999999999999998
    vertex -1.3683475024126102 1.7784635449167352 1.9999999999999998
    vertex -1.152492854259506 1.9440946419253142 1.9999999999999998
  endloop
endfacet
facet normal -0.0 -0.0 1.0
  outer loop
    vertex -1.2702712910592868 4.6085905638389315 1.9999999999999998
    vertex -1.152492854259506 1.9440946419253142 1.9999999999999998
    vertex -1.152492854259506 4.892932863316063 1.9999999999999998
  endloop
endfacet
facet normal -0.0 -0.0 1.0
  outer loop
    vertex -1.152492854259506 4.892932863316063 1.9999999999999998
    vertex -1.152492854259506 1.9440946419253142 1.9999999999999998
    vertex -0.3328135964798676 2.5730566579061915 1.9999999999999998
  endloop
endfacet
facet normal -0.0 -0.0 1.0
  outer loop
    vertex -1.152492854259506 4.892932863316063 1.9999999999999998
    vertex -0.3328135964798676 2.5730566579061915 1.9999999999999998
    vertex -0.9999999999999999 6.261083180234345 1.9999999999999998
  endloop
endfacet
facet normal -0.0 -0.0 1.0
  outer loop
    vertex -0.9999999999999999 6.261083180234345 1.9999999999999998
    vertex -0.3328135964798676 2.5730566579061915 1.9999999999999998
    vertex -0.9999999999999819 22.131652497587442 1.9999999999999998
  endloop
endfacet
facet normal -0.0 -0.0 1.0
  outer loop
    vertex -0.9999999999999819 22.131652497587442 1.9999999999999998
    vertex -0.3328135964798676 2.5730566579061915 1.9999999999999998
    vertex -0.9612816290327508 22.42574772310004 1.9999999999999998
  endloop
endfacet
facet normal -0.0 -0.0 1.0
  outer loop
    vertex -0.9612816290327508 22.42574772310004 1.9999999999999998
    vertex -0.3328135964798676 2.5730566579061915 1.9999999999999998
    vertex -0.46177951650956667 23.631652497587435 1.9999999999999998
  endloop
endfacet
facet normal -0.0 -0.0 1.0
  outer loop
    vertex -0.46177951650956667 23.631652497587435 1.9999999999999998
    vertex -0.3328135964798676 2.5730566579061915 1.9999999999999998
    vertex 0.3328135964798602 24.667186403520148 1.9999999999999998
  endloop
endfacet
facet normal -0.0 -0.0 1.0
  outer loop
    vertex 0.3328135964798602 24.667186403520148 1.9999999999999998
    vertex -0.3328135964798676 2.5730566579061915 1.9999999999999998
    vertex 0.4617795165095857 3.608590563838928 1.9999999999999998
  endloop
endfacet
facet normal -0.0 -0.0 1.0
  outer loop
    vertex 0.3328135964798602 24.667186403520148 1.9999999999999998
    vertex 0.4617795165095857 3.608590563838928 1.9999999999999998
    vertex 0.9705700235453932 21.908109632894988 1.9999999999999998
  endloop
endfacet
facet normal -0.0 -0.0 1.0
  outer loop
    vertex 0.3328135964798602 24.667186403520148 1.9999999999999998
    vertex 0.9705700235453932 21.908109632894988 1.9999999999999998
    vertex 1.3683475024126055 25.461779516509594 1.9999999999999998
  endloop
endfacet
facet normal -0.0 -0.0 1.0
  outer loop
    vertex 0.9705700235453932 21.908109632894988 1.9999999999999998
    vertex 0.4617795165095857 3.608590563838928 1.9999999999999998
    vertex 0.9612816290327395 4.814495338326324 1.9999999999999998
  endloop
endfacet
facet normal -0.0 -0.0 1.0
  outer loop
    vertex 1.3683475024126055 25.461779516509594 1.9999999999999998
    vertex 0.9705700235453932 21.908109632894988 1.9999999999999998
    vertex 1.2702712910592835 22.631652497587424 1.9999999999999998
  endloop
endfacet
facet normal -0.0 -0.0 1.0
  outer loop
    vertex 1.3683475024126055 25.461779516509594 1.9999999999999998
    vertex 1.2702712910592835 22.631652497587424 1.9999999999999998
    vertex 1.7470271588529813 23.25297284114708 1.9999999999999998
  endloop
endfacet
facet normal -0.0 -0.0 1.0
  outer loop
    vertex 1.3683475024126055 25.461779516509594 1.9999999999999998
    vertex 1.7470271588529813 23.25297284114708 1.9999999999999998
    vertex 2.5742522769000007 25.96128162903274 1.9999999999999998
  endloop
endfacet
facet normal -0.0 -0.0 1.0
  outer loop
    vertex 2.5742522769000007 25.96128162903274 1.9999999999999998
    vertex 1.7470271588529813 23.25297284114708 1.9999999999999998
    vertex 2.3683475024126204 23.729728708940762 1.9999999999999998
  endloop
endfacet
facet normal -0.0 -0.0 1.0
  outer loop
    vertex 2.5742522769000007 25.96128162903274 1.9999999999999998
    vertex 2.3683475024126204 23.729728708940762 1.9999999999999998
    vertex 3.0918903671050337 24.02942997645463 1.9999999999999998
  endloop
endfacet
facet normal -0.0 -0.0 1.0
  outer loop
    vertex 2.5742522769000007 25.96128162903274 1.9999999999999998
    vertex 3.0918903671050337 24.02942997645463 1.9999999999999998
    vertex 3.8683475024126173 26.131652497587393 1.9999999999999998
  endloop
endfacet
facet normal -0.0 -0.0 1.0
  outer loop
    vertex 3.8683475024126173 26.131652497587393 1.9999999999999998
    vertex 3.0918903671050337 24.02942997645463 1.9999999999999998
    vertex 3.8683475024126044 24.131652497587396 1.9999999999999998
  endloop
endfacet
facet normal -0.0 -0.0 1.0
  outer loop
    vertex 3.8683475024126173 26.131652497587393 1.9999999999999998
    vertex 3.8683475024126044 24.131652497587396 1.9999999999999998
    vertex 4.644804637720179 24.029429976454644 1.9999999999999998
  endloop
endfacet
facet normal -0.0 -0.0 1.0
  outer loop
    vertex 3.8683475024126173 26.131652497587393 1.9999999999999998
    vertex 4.644804637720179 24.029429976454644 1.9999999999999998
    vertex 5.162442727925223 25.96128162903273 1.9999999999999998
  endloop
endfacet
facet normal -0.0 -0.0 1.0
  outer loop
    vertex 5.162442727925223 25.96128162903273 1.9999999999999998
    vertex 4.644804637720179 24.029429976454644 1.9999999999999998
    vertex 5.368347502412578 23.72972870894073 1.9999999999999998
  endloop
endfacet
facet normal -0.0 -0.0 1.0
  outer loop
    vertex 5.162442727925223 25.96128162903273 1.9999999999999998
    vertex 5.368347502412578 23.72972870894073 1.9999999999999998
    vertex 6.368347502412642 25.461779516509605 1.9999999999999998
  endloop
endfacet
facet normal -0.0 -0.0 1.0
  outer loop
    vertex 6.368347502412642 25.461779516509605 1.9999999999999998
    vertex 5.368347502412578 23.72972870894073 1.9999999999999998
    vertex 5.989667845972249 23.252972841147066 1.9999999999999998
  endloop
endfacet
facet normal -0.0 -0.0 1.0
  outer loop
    vertex 6.368347502412642 25.461779516509605 1.9999999999999998
    vertex 5.989667845972249 23.252972841147066 1.9999999999999998
    vertex 6.466423713765929 22.63165249758744 1.9999999999999998
  endloop
endfacet
facet normal -0.0 -0.0 1.0
  outer loop
    vertex 6.368347502412642 25.461779516509605 1.9999999999999998
    vertex 6.466423713765929 22.63165249758744 1.9999999999999998
    vertex 7.40388140834534 24.667186403520162 1.9999999999999998
  endloop
endfacet
facet normal -0.0 -0.0 1.0
  outer loop
    vertex 7.40388140834534 24.667186403520162 1.9999999999999998
    vertex 6.466423713765929 22.63165249758744 1.9999999999999998
    vertex 6.766124981279833 21.908109632894988 1.9999999999999998
  endloop
endfacet
facet normal -0.0 -0.0 1.0
  outer loop
    vertex 7.40388140834534 24.667186403520162 1.9999999999999998
    vertex 6.766124981279833 21.908109632894988 1.9999999999999998
    vertex 6.868347502412568 21.131652497587403 1.9999999999999998
  endloop
endfacet
facet normal -0.0 -0.0 1.0
  outer loop
    vertex -6.868347502412598 6.108590563838939 1.9999999999999998
    vertex -6.368347502412599 10.438717582761132 1.9999999999999998
    vertex -7.403881408345333 9.644124469771668 1.9999999999999998
  endloop
endfacet
facet normal -0.0 -0.0 1.0
  outer loop
    vertex -6.368347502412599 10.438717582761132 1.9999999999999998
    vertex -6.868347502412598 6.108590563838939 1.9999999999999998
    vertex -6.766124981279797 6.8850476991465035 1.9999999999999998
  endloop
endfacet
facet normal -0.0 -0.0 1.0
  outer loop
    vertex -6.368347502412599 10.438717582761132 1.9999999999999998
    vertex -6.766124981279797 6.8850476991465035 1.9999999999999998
    vertex -6.466423713765915 7.608590563838936 1.9999999999999998
  endloop
endfacet
facet normal -0.0 -0.0 1.0
  outer loop
    vertex -6.368347502412599 10.438717582761132 1.9999999999999998
    vertex -6.466423713765915 7.608590563838936 1.9999999999999998
    vertex -5.989667845972241 8.229910907398581 1.9999999999999998
  endloop
endfacet
facet normal -0.0 -0.0 1.0
  outer loop
    vertex -6.368347502412599 10.438717582761132 1.9999999999999998
    vertex -5.989667845972241 8.229910907398581 1.9999999999999998
    vertex -5.162442727925213 10.938219695284278 1.9999999999999998
  endloop
endfacet
facet normal -0.0 -0.0 1.0
  outer loop
    vertex -5.162442727925213 10.938219695284278 1.9999999999999998
    vertex -5.989667845972241 8.229910907398581 1.9999999999999998
    vertex -5.368347502412601 8.706666775192259 1.9999999999999998
  endloop
endfacet
facet normal -0.0 -0.0 1.0
  outer loop
    vertex -5.162442727925213 10.938219695284278 1.9999999999999998
    vertex -5.368347502412601 8.706666775192259 1.9999999999999998
    vertex -4.644804637720163 9.006368042706136 1.9999999999999998
  endloop
endfacet
facet normal -0.0 -0.0 1.0
  outer loop
    vertex -5.162442727925213 10.938219695284278 1.9999999999999998
    vertex -4.644804637720163 9.006368042706136 1.9999999999999998
    vertex -3.868347502412604 11.108590563838927 1.9999999999999998
  endloop
endfacet
facet normal -0.0 -0.0 1.0
  outer loop
    vertex -3.868347502412604 11.108590563838927 1.9999999999999998
    vertex -4.644804637720163 9.006368042706136 1.9999999999999998
    vertex -3.8683475024126053 9.108590563838938 1.9999999999999998
  endloop
endfacet
facet normal -1.0 1.132743631735141e-15 0.0
  outer loop
    vertex -0.9999999999999819 22.131652497587442 1.9999999999999998
    vertex -0.9999999999999999 6.261083180234345 0.0
    vertex -0.9999999999999999 6.261083180234345 1.9999999999999998
  endloop
endfacet
facet normal -1.0 1.132743631735141e-15 0.0
  outer loop
    vertex -0.9999999999999999 6.261083180234345 0.0
    vertex -0.9999999999999819 22.131652497587442 1.9999999999999998
    vertex -0.9999999999999819 22.131652497587442 0.0
  endloop
endfacet
facet normal -0.9659258262890784 0.258819045102483 0.0
  outer loop
    vertex -0.9612816290327508 22.42574772310004 1.9999999999999998
    vertex -0.9999999999999819 22.131652497587442 0.0
    vertex -0.9999999999999819 22.131652497587442 1.9999999999999998
  endloop
endfacet
facet normal -0.991444861373824 0.13052619221994788 0.0
  outer loop
    vertex -0.9999999999999819 22.131652497587442 0.0
    vertex -0.9612816290327508 22.42574772310004 1.9999999999999998
    vertex -0.9612816290327508 22.42574772310004 0.0
  endloop
endfacet
facet normal -0.8660254037844336 0.5000000000000084 0.0
  outer loop
    vertex -0.46177951650956667 23.631652497587435 1.9999999999999998
    vertex -0.9612816290327508 22.42574772310004 0.0
    vertex -0.9612816290327508 22.42574772310004 1.9999999999999998
  endloop
endfacet
facet normal -0.9659258262890784 0.258819045102483 0.0
  outer loop
    vertex -0.9612816290327508 22.42574772310004 0.0
    vertex -0.46177951650956667 23.631652497587435 1.9999999999999998
    vertex -0.46177951650956667 23.631652497587435 0.0
  endloop
endfacet
facet normal -0.707106781186546 0.707106781186549 0.0
  outer loop
    vertex 0.3328135964798602 24.667186403520148 1.9999999999999998
    vertex -0.46177951650956667 23.631652497587435 0.0
    vertex -0.46177951650956667 23.631652497587435 1.9999999999999998
  endloop
endfacet
facet normal -0.8660254037844336 0.5000000000000084 0.0
  outer loop
    vertex -0.46177951650956667 23.631652497587435 0.0
    vertex 0.3328135964798602 24.667186403520148 1.9999999999999998
    vertex 0.3328135964798602 24.667186403520148 0.0
  endloop
endfacet
facet normal -0.707106781186546 0.707106781186549 0.0
  outer loop
    vertex 0.3328135964798602 24.667186403520148 1.9999999999999998
    vertex 1.3683475024126055 25.461779516509594 0.0
    vertex 0.3328135964798602 24.667186403520148 0.0
  endloop
endfacet
facet normal -0.4999999999999953 0.8660254037844415 0.0
  outer loop
    vertex 1.3683475024126055 25.461779516509594 0.0
    vertex 0.3328135964798602 24.667186403520148 1.9999999999999998
    vertex 1.3683475024126055 25.461779516509594 1.9999999999999998
  endloop
endfacet
facet normal -0.4999999999999953 0.8660254037844415 0.0
  outer loop
    vertex 1.3683475024126055 25.461779516509594 1.9999999999999998
    vertex 2.5742522769000007 25.96128162903274 0.0
    vertex 1.3683475024126055 25.461779516509594 0.0
  endloop
endfacet
facet normal -0.2588190451025181 0.965925826289069 0.0
  outer loop
    vertex 2.5742522769000007 25.96128162903274 0.0
    vertex 1.3683475024126055 25.461779516509594 1.9999999999999998
    vertex 2.5742522769000007 25.96128162903274 1.9999999999999998
  endloop
endfacet
facet normal -0.2588190451025181 0.965925826289069 0.0
  outer loop
    vertex 2.5742522769000007 25.96128162903274 1.9999999999999998
    vertex 3.8683475024126173 26.131652497587393 0.0
    vertex 2.5742522769000007 25.96128162903274 0.0
  endloop
endfacet
facet normal 4.820910453544975e-15 1.0 0.0
  outer loop
    vertex 3.8683475024126173 26.131652497587393 0.0
    vertex 2.5742522769000007 25.96128162903274 1.9999999999999998
    vertex 3.8683475024126173 26.131652497587393 1.9999999999999998
  endloop
endfacet
facet normal 4.820910453544975e-15 1.0 0.0
  outer loop
    vertex 3.8683475024126173 26.131652497587393 1.9999999999999998
    vertex 5.162442727925223 25.96128162903273 0.0
    vertex 3.8683475024126173 26.131652497587393 0.0
  endloop
endfacet
facet normal 0.2588190451025116 0.9659258262890708 0.0
  outer loop
    vertex 5.162442727925223 25.96128162903273 0.0
    vertex 3.8683475024126173 26.131652497587393 1.9999999999999998
    vertex 5.162442727925223 25.96128162903273 1.9999999999999998
  endloop
endfacet
facet normal 0.2588190451025116 0.9659258262890708 0.0
  outer loop
    vertex 5.162442727925223 25.96128162903273 1.9999999999999998
    vertex 6.368347502412642 25.461779516509605 0.0
    vertex 5.162442727925223 25.96128162903273 0.0
  endloop
endfacet
facet normal 0.4999999999999949 0.8660254037844416 0.0
  outer loop
    vertex 6.368347502412642 25.461779516509605 0.0
    vertex 5.162442727925223 25.96128162903273 1.9999999999999998
    vertex 6.368347502412642 25.461779516509605 1.9999999999999998
  endloop
endfacet
facet normal 0.4999999999999949 0.8660254037844416 0.0
  outer loop
    vertex 6.368347502412642 25.461779516509605 1.9999999999999998
    vertex 7.40388140834534 24.667186403520162 0.0
    vertex 6.368347502412642 25.461779516509605 0.0
  endloop
endfacet
facet normal 0.7071067811865461 0.7071067811865488 0.0
  outer loop
    vertex 7.40388140834534 24.667186403520162 0.0
    vertex 6.368347502412642 25.461779516509605 1.9999999999999998
    vertex 7.40388140834534 24.667186403520162 1.9999999999999998
  endloop
endfacet
facet normal 0.7071067811865461 0.7071067811865488 0.0
  outer loop
    vertex 7.40388140834534 24.667186403520162 0.0
    vertex 8.19847452133482 23.631652497587424 1.9999999999999998
    vertex 8.19847452133482 23.631652497587424 0.0
  endloop
endfacet
facet normal 0.8660254037844416 0.4999999999999948 0.0
  outer loop
    vertex 8.19847452133482 23.631652497587424 1.9999999999999998
    vertex 7.40388140834534 24.667186403520162 0.0
    vertex 7.40388140834534 24.667186403520162 1.9999999999999998
  endloop
endfacet
facet normal 0.8660254037844416 0.4999999999999948 0.0
  outer loop
    vertex 8.19847452133482 23.631652497587424 0.0
    vertex 8.697976633857929 22.42574772310003 1.9999999999999998
    vertex 8.697976633857929 22.42574772310003 0.0
  endloop
endfacet
facet normal 0.9659258262890698 0.25881904510251547 0.0
  outer loop
    vertex 8.697976633857929 22.42574772310003 1.9999999999999998
    vertex 8.19847452133482 23.631652497587424 0.0
    vertex 8.19847452133482 23.631652497587424 1.9999999999999998
  endloop
endfacet
facet normal 0.9659258262890698 0.25881904510251547 0.0
  outer loop
    vertex 8.697976633857929 22.42574772310003 0.0
    vertex 8.86834750241261 21.13165249758742 1.9999999999999998
    vertex 8.86834750241261 21.13165249758742 0.0
  endloop
endfacet
facet normal 1.0 3.2971106613893607e-15 0.0
  outer loop
    vertex 8.86834750241261 21.13165249758742 1.9999999999999998
    vertex 8.697976633857929 22.42574772310003 0.0
    vertex 8.697976633857929 22.42574772310003 1.9999999999999998
  endloop
endfacet
facet normal 1.0 3.2971106613893607e-15 0.0
  outer loop
    vertex 8.86834750241261 21.13165249758742 0.0
    vertex 8.69797663385794 19.83755727207483 1.9999999999999998
    vertex 8.69797663385794 19.83755727207483 0.0
  endloop
endfacet
facet normal 0.9659258262890696 -0.258819045102515 0.0
  outer loop
    vertex 8.69797663385794 19.83755727207483 1.9999999999999998
    vertex 8.86834750241261 21.13165249758742 0.0
    vertex 8.86834750241261 21.13165249758742 1.9999999999999998
  endloop
endfacet
facet normal 0.9659258262890696 -0.258819045102515 0.0
  outer loop
    vertex 8.69797663385794 19.83755727207483 0.0
    vertex 8.198474521334832 18.631652497587456 1.9999999999999998
    vertex 8.198474521334832 18.631652497587456 0.0
  endloop
endfacet
facet normal 0.8660254037844466 -0.4999999999999865 0.0
  outer loop
    vertex 8.198474521334832 18.631652497587456 1.9999999999999998
    vertex 8.69797663385794 19.83755727207483 0.0
    vertex 8.69797663385794 19.83755727207483 1.9999999999999998
  endloop
endfacet
facet normal 0.8660254037844466 -0.4999999999999865 0.0
  outer loop
    vertex 8.198474521334832 18.631652497587456 0.0
    vertex 7.403881408345362 17.59611859165468 1.9999999999999998
    vertex 7.403881408345362 17.59611859165468 0.0
  endloop
endfacet
facet normal 0.707106781186545 -0.7071067811865499 0.0
  outer loop
    vertex 7.403881408345362 17.59611859165468 1.9999999999999998
    vertex 8.198474521334832 18.631652497587456 0.0
    vertex 8.198474521334832 18.631652497587456 1.9999999999999998
  endloop
endfacet
facet normal 0.707106781186545 -0.7071067811865499 0.0
  outer loop
    vertex 7.403881408345362 17.59611859165468 1.9999999999999998
    vertex 6.368347502412575 16.801525478665212 0.0
    vertex 7.403881408345362 17.59611859165468 0.0
  endloop
endfacet
facet normal 0.49999999999999056 -0.866025403784444 0.0
  outer loop
    vertex 6.368347502412575 16.801525478665212 0.0
    vertex 7.403881408345362 17.59611859165468 1.9999999999999998
    vertex 6.368347502412575 16.801525478665212 1.9999999999999998
  endloop
endfacet
facet normal 0.49999999999999056 -0.866025403784444 0.0
  outer loop
    vertex 6.368347502412575 16.801525478665212 1.9999999999999998
    vertex 5.162442727925211 16.302023366142084 0.0
    vertex 6.368347502412575 16.801525478665212 0.0
  endloop
endfacet
facet normal 0.2588190451025178 -0.965925826289069 0.0
  outer loop
    vertex 5.162442727925211 16.302023366142084 0.0
    vertex 6.368347502412575 16.801525478665212 1.9999999999999998
    vertex 5.162442727925211 16.302023366142084 1.9999999999999998
  endloop
endfacet
facet normal 0.2588190451025178 -0.965925826289069 0.0
  outer loop
    vertex 5.162442727925211 16.302023366142084 1.9999999999999998
    vertex 3.868347502412614 16.131652497587428 0.0
    vertex 5.162442727925211 16.302023366142084 0.0
  endloop
endfacet
facet normal 0.1305261922200503 -0.9914448613738106 0.0
  outer loop
    vertex 3.868347502412614 16.131652497587428 0.0
    vertex 5.162442727925211 16.302023366142084 1.9999999999999998
    vertex 3.868347502412614 16.131652497587428 1.9999999999999998
  endloop
endfacet
facet normal -1.0 5.6399329650957815e-15 0.0
  outer loop
    vertex 3.8683475024126257 18.131652497587435 1.9999999999999998
    vertex 3.868347502412614 16.131652497587428 0.0
    vertex 3.868347502412614 16.131652497587428 1.9999999999999998
  endloop
endfacet
facet normal -1.0 5.6399329650957815e-15 0.0
  outer loop
    vertex 3.868347502412614 16.131652497587428 0.0
    vertex 3.8683475024126257 18.131652497587435 1.9999999999999998
    vertex 3.8683475024126257 18.131652497587435 0.0
  endloop
endfacet
facet normal -0.1305261922200475 0.9914448613738109 0.0
  outer loop
    vertex 3.8683475024126257 18.131652497587435 1.9999999999999998
    vertex 4.644804637720107 18.233875018720216 0.0
    vertex 3.8683475024126257 18.131652497587435 0.0
  endloop
endfacet
facet normal -0.25881904510251774 0.9659258262890691 0.0
  outer loop
    vertex 4.644804637720107 18.233875018720216 0.0
    vertex 3.8683475024126257 18.131652497587435 1.9999999999999998
    vertex 4.644804637720107 18.233875018720216 1.9999999999999998
  endloop
endfacet
facet normal -0.25881904510251774 0.9659258262890691 0.0
  outer loop
    vertex 4.644804637720107 18.233875018720216 1.9999999999999998
    vertex 5.368347502412572 18.533576286234116 0.0
    vertex 4.644804637720107 18.233875018720216 0.0
  endloop
endfacet
facet normal -0.49999999999999345 0.8660254037844425 0.0
  outer loop
    vertex 5.368347502412572 18.533576286234116 0.0
    vertex 4.644804637720107 18.233875018720216 1.9999999999999998
    vertex 5.368347502412572 18.533576286234116 1.9999999999999998
  endloop
endfacet
facet normal -0.49999999999999345 0.8660254037844425 0.0
  outer loop
    vertex 5.368347502412572 18.533576286234116 1.9999999999999998
    vertex 5.989667845972216 19.010332154027775 0.0
    vertex 5.368347502412572 18.533576286234116 0.0
  endloop
endfacet
facet normal -0.7071067811865329 0.7071067811865621 0.0
  outer loop
    vertex 5.989667845972216 19.010332154027775 0.0
    vertex 5.368347502412572 18.533576286234116 1.9999999999999998
    vertex 5.989667845972216 19.010332154027775 1.9999999999999998
  endloop
endfacet
facet normal -0.8660254037844208 0.5000000000000311 0.0
  outer loop
    vertex 6.4664237137659075 19.631652497587407 1.9999999999999998
    vertex 5.989667845972216 19.010332154027775 0.0
    vertex 5.989667845972216 19.010332154027775 1.9999999999999998
  endloop
endfacet
facet normal -0.7071067811865329 0.7071067811865621 0.0
  outer loop
    vertex 5.989667845972216 19.010332154027775 0.0
    vertex 6.4664237137659075 19.631652497587407 1.9999999999999998
    vertex 6.4664237137659075 19.631652497587407 0.0
  endloop
endfacet
facet normal -0.9659258262890728 0.25881904510250436 0.0
  outer loop
    vertex 6.766124981279835 20.355195362279847 1.9999999999999998
    vertex 6.4664237137659075 19.631652497587407 0.0
    vertex 6.4664237137659075 19.631652497587407 1.9999999999999998
  endloop
endfacet
facet normal -0.8660254037844208 0.5000000000000311 0.0
  outer loop
    vertex 6.4664237137659075 19.631652497587407 0.0
    vertex 6.766124981279835 20.355195362279847 1.9999999999999998
    vertex 6.766124981279835 20.355195362279847 0.0
  endloop
endfacet
facet normal -0.9999999999999999 1.470333132781724e-15 0.0
  outer loop
    vertex 6.868347502412568 21.131652497587403 1.9999999999999998
    vertex 6.766124981279835 20.355195362279847 0.0
    vertex 6.766124981279835 20.355195362279847 1.9999999999999998
  endloop
endfacet
facet normal -0.9659258262890728 0.25881904510250436 0.0
  outer loop
    vertex 6.766124981279835 20.355195362279847 0.0
    vertex 6.868347502412568 21.131652497587403 1.9999999999999998
    vertex 6.868347502412568 21.131652497587403 0.0
  endloop
endfacet
facet normal -0.965925826289077 -0.2588190451024881 0.0
  outer loop
    vertex 6.766124981279833 21.908109632894988 1.9999999999999998
    vertex 6.868347502412568 21.131652497587403 0.0
    vertex 6.868347502412568 21.131652497587403 1.9999999999999998
  endloop
endfacet
facet normal -0.9999999999999999 1.470333132781724e-15 0.0
  outer loop
    vertex 6.868347502412568 21.131652497587403 0.0
    vertex 6.766124981279833 21.908109632894988 1.9999999999999998
    vertex 6.766124981279833 21.908109632894988 0.0
  endloop
endfacet
facet normal -0.8660254037844316 -0.5000000000000122 0.0
  outer loop
    vertex 6.466423713765929 22.63165249758744 1.9999999999999998
    vertex 6.766124981279833 21.908109632894988 0.0
    vertex 6.766124981279833 21.908109632894988 1.9999999999999998
  endloop
endfacet
facet normal -0.965925826289077 -0.2588190451024881 0.0
  outer loop
    vertex 6.766124981279833 21.908109632894988 0.0
    vertex 6.466423713765929 22.63165249758744 1.9999999999999998
    vertex 6.466423713765929 22.63165249758744 0.0
  endloop
endfacet
facet normal -0.7071067811865297 -0.7071067811865653 0.0
  outer loop
    vertex 5.989667845972249 23.252972841147066 1.9999999999999998
    vertex 6.466423713765929 22.63165249758744 0.0
    vertex 6.466423713765929 22.63165249758744 1.9999999999999998
  endloop
endfacet
facet normal -0.8660254037844316 -0.5000000000000122 0.0
  outer loop
    vertex 6.466423713765929 22.63165249758744 0.0
    vertex 5.989667845972249 23.252972841147066 1.9999999999999998
    vertex 5.989667845972249 23.252972841147066 0.0
  endloop
endfacet
facet normal -0.7071067811865297 -0.7071067811865653 0.0
  outer loop
    vertex 5.989667845972249 23.252972841147066 1.9999999999999998
    vertex 5.368347502412578 23.72972870894073 0.0
    vertex 5.989667845972249 23.252972841147066 0.0
  endloop
endfacet
facet normal -0.5000000000000052 -0.8660254037844358 0.0
  outer loop
    vertex 5.368347502412578 23.72972870894073 0.0
    vertex 5.989667845972249 23.252972841147066 1.9999999999999998
    vertex 5.368347502412578 23.72972870894073 1.9999999999999998
  endloop
endfacet
facet normal -0.5000000000000052 -0.8660254037844358 0.0
  outer loop
    vertex 5.368347502412578 23.72972870894073 1.9999999999999998
    vertex 4.644804637720179 24.029429976454644 0.0
    vertex 5.368347502412578 23.72972870894073 0.0
  endloop
endfacet
facet normal -0.25881904510251663 -0.9659258262890693 0.0
  outer loop
    vertex 4.644804637720179 24.029429976454644 0.0
    vertex 5.368347502412578 23.72972870894073 1.9999999999999998
    vertex 4.644804637720179 24.029429976454644 1.9999999999999998
  endloop
endfacet
facet normal -0.25881904510251663 -0.9659258262890693 0.0
  outer loop
    vertex 4.644804637720179 24.029429976454644 1.9999999999999998
    vertex 3.8683475024126044 24.131652497587396 0.0
    vertex 4.644804637720179 24.029429976454644 0.0
  endloop
endfacet
facet normal 7.40513232328253e-15 -1.0 0.0
  outer loop
    vertex 3.8683475024126044 24.131652497587396 0.0
    vertex 4.644804637720179 24.029429976454644 1.9999999999999998
    vertex 3.8683475024126044 24.131652497587396 1.9999999999999998
  endloop
endfacet
facet normal 7.40513232328253e-15 -1.0 0.0
  outer loop
    vertex 3.8683475024126044 24.131652497587396 1.9999999999999998
    vertex 3.0918903671050337 24.02942997645463 0.0
    vertex 3.8683475024126044 24.131652497587396 0.0
  endloop
endfacet
facet normal 0.2588190451024947 -0.9659258262890752 0.0
  outer loop
    vertex 3.0918903671050337 24.02942997645463 0.0
    vertex 3.8683475024126044 24.131652497587396 1.9999999999999998
    vertex 3.0918903671050337 24.02942997645463 1.9999999999999998
  endloop
endfacet
facet normal 0.2588190451024947 -0.9659258262890752 0.0
  outer loop
    vertex 3.0918903671050337 24.02942997645463 1.9999999999999998
    vertex 2.3683475024126204 23.729728708940762 0.0
    vertex 3.0918903671050337 24.02942997645463 0.0
  endloop
endfacet
facet normal 0.49999999999999994 -0.8660254037844386 0.0
  outer loop
    vertex 2.3683475024126204 23.729728708940762 0.0
    vertex 3.0918903671050337 24.02942997645463 1.9999999999999998
    vertex 2.3683475024126204 23.729728708940762 1.9999999999999998
  endloop
endfacet
facet normal 0.49999999999999994 -0.8660254037844386 0.0
  outer loop
    vertex 2.3683475024126204 23.729728708940762 1.9999999999999998
    vertex 1.7470271588529813 23.25297284114708 0.0
    vertex 2.3683475024126204 23.729728708940762 0.0
  endloop
endfacet
facet normal 0.7071067811865465 -0.7071067811865487 0.0
  outer loop
    vertex 1.7470271588529813 23.25297284114708 0.0
    vertex 2.3683475024126204 23.729728708940762 1.9999999999999998
    vertex 1.7470271588529813 23.25297284114708 1.9999999999999998
  endloop
endfacet
facet normal 0.7071067811865465 -0.7071067811865487 0.0
  outer loop
    vertex 1.7470271588529813 23.25297284114708 0.0
    vertex 1.2702712910592835 22.631652497587424 1.9999999999999998
    vertex 1.2702712910592835 22.631652497587424 0.0
  endloop
endfacet
facet normal 0.866025403784434 -0.5000000000000078 0.0
  outer loop
    vertex 1.2702712910592835 22.631652497587424 1.9999999999999998
    vertex 1.7470271588529813 23.25297284114708 0.0
    vertex 1.7470271588529813 23.25297284114708 1.9999999999999998
  endloop
endfacet
facet normal 0.866025403784434 -0.5000000000000078 0.0
  outer loop
    vertex 1.2702712910592835 22.631652497587424 0.0
    vertex 0.9705700235453932 21.908109632894988 1.9999999999999998
    vertex 0.9705700235453932 21.908109632894988 0.0
  endloop
endfacet
facet normal 0.9238795325112862 -0.38268343236509134 0.0
  outer loop
    vertex 0.9705700235453932 21.908109632894988 1.9999999999999998
    vertex 1.2702712910592835 22.631652497587424 0.0
    vertex 1.2702712910592835 22.631652497587424 1.9999999999999998
  endloop
endfacet
facet normal 0.9998628009880227 0.016564395563541407 0.0
  outer loop
    vertex 0.9705700235453932 21.908109632894988 0.0
    vertex 0.999999999999996 20.13165249758739 1.9999999999999998
    vertex 0.999999999999996 20.13165249758739 0.0
  endloop
endfacet
facet normal 0.9998628009880227 0.016564395563541407 0.0
  outer loop
    vertex 0.999999999999996 20.13165249758739 1.9999999999999998
    vertex 0.9705700235453932 21.908109632894988 0.0
    vertex 0.9705700235453932 21.908109632894988 1.9999999999999998
  endloop
endfacet
facet normal 1.0 2.5810010839354124e-16 0.0
  outer loop
    vertex 0.999999999999996 20.13165249758739 0.0
    vertex 0.9999999999999999 5.108590563838936 1.9999999999999998
    vertex 0.9999999999999999 5.108590563838936 0.0
  endloop
endfacet
facet normal 1.0 2.5810010839354124e-16 0.0
  outer loop
    vertex 0.9999999999999999 5.108590563838936 1.9999999999999998
    vertex 0.999999999999996 20.13165249758739 0.0
    vertex 0.999999999999996 20.13165249758739 1.9999999999999998
  endloop
endfacet
facet normal 0.9914448613738117 -0.1305261922200405 0.0
  outer loop
    vertex 0.9999999999999999 5.108590563838936 0.0
    vertex 0.9612816290327395 4.814495338326324 1.9999999999999998
    vertex 0.9612816290327395 4.814495338326324 0.0
  endloop
endfacet
facet normal 0.9659258262890693 -0.2588190451025173 0.0
  outer loop
    vertex 0.9612816290327395 4.814495338326324 1.9999999999999998
    vertex 0.9999999999999999 5.108590563838936 0.0
    vertex 0.9999999999999999 5.108590563838936 1.9999999999999998
  endloop
endfacet
facet normal 0.9659258262890693 -0.2588190451025173 0.0
  outer loop
    vertex 0.9612816290327395 4.814495338326324 0.0
    vertex 0.4617795165095857 3.608590563838928 1.9999999999999998
    vertex 0.4617795165095857 3.608590563838928 0.0
  endloop
endfacet
facet normal 0.8660254037844379 -0.5000000000000013 0.0
  outer loop
    vertex 0.4617795165095857 3.608590563838928 1.9999999999999998
    vertex 0.9612816290327395 4.814495338326324 0.0
    vertex 0.9612816290327395 4.814495338326324 1.9999999999999998
  endloop
endfacet
facet normal 0.8660254037844379 -0.5000000000000013 0.0
  outer loop
    vertex 0.4617795165095857 3.608590563838928 0.0
    vertex -0.3328135964798676 2.5730566579061915 1.9999999999999998
    vertex -0.3328135964798676 2.5730566579061915 0.0
  endloop
endfacet
facet normal 0.7071067811865471 -0.7071067811865478 0.0
  outer loop
    vertex -0.3328135964798676 2.5730566579061915 1.9999999999999998
    vertex 0.4617795165095857 3.608590563838928 0.0
    vertex 0.4617795165095857 3.608590563838928 1.9999999999999998
  endloop
endfacet
facet normal 0.7071067811865471 -0.7071067811865478 0.0
  outer loop
    vertex -0.3328135964798676 2.5730566579061915 1.9999999999999998
    vertex -1.152492854259506 1.9440946419253142 0.0
    vertex -0.3328135964798676 2.5730566579061915 0.0
  endloop
endfacet
facet normal 0.6087614290087193 -0.7933533402912364 0.0
  outer loop
    vertex -1.152492854259506 1.9440946419253142 0.0
    vertex -0.3328135964798676 2.5730566579061915 1.9999999999999998
    vertex -1.152492854259506 1.9440946419253142 1.9999999999999998
  endloop
endfacet
facet normal 0.6087614290087192 -0.7933533402912364 0.0
  outer loop
    vertex -1.152492854259506 1.9440946419253142 1.9999999999999998
    vertex -1.3683475024126102 1.7784635449167352 0.0
    vertex -1.152492854259506 1.9440946419253142 0.0
  endloop
endfacet
facet normal 0.4999999999999974 -0.86602540378444 0.0
  outer loop
    vertex -1.3683475024126102 1.7784635449167352 0.0
    vertex -1.152492854259506 1.9440946419253142 1.9999999999999998
    vertex -1.3683475024126102 1.7784635449167352 1.9999999999999998
  endloop
endfacet
facet normal 0.4999999999999974 -0.86602540378444 0.0
  outer loop
    vertex -1.3683475024126102 1.7784635449167352 1.9999999999999998
    vertex -2.574252276900006 1.278961432393593 0.0
    vertex -1.3683475024126102 1.7784635449167352 0.0
  endloop
endfacet
facet normal 0.2588190451025199 -0.9659258262890685 0.0
  outer loop
    vertex -2.574252276900006 1.278961432393593 0.0
    vertex -1.3683475024126102 1.7784635449167352 1.9999999999999998
    vertex -2.574252276900006 1.278961432393593 1.9999999999999998
  endloop
endfacet
facet normal 0.2588190451025199 -0.9659258262890685 0.0
  outer loop
    vertex -2.574252276900006 1.278961432393593 1.9999999999999998
    vertex -3.8683475024126066 1.1085905638389317 0.0
    vertex -2.574252276900006 1.278961432393593 0.0
  endloop
endfacet
facet normal -1.5148886822599746e-15 -1.0 0.0
  outer loop
    vertex -3.8683475024126066 1.1085905638389317 0.0
    vertex -2.574252276900006 1.278961432393593 1.9999999999999998
    vertex -3.8683475024126066 1.1085905638389317 1.9999999999999998
  endloop
endfacet
facet normal -1.5148886822599746e-15 -1.0 0.0
  outer loop
    vertex -3.8683475024126066 1.1085905638389317 1.9999999999999998
    vertex -5.162442727925203 1.2789614323935965 0.0
    vertex -3.8683475024126066 1.1085905638389317 0.0
  endloop
endfacet
facet normal -0.25881904510252085 -0.9659258262890683 0.0
  outer loop
    vertex -5.162442727925203 1.2789614323935965 0.0
    vertex -3.8683475024126066 1.1085905638389317 1.9999999999999998
    vertex -5.162442727925203 1.2789614323935965 1.9999999999999998
  endloop
endfacet
facet normal -0.25881904510252085 -0.9659258262890683 0.0
  outer loop
    vertex -5.162442727925203 1.2789614323935965 1.9999999999999998
    vertex -6.36834750241261 1.7784635449167414 0.0
    vertex -5.162442727925203 1.2789614323935965 0.0
  endloop
endfacet
facet normal -0.5000000000000029 -0.866025403784437 0.0
  outer loop
    vertex -6.36834750241261 1.7784635449167414 0.0
    vertex -5.162442727925203 1.2789614323935965 1.9999999999999998
    vertex -6.36834750241261 1.7784635449167414 1.9999999999999998
  endloop
endfacet
facet normal -0.5000000000000029 -0.866025403784437 0.0
  outer loop
    vertex -6.36834750241261 1.7784635449167414 1.9999999999999998
    vertex -7.403881408345333 2.573056657906205 0.0
    vertex -6.36834750241261 1.7784635449167414 0.0
  endloop
endfacet
facet normal -0.7071067811865502 -0.707106781186545 0.0
  outer loop
    vertex -7.403881408345333 2.573056657906205 0.0
    vertex -6.36834750241261 1.7784635449167414 1.9999999999999998
    vertex -7.403881408345333 2.573056657906205 1.9999999999999998
  endloop
endfacet
facet normal -0.8660254037844405 -0.49999999999999684 0.0
  outer loop
    vertex -8.19847452133479 3.6085905638389364 1.9999999999999998
    vertex -7.403881408345333 2.573056657906205 0.0
    vertex -7.403881408345333 2.573056657906205 1.9999999999999998
  endloop
endfacet
facet normal -0.7071067811865502 -0.707106781186545 0.0
  outer loop
    vertex -7.403881408345333 2.573056657906205 0.0
    vertex -8.19847452133479 3.6085905638389364 1.9999999999999998
    vertex -8.19847452133479 3.6085905638389364 0.0
  endloop
endfacet
facet normal -0.9659258262890681 -0.25881904510252157 0.0
  outer loop
    vertex -8.697976633857923 4.814495338326336 1.9999999999999998
    vertex -8.19847452133479 3.6085905638389364 0.0
    vertex -8.19847452133479 3.6085905638389364 1.9999999999999998
  endloop
endfacet
facet normal -0.8660254037844405 -0.49999999999999684 0.0
  outer loop
    vertex -8.19847452133479 3.6085905638389364 0.0
    vertex -8.697976633857923 4.814495338326336 1.9999999999999998
    vertex -8.697976633857923 4.814495338326336 0.0
  endloop
endfacet
facet normal -1.0 -3.1990884525372437e-15 0.0
  outer loop
    vertex -8.8683475024126 6.108590563838939 1.9999999999999998
    vertex -8.697976633857923 4.814495338326336 0.0
    vertex -8.697976633857923 4.814495338326336 1.9999999999999998
  endloop
endfacet
facet normal -0.9659258262890681 -0.25881904510252157 0.0
  outer loop
    vertex -8.697976633857923 4.814495338326336 0.0
    vertex -8.8683475024126 6.108590563838939 1.9999999999999998
    vertex -8.8683475024126 6.108590563838939 0.0
  endloop
endfacet
facet normal -0.9659258262890688 0.2588190451025194 0.0
  outer loop
    vertex -8.697976633857932 7.4026857893515405 1.9999999999999998
    vertex -8.8683475024126 6.108590563838939 0.0
    vertex -8.8683475024126 6.108590563838939 1.9999999999999998
  endloop
endfacet
facet normal -1.0 -3.1990884525372437e-15 0.0
  outer loop
    vertex -8.8683475024126 6.108590563838939 0.0
    vertex -8.697976633857932 7.4026857893515405 1.9999999999999998
    vertex -8.697976633857932 7.4026857893515405 0.0
  endloop
endfacet
facet normal -0.8660254037844392 0.4999999999999994 0.0
  outer loop
    vertex -8.198474521334798 8.608590563838934 1.9999999999999998
    vertex -8.697976633857932 7.4026857893515405 0.0
    vertex -8.697976633857932 7.4026857893515405 1.9999999999999998
  endloop
endfacet
facet normal -0.9659258262890688 0.2588190451025194 0.0
  outer loop
    vertex -8.697976633857932 7.4026857893515405 0.0
    vertex -8.198474521334798 8.608590563838934 1.9999999999999998
    vertex -8.198474521334798 8.608590563838934 0.0
  endloop
endfacet
facet normal -0.7071067811865469 0.707106781186548 0.0
  outer loop
    vertex -7.403881408345333 9.644124469771668 1.9999999999999998
    vertex -8.198474521334798 8.608590563838934 0.0
    vertex -8.198474521334798 8.608590563838934 1.9999999999999998
  endloop
endfacet
facet normal -0.8660254037844392 0.4999999999999994 0.0
  outer loop
    vertex -8.198474521334798 8.608590563838934 0.0
    vertex -7.403881408345333 9.644124469771668 1.9999999999999998
    vertex -7.403881408345333 9.644124469771668 0.0
  endloop
endfacet
facet normal -0.7071067811865469 0.707106781186548 0.0
  outer loop
    vertex -7.403881408345333 9.644124469771668 1.9999999999999998
    vertex -6.368347502412599 10.438717582761132 0.0
    vertex -7.403881408345333 9.644124469771668 0.0
  endloop
endfacet
facet normal -0.5000000000000041 0.8660254037844364 0.0
  outer loop
    vertex -6.368347502412599 10.438717582761132 0.0
    vertex -7.403881408345333 9.644124469771668 1.9999999999999998
    vertex -6.368347502412599 10.438717582761132 1.9999999999999998
  endloop
endfacet
facet normal -0.5000000000000041 0.8660254037844364 0.0
  outer loop
    vertex -6.368347502412599 10.438717582761132 1.9999999999999998
    vertex -5.162442727925213 10.938219695284278 0.0
    vertex -6.368347502412599 10.438717582761132 0.0
  endloop
endfacet
facet normal -0.2588190451025178 0.9659258262890692 0.0
  outer loop
    vertex -5.162442727925213 10.938219695284278 0.0
    vertex -6.368347502412599 10.438717582761132 1.9999999999999998
    vertex -5.162442727925213 10.938219695284278 1.9999999999999998
  endloop
endfacet
facet normal -0.2588190451025178 0.9659258262890692 0.0
  outer loop
    vertex -5.162442727925213 10.938219695284278 1.9999999999999998
    vertex -3.868347502412604 11.108590563838927 0.0
    vertex -5.162442727925213 10.938219695284278 0.0
  endloop
endfacet
facet normal -0.1305261922200427 0.9914448613738117 0.0
  outer loop
    vertex -3.868347502412604 11.108590563838927 0.0
    vertex -5.162442727925213 10.938219695284278 1.9999999999999998
    vertex -3.868347502412604 11.108590563838927 1.9999999999999998
  endloop
endfacet
facet normal 1.0 -7.049916206369786e-16 0.0
  outer loop
    vertex -3.868347502412604 11.108590563838927 0.0
    vertex -3.8683475024126053 9.108590563838938 1.9999999999999998
    vertex -3.8683475024126053 9.108590563838938 0.0
  endloop
endfacet
facet normal 1.0 -7.049916206369786e-16 0.0
  outer loop
    vertex -3.8683475024126053 9.108590563838938 1.9999999999999998
    vertex -3.868347502412604 11.108590563838927 0.0
    vertex -3.868347502412604 11.108590563838927 1.9999999999999998
  endloop
endfacet
facet normal 0.13052619222006323 -0.9914448613738089 0.0
  outer loop
    vertex -3.8683475024126053 9.108590563838938 1.9999999999999998
    vertex -4.644804637720163 9.006368042706136 0.0
    vertex -3.8683475024126053 9.108590563838938 0.0
  endloop
endfacet
facet normal 0.25881904510251885 -0.9659258262890688 0.0
  outer loop
    vertex -4.644804637720163 9.006368042706136 0.0
    vertex -3.8683475024126053 9.108590563838938 1.9999999999999998
    vertex -4.644804637720163 9.006368042706136 1.9999999999999998
  endloop
endfacet
facet normal 0.25881904510251885 -0.9659258262890688 0.0
  outer loop
    vertex -4.644804637720163 9.006368042706136 1.9999999999999998
    vertex -5.368347502412601 8.706666775192259 0.0
    vertex -4.644804637720163 9.006368042706136 0.0
  endloop
endfacet
facet normal 0.4999999999999964 -0.8660254037844407 0.0
  outer loop
    vertex -5.368347502412601 8.706666775192259 0.0
    vertex -4.644804637720163 9.006368042706136 1.9999999999999998
    vertex -5.368347502412601 8.706666775192259 1.9999999999999998
  endloop
endfacet
facet normal 0.4999999999999964 -0.8660254037844407 0.0
  outer loop
    vertex -5.368347502412601 8.706666775192259 1.9999999999999998
    vertex -5.989667845972241 8.229910907398581 0.0
    vertex -5.368347502412601 8.706666775192259 0.0
  endloop
endfacet
facet normal 0.7071067811865502 -0.7071067811865447 0.0
  outer loop
    vertex -5.989667845972241 8.229910907398581 0.0
    vertex -5.368347502412601 8.706666775192259 1.9999999999999998
    vertex -5.989667845972241 8.229910907398581 1.9999999999999998
  endloop
endfacet
facet normal 0.7071067811865502 -0.7071067811865447 0.0
  outer loop
    vertex -5.989667845972241 8.229910907398581 0.0
    vertex -6.466423713765915 7.608590563838936 1.9999999999999998
    vertex -6.466423713765915 7.608590563838936 0.0
  endloop
endfacet
facet normal 0.8660254037844403 -0.4999999999999974 0.0
  outer loop
    vertex -6.466423713765915 7.608590563838936 1.9999999999999998
    vertex -5.989667845972241 8.229910907398581 0.0
    vertex -5.989667845972241 8.229910907398581 1.9999999999999998
  endloop
endfacet
facet normal 0.8660254037844403 -0.4999999999999974 0.0
  outer loop
    vertex -6.466423713765915 7.608590563838936 0.0
    vertex -6.766124981279797 6.8850476991465035 1.9999999999999998
    vertex -6.766124981279797 6.8850476991465035 0.0
  endloop
endfacet
facet normal 0.9659258262890681 -0.25881904510252135 0.0
  outer loop
    vertex -6.766124981279797 6.8850476991465035 1.9999999999999998
    vertex -6.466423713765915 7.608590563838936 0.0
    vertex -6.466423713765915 7.608590563838936 1.9999999999999998
  endloop
endfacet
facet normal 0.9659258262890681 -0.25881904510252135 0.0
  outer loop
    vertex -6.766124981279797 6.8850476991465035 0.0
    vertex -6.868347502412598 6.108590563838939 1.9999999999999998
    vertex -6.868347502412598 6.108590563838939 0.0
  endloop
endfacet
facet normal 1.0 -9.098243203455486e-15 0.0
  outer loop
    vertex -6.868347502412598 6.108590563838939 1.9999999999999998
    vertex -6.766124981279797 6.8850476991465035 0.0
    vertex -6.766124981279797 6.8850476991465035 1.9999999999999998
  endloop
endfacet
facet normal 1.0 -9.098243203455486e-15 0.0
  outer loop
    vertex -6.868347502412598 6.108590563838939 0.0
    vertex -6.766124981279811 5.332133428531371 1.9999999999999998
    vertex -6.766124981279811 5.332133428531371 0.0
  endloop
endfacet
facet normal 0.9659258262890686 0.2588190451025197 0.0
  outer loop
    vertex -6.766124981279811 5.332133428531371 1.9999999999999998
    vertex -6.868347502412598 6.108590563838939 0.0
    vertex -6.868347502412598 6.108590563838939 1.9999999999999998
  endloop
endfacet
facet normal 0.9659258262890686 0.2588190451025197 0.0
  outer loop
    vertex -6.766124981279811 5.332133428531371 0.0
    vertex -6.466423713765915 4.608590563838935 1.9999999999999998
    vertex -6.466423713765915 4.608590563838935 0.0
  endloop
endfacet
facet normal 0.8660254037844393 0.49999999999999895 0.0
  outer loop
    vertex -6.466423713765915 4.608590563838935 1.9999999999999998
    vertex -6.766124981279811 5.332133428531371 0.0
    vertex -6.766124981279811 5.332133428531371 1.9999999999999998
  endloop
endfacet
facet normal 0.8660254037844393 0.49999999999999895 0.0
  outer loop
    vertex -6.466423713765915 4.608590563838935 0.0
    vertex -5.9896678459722485 3.987270220279287 1.9999999999999998
    vertex -5.9896678459722485 3.987270220279287 0.0
  endloop
endfacet
facet normal 0.7071067811865467 0.7071067811865485 0.0
  outer loop
    vertex -5.9896678459722485 3.987270220279287 1.9999999999999998
    vertex -6.466423713765915 4.608590563838935 0.0
    vertex -6.466423713765915 4.608590563838935 1.9999999999999998
  endloop
endfacet
facet normal 0.7071067811865467 0.7071067811865485 0.0
  outer loop
    vertex -5.9896678459722485 3.987270220279287 1.9999999999999998
    vertex -5.3683475024125995 3.510514352485623 0.0
    vertex -5.9896678459722485 3.987270220279287 0.0
  endloop
endfacet
facet normal 0.49999999999999517 0.8660254037844416 0.0
  outer loop
    vertex -5.3683475024125995 3.510514352485623 0.0
    vertex -5.9896678459722485 3.987270220279287 1.9999999999999998
    vertex -5.3683475024125995 3.510514352485623 1.9999999999999998
  endloop
endfacet
facet normal 0.49999999999999517 0.8660254037844416 0.0
  outer loop
    vertex -5.3683475024125995 3.510514352485623 1.9999999999999998
    vertex -4.6448046377201635 3.2108130849717322 0.0
    vertex -5.3683475024125995 3.510514352485623 0.0
  endloop
endfacet
facet normal 0.25881904510252607 0.965925826289067 0.0
  outer loop
    vertex -4.6448046377201635 3.2108130849717322 0.0
    vertex -5.3683475024125995 3.510514352485623 1.9999999999999998
    vertex -4.6448046377201635 3.2108130849717322 1.9999999999999998
  endloop
endfacet
facet normal 0.25881904510252607 0.965925826289067 0.0
  outer loop
    vertex -4.6448046377201635 3.2108130849717322 1.9999999999999998
    vertex -3.868347502412604 3.108590563838931 0.0
    vertex -4.6448046377201635 3.2108130849717322 0.0
  endloop
endfacet
facet normal 1.113888736955864e-15 1.0 0.0
  outer loop
    vertex -3.868347502412604 3.108590563838931 0.0
    vertex -4.6448046377201635 3.2108130849717322 1.9999999999999998
    vertex -3.868347502412604 3.108590563838931 1.9999999999999998
  endloop
endfacet
facet normal 1.113888736955864e-15 1.0 0.0
  outer loop
    vertex -3.868347502412604 3.108590563838931 1.9999999999999998
    vertex -3.0918903671050413 3.2108130849717305 0.0
    vertex -3.868347502412604 3.108590563838931 0.0
  endloop
endfacet
facet normal -0.2588190451025215 0.9659258262890681 0.0
  outer loop
    vertex -3.0918903671050413 3.2108130849717305 0.0
    vertex -3.868347502412604 3.108590563838931 1.9999999999999998
    vertex -3.0918903671050413 3.2108130849717305 1.9999999999999998
  endloop
endfacet
facet normal -0.2588190451025215 0.9659258262890681 0.0
  outer loop
    vertex -3.0918903671050413 3.2108130849717305 1.9999999999999998
    vertex -2.3683475024126044 3.510514352485616 0.0
    vertex -3.0918903671050413 3.2108130849717305 0.0
  endloop
endfacet
facet normal -0.4999999999999983 0.8660254037844395 0.0
  outer loop
    vertex -2.3683475024126044 3.510514352485616 0.0
    vertex -3.0918903671050413 3.2108130849717305 1.9999999999999998
    vertex -2.3683475024126044 3.510514352485616 1.9999999999999998
  endloop
endfacet
facet normal -0.4999999999999983 0.8660254037844395 0.0
  outer loop
    vertex -2.3683475024126044 3.510514352485616 1.9999999999999998
    vertex -1.7470271588529596 3.9872702202792913 0.0
    vertex -2.3683475024126044 3.510514352485616 0.0
  endloop
endfacet
facet normal -0.7071067811865471 0.707106781186548 0.0
  outer loop
    vertex -1.7470271588529596 3.9872702202792913 0.0
    vertex -2.3683475024126044 3.510514352485616 1.9999999999999998
    vertex -1.7470271588529596 3.9872702202792913 1.9999999999999998
  endloop
endfacet
facet normal -0.8660254037844379 0.500000000000001 0.0
  outer loop
    vertex -1.2702712910592868 4.6085905638389315 1.9999999999999998
    vertex -1.7470271588529596 3.9872702202792913 0.0
    vertex -1.7470271588529596 3.9872702202792913 1.9999999999999998
  endloop
endfacet
facet normal -0.7071067811865471 0.707106781186548 0.0
  outer loop
    vertex -1.7470271588529596 3.9872702202792913 0.0
    vertex -1.2702712910592868 4.6085905638389315 1.9999999999999998
    vertex -1.2702712910592868 4.6085905638389315 0.0
  endloop
endfacet
facet normal -0.9238795325112863 0.38268343236509106 0.0
  outer loop
    vertex -1.152492854259506 4.892932863316063 1.9999999999999998
    vertex -1.2702712910592868 4.6085905638389315 0.0
    vertex -1.2702712910592868 4.6085905638389315 1.9999999999999998
  endloop
endfacet
facet normal -0.8660254037844379 0.500000000000001 0.0
  outer loop
    vertex -1.2702712910592868 4.6085905638389315 0.0
    vertex -1.152492854259506 4.892932863316063 1.9999999999999998
    vertex -1.152492854259506 4.892932863316063 0.0
  endloop
endfacet
facet normal -0.9938457130124891 0.11077318595534164 0.0
  outer loop
    vertex -0.9999999999999999 6.261083180234345 1.9999999999999998
    vertex -1.152492854259506 4.892932863316063 0.0
    vertex -1.152492854259506 4.892932863316063 1.9999999999999998
  endloop
endfacet
facet normal -0.9938457130124891 0.11077318595534164 0.0
  outer loop
    vertex -1.152492854259506 4.892932863316063 0.0
    vertex -0.9999999999999999 6.261083180234345 1.9999999999999998
    vertex -0.9999999999999999 6.261083180234345 0.0
  endloop
endfacet
endsolid Untitled-54975a1a
