solid Untitled-54975911
facet normal 0.0 0.0 -1.0
  outer loop
    vertex -8.697976633857932 7.4026857893515405 0.0
    vertex -8.697976633857923 4.814495338326336 0.0
    vertex -8.8683475024126 6.108590563838939 0.0
  endloop
endfacet
facet normal 0.0 0.0 -1.0
  outer loop
    vertex -8.697976633857923 4.814495338326336 0.0
    vertex -8.697976633857932 7.4026857893515405 0.0
    vertex -8.198474521334798 8.608590563838934 0.0
  endloop
endfacet
facet normal 0.0 0.0 -1.0
  outer loop
    vertex -8.697976633857923 4.814495338326336 0.0
    vertex -8.198474521334798 8.608590563838934 0.0
    vertex -8.19847452133479 3.6085905638389364 0.0
  endloop
endfacet
facet normal 0.0 0.0 -1.0
  outer loop
    vertex -8.19847452133479 3.6085905638389364 0.0
    vertex -8.198474521334798 8.608590563838934 0.0
    vertex -7.403881408345333 9.644124469771668 0.0
  endloop
endfacet
facet normal 0.0 0.0 -1.0
  outer loop
    vertex -8.19847452133479 3.6085905638389364 0.0
    vertex -7.403881408345333 9.644124469771668 0.0
    vertex -7.403881408345333 2.573056657906205 0.0
  endloop
endfacet
facet normal 0.0 0.0 -1.0
  outer loop
    vertex -7.403881408345333 2.573056657906205 0.0
    vertex -7.403881408345333 9.644124469771668 0.0
    vertex -6.368347502412599 10.438717582761132 0.0
  endloop
endfacet
facet normal 0.0 0.0 -1.0
  outer loop
    vertex -7.403881408345333 2.573056657906205 0.0
    vertex -6.368347502412599 10.438717582761132 0.0
    vertex -6.868347502412598 6.108590563838939 0.0
  endloop
endfacet
facet normal 0.0 0.0 -1.0
  outer loop
    vertex -6.868347502412598 6.108590563838939 0.0
    vertex -6.368347502412599 10.438717582761132 0.0
    vertex -6.766124981279797 6.8850476991465035 0.0
  endloop
endfacet
facet normal 0.0 0.0 -1.0
  outer loop
    vertex -6.766124981279797 6.8850476991465035 0.0
    vertex -6.368347502412599 10.438717582761132 0.0
    vertex -6.466423713765915 7.608590563838936 0.0
  endloop
endfacet
facet normal 0.0 0.0 -1.0
  outer loop
    vertex -6.466423713765915 7.608590563838936 0.0
    vertex -6.368347502412599 10.438717582761132 0.0
    vertex -5.989667845972241 8.229910907398581 0.0
  endloop
endfacet
facet normal 0.0 0.0 -1.0
  outer loop
    vertex -5.989667845972241 8.229910907398581 0.0
    vertex -6.368347502412599 10.438717582761132 0.0
    vertex -5.162442727925213 10.938219695284278 0.0
  endloop
endfacet
facet normal 0.0 0.0 -1.0
  outer loop
    vertex -5.989667845972241 8.229910907398581 0.0
    vertex -5.162442727925213 10.938219695284278 0.0
    vertex -5.368347502412601 8.706666775192259 0.0
  endloop
endfacet
facet normal 0.0 0.0 -1.0
  outer loop
    vertex -5.368347502412601 8.706666775192259 0.0
    vertex -5.162442727925213 10.938219695284278 0.0
    vertex -4.644804637720163 9.006368042706136 0.0
  endloop
endfacet
facet normal 0.0 0.0 -1.0
  outer loop
    vertex -4.644804637720163 9.006368042706136 0.0
    vertex -5.162442727925213 10.938219695284278 0.0
    vertex -3.868347502412604 11.108590563838927 0.0
  endloop
endfacet
facet normal 0.0 0.0 -1.0
  outer loop
    vertex -4.644804637720163 9.006368042706136 0.0
    vertex -3.868347502412604 11.108590563838927 0.0
    vertex -3.8683475024126053 9.108590563838938 0.0
  endloop
endfacet
facet normal 0.0 0.0 -1.0
  outer loop
    vertex -2.4999999999999982 29.33012701892219 0.0
    vertex -3.0 24.999999999999996 0.0
    vertex -3.535533905932735 28.535533905932734 0.0
  endloop
endfacet
facet normal 0.0 0.0 -1.0
  outer loop
    vertex -3.0 24.999999999999996 0.0
    vertex -2.4999999999999982 29.33012701892219 0.0
    vertex -2.8977774788672046 25.776457135307563 0.0
  endloop
endfacet
facet normal 0.0 0.0 -1.0
  outer loop
    vertex -2.8977774788672046 25.776457135307563 0.0
    vertex -2.4999999999999982 29.33012701892219 0.0
    vertex -2.5980762113533156 26.499999999999996 0.0
  endloop
endfacet
facet normal 0.0 0.0 -1.0
  outer loop
    vertex -2.5980762113533156 26.499999999999996 0.0
    vertex -2.4999999999999982 29.33012701892219 0.0
    vertex -2.1213203435596415 27.121320343559642 0.0
  endloop
endfacet
facet normal 0.0 0.0 -1.0
  outer loop
    vertex -2.1213203435596415 27.121320343559642 0.0
    vertex -2.4999999999999982 29.33012701892219 0.0
    vertex -1.2940952255126015 29.829629131445337 0.0
  endloop
endfacet
facet normal 0.0 0.0 -1.0
  outer loop
    vertex -2.1213203435596415 27.121320343559642 0.0
    vertex -1.2940952255126015 29.829629131445337 0.0
    vertex -1.4999999999999991 27.598076211353312 0.0
  endloop
endfacet
facet normal 0.0 0.0 -1.0
  outer loop
    vertex -1.4999999999999991 27.598076211353312 0.0
    vertex -1.2940952255126015 29.829629131445337 0.0
    vertex -0.7764571353075611 27.897777478867205 0.0
  endloop
endfacet
facet normal 0.0 0.0 -1.0
  outer loop
    vertex -0.7764571353075611 27.897777478867205 0.0
    vertex -1.2940952255126015 29.829629131445337 0.0
    vertex 6.123233995736765e-16 29.999999999999996 0.0
  endloop
endfacet
facet normal 0.0 0.0 -1.0
  outer loop
    vertex -0.7764571353075611 27.897777478867205 0.0
    vertex 6.123233995736765e-16 29.999999999999996 0.0
    vertex 3.67394039744206e-16 27.999999999999993 0.0
  endloop
endfacet
facet normal 0.0 0.0 -1.0
  outer loop
    vertex 3.67394039744206e-16 27.999999999999993 0.0
    vertex 6.123233995736765e-16 29.999999999999996 0.0
    vertex 0.7764571353075631 27.897777478867198 0.0
  endloop
endfacet
facet normal 0.0 0.0 -1.0
  outer loop
    vertex 0.7764571353075631 27.897777478867198 0.0
    vertex 6.123233995736765e-16 29.999999999999996 0.0
    vertex 1.2940952255126048 29.829629131445337 0.0
  endloop
endfacet
facet normal 0.0 0.0 -1.0
  outer loop
    vertex 0.7764571353075631 27.897777478867198 0.0
    vertex 1.2940952255126048 29.829629131445337 0.0
    vertex 1.500000000000001 27.598076211353312 0.0
  endloop
endfacet
facet normal 0.0 0.0 -1.0
  outer loop
    vertex 1.500000000000001 27.598076211353312 0.0
    vertex 1.2940952255126048 29.829629131445337 0.0
    vertex 2.5000000000000013 29.33012701892219 0.0
  endloop
endfacet
facet normal 0.0 0.0 -1.0
  outer loop
    vertex 1.500000000000001 27.598076211353312 0.0
    vertex 2.5000000000000013 29.33012701892219 0.0
    vertex 2.121320343559643 27.121320343559635 0.0
  endloop
endfacet
facet normal 0.0 0.0 -1.0
  outer loop
    vertex 2.121320343559643 27.121320343559635 0.0
    vertex 2.5000000000000013 29.33012701892219 0.0
    vertex 2.598076211353316 26.499999999999996 0.0
  endloop
endfacet
facet normal 0.0 0.0 -1.0
  outer loop
    vertex 2.598076211353316 26.499999999999996 0.0
    vertex 2.5000000000000013 29.33012701892219 0.0
    vertex 3.5355339059327373 28.535533905932734 0.0
  endloop
endfacet
facet normal 0.0 0.0 -1.0
  outer loop
    vertex 2.598076211353316 26.499999999999996 0.0
    vertex 3.5355339059327373 28.535533905932734 0.0
    vertex 2.897777478867205 25.776457135307556 0.0
  endloop
endfacet
facet normal 0.0 0.0 -1.0
  outer loop
    vertex 2.897777478867205 25.776457135307556 0.0
    vertex 3.5355339059327373 28.535533905932734 0.0
    vertex 3.0 24.999999999999996 0.0
  endloop
endfacet
facet normal 0.0 0.0 -1.0
  outer loop
    vertex 3.0 24.999999999999996 0.0
    vertex 3.5355339059327373 28.535533905932734 0.0
    vertex 4.999999999999999 24.999999999999996 0.0
  endloop
endfacet
facet normal 0.0 0.0 -1.0
  outer loop
    vertex 4.999999999999999 24.999999999999996 0.0
    vertex 3.5355339059327373 28.535533905932734 0.0
    vertex 4.330127018922193 27.499999999999996 0.0
  endloop
endfacet
facet normal 0.0 0.0 -1.0
  outer loop
    vertex 4.999999999999999 24.999999999999996 0.0
    vertex 4.330127018922193 27.499999999999996 0.0
    vertex 4.829629131445341 26.294095225512603 0.0
  endloop
endfacet
facet normal 0.0 0.0 -1.0
  outer loop
    vertex -4.82962913144534 26.294095225512603 0.0
    vertex -4.8296291314453415 23.705904774487397 0.0
    vertex -4.999999999999999 24.999999999999996 0.0
  endloop
endfacet
facet normal 0.0 0.0 -1.0
  outer loop
    vertex -4.8296291314453415 23.705904774487397 0.0
    vertex -4.82962913144534 26.294095225512603 0.0
    vertex -4.3301270189221945 22.5 0.0
  endloop
endfacet
facet normal 0.0 0.0 -1.0
  outer loop
    vertex -4.3301270189221945 22.5 0.0
    vertex -4.82962913144534 26.294095225512603 0.0
    vertex -4.330127018922191 27.5 0.0
  endloop
endfacet
facet normal 0.0 0.0 -1.0
  outer loop
    vertex -4.3301270189221945 22.5 0.0
    vertex -4.330127018922191 27.5 0.0
    vertex -3.535533905932738 21.464466094067262 0.0
  endloop
endfacet
facet normal 0.0 0.0 -1.0
  outer loop
    vertex -3.535533905932738 21.464466094067262 0.0
    vertex -4.330127018922191 27.5 0.0
    vertex -3.535533905932735 28.535533905932734 0.0
  endloop
endfacet
facet normal 0.0 0.0 -1.0
  outer loop
    vertex -3.535533905932738 21.464466094067262 0.0
    vertex -3.535533905932735 28.535533905932734 0.0
    vertex -2.5000000000000018 20.669872981077805 0.0
  endloop
endfacet
facet normal 0.0 0.0 -1.0
  outer loop
    vertex -2.5000000000000018 20.669872981077805 0.0
    vertex -3.535533905932735 28.535533905932734 0.0
    vertex -3.0 24.999999999999996 0.0
  endloop
endfacet
facet normal 0.0 0.0 -1.0
  outer loop
    vertex -2.5000000000000018 20.669872981077805 0.0
    vertex -3.0 24.999999999999996 0.0
    vertex -2.897777478867205 24.223542864692437 0.0
  endloop
endfacet
facet normal 0.0 0.0 -1.0
  outer loop
    vertex -2.5000000000000018 20.669872981077805 0.0
    vertex -2.897777478867205 24.223542864692437 0.0
    vertex -2.5980762113533173 23.5 0.0
  endloop
endfacet
facet normal 0.0 0.0 -1.0
  outer loop
    vertex -2.5000000000000018 20.669872981077805 0.0
    vertex -2.5980762113533173 23.5 0.0
    vertex -2.1213203435596433 22.878679656440355 0.0
  endloop
endfacet
facet normal 0.0 0.0 -1.0
  outer loop
    vertex -2.5000000000000018 20.669872981077805 0.0
    vertex -2.1213203435596433 22.878679656440355 0.0
    vertex -1.2940952255126077 20.170370868554656 0.0
  endloop
endfacet
facet normal 0.0 0.0 -1.0
  outer loop
    vertex -1.2940952255126077 20.170370868554656 0.0
    vertex -2.1213203435596433 22.878679656440355 0.0
    vertex -1.5000000000000016 22.40192378864668 0.0
  endloop
endfacet
facet normal 0.0 0.0 -1.0
  outer loop
    vertex -1.2940952255126077 20.170370868554656 0.0
    vertex -1.5000000000000016 22.40192378864668 0.0
    vertex -0.7764571353075648 22.10222252113279 0.0
  endloop
endfacet
facet normal 0.0 0.0 -1.0
  outer loop
    vertex -1.2940952255126077 20.170370868554656 0.0
    vertex -0.7764571353075648 22.10222252113279 0.0
    vertex -0.9999999999999999 20.131652497587393 0.0
  endloop
endfacet
facet normal 0.0 0.0 -1.0
  outer loop
    vertex -0.9999999999999999 20.131652497587393 0.0
    vertex -0.7764571353075648 22.10222252113279 0.0
    vertex -0.9999999999999999 6.261083180234345 0.0
  endloop
endfacet
facet normal 0.0 0.0 -1.0
  outer loop
    vertex -6.868347502412598 6.108590563838939 0.0
    vertex -6.36834750241261 1.7784635449167414 0.0
    vertex -7.403881408345333 2.573056657906205 0.0
  endloop
endfacet
facet normal 0.0 0.0 -1.0
  outer loop
    vertex -6.36834750241261 1.7784635449167414 0.0
    vertex -6.868347502412598 6.108590563838939 0.0
    vertex -6.766124981279811 5.332133428531371 0.0
  endloop
endfacet
facet normal 0.0 0.0 -1.0
  outer loop
    vertex -6.36834750241261 1.7784635449167414 0.0
    vertex -6.766124981279811 5.332133428531371 0.0
    vertex -6.466423713765915 4.608590563838935 0.0
  endloop
endfacet
facet normal 0.0 0.0 -1.0
  outer loop
    vertex -6.36834750241261 1.7784635449167414 0.0
    vertex -6.466423713765915 4.608590563838935 0.0
    vertex -5.9896678459722485 3.987270220279287 0.0
  endloop
endfacet
facet normal 0.0 0.0 -1.0
  outer loop
    vertex -6.36834750241261 1.7784635449167414 0.0
    vertex -5.9896678459722485 3.987270220279287 0.0
    vertex -5.162442727925203 1.2789614323935965 0.0
  endloop
endfacet
facet normal 0.0 0.0 -1.0
  outer loop
    vertex -5.162442727925203 1.2789614323935965 0.0
    vertex -5.9896678459722485 3.987270220279287 0.0
    vertex -5.3683475024125995 3.510514352485623 0.0
  endloop
endfacet
facet normal 0.0 0.0 -1.0
  outer loop
    vertex -5.162442727925203 1.2789614323935965 0.0
    vertex -5.3683475024125995 3.510514352485623 0.0
    vertex -4.6448046377201635 3.2108130849717322 0.0
  endloop
endfacet
facet normal 0.0 0.0 -1.0
  outer loop
    vertex -5.162442727925203 1.2789614323935965 0.0
    vertex -4.6448046377201635 3.2108130849717322 0.0
    vertex -3.8683475024126066 1.1085905638389317 0.0
  endloop
endfacet
facet normal 0.0 0.0 -1.0
  outer loop
    vertex -3.8683475024126066 1.1085905638389317 0.0
    vertex -4.6448046377201635 3.2108130849717322 0.0
    vertex -3.868347502412604 3.108590563838931 0.0
  endloop
endfacet
facet normal 0.0 0.0 -1.0
  outer loop
    vertex -3.8683475024126066 1.1085905638389317 0.0
    vertex -3.868347502412604 3.108590563838931 0.0
    vertex -2.574252276900006 1.278961432393593 0.0
  endloop
endfacet
facet normal 0.0 0.0 -1.0
  outer loop
    vertex -2.574252276900006 1.278961432393593 0.0
    vertex -3.868347502412604 3.108590563838931 0.0
    vertex -3.0918903671050413 3.2108130849717305 0.0
  endloop
endfacet
facet normal 0.0 0.0 -1.0
  outer loop
    vertex -2.574252276900006 1.278961432393593 0.0
    vertex -3.0918903671050413 3.2108130849717305 0.0
    vertex -2.3683475024126044 3.510514352485616 0.0
  endloop
endfacet
facet normal 0.0 0.0 -1.0
  outer loop
    vertex -2.574252276900006 1.278961432393593 0.0
    vertex -2.3683475024126044 3.510514352485616 0.0
    vertex -1.3683475024126102 1.7784635449167352 0.0
  endloop
endfacet
facet normal 0.0 0.0 -1.0
  outer loop
    vertex -1.3683475024126102 1.7784635449167352 0.0
    vertex -2.3683475024126044 3.510514352485616 0.0
    vertex -1.7470271588529596 3.9872702202792913 0.0
  endloop
endfacet
facet normal 0.0 0.0 -1.0
  outer loop
    vertex -1.3683475024126102 1.7784635449167352 0.0
    vertex -1.7470271588529596 3.9872702202792913 0.0
    vertex -1.2702712910592868 4.6085905638389315 0.0
  endloop
endfacet
facet normal 0.0 0.0 -1.0
  outer loop
    vertex -1.3683475024126102 1.7784635449167352 0.0
    vertex -1.2702712910592868 4.6085905638389315 0.0
    vertex -1.152492854259506 1.9440946419253142 0.0
  endloop
endfacet
facet normal 0.0 0.0 -1.0
  outer loop
    vertex -1.152492854259506 1.9440946419253142 0.0
    vertex -1.2702712910592868 4.6085905638389315 0.0
    vertex -1.152492854259506 4.892932863316063 0.0
  endloop
endfacet
facet normal 0.0 0.0 -1.0
  outer loop
    vertex -1.152492854259506 1.9440946419253142 0.0
    vertex -1.152492854259506 4.892932863316063 0.0
    vertex -0.9999999999999999 6.261083180234345 0.0
  endloop
endfacet
facet normal 0.0 0.0 -1.0
  outer loop
    vertex -1.152492854259506 1.9440946419253142 0.0
    vertex -0.9999999999999999 6.261083180234345 0.0
    vertex -0.3328135964798676 2.5730566579061915 0.0
  endloop
endfacet
facet normal 0.0 0.0 -1.0
  outer loop
    vertex -0.3328135964798676 2.5730566579061915 0.0
    vertex -0.9999999999999999 6.261083180234345 0.0
    vertex -0.7764571353075648 22.10222252113279 0.0
  endloop
endfacet
facet normal 0.0 0.0 -1.0
  outer loop
    vertex -0.3328135964798676 2.5730566579061915 0.0
    vertex -0.7764571353075648 22.10222252113279 0.0
    vertex 0.0 21.999999999999996 0.0
  endloop
endfacet
facet normal 0.0 0.0 -1.0
  outer loop
    vertex -0.3328135964798676 2.5730566579061915 0.0
    vertex 0.0 21.999999999999996 0.0
    vertex 0.4617795165095857 3.608590563838928 0.0
  endloop
endfacet
facet normal 0.0 0.0 -1.0
  outer loop
    vertex 0.4617795165095857 3.608590563838928 0.0
    vertex 0.0 21.999999999999996 0.0
    vertex 0.9999999999999998 21.999999999999996 0.0
  endloop
endfacet
facet normal 0.0 0.0 -1.0
  outer loop
    vertex 0.4617795165095857 3.608590563838928 0.0
    vertex 0.9999999999999998 21.999999999999996 0.0
    vertex 0.9612816290327395 4.814495338326324 0.0
  endloop
endfacet
facet normal 0.0 0.0 -1.0
  outer loop
    vertex 0.9612816290327395 4.814495338326324 0.0
    vertex 0.9999999999999998 21.999999999999996 0.0
    vertex 0.9999999999999999 5.108590563838936 0.0
  endloop
endfacet
facet normal 0.0 0.0 1.0
  outer loop
    vertex -8.697976633857923 4.814495338326336 1.9999999999999998
    vertex -8.697976633857932 7.4026857893515405 1.9999999999999998
    vertex -8.8683475024126 6.108590563838939 1.9999999999999998
  endloop
endfacet
facet normal 0.0 0.0 1.0
  outer loop
    vertex -8.697976633857932 7.4026857893515405 1.9999999999999998
    vertex -8.697976633857923 4.814495338326336 1.9999999999999998
    vertex -8.198474521334798 8.608590563838934 1.9999999999999998
  endloop
endfacet
facet normal 0.0 0.0 1.0
  outer loop
    vertex -8.198474521334798 8.608590563838934 1.9999999999999998
    vertex -8.697976633857923 4.814495338326336 1.9999999999999998
    vertex -8.19847452133479 3.6085905638389364 1.9999999999999998
  endloop
endfacet
facet normal 0.0 0.0 1.0
  outer loop
    vertex -8.198474521334798 8.608590563838934 1.9999999999999998
    vertex -8.19847452133479 3.6085905638389364 1.9999999999999998
    vertex -7.403881408345333 9.644124469771668 1.9999999999999998
  endloop
endfacet
facet normal 0.0 0.0 1.0
  outer loop
    vertex -7.403881408345333 9.644124469771668 1.9999999999999998
    vertex -8.19847452133479 3.6085905638389364 1.9999999999999998
    vertex -7.403881408345333 2.573056657906205 1.9999999999999998
  endloop
endfacet
facet normal 0.0 0.0 1.0
  outer loop
    vertex -7.403881408345333 9.644124469771668 1.9999999999999998
    vertex -7.403881408345333 2.573056657906205 1.9999999999999998
    vertex -6.36834750241261 1.7784635449167414 1.9999999999999998
  endloop
endfacet
facet normal 0.0 0.0 1.0
  outer loop
    vertex -7.403881408345333 9.644124469771668 1.9999999999999998
    vertex -6.36834750241261 1.7784635449167414 1.9999999999999998
    vertex -6.868347502412598 6.108590563838939 1.9999999999999998
  endloop
endfacet
facet normal 0.0 0.0 1.0
  outer loop
    vertex -6.868347502412598 6.108590563838939 1.9999999999999998
    vertex -6.36834750241261 1.7784635449167414 1.9999999999999998
    vertex -6.766124981279811 5.332133428531371 1.9999999999999998
  endloop
endfacet
facet normal 0.0 0.0 1.0
  outer loop
    vertex -6.766124981279811 5.332133428531371 1.9999999999999998
    vertex -6.36834750241261 1.7784635449167414 1.9999999999999998
    vertex -6.466423713765915 4.608590563838935 1.9999999999999998
  endloop
endfacet
facet normal 0.0 0.0 1.0
  outer loop
    vertex -6.466423713765915 4.608590563838935 1.9999999999999998
    vertex -6.36834750241261 1.7784635449167414 1.9999999999999998
    vertex -5.9896678459722485 3.987270220279287 1.9999999999999998
  endloop
endfacet
facet normal 0.0 0.0 1.0
  outer loop
    vertex -5.9896678459722485 3.987270220279287 1.9999999999999998
    vertex -6.36834750241261 1.7784635449167414 1.9999999999999998
    vertex -5.162442727925203 1.2789614323935965 1.9999999999999998
  endloop
endfacet
facet normal 0.0 0.0 1.0
  outer loop
    vertex -5.9896678459722485 3.987270220279287 1.9999999999999998
    vertex -5.162442727925203 1.2789614323935965 1.9999999999999998
    vertex -5.3683475024125995 3.510514352485623 1.9999999999999998
  endloop
endfacet
facet normal 0.0 0.0 1.0
  outer loop
    vertex -5.3683475024125995 3.510514352485623 1.9999999999999998
    vertex -5.162442727925203 1.2789614323935965 1.9999999999999998
    vertex -4.6448046377201635 3.2108130849717322 1.9999999999999998
  endloop
endfacet
facet normal 0.0 0.0 1.0
  outer loop
    vertex -4.6448046377201635 3.2108130849717322 1.9999999999999998
    vertex -5.162442727925203 1.2789614323935965 1.9999999999999998
    vertex -3.8683475024126066 1.1085905638389317 1.9999999999999998
  endloop
endfacet
facet normal 0.0 0.0 1.0
  outer loop
    vertex -4.6448046377201635 3.2108130849717322 1.9999999999999998
    vertex -3.8683475024126066 1.1085905638389317 1.9999999999999998
    vertex -3.868347502412604 3.108590563838931 1.9999999999999998
  endloop
endfacet
facet normal 0.0 0.0 1.0
  outer loop
    vertex -3.868347502412604 3.108590563838931 1.9999999999999998
    vertex -3.8683475024126066 1.1085905638389317 1.9999999999999998
    vertex -2.574252276900006 1.278961432393593 1.9999999999999998
  endloop
endfacet
facet normal 0.0 0.0 1.0
  outer loop
    vertex -3.868347502412604 3.108590563838931 1.9999999999999998
    vertex -2.574252276900006 1.278961432393593 1.9999999999999998
    vertex -3.0918903671050413 3.2108130849717305 1.9999999999999998
  endloop
endfacet
facet normal 0.0 0.0 1.0
  outer loop
    vertex -3.0918903671050413 3.2108130849717305 1.9999999999999998
    vertex -2.574252276900006 1.278961432393593 1.9999999999999998
    vertex -2.3683475024126044 3.510514352485616 1.9999999999999998
  endloop
endfacet
facet normal 0.0 0.0 1.0
  outer loop
    vertex -2.3683475024126044 3.510514352485616 1.9999999999999998
    vertex -2.574252276900006 1.278961432393593 1.9999999999999998
    vertex -1.3683475024126102 1.7784635449167352 1.9999999999999998
  endloop
endfacet
facet normal 0.0 0.0 1.0
  outer loop
    vertex -2.3683475024126044 3.510514352485616 1.9999999999999998
    vertex -1.3683475024126102 1.7784635449167352 1.9999999999999998
    vertex -1.7470271588529596 3.9872702202792913 1.9999999999999998
  endloop
endfacet
facet normal 0.0 0.0 1.0
  outer loop
    vertex -1.7470271588529596 3.9872702202792913 1.9999999999999998
    vertex -1.3683475024126102 1.7784635449167352 1.9999999999999998
    vertex -1.2702712910592868 4.6085905638389315 1.9999999999999998
  endloop
endfacet
facet normal 0.0 0.0 1.0
  outer loop
    vertex -1.2702712910592868 4.6085905638389315 1.9999999999999998
    vertex -1.3683475024126102 1.7784635449167352 1.9999999999999998
    vertex -1.152492854259506 1.9440946419253142 1.9999999999999998
  endloop
endfacet
facet normal 0.0 0.0 1.0
  outer loop
    vertex -1.2702712910592868 4.6085905638389315 1.9999999999999998
    vertex -1.152492854259506 1.9440946419253142 1.9999999999999998
    vertex -1.152492854259506 4.892932863316063 1.9999999999999998
  endloop
endfacet
facet normal 0.0 0.0 1.0
  outer loop
    vertex -1.152492854259506 4.892932863316063 1.9999999999999998
    vertex -1.152492854259506 1.9440946419253142 1.9999999999999998
    vertex -0.3328135964798676 2.5730566579061915 1.9999999999999998
  endloop
endfacet
facet normal 0.0 0.0 1.0
  outer loop
    vertex -1.152492854259506 4.892932863316063 1.9999999999999998
    vertex -0.3328135964798676 2.5730566579061915 1.9999999999999998
    vertex -0.9999999999999999 6.261083180234345 1.9999999999999998
  endloop
endfacet
facet normal 0.0 0.0 1.0
  outer loop
    vertex -0.9999999999999999 6.261083180234345 1.9999999999999998
    vertex -0.3328135964798676 2.5730566579061915 1.9999999999999998
    vertex -0.9999999999999999 20.131652497587393 1.9999999999999998
  endloop
endfacet
facet normal 0.0 0.0 1.0
  outer loop
    vertex -0.9999999999999999 20.131652497587393 1.9999999999999998
    vertex -0.3328135964798676 2.5730566579061915 1.9999999999999998
    vertex -0.7764571353075648 22.10222252113279 1.9999999999999998
  endloop
endfacet
facet normal 0.0 0.0 1.0
  outer loop
    vertex -0.7764571353075648 22.10222252113279 1.9999999999999998
    vertex -0.3328135964798676 2.5730566579061915 1.9999999999999998
    vertex 0.0 21.999999999999996 1.9999999999999998
  endloop
endfacet
facet normal 0.0 0.0 1.0
  outer loop
    vertex 0.0 21.999999999999996 1.9999999999999998
    vertex -0.3328135964798676 2.5730566579061915 1.9999999999999998
    vertex 0.4617795165095857 3.608590563838928 1.9999999999999998
  endloop
endfacet
facet normal 0.0 0.0 1.0
  outer loop
    vertex 0.0 21.999999999999996 1.9999999999999998
    vertex 0.4617795165095857 3.608590563838928 1.9999999999999998
    vertex 0.9999999999999998 21.999999999999996 1.9999999999999998
  endloop
endfacet
facet normal 0.0 0.0 1.0
  outer loop
    vertex 0.9999999999999998 21.999999999999996 1.9999999999999998
    vertex 0.4617795165095857 3.608590563838928 1.9999999999999998
    vertex 0.9612816290327395 4.814495338326324 1.9999999999999998
  endloop
endfacet
facet normal 0.0 0.0 1.0
  outer loop
    vertex 0.9999999999999998 21.999999999999996 1.9999999999999998
    vertex 0.9612816290327395 4.814495338326324 1.9999999999999998
    vertex 0.9999999999999999 5.108590563838936 1.9999999999999998
  endloop
endfacet
facet normal 0.0 0.0 1.0
  outer loop
    vertex -4.8296291314453415 23.705904774487397 1.9999999999999998
    vertex -4.82962913144534 26.294095225512603 1.9999999999999998
    vertex -4.999999999999999 24.999999999999996 1.9999999999999998
  endloop
endfacet
facet normal 0.0 0.0 1.0
  outer loop
    vertex -4.82962913144534 26.294095225512603 1.9999999999999998
    vertex -4.8296291314453415 23.705904774487397 1.9999999999999998
    vertex -4.3301270189221945 22.5 1.9999999999999998
  endloop
endfacet
facet normal 0.0 0.0 1.0
  outer loop
    vertex -4.82962913144534 26.294095225512603 1.9999999999999998
    vertex -4.3301270189221945 22.5 1.9999999999999998
    vertex -4.330127018922191 27.5 1.9999999999999998
  endloop
endfacet
facet normal 0.0 0.0 1.0
  outer loop
    vertex -4.330127018922191 27.5 1.9999999999999998
    vertex -4.3301270189221945 22.5 1.9999999999999998
    vertex -3.535533905932738 21.464466094067262 1.9999999999999998
  endloop
endfacet
facet normal 0.0 0.0 1.0
  outer loop
    vertex -4.330127018922191 27.5 1.9999999999999998
    vertex -3.535533905932738 21.464466094067262 1.9999999999999998
    vertex -3.535533905932735 28.535533905932734 1.9999999999999998
  endloop
endfacet
facet normal 0.0 0.0 1.0
  outer loop
    vertex -3.535533905932735 28.535533905932734 1.9999999999999998
    vertex -3.535533905932738 21.464466094067262 1.9999999999999998
    vertex -2.5000000000000018 20.669872981077805 1.9999999999999998
  endloop
endfacet
facet normal 0.0 0.0 1.0
  outer loop
    vertex -3.535533905932735 28.535533905932734 1.9999999999999998
    vertex -2.5000000000000018 20.669872981077805 1.9999999999999998
    vertex -3.0 24.999999999999996 1.9999999999999998
  endloop
endfacet
facet normal 0.0 0.0 1.0
  outer loop
    vertex -3.0 24.999999999999996 1.9999999999999998
    vertex -2.5000000000000018 20.669872981077805 1.9999999999999998
    vertex -2.897777478867205 24.223542864692437 1.9999999999999998
  endloop
endfacet
facet normal 0.0 0.0 1.0
  outer loop
    vertex -2.897777478867205 24.223542864692437 1.9999999999999998
    vertex -2.5000000000000018 20.669872981077805 1.9999999999999998
    vertex -2.5980762113533173 23.5 1.9999999999999998
  endloop
endfacet
facet normal 0.0 0.0 1.0
  outer loop
    vertex -2.5980762113533173 23.5 1.9999999999999998
    vertex -2.5000000000000018 20.669872981077805 1.9999999999999998
    vertex -2.1213203435596433 22.878679656440355 1.9999999999999998
  endloop
endfacet
facet normal 0.0 0.0 1.0
  outer loop
    vertex -2.1213203435596433 22.878679656440355 1.9999999999999998
    vertex -2.5000000000000018 20.669872981077805 1.9999999999999998
    vertex -1.2940952255126077 20.170370868554656 1.9999999999999998
  endloop
endfacet
facet normal 0.0 0.0 1.0
  outer loop
    vertex -2.1213203435596433 22.878679656440355 1.9999999999999998
    vertex -1.2940952255126077 20.170370868554656 1.9999999999999998
    vertex -1.5000000000000016 22.40192378864668 1.9999999999999998
  endloop
endfacet
facet normal 0.0 0.0 1.0
  outer loop
    vertex -1.5000000000000016 22.40192378864668 1.9999999999999998
    vertex -1.2940952255126077 20.170370868554656 1.9999999999999998
    vertex -0.7764571353075648 22.10222252113279 1.9999999999999998
  endloop
endfacet
facet normal 0.0 0.0 1.0
  outer loop
    vertex -0.7764571353075648 22.10222252113279 1.9999999999999998
    vertex -1.2940952255126077 20.170370868554656 1.9999999999999998
    vertex -0.9999999999999999 20.131652497587393 1.9999999999999998
  endloop
endfacet
facet normal 0.0 0.0 1.0
  outer loop
    vertex -3.0 24.999999999999996 1.9999999999999998
    vertex -2.4999999999999982 29.33012701892219 1.9999999999999998
    vertex -3.535533905932735 28.535533905932734 1.9999999999999998
  endloop
endfacet
facet normal 0.0 0.0 1.0
  outer loop
    vertex -2.4999999999999982 29.33012701892219 1.9999999999999998
    vertex -3.0 24.999999999999996 1.9999999999999998
    vertex -2.8977774788672046 25.776457135307563 1.9999999999999998
  endloop
endfacet
facet normal 0.0 0.0 1.0
  outer loop
    vertex -2.4999999999999982 29.33012701892219 1.9999999999999998
    vertex -2.8977774788672046 25.776457135307563 1.9999999999999998
    vertex -2.5980762113533156 26.499999999999996 1.9999999999999998
  endloop
endfacet
facet normal 0.0 0.0 1.0
  outer loop
    vertex -2.4999999999999982 29.33012701892219 1.9999999999999998
    vertex -2.5980762113533156 26.499999999999996 1.9999999999999998
    vertex -2.1213203435596415 27.121320343559642 1.9999999999999998
  endloop
endfacet
facet normal 0.0 0.0 1.0
  outer loop
    vertex -2.4999999999999982 29.33012701892219 1.9999999999999998
    vertex -2.1213203435596415 27.121320343559642 1.9999999999999998
    vertex -1.2940952255126015 29.829629131445337 1.9999999999999998
  endloop
endfacet
facet normal 0.0 0.0 1.0
  outer loop
    vertex -1.2940952255126015 29.829629131445337 1.9999999999999998
    vertex -2.1213203435596415 27.121320343559642 1.9999999999999998
    vertex -1.4999999999999991 27.598076211353312 1.9999999999999998
  endloop
endfacet
facet normal 0.0 0.0 1.0
  outer loop
    vertex -1.2940952255126015 29.829629131445337 1.9999999999999998
    vertex -1.4999999999999991 27.598076211353312 1.9999999999999998
    vertex -0.7764571353075611 27.897777478867205 1.9999999999999998
  endloop
endfacet
facet normal 0.0 0.0 1.0
  outer loop
    vertex -1.2940952255126015 29.829629131445337 1.9999999999999998
    vertex -0.7764571353075611 27.897777478867205 1.9999999999999998
    vertex 6.123233995736765e-16 29.999999999999996 1.9999999999999998
  endloop
endfacet
facet normal 0.0 0.0 1.0
  outer loop
    vertex 6.123233995736765e-16 29.999999999999996 1.9999999999999998
    vertex -0.7764571353075611 27.897777478867205 1.9999999999999998
    vertex 3.67394039744206e-16 27.999999999999993 1.9999999999999998
  endloop
endfacet
facet normal 0.0 0.0 1.0
  outer loop
    vertex 6.123233995736765e-16 29.999999999999996 1.9999999999999998
    vertex 3.67394039744206e-16 27.999999999999993 1.9999999999999998
    vertex 0.7764571353075631 27.897777478867198 1.9999999999999998
  endloop
endfacet
facet normal 0.0 0.0 1.0
  outer loop
    vertex 6.123233995736765e-16 29.999999999999996 1.9999999999999998
    vertex 0.7764571353075631 27.897777478867198 1.9999999999999998
    vertex 1.2940952255126048 29.829629131445337 1.9999999999999998
  endloop
endfacet
facet normal 0.0 0.0 1.0
  outer loop
    vertex 1.2940952255126048 29.829629131445337 1.9999999999999998
    vertex 0.7764571353075631 27.897777478867198 1.9999999999999998
    vertex 1.500000000000001 27.598076211353312 1.9999999999999998
  endloop
endfacet
facet normal 0.0 0.0 1.0
  outer loop
    vertex 1.2940952255126048 29.829629131445337 1.9999999999999998
    vertex 1.500000000000001 27.598076211353312 1.9999999999999998
    vertex 2.5000000000000013 29.33012701892219 1.9999999999999998
  endloop
endfacet
facet normal 0.0 0.0 1.0
  outer loop
    vertex 2.5000000000000013 29.33012701892219 1.9999999999999998
    vertex 1.500000000000001 27.598076211353312 1.9999999999999998
    vertex 2.121320343559643 27.121320343559635 1.9999999999999998
  endloop
endfacet
facet normal 0.0 0.0 1.0
  outer loop
    vertex 2.5000000000000013 29.33012701892219 1.9999999999999998
    vertex 2.121320343559643 27.121320343559635 1.9999999999999998
    vertex 2.598076211353316 26.499999999999996 1.9999999999999998
  endloop
endfacet
facet normal 0.0 0.0 1.0
  outer loop
    vertex 2.5000000000000013 29.33012701892219 1.9999999999999998
    vertex 2.598076211353316 26.499999999999996 1.9999999999999998
    vertex 3.5355339059327373 28.535533905932734 1.9999999999999998
  endloop
endfacet
facet normal 0.0 0.0 1.0
  outer loop
    vertex 3.5355339059327373 28.535533905932734 1.9999999999999998
    vertex 2.598076211353316 26.499999999999996 1.9999999999999998
    vertex 2.897777478867205 25.776457135307556 1.9999999999999998
  endloop
endfacet
facet normal 0.0 0.0 1.0
  outer loop
    vertex 3.5355339059327373 28.535533905932734 1.9999999999999998
    vertex 2.897777478867205 25.776457135307556 1.9999999999999998
    vertex 3.0 24.999999999999996 1.9999999999999998
  endloop
endfacet
facet normal 0.0 0.0 1.0
  outer loop
    vertex 3.5355339059327373 28.535533905932734 1.9999999999999998
    vertex 3.0 24.999999999999996 1.9999999999999998
    vertex 4.999999999999999 24.999999999999996 1.9999999999999998
  endloop
endfacet
facet normal 0.0 0.0 1.0
  outer loop
    vertex 3.5355339059327373 28.535533905932734 1.9999999999999998
    vertex 4.999999999999999 24.999999999999996 1.9999999999999998
    vertex 4.330127018922193 27.499999999999996 1.9999999999999998
  endloop
endfacet
facet normal 0.0 0.0 1.0
  outer loop
    vertex 4.330127018922193 27.499999999999996 1.9999999999999998
    vertex 4.999999999999999 24.999999999999996 1.9999999999999998
    vertex 4.829629131445341 26.294095225512603 1.9999999999999998
  endloop
endfacet
facet normal 0.0 0.0 1.0
  outer loop
    vertex -6.868347502412598 6.108590563838939 1.9999999999999998
    vertex -6.368347502412599 10.438717582761132 1.9999999999999998
    vertex -7.403881408345333 9.644124469771668 1.9999999999999998
  endloop
endfacet
facet normal 0.0 0.0 1.0
  outer loop
    vertex -6.368347502412599 10.438717582761132 1.9999999999999998
    vertex -6.868347502412598 6.108590563838939 1.9999999999999998
    vertex -6.766124981279797 6.8850476991465035 1.9999999999999998
  endloop
endfacet
facet normal 0.0 0.0 1.0
  outer loop
    vertex -6.368347502412599 10.438717582761132 1.9999999999999998
    vertex -6.766124981279797 6.8850476991465035 1.9999999999999998
    vertex -6.466423713765915 7.608590563838936 1.9999999999999998
  endloop
endfacet
facet normal 0.0 0.0 1.0
  outer loop
    vertex -6.368347502412599 10.438717582761132 1.9999999999999998
    vertex -6.466423713765915 7.608590563838936 1.9999999999999998
    vertex -5.989667845972241 8.229910907398581 1.9999999999999998
  endloop
endfacet
facet normal 0.0 0.0 1.0
  outer loop
    vertex -6.368347502412599 10.438717582761132 1.9999999999999998
    vertex -5.989667845972241 8.229910907398581 1.9999999999999998
    vertex -5.162442727925213 10.938219695284278 1.9999999999999998
  endloop
endfacet
facet normal 0.0 0.0 1.0
  outer loop
    vertex -5.162442727925213 10.938219695284278 1.9999999999999998
    vertex -5.989667845972241 8.229910907398581 1.9999999999999998
    vertex -5.368347502412601 8.706666775192259 1.9999999999999998
  endloop
endfacet
facet normal 0.0 0.0 1.0
  outer loop
    vertex -5.162442727925213 10.938219695284278 1.9999999999999998
    vertex -5.368347502412601 8.706666775192259 1.9999999999999998
    vertex -4.644804637720163 9.006368042706136 1.9999999999999998
  endloop
endfacet
facet normal 0.0 0.0 1.0
  outer loop
    vertex -5.162442727925213 10.938219695284278 1.9999999999999998
    vertex -4.644804637720163 9.006368042706136 1.9999999999999998
    vertex -3.868347502412604 11.108590563838927 1.9999999999999998
  endloop
endfacet
facet normal 0.0 0.0 1.0
  outer loop
    vertex -3.868347502412604 11.108590563838927 1.9999999999999998
    vertex -4.644804637720163 9.006368042706136 1.9999999999999998
    vertex -3.8683475024126053 9.108590563838938 1.9999999999999998
  endloop
endfacet
facet normal -0.25881904510251985 -0.9659258262890685 0.0
  outer loop
    vertex 0.7764571353075631 27.897777478867198 1.9999999999999998
    vertex 3.67394039744206e-16 27.999999999999993 0.0
    vertex 0.7764571353075631 27.897777478867198 0.0
  endloop
endfacet
facet normal -3.4575106395109977e-15 -1.0 0.0
  outer loop
    vertex 3.67394039744206e-16 27.999999999999993 0.0
    vertex 0.7764571353075631 27.897777478867198 1.9999999999999998
    vertex 3.67394039744206e-16 27.999999999999993 1.9999999999999998
  endloop
endfacet
facet normal -3.4575106395109977e-15 -1.0 0.0
  outer loop
    vertex 3.67394039744206e-16 27.999999999999993 1.9999999999999998
    vertex -0.7764571353075611 27.897777478867205 0.0
    vertex 3.67394039744206e-16 27.999999999999993 0.0
  endloop
endfacet
facet normal 0.2588190451025197 -0.9659258262890686 0.0
  outer loop
    vertex -0.7764571353075611 27.897777478867205 0.0
    vertex 3.67394039744206e-16 27.999999999999993 1.9999999999999998
    vertex -0.7764571353075611 27.897777478867205 1.9999999999999998
  endloop
endfacet
facet normal 0.2588190451025197 -0.9659258262890686 0.0
  outer loop
    vertex -0.7764571353075611 27.897777478867205 1.9999999999999998
    vertex -1.4999999999999991 27.598076211353312 0.0
    vertex -0.7764571353075611 27.897777478867205 0.0
  endloop
endfacet
facet normal 0.5000000000000004 -0.8660254037844384 0.0
  outer loop
    vertex -1.4999999999999991 27.598076211353312 0.0
    vertex -0.7764571353075611 27.897777478867205 1.9999999999999998
    vertex -1.4999999999999991 27.598076211353312 1.9999999999999998
  endloop
endfacet
facet normal 0.5000000000000004 -0.8660254037844384 0.0
  outer loop
    vertex -1.4999999999999991 27.598076211353312 1.9999999999999998
    vertex -2.1213203435596415 27.121320343559642 0.0
    vertex -1.4999999999999991 27.598076211353312 0.0
  endloop
endfacet
facet normal 0.7071067811865468 -0.7071067811865482 0.0
  outer loop
    vertex -2.1213203435596415 27.121320343559642 0.0
    vertex -1.4999999999999991 27.598076211353312 1.9999999999999998
    vertex -2.1213203435596415 27.121320343559642 1.9999999999999998
  endloop
endfacet
facet normal 0.7071067811865468 -0.7071067811865482 0.0
  outer loop
    vertex -2.1213203435596415 27.121320343559642 0.0
    vertex -2.5980762113533156 26.499999999999996 1.9999999999999998
    vertex -2.5980762113533156 26.499999999999996 0.0
  endloop
endfacet
facet normal 0.8660254037844386 -0.5000000000000001 0.0
  outer loop
    vertex -2.5980762113533156 26.499999999999996 1.9999999999999998
    vertex -2.1213203435596415 27.121320343559642 0.0
    vertex -2.1213203435596415 27.121320343559642 1.9999999999999998
  endloop
endfacet
facet normal 0.8660254037844386 -0.5000000000000001 0.0
  outer loop
    vertex -2.5980762113533156 26.499999999999996 0.0
    vertex -2.8977774788672046 25.776457135307563 1.9999999999999998
    vertex -2.8977774788672046 25.776457135307563 0.0
  endloop
endfacet
facet normal 0.9659258262890681 -0.2588190451025216 0.0
  outer loop
    vertex -2.8977774788672046 25.776457135307563 1.9999999999999998
    vertex -2.5980762113533156 26.499999999999996 0.0
    vertex -2.5980762113533156 26.499999999999996 1.9999999999999998
  endloop
endfacet
facet normal 0.9659258262890681 -0.2588190451025216 0.0
  outer loop
    vertex -2.8977774788672046 25.776457135307563 0.0
    vertex -3.0 24.999999999999996 1.9999999999999998
    vertex -3.0 24.999999999999996 0.0
  endloop
endfacet
facet normal 1.0 1.7822219791293813e-17 0.0
  outer loop
    vertex -3.0 24.999999999999996 1.9999999999999998
    vertex -2.8977774788672046 25.776457135307563 0.0
    vertex -2.8977774788672046 25.776457135307563 1.9999999999999998
  endloop
endfacet
facet normal 1.0 1.7822219791293813e-17 0.0
  outer loop
    vertex -3.0 24.999999999999996 0.0
    vertex -2.897777478867205 24.223542864692437 1.9999999999999998
    vertex -2.897777478867205 24.223542864692437 0.0
  endloop
endfacet
facet normal 0.9659258262890684 0.2588190451025204 0.0
  outer loop
    vertex -2.897777478867205 24.223542864692437 1.9999999999999998
    vertex -3.0 24.999999999999996 0.0
    vertex -3.0 24.999999999999996 1.9999999999999998
  endloop
endfacet
facet normal 0.9659258262890684 0.2588190451025204 0.0
  outer loop
    vertex -2.897777478867205 24.223542864692437 0.0
    vertex -2.5980762113533173 23.5 1.9999999999999998
    vertex -2.5980762113533173 23.5 0.0
  endloop
endfacet
facet normal 0.8660254037844393 0.49999999999999917 0.0
  outer loop
    vertex -2.5980762113533173 23.5 1.9999999999999998
    vertex -2.897777478867205 24.223542864692437 0.0
    vertex -2.897777478867205 24.223542864692437 1.9999999999999998
  endloop
endfacet
facet normal 0.8660254037844393 0.49999999999999917 0.0
  outer loop
    vertex -2.5980762113533173 23.5 0.0
    vertex -2.1213203435596433 22.878679656440355 1.9999999999999998
    vertex -2.1213203435596433 22.878679656440355 0.0
  endloop
endfacet
facet normal 0.7071067811865478 0.7071067811865471 0.0
  outer loop
    vertex -2.1213203435596433 22.878679656440355 1.9999999999999998
    vertex -2.5980762113533173 23.5 0.0
    vertex -2.5980762113533173 23.5 1.9999999999999998
  endloop
endfacet
facet normal 0.7071067811865478 0.7071067811865471 0.0
  outer loop
    vertex -2.1213203435596433 22.878679656440355 1.9999999999999998
    vertex -1.5000000000000016 22.40192378864668 0.0
    vertex -2.1213203435596433 22.878679656440355 0.0
  endloop
endfacet
facet normal 0.5000000000000007 0.8660254037844383 0.0
  outer loop
    vertex -1.5000000000000016 22.40192378864668 0.0
    vertex -2.1213203435596433 22.878679656440355 1.9999999999999998
    vertex -1.5000000000000016 22.40192378864668 1.9999999999999998
  endloop
endfacet
facet normal 0.5000000000000007 0.8660254037844383 0.0
  outer loop
    vertex -1.5000000000000016 22.40192378864668 1.9999999999999998
    vertex -0.7764571353075648 22.10222252113279 0.0
    vertex -1.5000000000000016 22.40192378864668 0.0
  endloop
endfacet
facet normal 0.25881904510252157 0.9659258262890681 0.0
  outer loop
    vertex -0.7764571353075648 22.10222252113279 0.0
    vertex -1.5000000000000016 22.40192378864668 1.9999999999999998
    vertex -0.7764571353075648 22.10222252113279 1.9999999999999998
  endloop
endfacet
facet normal 0.25881904510252157 0.9659258262890681 0.0
  outer loop
    vertex -0.7764571353075648 22.10222252113279 1.9999999999999998
    vertex 0.0 21.999999999999996 0.0
    vertex -0.7764571353075648 22.10222252113279 0.0
  endloop
endfacet
facet normal 0.13052619222005135 0.9914448613738106 0.0
  outer loop
    vertex 0.0 21.999999999999996 0.0
    vertex -0.7764571353075648 22.10222252113279 1.9999999999999998
    vertex 0.0 21.999999999999996 1.9999999999999998
  endloop
endfacet
facet normal -0.0 1.0 0.0
  outer loop
    vertex 0.0 21.999999999999996 1.9999999999999998
    vertex 0.9999999999999998 21.999999999999996 0.0
    vertex 0.0 21.999999999999996 0.0
  endloop
endfacet
facet normal -0.0 1.0 0.0
  outer loop
    vertex 0.9999999999999998 21.999999999999996 0.0
    vertex 0.0 21.999999999999996 1.9999999999999998
    vertex 0.9999999999999998 21.999999999999996 1.9999999999999998
  endloop
endfacet
facet normal 0.9999999999999999 1.0434173999828148e-17 0.0
  outer loop
    vertex 0.9999999999999998 21.999999999999996 0.0
    vertex 0.9999999999999999 5.108590563838936 1.9999999999999998
    vertex 0.9999999999999999 5.108590563838936 0.0
  endloop
endfacet
facet normal 0.9999999999999999 1.0434173999828148e-17 0.0
  outer loop
    vertex 0.9999999999999999 5.108590563838936 1.9999999999999998
    vertex 0.9999999999999998 21.999999999999996 0.0
    vertex 0.9999999999999998 21.999999999999996 1.9999999999999998
  endloop
endfacet
facet normal 0.9914448613738117 -0.1305261922200405 0.0
  outer loop
    vertex 0.9999999999999999 5.108590563838936 0.0
    vertex 0.9612816290327395 4.814495338326324 1.9999999999999998
    vertex 0.9612816290327395 4.814495338326324 0.0
  endloop
endfacet
facet normal 0.9659258262890693 -0.2588190451025173 0.0
  outer loop
    vertex 0.9612816290327395 4.814495338326324 1.9999999999999998
    vertex 0.9999999999999999 5.108590563838936 0.0
    vertex 0.9999999999999999 5.108590563838936 1.9999999999999998
  endloop
endfacet
facet normal 0.9659258262890693 -0.2588190451025173 0.0
  outer loop
    vertex 0.9612816290327395 4.814495338326324 0.0
    vertex 0.4617795165095857 3.608590563838928 1.9999999999999998
    vertex 0.4617795165095857 3.608590563838928 0.0
  endloop
endfacet
facet normal 0.8660254037844379 -0.5000000000000013 0.0
  outer loop
    vertex 0.4617795165095857 3.608590563838928 1.9999999999999998
    vertex 0.9612816290327395 4.814495338326324 0.0
    vertex 0.9612816290327395 4.814495338326324 1.9999999999999998
  endloop
endfacet
facet normal 0.8660254037844379 -0.5000000000000013 0.0
  outer loop
    vertex 0.4617795165095857 3.608590563838928 0.0
    vertex -0.3328135964798676 2.5730566579061915 1.9999999999999998
    vertex -0.3328135964798676 2.5730566579061915 0.0
  endloop
endfacet
facet normal 0.7071067811865471 -0.7071067811865478 0.0
  outer loop
    vertex -0.3328135964798676 2.5730566579061915 1.9999999999999998
    vertex 0.4617795165095857 3.608590563838928 0.0
    vertex 0.4617795165095857 3.608590563838928 1.9999999999999998
  endloop
endfacet
facet normal 0.7071067811865471 -0.7071067811865478 0.0
  outer loop
    vertex -0.3328135964798676 2.5730566579061915 1.9999999999999998
    vertex -1.152492854259506 1.9440946419253142 0.0
    vertex -0.3328135964798676 2.5730566579061915 0.0
  endloop
endfacet
facet normal 0.6087614290087193 -0.7933533402912364 0.0
  outer loop
    vertex -1.152492854259506 1.9440946419253142 0.0
    vertex -0.3328135964798676 2.5730566579061915 1.9999999999999998
    vertex -1.152492854259506 1.9440946419253142 1.9999999999999998
  endloop
endfacet
facet normal 0.6087614290087192 -0.7933533402912364 0.0
  outer loop
    vertex -1.152492854259506 1.9440946419253142 1.9999999999999998
    vertex -1.3683475024126102 1.7784635449167352 0.0
    vertex -1.152492854259506 1.9440946419253142 0.0
  endloop
endfacet
facet normal 0.4999999999999974 -0.86602540378444 0.0
  outer loop
    vertex -1.3683475024126102 1.7784635449167352 0.0
    vertex -1.152492854259506 1.9440946419253142 1.9999999999999998
    vertex -1.3683475024126102 1.7784635449167352 1.9999999999999998
  endloop
endfacet
facet normal 0.4999999999999974 -0.86602540378444 0.0
  outer loop
    vertex -1.3683475024126102 1.7784635449167352 1.9999999999999998
    vertex -2.574252276900006 1.278961432393593 0.0
    vertex -1.3683475024126102 1.7784635449167352 0.0
  endloop
endfacet
facet normal 0.2588190451025199 -0.9659258262890685 0.0
  outer loop
    vertex -2.574252276900006 1.278961432393593 0.0
    vertex -1.3683475024126102 1.7784635449167352 1.9999999999999998
    vertex -2.574252276900006 1.278961432393593 1.9999999999999998
  endloop
endfacet
facet normal 0.2588190451025199 -0.9659258262890685 0.0
  outer loop
    vertex -2.574252276900006 1.278961432393593 1.9999999999999998
    vertex -3.8683475024126066 1.1085905638389317 0.0
    vertex -2.574252276900006 1.278961432393593 0.0
  endloop
endfacet
facet normal -1.5148886822599746e-15 -1.0 0.0
  outer loop
    vertex -3.8683475024126066 1.1085905638389317 0.0
    vertex -2.574252276900006 1.278961432393593 1.9999999999999998
    vertex -3.8683475024126066 1.1085905638389317 1.9999999999999998
  endloop
endfacet
facet normal -1.5148886822599746e-15 -1.0 0.0
  outer loop
    vertex -3.8683475024126066 1.1085905638389317 1.9999999999999998
    vertex -5.162442727925203 1.2789614323935965 0.0
    vertex -3.8683475024126066 1.1085905638389317 0.0
  endloop
endfacet
facet normal -0.25881904510252085 -0.9659258262890683 0.0
  outer loop
    vertex -5.162442727925203 1.2789614323935965 0.0
    vertex -3.8683475024126066 1.1085905638389317 1.9999999999999998
    vertex -5.162442727925203 1.2789614323935965 1.9999999999999998
  endloop
endfacet
facet normal -0.25881904510252085 -0.9659258262890683 0.0
  outer loop
    vertex -5.162442727925203 1.2789614323935965 1.9999999999999998
    vertex -6.36834750241261 1.7784635449167414 0.0
    vertex -5.162442727925203 1.2789614323935965 0.0
  endloop
endfacet
facet normal -0.5000000000000029 -0.866025403784437 0.0
  outer loop
    vertex -6.36834750241261 1.7784635449167414 0.0
    vertex -5.162442727925203 1.2789614323935965 1.9999999999999998
    vertex -6.36834750241261 1.7784635449167414 1.9999999999999998
  endloop
endfacet
facet normal -0.5000000000000029 -0.866025403784437 0.0
  outer loop
    vertex -6.36834750241261 1.7784635449167414 1.9999999999999998
    vertex -7.403881408345333 2.573056657906205 0.0
    vertex -6.36834750241261 1.7784635449167414 0.0
  endloop
endfacet
facet normal -0.7071067811865502 -0.707106781186545 0.0
  outer loop
    vertex -7.403881408345333 2.573056657906205 0.0
    vertex -6.36834750241261 1.7784635449167414 1.9999999999999998
    vertex -7.403881408345333 2.573056657906205 1.9999999999999998
  endloop
endfacet
facet normal -0.8660254037844405 -0.49999999999999684 0.0
  outer loop
    vertex -8.19847452133479 3.6085905638389364 1.9999999999999998
    vertex -7.403881408345333 2.573056657906205 0.0
    vertex -7.403881408345333 2.573056657906205 1.9999999999999998
  endloop
endfacet
facet normal -0.7071067811865502 -0.707106781186545 0.0
  outer loop
    vertex -7.403881408345333 2.573056657906205 0.0
    vertex -8.19847452133479 3.6085905638389364 1.9999999999999998
    vertex -8.19847452133479 3.6085905638389364 0.0
  endloop
endfacet
facet normal -0.9659258262890681 -0.25881904510252157 0.0
  outer loop
    vertex -8.697976633857923 4.814495338326336 1.9999999999999998
    vertex -8.19847452133479 3.6085905638389364 0.0
    vertex -8.19847452133479 3.6085905638389364 1.9999999999999998
  endloop
endfacet
facet normal -0.8660254037844405 -0.49999999999999684 0.0
  outer loop
    vertex -8.19847452133479 3.6085905638389364 0.0
    vertex -8.697976633857923 4.814495338326336 1.9999999999999998
    vertex -8.697976633857923 4.814495338326336 0.0
  endloop
endfacet
facet normal -1.0 -3.1990884525372437e-15 0.0
  outer loop
    vertex -8.8683475024126 6.108590563838939 1.9999999999999998
    vertex -8.697976633857923 4.814495338326336 0.0
    vertex -8.697976633857923 4.814495338326336 1.9999999999999998
  endloop
endfacet
facet normal -0.9659258262890681 -0.25881904510252157 0.0
  outer loop
    vertex -8.697976633857923 4.814495338326336 0.0
    vertex -8.8683475024126 6.108590563838939 1.9999999999999998
    vertex -8.8683475024126 6.108590563838939 0.0
  endloop
endfacet
facet normal -0.9659258262890688 0.2588190451025194 0.0
  outer loop
    vertex -8.697976633857932 7.4026857893515405 1.9999999999999998
    vertex -8.8683475024126 6.108590563838939 0.0
    vertex -8.8683475024126 6.108590563838939 1.9999999999999998
  endloop
endfacet
facet normal -1.0 -3.1990884525372437e-15 0.0
  outer loop
    vertex -8.8683475024126 6.108590563838939 0.0
    vertex -8.697976633857932 7.4026857893515405 1.9999999999999998
    vertex -8.697976633857932 7.4026857893515405 0.0
  endloop
endfacet
facet normal -0.8660254037844392 0.4999999999999994 0.0
  outer loop
    vertex -8.198474521334798 8.608590563838934 1.9999999999999998
    vertex -8.697976633857932 7.4026857893515405 0.0
    vertex -8.697976633857932 7.4026857893515405 1.9999999999999998
  endloop
endfacet
facet normal -0.9659258262890688 0.2588190451025194 0.0
  outer loop
    vertex -8.697976633857932 7.4026857893515405 0.0
    vertex -8.198474521334798 8.608590563838934 1.9999999999999998
    vertex -8.198474521334798 8.608590563838934 0.0
  endloop
endfacet
facet normal -0.7071067811865469 0.707106781186548 0.0
  outer loop
    vertex -7.403881408345333 9.644124469771668 1.9999999999999998
    vertex -8.198474521334798 8.608590563838934 0.0
    vertex -8.198474521334798 8.608590563838934 1.9999999999999998
  endloop
endfacet
facet normal -0.8660254037844392 0.4999999999999994 0.0
  outer loop
    vertex -8.198474521334798 8.608590563838934 0.0
    vertex -7.403881408345333 9.644124469771668 1.9999999999999998
    vertex -7.403881408345333 9.644124469771668 0.0
  endloop
endfacet
facet normal -0.7071067811865469 0.707106781186548 0.0
  outer loop
    vertex -7.403881408345333 9.644124469771668 1.9999999999999998
    vertex -6.368347502412599 10.438717582761132 0.0
    vertex -7.403881408345333 9.644124469771668 0.0
  endloop
endfacet
facet normal -0.5000000000000041 0.8660254037844364 0.0
  outer loop
    vertex -6.368347502412599 10.438717582761132 0.0
    vertex -7.403881408345333 9.644124469771668 1.9999999999999998
    vertex -6.368347502412599 10.438717582761132 1.9999999999999998
  endloop
endfacet
facet normal -0.5000000000000041 0.8660254037844364 0.0
  outer loop
    vertex -6.368347502412599 10.438717582761132 1.9999999999999998
    vertex -5.162442727925213 10.938219695284278 0.0
    vertex -6.368347502412599 10.438717582761132 0.0
  endloop
endfacet
facet normal -0.2588190451025178 0.9659258262890692 0.0
  outer loop
    vertex -5.162442727925213 10.938219695284278 0.0
    vertex -6.368347502412599 10.438717582761132 1.9999999999999998
    vertex -5.162442727925213 10.938219695284278 1.9999999999999998
  endloop
endfacet
facet normal -0.2588190451025178 0.9659258262890692 0.0
  outer loop
    vertex -5.162442727925213 10.938219695284278 1.9999999999999998
    vertex -3.868347502412604 11.108590563838927 0.0
    vertex -5.162442727925213 10.938219695284278 0.0
  endloop
endfacet
facet normal -0.1305261922200427 0.9914448613738117 0.0
  outer loop
    vertex -3.868347502412604 11.108590563838927 0.0
    vertex -5.162442727925213 10.938219695284278 1.9999999999999998
    vertex -3.868347502412604 11.108590563838927 1.9999999999999998
  endloop
endfacet
facet normal 1.0 -7.049916206369786e-16 0.0
  outer loop
    vertex -3.868347502412604 11.108590563838927 0.0
    vertex -3.8683475024126053 9.108590563838938 1.9999999999999998
    vertex -3.8683475024126053 9.108590563838938 0.0
  endloop
endfacet
facet normal 1.0 -7.049916206369786e-16 0.0
  outer loop
    vertex -3.8683475024126053 9.108590563838938 1.9999999999999998
    vertex -3.868347502412604 11.108590563838927 0.0
    vertex -3.868347502412604 11.108590563838927 1.9999999999999998
  endloop
endfacet
facet normal 0.13052619222006323 -0.9914448613738089 0.0
  outer loop
    vertex -3.8683475024126053 9.108590563838938 1.9999999999999998
    vertex -4.644804637720163 9.006368042706136 0.0
    vertex -3.8683475024126053 9.108590563838938 0.0
  endloop
endfacet
facet normal 0.25881904510251885 -0.9659258262890688 0.0
  outer loop
    vertex -4.644804637720163 9.006368042706136 0.0
    vertex -3.8683475024126053 9.108590563838938 1.9999999999999998
    vertex -4.644804637720163 9.006368042706136 1.9999999999999998
  endloop
endfacet
facet normal 0.25881904510251885 -0.9659258262890688 0.0
  outer loop
    vertex -4.644804637720163 9.006368042706136 1.9999999999999998
    vertex -5.368347502412601 8.706666775192259 0.0
    vertex -4.644804637720163 9.006368042706136 0.0
  endloop
endfacet
facet normal 0.4999999999999964 -0.8660254037844407 0.0
  outer loop
    vertex -5.368347502412601 8.706666775192259 0.0
    vertex -4.644804637720163 9.006368042706136 1.9999999999999998
    vertex -5.368347502412601 8.706666775192259 1.9999999999999998
  endloop
endfacet
facet normal 0.4999999999999964 -0.8660254037844407 0.0
  outer loop
    vertex -5.368347502412601 8.706666775192259 1.9999999999999998
    vertex -5.989667845972241 8.229910907398581 0.0
    vertex -5.368347502412601 8.706666775192259 0.0
  endloop
endfacet
facet normal 0.7071067811865502 -0.7071067811865447 0.0
  outer loop
    vertex -5.989667845972241 8.229910907398581 0.0
    vertex -5.368347502412601 8.706666775192259 1.9999999999999998
    vertex -5.989667845972241 8.229910907398581 1.9999999999999998
  endloop
endfacet
facet normal 0.7071067811865502 -0.7071067811865447 0.0
  outer loop
    vertex -5.989667845972241 8.229910907398581 0.0
    vertex -6.466423713765915 7.608590563838936 1.9999999999999998
    vertex -6.466423713765915 7.608590563838936 0.0
  endloop
endfacet
facet normal 0.8660254037844403 -0.4999999999999974 0.0
  outer loop
    vertex -6.466423713765915 7.608590563838936 1.9999999999999998
    vertex -5.989667845972241 8.229910907398581 0.0
    vertex -5.989667845972241 8.229910907398581 1.9999999999999998
  endloop
endfacet
facet normal 0.8660254037844403 -0.4999999999999974 0.0
  outer loop
    vertex -6.466423713765915 7.608590563838936 0.0
    vertex -6.766124981279797 6.8850476991465035 1.9999999999999998
    vertex -6.766124981279797 6.8850476991465035 0.0
  endloop
endfacet
facet normal 0.9659258262890681 -0.25881904510252135 0.0
  outer loop
    vertex -6.766124981279797 6.8850476991465035 1.9999999999999998
    vertex -6.466423713765915 7.608590563838936 0.0
    vertex -6.466423713765915 7.608590563838936 1.9999999999999998
  endloop
endfacet
facet normal 0.9659258262890681 -0.25881904510252135 0.0
  outer loop
    vertex -6.766124981279797 6.8850476991465035 0.0
    vertex -6.868347502412598 6.108590563838939 1.9999999999999998
    vertex -6.868347502412598 6.108590563838939 0.0
  endloop
endfacet
facet normal 1.0 -9.098243203455486e-15 0.0
  outer loop
    vertex -6.868347502412598 6.108590563838939 1.9999999999999998
    vertex -6.766124981279797 6.8850476991465035 0.0
    vertex -6.766124981279797 6.8850476991465035 1.9999999999999998
  endloop
endfacet
facet normal 1.0 -9.098243203455486e-15 0.0
  outer loop
    vertex -6.868347502412598 6.108590563838939 0.0
    vertex -6.766124981279811 5.332133428531371 1.9999999999999998
    vertex -6.766124981279811 5.332133428531371 0.0
  endloop
endfacet
facet normal 0.9659258262890686 0.2588190451025197 0.0
  outer loop
    vertex -6.766124981279811 5.332133428531371 1.9999999999999998
    vertex -6.868347502412598 6.108590563838939 0.0
    vertex -6.868347502412598 6.108590563838939 1.9999999999999998
  endloop
endfacet
facet normal 0.9659258262890686 0.2588190451025197 0.0
  outer loop
    vertex -6.766124981279811 5.332133428531371 0.0
    vertex -6.466423713765915 4.608590563838935 1.9999999999999998
    vertex -6.466423713765915 4.608590563838935 0.0
  endloop
endfacet
facet normal 0.8660254037844393 0.49999999999999895 0.0
  outer loop
    vertex -6.466423713765915 4.608590563838935 1.9999999999999998
    vertex -6.766124981279811 5.332133428531371 0.0
    vertex -6.766124981279811 5.332133428531371 1.9999999999999998
  endloop
endfacet
facet normal 0.8660254037844393 0.49999999999999895 0.0
  outer loop
    vertex -6.466423713765915 4.608590563838935 0.0
    vertex -5.9896678459722485 3.987270220279287 1.9999999999999998
    vertex -5.9896678459722485 3.987270220279287 0.0
  endloop
endfacet
facet normal 0.7071067811865467 0.7071067811865485 0.0
  outer loop
    vertex -5.9896678459722485 3.987270220279287 1.9999999999999998
    vertex -6.466423713765915 4.608590563838935 0.0
    vertex -6.466423713765915 4.608590563838935 1.9999999999999998
  endloop
endfacet
facet normal 0.7071067811865467 0.7071067811865485 0.0
  outer loop
    vertex -5.9896678459722485 3.987270220279287 1.9999999999999998
    vertex -5.3683475024125995 3.510514352485623 0.0
    vertex -5.9896678459722485 3.987270220279287 0.0
  endloop
endfacet
facet normal 0.49999999999999517 0.8660254037844416 0.0
  outer loop
    vertex -5.3683475024125995 3.510514352485623 0.0
    vertex -5.9896678459722485 3.987270220279287 1.9999999999999998
    vertex -5.3683475024125995 3.510514352485623 1.9999999999999998
  endloop
endfacet
facet normal 0.49999999999999517 0.8660254037844416 0.0
  outer loop
    vertex -5.3683475024125995 3.510514352485623 1.9999999999999998
    vertex -4.6448046377201635 3.2108130849717322 0.0
    vertex -5.3683475024125995 3.510514352485623 0.0
  endloop
endfacet
facet normal 0.25881904510252607 0.965925826289067 0.0
  outer loop
    vertex -4.6448046377201635 3.2108130849717322 0.0
    vertex -5.3683475024125995 3.510514352485623 1.9999999999999998
    vertex -4.6448046377201635 3.2108130849717322 1.9999999999999998
  endloop
endfacet
facet normal 0.25881904510252607 0.965925826289067 0.0
  outer loop
    vertex -4.6448046377201635 3.2108130849717322 1.9999999999999998
    vertex -3.868347502412604 3.108590563838931 0.0
    vertex -4.6448046377201635 3.2108130849717322 0.0
  endloop
endfacet
facet normal 1.113888736955864e-15 1.0 0.0
  outer loop
    vertex -3.868347502412604 3.108590563838931 0.0
    vertex -4.6448046377201635 3.2108130849717322 1.9999999999999998
    vertex -3.868347502412604 3.108590563838931 1.9999999999999998
  endloop
endfacet
facet normal 1.113888736955864e-15 1.0 0.0
  outer loop
    vertex -3.868347502412604 3.108590563838931 1.9999999999999998
    vertex -3.0918903671050413 3.2108130849717305 0.0
    vertex -3.868347502412604 3.108590563838931 0.0
  endloop
endfacet
facet normal -0.2588190451025215 0.9659258262890681 0.0
  outer loop
    vertex -3.0918903671050413 3.2108130849717305 0.0
    vertex -3.868347502412604 3.108590563838931 1.9999999999999998
    vertex -3.0918903671050413 3.2108130849717305 1.9999999999999998
  endloop
endfacet
facet normal -0.2588190451025215 0.9659258262890681 0.0
  outer loop
    vertex -3.0918903671050413 3.2108130849717305 1.9999999999999998
    vertex -2.3683475024126044 3.510514352485616 0.0
    vertex -3.0918903671050413 3.2108130849717305 0.0
  endloop
endfacet
facet normal -0.4999999999999983 0.8660254037844395 0.0
  outer loop
    vertex -2.3683475024126044 3.510514352485616 0.0
    vertex -3.0918903671050413 3.2108130849717305 1.9999999999999998
    vertex -2.3683475024126044 3.510514352485616 1.9999999999999998
  endloop
endfacet
facet normal -0.4999999999999983 0.8660254037844395 0.0
  outer loop
    vertex -2.3683475024126044 3.510514352485616 1.9999999999999998
    vertex -1.7470271588529596 3.9872702202792913 0.0
    vertex -2.3683475024126044 3.510514352485616 0.0
  endloop
endfacet
facet normal -0.7071067811865471 0.707106781186548 0.0
  outer loop
    vertex -1.7470271588529596 3.9872702202792913 0.0
    vertex -2.3683475024126044 3.510514352485616 1.9999999999999998
    vertex -1.7470271588529596 3.9872702202792913 1.9999999999999998
  endloop
endfacet
facet normal -0.8660254037844379 0.500000000000001 0.0
  outer loop
    vertex -1.2702712910592868 4.6085905638389315 1.9999999999999998
    vertex -1.7470271588529596 3.9872702202792913 0.0
    vertex -1.7470271588529596 3.9872702202792913 1.9999999999999998
  endloop
endfacet
facet normal -0.7071067811865471 0.707106781186548 0.0
  outer loop
    vertex -1.7470271588529596 3.9872702202792913 0.0
    vertex -1.2702712910592868 4.6085905638389315 1.9999999999999998
    vertex -1.2702712910592868 4.6085905638389315 0.0
  endloop
endfacet
facet normal -0.9238795325112863 0.38268343236509106 0.0
  outer loop
    vertex -1.152492854259506 4.892932863316063 1.9999999999999998
    vertex -1.2702712910592868 4.6085905638389315 0.0
    vertex -1.2702712910592868 4.6085905638389315 1.9999999999999998
  endloop
endfacet
facet normal -0.8660254037844379 0.500000000000001 0.0
  outer loop
    vertex -1.2702712910592868 4.6085905638389315 0.0
    vertex -1.152492854259506 4.892932863316063 1.9999999999999998
    vertex -1.152492854259506 4.892932863316063 0.0
  endloop
endfacet
facet normal -0.9938457130124891 0.11077318595534164 0.0
  outer loop
    vertex -0.9999999999999999 6.261083180234345 1.9999999999999998
    vertex -1.152492854259506 4.892932863316063 0.0
    vertex -1.152492854259506 4.892932863316063 1.9999999999999998
  endloop
endfacet
facet normal -0.9938457130124891 0.11077318595534164 0.0
  outer loop
    vertex -1.152492854259506 4.892932863316063 0.0
    vertex -0.9999999999999999 6.261083180234345 1.9999999999999998
    vertex -0.9999999999999999 6.261083180234345 0.0
  endloop
endfacet
facet normal -1.0 0.0 0.0
  outer loop
    vertex -0.9999999999999999 20.131652497587393 1.9999999999999998
    vertex -0.9999999999999999 6.261083180234345 0.0
    vertex -0.9999999999999999 6.261083180234345 1.9999999999999998
  endloop
endfacet
facet normal -1.0 0.0 0.0
  outer loop
    vertex -0.9999999999999999 6.261083180234345 0.0
    vertex -0.9999999999999999 20.131652497587393 1.9999999999999998
    vertex -0.9999999999999999 20.131652497587393 0.0
  endloop
endfacet
facet normal -0.13052619222004797 -0.9914448613738109 -0.0
  outer loop
    vertex -0.9999999999999999 20.131652497587393 1.9999999999999998
    vertex -1.2940952255126077 20.170370868554656 0.0
    vertex -0.9999999999999999 20.131652497587393 0.0
  endloop
endfacet
facet normal -0.25881904510251996 -0.9659258262890684 0.0
  outer loop
    vertex -1.2940952255126077 20.170370868554656 0.0
    vertex -0.9999999999999999 20.131652497587393 1.9999999999999998
    vertex -1.2940952255126077 20.170370868554656 1.9999999999999998
  endloop
endfacet
facet normal -0.25881904510251996 -0.9659258262890684 0.0
  outer loop
    vertex -1.2940952255126077 20.170370868554656 1.9999999999999998
    vertex -2.5000000000000018 20.669872981077805 0.0
    vertex -1.2940952255126077 20.170370868554656 0.0
  endloop
endfacet
facet normal -0.500000000000001 -0.866025403784438 0.0
  outer loop
    vertex -2.5000000000000018 20.669872981077805 0.0
    vertex -1.2940952255126077 20.170370868554656 1.9999999999999998
    vertex -2.5000000000000018 20.669872981077805 1.9999999999999998
  endloop
endfacet
facet normal -0.500000000000001 -0.866025403784438 0.0
  outer loop
    vertex -2.5000000000000018 20.669872981077805 1.9999999999999998
    vertex -3.535533905932738 21.464466094067262 0.0
    vertex -2.5000000000000018 20.669872981077805 0.0
  endloop
endfacet
facet normal -0.7071067811865477 -0.7071067811865474 0.0
  outer loop
    vertex -3.535533905932738 21.464466094067262 0.0
    vertex -2.5000000000000018 20.669872981077805 1.9999999999999998
    vertex -3.535533905932738 21.464466094067262 1.9999999999999998
  endloop
endfacet
facet normal -0.8660254037844389 -0.49999999999999944 0.0
  outer loop
    vertex -4.3301270189221945 22.5 1.9999999999999998
    vertex -3.535533905932738 21.464466094067262 0.0
    vertex -3.535533905932738 21.464466094067262 1.9999999999999998
  endloop
endfacet
facet normal -0.7071067811865477 -0.7071067811865474 0.0
  outer loop
    vertex -3.535533905932738 21.464466094067262 0.0
    vertex -4.3301270189221945 22.5 1.9999999999999998
    vertex -4.3301270189221945 22.5 0.0
  endloop
endfacet
facet normal -0.9659258262890684 -0.25881904510252035 0.0
  outer loop
    vertex -4.8296291314453415 23.705904774487397 1.9999999999999998
    vertex -4.3301270189221945 22.5 0.0
    vertex -4.3301270189221945 22.5 1.9999999999999998
  endloop
endfacet
facet normal -0.8660254037844389 -0.49999999999999944 0.0
  outer loop
    vertex -4.3301270189221945 22.5 0.0
    vertex -4.8296291314453415 23.705904774487397 1.9999999999999998
    vertex -4.8296291314453415 23.705904774487397 0.0
  endloop
endfacet
facet normal -1.0 2.3168885728681954e-16 0.0
  outer loop
    vertex -4.999999999999999 24.999999999999996 1.9999999999999998
    vertex -4.8296291314453415 23.705904774487397 0.0
    vertex -4.8296291314453415 23.705904774487397 1.9999999999999998
  endloop
endfacet
facet normal -0.9659258262890684 -0.25881904510252035 0.0
  outer loop
    vertex -4.8296291314453415 23.705904774487397 0.0
    vertex -4.999999999999999 24.999999999999996 1.9999999999999998
    vertex -4.999999999999999 24.999999999999996 0.0
  endloop
endfacet
facet normal -0.9659258262890682 0.2588190451025209 0.0
  outer loop
    vertex -4.82962913144534 26.294095225512603 1.9999999999999998
    vertex -4.999999999999999 24.999999999999996 0.0
    vertex -4.999999999999999 24.999999999999996 1.9999999999999998
  endloop
endfacet
facet normal -1.0 2.3168885728681954e-16 0.0
  outer loop
    vertex -4.999999999999999 24.999999999999996 0.0
    vertex -4.82962913144534 26.294095225512603 1.9999999999999998
    vertex -4.82962913144534 26.294095225512603 0.0
  endloop
endfacet
facet normal -0.8660254037844383 0.5000000000000006 0.0
  outer loop
    vertex -4.330127018922191 27.5 1.9999999999999998
    vertex -4.82962913144534 26.294095225512603 0.0
    vertex -4.82962913144534 26.294095225512603 1.9999999999999998
  endloop
endfacet
facet normal -0.9659258262890682 0.2588190451025209 0.0
  outer loop
    vertex -4.82962913144534 26.294095225512603 0.0
    vertex -4.330127018922191 27.5 1.9999999999999998
    vertex -4.330127018922191 27.5 0.0
  endloop
endfacet
facet normal -0.7071067811865469 0.7071067811865481 0.0
  outer loop
    vertex -3.535533905932735 28.535533905932734 1.9999999999999998
    vertex -4.330127018922191 27.5 0.0
    vertex -4.330127018922191 27.5 1.9999999999999998
  endloop
endfacet
facet normal -0.8660254037844383 0.5000000000000006 0.0
  outer loop
    vertex -4.330127018922191 27.5 0.0
    vertex -3.535533905932735 28.535533905932734 1.9999999999999998
    vertex -3.535533905932735 28.535533905932734 0.0
  endloop
endfacet
facet normal -0.7071067811865469 0.7071067811865481 0.0
  outer loop
    vertex -3.535533905932735 28.535533905932734 1.9999999999999998
    vertex -2.4999999999999982 29.33012701892219 0.0
    vertex -3.535533905932735 28.535533905932734 0.0
  endloop
endfacet
facet normal -0.4999999999999997 0.8660254037844389 0.0
  outer loop
    vertex -2.4999999999999982 29.33012701892219 0.0
    vertex -3.535533905932735 28.535533905932734 1.9999999999999998
    vertex -2.4999999999999982 29.33012701892219 1.9999999999999998
  endloop
endfacet
facet normal -0.4999999999999997 0.8660254037844389 0.0
  outer loop
    vertex -2.4999999999999982 29.33012701892219 1.9999999999999998
    vertex -1.2940952255126015 29.829629131445337 0.0
    vertex -2.4999999999999982 29.33012701892219 0.0
  endloop
endfacet
facet normal -0.25881904510252063 0.9659258262890684 0.0
  outer loop
    vertex -1.2940952255126015 29.829629131445337 0.0
    vertex -2.4999999999999982 29.33012701892219 1.9999999999999998
    vertex -1.2940952255126015 29.829629131445337 1.9999999999999998
  endloop
endfacet
facet normal -0.25881904510252063 0.9659258262890684 0.0
  outer loop
    vertex -1.2940952255126015 29.829629131445337 1.9999999999999998
    vertex 6.123233995736765e-16 29.999999999999996 0.0
    vertex -1.2940952255126015 29.829629131445337 0.0
  endloop
endfacet
facet normal -1.0693331874776287e-16 1.0 0.0
  outer loop
    vertex 6.123233995736765e-16 29.999999999999996 0.0
    vertex -1.2940952255126015 29.829629131445337 1.9999999999999998
    vertex 6.123233995736765e-16 29.999999999999996 1.9999999999999998
  endloop
endfacet
facet normal -1.0693331874776287e-16 1.0 0.0
  outer loop
    vertex 6.123233995736765e-16 29.999999999999996 1.9999999999999998
    vertex 1.2940952255126048 29.829629131445337 0.0
    vertex 6.123233995736765e-16 29.999999999999996 0.0
  endloop
endfacet
facet normal 0.2588190451025205 0.9659258262890683 0.0
  outer loop
    vertex 1.2940952255126048 29.829629131445337 0.0
    vertex 6.123233995736765e-16 29.999999999999996 1.9999999999999998
    vertex 1.2940952255126048 29.829629131445337 1.9999999999999998
  endloop
endfacet
facet normal 0.2588190451025205 0.9659258262890683 0.0
  outer loop
    vertex 1.2940952255126048 29.829629131445337 1.9999999999999998
    vertex 2.5000000000000013 29.33012701892219 0.0
    vertex 1.2940952255126048 29.829629131445337 0.0
  endloop
endfacet
facet normal 0.5 0.8660254037844387 0.0
  outer loop
    vertex 2.5000000000000013 29.33012701892219 0.0
    vertex 1.2940952255126048 29.829629131445337 1.9999999999999998
    vertex 2.5000000000000013 29.33012701892219 1.9999999999999998
  endloop
endfacet
facet normal 0.5 0.8660254037844387 0.0
  outer loop
    vertex 2.5000000000000013 29.33012701892219 1.9999999999999998
    vertex 3.5355339059327373 28.535533905932734 0.0
    vertex 2.5000000000000013 29.33012701892219 0.0
  endloop
endfacet
facet normal 0.707106781186548 0.7071067811865471 0.0
  outer loop
    vertex 3.5355339059327373 28.535533905932734 0.0
    vertex 2.5000000000000013 29.33012701892219 1.9999999999999998
    vertex 3.5355339059327373 28.535533905932734 1.9999999999999998
  endloop
endfacet
facet normal 0.707106781186548 0.7071067811865471 0.0
  outer loop
    vertex 3.5355339059327373 28.535533905932734 0.0
    vertex 4.330127018922193 27.499999999999996 1.9999999999999998
    vertex 4.330127018922193 27.499999999999996 0.0
  endloop
endfacet
facet normal 0.8660254037844388 0.49999999999999983 0.0
  outer loop
    vertex 4.330127018922193 27.499999999999996 1.9999999999999998
    vertex 3.5355339059327373 28.535533905932734 0.0
    vertex 3.5355339059327373 28.535533905932734 1.9999999999999998
  endloop
endfacet
facet normal 0.8660254037844388 0.49999999999999983 0.0
  outer loop
    vertex 4.330127018922193 27.499999999999996 0.0
    vertex 4.829629131445341 26.294095225512603 1.9999999999999998
    vertex 4.829629131445341 26.294095225512603 0.0
  endloop
endfacet
facet normal 0.9659258262890682 0.2588190451025209 0.0
  outer loop
    vertex 4.829629131445341 26.294095225512603 1.9999999999999998
    vertex 4.330127018922193 27.499999999999996 0.0
    vertex 4.330127018922193 27.499999999999996 1.9999999999999998
  endloop
endfacet
facet normal 0.9659258262890682 0.2588190451025209 0.0
  outer loop
    vertex 4.829629131445341 26.294095225512603 0.0
    vertex 4.999999999999999 24.999999999999996 1.9999999999999998
    vertex 4.999999999999999 24.999999999999996 0.0
  endloop
endfacet
facet normal 0.9914448613738104 0.13052619222005157 0.0
  outer loop
    vertex 4.999999999999999 24.999999999999996 1.9999999999999998
    vertex 4.829629131445341 26.294095225512603 0.0
    vertex 4.829629131445341 26.294095225512603 1.9999999999999998
  endloop
endfacet
facet normal -0.0 -1.0 -0.0
  outer loop
    vertex 4.999999999999999 24.999999999999996 1.9999999999999998
    vertex 3.0 24.999999999999996 0.0
    vertex 4.999999999999999 24.999999999999996 0.0
  endloop
endfacet
facet normal -0.0 -1.0 -0.0
  outer loop
    vertex 3.0 24.999999999999996 0.0
    vertex 4.999999999999999 24.999999999999996 1.9999999999999998
    vertex 3.0 24.999999999999996 1.9999999999999998
  endloop
endfacet
facet normal -0.9659258262890684 -0.25881904510252035 0.0
  outer loop
    vertex 2.897777478867205 25.776457135307556 1.9999999999999998
    vertex 3.0 24.999999999999996 0.0
    vertex 3.0 24.999999999999996 1.9999999999999998
  endloop
endfacet
facet normal -0.9914448613738104 -0.13052619222005168 -0.0
  outer loop
    vertex 3.0 24.999999999999996 0.0
    vertex 2.897777478867205 25.776457135307556 1.9999999999999998
    vertex 2.897777478867205 25.776457135307556 0.0
  endloop
endfacet
facet normal -0.8660254037844383 -0.5000000000000006 0.0
  outer loop
    vertex 2.598076211353316 26.499999999999996 1.9999999999999998
    vertex 2.897777478867205 25.776457135307556 0.0
    vertex 2.897777478867205 25.776457135307556 1.9999999999999998
  endloop
endfacet
facet normal -0.9659258262890684 -0.25881904510252035 0.0
  outer loop
    vertex 2.897777478867205 25.776457135307556 0.0
    vertex 2.598076211353316 26.499999999999996 1.9999999999999998
    vertex 2.598076211353316 26.499999999999996 0.0
  endloop
endfacet
facet normal -0.7071067811865478 -0.7071067811865475 0.0
  outer loop
    vertex 2.121320343559643 27.121320343559635 1.9999999999999998
    vertex 2.598076211353316 26.499999999999996 0.0
    vertex 2.598076211353316 26.499999999999996 1.9999999999999998
  endloop
endfacet
facet normal -0.8660254037844383 -0.5000000000000006 0.0
  outer loop
    vertex 2.598076211353316 26.499999999999996 0.0
    vertex 2.121320343559643 27.121320343559635 1.9999999999999998
    vertex 2.121320343559643 27.121320343559635 0.0
  endloop
endfacet
facet normal -0.7071067811865478 -0.7071067811865475 0.0
  outer loop
    vertex 2.121320343559643 27.121320343559635 1.9999999999999998
    vertex 1.500000000000001 27.598076211353312 0.0
    vertex 2.121320343559643 27.121320343559635 0.0
  endloop
endfacet
facet normal -0.5000000000000002 -0.8660254037844386 0.0
  outer loop
    vertex 1.500000000000001 27.598076211353312 0.0
    vertex 2.121320343559643 27.121320343559635 1.9999999999999998
    vertex 1.500000000000001 27.598076211353312 1.9999999999999998
  endloop
endfacet
facet normal -0.5000000000000002 -0.8660254037844386 0.0
  outer loop
    vertex 1.500000000000001 27.598076211353312 1.9999999999999998
    vertex 0.7764571353075631 27.897777478867198 0.0
    vertex 1.500000000000001 27.598076211353312 0.0
  endloop
endfacet
facet normal -0.25881904510251985 -0.9659258262890685 0.0
  outer loop
    vertex 0.7764571353075631 27.897777478867198 0.0
    vertex 1.500000000000001 27.598076211353312 1.9999999999999998
    vertex 0.7764571353075631 27.897777478867198 1.9999999999999998
  endloop
endfacet
endsolid Untitled-54975911
