solid ABS BOLT
facet normal 0.0 0.0 -1.0
  outer loop
    vertex -7.499999999999989 12.990381056766587 0.0
    vertex -8.499999999999998 0.0 0.0
    vertex -10.606601717798211 10.606601717798215 0.0
  endloop
endfacet
facet normal 0.0 0.0 -1.0
  outer loop
    vertex -8.499999999999998 0.0 0.0
    vertex -7.499999999999989 12.990381056766587 0.0
    vertex -8.210369523457077 2.199961883371433 0.0
  endloop
endfacet
facet normal 0.0 0.0 -1.0
  outer loop
    vertex -8.210369523457077 2.199961883371433 0.0
    vertex -7.499999999999989 12.990381056766587 0.0
    vertex -7.361215932167725 4.250000000000003 0.0
  endloop
endfacet
facet normal 0.0 0.0 -1.0
  outer loop
    vertex -7.361215932167725 4.250000000000003 0.0
    vertex -7.499999999999989 12.990381056766587 0.0
    vertex -3.882285676537805 14.488887394336027 0.0
  endloop
endfacet
facet normal 0.0 0.0 -1.0
  outer loop
    vertex -7.361215932167725 4.250000000000003 0.0
    vertex -3.882285676537805 14.488887394336027 0.0
    vertex -6.010407640085651 6.0104076400856545 0.0
  endloop
endfacet
facet normal 0.0 0.0 -1.0
  outer loop
    vertex -6.010407640085651 6.0104076400856545 0.0
    vertex -3.882285676537805 14.488887394336027 0.0
    vertex -4.249999999999993 7.36121593216773 0.0
  endloop
endfacet
facet normal 0.0 0.0 -1.0
  outer loop
    vertex -4.249999999999993 7.36121593216773 0.0
    vertex -3.882285676537805 14.488887394336027 0.0
    vertex -2.199961883371422 8.21036952345708 0.0
  endloop
endfacet
facet normal 0.0 0.0 -1.0
  outer loop
    vertex -2.199961883371422 8.21036952345708 0.0
    vertex -3.882285676537805 14.488887394336027 0.0
    vertex 2.7554552980815448e-15 15.0 0.0
  endloop
endfacet
facet normal 0.0 0.0 -1.0
  outer loop
    vertex -2.199961883371422 8.21036952345708 0.0
    vertex 2.7554552980815448e-15 15.0 0.0
    vertex 1.561424668912875e-15 8.499999999999998 0.0
  endloop
endfacet
facet normal 0.0 0.0 -1.0
  outer loop
    vertex 1.561424668912875e-15 8.499999999999998 0.0
    vertex 2.7554552980815448e-15 15.0 0.0
    vertex 2.1999618833714325 8.210369523457077 0.0
  endloop
endfacet
facet normal 0.0 0.0 -1.0
  outer loop
    vertex 2.1999618833714325 8.210369523457077 0.0
    vertex 2.7554552980815448e-15 15.0 0.0
    vertex 3.882285676537823 14.488887394336022 0.0
  endloop
endfacet
facet normal 0.0 0.0 -1.0
  outer loop
    vertex 2.1999618833714325 8.210369523457077 0.0
    vertex 3.882285676537823 14.488887394336022 0.0
    vertex 4.250000000000003 7.361215932167725 0.0
  endloop
endfacet
facet normal 0.0 0.0 -1.0
  outer loop
    vertex 4.250000000000003 7.361215932167725 0.0
    vertex 3.882285676537823 14.488887394336022 0.0
    vertex 7.500000000000007 12.990381056766577 0.0
  endloop
endfacet
facet normal 0.0 0.0 -1.0
  outer loop
    vertex 4.250000000000003 7.361215932167725 0.0
    vertex 7.500000000000007 12.990381056766577 0.0
    vertex 6.010407640085656 6.010407640085649 0.0
  endloop
endfacet
facet normal 0.0 0.0 -1.0
  outer loop
    vertex 6.010407640085656 6.010407640085649 0.0
    vertex 7.500000000000007 12.990381056766577 0.0
    vertex 7.361215932167728 4.249999999999997 0.0
  endloop
endfacet
facet normal 0.0 0.0 -1.0
  outer loop
    vertex 7.361215932167728 4.249999999999997 0.0
    vertex 7.500000000000007 12.990381056766577 0.0
    vertex 8.21036952345708 2.1999618833714227 0.0
  endloop
endfacet
facet normal 0.0 0.0 -1.0
  outer loop
    vertex 8.21036952345708 2.1999618833714227 0.0
    vertex 7.500000000000007 12.990381056766577 0.0
    vertex 10.60660171779822 10.606601717798206 0.0
  endloop
endfacet
facet normal 0.0 0.0 -1.0
  outer loop
    vertex 8.21036952345708 2.1999618833714227 0.0
    vertex 10.60660171779822 10.606601717798206 0.0
    vertex 8.499999999999998 -1.0409497792752501e-15 0.0
  endloop
endfacet
facet normal 0.0 0.0 -1.0
  outer loop
    vertex 8.499999999999998 -1.0409497792752501e-15 0.0
    vertex 10.60660171779822 10.606601717798206 0.0
    vertex 10.606601717798213 -10.606601717798213 0.0
  endloop
endfacet
facet normal 0.0 0.0 -1.0
  outer loop
    vertex 10.606601717798213 -10.606601717798213 0.0
    vertex 10.60660171779822 10.606601717798206 0.0
    vertex 12.990381056766578 -7.500000000000006 0.0
  endloop
endfacet
facet normal 0.0 0.0 -1.0
  outer loop
    vertex 12.990381056766578 -7.500000000000006 0.0
    vertex 10.60660171779822 10.606601717798206 0.0
    vertex 12.990381056766582 7.4999999999999964 0.0
  endloop
endfacet
facet normal 0.0 0.0 -1.0
  outer loop
    vertex 12.990381056766578 -7.500000000000006 0.0
    vertex 12.990381056766582 7.4999999999999964 0.0
    vertex 14.488887394336025 -3.8822856765378155 0.0
  endloop
endfacet
facet normal 0.0 0.0 -1.0
  outer loop
    vertex 14.488887394336025 -3.8822856765378155 0.0
    vertex 12.990381056766582 7.4999999999999964 0.0
    vertex 14.488887394336027 3.8822856765378058 0.0
  endloop
endfacet
facet normal 0.0 0.0 -1.0
  outer loop
    vertex 14.488887394336025 -3.8822856765378155 0.0
    vertex 14.488887394336027 3.8822856765378058 0.0
    vertex 15.0 -1.83697019872103e-15 0.0
  endloop
endfacet
facet normal 0.0 0.0 -1.0
  outer loop
    vertex -14.488887394336022 3.882285676537824 0.0
    vertex -14.488887394336025 -3.882285676537811 0.0
    vertex -15.0 0.0 0.0
  endloop
endfacet
facet normal 0.0 0.0 -1.0
  outer loop
    vertex -14.488887394336025 -3.882285676537811 0.0
    vertex -14.488887394336022 3.882285676537824 0.0
    vertex -12.990381056766582 -7.499999999999999 0.0
  endloop
endfacet
facet normal 0.0 0.0 -1.0
  outer loop
    vertex -12.990381056766582 -7.499999999999999 0.0
    vertex -14.488887394336022 3.882285676537824 0.0
    vertex -12.990381056766577 7.500000000000007 0.0
  endloop
endfacet
facet normal 0.0 0.0 -1.0
  outer loop
    vertex -12.990381056766582 -7.499999999999999 0.0
    vertex -12.990381056766577 7.500000000000007 0.0
    vertex -10.606601717798213 -10.606601717798213 0.0
  endloop
endfacet
facet normal 0.0 0.0 -1.0
  outer loop
    vertex -10.606601717798213 -10.606601717798213 0.0
    vertex -12.990381056766577 7.500000000000007 0.0
    vertex -10.606601717798211 10.606601717798215 0.0
  endloop
endfacet
facet normal 0.0 0.0 -1.0
  outer loop
    vertex -10.606601717798213 -10.606601717798213 0.0
    vertex -10.606601717798211 10.606601717798215 0.0
    vertex -7.500000000000002 -12.990381056766578 0.0
  endloop
endfacet
facet normal 0.0 0.0 -1.0
  outer loop
    vertex -7.500000000000002 -12.990381056766578 0.0
    vertex -10.606601717798211 10.606601717798215 0.0
    vertex -8.499999999999998 0.0 0.0
  endloop
endfacet
facet normal 0.0 0.0 -1.0
  outer loop
    vertex -7.500000000000002 -12.990381056766578 0.0
    vertex -8.499999999999998 0.0 0.0
    vertex -8.210369523457079 -2.199961883371426 0.0
  endloop
endfacet
facet normal 0.0 0.0 -1.0
  outer loop
    vertex -7.500000000000002 -12.990381056766578 0.0
    vertex -8.210369523457079 -2.199961883371426 0.0
    vertex -7.3612159321677275 -4.249999999999998 0.0
  endloop
endfacet
facet normal 0.0 0.0 -1.0
  outer loop
    vertex -7.500000000000002 -12.990381056766578 0.0
    vertex -7.3612159321677275 -4.249999999999998 0.0
    vertex -3.8822856765378146 -14.488887394336025 0.0
  endloop
endfacet
facet normal 0.0 0.0 -1.0
  outer loop
    vertex -3.8822856765378146 -14.488887394336025 0.0
    vertex -7.3612159321677275 -4.249999999999998 0.0
    vertex -6.010407640085654 -6.010407640085653 0.0
  endloop
endfacet
facet normal 0.0 0.0 -1.0
  outer loop
    vertex -3.8822856765378146 -14.488887394336025 0.0
    vertex -6.010407640085654 -6.010407640085653 0.0
    vertex -4.25 -7.3612159321677275 0.0
  endloop
endfacet
facet normal 0.0 0.0 -1.0
  outer loop
    vertex -3.8822856765378146 -14.488887394336025 0.0
    vertex -4.25 -7.3612159321677275 0.0
    vertex -2.1999618833714276 -8.210369523457079 0.0
  endloop
endfacet
facet normal 0.0 0.0 -1.0
  outer loop
    vertex -3.8822856765378146 -14.488887394336025 0.0
    vertex -2.1999618833714276 -8.210369523457079 0.0
    vertex -9.18485099360515e-16 -15.0 0.0
  endloop
endfacet
facet normal 0.0 0.0 -1.0
  outer loop
    vertex -9.18485099360515e-16 -15.0 0.0
    vertex -2.1999618833714276 -8.210369523457079 0.0
    vertex -5.204748896376251e-16 -8.499999999999998 0.0
  endloop
endfacet
facet normal 0.0 0.0 -1.0
  outer loop
    vertex -9.18485099360515e-16 -15.0 0.0
    vertex -5.204748896376251e-16 -8.499999999999998 0.0
    vertex 3.8822856765378098 -14.488887394336025 0.0
  endloop
endfacet
facet normal 0.0 0.0 -1.0
  outer loop
    vertex 3.8822856765378098 -14.488887394336025 0.0
    vertex -5.204748896376251e-16 -8.499999999999998 0.0
    vertex 2.199961883371425 -8.210369523457079 0.0
  endloop
endfacet
facet normal 0.0 0.0 -1.0
  outer loop
    vertex 3.8822856765378098 -14.488887394336025 0.0
    vertex 2.199961883371425 -8.210369523457079 0.0
    vertex 4.249999999999997 -7.3612159321677275 0.0
  endloop
endfacet
facet normal 0.0 0.0 -1.0
  outer loop
    vertex 3.8822856765378098 -14.488887394336025 0.0
    vertex 4.249999999999997 -7.3612159321677275 0.0
    vertex 7.499999999999997 -12.990381056766582 0.0
  endloop
endfacet
facet normal 0.0 0.0 -1.0
  outer loop
    vertex 7.499999999999997 -12.990381056766582 0.0
    vertex 4.249999999999997 -7.3612159321677275 0.0
    vertex 6.010407640085653 -6.010407640085654 0.0
  endloop
endfacet
facet normal 0.0 0.0 -1.0
  outer loop
    vertex 7.499999999999997 -12.990381056766582 0.0
    vertex 6.010407640085653 -6.010407640085654 0.0
    vertex 7.361215932167726 -4.250000000000002 0.0
  endloop
endfacet
facet normal 0.0 0.0 -1.0
  outer loop
    vertex 7.499999999999997 -12.990381056766582 0.0
    vertex 7.361215932167726 -4.250000000000002 0.0
    vertex 8.210369523457079 -2.1999618833714285 0.0
  endloop
endfacet
facet normal 0.0 0.0 -1.0
  outer loop
    vertex 7.499999999999997 -12.990381056766582 0.0
    vertex 8.210369523457079 -2.1999618833714285 0.0
    vertex 10.606601717798213 -10.606601717798213 0.0
  endloop
endfacet
facet normal 0.0 0.0 -1.0
  outer loop
    vertex 10.606601717798213 -10.606601717798213 0.0
    vertex 8.210369523457079 -2.1999618833714285 0.0
    vertex 8.499999999999998 -1.0409497792752501e-15 0.0
  endloop
endfacet
facet normal -0.0 -0.0 1.0
  outer loop
    vertex -14.488887394336025 -3.882285676537811 28.0
    vertex -14.488887394336022 3.882285676537824 28.0
    vertex -15.0 0.0 28.0
  endloop
endfacet
facet normal -0.0 -0.0 1.0
  outer loop
    vertex -14.488887394336022 3.882285676537824 28.0
    vertex -14.488887394336025 -3.882285676537811 28.0
    vertex -12.990381056766582 -7.499999999999999 28.0
  endloop
endfacet
facet normal -0.0 -0.0 1.0
  outer loop
    vertex -14.488887394336022 3.882285676537824 28.0
    vertex -12.990381056766582 -7.499999999999999 28.0
    vertex -12.990381056766577 7.500000000000007 28.0
  endloop
endfacet
facet normal -0.0 -0.0 1.0
  outer loop
    vertex -12.990381056766577 7.500000000000007 28.0
    vertex -12.990381056766582 -7.499999999999999 28.0
    vertex -10.606601717798213 -10.606601717798213 28.0
  endloop
endfacet
facet normal -0.0 -0.0 1.0
  outer loop
    vertex -12.990381056766577 7.500000000000007 28.0
    vertex -10.606601717798213 -10.606601717798213 28.0
    vertex -10.606601717798211 10.606601717798215 28.0
  endloop
endfacet
facet normal -0.0 -0.0 1.0
  outer loop
    vertex -10.606601717798211 10.606601717798215 28.0
    vertex -10.606601717798213 -10.606601717798213 28.0
    vertex -7.500000000000002 -12.990381056766578 28.0
  endloop
endfacet
facet normal -0.0 -0.0 1.0
  outer loop
    vertex -10.606601717798211 10.606601717798215 28.0
    vertex -7.500000000000002 -12.990381056766578 28.0
    vertex -8.499999999999998 0.0 28.0
  endloop
endfacet
facet normal -0.0 -0.0 1.0
  outer loop
    vertex -8.499999999999998 0.0 28.0
    vertex -7.500000000000002 -12.990381056766578 28.0
    vertex -8.210369523457079 -2.199961883371426 28.0
  endloop
endfacet
facet normal -0.0 -0.0 1.0
  outer loop
    vertex -8.210369523457079 -2.199961883371426 28.0
    vertex -7.500000000000002 -12.990381056766578 28.0
    vertex -7.3612159321677275 -4.249999999999998 28.0
  endloop
endfacet
facet normal -0.0 -0.0 1.0
  outer loop
    vertex -7.3612159321677275 -4.249999999999998 28.0
    vertex -7.500000000000002 -12.990381056766578 28.0
    vertex -3.8822856765378146 -14.488887394336025 28.0
  endloop
endfacet
facet normal -0.0 -0.0 1.0
  outer loop
    vertex -7.3612159321677275 -4.249999999999998 28.0
    vertex -3.8822856765378146 -14.488887394336025 28.0
    vertex -6.010407640085654 -6.010407640085653 28.0
  endloop
endfacet
facet normal -0.0 -0.0 1.0
  outer loop
    vertex -6.010407640085654 -6.010407640085653 28.0
    vertex -3.8822856765378146 -14.488887394336025 28.0
    vertex -4.25 -7.3612159321677275 28.0
  endloop
endfacet
facet normal -0.0 -0.0 1.0
  outer loop
    vertex -4.25 -7.3612159321677275 28.0
    vertex -3.8822856765378146 -14.488887394336025 28.0
    vertex -2.1999618833714276 -8.210369523457079 28.0
  endloop
endfacet
facet normal -0.0 -0.0 1.0
  outer loop
    vertex -2.1999618833714276 -8.210369523457079 28.0
    vertex -3.8822856765378146 -14.488887394336025 28.0
    vertex -9.18485099360515e-16 -15.0 28.0
  endloop
endfacet
facet normal -0.0 -0.0 1.0
  outer loop
    vertex -2.1999618833714276 -8.210369523457079 28.0
    vertex -9.18485099360515e-16 -15.0 28.0
    vertex -5.204748896376251e-16 -8.499999999999998 28.0
  endloop
endfacet
facet normal -0.0 -0.0 1.0
  outer loop
    vertex -5.204748896376251e-16 -8.499999999999998 28.0
    vertex -9.18485099360515e-16 -15.0 28.0
    vertex 3.8822856765378098 -14.488887394336025 28.0
  endloop
endfacet
facet normal -0.0 -0.0 1.0
  outer loop
    vertex -5.204748896376251e-16 -8.499999999999998 28.0
    vertex 3.8822856765378098 -14.488887394336025 28.0
    vertex 2.199961883371425 -8.210369523457079 28.0
  endloop
endfacet
facet normal -0.0 -0.0 1.0
  outer loop
    vertex 2.199961883371425 -8.210369523457079 28.0
    vertex 3.8822856765378098 -14.488887394336025 28.0
    vertex 4.249999999999997 -7.3612159321677275 28.0
  endloop
endfacet
facet normal -0.0 -0.0 1.0
  outer loop
    vertex 4.249999999999997 -7.3612159321677275 28.0
    vertex 3.8822856765378098 -14.488887394336025 28.0
    vertex 7.499999999999997 -12.990381056766582 28.0
  endloop
endfacet
facet normal -0.0 -0.0 1.0
  outer loop
    vertex 4.249999999999997 -7.3612159321677275 28.0
    vertex 7.499999999999997 -12.990381056766582 28.0
    vertex 6.010407640085653 -6.010407640085654 28.0
  endloop
endfacet
facet normal -0.0 -0.0 1.0
  outer loop
    vertex 6.010407640085653 -6.010407640085654 28.0
    vertex 7.499999999999997 -12.990381056766582 28.0
    vertex 7.361215932167726 -4.250000000000002 28.0
  endloop
endfacet
facet normal -0.0 -0.0 1.0
  outer loop
    vertex 7.361215932167726 -4.250000000000002 28.0
    vertex 7.499999999999997 -12.990381056766582 28.0
    vertex 8.210369523457079 -2.1999618833714285 28.0
  endloop
endfacet
facet normal -0.0 -0.0 1.0
  outer loop
    vertex 8.210369523457079 -2.1999618833714285 28.0
    vertex 7.499999999999997 -12.990381056766582 28.0
    vertex 10.606601717798213 -10.606601717798213 28.0
  endloop
endfacet
facet normal -0.0 -0.0 1.0
  outer loop
    vertex 8.210369523457079 -2.1999618833714285 28.0
    vertex 10.606601717798213 -10.606601717798213 28.0
    vertex 8.499999999999998 -1.0409497792752501e-15 28.0
  endloop
endfacet
facet normal -0.0 -0.0 1.0
  outer loop
    vertex -8.499999999999998 0.0 28.0
    vertex -7.499999999999989 12.990381056766587 28.0
    vertex -10.606601717798211 10.606601717798215 28.0
  endloop
endfacet
facet normal -0.0 -0.0 1.0
  outer loop
    vertex -7.499999999999989 12.990381056766587 28.0
    vertex -8.499999999999998 0.0 28.0
    vertex -8.210369523457077 2.199961883371433 28.0
  endloop
endfacet
facet normal -0.0 -0.0 1.0
  outer loop
    vertex -7.499999999999989 12.990381056766587 28.0
    vertex -8.210369523457077 2.199961883371433 28.0
    vertex -7.361215932167725 4.250000000000003 28.0
  endloop
endfacet
facet normal -0.0 -0.0 1.0
  outer loop
    vertex -7.499999999999989 12.990381056766587 28.0
    vertex -7.361215932167725 4.250000000000003 28.0
    vertex -3.882285676537805 14.488887394336027 28.0
  endloop
endfacet
facet normal -0.0 -0.0 1.0
  outer loop
    vertex -3.882285676537805 14.488887394336027 28.0
    vertex -7.361215932167725 4.250000000000003 28.0
    vertex -6.010407640085651 6.0104076400856545 28.0
  endloop
endfacet
facet normal -0.0 -0.0 1.0
  outer loop
    vertex -3.882285676537805 14.488887394336027 28.0
    vertex -6.010407640085651 6.0104076400856545 28.0
    vertex -4.249999999999993 7.36121593216773 28.0
  endloop
endfacet
facet normal -0.0 -0.0 1.0
  outer loop
    vertex -3.882285676537805 14.488887394336027 28.0
    vertex -4.249999999999993 7.36121593216773 28.0
    vertex -2.199961883371422 8.21036952345708 28.0
  endloop
endfacet
facet normal -0.0 -0.0 1.0
  outer loop
    vertex -3.882285676537805 14.488887394336027 28.0
    vertex -2.199961883371422 8.21036952345708 28.0
    vertex 2.7554552980815448e-15 15.0 28.0
  endloop
endfacet
facet normal -0.0 -0.0 1.0
  outer loop
    vertex 2.7554552980815448e-15 15.0 28.0
    vertex -2.199961883371422 8.21036952345708 28.0
    vertex 1.561424668912875e-15 8.499999999999998 28.0
  endloop
endfacet
facet normal -0.0 -0.0 1.0
  outer loop
    vertex 2.7554552980815448e-15 15.0 28.0
    vertex 1.561424668912875e-15 8.499999999999998 28.0
    vertex 2.1999618833714325 8.210369523457077 28.0
  endloop
endfacet
facet normal -0.0 -0.0 1.0
  outer loop
    vertex 2.7554552980815448e-15 15.0 28.0
    vertex 2.1999618833714325 8.210369523457077 28.0
    vertex 3.882285676537823 14.488887394336022 28.0
  endloop
endfacet
facet normal -0.0 -0.0 1.0
  outer loop
    vertex 3.882285676537823 14.488887394336022 28.0
    vertex 2.1999618833714325 8.210369523457077 28.0
    vertex 4.250000000000003 7.361215932167725 28.0
  endloop
endfacet
facet normal -0.0 -0.0 1.0
  outer loop
    vertex 3.882285676537823 14.488887394336022 28.0
    vertex 4.250000000000003 7.361215932167725 28.0
    vertex 7.500000000000007 12.990381056766577 28.0
  endloop
endfacet
facet normal -0.0 -0.0 1.0
  outer loop
    vertex 7.500000000000007 12.990381056766577 28.0
    vertex 4.250000000000003 7.361215932167725 28.0
    vertex 6.010407640085656 6.010407640085649 28.0
  endloop
endfacet
facet normal -0.0 -0.0 1.0
  outer loop
    vertex 7.500000000000007 12.990381056766577 28.0
    vertex 6.010407640085656 6.010407640085649 28.0
    vertex 7.361215932167728 4.249999999999997 28.0
  endloop
endfacet
facet normal -0.0 -0.0 1.0
  outer loop
    vertex 7.500000000000007 12.990381056766577 28.0
    vertex 7.361215932167728 4.249999999999997 28.0
    vertex 8.21036952345708 2.1999618833714227 28.0
  endloop
endfacet
facet normal -0.0 -0.0 1.0
  outer loop
    vertex 7.500000000000007 12.990381056766577 28.0
    vertex 8.21036952345708 2.1999618833714227 28.0
    vertex 10.60660171779822 10.606601717798206 28.0
  endloop
endfacet
facet normal -0.0 -0.0 1.0
  outer loop
    vertex 10.60660171779822 10.606601717798206 28.0
    vertex 8.21036952345708 2.1999618833714227 28.0
    vertex 8.499999999999998 -1.0409497792752501e-15 28.0
  endloop
endfacet
facet normal -0.0 -0.0 1.0
  outer loop
    vertex 10.60660171779822 10.606601717798206 28.0
    vertex 8.499999999999998 -1.0409497792752501e-15 28.0
    vertex 10.606601717798213 -10.606601717798213 28.0
  endloop
endfacet
facet normal -0.0 -0.0 1.0
  outer loop
    vertex 10.60660171779822 10.606601717798206 28.0
    vertex 10.606601717798213 -10.606601717798213 28.0
    vertex 12.990381056766578 -7.500000000000006 28.0
  endloop
endfacet
facet normal -0.0 -0.0 1.0
  outer loop
    vertex 10.60660171779822 10.606601717798206 28.0
    vertex 12.990381056766578 -7.500000000000006 28.0
    vertex 12.990381056766582 7.4999999999999964 28.0
  endloop
endfacet
facet normal -0.0 -0.0 1.0
  outer loop
    vertex 12.990381056766582 7.4999999999999964 28.0
    vertex 12.990381056766578 -7.500000000000006 28.0
    vertex 14.488887394336025 -3.8822856765378155 28.0
  endloop
endfacet
facet normal -0.0 -0.0 1.0
  outer loop
    vertex 12.990381056766582 7.4999999999999964 28.0
    vertex 14.488887394336025 -3.8822856765378155 28.0
    vertex 14.488887394336027 3.8822856765378058 28.0
  endloop
endfacet
facet normal -0.0 -0.0 1.0
  outer loop
    vertex 14.488887394336027 3.8822856765378058 28.0
    vertex 14.488887394336025 -3.8822856765378155 28.0
    vertex 15.0 -1.83697019872103e-15 28.0
  endloop
endfacet
facet normal -0.9914448613738104 -0.13052619222005174 -0.0
  outer loop
    vertex -15.0 0.0 28.0
    vertex -14.488887394336025 -3.882285676537811 0.0
    vertex -14.488887394336025 -3.882285676537811 28.0
  endloop
endfacet
facet normal -0.9914448613738104 -0.13052619222005174 -0.0
  outer loop
    vertex -14.488887394336025 -3.882285676537811 0.0
    vertex -15.0 0.0 28.0
    vertex -15.0 0.0 0.0
  endloop
endfacet
facet normal -0.9914448613738105 0.13052619222005205 0.0
  outer loop
    vertex -14.488887394336022 3.882285676537824 28.0
    vertex -15.0 0.0 0.0
    vertex -15.0 0.0 28.0
  endloop
endfacet
facet normal -0.9914448613738105 0.13052619222005205 0.0
  outer loop
    vertex -15.0 0.0 0.0
    vertex -14.488887394336022 3.882285676537824 28.0
    vertex -14.488887394336022 3.882285676537824 0.0
  endloop
endfacet
facet normal -0.9238795325112865 0.3826834323650904 0.0
  outer loop
    vertex -12.990381056766577 7.500000000000007 28.0
    vertex -14.488887394336022 3.882285676537824 0.0
    vertex -14.488887394336022 3.882285676537824 28.0
  endloop
endfacet
facet normal -0.9238795325112865 0.3826834323650904 0.0
  outer loop
    vertex -14.488887394336022 3.882285676537824 0.0
    vertex -12.990381056766577 7.500000000000007 28.0
    vertex -12.990381056766577 7.500000000000007 0.0
  endloop
endfacet
facet normal -0.7933533402912349 0.608761429008721 0.0
  outer loop
    vertex -10.606601717798211 10.606601717798215 28.0
    vertex -12.990381056766577 7.500000000000007 0.0
    vertex -12.990381056766577 7.500000000000007 28.0
  endloop
endfacet
facet normal -0.7933533402912349 0.608761429008721 0.0
  outer loop
    vertex -12.990381056766577 7.500000000000007 0.0
    vertex -10.606601717798211 10.606601717798215 28.0
    vertex -10.606601717798211 10.606601717798215 0.0
  endloop
endfacet
facet normal -0.6087614290087204 0.7933533402912355 0.0
  outer loop
    vertex -10.606601717798211 10.606601717798215 28.0
    vertex -7.499999999999989 12.990381056766587 0.0
    vertex -10.606601717798211 10.606601717798215 0.0
  endloop
endfacet
facet normal -0.6087614290087204 0.7933533402912355 0.0
  outer loop
    vertex -7.499999999999989 12.990381056766587 0.0
    vertex -10.606601717798211 10.606601717798215 28.0
    vertex -7.499999999999989 12.990381056766587 28.0
  endloop
endfacet
facet normal -0.3826834323650891 0.9238795325112871 0.0
  outer loop
    vertex -7.499999999999989 12.990381056766587 28.0
    vertex -3.882285676537805 14.488887394336027 0.0
    vertex -7.499999999999989 12.990381056766587 0.0
  endloop
endfacet
facet normal -0.3826834323650891 0.9238795325112871 0.0
  outer loop
    vertex -3.882285676537805 14.488887394336027 0.0
    vertex -7.499999999999989 12.990381056766587 28.0
    vertex -3.882285676537805 14.488887394336027 28.0
  endloop
endfacet
facet normal -0.13052619222005116 0.9914448613738106 0.0
  outer loop
    vertex -3.882285676537805 14.488887394336027 28.0
    vertex 2.7554552980815448e-15 15.0 0.0
    vertex -3.882285676537805 14.488887394336027 0.0
  endloop
endfacet
facet normal -0.13052619222005116 0.9914448613738106 0.0
  outer loop
    vertex 2.7554552980815448e-15 15.0 0.0
    vertex -3.882285676537805 14.488887394336027 28.0
    vertex 2.7554552980815448e-15 15.0 28.0
  endloop
endfacet
facet normal 0.13052619222005216 0.9914448613738104 0.0
  outer loop
    vertex 2.7554552980815448e-15 15.0 28.0
    vertex 3.882285676537823 14.488887394336022 0.0
    vertex 2.7554552980815448e-15 15.0 0.0
  endloop
endfacet
facet normal 0.13052619222005216 0.9914448613738104 0.0
  outer loop
    vertex 3.882285676537823 14.488887394336022 0.0
    vertex 2.7554552980815448e-15 15.0 28.0
    vertex 3.882285676537823 14.488887394336022 28.0
  endloop
endfacet
facet normal 0.38268343236509034 0.9238795325112865 0.0
  outer loop
    vertex 3.882285676537823 14.488887394336022 28.0
    vertex 7.500000000000007 12.990381056766577 0.0
    vertex 3.882285676537823 14.488887394336022 0.0
  endloop
endfacet
facet normal 0.38268343236509034 0.9238795325112865 0.0
  outer loop
    vertex 7.500000000000007 12.990381056766577 0.0
    vertex 3.882285676537823 14.488887394336022 28.0
    vertex 7.500000000000007 12.990381056766577 28.0
  endloop
endfacet
facet normal 0.6087614290087211 0.7933533402912348 0.0
  outer loop
    vertex 7.500000000000007 12.990381056766577 28.0
    vertex 10.60660171779822 10.606601717798206 0.0
    vertex 7.500000000000007 12.990381056766577 0.0
  endloop
endfacet
facet normal 0.6087614290087211 0.7933533402912348 0.0
  outer loop
    vertex 10.60660171779822 10.606601717798206 0.0
    vertex 7.500000000000007 12.990381056766577 28.0
    vertex 10.60660171779822 10.606601717798206 28.0
  endloop
endfacet
facet normal 0.7933533402912355 0.6087614290087202 0.0
  outer loop
    vertex 10.60660171779822 10.606601717798206 0.0
    vertex 12.990381056766582 7.4999999999999964 28.0
    vertex 12.990381056766582 7.4999999999999964 0.0
  endloop
endfacet
facet normal 0.7933533402912355 0.6087614290087202 0.0
  outer loop
    vertex 12.990381056766582 7.4999999999999964 28.0
    vertex 10.60660171779822 10.606601717798206 0.0
    vertex 10.60660171779822 10.606601717798206 28.0
  endloop
endfacet
facet normal 0.9238795325112867 0.3826834323650898 0.0
  outer loop
    vertex 12.990381056766582 7.4999999999999964 0.0
    vertex 14.488887394336027 3.8822856765378058 28.0
    vertex 14.488887394336027 3.8822856765378058 0.0
  endloop
endfacet
facet normal 0.9238795325112867 0.3826834323650898 0.0
  outer loop
    vertex 14.488887394336027 3.8822856765378058 28.0
    vertex 12.990381056766582 7.4999999999999964 0.0
    vertex 12.990381056766582 7.4999999999999964 28.0
  endloop
endfacet
facet normal 0.9914448613738106 0.13052619222005116 0.0
  outer loop
    vertex 14.488887394336027 3.8822856765378058 0.0
    vertex 15.0 -1.83697019872103e-15 28.0
    vertex 15.0 -1.83697019872103e-15 0.0
  endloop
endfacet
facet normal 0.9914448613738106 0.13052619222005116 0.0
  outer loop
    vertex 15.0 -1.83697019872103e-15 28.0
    vertex 14.488887394336027 3.8822856765378058 0.0
    vertex 14.488887394336027 3.8822856765378058 28.0
  endloop
endfacet
facet normal 0.9914448613738104 -0.13052619222005168 0.0
  outer loop
    vertex 15.0 -1.83697019872103e-15 0.0
    vertex 14.488887394336025 -3.8822856765378155 28.0
    vertex 14.488887394336025 -3.8822856765378155 0.0
  endloop
endfacet
facet normal 0.9914448613738104 -0.13052619222005168 0.0
  outer loop
    vertex 14.488887394336025 -3.8822856765378155 28.0
    vertex 15.0 -1.83697019872103e-15 0.0
    vertex 15.0 -1.83697019872103e-15 28.0
  endloop
endfacet
facet normal 0.9238795325112867 -0.3826834323650898 0.0
  outer loop
    vertex 14.488887394336025 -3.8822856765378155 0.0
    vertex 12.990381056766578 -7.500000000000006 28.0
    vertex 12.990381056766578 -7.500000000000006 0.0
  endloop
endfacet
facet normal 0.9238795325112867 -0.3826834323650898 0.0
  outer loop
    vertex 12.990381056766578 -7.500000000000006 28.0
    vertex 14.488887394336025 -3.8822856765378155 0.0
    vertex 14.488887394336025 -3.8822856765378155 28.0
  endloop
endfacet
facet normal 0.7933533402912347 -0.6087614290087212 0.0
  outer loop
    vertex 12.990381056766578 -7.500000000000006 0.0
    vertex 10.606601717798213 -10.606601717798213 28.0
    vertex 10.606601717798213 -10.606601717798213 0.0
  endloop
endfacet
facet normal 0.7933533402912347 -0.6087614290087212 0.0
  outer loop
    vertex 10.606601717798213 -10.606601717798213 28.0
    vertex 12.990381056766578 -7.500000000000006 0.0
    vertex 12.990381056766578 -7.500000000000006 28.0
  endloop
endfacet
facet normal 0.6087614290087207 -0.7933533402912354 0.0
  outer loop
    vertex 10.606601717798213 -10.606601717798213 28.0
    vertex 7.499999999999997 -12.990381056766582 0.0
    vertex 10.606601717798213 -10.606601717798213 0.0
  endloop
endfacet
facet normal 0.6087614290087207 -0.7933533402912354 0.0
  outer loop
    vertex 7.499999999999997 -12.990381056766582 0.0
    vertex 10.606601717798213 -10.606601717798213 28.0
    vertex 7.499999999999997 -12.990381056766582 28.0
  endloop
endfacet
facet normal 0.3826834323650894 -0.923879532511287 0.0
  outer loop
    vertex 7.499999999999997 -12.990381056766582 28.0
    vertex 3.8822856765378098 -14.488887394336025 0.0
    vertex 7.499999999999997 -12.990381056766582 0.0
  endloop
endfacet
facet normal 0.3826834323650894 -0.923879532511287 0.0
  outer loop
    vertex 3.8822856765378098 -14.488887394336025 0.0
    vertex 7.499999999999997 -12.990381056766582 28.0
    vertex 3.8822856765378098 -14.488887394336025 28.0
  endloop
endfacet
facet normal 0.13052619222005177 -0.9914448613738105 0.0
  outer loop
    vertex 3.8822856765378098 -14.488887394336025 28.0
    vertex -9.18485099360515e-16 -15.0 0.0
    vertex 3.8822856765378098 -14.488887394336025 0.0
  endloop
endfacet
facet normal 0.13052619222005177 -0.9914448613738105 0.0
  outer loop
    vertex -9.18485099360515e-16 -15.0 0.0
    vertex 3.8822856765378098 -14.488887394336025 28.0
    vertex -9.18485099360515e-16 -15.0 28.0
  endloop
endfacet
facet normal -0.13052619222005166 -0.9914448613738104 -0.0
  outer loop
    vertex -9.18485099360515e-16 -15.0 28.0
    vertex -3.8822856765378146 -14.488887394336025 0.0
    vertex -9.18485099360515e-16 -15.0 0.0
  endloop
endfacet
facet normal -0.13052619222005166 -0.9914448613738104 -0.0
  outer loop
    vertex -3.8822856765378146 -14.488887394336025 0.0
    vertex -9.18485099360515e-16 -15.0 28.0
    vertex -3.8822856765378146 -14.488887394336025 28.0
  endloop
endfacet
facet normal -0.3826834323650901 -0.9238795325112867 -0.0
  outer loop
    vertex -3.8822856765378146 -14.488887394336025 28.0
    vertex -7.500000000000002 -12.990381056766578 0.0
    vertex -3.8822856765378146 -14.488887394336025 0.0
  endloop
endfacet
facet normal -0.3826834323650901 -0.9238795325112867 -0.0
  outer loop
    vertex -7.500000000000002 -12.990381056766578 0.0
    vertex -3.8822856765378146 -14.488887394336025 28.0
    vertex -7.500000000000002 -12.990381056766578 28.0
  endloop
endfacet
facet normal -0.6087614290087207 -0.7933533402912353 -0.0
  outer loop
    vertex -7.500000000000002 -12.990381056766578 28.0
    vertex -10.606601717798213 -10.606601717798213 0.0
    vertex -7.500000000000002 -12.990381056766578 0.0
  endloop
endfacet
facet normal -0.6087614290087207 -0.7933533402912353 -0.0
  outer loop
    vertex -10.606601717798213 -10.606601717798213 0.0
    vertex -7.500000000000002 -12.990381056766578 28.0
    vertex -10.606601717798213 -10.606601717798213 28.0
  endloop
endfacet
facet normal -0.7933533402912352 -0.6087614290087208 -0.0
  outer loop
    vertex -12.990381056766582 -7.499999999999999 28.0
    vertex -10.606601717798213 -10.606601717798213 0.0
    vertex -10.606601717798213 -10.606601717798213 28.0
  endloop
endfacet
facet normal -0.7933533402912352 -0.6087614290087208 -0.0
  outer loop
    vertex -10.606601717798213 -10.606601717798213 0.0
    vertex -12.990381056766582 -7.499999999999999 28.0
    vertex -12.990381056766582 -7.499999999999999 0.0
  endloop
endfacet
facet normal -0.923879532511287 -0.3826834323650894 -0.0
  outer loop
    vertex -14.488887394336025 -3.882285676537811 28.0
    vertex -12.990381056766582 -7.499999999999999 0.0
    vertex -12.990381056766582 -7.499999999999999 28.0
  endloop
endfacet
facet normal -0.923879532511287 -0.3826834323650894 -0.0
  outer loop
    vertex -12.990381056766582 -7.499999999999999 0.0
    vertex -14.488887394336025 -3.882285676537811 28.0
    vertex -14.488887394336025 -3.882285676537811 0.0
  endloop
endfacet
facet normal 0.3826834323650897 0.9238795325112867 0.0
  outer loop
    vertex -4.25 -7.3612159321677275 28.0
    vertex -2.1999618833714276 -8.210369523457079 0.0
    vertex -4.25 -7.3612159321677275 0.0
  endloop
endfacet
facet normal 0.3826834323650897 0.9238795325112867 0.0
  outer loop
    vertex -2.1999618833714276 -8.210369523457079 0.0
    vertex -4.25 -7.3612159321677275 28.0
    vertex -2.1999618833714276 -8.210369523457079 28.0
  endloop
endfacet
facet normal 0.1305261922200517 0.9914448613738105 0.0
  outer loop
    vertex -2.1999618833714276 -8.210369523457079 28.0
    vertex -5.204748896376251e-16 -8.499999999999998 0.0
    vertex -2.1999618833714276 -8.210369523457079 0.0
  endloop
endfacet
facet normal 0.1305261922200517 0.9914448613738105 0.0
  outer loop
    vertex -5.204748896376251e-16 -8.499999999999998 0.0
    vertex -2.1999618833714276 -8.210369523457079 28.0
    vertex -5.204748896376251e-16 -8.499999999999998 28.0
  endloop
endfacet
facet normal -0.13052619222005182 0.9914448613738105 0.0
  outer loop
    vertex -5.204748896376251e-16 -8.499999999999998 28.0
    vertex 2.199961883371425 -8.210369523457079 0.0
    vertex -5.204748896376251e-16 -8.499999999999998 0.0
  endloop
endfacet
facet normal -0.13052619222005182 0.9914448613738105 0.0
  outer loop
    vertex 2.199961883371425 -8.210369523457079 0.0
    vertex -5.204748896376251e-16 -8.499999999999998 28.0
    vertex 2.199961883371425 -8.210369523457079 28.0
  endloop
endfacet
facet normal -0.3826834323650897 0.9238795325112867 0.0
  outer loop
    vertex 2.199961883371425 -8.210369523457079 28.0
    vertex 4.249999999999997 -7.3612159321677275 0.0
    vertex 2.199961883371425 -8.210369523457079 0.0
  endloop
endfacet
facet normal -0.3826834323650897 0.9238795325112867 0.0
  outer loop
    vertex 4.249999999999997 -7.3612159321677275 0.0
    vertex 2.199961883371425 -8.210369523457079 28.0
    vertex 4.249999999999997 -7.3612159321677275 28.0
  endloop
endfacet
facet normal -0.6087614290087201 0.7933533402912357 0.0
  outer loop
    vertex 4.249999999999997 -7.3612159321677275 28.0
    vertex 6.010407640085653 -6.010407640085654 0.0
    vertex 4.249999999999997 -7.3612159321677275 0.0
  endloop
endfacet
facet normal -0.6087614290087201 0.7933533402912357 0.0
  outer loop
    vertex 6.010407640085653 -6.010407640085654 0.0
    vertex 4.249999999999997 -7.3612159321677275 28.0
    vertex 6.010407640085653 -6.010407640085654 28.0
  endloop
endfacet
facet normal -0.793353340291235 0.6087614290087209 0.0
  outer loop
    vertex 7.361215932167726 -4.250000000000002 28.0
    vertex 6.010407640085653 -6.010407640085654 0.0
    vertex 6.010407640085653 -6.010407640085654 28.0
  endloop
endfacet
facet normal -0.793353340291235 0.6087614290087209 0.0
  outer loop
    vertex 6.010407640085653 -6.010407640085654 0.0
    vertex 7.361215932167726 -4.250000000000002 28.0
    vertex 7.361215932167726 -4.250000000000002 0.0
  endloop
endfacet
facet normal -0.9238795325112867 0.3826834323650901 0.0
  outer loop
    vertex 8.210369523457079 -2.1999618833714285 28.0
    vertex 7.361215932167726 -4.250000000000002 0.0
    vertex 7.361215932167726 -4.250000000000002 28.0
  endloop
endfacet
facet normal -0.9238795325112867 0.3826834323650901 0.0
  outer loop
    vertex 7.361215932167726 -4.250000000000002 0.0
    vertex 8.210369523457079 -2.1999618833714285 28.0
    vertex 8.210369523457079 -2.1999618833714285 0.0
  endloop
endfacet
facet normal -0.9914448613738105 0.1305261922200517 0.0
  outer loop
    vertex 8.499999999999998 -1.0409497792752501e-15 28.0
    vertex 8.210369523457079 -2.1999618833714285 0.0
    vertex 8.210369523457079 -2.1999618833714285 28.0
  endloop
endfacet
facet normal -0.9914448613738105 0.1305261922200517 0.0
  outer loop
    vertex 8.210369523457079 -2.1999618833714285 0.0
    vertex 8.499999999999998 -1.0409497792752501e-15 28.0
    vertex 8.499999999999998 -1.0409497792752501e-15 0.0
  endloop
endfacet
facet normal -0.9914448613738105 -0.1305261922200513 -0.0
  outer loop
    vertex 8.21036952345708 2.1999618833714227 28.0
    vertex 8.499999999999998 -1.0409497792752501e-15 0.0
    vertex 8.499999999999998 -1.0409497792752501e-15 28.0
  endloop
endfacet
facet normal -0.9914448613738105 -0.1305261922200513 -0.0
  outer loop
    vertex 8.499999999999998 -1.0409497792752501e-15 0.0
    vertex 8.21036952345708 2.1999618833714227 28.0
    vertex 8.21036952345708 2.1999618833714227 0.0
  endloop
endfacet
facet normal -0.9238795325112871 -0.38268343236508945 -0.0
  outer loop
    vertex 7.361215932167728 4.249999999999997 28.0
    vertex 8.21036952345708 2.1999618833714227 0.0
    vertex 8.21036952345708 2.1999618833714227 28.0
  endloop
endfacet
facet normal -0.9238795325112871 -0.38268343236508945 -0.0
  outer loop
    vertex 8.21036952345708 2.1999618833714227 0.0
    vertex 7.361215932167728 4.249999999999997 28.0
    vertex 7.361215932167728 4.249999999999997 0.0
  endloop
endfacet
facet normal -0.7933533402912354 -0.6087614290087205 -0.0
  outer loop
    vertex 6.010407640085656 6.010407640085649 28.0
    vertex 7.361215932167728 4.249999999999997 0.0
    vertex 7.361215932167728 4.249999999999997 28.0
  endloop
endfacet
facet normal -0.7933533402912354 -0.6087614290087205 -0.0
  outer loop
    vertex 7.361215932167728 4.249999999999997 0.0
    vertex 6.010407640085656 6.010407640085649 28.0
    vertex 6.010407640085656 6.010407640085649 0.0
  endloop
endfacet
facet normal -0.608761429008721 -0.7933533402912349 -0.0
  outer loop
    vertex 6.010407640085656 6.010407640085649 28.0
    vertex 4.250000000000003 7.361215932167725 0.0
    vertex 6.010407640085656 6.010407640085649 0.0
  endloop
endfacet
facet normal -0.608761429008721 -0.7933533402912349 -0.0
  outer loop
    vertex 4.250000000000003 7.361215932167725 0.0
    vertex 6.010407640085656 6.010407640085649 28.0
    vertex 4.250000000000003 7.361215932167725 28.0
  endloop
endfacet
facet normal -0.3826834323650906 -0.9238795325112864 -0.0
  outer loop
    vertex 4.250000000000003 7.361215932167725 28.0
    vertex 2.1999618833714325 8.210369523457077 0.0
    vertex 4.250000000000003 7.361215932167725 0.0
  endloop
endfacet
facet normal -0.3826834323650906 -0.9238795325112864 -0.0
  outer loop
    vertex 2.1999618833714325 8.210369523457077 0.0
    vertex 4.250000000000003 7.361215932167725 28.0
    vertex 2.1999618833714325 8.210369523457077 28.0
  endloop
endfacet
facet normal -0.1305261922200521 -0.9914448613738104 -0.0
  outer loop
    vertex 2.1999618833714325 8.210369523457077 28.0
    vertex 1.561424668912875e-15 8.499999999999998 0.0
    vertex 2.1999618833714325 8.210369523457077 0.0
  endloop
endfacet
facet normal -0.1305261922200521 -0.9914448613738104 -0.0
  outer loop
    vertex 1.561424668912875e-15 8.499999999999998 0.0
    vertex 2.1999618833714325 8.210369523457077 28.0
    vertex 1.561424668912875e-15 8.499999999999998 28.0
  endloop
endfacet
facet normal 0.1305261922200513 -0.9914448613738105 0.0
  outer loop
    vertex 1.561424668912875e-15 8.499999999999998 28.0
    vertex -2.199961883371422 8.21036952345708 0.0
    vertex 1.561424668912875e-15 8.499999999999998 0.0
  endloop
endfacet
facet normal 0.1305261922200513 -0.9914448613738105 0.0
  outer loop
    vertex -2.199961883371422 8.21036952345708 0.0
    vertex 1.561424668912875e-15 8.499999999999998 28.0
    vertex -2.199961883371422 8.21036952345708 28.0
  endloop
endfacet
facet normal 0.38268343236508945 -0.923879532511287 0.0
  outer loop
    vertex -2.199961883371422 8.21036952345708 28.0
    vertex -4.249999999999993 7.36121593216773 0.0
    vertex -2.199961883371422 8.21036952345708 0.0
  endloop
endfacet
facet normal 0.38268343236508945 -0.923879532511287 0.0
  outer loop
    vertex -4.249999999999993 7.36121593216773 0.0
    vertex -2.199961883371422 8.21036952345708 28.0
    vertex -4.249999999999993 7.36121593216773 28.0
  endloop
endfacet
facet normal 0.6087614290087201 -0.7933533402912357 0.0
  outer loop
    vertex -4.249999999999993 7.36121593216773 28.0
    vertex -6.010407640085651 6.0104076400856545 0.0
    vertex -4.249999999999993 7.36121593216773 0.0
  endloop
endfacet
facet normal 0.6087614290087201 -0.7933533402912357 0.0
  outer loop
    vertex -6.010407640085651 6.0104076400856545 0.0
    vertex -4.249999999999993 7.36121593216773 28.0
    vertex -6.010407640085651 6.0104076400856545 28.0
  endloop
endfacet
facet normal 0.793353340291235 -0.6087614290087209 0.0
  outer loop
    vertex -6.010407640085651 6.0104076400856545 0.0
    vertex -7.361215932167725 4.250000000000003 28.0
    vertex -7.361215932167725 4.250000000000003 0.0
  endloop
endfacet
facet normal 0.793353340291235 -0.6087614290087209 0.0
  outer loop
    vertex -7.361215932167725 4.250000000000003 28.0
    vertex -6.010407640085651 6.0104076400856545 0.0
    vertex -6.010407640085651 6.0104076400856545 28.0
  endloop
endfacet
facet normal 0.9238795325112865 -0.3826834323650907 0.0
  outer loop
    vertex -7.361215932167725 4.250000000000003 0.0
    vertex -8.210369523457077 2.199961883371433 28.0
    vertex -8.210369523457077 2.199961883371433 0.0
  endloop
endfacet
facet normal 0.9238795325112865 -0.3826834323650907 0.0
  outer loop
    vertex -8.210369523457077 2.199961883371433 28.0
    vertex -7.361215932167725 4.250000000000003 0.0
    vertex -7.361215932167725 4.250000000000003 28.0
  endloop
endfacet
facet normal 0.9914448613738104 -0.130526192220052 0.0
  outer loop
    vertex -8.210369523457077 2.199961883371433 0.0
    vertex -8.499999999999998 0.0 28.0
    vertex -8.499999999999998 0.0 0.0
  endloop
endfacet
facet normal 0.9914448613738104 -0.130526192220052 0.0
  outer loop
    vertex -8.499999999999998 0.0 28.0
    vertex -8.210369523457077 2.199961883371433 0.0
    vertex -8.210369523457077 2.199961883371433 28.0
  endloop
endfacet
facet normal 0.9914448613738105 0.1305261922200518 0.0
  outer loop
    vertex -8.499999999999998 0.0 0.0
    vertex -8.210369523457079 -2.199961883371426 28.0
    vertex -8.210369523457079 -2.199961883371426 0.0
  endloop
endfacet
facet normal 0.9914448613738105 0.1305261922200518 0.0
  outer loop
    vertex -8.210369523457079 -2.199961883371426 28.0
    vertex -8.499999999999998 0.0 0.0
    vertex -8.499999999999998 0.0 28.0
  endloop
endfacet
facet normal 0.923879532511287 0.3826834323650898 0.0
  outer loop
    vertex -8.210369523457079 -2.199961883371426 0.0
    vertex -7.3612159321677275 -4.249999999999998 28.0
    vertex -7.3612159321677275 -4.249999999999998 0.0
  endloop
endfacet
facet normal 0.923879532511287 0.3826834323650898 0.0
  outer loop
    vertex -7.3612159321677275 -4.249999999999998 28.0
    vertex -8.210369523457079 -2.199961883371426 0.0
    vertex -8.210369523457079 -2.199961883371426 28.0
  endloop
endfacet
facet normal 0.7933533402912354 0.6087614290087204 0.0
  outer loop
    vertex -7.3612159321677275 -4.249999999999998 0.0
    vertex -6.010407640085654 -6.010407640085653 28.0
    vertex -6.010407640085654 -6.010407640085653 0.0
  endloop
endfacet
facet normal 0.7933533402912354 0.6087614290087204 0.0
  outer loop
    vertex -6.010407640085654 -6.010407640085653 28.0
    vertex -7.3612159321677275 -4.249999999999998 0.0
    vertex -7.3612159321677275 -4.249999999999998 28.0
  endloop
endfacet
facet normal 0.6087614290087208 0.793353340291235 0.0
  outer loop
    vertex -6.010407640085654 -6.010407640085653 28.0
    vertex -4.25 -7.3612159321677275 0.0
    vertex -6.010407640085654 -6.010407640085653 0.0
  endloop
endfacet
facet normal 0.6087614290087208 0.793353340291235 0.0
  outer loop
    vertex -4.25 -7.3612159321677275 0.0
    vertex -6.010407640085654 -6.010407640085653 28.0
    vertex -4.25 -7.3612159321677275 28.0
  endloop
endfacet
endsolid ABS BOLT
