solid Kurt-Winder laser sensor mount
facet normal 0.0 0.0 -1.0
  outer loop
    vertex 0.0 7.5 0.0
    vertex 3.676995749276218 4.05 2.8199664825478975e-15
    vertex 0.0 0.0 0.0
  endloop
endfacet
facet normal 0.0 0.0 -1.0
  outer loop
    vertex 3.676995749276218 4.05 2.8199664825478975e-15
    vertex 0.0 7.5 0.0
    vertex 49.5 7.5 0.0
  endloop
endfacet
facet normal 0.0 0.0 -1.0
  outer loop
    vertex 0.0 0.0 0.0
    vertex 3.676995749276218 4.05 2.8199664825478975e-15
    vertex 3.6375 3.75 2.8199664825478975e-15
  endloop
endfacet
facet normal 0.0 0.0 -1.0
  outer loop
    vertex 3.676995749276218 4.05 2.8199664825478975e-15
    vertex 49.5 7.5 0.0
    vertex 8.698004250723782 4.05 2.8199664825478975e-15
  endloop
endfacet
facet normal 0.0 0.0 -1.0
  outer loop
    vertex 8.698004250723782 4.05 2.8199664825478975e-15
    vertex 49.5 7.5 0.0
    vertex 8.737499999999999 3.75 2.8199664825478975e-15
  endloop
endfacet
facet normal 0.0 0.0 -1.0
  outer loop
    vertex 8.737499999999999 3.75 2.8199664825478975e-15
    vertex 49.5 7.5 0.0
    vertex 40.801995749276216 4.050000000000001 2.8199664825478975e-15
  endloop
endfacet
facet normal 0.0 0.0 -1.0
  outer loop
    vertex 8.737499999999999 3.75 2.8199664825478975e-15
    vertex 40.801995749276216 4.050000000000001 2.8199664825478975e-15
    vertex 40.762499999999996 3.75 2.8199664825478975e-15
  endloop
endfacet
facet normal 0.0 0.0 -1.0
  outer loop
    vertex 40.801995749276216 4.050000000000001 2.8199664825478975e-15
    vertex 49.5 7.5 0.0
    vertex 45.82300425072378 4.050000000000001 2.8199664825478975e-15
  endloop
endfacet
facet normal 0.0 0.0 -1.0
  outer loop
    vertex 45.82300425072378 4.050000000000001 2.8199664825478975e-15
    vertex 49.5 7.5 0.0
    vertex 45.8625 3.75 2.8199664825478975e-15
  endloop
endfacet
facet normal 0.0 0.0 -1.0
  outer loop
    vertex 0.0 0.0 0.0
    vertex 3.676995749276221 3.4500000000000006 2.8199664825478975e-15
    vertex 49.5 0.0 0.0
  endloop
endfacet
facet normal 0.0 0.0 -1.0
  outer loop
    vertex 3.676995749276221 3.4500000000000006 2.8199664825478975e-15
    vertex 0.0 0.0 0.0
    vertex 3.6375 3.75 2.8199664825478975e-15
  endloop
endfacet
facet normal 0.0 0.0 -1.0
  outer loop
    vertex 49.5 0.0 0.0
    vertex 3.676995749276221 3.4500000000000006 2.8199664825478975e-15
    vertex 8.698004250723782 3.4500000000000006 2.8199664825478975e-15
  endloop
endfacet
facet normal 0.0 0.0 -1.0
  outer loop
    vertex 49.5 0.0 0.0
    vertex 8.698004250723782 3.4500000000000006 2.8199664825478975e-15
    vertex 8.737499999999999 3.75 2.8199664825478975e-15
  endloop
endfacet
facet normal 0.0 0.0 -1.0
  outer loop
    vertex 49.5 0.0 0.0
    vertex 8.737499999999999 3.75 2.8199664825478975e-15
    vertex 40.801995749276216 3.4500000000000006 2.8199664825478975e-15
  endloop
endfacet
facet normal 0.0 0.0 -1.0
  outer loop
    vertex 40.801995749276216 3.4500000000000006 2.8199664825478975e-15
    vertex 8.737499999999999 3.75 2.8199664825478975e-15
    vertex 40.762499999999996 3.75 2.8199664825478975e-15
  endloop
endfacet
facet normal 0.0 0.0 -1.0
  outer loop
    vertex 49.5 0.0 0.0
    vertex 40.801995749276216 3.4500000000000006 2.8199664825478975e-15
    vertex 45.82300425072378 3.4500000000000006 2.8199664825478975e-15
  endloop
endfacet
facet normal 0.0 0.0 -1.0
  outer loop
    vertex 49.5 0.0 0.0
    vertex 45.82300425072378 3.4500000000000006 2.8199664825478975e-15
    vertex 45.8625 3.75 2.8199664825478975e-15
  endloop
endfacet
facet normal 0.0 0.0 -1.0
  outer loop
    vertex 49.5 0.0 0.0
    vertex 45.8625 3.75 2.8199664825478975e-15
    vertex 49.5 7.5 0.0
  endloop
endfacet
facet normal -0.0 1.0 0.0
  outer loop
    vertex 0.0 7.5 7.0
    vertex 49.5 7.5 0.0
    vertex 0.0 7.5 0.0
  endloop
endfacet
facet normal -0.0 1.0 0.0
  outer loop
    vertex 49.5 7.5 0.0
    vertex 0.0 7.5 7.0
    vertex 49.5 7.5 7.0
  endloop
endfacet
facet normal 1.0 0.0 0.0
  outer loop
    vertex 49.5 7.5 0.0
    vertex 49.5 0.0 7.0
    vertex 49.5 0.0 0.0
  endloop
endfacet
facet normal 1.0 0.0 0.0
  outer loop
    vertex 49.5 0.0 7.0
    vertex 49.5 7.5 0.0
    vertex 49.5 7.5 7.0
  endloop
endfacet
facet normal -0.0 -1.0 -0.0
  outer loop
    vertex 49.5 0.0 7.0
    vertex 0.0 0.0 0.0
    vertex 49.5 0.0 0.0
  endloop
endfacet
facet normal -0.0 -1.0 -0.0
  outer loop
    vertex 0.0 0.0 0.0
    vertex 49.5 0.0 7.0
    vertex 0.0 0.0 7.0
  endloop
endfacet
facet normal -1.0 0.0 0.0
  outer loop
    vertex 0.0 7.5 7.0
    vertex 0.0 0.0 0.0
    vertex 0.0 0.0 7.0
  endloop
endfacet
facet normal -1.0 0.0 0.0
  outer loop
    vertex 0.0 0.0 0.0
    vertex 0.0 7.5 7.0
    vertex 0.0 7.5 0.0
  endloop
endfacet
facet normal -0.0 -0.0 1.0
  outer loop
    vertex 0.0 0.0 7.0
    vertex 4.384377707974304 1.946877707974304 7.0
    vertex 0.0 7.5 7.0
  endloop
endfacet
facet normal -0.0 -0.0 1.0
  outer loop
    vertex 4.384377707974304 1.946877707974304 7.0
    vertex 0.0 0.0 7.0
    vertex 4.9125000000000005 1.541635220349682 7.0
  endloop
endfacet
facet normal -0.0 -0.0 1.0
  outer loop
    vertex 4.9125000000000005 1.541635220349682 7.0
    vertex 0.0 0.0 7.0
    vertex 5.527511434988573 1.2868891429628764 7.0
  endloop
endfacet
facet normal -0.0 -0.0 1.0
  outer loop
    vertex 5.527511434988573 1.2868891429628764 7.0
    vertex 0.0 0.0 7.0
    vertex 6.1875 1.2000000000000006 7.0
  endloop
endfacet
facet normal -0.0 -0.0 1.0
  outer loop
    vertex 6.1875 1.2000000000000006 7.0
    vertex 0.0 0.0 7.0
    vertex 49.5 0.0 7.0
  endloop
endfacet
facet normal -0.0 -0.0 1.0
  outer loop
    vertex 0.0 7.5 7.0
    vertex 4.384377707974304 1.946877707974304 7.0
    vertex 3.979135220349682 2.4749999999999996 7.0
  endloop
endfacet
facet normal -0.0 -0.0 1.0
  outer loop
    vertex 0.0 7.5 7.0
    vertex 3.979135220349682 2.4749999999999996 7.0
    vertex 3.7243891429628766 3.0900114349885714 7.0
  endloop
endfacet
facet normal -0.0 -0.0 1.0
  outer loop
    vertex 0.0 7.5 7.0
    vertex 3.7243891429628766 3.0900114349885714 7.0
    vertex 3.6375 3.75 7.0
  endloop
endfacet
facet normal -0.0 -0.0 1.0
  outer loop
    vertex 3.6375 3.75 7.0
    vertex 3.7243891429628766 3.0900114349885714 7.0
    vertex 3.676995749276221 3.4500000000000006 7.0
  endloop
endfacet
facet normal -0.0 -0.0 1.0
  outer loop
    vertex 6.1875 1.2000000000000006 7.0
    vertex 49.5 0.0 7.0
    vertex 6.847488565011428 1.2868891429628768 7.0
  endloop
endfacet
facet normal -0.0 -0.0 1.0
  outer loop
    vertex 6.847488565011428 1.2868891429628768 7.0
    vertex 49.5 0.0 7.0
    vertex 7.4625 1.5416352203496824 7.0
  endloop
endfacet
facet normal -0.0 -0.0 1.0
  outer loop
    vertex 7.4625 1.5416352203496824 7.0
    vertex 49.5 0.0 7.0
    vertex 7.990622292025696 1.9468777079743043 7.0
  endloop
endfacet
facet normal -0.0 -0.0 1.0
  outer loop
    vertex 7.990622292025696 1.9468777079743043 7.0
    vertex 49.5 0.0 7.0
    vertex 8.395864779650317 2.4750000000000005 7.0
  endloop
endfacet
facet normal -0.0 -0.0 1.0
  outer loop
    vertex 8.395864779650317 2.4750000000000005 7.0
    vertex 49.5 0.0 7.0
    vertex 8.650610857037124 3.0900114349885723 7.0
  endloop
endfacet
facet normal -0.0 -0.0 1.0
  outer loop
    vertex 8.650610857037124 3.0900114349885723 7.0
    vertex 49.5 0.0 7.0
    vertex 8.698004250723782 3.4500000000000006 7.0
  endloop
endfacet
facet normal -0.0 -0.0 1.0
  outer loop
    vertex 8.698004250723782 3.4500000000000006 7.0
    vertex 49.5 0.0 7.0
    vertex 8.737499999999999 3.75 7.0
  endloop
endfacet
facet normal -0.0 -0.0 1.0
  outer loop
    vertex 8.737499999999999 3.75 7.0
    vertex 49.5 0.0 7.0
    vertex 42.65251143498857 1.286889142962875 7.0
  endloop
endfacet
facet normal -0.0 -0.0 1.0
  outer loop
    vertex 8.737499999999999 3.75 7.0
    vertex 42.65251143498857 1.286889142962875 7.0
    vertex 42.0375 1.5416352203496806 7.0
  endloop
endfacet
facet normal -0.0 -0.0 1.0
  outer loop
    vertex 8.737499999999999 3.75 7.0
    vertex 42.0375 1.5416352203496806 7.0
    vertex 41.5093777079743 1.9468777079743034 7.0
  endloop
endfacet
facet normal -0.0 -0.0 1.0
  outer loop
    vertex 8.737499999999999 3.75 7.0
    vertex 41.5093777079743 1.9468777079743034 7.0
    vertex 41.104135220349676 2.474999999999999 7.0
  endloop
endfacet
facet normal -0.0 -0.0 1.0
  outer loop
    vertex 8.737499999999999 3.75 7.0
    vertex 41.104135220349676 2.474999999999999 7.0
    vertex 40.84938914296287 3.0900114349885714 7.0
  endloop
endfacet
facet normal -0.0 -0.0 1.0
  outer loop
    vertex 8.737499999999999 3.75 7.0
    vertex 40.84938914296287 3.0900114349885714 7.0
    vertex 40.762499999999996 3.75 7.0
  endloop
endfacet
facet normal -0.0 -0.0 1.0
  outer loop
    vertex 40.762499999999996 3.75 7.0
    vertex 40.84938914296287 3.0900114349885714 7.0
    vertex 40.801995749276216 3.4500000000000006 7.0
  endloop
endfacet
facet normal -0.0 -0.0 1.0
  outer loop
    vertex 42.65251143498857 1.286889142962875 7.0
    vertex 49.5 0.0 7.0
    vertex 43.3125 1.1999999999999993 7.0
  endloop
endfacet
facet normal -0.0 -0.0 1.0
  outer loop
    vertex 43.3125 1.1999999999999993 7.0
    vertex 49.5 0.0 7.0
    vertex 43.972488565011425 1.2868891429628753 7.0
  endloop
endfacet
facet normal -0.0 -0.0 1.0
  outer loop
    vertex 43.972488565011425 1.2868891429628753 7.0
    vertex 49.5 0.0 7.0
    vertex 44.5875 1.5416352203496808 7.0
  endloop
endfacet
facet normal -0.0 -0.0 1.0
  outer loop
    vertex 44.5875 1.5416352203496808 7.0
    vertex 49.5 0.0 7.0
    vertex 45.11562229202569 1.9468777079743034 7.0
  endloop
endfacet
facet normal -0.0 -0.0 1.0
  outer loop
    vertex 45.11562229202569 1.9468777079743034 7.0
    vertex 49.5 0.0 7.0
    vertex 45.52086477965032 2.4749999999999996 7.0
  endloop
endfacet
facet normal -0.0 -0.0 1.0
  outer loop
    vertex 45.52086477965032 2.4749999999999996 7.0
    vertex 49.5 0.0 7.0
    vertex 45.77561085703712 3.0900114349885723 7.0
  endloop
endfacet
facet normal -0.0 -0.0 1.0
  outer loop
    vertex 45.77561085703712 3.0900114349885723 7.0
    vertex 49.5 0.0 7.0
    vertex 45.82300425072378 3.4500000000000006 7.0
  endloop
endfacet
facet normal -0.0 -0.0 1.0
  outer loop
    vertex 45.82300425072378 3.4500000000000006 7.0
    vertex 49.5 0.0 7.0
    vertex 45.8625 3.75 7.0
  endloop
endfacet
facet normal -0.0 -0.0 1.0
  outer loop
    vertex 0.0 7.5 7.0
    vertex 6.187499999999999 6.3 7.0
    vertex 49.5 7.5 7.0
  endloop
endfacet
facet normal -0.0 -0.0 1.0
  outer loop
    vertex 6.187499999999999 6.3 7.0
    vertex 0.0 7.5 7.0
    vertex 5.52751143498857 6.2131108570371225 7.0
  endloop
endfacet
facet normal -0.0 -0.0 1.0
  outer loop
    vertex 5.52751143498857 6.2131108570371225 7.0
    vertex 0.0 7.5 7.0
    vertex 4.9125 5.958364779650318 7.0
  endloop
endfacet
facet normal -0.0 -0.0 1.0
  outer loop
    vertex 4.9125 5.958364779650318 7.0
    vertex 0.0 7.5 7.0
    vertex 4.384377707974303 5.553122292025695 7.0
  endloop
endfacet
facet normal -0.0 -0.0 1.0
  outer loop
    vertex 4.384377707974303 5.553122292025695 7.0
    vertex 0.0 7.5 7.0
    vertex 3.9791352203496815 5.0249999999999995 7.0
  endloop
endfacet
facet normal -0.0 -0.0 1.0
  outer loop
    vertex 3.9791352203496815 5.0249999999999995 7.0
    vertex 0.0 7.5 7.0
    vertex 3.7243891429628757 4.409988565011426 7.0
  endloop
endfacet
facet normal -0.0 -0.0 1.0
  outer loop
    vertex 3.7243891429628757 4.409988565011426 7.0
    vertex 0.0 7.5 7.0
    vertex 3.676995749276218 4.05 7.0
  endloop
endfacet
facet normal -0.0 -0.0 1.0
  outer loop
    vertex 3.676995749276218 4.05 7.0
    vertex 0.0 7.5 7.0
    vertex 3.6375 3.75 7.0
  endloop
endfacet
facet normal -0.0 -0.0 1.0
  outer loop
    vertex 49.5 7.5 7.0
    vertex 6.187499999999999 6.3 7.0
    vertex 6.847488565011426 6.213110857037124 7.0
  endloop
endfacet
facet normal -0.0 -0.0 1.0
  outer loop
    vertex 49.5 7.5 7.0
    vertex 6.847488565011426 6.213110857037124 7.0
    vertex 7.462499999999998 5.95836477965032 7.0
  endloop
endfacet
facet normal -0.0 -0.0 1.0
  outer loop
    vertex 49.5 7.5 7.0
    vertex 7.462499999999998 5.95836477965032 7.0
    vertex 7.990622292025696 5.553122292025696 7.0
  endloop
endfacet
facet normal -0.0 -0.0 1.0
  outer loop
    vertex 49.5 7.5 7.0
    vertex 7.990622292025696 5.553122292025696 7.0
    vertex 8.395864779650317 5.025 7.0
  endloop
endfacet
facet normal -0.0 -0.0 1.0
  outer loop
    vertex 49.5 7.5 7.0
    vertex 8.395864779650317 5.025 7.0
    vertex 8.650610857037123 4.40998856501143 7.0
  endloop
endfacet
facet normal -0.0 -0.0 1.0
  outer loop
    vertex 49.5 7.5 7.0
    vertex 8.650610857037123 4.40998856501143 7.0
    vertex 8.698004250723782 4.05 7.0
  endloop
endfacet
facet normal -0.0 -0.0 1.0
  outer loop
    vertex 49.5 7.5 7.0
    vertex 8.698004250723782 4.05 7.0
    vertex 8.737499999999999 3.75 7.0
  endloop
endfacet
facet normal -0.0 -0.0 1.0
  outer loop
    vertex 49.5 7.5 7.0
    vertex 8.737499999999999 3.75 7.0
    vertex 42.65251143498857 6.213110857037124 7.0
  endloop
endfacet
facet normal -0.0 -0.0 1.0
  outer loop
    vertex 42.65251143498857 6.213110857037124 7.0
    vertex 8.737499999999999 3.75 7.0
    vertex 42.037499999999994 5.958364779650319 7.0
  endloop
endfacet
facet normal -0.0 -0.0 1.0
  outer loop
    vertex 42.037499999999994 5.958364779650319 7.0
    vertex 8.737499999999999 3.75 7.0
    vertex 41.5093777079743 5.553122292025696 7.0
  endloop
endfacet
facet normal -0.0 -0.0 1.0
  outer loop
    vertex 41.5093777079743 5.553122292025696 7.0
    vertex 8.737499999999999 3.75 7.0
    vertex 41.104135220349676 5.025 7.0
  endloop
endfacet
facet normal -0.0 -0.0 1.0
  outer loop
    vertex 41.104135220349676 5.025 7.0
    vertex 8.737499999999999 3.75 7.0
    vertex 40.84938914296287 4.409988565011427 7.0
  endloop
endfacet
facet normal -0.0 -0.0 1.0
  outer loop
    vertex 40.84938914296287 4.409988565011427 7.0
    vertex 8.737499999999999 3.75 7.0
    vertex 40.762499999999996 3.75 7.0
  endloop
endfacet
facet normal -0.0 -0.0 1.0
  outer loop
    vertex 40.84938914296287 4.409988565011427 7.0
    vertex 40.762499999999996 3.75 7.0
    vertex 40.801995749276216 4.050000000000001 7.0
  endloop
endfacet
facet normal -0.0 -0.0 1.0
  outer loop
    vertex 49.5 7.5 7.0
    vertex 42.65251143498857 6.213110857037124 7.0
    vertex 43.3125 6.300000000000001 7.0
  endloop
endfacet
facet normal -0.0 -0.0 1.0
  outer loop
    vertex 49.5 7.5 7.0
    vertex 43.3125 6.300000000000001 7.0
    vertex 43.972488565011425 6.213110857037126 7.0
  endloop
endfacet
facet normal -0.0 -0.0 1.0
  outer loop
    vertex 49.5 7.5 7.0
    vertex 43.972488565011425 6.213110857037126 7.0
    vertex 44.58749999999999 5.958364779650321 7.0
  endloop
endfacet
facet normal -0.0 -0.0 1.0
  outer loop
    vertex 49.5 7.5 7.0
    vertex 44.58749999999999 5.958364779650321 7.0
    vertex 45.11562229202569 5.553122292025698 7.0
  endloop
endfacet
facet normal -0.0 -0.0 1.0
  outer loop
    vertex 49.5 7.5 7.0
    vertex 45.11562229202569 5.553122292025698 7.0
    vertex 45.52086477965032 5.025000000000002 7.0
  endloop
endfacet
facet normal -0.0 -0.0 1.0
  outer loop
    vertex 49.5 7.5 7.0
    vertex 45.52086477965032 5.025000000000002 7.0
    vertex 45.77561085703712 4.40998856501143 7.0
  endloop
endfacet
facet normal -0.0 -0.0 1.0
  outer loop
    vertex 49.5 7.5 7.0
    vertex 45.77561085703712 4.40998856501143 7.0
    vertex 45.82300425072378 4.050000000000001 7.0
  endloop
endfacet
facet normal -0.0 -0.0 1.0
  outer loop
    vertex 49.5 7.5 7.0
    vertex 45.82300425072378 4.050000000000001 7.0
    vertex 45.8625 3.75 7.0
  endloop
endfacet
facet normal -0.0 -0.0 1.0
  outer loop
    vertex 49.5 7.5 7.0
    vertex 45.8625 3.75 7.0
    vertex 49.5 0.0 7.0
  endloop
endfacet
facet normal 0.9914448613738107 -0.1305261922200489 -0.0
  outer loop
    vertex 3.676995749276218 4.05 2.8199664825478975e-15
    vertex 3.6375 3.75 7.0
    vertex 3.6375 3.75 2.8199664825478975e-15
  endloop
endfacet
facet normal 0.9914448613738107 -0.1305261922200489 -0.0
  outer loop
    vertex 3.6375 3.75 7.0
    vertex 3.676995749276218 4.05 2.8199664825478975e-15
    vertex 3.676995749276218 4.05 7.0
  endloop
endfacet
facet normal 0.9914448613738107 -0.1305261922200489 -0.0
  outer loop
    vertex 3.676995749276218 4.05 7.0
    vertex 3.676995749276218 4.05 2.8199664825478975e-15
    vertex 3.676995749276218 4.05 5.0
  endloop
endfacet
facet normal 0.9914448613738097 0.1305261922200581 0.0
  outer loop
    vertex 3.6375 3.75 2.8199664825478975e-15
    vertex 3.676995749276221 3.4500000000000006 5.0
    vertex 3.676995749276221 3.4500000000000006 2.8199664825478975e-15
  endloop
endfacet
facet normal 0.9914448613738097 0.1305261922200581 0.0
  outer loop
    vertex 3.676995749276221 3.4500000000000006 5.0
    vertex 3.6375 3.75 2.8199664825478975e-15
    vertex 3.676995749276221 3.4500000000000006 7.0
  endloop
endfacet
facet normal 0.9914448613738097 0.1305261922200581 0.0
  outer loop
    vertex 3.676995749276221 3.4500000000000006 7.0
    vertex 3.6375 3.75 2.8199664825478975e-15
    vertex 3.6375 3.75 7.0
  endloop
endfacet
facet normal -0.0 1.0 -0.0
  outer loop
    vertex 3.676995749276221 3.4500000000000006 5.0
    vertex 8.698004250723782 3.4500000000000006 2.8199664825478975e-15
    vertex 3.676995749276221 3.4500000000000006 2.8199664825478975e-15
  endloop
endfacet
facet normal -0.0 1.0 -0.0
  outer loop
    vertex 8.698004250723782 3.4500000000000006 2.8199664825478975e-15
    vertex 3.676995749276221 3.4500000000000006 5.0
    vertex 8.698004250723782 3.4500000000000006 5.0
  endloop
endfacet
facet normal -0.9914448613738114 0.13052619222004433 -0.0
  outer loop
    vertex 8.737499999999999 3.75 7.0
    vertex 8.698004250723782 3.4500000000000006 5.0
    vertex 8.698004250723782 3.4500000000000006 7.0
  endloop
endfacet
facet normal -0.9914448613738114 0.13052619222004433 -0.0
  outer loop
    vertex 8.698004250723782 3.4500000000000006 5.0
    vertex 8.737499999999999 3.75 7.0
    vertex 8.698004250723782 3.4500000000000006 2.8199664825478975e-15
  endloop
endfacet
facet normal -0.9914448613738114 0.13052619222004433 -0.0
  outer loop
    vertex 8.698004250723782 3.4500000000000006 2.8199664825478975e-15
    vertex 8.737499999999999 3.75 7.0
    vertex 8.737499999999999 3.75 2.8199664825478975e-15
  endloop
endfacet
facet normal -0.9914448613738107 -0.1305261922200489 -0.0
  outer loop
    vertex 8.698004250723782 4.05 7.0
    vertex 8.737499999999999 3.75 2.8199664825478975e-15
    vertex 8.737499999999999 3.75 7.0
  endloop
endfacet
facet normal -0.9914448613738107 -0.1305261922200489 -0.0
  outer loop
    vertex 8.737499999999999 3.75 2.8199664825478975e-15
    vertex 8.698004250723782 4.05 7.0
    vertex 8.698004250723782 4.05 2.8199664825478975e-15
  endloop
endfacet
facet normal -0.9914448613738107 -0.1305261922200489 -0.0
  outer loop
    vertex 8.698004250723782 4.05 2.8199664825478975e-15
    vertex 8.698004250723782 4.05 7.0
    vertex 8.698004250723782 4.05 5.0
  endloop
endfacet
facet normal -0.0 -1.0 -0.0
  outer loop
    vertex 8.698004250723782 4.05 5.0
    vertex 3.676995749276218 4.05 2.8199664825478975e-15
    vertex 8.698004250723782 4.05 2.8199664825478975e-15
  endloop
endfacet
facet normal -0.0 -1.0 -0.0
  outer loop
    vertex 3.676995749276218 4.05 2.8199664825478975e-15
    vertex 8.698004250723782 4.05 5.0
    vertex 3.676995749276218 4.05 5.0
  endloop
endfacet
facet normal 0.9914448613738097 -0.1305261922200578 -0.0
  outer loop
    vertex 40.801995749276216 4.050000000000001 2.8199664825478975e-15
    vertex 40.762499999999996 3.75 7.0
    vertex 40.762499999999996 3.75 2.8199664825478975e-15
  endloop
endfacet
facet normal 0.9914448613738097 -0.1305261922200578 -0.0
  outer loop
    vertex 40.762499999999996 3.75 7.0
    vertex 40.801995749276216 4.050000000000001 2.8199664825478975e-15
    vertex 40.801995749276216 4.050000000000001 7.0
  endloop
endfacet
facet normal 0.9914448613738097 -0.1305261922200578 -0.0
  outer loop
    vertex 40.801995749276216 4.050000000000001 7.0
    vertex 40.801995749276216 4.050000000000001 2.8199664825478975e-15
    vertex 40.801995749276216 4.050000000000001 5.000000000000002
  endloop
endfacet
facet normal 0.9914448613738097 0.1305261922200581 0.0
  outer loop
    vertex 40.762499999999996 3.75 2.8199664825478975e-15
    vertex 40.801995749276216 3.4500000000000006 4.999999999999998
    vertex 40.801995749276216 3.4500000000000006 2.8199664825478975e-15
  endloop
endfacet
facet normal 0.9914448613738097 0.1305261922200581 0.0
  outer loop
    vertex 40.801995749276216 3.4500000000000006 4.999999999999998
    vertex 40.762499999999996 3.75 2.8199664825478975e-15
    vertex 40.801995749276216 3.4500000000000006 7.0
  endloop
endfacet
facet normal 0.9914448613738097 0.1305261922200581 0.0
  outer loop
    vertex 40.801995749276216 3.4500000000000006 7.0
    vertex 40.762499999999996 3.75 2.8199664825478975e-15
    vertex 40.762499999999996 3.75 7.0
  endloop
endfacet
facet normal -0.0 1.0 -0.0
  outer loop
    vertex 40.801995749276216 3.4500000000000006 4.999999999999998
    vertex 45.82300425072378 3.4500000000000006 2.8199664825478975e-15
    vertex 40.801995749276216 3.4500000000000006 2.8199664825478975e-15
  endloop
endfacet
facet normal -0.0 1.0 -0.0
  outer loop
    vertex 45.82300425072378 3.4500000000000006 2.8199664825478975e-15
    vertex 40.801995749276216 3.4500000000000006 4.999999999999998
    vertex 45.82300425072378 3.4500000000000006 4.999999999999998
  endloop
endfacet
facet normal -0.9914448613738097 0.1305261922200581 -0.0
  outer loop
    vertex 45.8625 3.75 7.0
    vertex 45.82300425072378 3.4500000000000006 4.999999999999998
    vertex 45.82300425072378 3.4500000000000006 7.0
  endloop
endfacet
facet normal -0.9914448613738097 0.1305261922200581 -0.0
  outer loop
    vertex 45.82300425072378 3.4500000000000006 4.999999999999998
    vertex 45.8625 3.75 7.0
    vertex 45.82300425072378 3.4500000000000006 2.8199664825478975e-15
  endloop
endfacet
facet normal -0.9914448613738097 0.1305261922200581 -0.0
  outer loop
    vertex 45.82300425072378 3.4500000000000006 2.8199664825478975e-15
    vertex 45.8625 3.75 7.0
    vertex 45.8625 3.75 2.8199664825478975e-15
  endloop
endfacet
facet normal -0.9914448613738097 -0.1305261922200578 -0.0
  outer loop
    vertex 45.82300425072378 4.050000000000001 7.0
    vertex 45.8625 3.75 2.8199664825478975e-15
    vertex 45.8625 3.75 7.0
  endloop
endfacet
facet normal -0.9914448613738097 -0.1305261922200578 -0.0
  outer loop
    vertex 45.8625 3.75 2.8199664825478975e-15
    vertex 45.82300425072378 4.050000000000001 7.0
    vertex 45.82300425072378 4.050000000000001 2.8199664825478975e-15
  endloop
endfacet
facet normal -0.9914448613738097 -0.1305261922200578 -0.0
  outer loop
    vertex 45.82300425072378 4.050000000000001 2.8199664825478975e-15
    vertex 45.82300425072378 4.050000000000001 7.0
    vertex 45.82300425072378 4.050000000000001 5.000000000000002
  endloop
endfacet
facet normal -0.0 -1.0 -0.0
  outer loop
    vertex 45.82300425072378 4.050000000000001 5.000000000000002
    vertex 40.801995749276216 4.050000000000001 2.8199664825478975e-15
    vertex 45.82300425072378 4.050000000000001 2.8199664825478975e-15
  endloop
endfacet
facet normal -0.0 -1.0 -0.0
  outer loop
    vertex 40.801995749276216 4.050000000000001 2.8199664825478975e-15
    vertex 45.82300425072378 4.050000000000001 5.000000000000002
    vertex 40.801995749276216 4.050000000000001 5.000000000000002
  endloop
endfacet
facet normal 0.0 0.0 1.0
  outer loop
    vertex 8.698004250723782 4.05 5.0
    vertex 3.7243891429628757 4.409988565011426 5.0
    vertex 3.676995749276218 4.05 5.0
  endloop
endfacet
facet normal 0.0 0.0 1.0
  outer loop
    vertex 3.7243891429628757 4.409988565011426 5.0
    vertex 8.698004250723782 4.05 5.0
    vertex 3.9791352203496815 5.0249999999999995 5.0
  endloop
endfacet
facet normal 0.0 0.0 1.0
  outer loop
    vertex 3.9791352203496815 5.0249999999999995 5.0
    vertex 8.698004250723782 4.05 5.0
    vertex 4.384377707974303 5.553122292025695 5.0
  endloop
endfacet
facet normal 0.0 0.0 1.0
  outer loop
    vertex 4.384377707974303 5.553122292025695 5.0
    vertex 8.698004250723782 4.05 5.0
    vertex 4.9125 5.958364779650318 5.0
  endloop
endfacet
facet normal 0.0 0.0 1.0
  outer loop
    vertex 4.9125 5.958364779650318 5.0
    vertex 8.698004250723782 4.05 5.0
    vertex 5.52751143498857 6.2131108570371225 5.0
  endloop
endfacet
facet normal 0.0 0.0 1.0
  outer loop
    vertex 5.52751143498857 6.2131108570371225 5.0
    vertex 8.698004250723782 4.05 5.0
    vertex 6.187499999999999 6.3 5.0
  endloop
endfacet
facet normal 0.0 0.0 1.0
  outer loop
    vertex 6.187499999999999 6.3 5.0
    vertex 8.698004250723782 4.05 5.0
    vertex 6.847488565011426 6.213110857037124 5.0
  endloop
endfacet
facet normal 0.0 0.0 1.0
  outer loop
    vertex 6.847488565011426 6.213110857037124 5.0
    vertex 8.698004250723782 4.05 5.0
    vertex 7.462499999999998 5.95836477965032 5.0
  endloop
endfacet
facet normal 0.0 0.0 1.0
  outer loop
    vertex 7.462499999999998 5.95836477965032 5.0
    vertex 8.698004250723782 4.05 5.0
    vertex 7.990622292025696 5.553122292025696 5.0
  endloop
endfacet
facet normal 0.0 0.0 1.0
  outer loop
    vertex 7.990622292025696 5.553122292025696 5.0
    vertex 8.698004250723782 4.05 5.0
    vertex 8.395864779650317 5.025 5.0
  endloop
endfacet
facet normal 0.0 0.0 1.0
  outer loop
    vertex 8.395864779650317 5.025 5.0
    vertex 8.698004250723782 4.05 5.0
    vertex 8.650610857037123 4.40998856501143 5.0
  endloop
endfacet
facet normal 0.9914448613738104 -0.13052619222005307 -0.0
  outer loop
    vertex 3.7243891429628757 4.409988565011426 5.0
    vertex 3.676995749276218 4.05 7.0
    vertex 3.676995749276218 4.05 5.0
  endloop
endfacet
facet normal 0.9914448613738104 -0.13052619222005307 -0.0
  outer loop
    vertex 3.676995749276218 4.05 7.0
    vertex 3.7243891429628757 4.409988565011426 5.0
    vertex 3.7243891429628757 4.409988565011426 7.0
  endloop
endfacet
facet normal -0.99144486137381 -0.13052619222005563 -0.0
  outer loop
    vertex 8.650610857037123 4.40998856501143 7.0
    vertex 8.698004250723782 4.05 5.0
    vertex 8.698004250723782 4.05 7.0
  endloop
endfacet
facet normal -0.99144486137381 -0.13052619222005563 -0.0
  outer loop
    vertex 8.698004250723782 4.05 5.0
    vertex 8.650610857037123 4.40998856501143 7.0
    vertex 8.650610857037123 4.40998856501143 5.0
  endloop
endfacet
facet normal -0.923879532511287 -0.3826834323650898 -0.0
  outer loop
    vertex 8.395864779650317 5.025 7.0
    vertex 8.650610857037123 4.40998856501143 5.0
    vertex 8.650610857037123 4.40998856501143 7.0
  endloop
endfacet
facet normal -0.923879532511287 -0.3826834323650898 -0.0
  outer loop
    vertex 8.650610857037123 4.40998856501143 5.0
    vertex 8.395864779650317 5.025 7.0
    vertex 8.395864779650317 5.025 5.0
  endloop
endfacet
facet normal -0.7933533402912355 -0.6087614290087204 -0.0
  outer loop
    vertex 7.990622292025696 5.553122292025696 7.0
    vertex 8.395864779650317 5.025 5.0
    vertex 8.395864779650317 5.025 7.0
  endloop
endfacet
facet normal -0.7933533402912355 -0.6087614290087204 -0.0
  outer loop
    vertex 8.395864779650317 5.025 5.0
    vertex 7.990622292025696 5.553122292025696 7.0
    vertex 7.990622292025696 5.553122292025696 5.0
  endloop
endfacet
facet normal -0.6087614290087198 -0.7933533402912359 -0.0
  outer loop
    vertex 7.990622292025696 5.553122292025696 7.0
    vertex 7.462499999999998 5.95836477965032 5.0
    vertex 7.990622292025696 5.553122292025696 5.0
  endloop
endfacet
facet normal -0.6087614290087198 -0.7933533402912359 -0.0
  outer loop
    vertex 7.462499999999998 5.95836477965032 5.0
    vertex 7.990622292025696 5.553122292025696 7.0
    vertex 7.462499999999998 5.95836477965032 7.0
  endloop
endfacet
facet normal -0.38268343236508934 -0.923879532511287 -0.0
  outer loop
    vertex 7.462499999999998 5.95836477965032 7.0
    vertex 6.847488565011426 6.213110857037124 5.0
    vertex 7.462499999999998 5.95836477965032 5.0
  endloop
endfacet
facet normal -0.38268343236508934 -0.923879532511287 -0.0
  outer loop
    vertex 6.847488565011426 6.213110857037124 5.0
    vertex 7.462499999999998 5.95836477965032 7.0
    vertex 6.847488565011426 6.213110857037124 7.0
  endloop
endfacet
facet normal -0.13052619222005105 -0.9914448613738106 -0.0
  outer loop
    vertex 6.847488565011426 6.213110857037124 7.0
    vertex 6.187499999999999 6.3 5.0
    vertex 6.847488565011426 6.213110857037124 5.0
  endloop
endfacet
facet normal -0.13052619222005105 -0.9914448613738106 -0.0
  outer loop
    vertex 6.187499999999999 6.3 5.0
    vertex 6.847488565011426 6.213110857037124 7.0
    vertex 6.187499999999999 6.3 7.0
  endloop
endfacet
facet normal 0.13052619222005285 -0.9914448613738103 -0.0
  outer loop
    vertex 6.187499999999999 6.3 7.0
    vertex 5.52751143498857 6.2131108570371225 5.0
    vertex 6.187499999999999 6.3 5.0
  endloop
endfacet
facet normal 0.13052619222005285 -0.9914448613738103 -0.0
  outer loop
    vertex 5.52751143498857 6.2131108570371225 5.0
    vertex 6.187499999999999 6.3 7.0
    vertex 5.52751143498857 6.2131108570371225 7.0
  endloop
endfacet
facet normal 0.38268343236508934 -0.923879532511287 -0.0
  outer loop
    vertex 5.52751143498857 6.2131108570371225 7.0
    vertex 4.9125 5.958364779650318 5.0
    vertex 5.52751143498857 6.2131108570371225 5.0
  endloop
endfacet
facet normal 0.38268343236508934 -0.923879532511287 -0.0
  outer loop
    vertex 4.9125 5.958364779650318 5.0
    vertex 5.52751143498857 6.2131108570371225 7.0
    vertex 4.9125 5.958364779650318 7.0
  endloop
endfacet
facet normal 0.6087614290087213 -0.7933533402912348 -0.0
  outer loop
    vertex 4.9125 5.958364779650318 7.0
    vertex 4.384377707974303 5.553122292025695 5.0
    vertex 4.9125 5.958364779650318 5.0
  endloop
endfacet
facet normal 0.6087614290087213 -0.7933533402912348 -0.0
  outer loop
    vertex 4.384377707974303 5.553122292025695 5.0
    vertex 4.9125 5.958364779650318 7.0
    vertex 4.384377707974303 5.553122292025695 7.0
  endloop
endfacet
facet normal 0.7933533402912355 -0.6087614290087204 -0.0
  outer loop
    vertex 4.384377707974303 5.553122292025695 5.0
    vertex 3.9791352203496815 5.0249999999999995 7.0
    vertex 3.9791352203496815 5.0249999999999995 5.0
  endloop
endfacet
facet normal 0.7933533402912355 -0.6087614290087204 -0.0
  outer loop
    vertex 3.9791352203496815 5.0249999999999995 7.0
    vertex 4.384377707974303 5.553122292025695 5.0
    vertex 4.384377707974303 5.553122292025695 7.0
  endloop
endfacet
facet normal 0.9238795325112868 -0.38268343236508945 -0.0
  outer loop
    vertex 3.9791352203496815 5.0249999999999995 5.0
    vertex 3.7243891429628757 4.409988565011426 7.0
    vertex 3.7243891429628757 4.409988565011426 5.0
  endloop
endfacet
facet normal 0.9238795325112868 -0.38268343236508945 -0.0
  outer loop
    vertex 3.7243891429628757 4.409988565011426 7.0
    vertex 3.9791352203496815 5.0249999999999995 5.0
    vertex 3.9791352203496815 5.0249999999999995 7.0
  endloop
endfacet
facet normal 0.0 0.0 1.0
  outer loop
    vertex 3.7243891429628766 3.0900114349885714 5.0
    vertex 8.698004250723782 3.4500000000000006 5.0
    vertex 3.676995749276221 3.4500000000000006 5.0
  endloop
endfacet
facet normal 0.0 0.0 1.0
  outer loop
    vertex 8.698004250723782 3.4500000000000006 5.0
    vertex 3.7243891429628766 3.0900114349885714 5.0
    vertex 3.979135220349682 2.4749999999999996 5.0
  endloop
endfacet
facet normal 0.0 0.0 1.0
  outer loop
    vertex 8.698004250723782 3.4500000000000006 5.0
    vertex 3.979135220349682 2.4749999999999996 5.0
    vertex 4.384377707974304 1.946877707974304 5.0
  endloop
endfacet
facet normal 0.0 0.0 1.0
  outer loop
    vertex 8.698004250723782 3.4500000000000006 5.0
    vertex 4.384377707974304 1.946877707974304 5.0
    vertex 4.9125000000000005 1.541635220349682 5.0
  endloop
endfacet
facet normal 0.0 0.0 1.0
  outer loop
    vertex 8.698004250723782 3.4500000000000006 5.0
    vertex 4.9125000000000005 1.541635220349682 5.0
    vertex 5.527511434988573 1.2868891429628764 5.0
  endloop
endfacet
facet normal 0.0 0.0 1.0
  outer loop
    vertex 8.698004250723782 3.4500000000000006 5.0
    vertex 5.527511434988573 1.2868891429628764 5.0
    vertex 6.1875 1.2000000000000006 5.0
  endloop
endfacet
facet normal 0.0 0.0 1.0
  outer loop
    vertex 8.698004250723782 3.4500000000000006 5.0
    vertex 6.1875 1.2000000000000006 5.0
    vertex 6.847488565011428 1.2868891429628768 5.0
  endloop
endfacet
facet normal 0.0 0.0 1.0
  outer loop
    vertex 8.698004250723782 3.4500000000000006 5.0
    vertex 6.847488565011428 1.2868891429628768 5.0
    vertex 7.4625 1.5416352203496824 5.0
  endloop
endfacet
facet normal 0.0 0.0 1.0
  outer loop
    vertex 8.698004250723782 3.4500000000000006 5.0
    vertex 7.4625 1.5416352203496824 5.0
    vertex 7.990622292025696 1.9468777079743043 5.0
  endloop
endfacet
facet normal 0.0 0.0 1.0
  outer loop
    vertex 8.698004250723782 3.4500000000000006 5.0
    vertex 7.990622292025696 1.9468777079743043 5.0
    vertex 8.395864779650317 2.4750000000000005 5.0
  endloop
endfacet
facet normal 0.0 0.0 1.0
  outer loop
    vertex 8.698004250723782 3.4500000000000006 5.0
    vertex 8.395864779650317 2.4750000000000005 5.0
    vertex 8.650610857037124 3.0900114349885723 5.0
  endloop
endfacet
facet normal -0.9914448613738098 0.13052619222005638 -0.0
  outer loop
    vertex 8.698004250723782 3.4500000000000006 7.0
    vertex 8.650610857037124 3.0900114349885723 5.0
    vertex 8.650610857037124 3.0900114349885723 7.0
  endloop
endfacet
facet normal -0.9914448613738098 0.13052619222005638 -0.0
  outer loop
    vertex 8.650610857037124 3.0900114349885723 5.0
    vertex 8.698004250723782 3.4500000000000006 7.0
    vertex 8.698004250723782 3.4500000000000006 5.0
  endloop
endfacet
facet normal 0.9914448613738112 0.13052619222004658 0.0
  outer loop
    vertex 3.676995749276221 3.4500000000000006 5.0
    vertex 3.7243891429628766 3.0900114349885714 7.0
    vertex 3.7243891429628766 3.0900114349885714 5.0
  endloop
endfacet
facet normal 0.9914448613738112 0.13052619222004658 0.0
  outer loop
    vertex 3.7243891429628766 3.0900114349885714 7.0
    vertex 3.676995749276221 3.4500000000000006 5.0
    vertex 3.676995749276221 3.4500000000000006 7.0
  endloop
endfacet
facet normal 0.9238795325112868 0.38268343236508995 0.0
  outer loop
    vertex 3.7243891429628766 3.0900114349885714 5.0
    vertex 3.979135220349682 2.4749999999999996 7.0
    vertex 3.979135220349682 2.4749999999999996 5.0
  endloop
endfacet
facet normal 0.9238795325112868 0.38268343236508995 0.0
  outer loop
    vertex 3.979135220349682 2.4749999999999996 7.0
    vertex 3.7243891429628766 3.0900114349885714 5.0
    vertex 3.7243891429628766 3.0900114349885714 7.0
  endloop
endfacet
facet normal 0.7933533402912355 0.6087614290087204 0.0
  outer loop
    vertex 3.979135220349682 2.4749999999999996 5.0
    vertex 4.384377707974304 1.946877707974304 7.0
    vertex 4.384377707974304 1.946877707974304 5.0
  endloop
endfacet
facet normal 0.7933533402912355 0.6087614290087204 0.0
  outer loop
    vertex 4.384377707974304 1.946877707974304 7.0
    vertex 3.979135220349682 2.4749999999999996 5.0
    vertex 3.979135220349682 2.4749999999999996 7.0
  endloop
endfacet
facet normal 0.6087614290087198 0.7933533402912358 0.0
  outer loop
    vertex 4.384377707974304 1.946877707974304 7.0
    vertex 4.9125000000000005 1.541635220349682 5.0
    vertex 4.384377707974304 1.946877707974304 5.0
  endloop
endfacet
facet normal 0.6087614290087198 0.7933533402912358 0.0
  outer loop
    vertex 4.9125000000000005 1.541635220349682 5.0
    vertex 4.384377707974304 1.946877707974304 7.0
    vertex 4.9125000000000005 1.541635220349682 7.0
  endloop
endfacet
facet normal 0.38268343236508995 0.9238795325112868 0.0
  outer loop
    vertex 4.9125000000000005 1.541635220349682 7.0
    vertex 5.527511434988573 1.2868891429628764 5.0
    vertex 4.9125000000000005 1.541635220349682 5.0
  endloop
endfacet
facet normal 0.38268343236508995 0.9238795325112868 0.0
  outer loop
    vertex 5.527511434988573 1.2868891429628764 5.0
    vertex 4.9125000000000005 1.541635220349682 7.0
    vertex 5.527511434988573 1.2868891429628764 7.0
  endloop
endfacet
facet normal 0.13052619222005155 0.9914448613738104 0.0
  outer loop
    vertex 5.527511434988573 1.2868891429628764 7.0
    vertex 6.1875 1.2000000000000006 5.0
    vertex 5.527511434988573 1.2868891429628764 5.0
  endloop
endfacet
facet normal 0.13052619222005155 0.9914448613738104 0.0
  outer loop
    vertex 6.1875 1.2000000000000006 5.0
    vertex 5.527511434988573 1.2868891429628764 7.0
    vertex 6.1875 1.2000000000000006 7.0
  endloop
endfacet
facet normal -0.13052619222005193 0.9914448613738104 -0.0
  outer loop
    vertex 6.1875 1.2000000000000006 7.0
    vertex 6.847488565011428 1.2868891429628768 5.0
    vertex 6.1875 1.2000000000000006 5.0
  endloop
endfacet
facet normal -0.13052619222005193 0.9914448613738104 -0.0
  outer loop
    vertex 6.847488565011428 1.2868891429628768 5.0
    vertex 6.1875 1.2000000000000006 7.0
    vertex 6.847488565011428 1.2868891429628768 7.0
  endloop
endfacet
facet normal -0.38268343236508945 0.9238795325112868 -0.0
  outer loop
    vertex 6.847488565011428 1.2868891429628768 7.0
    vertex 7.4625 1.5416352203496824 5.0
    vertex 6.847488565011428 1.2868891429628768 5.0
  endloop
endfacet
facet normal -0.38268343236508945 0.9238795325112868 -0.0
  outer loop
    vertex 7.4625 1.5416352203496824 5.0
    vertex 6.847488565011428 1.2868891429628768 7.0
    vertex 7.4625 1.5416352203496824 7.0
  endloop
endfacet
facet normal -0.6087614290087208 0.793353340291235 -0.0
  outer loop
    vertex 7.4625 1.5416352203496824 7.0
    vertex 7.990622292025696 1.9468777079743043 5.0
    vertex 7.4625 1.5416352203496824 5.0
  endloop
endfacet
facet normal -0.6087614290087208 0.793353340291235 -0.0
  outer loop
    vertex 7.990622292025696 1.9468777079743043 5.0
    vertex 7.4625 1.5416352203496824 7.0
    vertex 7.990622292025696 1.9468777079743043 7.0
  endloop
endfacet
facet normal -0.7933533402912357 0.6087614290087202 -0.0
  outer loop
    vertex 8.395864779650317 2.4750000000000005 7.0
    vertex 7.990622292025696 1.9468777079743043 5.0
    vertex 7.990622292025696 1.9468777079743043 7.0
  endloop
endfacet
facet normal -0.7933533402912357 0.6087614290087202 -0.0
  outer loop
    vertex 7.990622292025696 1.9468777079743043 5.0
    vertex 8.395864779650317 2.4750000000000005 7.0
    vertex 8.395864779650317 2.4750000000000005 5.0
  endloop
endfacet
facet normal -0.9238795325112865 0.38268343236509084 -0.0
  outer loop
    vertex 8.650610857037124 3.0900114349885723 7.0
    vertex 8.395864779650317 2.4750000000000005 5.0
    vertex 8.395864779650317 2.4750000000000005 7.0
  endloop
endfacet
facet normal -0.9238795325112865 0.38268343236509084 -0.0
  outer loop
    vertex 8.395864779650317 2.4750000000000005 5.0
    vertex 8.650610857037124 3.0900114349885723 7.0
    vertex 8.650610857037124 3.0900114349885723 5.0
  endloop
endfacet
facet normal 0.0 0.0 1.0
  outer loop
    vertex 40.84938914296287 3.0900114349885714 4.999999999999998
    vertex 45.82300425072378 3.4500000000000006 4.999999999999998
    vertex 40.801995749276216 3.4500000000000006 4.999999999999998
  endloop
endfacet
facet normal 0.0 0.0 1.0
  outer loop
    vertex 45.82300425072378 3.4500000000000006 4.999999999999998
    vertex 40.84938914296287 3.0900114349885714 4.999999999999998
    vertex 41.104135220349676 2.474999999999999 4.999999999999998
  endloop
endfacet
facet normal 0.0 0.0 1.0
  outer loop
    vertex 45.82300425072378 3.4500000000000006 4.999999999999998
    vertex 41.104135220349676 2.474999999999999 4.999999999999998
    vertex 41.5093777079743 1.9468777079743034 4.999999999999998
  endloop
endfacet
facet normal 0.0 0.0 1.0
  outer loop
    vertex 45.82300425072378 3.4500000000000006 4.999999999999998
    vertex 41.5093777079743 1.9468777079743034 4.999999999999998
    vertex 42.0375 1.5416352203496806 4.999999999999998
  endloop
endfacet
facet normal 0.0 0.0 1.0
  outer loop
    vertex 45.82300425072378 3.4500000000000006 4.999999999999998
    vertex 42.0375 1.5416352203496806 4.999999999999998
    vertex 42.65251143498857 1.286889142962875 4.999999999999998
  endloop
endfacet
facet normal 0.0 0.0 1.0
  outer loop
    vertex 45.82300425072378 3.4500000000000006 4.999999999999998
    vertex 42.65251143498857 1.286889142962875 4.999999999999998
    vertex 43.3125 1.1999999999999993 4.999999999999998
  endloop
endfacet
facet normal 0.0 0.0 1.0
  outer loop
    vertex 45.82300425072378 3.4500000000000006 4.999999999999998
    vertex 43.3125 1.1999999999999993 4.999999999999998
    vertex 43.972488565011425 1.2868891429628753 4.999999999999998
  endloop
endfacet
facet normal 0.0 0.0 1.0
  outer loop
    vertex 45.82300425072378 3.4500000000000006 4.999999999999998
    vertex 43.972488565011425 1.2868891429628753 4.999999999999998
    vertex 44.5875 1.5416352203496808 4.999999999999998
  endloop
endfacet
facet normal 0.0 0.0 1.0
  outer loop
    vertex 45.82300425072378 3.4500000000000006 4.999999999999998
    vertex 44.5875 1.5416352203496808 4.999999999999998
    vertex 45.11562229202569 1.9468777079743034 4.999999999999998
  endloop
endfacet
facet normal 0.0 0.0 1.0
  outer loop
    vertex 45.82300425072378 3.4500000000000006 4.999999999999998
    vertex 45.11562229202569 1.9468777079743034 4.999999999999998
    vertex 45.52086477965032 2.4749999999999996 4.999999999999998
  endloop
endfacet
facet normal 0.0 0.0 1.0
  outer loop
    vertex 45.82300425072378 3.4500000000000006 4.999999999999998
    vertex 45.52086477965032 2.4749999999999996 4.999999999999998
    vertex 45.77561085703712 3.0900114349885723 4.999999999999998
  endloop
endfacet
facet normal -0.9914448613738108 0.13052619222004874 -0.0
  outer loop
    vertex 45.82300425072378 3.4500000000000006 7.0
    vertex 45.77561085703712 3.0900114349885723 4.999999999999998
    vertex 45.77561085703712 3.0900114349885723 7.0
  endloop
endfacet
facet normal -0.9914448613738108 0.13052619222004874 -0.0
  outer loop
    vertex 45.77561085703712 3.0900114349885723 4.999999999999998
    vertex 45.82300425072378 3.4500000000000006 7.0
    vertex 45.82300425072378 3.4500000000000006 4.999999999999998
  endloop
endfacet
facet normal 0.9914448613738108 0.1305261922200485 0.0
  outer loop
    vertex 40.801995749276216 3.4500000000000006 4.999999999999998
    vertex 40.84938914296287 3.0900114349885714 7.0
    vertex 40.84938914296287 3.0900114349885714 4.999999999999998
  endloop
endfacet
facet normal 0.9914448613738108 0.1305261922200485 0.0
  outer loop
    vertex 40.84938914296287 3.0900114349885714 7.0
    vertex 40.801995749276216 3.4500000000000006 4.999999999999998
    vertex 40.801995749276216 3.4500000000000006 7.0
  endloop
endfacet
facet normal 0.9238795325112865 0.3826834323650904 0.0
  outer loop
    vertex 40.84938914296287 3.0900114349885714 4.999999999999998
    vertex 41.104135220349676 2.474999999999999 7.0
    vertex 41.104135220349676 2.474999999999999 4.999999999999998
  endloop
endfacet
facet normal 0.9238795325112865 0.3826834323650904 0.0
  outer loop
    vertex 41.104135220349676 2.474999999999999 7.0
    vertex 40.84938914296287 3.0900114349885714 4.999999999999998
    vertex 40.84938914296287 3.0900114349885714 7.0
  endloop
endfacet
facet normal 0.7933533402912355 0.6087614290087204 0.0
  outer loop
    vertex 41.104135220349676 2.474999999999999 4.999999999999998
    vertex 41.5093777079743 1.9468777079743034 7.0
    vertex 41.5093777079743 1.9468777079743034 4.999999999999998
  endloop
endfacet
facet normal 0.7933533402912355 0.6087614290087204 0.0
  outer loop
    vertex 41.5093777079743 1.9468777079743034 7.0
    vertex 41.104135220349676 2.474999999999999 4.999999999999998
    vertex 41.104135220349676 2.474999999999999 7.0
  endloop
endfacet
facet normal 0.6087614290087194 0.7933533402912362 0.0
  outer loop
    vertex 41.5093777079743 1.9468777079743034 7.0
    vertex 42.0375 1.5416352203496806 4.999999999999998
    vertex 41.5093777079743 1.9468777079743034 4.999999999999998
  endloop
endfacet
facet normal 0.6087614290087194 0.7933533402912362 0.0
  outer loop
    vertex 42.0375 1.5416352203496806 4.999999999999998
    vertex 41.5093777079743 1.9468777079743034 7.0
    vertex 42.0375 1.5416352203496806 7.0
  endloop
endfacet
facet normal 0.38268343236509106 0.9238795325112864 0.0
  outer loop
    vertex 42.0375 1.5416352203496806 7.0
    vertex 42.65251143498857 1.286889142962875 4.999999999999998
    vertex 42.0375 1.5416352203496806 4.999999999999998
  endloop
endfacet
facet normal 0.38268343236509106 0.9238795325112864 0.0
  outer loop
    vertex 42.65251143498857 1.286889142962875 4.999999999999998
    vertex 42.0375 1.5416352203496806 7.0
    vertex 42.65251143498857 1.286889142962875 7.0
  endloop
endfacet
facet normal 0.13052619222005143 0.9914448613738106 0.0
  outer loop
    vertex 42.65251143498857 1.286889142962875 7.0
    vertex 43.3125 1.1999999999999993 4.999999999999998
    vertex 42.65251143498857 1.286889142962875 4.999999999999998
  endloop
endfacet
facet normal 0.13052619222005143 0.9914448613738106 0.0
  outer loop
    vertex 43.3125 1.1999999999999993 4.999999999999998
    vertex 42.65251143498857 1.286889142962875 7.0
    vertex 43.3125 1.1999999999999993 7.0
  endloop
endfacet
facet normal -0.13052619222005193 0.9914448613738104 -0.0
  outer loop
    vertex 43.3125 1.1999999999999993 7.0
    vertex 43.972488565011425 1.2868891429628753 4.999999999999998
    vertex 43.3125 1.1999999999999993 4.999999999999998
  endloop
endfacet
facet normal -0.13052619222005193 0.9914448613738104 -0.0
  outer loop
    vertex 43.972488565011425 1.2868891429628753 4.999999999999998
    vertex 43.3125 1.1999999999999993 7.0
    vertex 43.972488565011425 1.2868891429628753 7.0
  endloop
endfacet
facet normal -0.38268343236508806 0.9238795325112876 -0.0
  outer loop
    vertex 43.972488565011425 1.2868891429628753 7.0
    vertex 44.5875 1.5416352203496808 4.999999999999998
    vertex 43.972488565011425 1.2868891429628753 4.999999999999998
  endloop
endfacet
facet normal -0.38268343236508806 0.9238795325112876 -0.0
  outer loop
    vertex 44.5875 1.5416352203496808 4.999999999999998
    vertex 43.972488565011425 1.2868891429628753 7.0
    vertex 44.5875 1.5416352203496808 7.0
  endloop
endfacet
facet normal -0.6087614290087232 0.7933533402912334 -0.0
  outer loop
    vertex 44.5875 1.5416352203496808 7.0
    vertex 45.11562229202569 1.9468777079743034 4.999999999999998
    vertex 44.5875 1.5416352203496808 4.999999999999998
  endloop
endfacet
facet normal -0.6087614290087232 0.7933533402912334 -0.0
  outer loop
    vertex 45.11562229202569 1.9468777079743034 4.999999999999998
    vertex 44.5875 1.5416352203496808 7.0
    vertex 45.11562229202569 1.9468777079743034 7.0
  endloop
endfacet
facet normal -0.7933533402912357 0.6087614290087199 -0.0
  outer loop
    vertex 45.52086477965032 2.4749999999999996 7.0
    vertex 45.11562229202569 1.9468777079743034 4.999999999999998
    vertex 45.11562229202569 1.9468777079743034 7.0
  endloop
endfacet
facet normal -0.7933533402912357 0.6087614290087199 -0.0
  outer loop
    vertex 45.11562229202569 1.9468777079743034 4.999999999999998
    vertex 45.52086477965032 2.4749999999999996 7.0
    vertex 45.52086477965032 2.4749999999999996 4.999999999999998
  endloop
endfacet
facet normal -0.9238795325112865 0.3826834323650904 -0.0
  outer loop
    vertex 45.77561085703712 3.0900114349885723 7.0
    vertex 45.52086477965032 2.4749999999999996 4.999999999999998
    vertex 45.52086477965032 2.4749999999999996 7.0
  endloop
endfacet
facet normal -0.9238795325112865 0.3826834323650904 -0.0
  outer loop
    vertex 45.52086477965032 2.4749999999999996 4.999999999999998
    vertex 45.77561085703712 3.0900114349885723 7.0
    vertex 45.77561085703712 3.0900114349885723 4.999999999999998
  endloop
endfacet
facet normal 0.0 0.0 1.0
  outer loop
    vertex 45.82300425072378 4.050000000000001 5.000000000000002
    vertex 40.84938914296287 4.409988565011427 5.000000000000002
    vertex 40.801995749276216 4.050000000000001 5.000000000000002
  endloop
endfacet
facet normal 0.0 0.0 1.0
  outer loop
    vertex 40.84938914296287 4.409988565011427 5.000000000000002
    vertex 45.82300425072378 4.050000000000001 5.000000000000002
    vertex 41.104135220349676 5.025 5.000000000000002
  endloop
endfacet
facet normal 0.0 0.0 1.0
  outer loop
    vertex 41.104135220349676 5.025 5.000000000000002
    vertex 45.82300425072378 4.050000000000001 5.000000000000002
    vertex 41.5093777079743 5.553122292025696 5.000000000000002
  endloop
endfacet
facet normal 0.0 0.0 1.0
  outer loop
    vertex 41.5093777079743 5.553122292025696 5.000000000000002
    vertex 45.82300425072378 4.050000000000001 5.000000000000002
    vertex 42.037499999999994 5.958364779650319 5.000000000000002
  endloop
endfacet
facet normal 0.0 0.0 1.0
  outer loop
    vertex 42.037499999999994 5.958364779650319 5.000000000000002
    vertex 45.82300425072378 4.050000000000001 5.000000000000002
    vertex 42.65251143498857 6.213110857037124 5.000000000000002
  endloop
endfacet
facet normal 0.0 0.0 1.0
  outer loop
    vertex 42.65251143498857 6.213110857037124 5.000000000000002
    vertex 45.82300425072378 4.050000000000001 5.000000000000002
    vertex 43.3125 6.300000000000001 5.000000000000002
  endloop
endfacet
facet normal 0.0 0.0 1.0
  outer loop
    vertex 43.3125 6.300000000000001 5.000000000000002
    vertex 45.82300425072378 4.050000000000001 5.000000000000002
    vertex 43.972488565011425 6.213110857037126 5.000000000000002
  endloop
endfacet
facet normal 0.0 0.0 1.0
  outer loop
    vertex 43.972488565011425 6.213110857037126 5.000000000000002
    vertex 45.82300425072378 4.050000000000001 5.000000000000002
    vertex 44.58749999999999 5.958364779650321 5.000000000000002
  endloop
endfacet
facet normal 0.0 0.0 1.0
  outer loop
    vertex 44.58749999999999 5.958364779650321 5.000000000000002
    vertex 45.82300425072378 4.050000000000001 5.000000000000002
    vertex 45.11562229202569 5.553122292025698 5.000000000000002
  endloop
endfacet
facet normal 0.0 0.0 1.0
  outer loop
    vertex 45.11562229202569 5.553122292025698 5.000000000000002
    vertex 45.82300425072378 4.050000000000001 5.000000000000002
    vertex 45.52086477965032 5.025000000000002 5.000000000000002
  endloop
endfacet
facet normal 0.0 0.0 1.0
  outer loop
    vertex 45.52086477965032 5.025000000000002 5.000000000000002
    vertex 45.82300425072378 4.050000000000001 5.000000000000002
    vertex 45.77561085703712 4.40998856501143 5.000000000000002
  endloop
endfacet
facet normal 0.9914448613738108 -0.13052619222004924 -0.0
  outer loop
    vertex 40.84938914296287 4.409988565011427 5.000000000000002
    vertex 40.801995749276216 4.050000000000001 7.0
    vertex 40.801995749276216 4.050000000000001 5.000000000000002
  endloop
endfacet
facet normal 0.9914448613738108 -0.13052619222004924 -0.0
  outer loop
    vertex 40.801995749276216 4.050000000000001 7.0
    vertex 40.84938914296287 4.409988565011427 5.000000000000002
    vertex 40.84938914296287 4.409988565011427 7.0
  endloop
endfacet
facet normal -0.9914448613738109 -0.13052619222004824 -0.0
  outer loop
    vertex 45.77561085703712 4.40998856501143 7.0
    vertex 45.82300425072378 4.050000000000001 5.000000000000002
    vertex 45.82300425072378 4.050000000000001 7.0
  endloop
endfacet
facet normal -0.9914448613738109 -0.13052619222004824 -0.0
  outer loop
    vertex 45.82300425072378 4.050000000000001 5.000000000000002
    vertex 45.77561085703712 4.40998856501143 7.0
    vertex 45.77561085703712 4.40998856501143 5.000000000000002
  endloop
endfacet
facet normal -0.9238795325112865 -0.38268343236509084 -0.0
  outer loop
    vertex 45.52086477965032 5.025000000000002 7.0
    vertex 45.77561085703712 4.40998856501143 5.000000000000002
    vertex 45.77561085703712 4.40998856501143 7.0
  endloop
endfacet
facet normal -0.9238795325112865 -0.38268343236509084 -0.0
  outer loop
    vertex 45.77561085703712 4.40998856501143 5.000000000000002
    vertex 45.52086477965032 5.025000000000002 7.0
    vertex 45.52086477965032 5.025000000000002 5.000000000000002
  endloop
endfacet
facet normal -0.7933533402912355 -0.6087614290087204 -0.0
  outer loop
    vertex 45.11562229202569 5.553122292025698 7.0
    vertex 45.52086477965032 5.025000000000002 5.000000000000002
    vertex 45.52086477965032 5.025000000000002 7.0
  endloop
endfacet
facet normal -0.7933533402912355 -0.6087614290087204 -0.0
  outer loop
    vertex 45.52086477965032 5.025000000000002 5.000000000000002
    vertex 45.11562229202569 5.553122292025698 7.0
    vertex 45.11562229202569 5.553122292025698 5.000000000000002
  endloop
endfacet
facet normal -0.6087614290087198 -0.7933533402912359 -0.0
  outer loop
    vertex 45.11562229202569 5.553122292025698 7.0
    vertex 44.58749999999999 5.958364779650321 5.000000000000002
    vertex 45.11562229202569 5.553122292025698 5.000000000000002
  endloop
endfacet
facet normal -0.6087614290087198 -0.7933533402912359 -0.0
  outer loop
    vertex 44.58749999999999 5.958364779650321 5.000000000000002
    vertex 45.11562229202569 5.553122292025698 7.0
    vertex 44.58749999999999 5.958364779650321 7.0
  endloop
endfacet
facet normal -0.38268343236509017 -0.9238795325112867 -0.0
  outer loop
    vertex 44.58749999999999 5.958364779650321 7.0
    vertex 43.972488565011425 6.213110857037126 5.000000000000002
    vertex 44.58749999999999 5.958364779650321 5.000000000000002
  endloop
endfacet
facet normal -0.38268343236509017 -0.9238795325112867 -0.0
  outer loop
    vertex 43.972488565011425 6.213110857037126 5.000000000000002
    vertex 44.58749999999999 5.958364779650321 7.0
    vertex 43.972488565011425 6.213110857037126 7.0
  endloop
endfacet
facet normal -0.1305261922200509 -0.9914448613738106 -0.0
  outer loop
    vertex 43.972488565011425 6.213110857037126 7.0
    vertex 43.3125 6.300000000000001 5.000000000000002
    vertex 43.972488565011425 6.213110857037126 5.000000000000002
  endloop
endfacet
facet normal -0.1305261922200509 -0.9914448613738106 -0.0
  outer loop
    vertex 43.3125 6.300000000000001 5.000000000000002
    vertex 43.972488565011425 6.213110857037126 7.0
    vertex 43.3125 6.300000000000001 7.0
  endloop
endfacet
facet normal 0.13052619222005302 -0.9914448613738104 -0.0
  outer loop
    vertex 43.3125 6.300000000000001 7.0
    vertex 42.65251143498857 6.213110857037124 5.000000000000002
    vertex 43.3125 6.300000000000001 5.000000000000002
  endloop
endfacet
facet normal 0.13052619222005302 -0.9914448613738104 -0.0
  outer loop
    vertex 42.65251143498857 6.213110857037124 5.000000000000002
    vertex 43.3125 6.300000000000001 7.0
    vertex 42.65251143498857 6.213110857037124 7.0
  endloop
endfacet
facet normal 0.38268343236508806 -0.9238795325112876 -0.0
  outer loop
    vertex 42.65251143498857 6.213110857037124 7.0
    vertex 42.037499999999994 5.958364779650319 5.000000000000002
    vertex 42.65251143498857 6.213110857037124 5.000000000000002
  endloop
endfacet
facet normal 0.38268343236508806 -0.9238795325112876 -0.0
  outer loop
    vertex 42.037499999999994 5.958364779650319 5.000000000000002
    vertex 42.65251143498857 6.213110857037124 7.0
    vertex 42.037499999999994 5.958364779650319 7.0
  endloop
endfacet
facet normal 0.6087614290087232 -0.7933533402912334 -0.0
  outer loop
    vertex 42.037499999999994 5.958364779650319 7.0
    vertex 41.5093777079743 5.553122292025696 5.000000000000002
    vertex 42.037499999999994 5.958364779650319 5.000000000000002
  endloop
endfacet
facet normal 0.6087614290087232 -0.7933533402912334 -0.0
  outer loop
    vertex 41.5093777079743 5.553122292025696 5.000000000000002
    vertex 42.037499999999994 5.958364779650319 7.0
    vertex 41.5093777079743 5.553122292025696 7.0
  endloop
endfacet
facet normal 0.7933533402912357 -0.6087614290087199 -0.0
  outer loop
    vertex 41.5093777079743 5.553122292025696 5.000000000000002
    vertex 41.104135220349676 5.025 7.0
    vertex 41.104135220349676 5.025 5.000000000000002
  endloop
endfacet
facet normal 0.7933533402912357 -0.6087614290087199 -0.0
  outer loop
    vertex 41.104135220349676 5.025 7.0
    vertex 41.5093777079743 5.553122292025696 5.000000000000002
    vertex 41.5093777079743 5.553122292025696 7.0
  endloop
endfacet
facet normal 0.9238795325112865 -0.3826834323650904 -0.0
  outer loop
    vertex 41.104135220349676 5.025 5.000000000000002
    vertex 40.84938914296287 4.409988565011427 7.0
    vertex 40.84938914296287 4.409988565011427 5.000000000000002
  endloop
endfacet
facet normal 0.9238795325112865 -0.3826834323650904 -0.0
  outer loop
    vertex 40.84938914296287 4.409988565011427 7.0
    vertex 41.104135220349676 5.025 5.000000000000002
    vertex 41.104135220349676 5.025 7.0
  endloop
endfacet
endsolid Kurt-Winder laser sensor mount
