solid Spacer
facet normal 0.0 0.0 -1.0
  outer loop
    vertex -4.9999999999999964 8.660254037844386 0.0
    vertex -3.960295887785179 1.061158084920336 0.0
    vertex -4.1 5.021051876504147e-16 0.0
  endloop
endfacet
facet normal 0.0 0.0 -1.0
  outer loop
    vertex -3.960295887785179 1.061158084920336 0.0
    vertex -4.9999999999999964 8.660254037844386 0.0
    vertex -2.5881904510252056 9.659258262890681 0.0
  endloop
endfacet
facet normal 0.0 0.0 -1.0
  outer loop
    vertex -3.960295887785179 1.061158084920336 0.0
    vertex -2.5881904510252056 9.659258262890681 0.0
    vertex -3.5507041555161973 2.050000000000001 0.0
  endloop
endfacet
facet normal 0.0 0.0 -1.0
  outer loop
    vertex -3.5507041555161973 2.050000000000001 0.0
    vertex -2.5881904510252056 9.659258262890681 0.0
    vertex -2.899137802864844 2.899137802864845 0.0
  endloop
endfacet
facet normal 0.0 0.0 -1.0
  outer loop
    vertex -2.899137802864844 2.899137802864845 0.0
    vertex -2.5881904510252056 9.659258262890681 0.0
    vertex -2.0499999999999985 3.5507041555161982 0.0
  endloop
endfacet
facet normal 0.0 0.0 -1.0
  outer loop
    vertex -2.0499999999999985 3.5507041555161982 0.0
    vertex -2.5881904510252056 9.659258262890681 0.0
    vertex 6.123233995736764e-16 9.999999999999998 0.0
  endloop
endfacet
facet normal 0.0 0.0 -1.0
  outer loop
    vertex -2.0499999999999985 3.5507041555161982 0.0
    vertex 6.123233995736764e-16 9.999999999999998 0.0
    vertex -1.0611580849203344 3.96029588778518 0.0
  endloop
endfacet
facet normal 0.0 0.0 -1.0
  outer loop
    vertex -1.0611580849203344 3.96029588778518 0.0
    vertex 6.123233995736764e-16 9.999999999999998 0.0
    vertex 2.5105259382520737e-16 4.1 0.0
  endloop
endfacet
facet normal 0.0 0.0 -1.0
  outer loop
    vertex 2.5105259382520737e-16 4.1 0.0
    vertex 6.123233995736764e-16 9.999999999999998 0.0
    vertex 1.061158084920336 3.960295887785179 0.0
  endloop
endfacet
facet normal 0.0 0.0 -1.0
  outer loop
    vertex 1.061158084920336 3.960295887785179 0.0
    vertex 6.123233995736764e-16 9.999999999999998 0.0
    vertex 2.588190451025209 9.659258262890681 0.0
  endloop
endfacet
facet normal 0.0 0.0 -1.0
  outer loop
    vertex 1.061158084920336 3.960295887785179 0.0
    vertex 2.588190451025209 9.659258262890681 0.0
    vertex 2.0500000000000003 3.5507041555161982 0.0
  endloop
endfacet
facet normal 0.0 0.0 -1.0
  outer loop
    vertex 2.0500000000000003 3.5507041555161982 0.0
    vertex 2.588190451025209 9.659258262890681 0.0
    vertex 2.899137802864845 2.899137802864844 0.0
  endloop
endfacet
facet normal 0.0 0.0 -1.0
  outer loop
    vertex 2.899137802864845 2.899137802864844 0.0
    vertex 2.588190451025209 9.659258262890681 0.0
    vertex 5.0 8.660254037844386 0.0
  endloop
endfacet
facet normal 0.0 0.0 -1.0
  outer loop
    vertex 2.899137802864845 2.899137802864844 0.0
    vertex 5.0 8.660254037844386 0.0
    vertex 3.5507041555161982 2.0499999999999994 0.0
  endloop
endfacet
facet normal 0.0 0.0 -1.0
  outer loop
    vertex 3.5507041555161982 2.0499999999999994 0.0
    vertex 5.0 8.660254037844386 0.0
    vertex 3.96029588778518 1.061158084920335 0.0
  endloop
endfacet
facet normal 0.0 0.0 -1.0
  outer loop
    vertex 3.96029588778518 1.061158084920335 0.0
    vertex 5.0 8.660254037844386 0.0
    vertex 4.1 0.0 0.0
  endloop
endfacet
facet normal 0.0 0.0 -1.0
  outer loop
    vertex 4.1 0.0 0.0
    vertex 5.0 8.660254037844386 0.0
    vertex 4.999999999999991 -8.660254037844389 0.0
  endloop
endfacet
facet normal 0.0 0.0 -1.0
  outer loop
    vertex 4.999999999999991 -8.660254037844389 0.0
    vertex 5.0 8.660254037844386 0.0
    vertex 7.071067811865472 -7.071067811865476 0.0
  endloop
endfacet
facet normal 0.0 0.0 -1.0
  outer loop
    vertex 7.071067811865472 -7.071067811865476 0.0
    vertex 5.0 8.660254037844386 0.0
    vertex 7.071067811865473 7.071067811865473 0.0
  endloop
endfacet
facet normal 0.0 0.0 -1.0
  outer loop
    vertex 7.071067811865472 -7.071067811865476 0.0
    vertex 7.071067811865473 7.071067811865473 0.0
    vertex 8.66025403784438 -5.0000000000000036 0.0
  endloop
endfacet
facet normal 0.0 0.0 -1.0
  outer loop
    vertex 8.66025403784438 -5.0000000000000036 0.0
    vertex 7.071067811865473 7.071067811865473 0.0
    vertex 8.660254037844386 4.999999999999998 0.0
  endloop
endfacet
facet normal 0.0 0.0 -1.0
  outer loop
    vertex 8.66025403784438 -5.0000000000000036 0.0
    vertex 8.660254037844386 4.999999999999998 0.0
    vertex 9.659258262890678 -2.5881904510252154 0.0
  endloop
endfacet
facet normal 0.0 0.0 -1.0
  outer loop
    vertex 9.659258262890678 -2.5881904510252154 0.0
    vertex 8.660254037844386 4.999999999999998 0.0
    vertex 9.65925826289068 2.588190451025207 0.0
  endloop
endfacet
facet normal 0.0 0.0 -1.0
  outer loop
    vertex 9.659258262890678 -2.5881904510252154 0.0
    vertex 9.65925826289068 2.588190451025207 0.0
    vertex 9.999999999999996 0.0 0.0
  endloop
endfacet
facet normal 0.0 0.0 -1.0
  outer loop
    vertex -9.65925826289068 2.5881904510252096 0.0
    vertex -9.659258262890681 -2.588190451025203 0.0
    vertex -9.999999999999996 1.224646799147353e-15 0.0
  endloop
endfacet
facet normal 0.0 0.0 -1.0
  outer loop
    vertex -9.659258262890681 -2.588190451025203 0.0
    vertex -9.65925826289068 2.5881904510252096 0.0
    vertex -8.660254037844386 -4.9999999999999964 0.0
  endloop
endfacet
facet normal 0.0 0.0 -1.0
  outer loop
    vertex -8.660254037844386 -4.9999999999999964 0.0
    vertex -9.65925826289068 2.5881904510252096 0.0
    vertex -8.660254037844382 5.000000000000003 0.0
  endloop
endfacet
facet normal 0.0 0.0 -1.0
  outer loop
    vertex -8.660254037844386 -4.9999999999999964 0.0
    vertex -8.660254037844382 5.000000000000003 0.0
    vertex -7.071067811865476 -7.07106781186547 0.0
  endloop
endfacet
facet normal 0.0 0.0 -1.0
  outer loop
    vertex -7.071067811865476 -7.07106781186547 0.0
    vertex -8.660254037844382 5.000000000000003 0.0
    vertex -7.071067811865472 7.071067811865475 0.0
  endloop
endfacet
facet normal 0.0 0.0 -1.0
  outer loop
    vertex -7.071067811865476 -7.07106781186547 0.0
    vertex -7.071067811865472 7.071067811865475 0.0
    vertex -5.000000000000003 -8.660254037844382 0.0
  endloop
endfacet
facet normal 0.0 0.0 -1.0
  outer loop
    vertex -5.000000000000003 -8.660254037844382 0.0
    vertex -7.071067811865472 7.071067811865475 0.0
    vertex -4.9999999999999964 8.660254037844386 0.0
  endloop
endfacet
facet normal 0.0 0.0 -1.0
  outer loop
    vertex -5.000000000000003 -8.660254037844382 0.0
    vertex -4.9999999999999964 8.660254037844386 0.0
    vertex -4.1 5.021051876504147e-16 0.0
  endloop
endfacet
facet normal 0.0 0.0 -1.0
  outer loop
    vertex -5.000000000000003 -8.660254037844382 0.0
    vertex -4.1 5.021051876504147e-16 0.0
    vertex -3.96029588778518 -1.0611580849203335 0.0
  endloop
endfacet
facet normal 0.0 0.0 -1.0
  outer loop
    vertex -5.000000000000003 -8.660254037844382 0.0
    vertex -3.96029588778518 -1.0611580849203335 0.0
    vertex -2.5881904510252145 -9.65925826289068 0.0
  endloop
endfacet
facet normal 0.0 0.0 -1.0
  outer loop
    vertex -2.5881904510252145 -9.65925826289068 0.0
    vertex -3.96029588778518 -1.0611580849203335 0.0
    vertex -3.5507041555161987 -2.0499999999999985 0.0
  endloop
endfacet
facet normal 0.0 0.0 -1.0
  outer loop
    vertex -2.5881904510252145 -9.65925826289068 0.0
    vertex -3.5507041555161987 -2.0499999999999985 0.0
    vertex -2.8991378028648462 -2.899137802864843 0.0
  endloop
endfacet
facet normal 0.0 0.0 -1.0
  outer loop
    vertex -2.5881904510252145 -9.65925826289068 0.0
    vertex -2.8991378028648462 -2.899137802864843 0.0
    vertex -2.0500000000000016 -3.5507041555161964 0.0
  endloop
endfacet
facet normal 0.0 0.0 -1.0
  outer loop
    vertex -2.5881904510252145 -9.65925826289068 0.0
    vertex -2.0500000000000016 -3.5507041555161964 0.0
    vertex -1.836970198721029e-15 -9.999999999999998 0.0
  endloop
endfacet
facet normal 0.0 0.0 -1.0
  outer loop
    vertex -1.836970198721029e-15 -9.999999999999998 0.0
    vertex -2.0500000000000016 -3.5507041555161964 0.0
    vertex -1.0611580849203381 -3.960295887785179 0.0
  endloop
endfacet
facet normal 0.0 0.0 -1.0
  outer loop
    vertex -1.836970198721029e-15 -9.999999999999998 0.0
    vertex -1.0611580849203381 -3.960295887785179 0.0
    vertex -7.53157781475622e-16 -4.1 0.0
  endloop
endfacet
facet normal 0.0 0.0 -1.0
  outer loop
    vertex -1.836970198721029e-15 -9.999999999999998 0.0
    vertex -7.53157781475622e-16 -4.1 0.0
    vertex 2.5881904510252025 -9.659258262890683 0.0
  endloop
endfacet
facet normal 0.0 0.0 -1.0
  outer loop
    vertex 2.5881904510252025 -9.659258262890683 0.0
    vertex -7.53157781475622e-16 -4.1 0.0
    vertex 1.061158084920333 -3.96029588778518 0.0
  endloop
endfacet
facet normal 0.0 0.0 -1.0
  outer loop
    vertex 2.5881904510252025 -9.659258262890683 0.0
    vertex 1.061158084920333 -3.96029588778518 0.0
    vertex 2.049999999999997 -3.5507041555161996 0.0
  endloop
endfacet
facet normal 0.0 0.0 -1.0
  outer loop
    vertex 2.5881904510252025 -9.659258262890683 0.0
    vertex 2.049999999999997 -3.5507041555161996 0.0
    vertex 2.8991378028648436 -2.8991378028648453 0.0
  endloop
endfacet
facet normal 0.0 0.0 -1.0
  outer loop
    vertex 2.5881904510252025 -9.659258262890683 0.0
    vertex 2.8991378028648436 -2.8991378028648453 0.0
    vertex 4.999999999999991 -8.660254037844389 0.0
  endloop
endfacet
facet normal 0.0 0.0 -1.0
  outer loop
    vertex 4.999999999999991 -8.660254037844389 0.0
    vertex 2.8991378028648436 -2.8991378028648453 0.0
    vertex 3.5507041555161964 -2.0500000000000016 0.0
  endloop
endfacet
facet normal 0.0 0.0 -1.0
  outer loop
    vertex 4.999999999999991 -8.660254037844389 0.0
    vertex 3.5507041555161964 -2.0500000000000016 0.0
    vertex 3.960295887785179 -1.0611580849203384 0.0
  endloop
endfacet
facet normal 0.0 0.0 -1.0
  outer loop
    vertex 4.999999999999991 -8.660254037844389 0.0
    vertex 3.960295887785179 -1.0611580849203384 0.0
    vertex 4.1 0.0 0.0
  endloop
endfacet
facet normal -0.0 -0.0 1.0
  outer loop
    vertex -9.659258262890681 -2.588190451025203 10.0
    vertex -9.65925826289068 2.5881904510252096 10.0
    vertex -9.999999999999996 1.224646799147353e-15 10.0
  endloop
endfacet
facet normal -0.0 -0.0 1.0
  outer loop
    vertex -9.65925826289068 2.5881904510252096 10.0
    vertex -9.659258262890681 -2.588190451025203 10.0
    vertex -8.660254037844386 -4.9999999999999964 10.0
  endloop
endfacet
facet normal -0.0 -0.0 1.0
  outer loop
    vertex -9.65925826289068 2.5881904510252096 10.0
    vertex -8.660254037844386 -4.9999999999999964 10.0
    vertex -8.660254037844382 5.000000000000003 10.0
  endloop
endfacet
facet normal -0.0 -0.0 1.0
  outer loop
    vertex -8.660254037844382 5.000000000000003 10.0
    vertex -8.660254037844386 -4.9999999999999964 10.0
    vertex -7.071067811865476 -7.07106781186547 10.0
  endloop
endfacet
facet normal -0.0 -0.0 1.0
  outer loop
    vertex -8.660254037844382 5.000000000000003 10.0
    vertex -7.071067811865476 -7.07106781186547 10.0
    vertex -7.071067811865472 7.071067811865475 10.0
  endloop
endfacet
facet normal -0.0 -0.0 1.0
  outer loop
    vertex -7.071067811865472 7.071067811865475 10.0
    vertex -7.071067811865476 -7.07106781186547 10.0
    vertex -5.000000000000003 -8.660254037844382 10.0
  endloop
endfacet
facet normal -0.0 -0.0 1.0
  outer loop
    vertex -7.071067811865472 7.071067811865475 10.0
    vertex -5.000000000000003 -8.660254037844382 10.0
    vertex -4.9999999999999964 8.660254037844386 10.0
  endloop
endfacet
facet normal -0.0 -0.0 1.0
  outer loop
    vertex -4.9999999999999964 8.660254037844386 10.0
    vertex -5.000000000000003 -8.660254037844382 10.0
    vertex -4.1 5.021051876504147e-16 10.0
  endloop
endfacet
facet normal -0.0 -0.0 1.0
  outer loop
    vertex -4.1 5.021051876504147e-16 10.0
    vertex -5.000000000000003 -8.660254037844382 10.0
    vertex -3.96029588778518 -1.0611580849203335 10.0
  endloop
endfacet
facet normal -0.0 -0.0 1.0
  outer loop
    vertex -3.96029588778518 -1.0611580849203335 10.0
    vertex -5.000000000000003 -8.660254037844382 10.0
    vertex -2.5881904510252145 -9.65925826289068 10.0
  endloop
endfacet
facet normal -0.0 -0.0 1.0
  outer loop
    vertex -3.96029588778518 -1.0611580849203335 10.0
    vertex -2.5881904510252145 -9.65925826289068 10.0
    vertex -3.5507041555161987 -2.0499999999999985 10.0
  endloop
endfacet
facet normal -0.0 -0.0 1.0
  outer loop
    vertex -3.5507041555161987 -2.0499999999999985 10.0
    vertex -2.5881904510252145 -9.65925826289068 10.0
    vertex -2.8991378028648462 -2.899137802864843 10.0
  endloop
endfacet
facet normal -0.0 -0.0 1.0
  outer loop
    vertex -2.8991378028648462 -2.899137802864843 10.0
    vertex -2.5881904510252145 -9.65925826289068 10.0
    vertex -2.0500000000000016 -3.5507041555161964 10.0
  endloop
endfacet
facet normal -0.0 -0.0 1.0
  outer loop
    vertex -2.0500000000000016 -3.5507041555161964 10.0
    vertex -2.5881904510252145 -9.65925826289068 10.0
    vertex -1.836970198721029e-15 -9.999999999999998 10.0
  endloop
endfacet
facet normal -0.0 -0.0 1.0
  outer loop
    vertex -2.0500000000000016 -3.5507041555161964 10.0
    vertex -1.836970198721029e-15 -9.999999999999998 10.0
    vertex -1.0611580849203381 -3.960295887785179 10.0
  endloop
endfacet
facet normal -0.0 -0.0 1.0
  outer loop
    vertex -1.0611580849203381 -3.960295887785179 10.0
    vertex -1.836970198721029e-15 -9.999999999999998 10.0
    vertex -7.53157781475622e-16 -4.1 10.0
  endloop
endfacet
facet normal -0.0 -0.0 1.0
  outer loop
    vertex -7.53157781475622e-16 -4.1 10.0
    vertex -1.836970198721029e-15 -9.999999999999998 10.0
    vertex 2.5881904510252025 -9.659258262890683 10.0
  endloop
endfacet
facet normal -0.0 -0.0 1.0
  outer loop
    vertex -7.53157781475622e-16 -4.1 10.0
    vertex 2.5881904510252025 -9.659258262890683 10.0
    vertex 1.061158084920333 -3.96029588778518 10.0
  endloop
endfacet
facet normal -0.0 -0.0 1.0
  outer loop
    vertex 1.061158084920333 -3.96029588778518 10.0
    vertex 2.5881904510252025 -9.659258262890683 10.0
    vertex 2.049999999999997 -3.5507041555161996 10.0
  endloop
endfacet
facet normal -0.0 -0.0 1.0
  outer loop
    vertex 2.049999999999997 -3.5507041555161996 10.0
    vertex 2.5881904510252025 -9.659258262890683 10.0
    vertex 2.8991378028648436 -2.8991378028648453 10.0
  endloop
endfacet
facet normal -0.0 -0.0 1.0
  outer loop
    vertex 2.8991378028648436 -2.8991378028648453 10.0
    vertex 2.5881904510252025 -9.659258262890683 10.0
    vertex 4.999999999999991 -8.660254037844389 10.0
  endloop
endfacet
facet normal -0.0 -0.0 1.0
  outer loop
    vertex 2.8991378028648436 -2.8991378028648453 10.0
    vertex 4.999999999999991 -8.660254037844389 10.0
    vertex 3.5507041555161964 -2.0500000000000016 10.0
  endloop
endfacet
facet normal -0.0 -0.0 1.0
  outer loop
    vertex 3.5507041555161964 -2.0500000000000016 10.0
    vertex 4.999999999999991 -8.660254037844389 10.0
    vertex 3.960295887785179 -1.0611580849203384 10.0
  endloop
endfacet
facet normal -0.0 -0.0 1.0
  outer loop
    vertex 3.960295887785179 -1.0611580849203384 10.0
    vertex 4.999999999999991 -8.660254037844389 10.0
    vertex 4.1 0.0 10.0
  endloop
endfacet
facet normal -0.0 -0.0 1.0
  outer loop
    vertex -4.9999999999999964 8.660254037844386 10.0
    vertex -3.960295887785179 1.061158084920336 10.0
    vertex -2.5881904510252056 9.659258262890681 10.0
  endloop
endfacet
facet normal -0.0 -0.0 1.0
  outer loop
    vertex -3.960295887785179 1.061158084920336 10.0
    vertex -4.9999999999999964 8.660254037844386 10.0
    vertex -4.1 5.021051876504147e-16 10.0
  endloop
endfacet
facet normal -0.0 -0.0 1.0
  outer loop
    vertex -2.5881904510252056 9.659258262890681 10.0
    vertex -3.960295887785179 1.061158084920336 10.0
    vertex -3.5507041555161973 2.050000000000001 10.0
  endloop
endfacet
facet normal -0.0 -0.0 1.0
  outer loop
    vertex -2.5881904510252056 9.659258262890681 10.0
    vertex -3.5507041555161973 2.050000000000001 10.0
    vertex -2.899137802864844 2.899137802864845 10.0
  endloop
endfacet
facet normal -0.0 -0.0 1.0
  outer loop
    vertex -2.5881904510252056 9.659258262890681 10.0
    vertex -2.899137802864844 2.899137802864845 10.0
    vertex -2.0499999999999985 3.5507041555161982 10.0
  endloop
endfacet
facet normal -0.0 -0.0 1.0
  outer loop
    vertex -2.5881904510252056 9.659258262890681 10.0
    vertex -2.0499999999999985 3.5507041555161982 10.0
    vertex 6.123233995736764e-16 9.999999999999998 10.0
  endloop
endfacet
facet normal -0.0 -0.0 1.0
  outer loop
    vertex 6.123233995736764e-16 9.999999999999998 10.0
    vertex -2.0499999999999985 3.5507041555161982 10.0
    vertex -1.0611580849203344 3.96029588778518 10.0
  endloop
endfacet
facet normal -0.0 -0.0 1.0
  outer loop
    vertex 6.123233995736764e-16 9.999999999999998 10.0
    vertex -1.0611580849203344 3.96029588778518 10.0
    vertex 2.5105259382520737e-16 4.1 10.0
  endloop
endfacet
facet normal -0.0 -0.0 1.0
  outer loop
    vertex 6.123233995736764e-16 9.999999999999998 10.0
    vertex 2.5105259382520737e-16 4.1 10.0
    vertex 1.061158084920336 3.960295887785179 10.0
  endloop
endfacet
facet normal -0.0 -0.0 1.0
  outer loop
    vertex 6.123233995736764e-16 9.999999999999998 10.0
    vertex 1.061158084920336 3.960295887785179 10.0
    vertex 2.588190451025209 9.659258262890681 10.0
  endloop
endfacet
facet normal -0.0 -0.0 1.0
  outer loop
    vertex 2.588190451025209 9.659258262890681 10.0
    vertex 1.061158084920336 3.960295887785179 10.0
    vertex 2.0500000000000003 3.5507041555161982 10.0
  endloop
endfacet
facet normal -0.0 -0.0 1.0
  outer loop
    vertex 2.588190451025209 9.659258262890681 10.0
    vertex 2.0500000000000003 3.5507041555161982 10.0
    vertex 2.899137802864845 2.899137802864844 10.0
  endloop
endfacet
facet normal -0.0 -0.0 1.0
  outer loop
    vertex 2.588190451025209 9.659258262890681 10.0
    vertex 2.899137802864845 2.899137802864844 10.0
    vertex 5.0 8.660254037844386 10.0
  endloop
endfacet
facet normal -0.0 -0.0 1.0
  outer loop
    vertex 5.0 8.660254037844386 10.0
    vertex 2.899137802864845 2.899137802864844 10.0
    vertex 3.5507041555161982 2.0499999999999994 10.0
  endloop
endfacet
facet normal -0.0 -0.0 1.0
  outer loop
    vertex 5.0 8.660254037844386 10.0
    vertex 3.5507041555161982 2.0499999999999994 10.0
    vertex 3.96029588778518 1.061158084920335 10.0
  endloop
endfacet
facet normal -0.0 -0.0 1.0
  outer loop
    vertex 5.0 8.660254037844386 10.0
    vertex 3.96029588778518 1.061158084920335 10.0
    vertex 4.1 0.0 10.0
  endloop
endfacet
facet normal -0.0 -0.0 1.0
  outer loop
    vertex 5.0 8.660254037844386 10.0
    vertex 4.1 0.0 10.0
    vertex 4.999999999999991 -8.660254037844389 10.0
  endloop
endfacet
facet normal -0.0 -0.0 1.0
  outer loop
    vertex 5.0 8.660254037844386 10.0
    vertex 4.999999999999991 -8.660254037844389 10.0
    vertex 7.071067811865472 -7.071067811865476 10.0
  endloop
endfacet
facet normal -0.0 -0.0 1.0
  outer loop
    vertex 5.0 8.660254037844386 10.0
    vertex 7.071067811865472 -7.071067811865476 10.0
    vertex 7.071067811865473 7.071067811865473 10.0
  endloop
endfacet
facet normal -0.0 -0.0 1.0
  outer loop
    vertex 7.071067811865473 7.071067811865473 10.0
    vertex 7.071067811865472 -7.071067811865476 10.0
    vertex 8.66025403784438 -5.0000000000000036 10.0
  endloop
endfacet
facet normal -0.0 -0.0 1.0
  outer loop
    vertex 7.071067811865473 7.071067811865473 10.0
    vertex 8.66025403784438 -5.0000000000000036 10.0
    vertex 8.660254037844386 4.999999999999998 10.0
  endloop
endfacet
facet normal -0.0 -0.0 1.0
  outer loop
    vertex 8.660254037844386 4.999999999999998 10.0
    vertex 8.66025403784438 -5.0000000000000036 10.0
    vertex 9.659258262890678 -2.5881904510252154 10.0
  endloop
endfacet
facet normal -0.0 -0.0 1.0
  outer loop
    vertex 8.660254037844386 4.999999999999998 10.0
    vertex 9.659258262890678 -2.5881904510252154 10.0
    vertex 9.65925826289068 2.588190451025207 10.0
  endloop
endfacet
facet normal -0.0 -0.0 1.0
  outer loop
    vertex 9.65925826289068 2.588190451025207 10.0
    vertex 9.659258262890678 -2.5881904510252154 10.0
    vertex 9.999999999999996 0.0 10.0
  endloop
endfacet
facet normal -0.13052619222005202 -0.9914448613738104 -0.0
  outer loop
    vertex -1.836970198721029e-15 -9.999999999999998 10.0
    vertex -2.5881904510252145 -9.65925826289068 0.0
    vertex -1.836970198721029e-15 -9.999999999999998 0.0
  endloop
endfacet
facet normal -0.13052619222005202 -0.9914448613738104 -0.0
  outer loop
    vertex -2.5881904510252145 -9.65925826289068 0.0
    vertex -1.836970198721029e-15 -9.999999999999998 10.0
    vertex -2.5881904510252145 -9.65925826289068 10.0
  endloop
endfacet
facet normal -0.3826834323650908 -0.9238795325112864 -0.0
  outer loop
    vertex -2.5881904510252145 -9.65925826289068 10.0
    vertex -5.000000000000003 -8.660254037844382 0.0
    vertex -2.5881904510252145 -9.65925826289068 0.0
  endloop
endfacet
facet normal -0.3826834323650908 -0.9238795325112864 -0.0
  outer loop
    vertex -5.000000000000003 -8.660254037844382 0.0
    vertex -2.5881904510252145 -9.65925826289068 10.0
    vertex -5.000000000000003 -8.660254037844382 10.0
  endloop
endfacet
facet normal -0.6087614290087211 -0.7933533402912349 -0.0
  outer loop
    vertex -5.000000000000003 -8.660254037844382 10.0
    vertex -7.071067811865476 -7.07106781186547 0.0
    vertex -5.000000000000003 -8.660254037844382 0.0
  endloop
endfacet
facet normal -0.6087614290087211 -0.7933533402912349 -0.0
  outer loop
    vertex -7.071067811865476 -7.07106781186547 0.0
    vertex -5.000000000000003 -8.660254037844382 10.0
    vertex -7.071067811865476 -7.07106781186547 10.0
  endloop
endfacet
facet normal -0.7933533402912354 -0.6087614290087207 -0.0
  outer loop
    vertex -8.660254037844386 -4.9999999999999964 10.0
    vertex -7.071067811865476 -7.07106781186547 0.0
    vertex -7.071067811865476 -7.07106781186547 10.0
  endloop
endfacet
facet normal -0.7933533402912354 -0.6087614290087207 -0.0
  outer loop
    vertex -7.071067811865476 -7.07106781186547 0.0
    vertex -8.660254037844386 -4.9999999999999964 10.0
    vertex -8.660254037844386 -4.9999999999999964 0.0
  endloop
endfacet
facet normal -0.9238795325112871 -0.3826834323650892 -0.0
  outer loop
    vertex -9.659258262890681 -2.588190451025203 10.0
    vertex -8.660254037844386 -4.9999999999999964 0.0
    vertex -8.660254037844386 -4.9999999999999964 10.0
  endloop
endfacet
facet normal -0.9238795325112871 -0.3826834323650892 -0.0
  outer loop
    vertex -8.660254037844386 -4.9999999999999964 0.0
    vertex -9.659258262890681 -2.588190451025203 10.0
    vertex -9.659258262890681 -2.588190451025203 0.0
  endloop
endfacet
facet normal -0.9914448613738104 -0.13052619222005138 -0.0
  outer loop
    vertex -9.999999999999996 1.224646799147353e-15 10.0
    vertex -9.659258262890681 -2.588190451025203 0.0
    vertex -9.659258262890681 -2.588190451025203 10.0
  endloop
endfacet
facet normal -0.9914448613738104 -0.13052619222005138 -0.0
  outer loop
    vertex -9.659258262890681 -2.588190451025203 0.0
    vertex -9.999999999999996 1.224646799147353e-15 10.0
    vertex -9.999999999999996 1.224646799147353e-15 0.0
  endloop
endfacet
facet normal -0.9914448613738104 0.13052619222005168 0.0
  outer loop
    vertex -9.65925826289068 2.5881904510252096 10.0
    vertex -9.999999999999996 1.224646799147353e-15 0.0
    vertex -9.999999999999996 1.224646799147353e-15 10.0
  endloop
endfacet
facet normal -0.9914448613738104 0.13052619222005168 0.0
  outer loop
    vertex -9.999999999999996 1.224646799147353e-15 0.0
    vertex -9.65925826289068 2.5881904510252096 10.0
    vertex -9.65925826289068 2.5881904510252096 0.0
  endloop
endfacet
facet normal -0.9238795325112866 0.3826834323650901 0.0
  outer loop
    vertex -8.660254037844382 5.000000000000003 10.0
    vertex -9.65925826289068 2.5881904510252096 0.0
    vertex -9.65925826289068 2.5881904510252096 10.0
  endloop
endfacet
facet normal -0.9238795325112866 0.3826834323650901 0.0
  outer loop
    vertex -9.65925826289068 2.5881904510252096 0.0
    vertex -8.660254037844382 5.000000000000003 10.0
    vertex -8.660254037844382 5.000000000000003 0.0
  endloop
endfacet
facet normal -0.7933533402912349 0.608761429008721 0.0
  outer loop
    vertex -7.071067811865472 7.071067811865475 10.0
    vertex -8.660254037844382 5.000000000000003 0.0
    vertex -8.660254037844382 5.000000000000003 10.0
  endloop
endfacet
facet normal -0.7933533402912349 0.608761429008721 0.0
  outer loop
    vertex -8.660254037844382 5.000000000000003 0.0
    vertex -7.071067811865472 7.071067811865475 10.0
    vertex -7.071067811865472 7.071067811865475 0.0
  endloop
endfacet
facet normal -0.6087614290087208 0.7933533402912353 0.0
  outer loop
    vertex -7.071067811865472 7.071067811865475 10.0
    vertex -4.9999999999999964 8.660254037844386 0.0
    vertex -7.071067811865472 7.071067811865475 0.0
  endloop
endfacet
facet normal -0.6087614290087208 0.7933533402912353 0.0
  outer loop
    vertex -4.9999999999999964 8.660254037844386 0.0
    vertex -7.071067811865472 7.071067811865475 10.0
    vertex -4.9999999999999964 8.660254037844386 10.0
  endloop
endfacet
facet normal -0.38268343236508956 0.923879532511287 0.0
  outer loop
    vertex -4.9999999999999964 8.660254037844386 10.0
    vertex -2.5881904510252056 9.659258262890681 0.0
    vertex -4.9999999999999964 8.660254037844386 0.0
  endloop
endfacet
facet normal -0.38268343236508956 0.923879532511287 0.0
  outer loop
    vertex -2.5881904510252056 9.659258262890681 0.0
    vertex -4.9999999999999964 8.660254037844386 10.0
    vertex -2.5881904510252056 9.659258262890681 10.0
  endloop
endfacet
facet normal -0.13052619222005182 0.9914448613738105 0.0
  outer loop
    vertex -2.5881904510252056 9.659258262890681 10.0
    vertex 6.123233995736764e-16 9.999999999999998 0.0
    vertex -2.5881904510252056 9.659258262890681 0.0
  endloop
endfacet
facet normal -0.13052619222005182 0.9914448613738105 0.0
  outer loop
    vertex 6.123233995736764e-16 9.999999999999998 0.0
    vertex -2.5881904510252056 9.659258262890681 10.0
    vertex 6.123233995736764e-16 9.999999999999998 10.0
  endloop
endfacet
facet normal 0.1305261922200517 0.9914448613738104 0.0
  outer loop
    vertex 6.123233995736764e-16 9.999999999999998 10.0
    vertex 2.588190451025209 9.659258262890681 0.0
    vertex 6.123233995736764e-16 9.999999999999998 0.0
  endloop
endfacet
facet normal 0.1305261922200517 0.9914448613738104 0.0
  outer loop
    vertex 2.588190451025209 9.659258262890681 0.0
    vertex 6.123233995736764e-16 9.999999999999998 10.0
    vertex 2.588190451025209 9.659258262890681 10.0
  endloop
endfacet
facet normal 0.38268343236509006 0.9238795325112868 0.0
  outer loop
    vertex 2.588190451025209 9.659258262890681 10.0
    vertex 5.0 8.660254037844386 0.0
    vertex 2.588190451025209 9.659258262890681 0.0
  endloop
endfacet
facet normal 0.38268343236509006 0.9238795325112868 0.0
  outer loop
    vertex 5.0 8.660254037844386 0.0
    vertex 2.588190451025209 9.659258262890681 10.0
    vertex 5.0 8.660254037844386 10.0
  endloop
endfacet
facet normal 0.6087614290087211 0.7933533402912349 0.0
  outer loop
    vertex 5.0 8.660254037844386 10.0
    vertex 7.071067811865473 7.071067811865473 0.0
    vertex 5.0 8.660254037844386 0.0
  endloop
endfacet
facet normal 0.6087614290087211 0.7933533402912349 0.0
  outer loop
    vertex 7.071067811865473 7.071067811865473 0.0
    vertex 5.0 8.660254037844386 10.0
    vertex 7.071067811865473 7.071067811865473 10.0
  endloop
endfacet
facet normal 0.7933533402912352 0.6087614290087209 0.0
  outer loop
    vertex 7.071067811865473 7.071067811865473 0.0
    vertex 8.660254037844386 4.999999999999998 10.0
    vertex 8.660254037844386 4.999999999999998 0.0
  endloop
endfacet
facet normal 0.7933533402912352 0.6087614290087209 0.0
  outer loop
    vertex 8.660254037844386 4.999999999999998 10.0
    vertex 7.071067811865473 7.071067811865473 0.0
    vertex 7.071067811865473 7.071067811865473 10.0
  endloop
endfacet
facet normal 0.923879532511287 0.3826834323650894 0.0
  outer loop
    vertex 8.660254037844386 4.999999999999998 0.0
    vertex 9.65925826289068 2.588190451025207 10.0
    vertex 9.65925826289068 2.588190451025207 0.0
  endloop
endfacet
facet normal 0.923879532511287 0.3826834323650894 0.0
  outer loop
    vertex 9.65925826289068 2.588190451025207 10.0
    vertex 8.660254037844386 4.999999999999998 0.0
    vertex 8.660254037844386 4.999999999999998 10.0
  endloop
endfacet
facet normal 0.9914448613738104 0.13052619222005177 0.0
  outer loop
    vertex 9.65925826289068 2.588190451025207 0.0
    vertex 9.999999999999996 0.0 10.0
    vertex 9.999999999999996 0.0 0.0
  endloop
endfacet
facet normal 0.9914448613738104 0.13052619222005177 0.0
  outer loop
    vertex 9.999999999999996 0.0 10.0
    vertex 9.65925826289068 2.588190451025207 0.0
    vertex 9.65925826289068 2.588190451025207 10.0
  endloop
endfacet
facet normal 0.9914448613738104 -0.13052619222005188 0.0
  outer loop
    vertex 9.999999999999996 0.0 0.0
    vertex 9.659258262890678 -2.5881904510252154 10.0
    vertex 9.659258262890678 -2.5881904510252154 0.0
  endloop
endfacet
facet normal 0.9914448613738104 -0.13052619222005188 0.0
  outer loop
    vertex 9.659258262890678 -2.5881904510252154 10.0
    vertex 9.999999999999996 0.0 0.0
    vertex 9.999999999999996 0.0 10.0
  endloop
endfacet
facet normal 0.9238795325112864 -0.38268343236509084 0.0
  outer loop
    vertex 9.659258262890678 -2.5881904510252154 0.0
    vertex 8.66025403784438 -5.0000000000000036 10.0
    vertex 8.66025403784438 -5.0000000000000036 0.0
  endloop
endfacet
facet normal 0.9238795325112864 -0.38268343236509084 0.0
  outer loop
    vertex 8.66025403784438 -5.0000000000000036 10.0
    vertex 9.659258262890678 -2.5881904510252154 0.0
    vertex 9.659258262890678 -2.5881904510252154 10.0
  endloop
endfacet
facet normal 0.7933533402912353 -0.6087614290087207 0.0
  outer loop
    vertex 8.66025403784438 -5.0000000000000036 0.0
    vertex 7.071067811865472 -7.071067811865476 10.0
    vertex 7.071067811865472 -7.071067811865476 0.0
  endloop
endfacet
facet normal 0.7933533402912353 -0.6087614290087207 0.0
  outer loop
    vertex 7.071067811865472 -7.071067811865476 10.0
    vertex 8.66025403784438 -5.0000000000000036 0.0
    vertex 8.66025403784438 -5.0000000000000036 10.0
  endloop
endfacet
facet normal 0.6087614290087202 -0.7933533402912357 0.0
  outer loop
    vertex 7.071067811865472 -7.071067811865476 10.0
    vertex 4.999999999999991 -8.660254037844389 0.0
    vertex 7.071067811865472 -7.071067811865476 0.0
  endloop
endfacet
facet normal 0.6087614290087202 -0.7933533402912357 0.0
  outer loop
    vertex 4.999999999999991 -8.660254037844389 0.0
    vertex 7.071067811865472 -7.071067811865476 10.0
    vertex 4.999999999999991 -8.660254037844389 10.0
  endloop
endfacet
facet normal 0.3826834323650893 -0.923879532511287 0.0
  outer loop
    vertex 4.999999999999991 -8.660254037844389 10.0
    vertex 2.5881904510252025 -9.659258262890683 0.0
    vertex 4.999999999999991 -8.660254037844389 0.0
  endloop
endfacet
facet normal 0.3826834323650893 -0.923879532511287 0.0
  outer loop
    vertex 2.5881904510252025 -9.659258262890683 0.0
    vertex 4.999999999999991 -8.660254037844389 10.0
    vertex 2.5881904510252025 -9.659258262890683 10.0
  endloop
endfacet
facet normal 0.13052619222005138 -0.9914448613738104 0.0
  outer loop
    vertex 2.5881904510252025 -9.659258262890683 10.0
    vertex -1.836970198721029e-15 -9.999999999999998 0.0
    vertex 2.5881904510252025 -9.659258262890683 0.0
  endloop
endfacet
facet normal 0.13052619222005138 -0.9914448613738104 0.0
  outer loop
    vertex -1.836970198721029e-15 -9.999999999999998 0.0
    vertex 2.5881904510252025 -9.659258262890683 10.0
    vertex -1.836970198721029e-15 -9.999999999999998 10.0
  endloop
endfacet
facet normal -0.9914448613738105 -0.13052619222005138 -0.0
  outer loop
    vertex 3.96029588778518 1.061158084920335 10.0
    vertex 4.1 0.0 0.0
    vertex 4.1 0.0 10.0
  endloop
endfacet
facet normal -0.9914448613738105 -0.13052619222005138 -0.0
  outer loop
    vertex 4.1 0.0 0.0
    vertex 3.96029588778518 1.061158084920335 10.0
    vertex 3.96029588778518 1.061158084920335 0.0
  endloop
endfacet
facet normal -0.9238795325112867 -0.3826834323650901 -0.0
  outer loop
    vertex 3.5507041555161982 2.0499999999999994 10.0
    vertex 3.96029588778518 1.061158084920335 0.0
    vertex 3.96029588778518 1.061158084920335 10.0
  endloop
endfacet
facet normal -0.9238795325112867 -0.3826834323650901 -0.0
  outer loop
    vertex 3.96029588778518 1.061158084920335 0.0
    vertex 3.5507041555161982 2.0499999999999994 10.0
    vertex 3.5507041555161982 2.0499999999999994 0.0
  endloop
endfacet
facet normal -0.7933533402912353 -0.6087614290087205 -0.0
  outer loop
    vertex 2.899137802864845 2.899137802864844 10.0
    vertex 3.5507041555161982 2.0499999999999994 0.0
    vertex 3.5507041555161982 2.0499999999999994 10.0
  endloop
endfacet
facet normal -0.7933533402912353 -0.6087614290087205 -0.0
  outer loop
    vertex 3.5507041555161982 2.0499999999999994 0.0
    vertex 2.899137802864845 2.899137802864844 10.0
    vertex 2.899137802864845 2.899137802864844 0.0
  endloop
endfacet
facet normal -0.6087614290087209 -0.7933533402912349 -0.0
  outer loop
    vertex 2.899137802864845 2.899137802864844 10.0
    vertex 2.0500000000000003 3.5507041555161982 0.0
    vertex 2.899137802864845 2.899137802864844 0.0
  endloop
endfacet
facet normal -0.6087614290087209 -0.7933533402912349 -0.0
  outer loop
    vertex 2.0500000000000003 3.5507041555161982 0.0
    vertex 2.899137802864845 2.899137802864844 10.0
    vertex 2.0500000000000003 3.5507041555161982 10.0
  endloop
endfacet
facet normal -0.3826834323650896 -0.923879532511287 -0.0
  outer loop
    vertex 2.0500000000000003 3.5507041555161982 10.0
    vertex 1.061158084920336 3.960295887785179 0.0
    vertex 2.0500000000000003 3.5507041555161982 0.0
  endloop
endfacet
facet normal -0.3826834323650896 -0.923879532511287 -0.0
  outer loop
    vertex 1.061158084920336 3.960295887785179 0.0
    vertex 2.0500000000000003 3.5507041555161982 10.0
    vertex 1.061158084920336 3.960295887785179 10.0
  endloop
endfacet
facet normal -0.13052619222005193 -0.9914448613738104 -0.0
  outer loop
    vertex 1.061158084920336 3.960295887785179 10.0
    vertex 2.5105259382520737e-16 4.1 0.0
    vertex 1.061158084920336 3.960295887785179 0.0
  endloop
endfacet
facet normal -0.13052619222005193 -0.9914448613738104 -0.0
  outer loop
    vertex 2.5105259382520737e-16 4.1 0.0
    vertex 1.061158084920336 3.960295887785179 10.0
    vertex 2.5105259382520737e-16 4.1 10.0
  endloop
endfacet
facet normal 0.13052619222005143 -0.9914448613738106 0.0
  outer loop
    vertex 2.5105259382520737e-16 4.1 10.0
    vertex -1.0611580849203344 3.96029588778518 0.0
    vertex 2.5105259382520737e-16 4.1 0.0
  endloop
endfacet
facet normal 0.13052619222005143 -0.9914448613738106 0.0
  outer loop
    vertex -1.0611580849203344 3.96029588778518 0.0
    vertex 2.5105259382520737e-16 4.1 10.0
    vertex -1.0611580849203344 3.96029588778518 10.0
  endloop
endfacet
facet normal 0.38268343236509017 -0.9238795325112866 0.0
  outer loop
    vertex -1.0611580849203344 3.96029588778518 10.0
    vertex -2.0499999999999985 3.5507041555161982 0.0
    vertex -1.0611580849203344 3.96029588778518 0.0
  endloop
endfacet
facet normal 0.38268343236509017 -0.9238795325112866 0.0
  outer loop
    vertex -2.0499999999999985 3.5507041555161982 0.0
    vertex -1.0611580849203344 3.96029588778518 10.0
    vertex -2.0499999999999985 3.5507041555161982 10.0
  endloop
endfacet
facet normal 0.6087614290087202 -0.7933533402912357 0.0
  outer loop
    vertex -2.0499999999999985 3.5507041555161982 10.0
    vertex -2.899137802864844 2.899137802864845 0.0
    vertex -2.0499999999999985 3.5507041555161982 0.0
  endloop
endfacet
facet normal 0.6087614290087202 -0.7933533402912357 0.0
  outer loop
    vertex -2.899137802864844 2.899137802864845 0.0
    vertex -2.0499999999999985 3.5507041555161982 10.0
    vertex -2.899137802864844 2.899137802864845 10.0
  endloop
endfacet
facet normal 0.7933533402912349 -0.608761429008721 0.0
  outer loop
    vertex -2.899137802864844 2.899137802864845 0.0
    vertex -3.5507041555161973 2.050000000000001 10.0
    vertex -3.5507041555161973 2.050000000000001 0.0
  endloop
endfacet
facet normal 0.7933533402912349 -0.608761429008721 0.0
  outer loop
    vertex -3.5507041555161973 2.050000000000001 10.0
    vertex -2.899137802864844 2.899137802864845 0.0
    vertex -2.899137802864844 2.899137802864845 10.0
  endloop
endfacet
facet normal 0.9238795325112868 -0.3826834323650899 0.0
  outer loop
    vertex -3.5507041555161973 2.050000000000001 0.0
    vertex -3.960295887785179 1.061158084920336 10.0
    vertex -3.960295887785179 1.061158084920336 0.0
  endloop
endfacet
facet normal 0.9238795325112868 -0.3826834323650899 0.0
  outer loop
    vertex -3.960295887785179 1.061158084920336 10.0
    vertex -3.5507041555161973 2.050000000000001 0.0
    vertex -3.5507041555161973 2.050000000000001 10.0
  endloop
endfacet
facet normal 0.9914448613738104 -0.13052619222005196 0.0
  outer loop
    vertex -3.960295887785179 1.061158084920336 0.0
    vertex -4.1 5.021051876504147e-16 10.0
    vertex -4.1 5.021051876504147e-16 0.0
  endloop
endfacet
facet normal 0.9914448613738104 -0.13052619222005196 0.0
  outer loop
    vertex -4.1 5.021051876504147e-16 10.0
    vertex -3.960295887785179 1.061158084920336 0.0
    vertex -3.960295887785179 1.061158084920336 10.0
  endloop
endfacet
facet normal 0.9914448613738106 0.13052619222005152 0.0
  outer loop
    vertex -4.1 5.021051876504147e-16 0.0
    vertex -3.96029588778518 -1.0611580849203335 10.0
    vertex -3.96029588778518 -1.0611580849203335 0.0
  endloop
endfacet
facet normal 0.9914448613738106 0.13052619222005152 0.0
  outer loop
    vertex -3.96029588778518 -1.0611580849203335 10.0
    vertex -4.1 5.021051876504147e-16 0.0
    vertex -4.1 5.021051876504147e-16 10.0
  endloop
endfacet
facet normal 0.923879532511287 0.3826834323650892 0.0
  outer loop
    vertex -3.96029588778518 -1.0611580849203335 0.0
    vertex -3.5507041555161987 -2.0499999999999985 10.0
    vertex -3.5507041555161987 -2.0499999999999985 0.0
  endloop
endfacet
facet normal 0.923879532511287 0.3826834323650892 0.0
  outer loop
    vertex -3.5507041555161987 -2.0499999999999985 10.0
    vertex -3.96029588778518 -1.0611580849203335 0.0
    vertex -3.96029588778518 -1.0611580849203335 10.0
  endloop
endfacet
facet normal 0.7933533402912355 0.6087614290087202 0.0
  outer loop
    vertex -3.5507041555161987 -2.0499999999999985 0.0
    vertex -2.8991378028648462 -2.899137802864843 10.0
    vertex -2.8991378028648462 -2.899137802864843 0.0
  endloop
endfacet
facet normal 0.7933533402912355 0.6087614290087202 0.0
  outer loop
    vertex -2.8991378028648462 -2.899137802864843 10.0
    vertex -3.5507041555161987 -2.0499999999999985 0.0
    vertex -3.5507041555161987 -2.0499999999999985 10.0
  endloop
endfacet
facet normal 0.6087614290087208 0.7933533402912352 0.0
  outer loop
    vertex -2.8991378028648462 -2.899137802864843 10.0
    vertex -2.0500000000000016 -3.5507041555161964 0.0
    vertex -2.8991378028648462 -2.899137802864843 0.0
  endloop
endfacet
facet normal 0.6087614290087208 0.7933533402912352 0.0
  outer loop
    vertex -2.0500000000000016 -3.5507041555161964 0.0
    vertex -2.8991378028648462 -2.899137802864843 10.0
    vertex -2.0500000000000016 -3.5507041555161964 10.0
  endloop
endfacet
facet normal 0.38268343236509095 0.9238795325112863 0.0
  outer loop
    vertex -2.0500000000000016 -3.5507041555161964 10.0
    vertex -1.0611580849203381 -3.960295887785179 0.0
    vertex -2.0500000000000016 -3.5507041555161964 0.0
  endloop
endfacet
facet normal 0.38268343236509095 0.9238795325112863 0.0
  outer loop
    vertex -1.0611580849203381 -3.960295887785179 0.0
    vertex -2.0500000000000016 -3.5507041555161964 10.0
    vertex -1.0611580849203381 -3.960295887785179 10.0
  endloop
endfacet
facet normal 0.1305261922200517 0.9914448613738104 0.0
  outer loop
    vertex -1.0611580849203381 -3.960295887785179 10.0
    vertex -7.53157781475622e-16 -4.1 0.0
    vertex -1.0611580849203381 -3.960295887785179 0.0
  endloop
endfacet
facet normal 0.1305261922200517 0.9914448613738104 0.0
  outer loop
    vertex -7.53157781475622e-16 -4.1 0.0
    vertex -1.0611580849203381 -3.960295887785179 10.0
    vertex -7.53157781475622e-16 -4.1 10.0
  endloop
endfacet
facet normal -0.13052619222005152 0.9914448613738105 0.0
  outer loop
    vertex -7.53157781475622e-16 -4.1 10.0
    vertex 1.061158084920333 -3.96029588778518 0.0
    vertex -7.53157781475622e-16 -4.1 0.0
  endloop
endfacet
facet normal -0.13052619222005152 0.9914448613738105 0.0
  outer loop
    vertex 1.061158084920333 -3.96029588778518 0.0
    vertex -7.53157781475622e-16 -4.1 10.0
    vertex 1.061158084920333 -3.96029588778518 10.0
  endloop
endfacet
facet normal -0.3826834323650891 0.9238795325112871 0.0
  outer loop
    vertex 1.061158084920333 -3.96029588778518 10.0
    vertex 2.049999999999997 -3.5507041555161996 0.0
    vertex 1.061158084920333 -3.96029588778518 0.0
  endloop
endfacet
facet normal -0.3826834323650891 0.9238795325112871 0.0
  outer loop
    vertex 2.049999999999997 -3.5507041555161996 0.0
    vertex 1.061158084920333 -3.96029588778518 10.0
    vertex 2.049999999999997 -3.5507041555161996 10.0
  endloop
endfacet
facet normal -0.6087614290087202 0.7933533402912357 0.0
  outer loop
    vertex 2.049999999999997 -3.5507041555161996 10.0
    vertex 2.8991378028648436 -2.8991378028648453 0.0
    vertex 2.049999999999997 -3.5507041555161996 0.0
  endloop
endfacet
facet normal -0.6087614290087202 0.7933533402912357 0.0
  outer loop
    vertex 2.8991378028648436 -2.8991378028648453 0.0
    vertex 2.049999999999997 -3.5507041555161996 10.0
    vertex 2.8991378028648436 -2.8991378028648453 10.0
  endloop
endfacet
facet normal -0.793353340291235 0.6087614290087208 0.0
  outer loop
    vertex 3.5507041555161964 -2.0500000000000016 10.0
    vertex 2.8991378028648436 -2.8991378028648453 0.0
    vertex 2.8991378028648436 -2.8991378028648453 10.0
  endloop
endfacet
facet normal -0.793353340291235 0.6087614290087208 0.0
  outer loop
    vertex 2.8991378028648436 -2.8991378028648453 0.0
    vertex 3.5507041555161964 -2.0500000000000016 10.0
    vertex 3.5507041555161964 -2.0500000000000016 0.0
  endloop
endfacet
facet normal -0.9238795325112862 0.38268343236509106 0.0
  outer loop
    vertex 3.960295887785179 -1.0611580849203384 10.0
    vertex 3.5507041555161964 -2.0500000000000016 0.0
    vertex 3.5507041555161964 -2.0500000000000016 10.0
  endloop
endfacet
facet normal -0.9238795325112862 0.38268343236509106 0.0
  outer loop
    vertex 3.5507041555161964 -2.0500000000000016 0.0
    vertex 3.960295887785179 -1.0611580849203384 10.0
    vertex 3.960295887785179 -1.0611580849203384 0.0
  endloop
endfacet
facet normal -0.9914448613738105 0.13052619222005163 0.0
  outer loop
    vertex 4.1 0.0 10.0
    vertex 3.960295887785179 -1.0611580849203384 0.0
    vertex 3.960295887785179 -1.0611580849203384 10.0
  endloop
endfacet
facet normal -0.9914448613738105 0.13052619222005163 0.0
  outer loop
    vertex 3.960295887785179 -1.0611580849203384 0.0
    vertex 4.1 0.0 10.0
    vertex 4.1 0.0 0.0
  endloop
endfacet
endsolid Spacer
