solid Part2 Actual - ASCII
 facet normal -0.000040 -1.000000 0.000000
  outer loop
   vertex -4.149681 8.447509 29.302174
   vertex -4.149681 8.447509 24.302174
   vertex 10.850318 8.446904 29.301872
  endloop
 endfacet
 facet normal -0.000040 -1.000000 0.000000
  outer loop
   vertex 10.850318 8.446904 29.301872
   vertex -4.149681 8.447509 24.302174
   vertex 10.850318 8.446904 24.302174
  endloop
 endfacet
 facet normal 0.554724 -0.832035 0.000000
  outer loop
   vertex 10.850318 8.446904 29.302174
   vertex 10.850318 8.446904 29.301872
   vertex 25.850317 18.447510 29.302174
  endloop
 endfacet
 facet normal 0.554724 -0.832035 0.000000
  outer loop
   vertex 25.850317 18.447510 29.302174
   vertex 10.850318 8.446904 29.301872
   vertex 25.850317 18.447510 24.302174
  endloop
 endfacet
 facet normal 0.554724 -0.832035 0.000000
  outer loop
   vertex 25.850317 18.447510 24.302174
   vertex 10.850318 8.446904 29.301872
   vertex 10.850318 8.446904 24.302174
  endloop
 endfacet
 facet normal 0.000000 0.000000 1.000000
  outer loop
   vertex -4.149681 -1.552491 24.302174
   vertex 10.850318 -1.552491 24.302174
   vertex 10.850318 8.446904 24.302174
  endloop
 endfacet
 facet normal 0.000000 0.000000 1.000000
  outer loop
   vertex 10.850318 8.446904 24.302174
   vertex 10.850318 -1.552491 24.302174
   vertex 25.850317 8.447509 24.302174
  endloop
 endfacet
 facet normal 0.000000 0.000000 1.000000
  outer loop
   vertex 10.850318 8.446904 24.302174
   vertex 25.850317 8.447509 24.302174
   vertex 25.850317 18.447510 24.302174
  endloop
 endfacet
 facet normal 0.000000 0.000000 1.000000
  outer loop
   vertex 10.850318 8.446904 24.302174
   vertex -4.149681 8.447509 24.302174
   vertex -4.149681 -1.552491 24.302174
  endloop
 endfacet
 facet normal 1.000000 0.000000 0.000000
  outer loop
   vertex 25.850317 18.447510 24.302174
   vertex 25.850317 8.447509 24.302174
   vertex 25.850317 18.447510 9.302174
  endloop
 endfacet
 facet normal 1.000000 0.000000 0.000000
  outer loop
   vertex 25.850317 18.447510 9.302174
   vertex 25.850317 8.447509 24.302174
   vertex 25.850317 -1.552491 16.802174
  endloop
 endfacet
 facet normal 1.000000 0.000000 0.000000
  outer loop
   vertex 25.850317 18.447510 9.302174
   vertex 25.850317 -1.552491 16.802174
   vertex 25.850317 -1.552491 9.302174
  endloop
 endfacet
 facet normal -1.000000 0.000000 0.000000
  outer loop
   vertex -4.149681 -1.552491 24.302174
   vertex -4.149681 8.447509 24.302174
   vertex -4.149681 -1.552491 9.302174
  endloop
 endfacet
 facet normal -1.000000 0.000000 0.000000
  outer loop
   vertex -4.149681 -1.552491 9.302174
   vertex -4.149681 8.447509 24.302174
   vertex -4.149681 18.447510 9.302174
  endloop
 endfacet
 facet normal -1.000000 0.000000 0.000000
  outer loop
   vertex -4.149681 18.447510 9.302174
   vertex -4.149681 8.447509 24.302174
   vertex -4.149681 18.447510 29.302174
  endloop
 endfacet
 facet normal -1.000000 0.000000 0.000000
  outer loop
   vertex -4.149681 18.447510 29.302174
   vertex -4.149681 8.447509 24.302174
   vertex -4.149681 8.447509 29.302174
  endloop
 endfacet
 facet normal 0.000000 -0.446084 0.894991
  outer loop
   vertex -4.149681 8.447509 29.302174
   vertex 10.850318 8.446904 29.301872
   vertex 10.850318 8.447509 29.302174
  endloop
 endfacet
 facet normal 0.371391 -0.557086 0.742781
  outer loop
   vertex 25.850317 8.447509 24.302174
   vertex 10.850318 -1.552491 24.302174
   vertex 25.850317 -1.552491 16.802174
  endloop
 endfacet
 facet normal 0.000000 -1.000000 0.000000
  outer loop
   vertex 25.850317 -1.552491 9.302174
   vertex 25.850317 -1.552491 16.802174
   vertex -4.149681 -1.552491 9.302174
  endloop
 endfacet
 facet normal 0.000000 -1.000000 0.000000
  outer loop
   vertex -4.149681 -1.552491 9.302174
   vertex 25.850317 -1.552491 16.802174
   vertex 10.850318 -1.552491 24.302174
  endloop
 endfacet
 facet normal 0.000000 -1.000000 0.000000
  outer loop
   vertex -4.149681 -1.552491 9.302174
   vertex 10.850318 -1.552491 24.302174
   vertex -4.149681 -1.552491 24.302174
  endloop
 endfacet
 facet normal -1.000000 0.000000 0.000000
  outer loop
   vertex 10.850318 8.446904 29.301872
   vertex 10.850318 8.446904 29.302174
   vertex 10.850318 8.447509 29.302174
  endloop
 endfacet
 facet normal 0.000000 0.000000 -1.000000
  outer loop
   vertex -4.149681 -1.552491 9.302174
   vertex -4.149681 18.447510 9.302174
   vertex 25.850317 -1.552491 9.302174
  endloop
 endfacet
 facet normal 0.000000 0.000000 -1.000000
  outer loop
   vertex 25.850317 -1.552491 9.302174
   vertex -4.149681 18.447510 9.302174
   vertex 25.850317 18.447510 9.302174
  endloop
 endfacet
 facet normal 0.000000 1.000000 0.000000
  outer loop
   vertex 25.850317 18.447510 9.302174
   vertex -4.149681 18.447510 9.302174
   vertex 25.850317 18.447510 24.302174
  endloop
 endfacet
 facet normal 0.000000 1.000000 0.000000
  outer loop
   vertex 25.850317 18.447510 24.302174
   vertex -4.149681 18.447510 9.302174
   vertex -4.149681 18.447510 29.302174
  endloop
 endfacet
 facet normal 0.000000 1.000000 0.000000
  outer loop
   vertex 25.850317 18.447510 24.302174
   vertex -4.149681 18.447510 29.302174
   vertex 25.850317 18.447510 29.302174
  endloop
 endfacet
 facet normal 0.000000 0.000000 1.000000
  outer loop
   vertex 10.850318 8.446904 29.302174
   vertex 25.850317 18.447510 29.302174
   vertex 10.850318 8.447509 29.302174
  endloop
 endfacet
 facet normal 0.000000 0.000000 1.000000
  outer loop
   vertex 10.850318 8.447509 29.302174
   vertex 25.850317 18.447510 29.302174
   vertex -4.149681 18.447510 29.302174
  endloop
 endfacet
 facet normal 0.000000 0.000000 1.000000
  outer loop
   vertex 10.850318 8.447509 29.302174
   vertex -4.149681 18.447510 29.302174
   vertex -4.149681 8.447509 29.302174
  endloop
 endfacet
endsolid Part2 Actual - ASCII
