solid ASCII
  facet normal 9.659258e-01 2.588190e-01 -0.000000e+00
    outer loop
      vertex   5.000000e+00 1.000000e+01 -5.000000e+00
      vertex   5.000000e+00 1.000000e+01 0.000000e+00
      vertex   5.669873e+00 7.500000e+00 -5.000000e+00
    endloop
  endfacet
  facet normal 9.507077e-01 3.089037e-01 -2.708123e-02
    outer loop
      vertex   5.669873e+00 7.500000e+00 -5.000000e+00
      vertex   5.000000e+00 1.000000e+01 0.000000e+00
      vertex   5.954915e+00 7.061074e+00 0.000000e+00
    endloop
  endfacet
  facet normal 7.069394e-01 7.069394e-01 2.175729e-02
    outer loop
      vertex   5.669873e+00 7.500000e+00 -5.000000e+00
      vertex   5.954915e+00 7.061074e+00 0.000000e+00
      vertex   7.500000e+00 5.669873e+00 -5.000000e+00
    endloop
  endfacet
  facet normal 5.872308e-01 8.082539e-01 -4.342447e-02
    outer loop
      vertex   7.500000e+00 5.669873e+00 -5.000000e+00
      vertex   5.954915e+00 7.061074e+00 0.000000e+00
      vertex   8.454915e+00 5.244718e+00 0.000000e+00
    endloop
  endfacet
  facet normal 2.586807e-01 9.654097e-01 3.268616e-02
    outer loop
      vertex   7.500000e+00 5.669873e+00 -5.000000e+00
      vertex   8.454915e+00 5.244718e+00 0.000000e+00
      vertex   1.000000e+01 5.000000e+00 -5.000000e+00
    endloop
  endfacet
  facet normal 0.000000e+00 9.988044e-01 -4.888500e-02
    outer loop
      vertex   1.000000e+01 5.000000e+00 -5.000000e+00
      vertex   8.454915e+00 5.244718e+00 0.000000e+00
      vertex   1.154508e+01 5.244718e+00 0.000000e+00
    endloop
  endfacet
  facet normal -2.586807e-01 9.654097e-01 3.268616e-02
    outer loop
      vertex   1.000000e+01 5.000000e+00 -5.000000e+00
      vertex   1.154508e+01 5.244718e+00 0.000000e+00
      vertex   1.250000e+01 5.669873e+00 -5.000000e+00
    endloop
  endfacet
  facet normal -5.872308e-01 8.082539e-01 -4.342447e-02
    outer loop
      vertex   1.250000e+01 5.669873e+00 -5.000000e+00
      vertex   1.154508e+01 5.244718e+00 0.000000e+00
      vertex   1.404508e+01 7.061074e+00 0.000000e+00
    endloop
  endfacet
  facet normal -7.069394e-01 7.069394e-01 2.175729e-02
    outer loop
      vertex   1.250000e+01 5.669873e+00 -5.000000e+00
      vertex   1.404508e+01 7.061074e+00 0.000000e+00
      vertex   1.433013e+01 7.500000e+00 -5.000000e+00
    endloop
  endfacet
  facet normal -9.507077e-01 3.089037e-01 -2.708123e-02
    outer loop
      vertex   1.433013e+01 7.500000e+00 -5.000000e+00
      vertex   1.404508e+01 7.061074e+00 0.000000e+00
      vertex   1.500000e+01 1.000000e+01 0.000000e+00
    endloop
  endfacet
  facet normal -9.659258e-01 2.588190e-01 0.000000e+00
    outer loop
      vertex   1.433013e+01 7.500000e+00 -5.000000e+00
      vertex   1.500000e+01 1.000000e+01 0.000000e+00
      vertex   1.500000e+01 1.000000e+01 -5.000000e+00
    endloop
  endfacet
  facet normal -0.000000e+00 1.000000e+00 0.000000e+00
    outer loop
      vertex   1.500000e+01 2.500000e+01 0.000000e+00
      vertex   2.000000e+01 2.500000e+01 0.000000e+00
      vertex   1.500000e+01 2.500000e+01 -5.000000e+00
    endloop
  endfacet
  facet normal 0.000000e+00 1.000000e+00 0.000000e+00
    outer loop
      vertex   1.500000e+01 2.500000e+01 -5.000000e+00
      vertex   2.000000e+01 2.500000e+01 0.000000e+00
      vertex   2.000000e+01 2.500000e+01 -5.000000e+00
    endloop
  endfacet
  facet normal -1.000000e+00 0.000000e+00 0.000000e+00
    outer loop
      vertex   1.500000e+01 1.000000e+01 0.000000e+00
      vertex   1.500000e+01 2.500000e+01 0.000000e+00
      vertex   1.500000e+01 1.000000e+01 -5.000000e+00
    endloop
  endfacet
  facet normal -1.000000e+00 0.000000e+00 0.000000e+00
    outer loop
      vertex   1.500000e+01 1.000000e+01 -5.000000e+00
      vertex   1.500000e+01 2.500000e+01 0.000000e+00
      vertex   1.500000e+01 2.500000e+01 -5.000000e+00
    endloop
  endfacet
  facet normal -1.000000e+00 0.000000e+00 0.000000e+00
    outer loop
      vertex   0.000000e+00 1.500000e+01 -2.000000e+01
      vertex   0.000000e+00 0.000000e+00 -2.000000e+01
      vertex   0.000000e+00 5.000000e+00 -1.500000e+01
    endloop
  endfacet
  facet normal -1.000000e+00 -0.000000e+00 0.000000e+00
    outer loop
      vertex   0.000000e+00 5.000000e+00 -1.500000e+01
      vertex   0.000000e+00 0.000000e+00 -2.000000e+01
      vertex   0.000000e+00 0.000000e+00 0.000000e+00
    endloop
  endfacet
  facet normal -1.000000e+00 0.000000e+00 0.000000e+00
    outer loop
      vertex   0.000000e+00 5.000000e+00 -1.500000e+01
      vertex   0.000000e+00 0.000000e+00 0.000000e+00
      vertex   0.000000e+00 5.000000e+00 -5.000000e+00
    endloop
  endfacet
  facet normal -1.000000e+00 0.000000e+00 0.000000e+00
    outer loop
      vertex   0.000000e+00 5.000000e+00 -5.000000e+00
      vertex   0.000000e+00 0.000000e+00 0.000000e+00
      vertex   0.000000e+00 2.500000e+01 0.000000e+00
    endloop
  endfacet
  facet normal -1.000000e+00 0.000000e+00 0.000000e+00
    outer loop
      vertex   0.000000e+00 5.000000e+00 -5.000000e+00
      vertex   0.000000e+00 2.500000e+01 0.000000e+00
      vertex   0.000000e+00 2.500000e+01 -5.000000e+00
    endloop
  endfacet
  facet normal -1.000000e+00 0.000000e+00 0.000000e+00
    outer loop
      vertex   0.000000e+00 5.000000e+00 -1.500000e+01
      vertex   0.000000e+00 1.500000e+01 -1.500000e+01
      vertex   0.000000e+00 1.500000e+01 -2.000000e+01
    endloop
  endfacet
  facet normal 1.000000e+00 0.000000e+00 0.000000e+00
    outer loop
      vertex   5.000000e+00 2.500000e+01 0.000000e+00
      vertex   5.000000e+00 1.000000e+01 0.000000e+00
      vertex   5.000000e+00 2.500000e+01 -5.000000e+00
    endloop
  endfacet
  facet normal 1.000000e+00 0.000000e+00 0.000000e+00
    outer loop
      vertex   5.000000e+00 2.500000e+01 -5.000000e+00
      vertex   5.000000e+00 1.000000e+01 0.000000e+00
      vertex   5.000000e+00 1.000000e+01 -5.000000e+00
    endloop
  endfacet
  facet normal -0.000000e+00 1.000000e+00 0.000000e+00
    outer loop
      vertex   0.000000e+00 2.500000e+01 0.000000e+00
      vertex   5.000000e+00 2.500000e+01 0.000000e+00
      vertex   0.000000e+00 2.500000e+01 -5.000000e+00
    endloop
  endfacet
  facet normal 0.000000e+00 1.000000e+00 0.000000e+00
    outer loop
      vertex   0.000000e+00 2.500000e+01 -5.000000e+00
      vertex   5.000000e+00 2.500000e+01 0.000000e+00
      vertex   5.000000e+00 2.500000e+01 -5.000000e+00
    endloop
  endfacet
  facet normal 0.000000e+00 1.000000e+00 0.000000e+00
    outer loop
      vertex   2.000000e+01 5.000000e+00 -5.000000e+00
      vertex   2.000000e+01 5.000000e+00 -1.500000e+01
      vertex   1.000000e+01 5.000000e+00 -5.000000e+00
    endloop
  endfacet
  facet normal 0.000000e+00 1.000000e+00 0.000000e+00
    outer loop
      vertex   1.000000e+01 5.000000e+00 -5.000000e+00
      vertex   2.000000e+01 5.000000e+00 -1.500000e+01
      vertex   0.000000e+00 5.000000e+00 -1.500000e+01
    endloop
  endfacet
  facet normal 0.000000e+00 1.000000e+00 0.000000e+00
    outer loop
      vertex   1.000000e+01 5.000000e+00 -5.000000e+00
      vertex   0.000000e+00 5.000000e+00 -1.500000e+01
      vertex   0.000000e+00 5.000000e+00 -5.000000e+00
    endloop
  endfacet
  facet normal 0.000000e+00 0.000000e+00 -1.000000e+00
    outer loop
      vertex   5.954915e+00 1.206107e+01 -2.000000e+01
      vertex   0.000000e+00 1.500000e+01 -2.000000e+01
      vertex   5.000000e+00 1.500000e+01 -2.000000e+01
    endloop
  endfacet
  facet normal 0.000000e+00 0.000000e+00 -1.000000e+00
    outer loop
      vertex   5.000000e+00 1.500000e+01 -2.000000e+01
      vertex   0.000000e+00 1.500000e+01 -2.000000e+01
      vertex   9.903114e-01 1.933884e+01 -2.000000e+01
    endloop
  endfacet
  facet normal 0.000000e+00 0.000000e+00 -1.000000e+00
    outer loop
      vertex   5.000000e+00 1.500000e+01 -2.000000e+01
      vertex   9.903114e-01 1.933884e+01 -2.000000e+01
      vertex   5.954915e+00 1.793893e+01 -2.000000e+01
    endloop
  endfacet
  facet normal 0.000000e+00 0.000000e+00 -1.000000e+00
    outer loop
      vertex   5.954915e+00 1.793893e+01 -2.000000e+01
      vertex   9.903114e-01 1.933884e+01 -2.000000e+01
      vertex   3.765102e+00 2.281832e+01 -2.000000e+01
    endloop
  endfacet
  facet normal 0.000000e+00 0.000000e+00 -1.000000e+00
    outer loop
      vertex   5.954915e+00 1.793893e+01 -2.000000e+01
      vertex   3.765102e+00 2.281832e+01 -2.000000e+01
      vertex   8.454915e+00 1.975528e+01 -2.000000e+01
    endloop
  endfacet
  facet normal 0.000000e+00 0.000000e+00 -1.000000e+00
    outer loop
      vertex   8.454915e+00 1.975528e+01 -2.000000e+01
      vertex   3.765102e+00 2.281832e+01 -2.000000e+01
      vertex   7.774791e+00 2.474928e+01 -2.000000e+01
    endloop
  endfacet
  facet normal 0.000000e+00 0.000000e+00 -1.000000e+00
    outer loop
      vertex   8.454915e+00 1.975528e+01 -2.000000e+01
      vertex   7.774791e+00 2.474928e+01 -2.000000e+01
      vertex   1.222521e+01 2.474928e+01 -2.000000e+01
    endloop
  endfacet
  facet normal 0.000000e+00 0.000000e+00 -1.000000e+00
    outer loop
      vertex   0.000000e+00 1.500000e+01 -2.000000e+01
      vertex   5.954915e+00 1.206107e+01 -2.000000e+01
      vertex   0.000000e+00 0.000000e+00 -2.000000e+01
    endloop
  endfacet
  facet normal 0.000000e+00 0.000000e+00 -1.000000e+00
    outer loop
      vertex   0.000000e+00 0.000000e+00 -2.000000e+01
      vertex   5.954915e+00 1.206107e+01 -2.000000e+01
      vertex   8.454915e+00 1.024472e+01 -2.000000e+01
    endloop
  endfacet
  facet normal 0.000000e+00 0.000000e+00 -1.000000e+00
    outer loop
      vertex   0.000000e+00 0.000000e+00 -2.000000e+01
      vertex   8.454915e+00 1.024472e+01 -2.000000e+01
      vertex   1.154508e+01 1.024472e+01 -2.000000e+01
    endloop
  endfacet
  facet normal 0.000000e+00 0.000000e+00 -1.000000e+00
    outer loop
      vertex   0.000000e+00 0.000000e+00 -2.000000e+01
      vertex   1.154508e+01 1.024472e+01 -2.000000e+01
      vertex   2.000000e+01 0.000000e+00 -2.000000e+01
    endloop
  endfacet
  facet normal 0.000000e+00 0.000000e+00 -1.000000e+00
    outer loop
      vertex   2.000000e+01 0.000000e+00 -2.000000e+01
      vertex   1.154508e+01 1.024472e+01 -2.000000e+01
      vertex   1.404508e+01 1.206107e+01 -2.000000e+01
    endloop
  endfacet
  facet normal 0.000000e+00 0.000000e+00 -1.000000e+00
    outer loop
      vertex   2.000000e+01 0.000000e+00 -2.000000e+01
      vertex   1.404508e+01 1.206107e+01 -2.000000e+01
      vertex   2.000000e+01 1.500000e+01 -2.000000e+01
    endloop
  endfacet
  facet normal -0.000000e+00 0.000000e+00 -1.000000e+00
    outer loop
      vertex   2.000000e+01 1.500000e+01 -2.000000e+01
      vertex   1.404508e+01 1.206107e+01 -2.000000e+01
      vertex   1.500000e+01 1.500000e+01 -2.000000e+01
    endloop
  endfacet
  facet normal 0.000000e+00 0.000000e+00 -1.000000e+00
    outer loop
      vertex   2.000000e+01 1.500000e+01 -2.000000e+01
      vertex   1.500000e+01 1.500000e+01 -2.000000e+01
      vertex   1.900969e+01 1.933884e+01 -2.000000e+01
    endloop
  endfacet
  facet normal 0.000000e+00 0.000000e+00 -1.000000e+00
    outer loop
      vertex   1.900969e+01 1.933884e+01 -2.000000e+01
      vertex   1.500000e+01 1.500000e+01 -2.000000e+01
      vertex   1.404508e+01 1.793893e+01 -2.000000e+01
    endloop
  endfacet
  facet normal -0.000000e+00 0.000000e+00 -1.000000e+00
    outer loop
      vertex   1.900969e+01 1.933884e+01 -2.000000e+01
      vertex   1.404508e+01 1.793893e+01 -2.000000e+01
      vertex   1.623490e+01 2.281832e+01 -2.000000e+01
    endloop
  endfacet
  facet normal 0.000000e+00 0.000000e+00 -1.000000e+00
    outer loop
      vertex   1.623490e+01 2.281832e+01 -2.000000e+01
      vertex   1.404508e+01 1.793893e+01 -2.000000e+01
      vertex   1.154508e+01 1.975528e+01 -2.000000e+01
    endloop
  endfacet
  facet normal -0.000000e+00 0.000000e+00 -1.000000e+00
    outer loop
      vertex   1.623490e+01 2.281832e+01 -2.000000e+01
      vertex   1.154508e+01 1.975528e+01 -2.000000e+01
      vertex   1.222521e+01 2.474928e+01 -2.000000e+01
    endloop
  endfacet
  facet normal 0.000000e+00 0.000000e+00 -1.000000e+00
    outer loop
      vertex   1.222521e+01 2.474928e+01 -2.000000e+01
      vertex   1.154508e+01 1.975528e+01 -2.000000e+01
      vertex   8.454915e+00 1.975528e+01 -2.000000e+01
    endloop
  endfacet
  facet normal 0.000000e+00 0.000000e+00 1.000000e+00
    outer loop
      vertex   2.000000e+01 0.000000e+00 0.000000e+00
      vertex   8.454915e+00 5.244718e+00 0.000000e+00
      vertex   0.000000e+00 0.000000e+00 0.000000e+00
    endloop
  endfacet
  facet normal 0.000000e+00 0.000000e+00 1.000000e+00
    outer loop
      vertex   0.000000e+00 0.000000e+00 0.000000e+00
      vertex   8.454915e+00 5.244718e+00 0.000000e+00
      vertex   5.954915e+00 7.061074e+00 0.000000e+00
    endloop
  endfacet
  facet normal 0.000000e+00 0.000000e+00 1.000000e+00
    outer loop
      vertex   0.000000e+00 0.000000e+00 0.000000e+00
      vertex   5.954915e+00 7.061074e+00 0.000000e+00
      vertex   5.000000e+00 1.000000e+01 0.000000e+00
    endloop
  endfacet
  facet normal 0.000000e+00 0.000000e+00 1.000000e+00
    outer loop
      vertex   2.000000e+01 2.500000e+01 0.000000e+00
      vertex   1.500000e+01 1.000000e+01 0.000000e+00
      vertex   2.000000e+01 0.000000e+00 0.000000e+00
    endloop
  endfacet
  facet normal 0.000000e+00 0.000000e+00 1.000000e+00
    outer loop
      vertex   2.000000e+01 0.000000e+00 0.000000e+00
      vertex   1.500000e+01 1.000000e+01 0.000000e+00
      vertex   1.404508e+01 7.061074e+00 0.000000e+00
    endloop
  endfacet
  facet normal 0.000000e+00 0.000000e+00 1.000000e+00
    outer loop
      vertex   2.000000e+01 0.000000e+00 0.000000e+00
      vertex   1.404508e+01 7.061074e+00 0.000000e+00
      vertex   1.154508e+01 5.244718e+00 0.000000e+00
    endloop
  endfacet
  facet normal 0.000000e+00 0.000000e+00 1.000000e+00
    outer loop
      vertex   2.000000e+01 2.500000e+01 0.000000e+00
      vertex   1.500000e+01 2.500000e+01 0.000000e+00
      vertex   1.500000e+01 1.000000e+01 0.000000e+00
    endloop
  endfacet
  facet normal 0.000000e+00 0.000000e+00 1.000000e+00
    outer loop
      vertex   1.154508e+01 5.244718e+00 0.000000e+00
      vertex   8.454915e+00 5.244718e+00 0.000000e+00
      vertex   2.000000e+01 0.000000e+00 0.000000e+00
    endloop
  endfacet
  facet normal 0.000000e+00 0.000000e+00 1.000000e+00
    outer loop
      vertex   5.000000e+00 2.500000e+01 0.000000e+00
      vertex   0.000000e+00 2.500000e+01 0.000000e+00
      vertex   5.000000e+00 1.000000e+01 0.000000e+00
    endloop
  endfacet
  facet normal 0.000000e+00 0.000000e+00 1.000000e+00
    outer loop
      vertex   5.000000e+00 1.000000e+01 0.000000e+00
      vertex   0.000000e+00 2.500000e+01 0.000000e+00
      vertex   0.000000e+00 0.000000e+00 0.000000e+00
    endloop
  endfacet
  facet normal 0.000000e+00 0.000000e+00 -1.000000e+00
    outer loop
      vertex   1.000000e+01 5.000000e+00 -5.000000e+00
      vertex   0.000000e+00 5.000000e+00 -5.000000e+00
      vertex   7.500000e+00 5.669873e+00 -5.000000e+00
    endloop
  endfacet
  facet normal -0.000000e+00 0.000000e+00 -1.000000e+00
    outer loop
      vertex   7.500000e+00 5.669873e+00 -5.000000e+00
      vertex   0.000000e+00 5.000000e+00 -5.000000e+00
      vertex   5.669873e+00 7.500000e+00 -5.000000e+00
    endloop
  endfacet
  facet normal -0.000000e+00 0.000000e+00 -1.000000e+00
    outer loop
      vertex   5.669873e+00 7.500000e+00 -5.000000e+00
      vertex   0.000000e+00 5.000000e+00 -5.000000e+00
      vertex   5.000000e+00 1.000000e+01 -5.000000e+00
    endloop
  endfacet
  facet normal -0.000000e+00 0.000000e+00 -1.000000e+00
    outer loop
      vertex   5.000000e+00 1.000000e+01 -5.000000e+00
      vertex   0.000000e+00 5.000000e+00 -5.000000e+00
      vertex   0.000000e+00 2.500000e+01 -5.000000e+00
    endloop
  endfacet
  facet normal 0.000000e+00 0.000000e+00 -1.000000e+00
    outer loop
      vertex   5.000000e+00 1.000000e+01 -5.000000e+00
      vertex   0.000000e+00 2.500000e+01 -5.000000e+00
      vertex   5.000000e+00 2.500000e+01 -5.000000e+00
    endloop
  endfacet
  facet normal -0.000000e+00 -1.000000e+00 -0.000000e+00
    outer loop
      vertex   2.000000e+01 0.000000e+00 0.000000e+00
      vertex   0.000000e+00 0.000000e+00 0.000000e+00
      vertex   2.000000e+01 0.000000e+00 -2.000000e+01
    endloop
  endfacet
  facet normal 0.000000e+00 -1.000000e+00 0.000000e+00
    outer loop
      vertex   2.000000e+01 0.000000e+00 -2.000000e+01
      vertex   0.000000e+00 0.000000e+00 0.000000e+00
      vertex   0.000000e+00 0.000000e+00 -2.000000e+01
    endloop
  endfacet
  facet normal 1.000000e+00 0.000000e+00 0.000000e+00
    outer loop
      vertex   2.000000e+01 5.000000e+00 -5.000000e+00
      vertex   2.000000e+01 0.000000e+00 0.000000e+00
      vertex   2.000000e+01 5.000000e+00 -1.500000e+01
    endloop
  endfacet
  facet normal 1.000000e+00 0.000000e+00 0.000000e+00
    outer loop
      vertex   2.000000e+01 5.000000e+00 -1.500000e+01
      vertex   2.000000e+01 0.000000e+00 0.000000e+00
      vertex   2.000000e+01 0.000000e+00 -2.000000e+01
    endloop
  endfacet
  facet normal 1.000000e+00 0.000000e+00 0.000000e+00
    outer loop
      vertex   2.000000e+01 5.000000e+00 -1.500000e+01
      vertex   2.000000e+01 0.000000e+00 -2.000000e+01
      vertex   2.000000e+01 1.500000e+01 -2.000000e+01
    endloop
  endfacet
  facet normal 1.000000e+00 0.000000e+00 -0.000000e+00
    outer loop
      vertex   2.000000e+01 2.500000e+01 -5.000000e+00
      vertex   2.000000e+01 2.500000e+01 0.000000e+00
      vertex   2.000000e+01 5.000000e+00 -5.000000e+00
    endloop
  endfacet
  facet normal 1.000000e+00 0.000000e+00 -0.000000e+00
    outer loop
      vertex   2.000000e+01 5.000000e+00 -5.000000e+00
      vertex   2.000000e+01 2.500000e+01 0.000000e+00
      vertex   2.000000e+01 0.000000e+00 0.000000e+00
    endloop
  endfacet
  facet normal 1.000000e+00 0.000000e+00 -0.000000e+00
    outer loop
      vertex   2.000000e+01 1.500000e+01 -2.000000e+01
      vertex   2.000000e+01 1.500000e+01 -1.500000e+01
      vertex   2.000000e+01 5.000000e+00 -1.500000e+01
    endloop
  endfacet
  facet normal 0.000000e+00 0.000000e+00 -1.000000e+00
    outer loop
      vertex   1.000000e+01 5.000000e+00 -5.000000e+00
      vertex   1.250000e+01 5.669873e+00 -5.000000e+00
      vertex   2.000000e+01 5.000000e+00 -5.000000e+00
    endloop
  endfacet
  facet normal 0.000000e+00 0.000000e+00 -1.000000e+00
    outer loop
      vertex   2.000000e+01 5.000000e+00 -5.000000e+00
      vertex   1.250000e+01 5.669873e+00 -5.000000e+00
      vertex   1.433013e+01 7.500000e+00 -5.000000e+00
    endloop
  endfacet
  facet normal 0.000000e+00 0.000000e+00 -1.000000e+00
    outer loop
      vertex   2.000000e+01 5.000000e+00 -5.000000e+00
      vertex   1.433013e+01 7.500000e+00 -5.000000e+00
      vertex   1.500000e+01 1.000000e+01 -5.000000e+00
    endloop
  endfacet
  facet normal 0.000000e+00 0.000000e+00 -1.000000e+00
    outer loop
      vertex   1.500000e+01 2.500000e+01 -5.000000e+00
      vertex   2.000000e+01 2.500000e+01 -5.000000e+00
      vertex   1.500000e+01 1.000000e+01 -5.000000e+00
    endloop
  endfacet
  facet normal 0.000000e+00 0.000000e+00 -1.000000e+00
    outer loop
      vertex   1.500000e+01 1.000000e+01 -5.000000e+00
      vertex   2.000000e+01 2.500000e+01 -5.000000e+00
      vertex   2.000000e+01 5.000000e+00 -5.000000e+00
    endloop
  endfacet
  facet normal 9.510565e-01 3.090171e-01 0.000000e+00
    outer loop
      vertex   5.954915e+00 1.206107e+01 -1.500000e+01
      vertex   5.954915e+00 1.206107e+01 -2.000000e+01
      vertex   5.000000e+00 1.500000e+01 -1.500000e+01
    endloop
  endfacet
  facet normal 9.510565e-01 3.090171e-01 0.000000e+00
    outer loop
      vertex   5.000000e+00 1.500000e+01 -1.500000e+01
      vertex   5.954915e+00 1.206107e+01 -2.000000e+01
      vertex   5.000000e+00 1.500000e+01 -2.000000e+01
    endloop
  endfacet
  facet normal 9.510565e-01 -3.090171e-01 0.000000e+00
    outer loop
      vertex   5.000000e+00 1.500000e+01 -1.500000e+01
      vertex   5.000000e+00 1.500000e+01 -2.000000e+01
      vertex   5.954915e+00 1.793893e+01 -1.500000e+01
    endloop
  endfacet
  facet normal 9.510565e-01 -3.090171e-01 0.000000e+00
    outer loop
      vertex   5.954915e+00 1.793893e+01 -1.500000e+01
      vertex   5.000000e+00 1.500000e+01 -2.000000e+01
      vertex   5.954915e+00 1.793893e+01 -2.000000e+01
    endloop
  endfacet
  facet normal 5.877852e-01 -8.090170e-01 0.000000e+00
    outer loop
      vertex   5.954915e+00 1.793893e+01 -1.500000e+01
      vertex   5.954915e+00 1.793893e+01 -2.000000e+01
      vertex   8.454915e+00 1.975528e+01 -2.000000e+01
    endloop
  endfacet
  facet normal 5.877852e-01 8.090170e-01 0.000000e+00
    outer loop
      vertex   5.954915e+00 1.206107e+01 -1.500000e+01
      vertex   8.454915e+00 1.024472e+01 -1.500000e+01
      vertex   5.954915e+00 1.206107e+01 -2.000000e+01
    endloop
  endfacet
  facet normal 5.877852e-01 8.090170e-01 0.000000e+00
    outer loop
      vertex   5.954915e+00 1.206107e+01 -2.000000e+01
      vertex   8.454915e+00 1.024472e+01 -1.500000e+01
      vertex   8.454915e+00 1.024472e+01 -2.000000e+01
    endloop
  endfacet
  facet normal 0.000000e+00 1.000000e+00 0.000000e+00
    outer loop
      vertex   8.454915e+00 1.024472e+01 -2.000000e+01
      vertex   8.454915e+00 1.024472e+01 -1.500000e+01
      vertex   1.154508e+01 1.024472e+01 -1.500000e+01
    endloop
  endfacet
  facet normal 0.000000e+00 1.000000e+00 0.000000e+00
    outer loop
      vertex   8.454915e+00 1.024472e+01 -2.000000e+01
      vertex   1.154508e+01 1.024472e+01 -1.500000e+01
      vertex   1.154508e+01 1.024472e+01 -2.000000e+01
    endloop
  endfacet
  facet normal -5.877852e-01 8.090170e-01 0.000000e+00
    outer loop
      vertex   1.154508e+01 1.024472e+01 -2.000000e+01
      vertex   1.154508e+01 1.024472e+01 -1.500000e+01
      vertex   1.404508e+01 1.206107e+01 -1.500000e+01
    endloop
  endfacet
  facet normal -5.877852e-01 8.090170e-01 0.000000e+00
    outer loop
      vertex   1.154508e+01 1.024472e+01 -2.000000e+01
      vertex   1.404508e+01 1.206107e+01 -1.500000e+01
      vertex   1.404508e+01 1.206107e+01 -2.000000e+01
    endloop
  endfacet
  facet normal -9.510565e-01 3.090171e-01 0.000000e+00
    outer loop
      vertex   1.404508e+01 1.206107e+01 -2.000000e+01
      vertex   1.404508e+01 1.206107e+01 -1.500000e+01
      vertex   1.500000e+01 1.500000e+01 -1.500000e+01
    endloop
  endfacet
  facet normal -9.510565e-01 3.090171e-01 0.000000e+00
    outer loop
      vertex   1.404508e+01 1.206107e+01 -2.000000e+01
      vertex   1.500000e+01 1.500000e+01 -1.500000e+01
      vertex   1.500000e+01 1.500000e+01 -2.000000e+01
    endloop
  endfacet
  facet normal -9.510565e-01 -3.090171e-01 0.000000e+00
    outer loop
      vertex   1.500000e+01 1.500000e+01 -2.000000e+01
      vertex   1.500000e+01 1.500000e+01 -1.500000e+01
      vertex   1.404508e+01 1.793893e+01 -1.500000e+01
    endloop
  endfacet
  facet normal -9.510565e-01 -3.090171e-01 0.000000e+00
    outer loop
      vertex   1.500000e+01 1.500000e+01 -2.000000e+01
      vertex   1.404508e+01 1.793893e+01 -1.500000e+01
      vertex   1.404508e+01 1.793893e+01 -2.000000e+01
    endloop
  endfacet
  facet normal -5.877852e-01 -8.090170e-01 0.000000e+00
    outer loop
      vertex   1.404508e+01 1.793893e+01 -2.000000e+01
      vertex   1.404508e+01 1.793893e+01 -1.500000e+01
      vertex   1.154508e+01 1.975528e+01 -1.500000e+01
    endloop
  endfacet
  facet normal -5.877852e-01 -8.090170e-01 0.000000e+00
    outer loop
      vertex   1.404508e+01 1.793893e+01 -2.000000e+01
      vertex   1.154508e+01 1.975528e+01 -1.500000e+01
      vertex   1.154508e+01 1.975528e+01 -2.000000e+01
    endloop
  endfacet
  facet normal 0.000000e+00 -1.000000e+00 0.000000e+00
    outer loop
      vertex   1.154508e+01 1.975528e+01 -2.000000e+01
      vertex   1.154508e+01 1.975528e+01 -1.500000e+01
      vertex   8.454915e+00 1.975528e+01 -1.500000e+01
    endloop
  endfacet
  facet normal 0.000000e+00 -1.000000e+00 0.000000e+00
    outer loop
      vertex   1.154508e+01 1.975528e+01 -2.000000e+01
      vertex   8.454915e+00 1.975528e+01 -1.500000e+01
      vertex   8.454915e+00 1.975528e+01 -2.000000e+01
    endloop
  endfacet
  facet normal 5.877852e-01 -8.090170e-01 0.000000e+00
    outer loop
      vertex   8.454915e+00 1.975528e+01 -2.000000e+01
      vertex   8.454915e+00 1.975528e+01 -1.500000e+01
      vertex   5.954915e+00 1.793893e+01 -1.500000e+01
    endloop
  endfacet
  facet normal 9.749279e-01 2.225208e-01 -0.000000e+00
    outer loop
      vertex   2.000000e+01 1.500000e+01 -2.000000e+01
      vertex   1.900969e+01 1.933884e+01 -2.000000e+01
      vertex   2.000000e+01 1.500000e+01 -1.500000e+01
    endloop
  endfacet
  facet normal 9.749279e-01 2.225208e-01 0.000000e+00
    outer loop
      vertex   2.000000e+01 1.500000e+01 -1.500000e+01
      vertex   1.900969e+01 1.933884e+01 -2.000000e+01
      vertex   1.900969e+01 1.933884e+01 -1.500000e+01
    endloop
  endfacet
  facet normal 7.818315e-01 6.234898e-01 0.000000e+00
    outer loop
      vertex   1.900969e+01 1.933884e+01 -1.500000e+01
      vertex   1.900969e+01 1.933884e+01 -2.000000e+01
      vertex   1.623490e+01 2.281832e+01 -2.000000e+01
    endloop
  endfacet
  facet normal 7.818315e-01 6.234898e-01 0.000000e+00
    outer loop
      vertex   1.900969e+01 1.933884e+01 -1.500000e+01
      vertex   1.623490e+01 2.281832e+01 -2.000000e+01
      vertex   1.623490e+01 2.281832e+01 -1.500000e+01
    endloop
  endfacet
  facet normal 4.338836e-01 9.009689e-01 0.000000e+00
    outer loop
      vertex   1.623490e+01 2.281832e+01 -1.500000e+01
      vertex   1.623490e+01 2.281832e+01 -2.000000e+01
      vertex   1.222521e+01 2.474928e+01 -2.000000e+01
    endloop
  endfacet
  facet normal 4.338836e-01 9.009689e-01 0.000000e+00
    outer loop
      vertex   1.623490e+01 2.281832e+01 -1.500000e+01
      vertex   1.222521e+01 2.474928e+01 -2.000000e+01
      vertex   1.222521e+01 2.474928e+01 -1.500000e+01
    endloop
  endfacet
  facet normal 0.000000e+00 1.000000e+00 0.000000e+00
    outer loop
      vertex   1.222521e+01 2.474928e+01 -1.500000e+01
      vertex   1.222521e+01 2.474928e+01 -2.000000e+01
      vertex   7.774791e+00 2.474928e+01 -2.000000e+01
    endloop
  endfacet
  facet normal 0.000000e+00 1.000000e+00 0.000000e+00
    outer loop
      vertex   1.222521e+01 2.474928e+01 -1.500000e+01
      vertex   7.774791e+00 2.474928e+01 -2.000000e+01
      vertex   7.774791e+00 2.474928e+01 -1.500000e+01
    endloop
  endfacet
  facet normal -4.338837e-01 9.009689e-01 0.000000e+00
    outer loop
      vertex   7.774791e+00 2.474928e+01 -1.500000e+01
      vertex   7.774791e+00 2.474928e+01 -2.000000e+01
      vertex   3.765102e+00 2.281832e+01 -2.000000e+01
    endloop
  endfacet
  facet normal -4.338837e-01 9.009689e-01 0.000000e+00
    outer loop
      vertex   7.774791e+00 2.474928e+01 -1.500000e+01
      vertex   3.765102e+00 2.281832e+01 -2.000000e+01
      vertex   3.765102e+00 2.281832e+01 -1.500000e+01
    endloop
  endfacet
  facet normal -7.818315e-01 6.234898e-01 0.000000e+00
    outer loop
      vertex   3.765102e+00 2.281832e+01 -1.500000e+01
      vertex   3.765102e+00 2.281832e+01 -2.000000e+01
      vertex   9.903114e-01 1.933884e+01 -2.000000e+01
    endloop
  endfacet
  facet normal -7.818315e-01 6.234898e-01 0.000000e+00
    outer loop
      vertex   3.765102e+00 2.281832e+01 -1.500000e+01
      vertex   9.903114e-01 1.933884e+01 -2.000000e+01
      vertex   9.903114e-01 1.933884e+01 -1.500000e+01
    endloop
  endfacet
  facet normal -9.749279e-01 2.225209e-01 0.000000e+00
    outer loop
      vertex   9.903114e-01 1.933884e+01 -1.500000e+01
      vertex   9.903114e-01 1.933884e+01 -2.000000e+01
      vertex   0.000000e+00 1.500000e+01 -2.000000e+01
    endloop
  endfacet
  facet normal -9.749279e-01 2.225209e-01 0.000000e+00
    outer loop
      vertex   9.903114e-01 1.933884e+01 -1.500000e+01
      vertex   0.000000e+00 1.500000e+01 -2.000000e+01
      vertex   0.000000e+00 1.500000e+01 -1.500000e+01
    endloop
  endfacet
  facet normal 0.000000e+00 0.000000e+00 1.000000e+00
    outer loop
      vertex   2.000000e+01 5.000000e+00 -1.500000e+01
      vertex   8.454915e+00 1.024472e+01 -1.500000e+01
      vertex   0.000000e+00 5.000000e+00 -1.500000e+01
    endloop
  endfacet
  facet normal 0.000000e+00 0.000000e+00 1.000000e+00
    outer loop
      vertex   0.000000e+00 5.000000e+00 -1.500000e+01
      vertex   8.454915e+00 1.024472e+01 -1.500000e+01
      vertex   5.954915e+00 1.206107e+01 -1.500000e+01
    endloop
  endfacet
  facet normal 0.000000e+00 0.000000e+00 1.000000e+00
    outer loop
      vertex   0.000000e+00 5.000000e+00 -1.500000e+01
      vertex   5.954915e+00 1.206107e+01 -1.500000e+01
      vertex   0.000000e+00 1.500000e+01 -1.500000e+01
    endloop
  endfacet
  facet normal -0.000000e+00 0.000000e+00 1.000000e+00
    outer loop
      vertex   0.000000e+00 1.500000e+01 -1.500000e+01
      vertex   5.954915e+00 1.206107e+01 -1.500000e+01
      vertex   5.000000e+00 1.500000e+01 -1.500000e+01
    endloop
  endfacet
  facet normal 0.000000e+00 0.000000e+00 1.000000e+00
    outer loop
      vertex   0.000000e+00 1.500000e+01 -1.500000e+01
      vertex   5.000000e+00 1.500000e+01 -1.500000e+01
      vertex   9.903114e-01 1.933884e+01 -1.500000e+01
    endloop
  endfacet
  facet normal 0.000000e+00 0.000000e+00 1.000000e+00
    outer loop
      vertex   9.903114e-01 1.933884e+01 -1.500000e+01
      vertex   5.000000e+00 1.500000e+01 -1.500000e+01
      vertex   5.954915e+00 1.793893e+01 -1.500000e+01
    endloop
  endfacet
  facet normal -0.000000e+00 0.000000e+00 1.000000e+00
    outer loop
      vertex   9.903114e-01 1.933884e+01 -1.500000e+01
      vertex   5.954915e+00 1.793893e+01 -1.500000e+01
      vertex   3.765102e+00 2.281832e+01 -1.500000e+01
    endloop
  endfacet
  facet normal 0.000000e+00 0.000000e+00 1.000000e+00
    outer loop
      vertex   3.765102e+00 2.281832e+01 -1.500000e+01
      vertex   5.954915e+00 1.793893e+01 -1.500000e+01
      vertex   8.454915e+00 1.975528e+01 -1.500000e+01
    endloop
  endfacet
  facet normal -0.000000e+00 0.000000e+00 1.000000e+00
    outer loop
      vertex   3.765102e+00 2.281832e+01 -1.500000e+01
      vertex   8.454915e+00 1.975528e+01 -1.500000e+01
      vertex   7.774791e+00 2.474928e+01 -1.500000e+01
    endloop
  endfacet
  facet normal 0.000000e+00 0.000000e+00 1.000000e+00
    outer loop
      vertex   7.774791e+00 2.474928e+01 -1.500000e+01
      vertex   8.454915e+00 1.975528e+01 -1.500000e+01
      vertex   1.154508e+01 1.975528e+01 -1.500000e+01
    endloop
  endfacet
  facet normal -0.000000e+00 0.000000e+00 1.000000e+00
    outer loop
      vertex   7.774791e+00 2.474928e+01 -1.500000e+01
      vertex   1.154508e+01 1.975528e+01 -1.500000e+01
      vertex   1.222521e+01 2.474928e+01 -1.500000e+01
    endloop
  endfacet
  facet normal 0.000000e+00 0.000000e+00 1.000000e+00
    outer loop
      vertex   1.222521e+01 2.474928e+01 -1.500000e+01
      vertex   1.154508e+01 1.975528e+01 -1.500000e+01
      vertex   1.623490e+01 2.281832e+01 -1.500000e+01
    endloop
  endfacet
  facet normal 0.000000e+00 0.000000e+00 1.000000e+00
    outer loop
      vertex   1.623490e+01 2.281832e+01 -1.500000e+01
      vertex   1.154508e+01 1.975528e+01 -1.500000e+01
      vertex   1.404508e+01 1.793893e+01 -1.500000e+01
    endloop
  endfacet
  facet normal 0.000000e+00 0.000000e+00 1.000000e+00
    outer loop
      vertex   1.623490e+01 2.281832e+01 -1.500000e+01
      vertex   1.404508e+01 1.793893e+01 -1.500000e+01
      vertex   1.900969e+01 1.933884e+01 -1.500000e+01
    endloop
  endfacet
  facet normal 0.000000e+00 0.000000e+00 1.000000e+00
    outer loop
      vertex   1.900969e+01 1.933884e+01 -1.500000e+01
      vertex   1.404508e+01 1.793893e+01 -1.500000e+01
      vertex   1.500000e+01 1.500000e+01 -1.500000e+01
    endloop
  endfacet
  facet normal 0.000000e+00 0.000000e+00 1.000000e+00
    outer loop
      vertex   1.900969e+01 1.933884e+01 -1.500000e+01
      vertex   1.500000e+01 1.500000e+01 -1.500000e+01
      vertex   2.000000e+01 1.500000e+01 -1.500000e+01
    endloop
  endfacet
  facet normal 0.000000e+00 0.000000e+00 1.000000e+00
    outer loop
      vertex   2.000000e+01 1.500000e+01 -1.500000e+01
      vertex   1.500000e+01 1.500000e+01 -1.500000e+01
      vertex   1.404508e+01 1.206107e+01 -1.500000e+01
    endloop
  endfacet
  facet normal 0.000000e+00 0.000000e+00 1.000000e+00
    outer loop
      vertex   2.000000e+01 1.500000e+01 -1.500000e+01
      vertex   1.404508e+01 1.206107e+01 -1.500000e+01
      vertex   2.000000e+01 5.000000e+00 -1.500000e+01
    endloop
  endfacet
  facet normal 0.000000e+00 0.000000e+00 1.000000e+00
    outer loop
      vertex   2.000000e+01 5.000000e+00 -1.500000e+01
      vertex   1.404508e+01 1.206107e+01 -1.500000e+01
      vertex   1.154508e+01 1.024472e+01 -1.500000e+01
    endloop
  endfacet
  facet normal 0.000000e+00 0.000000e+00 1.000000e+00
    outer loop
      vertex   2.000000e+01 5.000000e+00 -1.500000e+01
      vertex   1.154508e+01 1.024472e+01 -1.500000e+01
      vertex   8.454915e+00 1.024472e+01 -1.500000e+01
    endloop
  endfacet
endsolid
