solid Part2 - ASCII
 facet normal 1.000000 0.000000 0.000000
  outer loop
   vertex 14.999999 -10.000000 -10.000000
   vertex 14.999999 10.000000 -10.000000
   vertex 14.999999 -10.000000 -2.500000
  endloop
 endfacet
 facet normal 1.000000 0.000000 0.000000
  outer loop
   vertex 14.999999 -10.000000 -2.500000
   vertex 14.999999 10.000000 -10.000000
   vertex 14.999999 0.000000 5.000000
  endloop
 endfacet
 facet normal 1.000000 0.000000 0.000000
  outer loop
   vertex 14.999999 0.000000 5.000000
   vertex 14.999999 10.000000 -10.000000
   vertex 14.999999 10.000000 10.000000
  endloop
 endfacet
 facet normal 0.000000 -1.000000 0.000000
  outer loop
   vertex 14.999999 -10.000000 -10.000000
   vertex 14.999999 -10.000000 -2.500000
   vertex -14.999999 -10.000000 -10.000000
  endloop
 endfacet
 facet normal 0.000000 -1.000000 0.000000
  outer loop
   vertex -14.999999 -10.000000 -10.000000
   vertex 14.999999 -10.000000 -2.500000
   vertex 0.000000 -10.000000 5.000000
  endloop
 endfacet
 facet normal 0.000000 -1.000000 0.000000
  outer loop
   vertex -14.999999 -10.000000 -10.000000
   vertex 0.000000 -10.000000 5.000000
   vertex -14.999999 -10.000000 5.000000
  endloop
 endfacet
 facet normal 0.285714 -0.428571 0.857143
  outer loop
   vertex 14.999999 10.000000 10.000000
   vertex 0.000000 0.000000 10.000000
   vertex 14.999999 0.000000 5.000000
  endloop
 endfacet
 facet normal 0.285714 -0.428572 0.857143
  outer loop
   vertex 14.999999 0.000000 5.000000
   vertex 0.000000 0.000000 10.000000
   vertex 0.000000 -10.000000 5.000000
  endloop
 endfacet
 facet normal 0.371391 -0.557086 0.742781
  outer loop
   vertex 14.999999 0.000000 5.000000
   vertex 0.000000 -10.000000 5.000000
   vertex 14.999999 -10.000000 -2.500000
  endloop
 endfacet
 facet normal -1.000000 0.000000 0.000000
  outer loop
   vertex -14.999999 -10.000000 -10.000000
   vertex -14.999999 -10.000000 5.000000
   vertex -14.999999 10.000000 -10.000000
  endloop
 endfacet
 facet normal -1.000000 0.000000 0.000000
  outer loop
   vertex -14.999999 10.000000 -10.000000
   vertex -14.999999 -10.000000 5.000000
   vertex -14.999999 0.000000 10.000000
  endloop
 endfacet
 facet normal -1.000000 0.000000 0.000000
  outer loop
   vertex -14.999999 10.000000 -10.000000
   vertex -14.999999 0.000000 10.000000
   vertex -14.999999 10.000000 10.000000
  endloop
 endfacet
 facet normal 0.000000 -0.447214 0.894427
  outer loop
   vertex -14.999999 0.000000 10.000000
   vertex -14.999999 -10.000000 5.000000
   vertex 0.000000 0.000000 10.000000
  endloop
 endfacet
 facet normal 0.000000 -0.447214 0.894427
  outer loop
   vertex 0.000000 0.000000 10.000000
   vertex -14.999999 -10.000000 5.000000
   vertex 0.000000 -10.000000 5.000000
  endloop
 endfacet
 facet normal 0.000000 0.000000 -1.000000
  outer loop
   vertex -14.999999 -10.000000 -10.000000
   vertex -14.999999 10.000000 -10.000000
   vertex 14.999999 -10.000000 -10.000000
  endloop
 endfacet
 facet normal 0.000000 0.000000 -1.000000
  outer loop
   vertex 14.999999 -10.000000 -10.000000
   vertex -14.999999 10.000000 -10.000000
   vertex 14.999999 10.000000 -10.000000
  endloop
 endfacet
 facet normal 0.000000 1.000000 0.000000
  outer loop
   vertex -14.999999 10.000000 -10.000000
   vertex -14.999999 10.000000 10.000000
   vertex 14.999999 10.000000 -10.000000
  endloop
 endfacet
 facet normal 0.000000 1.000000 0.000000
  outer loop
   vertex 14.999999 10.000000 -10.000000
   vertex -14.999999 10.000000 10.000000
   vertex 14.999999 10.000000 10.000000
  endloop
 endfacet
 facet normal 0.000000 0.000000 1.000000
  outer loop
   vertex 0.000000 0.000000 10.000000
   vertex 14.999999 10.000000 10.000000
   vertex -14.999999 10.000000 10.000000
  endloop
 endfacet
 facet normal 0.000000 0.000000 1.000000
  outer loop
   vertex -14.999999 10.000000 10.000000
   vertex -14.999999 0.000000 10.000000
   vertex 0.000000 0.000000 10.000000
  endloop
 endfacet
endsolid Part2 - ASCII
