solid Untitled-5429f787
facet normal -0.4999999999999999 0.8660254037844388 0.0
  outer loop
    vertex -7.499999999999997 12.990381056766578 12.999999999999998
    vertex -3.8822856765378106 14.488887394336022 0.0
    vertex -7.499999999999997 12.990381056766578 0.0
  endloop
endfacet
facet normal -0.25881904510252063 0.9659258262890682 0.0
  outer loop
    vertex -3.8822856765378106 14.488887394336022 0.0
    vertex -7.499999999999997 12.990381056766578 12.999999999999998
    vertex -3.8822856765378106 14.488887394336022 12.999999999999998
  endloop
endfacet
facet normal -0.9659258262890682 -0.25881904510252063 0.0
  outer loop
    vertex -14.488887394336022 -3.882285676537809 12.999999999999998
    vertex -12.990381056766578 -7.4999999999999964 0.0
    vertex -12.990381056766578 -7.4999999999999964 12.999999999999998
  endloop
endfacet
facet normal -0.8660254037844388 -0.4999999999999997 0.0
  outer loop
    vertex -12.990381056766578 -7.4999999999999964 0.0
    vertex -14.488887394336022 -3.882285676537809 12.999999999999998
    vertex -14.488887394336022 -3.882285676537809 0.0
  endloop
endfacet
facet normal -0.7071067811865477 0.7071067811865475 0.0
  outer loop
    vertex -10.606601717798211 10.606601717798213 12.999999999999998
    vertex -7.499999999999997 12.990381056766578 0.0
    vertex -10.606601717798211 10.606601717798213 0.0
  endloop
endfacet
facet normal -0.4999999999999999 0.8660254037844388 0.0
  outer loop
    vertex -7.499999999999997 12.990381056766578 0.0
    vertex -10.606601717798211 10.606601717798213 12.999999999999998
    vertex -7.499999999999997 12.990381056766578 12.999999999999998
  endloop
endfacet
facet normal 0.8660254037844389 0.49999999999999967 0.0
  outer loop
    vertex 12.990381056766585 7.499999999999989 0.0
    vertex 14.488887394336025 3.882285676537804 12.999999999999998
    vertex 14.488887394336025 3.882285676537804 0.0
  endloop
endfacet
facet normal 0.9659258262890685 0.2588190451025202 0.0
  outer loop
    vertex 14.488887394336025 3.882285676537804 12.999999999999998
    vertex 12.990381056766585 7.499999999999989 0.0
    vertex 12.990381056766585 7.499999999999989 12.999999999999998
  endloop
endfacet
facet normal 1.0 -5.079332640518737e-16 0.0
  outer loop
    vertex 14.999999999999998 -2.755455298081544e-15 0.0
    vertex 14.488887394336018 -3.8822856765378226 12.999999999999998
    vertex 14.488887394336018 -3.8822856765378226 0.0
  endloop
endfacet
facet normal 0.9659258262890682 -0.25881904510252135 0.0
  outer loop
    vertex 14.488887394336018 -3.8822856765378226 12.999999999999998
    vertex 14.999999999999998 -2.755455298081544e-15 0.0
    vertex 14.999999999999998 -2.755455298081544e-15 12.999999999999998
  endloop
endfacet
facet normal 0.8660254037844384 -0.5000000000000006 0.0
  outer loop
    vertex 12.990381056766573 -7.500000000000006 0.0
    vertex 10.606601717798206 -10.606601717798217 12.999999999999998
    vertex 10.606601717798206 -10.606601717798217 0.0
  endloop
endfacet
facet normal 0.7071067811865471 -0.707106781186548 0.0
  outer loop
    vertex 10.606601717798206 -10.606601717798217 12.999999999999998
    vertex 12.990381056766573 -7.500000000000006 0.0
    vertex 12.990381056766573 -7.500000000000006 12.999999999999998
  endloop
endfacet
facet normal 0.9659258262890685 0.2588190451025202 0.0
  outer loop
    vertex 14.488887394336025 3.882285676537804 0.0
    vertex 14.999999999999998 -2.755455298081544e-15 12.999999999999998
    vertex 14.999999999999998 -2.755455298081544e-15 0.0
  endloop
endfacet
facet normal 1.0 -5.079332640518737e-16 0.0
  outer loop
    vertex 14.999999999999998 -2.755455298081544e-15 12.999999999999998
    vertex 14.488887394336025 3.882285676537804 0.0
    vertex 14.488887394336025 3.882285676537804 12.999999999999998
  endloop
endfacet
facet normal 0.7071067811865471 -0.707106781186548 0.0
  outer loop
    vertex 10.606601717798206 -10.606601717798217 12.999999999999998
    vertex 7.499999999999995 -12.990381056766578 0.0
    vertex 10.606601717798206 -10.606601717798217 0.0
  endloop
endfacet
facet normal 0.4999999999999998 -0.8660254037844388 0.0
  outer loop
    vertex 7.499999999999995 -12.990381056766578 0.0
    vertex 10.606601717798206 -10.606601717798217 12.999999999999998
    vertex 7.499999999999995 -12.990381056766578 12.999999999999998
  endloop
endfacet
facet normal 0.4999999999999998 -0.8660254037844388 0.0
  outer loop
    vertex 7.499999999999995 -12.990381056766578 12.999999999999998
    vertex 3.882285676537805 -14.488887394336025 0.0
    vertex 7.499999999999995 -12.990381056766578 0.0
  endloop
endfacet
facet normal 0.2588190451025206 -0.9659258262890682 0.0
  outer loop
    vertex 3.882285676537805 -14.488887394336025 0.0
    vertex 7.499999999999995 -12.990381056766578 12.999999999999998
    vertex 3.882285676537805 -14.488887394336025 12.999999999999998
  endloop
endfacet
facet normal 0.2588190451025206 -0.9659258262890682 0.0
  outer loop
    vertex 3.882285676537805 -14.488887394336025 12.999999999999998
    vertex -1.8369701987210296e-15 -14.999999999999998 0.0
    vertex 3.882285676537805 -14.488887394336025 0.0
  endloop
endfacet
facet normal -2.7624440676505406e-16 -1.0 0.0
  outer loop
    vertex -1.8369701987210296e-15 -14.999999999999998 0.0
    vertex 3.882285676537805 -14.488887394336025 12.999999999999998
    vertex -1.8369701987210296e-15 -14.999999999999998 12.999999999999998
  endloop
endfacet
facet normal 0.9659258262890682 -0.25881904510252135 0.0
  outer loop
    vertex 14.488887394336018 -3.8822856765378226 0.0
    vertex 12.990381056766573 -7.500000000000006 12.999999999999998
    vertex 12.990381056766573 -7.500000000000006 0.0
  endloop
endfacet
facet normal 0.8660254037844384 -0.5000000000000006 0.0
  outer loop
    vertex 12.990381056766573 -7.500000000000006 12.999999999999998
    vertex 14.488887394336018 -3.8822856765378226 0.0
    vertex 14.488887394336018 -3.8822856765378226 12.999999999999998
  endloop
endfacet
facet normal -0.0 -0.0 1.0
  outer loop
    vertex -1.8369701987210296e-15 -14.999999999999998 12.999999999999998
    vertex -1.7490845402526805 -5.151672651180757 12.999999999999998
    vertex -3.8822856765378146 -14.488887394336022 12.999999999999998
  endloop
endfacet
facet normal -0.0 -0.0 1.0
  outer loop
    vertex -1.7490845402526805 -5.151672651180757 12.999999999999998
    vertex -1.8369701987210296e-15 -14.999999999999998 12.999999999999998
    vertex -0.27988913795382947 -5.151672651180757 12.999999999999998
  endloop
endfacet
facet normal -0.0 -0.0 1.0
  outer loop
    vertex -0.27988913795382947 -5.151672651180757 12.999999999999998
    vertex -1.8369701987210296e-15 -14.999999999999998 12.999999999999998
    vertex -0.27988913795382947 4.591022112548489 12.999999999999998
  endloop
endfacet
facet normal -0.0 -0.0 1.0
  outer loop
    vertex -0.27988913795382947 4.591022112548489 12.999999999999998
    vertex -1.8369701987210296e-15 -14.999999999999998 12.999999999999998
    vertex 3.4302002617907426 4.591022112548489 12.999999999999998
  endloop
endfacet
facet normal -0.0 -0.0 1.0
  outer loop
    vertex 3.4302002617907426 4.591022112548489 12.999999999999998
    vertex -1.8369701987210296e-15 -14.999999999999998 12.999999999999998
    vertex 3.882285676537805 -14.488887394336025 12.999999999999998
  endloop
endfacet
facet normal -0.0 -0.0 1.0
  outer loop
    vertex 3.4302002617907426 4.591022112548489 12.999999999999998
    vertex 3.882285676537805 -14.488887394336025 12.999999999999998
    vertex 3.4302002617907426 5.896973581258578 12.999999999999998
  endloop
endfacet
facet normal -0.0 -0.0 1.0
  outer loop
    vertex -14.488887394336022 -3.882285676537809 12.999999999999998
    vertex -14.488887394336022 3.882285676537814 12.999999999999998
    vertex -14.999999999999998 9.184850993605148e-16 12.999999999999998
  endloop
endfacet
facet normal -0.0 -0.0 1.0
  outer loop
    vertex -14.488887394336022 3.882285676537814 12.999999999999998
    vertex -14.488887394336022 -3.882285676537809 12.999999999999998
    vertex -12.990381056766578 -7.4999999999999964 12.999999999999998
  endloop
endfacet
facet normal -0.0 -0.0 1.0
  outer loop
    vertex -14.488887394336022 3.882285676537814 12.999999999999998
    vertex -12.990381056766578 -7.4999999999999964 12.999999999999998
    vertex -12.990381056766577 7.5 12.999999999999998
  endloop
endfacet
facet normal -0.0 -0.0 1.0
  outer loop
    vertex -12.990381056766577 7.5 12.999999999999998
    vertex -12.990381056766578 -7.4999999999999964 12.999999999999998
    vertex -11.892468959154343 -5.151672651180757 12.999999999999998
  endloop
endfacet
facet normal -0.0 -0.0 1.0
  outer loop
    vertex -11.892468959154343 -5.151672651180757 12.999999999999998
    vertex -12.990381056766578 -7.4999999999999964 12.999999999999998
    vertex -10.606601717798213 -10.606601717798211 12.999999999999998
  endloop
endfacet
facet normal -0.0 -0.0 1.0
  outer loop
    vertex -11.892468959154343 -5.151672651180757 12.999999999999998
    vertex -10.606601717798213 -10.606601717798211 12.999999999999998
    vertex -5.488854655195211 -5.151672651180757 12.999999999999998
  endloop
endfacet
facet normal -0.0 -0.0 1.0
  outer loop
    vertex -5.488854655195211 -5.151672651180757 12.999999999999998
    vertex -10.606601717798213 -10.606601717798211 12.999999999999998
    vertex -7.500000000000004 -12.990381056766577 12.999999999999998
  endloop
endfacet
facet normal -0.0 -0.0 1.0
  outer loop
    vertex -5.488854655195211 -5.151672651180757 12.999999999999998
    vertex -7.500000000000004 -12.990381056766577 12.999999999999998
    vertex -3.8822856765378146 -14.488887394336022 12.999999999999998
  endloop
endfacet
facet normal -0.0 -0.0 1.0
  outer loop
    vertex -5.488854655195211 -5.151672651180757 12.999999999999998
    vertex -3.8822856765378146 -14.488887394336022 12.999999999999998
    vertex -5.488854655195211 -3.8457211824706676 12.999999999999998
  endloop
endfacet
facet normal -0.0 -0.0 1.0
  outer loop
    vertex -5.488854655195211 -3.8457211824706676 12.999999999999998
    vertex -3.8822856765378146 -14.488887394336022 12.999999999999998
    vertex -5.459173939997254 4.591022112548489 12.999999999999998
  endloop
endfacet
facet normal -0.0 -0.0 1.0
  outer loop
    vertex -5.459173939997254 4.591022112548489 12.999999999999998
    vertex -3.8822856765378146 -14.488887394336022 12.999999999999998
    vertex -1.7490845402526805 4.591022112548489 12.999999999999998
  endloop
endfacet
facet normal -0.0 -0.0 1.0
  outer loop
    vertex -1.7490845402526805 4.591022112548489 12.999999999999998
    vertex -3.8822856765378146 -14.488887394336022 12.999999999999998
    vertex -1.7490845402526805 -5.151672651180757 12.999999999999998
  endloop
endfacet
facet normal -0.0 -0.0 1.0
  outer loop
    vertex -12.990381056766577 7.5 12.999999999999998
    vertex -11.892468959154343 5.896973581258578 12.999999999999998
    vertex -10.606601717798211 10.606601717798213 12.999999999999998
  endloop
endfacet
facet normal -0.0 -0.0 1.0
  outer loop
    vertex -11.892468959154343 5.896973581258578 12.999999999999998
    vertex -12.990381056766577 7.5 12.999999999999998
    vertex -11.892468959154343 -5.151672651180757 12.999999999999998
  endloop
endfacet
facet normal -0.0 -0.0 1.0
  outer loop
    vertex -10.606601717798211 10.606601717798213 12.999999999999998
    vertex -11.892468959154343 5.896973581258578 12.999999999999998
    vertex -10.423273556855492 5.896973581258578 12.999999999999998
  endloop
endfacet
facet normal -0.0 -0.0 1.0
  outer loop
    vertex -10.606601717798211 10.606601717798213 12.999999999999998
    vertex -10.423273556855492 5.896973581258578 12.999999999999998
    vertex -7.499999999999997 12.990381056766578 12.999999999999998
  endloop
endfacet
facet normal -0.0 -0.0 1.0
  outer loop
    vertex 12.990381056766573 -7.500000000000006 12.999999999999998
    vertex 11.095244961663028 -5.151672651180757 12.999999999999998
    vertex 10.606601717798206 -10.606601717798217 12.999999999999998
  endloop
endfacet
facet normal -0.0 -0.0 1.0
  outer loop
    vertex 11.095244961663028 -5.151672651180757 12.999999999999998
    vertex 12.990381056766573 -7.500000000000006 12.999999999999998
    vertex 12.564440363961879 -5.151672651180757 12.999999999999998
  endloop
endfacet
facet normal -0.0 -0.0 1.0
  outer loop
    vertex 12.564440363961879 -5.151672651180757 12.999999999999998
    vertex 12.990381056766573 -7.500000000000006 12.999999999999998
    vertex 12.564440363961879 5.896973581258578 12.999999999999998
  endloop
endfacet
facet normal -0.0 -0.0 1.0
  outer loop
    vertex 11.095244961663028 1.563589162356919 12.999999999999998
    vertex 6.012422484012962 5.896973581258578 12.999999999999998
    vertex 6.012422484012962 1.563589162356919 12.999999999999998
  endloop
endfacet
facet normal -0.0 -0.0 1.0
  outer loop
    vertex 6.012422484012962 5.896973581258578 12.999999999999998
    vertex 11.095244961663028 1.563589162356919 12.999999999999998
    vertex 7.500000000000006 12.990381056766573 12.999999999999998
  endloop
endfacet
facet normal -0.0 -0.0 1.0
  outer loop
    vertex 7.500000000000006 12.990381056766573 12.999999999999998
    vertex 11.095244961663028 1.563589162356919 12.999999999999998
    vertex 10.606601717798213 10.606601717798208 12.999999999999998
  endloop
endfacet
facet normal -0.0 -0.0 1.0
  outer loop
    vertex 10.606601717798213 10.606601717798208 12.999999999999998
    vertex 11.095244961663028 1.563589162356919 12.999999999999998
    vertex 11.095244961663028 5.896973581258578 12.999999999999998
  endloop
endfacet
facet normal -0.0 -0.0 1.0
  outer loop
    vertex 10.606601717798213 10.606601717798208 12.999999999999998
    vertex 11.095244961663028 5.896973581258578 12.999999999999998
    vertex 12.990381056766585 7.499999999999989 12.999999999999998
  endloop
endfacet
facet normal -0.0 -0.0 1.0
  outer loop
    vertex 12.990381056766585 7.499999999999989 12.999999999999998
    vertex 11.095244961663028 5.896973581258578 12.999999999999998
    vertex 12.564440363961879 5.896973581258578 12.999999999999998
  endloop
endfacet
facet normal -0.0 -0.0 1.0
  outer loop
    vertex 12.990381056766585 7.499999999999989 12.999999999999998
    vertex 12.564440363961879 5.896973581258578 12.999999999999998
    vertex 12.990381056766573 -7.500000000000006 12.999999999999998
  endloop
endfacet
facet normal -0.0 -0.0 1.0
  outer loop
    vertex 12.990381056766585 7.499999999999989 12.999999999999998
    vertex 12.990381056766573 -7.500000000000006 12.999999999999998
    vertex 14.488887394336018 -3.8822856765378226 12.999999999999998
  endloop
endfacet
facet normal -0.0 -0.0 1.0
  outer loop
    vertex 12.990381056766585 7.499999999999989 12.999999999999998
    vertex 14.488887394336018 -3.8822856765378226 12.999999999999998
    vertex 14.488887394336025 3.882285676537804 12.999999999999998
  endloop
endfacet
facet normal -0.0 -0.0 1.0
  outer loop
    vertex 14.488887394336025 3.882285676537804 12.999999999999998
    vertex 14.488887394336018 -3.8822856765378226 12.999999999999998
    vertex 14.999999999999998 -2.755455298081544e-15 12.999999999999998
  endloop
endfacet
facet normal -0.0 -0.0 1.0
  outer loop
    vertex -5.488854655195211 -3.8457211824706676 12.999999999999998
    vertex -10.423273556855492 5.896973581258578 12.999999999999998
    vertex -10.423273556855492 -3.8457211824706676 12.999999999999998
  endloop
endfacet
facet normal -0.0 -0.0 1.0
  outer loop
    vertex -10.423273556855492 5.896973581258578 12.999999999999998
    vertex -5.488854655195211 -3.8457211824706676 12.999999999999998
    vertex -7.499999999999997 12.990381056766578 12.999999999999998
  endloop
endfacet
facet normal -0.0 -0.0 1.0
  outer loop
    vertex -7.499999999999997 12.990381056766578 12.999999999999998
    vertex -5.488854655195211 -3.8457211824706676 12.999999999999998
    vertex -5.459173939997254 5.896973581258578 12.999999999999998
  endloop
endfacet
facet normal -0.0 -0.0 1.0
  outer loop
    vertex -7.499999999999997 12.990381056766578 12.999999999999998
    vertex -5.459173939997254 5.896973581258578 12.999999999999998
    vertex -3.8822856765378106 14.488887394336022 12.999999999999998
  endloop
endfacet
facet normal -0.0 -0.0 1.0
  outer loop
    vertex -5.459173939997254 5.896973581258578 12.999999999999998
    vertex -5.488854655195211 -3.8457211824706676 12.999999999999998
    vertex -5.459173939997254 4.591022112548489 12.999999999999998
  endloop
endfacet
facet normal -0.0 -0.0 1.0
  outer loop
    vertex -3.8822856765378106 14.488887394336022 12.999999999999998
    vertex -5.459173939997254 5.896973581258578 12.999999999999998
    vertex 3.4302002617907426 5.896973581258578 12.999999999999998
  endloop
endfacet
facet normal -0.0 -0.0 1.0
  outer loop
    vertex -3.8822856765378106 14.488887394336022 12.999999999999998
    vertex 3.4302002617907426 5.896973581258578 12.999999999999998
    vertex 0.0 14.999999999999998 12.999999999999998
  endloop
endfacet
facet normal -0.0 -0.0 1.0
  outer loop
    vertex 0.0 14.999999999999998 12.999999999999998
    vertex 3.4302002617907426 5.896973581258578 12.999999999999998
    vertex 3.882285676537823 14.488887394336018 12.999999999999998
  endloop
endfacet
facet normal -0.0 -0.0 1.0
  outer loop
    vertex 3.882285676537823 14.488887394336018 12.999999999999998
    vertex 3.4302002617907426 5.896973581258578 12.999999999999998
    vertex 3.882285676537805 -14.488887394336025 12.999999999999998
  endloop
endfacet
facet normal -0.0 -0.0 1.0
  outer loop
    vertex 3.882285676537823 14.488887394336018 12.999999999999998
    vertex 3.882285676537805 -14.488887394336025 12.999999999999998
    vertex 4.543227081714112 -5.151672651180757 12.999999999999998
  endloop
endfacet
facet normal -0.0 -0.0 1.0
  outer loop
    vertex 4.543227081714112 -5.151672651180757 12.999999999999998
    vertex 3.882285676537805 -14.488887394336025 12.999999999999998
    vertex 7.499999999999995 -12.990381056766578 12.999999999999998
  endloop
endfacet
facet normal -0.0 -0.0 1.0
  outer loop
    vertex 4.543227081714112 -5.151672651180757 12.999999999999998
    vertex 7.499999999999995 -12.990381056766578 12.999999999999998
    vertex 6.012422484012962 -5.151672651180757 12.999999999999998
  endloop
endfacet
facet normal -0.0 -0.0 1.0
  outer loop
    vertex 6.012422484012962 -5.151672651180757 12.999999999999998
    vertex 7.499999999999995 -12.990381056766578 12.999999999999998
    vertex 6.012422484012962 0.25763769364682976 12.999999999999998
  endloop
endfacet
facet normal -0.0 -0.0 1.0
  outer loop
    vertex 6.012422484012962 0.25763769364682976 12.999999999999998
    vertex 7.499999999999995 -12.990381056766578 12.999999999999998
    vertex 11.095244961663028 0.25763769364682976 12.999999999999998
  endloop
endfacet
facet normal -0.0 -0.0 1.0
  outer loop
    vertex 11.095244961663028 0.25763769364682976 12.999999999999998
    vertex 7.499999999999995 -12.990381056766578 12.999999999999998
    vertex 10.606601717798206 -10.606601717798217 12.999999999999998
  endloop
endfacet
facet normal -0.0 -0.0 1.0
  outer loop
    vertex 11.095244961663028 0.25763769364682976 12.999999999999998
    vertex 10.606601717798206 -10.606601717798217 12.999999999999998
    vertex 11.095244961663028 -5.151672651180757 12.999999999999998
  endloop
endfacet
facet normal -0.0 -0.0 1.0
  outer loop
    vertex 3.882285676537823 14.488887394336018 12.999999999999998
    vertex 4.543227081714112 5.896973581258578 12.999999999999998
    vertex 7.500000000000006 12.990381056766573 12.999999999999998
  endloop
endfacet
facet normal -0.0 -0.0 1.0
  outer loop
    vertex 4.543227081714112 5.896973581258578 12.999999999999998
    vertex 3.882285676537823 14.488887394336018 12.999999999999998
    vertex 4.543227081714112 -5.151672651180757 12.999999999999998
  endloop
endfacet
facet normal -0.0 -0.0 1.0
  outer loop
    vertex 7.500000000000006 12.990381056766573 12.999999999999998
    vertex 4.543227081714112 5.896973581258578 12.999999999999998
    vertex 6.012422484012962 5.896973581258578 12.999999999999998
  endloop
endfacet
facet normal -0.25881904510252063 0.9659258262890682 0.0
  outer loop
    vertex -3.8822856765378106 14.488887394336022 12.999999999999998
    vertex 0.0 14.999999999999998 0.0
    vertex -3.8822856765378106 14.488887394336022 0.0
  endloop
endfacet
facet normal 1.514888682259974e-16 1.0 0.0
  outer loop
    vertex 0.0 14.999999999999998 0.0
    vertex -3.8822856765378106 14.488887394336022 12.999999999999998
    vertex 0.0 14.999999999999998 12.999999999999998
  endloop
endfacet
facet normal 0.25881904510252135 0.9659258262890682 0.0
  outer loop
    vertex 3.882285676537823 14.488887394336018 12.999999999999998
    vertex 7.500000000000006 12.990381056766573 0.0
    vertex 3.882285676537823 14.488887394336018 0.0
  endloop
endfacet
facet normal 0.5000000000000006 0.8660254037844384 0.0
  outer loop
    vertex 7.500000000000006 12.990381056766573 0.0
    vertex 3.882285676537823 14.488887394336018 12.999999999999998
    vertex 7.500000000000006 12.990381056766573 12.999999999999998
  endloop
endfacet
facet normal -0.8660254037844388 -0.4999999999999997 0.0
  outer loop
    vertex -12.990381056766578 -7.4999999999999964 12.999999999999998
    vertex -10.606601717798213 -10.606601717798211 0.0
    vertex -10.606601717798213 -10.606601717798211 12.999999999999998
  endloop
endfacet
facet normal -0.7071067811865477 -0.7071067811865472 0.0
  outer loop
    vertex -10.606601717798213 -10.606601717798211 0.0
    vertex -12.990381056766578 -7.4999999999999964 12.999999999999998
    vertex -12.990381056766578 -7.4999999999999964 0.0
  endloop
endfacet
facet normal -1.0 -5.346665937388143e-17 0.0
  outer loop
    vertex -14.999999999999998 9.184850993605148e-16 12.999999999999998
    vertex -14.488887394336022 -3.882285676537809 0.0
    vertex -14.488887394336022 -3.882285676537809 12.999999999999998
  endloop
endfacet
facet normal -0.9659258262890682 -0.25881904510252063 0.0
  outer loop
    vertex -14.488887394336022 -3.882285676537809 0.0
    vertex -14.999999999999998 9.184850993605148e-16 12.999999999999998
    vertex -14.999999999999998 9.184850993605148e-16 0.0
  endloop
endfacet
facet normal -0.9659258262890682 0.2588190451025209 0.0
  outer loop
    vertex -14.488887394336022 3.882285676537814 12.999999999999998
    vertex -14.999999999999998 9.184850993605148e-16 0.0
    vertex -14.999999999999998 9.184850993605148e-16 12.999999999999998
  endloop
endfacet
facet normal -1.0 -5.346665937388143e-17 0.0
  outer loop
    vertex -14.999999999999998 9.184850993605148e-16 0.0
    vertex -14.488887394336022 3.882285676537814 12.999999999999998
    vertex -14.488887394336022 3.882285676537814 0.0
  endloop
endfacet
facet normal -0.7071067811865477 0.7071067811865475 0.0
  outer loop
    vertex -10.606601717798211 10.606601717798213 12.999999999999998
    vertex -12.990381056766577 7.5 0.0
    vertex -12.990381056766577 7.5 12.999999999999998
  endloop
endfacet
facet normal -0.8660254037844386 0.5 0.0
  outer loop
    vertex -12.990381056766577 7.5 0.0
    vertex -10.606601717798211 10.606601717798213 12.999999999999998
    vertex -10.606601717798211 10.606601717798213 0.0
  endloop
endfacet
facet normal 1.514888682259974e-16 1.0 0.0
  outer loop
    vertex 0.0 14.999999999999998 12.999999999999998
    vertex 3.882285676537823 14.488887394336018 0.0
    vertex 0.0 14.999999999999998 0.0
  endloop
endfacet
facet normal 0.25881904510252135 0.9659258262890682 0.0
  outer loop
    vertex 3.882285676537823 14.488887394336018 0.0
    vertex 0.0 14.999999999999998 12.999999999999998
    vertex 3.882285676537823 14.488887394336018 12.999999999999998
  endloop
endfacet
facet normal 0.7071067811865477 0.7071067811865475 0.0
  outer loop
    vertex 10.606601717798213 10.606601717798208 0.0
    vertex 12.990381056766585 7.499999999999989 12.999999999999998
    vertex 12.990381056766585 7.499999999999989 0.0
  endloop
endfacet
facet normal 0.8660254037844389 0.49999999999999967 0.0
  outer loop
    vertex 12.990381056766585 7.499999999999989 12.999999999999998
    vertex 10.606601717798213 10.606601717798208 0.0
    vertex 10.606601717798213 10.606601717798208 12.999999999999998
  endloop
endfacet
facet normal -0.8660254037844386 0.5 0.0
  outer loop
    vertex -12.990381056766577 7.5 12.999999999999998
    vertex -14.488887394336022 3.882285676537814 0.0
    vertex -14.488887394336022 3.882285676537814 12.999999999999998
  endloop
endfacet
facet normal -0.9659258262890682 0.2588190451025209 0.0
  outer loop
    vertex -14.488887394336022 3.882285676537814 0.0
    vertex -12.990381056766577 7.5 12.999999999999998
    vertex -12.990381056766577 7.5 0.0
  endloop
endfacet
facet normal 0.5000000000000006 0.8660254037844384 0.0
  outer loop
    vertex 7.500000000000006 12.990381056766573 12.999999999999998
    vertex 10.606601717798213 10.606601717798208 0.0
    vertex 7.500000000000006 12.990381056766573 0.0
  endloop
endfacet
facet normal 0.7071067811865477 0.7071067811865475 0.0
  outer loop
    vertex 10.606601717798213 10.606601717798208 0.0
    vertex 7.500000000000006 12.990381056766573 12.999999999999998
    vertex 10.606601717798213 10.606601717798208 12.999999999999998
  endloop
endfacet
facet normal -2.7624440676505406e-16 -1.0 0.0
  outer loop
    vertex -1.8369701987210296e-15 -14.999999999999998 12.999999999999998
    vertex -3.8822856765378146 -14.488887394336022 0.0
    vertex -1.8369701987210296e-15 -14.999999999999998 0.0
  endloop
endfacet
facet normal -0.2588190451025208 -0.9659258262890682 0.0
  outer loop
    vertex -3.8822856765378146 -14.488887394336022 0.0
    vertex -1.8369701987210296e-15 -14.999999999999998 12.999999999999998
    vertex -3.8822856765378146 -14.488887394336022 12.999999999999998
  endloop
endfacet
facet normal -0.2588190451025208 -0.9659258262890682 0.0
  outer loop
    vertex -3.8822856765378146 -14.488887394336022 12.999999999999998
    vertex -7.500000000000004 -12.990381056766577 0.0
    vertex -3.8822856765378146 -14.488887394336022 0.0
  endloop
endfacet
facet normal -0.5000000000000001 -0.8660254037844386 0.0
  outer loop
    vertex -7.500000000000004 -12.990381056766577 0.0
    vertex -3.8822856765378146 -14.488887394336022 12.999999999999998
    vertex -7.500000000000004 -12.990381056766577 12.999999999999998
  endloop
endfacet
facet normal -0.5000000000000001 -0.8660254037844386 0.0
  outer loop
    vertex -7.500000000000004 -12.990381056766577 12.999999999999998
    vertex -10.606601717798213 -10.606601717798211 0.0
    vertex -7.500000000000004 -12.990381056766577 0.0
  endloop
endfacet
facet normal -0.7071067811865477 -0.7071067811865472 0.0
  outer loop
    vertex -10.606601717798213 -10.606601717798211 0.0
    vertex -7.500000000000004 -12.990381056766577 12.999999999999998
    vertex -10.606601717798213 -10.606601717798211 12.999999999999998
  endloop
endfacet
facet normal 0.0 0.0 -1.0
  outer loop
    vertex -14.488887394336022 3.882285676537814 0.0
    vertex -14.488887394336022 -3.882285676537809 0.0
    vertex -14.999999999999998 9.184850993605148e-16 0.0
  endloop
endfacet
facet normal 0.0 0.0 -1.0
  outer loop
    vertex -14.488887394336022 -3.882285676537809 0.0
    vertex -14.488887394336022 3.882285676537814 0.0
    vertex -12.990381056766577 7.5 0.0
  endloop
endfacet
facet normal 0.0 0.0 -1.0
  outer loop
    vertex -14.488887394336022 -3.882285676537809 0.0
    vertex -12.990381056766577 7.5 0.0
    vertex -12.999999999999998 3.980102097228896e-15 0.0
  endloop
endfacet
facet normal 0.0 0.0 -1.0
  outer loop
    vertex -12.999999999999998 3.980102097228896e-15 0.0
    vertex -12.990381056766577 7.5 0.0
    vertex -12.557035741757886 3.364647586332775 0.0
  endloop
endfacet
facet normal 0.0 0.0 -1.0
  outer loop
    vertex -12.557035741757886 3.364647586332775 0.0
    vertex -12.990381056766577 7.5 0.0
    vertex -10.606601717798211 10.606601717798213 0.0
  endloop
endfacet
facet normal 0.0 0.0 -1.0
  outer loop
    vertex -12.557035741757886 3.364647586332775 0.0
    vertex -10.606601717798211 10.606601717798213 0.0
    vertex -11.258330249197698 6.500000000000005 0.0
  endloop
endfacet
facet normal 0.0 0.0 -1.0
  outer loop
    vertex -11.258330249197698 6.500000000000005 0.0
    vertex -10.606601717798211 10.606601717798213 0.0
    vertex -9.192388155425116 9.19238815542512 0.0
  endloop
endfacet
facet normal 0.0 0.0 -1.0
  outer loop
    vertex -9.192388155425116 9.19238815542512 0.0
    vertex -10.606601717798211 10.606601717798213 0.0
    vertex -7.499999999999997 12.990381056766578 0.0
  endloop
endfacet
facet normal 0.0 0.0 -1.0
  outer loop
    vertex -9.192388155425116 9.19238815542512 0.0
    vertex -7.499999999999997 12.990381056766578 0.0
    vertex -6.499999999999996 11.258330249197703 0.0
  endloop
endfacet
facet normal 0.0 0.0 -1.0
  outer loop
    vertex -6.499999999999996 11.258330249197703 0.0
    vertex -7.499999999999997 12.990381056766578 0.0
    vertex -3.8822856765378106 14.488887394336022 0.0
  endloop
endfacet
facet normal 0.0 0.0 -1.0
  outer loop
    vertex -6.499999999999996 11.258330249197703 0.0
    vertex -3.8822856765378106 14.488887394336022 0.0
    vertex -3.3646475863327656 12.557035741757888 0.0
  endloop
endfacet
facet normal 0.0 0.0 -1.0
  outer loop
    vertex -3.3646475863327656 12.557035741757888 0.0
    vertex -3.8822856765378106 14.488887394336022 0.0
    vertex 0.0 14.999999999999998 0.0
  endloop
endfacet
facet normal 0.0 0.0 -1.0
  outer loop
    vertex -3.3646475863327656 12.557035741757888 0.0
    vertex 0.0 14.999999999999998 0.0
    vertex 3.1840816777831178e-15 12.999999999999998 0.0
  endloop
endfacet
facet normal 0.0 0.0 -1.0
  outer loop
    vertex 3.1840816777831178e-15 12.999999999999998 0.0
    vertex 0.0 14.999999999999998 0.0
    vertex 3.882285676537823 14.488887394336018 0.0
  endloop
endfacet
facet normal 0.0 0.0 -1.0
  outer loop
    vertex 3.1840816777831178e-15 12.999999999999998 0.0
    vertex 3.882285676537823 14.488887394336018 0.0
    vertex 3.364647586332774 12.557035741757886 0.0
  endloop
endfacet
facet normal 0.0 0.0 -1.0
  outer loop
    vertex 3.364647586332774 12.557035741757886 0.0
    vertex 3.882285676537823 14.488887394336018 0.0
    vertex 6.500000000000002 11.2583302491977 0.0
  endloop
endfacet
facet normal 0.0 0.0 -1.0
  outer loop
    vertex 6.500000000000002 11.2583302491977 0.0
    vertex 3.882285676537823 14.488887394336018 0.0
    vertex 7.500000000000006 12.990381056766573 0.0
  endloop
endfacet
facet normal 0.0 0.0 -1.0
  outer loop
    vertex 6.500000000000002 11.2583302491977 0.0
    vertex 7.500000000000006 12.990381056766573 0.0
    vertex 9.19238815542512 9.192388155425116 0.0
  endloop
endfacet
facet normal 0.0 0.0 -1.0
  outer loop
    vertex 9.19238815542512 9.192388155425116 0.0
    vertex 7.500000000000006 12.990381056766573 0.0
    vertex 10.606601717798213 10.606601717798208 0.0
  endloop
endfacet
facet normal 0.0 0.0 -1.0
  outer loop
    vertex 9.19238815542512 9.192388155425116 0.0
    vertex 10.606601717798213 10.606601717798208 0.0
    vertex 11.258330249197703 6.4999999999999964 0.0
  endloop
endfacet
facet normal 0.0 0.0 -1.0
  outer loop
    vertex 11.258330249197703 6.4999999999999964 0.0
    vertex 10.606601717798213 10.606601717798208 0.0
    vertex 12.990381056766585 7.499999999999989 0.0
  endloop
endfacet
facet normal 0.0 0.0 -1.0
  outer loop
    vertex 11.258330249197703 6.4999999999999964 0.0
    vertex 12.990381056766585 7.499999999999989 0.0
    vertex 12.557035741757888 3.364647586332767 0.0
  endloop
endfacet
facet normal 0.0 0.0 -1.0
  outer loop
    vertex 12.557035741757888 3.364647586332767 0.0
    vertex 12.990381056766585 7.499999999999989 0.0
    vertex 12.999999999999998 -2.388061258337338e-15 0.0
  endloop
endfacet
facet normal 0.0 0.0 -1.0
  outer loop
    vertex 12.999999999999998 -2.388061258337338e-15 0.0
    vertex 12.990381056766585 7.499999999999989 0.0
    vertex 14.488887394336025 3.882285676537804 0.0
  endloop
endfacet
facet normal 0.0 0.0 -1.0
  outer loop
    vertex 12.999999999999998 -2.388061258337338e-15 0.0
    vertex 14.488887394336025 3.882285676537804 0.0
    vertex 14.999999999999998 -2.755455298081544e-15 0.0
  endloop
endfacet
facet normal 0.0 0.0 -1.0
  outer loop
    vertex -12.999999999999998 3.980102097228896e-15 0.0
    vertex -12.990381056766578 -7.4999999999999964 0.0
    vertex -14.488887394336022 -3.882285676537809 0.0
  endloop
endfacet
facet normal 0.0 0.0 -1.0
  outer loop
    vertex -12.990381056766578 -7.4999999999999964 0.0
    vertex -12.999999999999998 3.980102097228896e-15 0.0
    vertex -12.557035741757888 -3.364647586332762 0.0
  endloop
endfacet
facet normal 0.0 0.0 -1.0
  outer loop
    vertex -12.990381056766578 -7.4999999999999964 0.0
    vertex -12.557035741757888 -3.364647586332762 0.0
    vertex -10.606601717798213 -10.606601717798211 0.0
  endloop
endfacet
facet normal 0.0 0.0 -1.0
  outer loop
    vertex -10.606601717798213 -10.606601717798211 0.0
    vertex -12.557035741757888 -3.364647586332762 0.0
    vertex -11.258330249197705 -6.499999999999994 0.0
  endloop
endfacet
facet normal 0.0 0.0 -1.0
  outer loop
    vertex -10.606601717798213 -10.606601717798211 0.0
    vertex -11.258330249197705 -6.499999999999994 0.0
    vertex -9.192388155425125 -9.19238815542511 0.0
  endloop
endfacet
facet normal 0.0 0.0 -1.0
  outer loop
    vertex -10.606601717798213 -10.606601717798211 0.0
    vertex -9.192388155425125 -9.19238815542511 0.0
    vertex -7.500000000000004 -12.990381056766577 0.0
  endloop
endfacet
facet normal 0.0 0.0 -1.0
  outer loop
    vertex -7.500000000000004 -12.990381056766577 0.0
    vertex -9.192388155425125 -9.19238815542511 0.0
    vertex -6.500000000000006 -11.258330249197696 0.0
  endloop
endfacet
facet normal 0.0 0.0 -1.0
  outer loop
    vertex -7.500000000000004 -12.990381056766577 0.0
    vertex -6.500000000000006 -11.258330249197696 0.0
    vertex -3.8822856765378146 -14.488887394336022 0.0
  endloop
endfacet
facet normal 0.0 0.0 -1.0
  outer loop
    vertex -3.8822856765378146 -14.488887394336022 0.0
    vertex -6.500000000000006 -11.258330249197696 0.0
    vertex -3.364647586332781 -12.557035741757884 0.0
  endloop
endfacet
facet normal 0.0 0.0 -1.0
  outer loop
    vertex -3.8822856765378146 -14.488887394336022 0.0
    vertex -3.364647586332781 -12.557035741757884 0.0
    vertex -1.8369701987210296e-15 -14.999999999999998 0.0
  endloop
endfacet
facet normal 0.0 0.0 -1.0
  outer loop
    vertex -1.8369701987210296e-15 -14.999999999999998 0.0
    vertex -3.364647586332781 -12.557035741757884 0.0
    vertex -4.776122516674676e-15 -12.999999999999998 0.0
  endloop
endfacet
facet normal 0.0 0.0 -1.0
  outer loop
    vertex -1.8369701987210296e-15 -14.999999999999998 0.0
    vertex -4.776122516674676e-15 -12.999999999999998 0.0
    vertex 3.3646475863327616 -12.557035741757888 0.0
  endloop
endfacet
facet normal 0.0 0.0 -1.0
  outer loop
    vertex -1.8369701987210296e-15 -14.999999999999998 0.0
    vertex 3.3646475863327616 -12.557035741757888 0.0
    vertex 3.882285676537805 -14.488887394336025 0.0
  endloop
endfacet
facet normal 0.0 0.0 -1.0
  outer loop
    vertex 3.882285676537805 -14.488887394336025 0.0
    vertex 3.3646475863327616 -12.557035741757888 0.0
    vertex 6.499999999999989 -11.258330249197709 0.0
  endloop
endfacet
facet normal 0.0 0.0 -1.0
  outer loop
    vertex 3.882285676537805 -14.488887394336025 0.0
    vertex 6.499999999999989 -11.258330249197709 0.0
    vertex 7.499999999999995 -12.990381056766578 0.0
  endloop
endfacet
facet normal 0.0 0.0 -1.0
  outer loop
    vertex 7.499999999999995 -12.990381056766578 0.0
    vertex 6.499999999999989 -11.258330249197709 0.0
    vertex 9.192388155425114 -9.192388155425121 0.0
  endloop
endfacet
facet normal 0.0 0.0 -1.0
  outer loop
    vertex 7.499999999999995 -12.990381056766578 0.0
    vertex 9.192388155425114 -9.192388155425121 0.0
    vertex 10.606601717798206 -10.606601717798217 0.0
  endloop
endfacet
facet normal 0.0 0.0 -1.0
  outer loop
    vertex 10.606601717798206 -10.606601717798217 0.0
    vertex 9.192388155425114 -9.192388155425121 0.0
    vertex 11.258330249197696 -6.500000000000006 0.0
  endloop
endfacet
facet normal 0.0 0.0 -1.0
  outer loop
    vertex 10.606601717798206 -10.606601717798217 0.0
    vertex 11.258330249197696 -6.500000000000006 0.0
    vertex 12.990381056766573 -7.500000000000006 0.0
  endloop
endfacet
facet normal 0.0 0.0 -1.0
  outer loop
    vertex 12.990381056766573 -7.500000000000006 0.0
    vertex 11.258330249197696 -6.500000000000006 0.0
    vertex 12.557035741757884 -3.364647586332782 0.0
  endloop
endfacet
facet normal 0.0 0.0 -1.0
  outer loop
    vertex 12.990381056766573 -7.500000000000006 0.0
    vertex 12.557035741757884 -3.364647586332782 0.0
    vertex 12.999999999999998 -2.388061258337338e-15 0.0
  endloop
endfacet
facet normal 0.0 0.0 -1.0
  outer loop
    vertex 12.990381056766573 -7.500000000000006 0.0
    vertex 12.999999999999998 -2.388061258337338e-15 0.0
    vertex 14.488887394336018 -3.8822856765378226 0.0
  endloop
endfacet
facet normal 0.0 0.0 -1.0
  outer loop
    vertex 14.488887394336018 -3.8822856765378226 0.0
    vertex 12.999999999999998 -2.388061258337338e-15 0.0
    vertex 14.999999999999998 -2.755455298081544e-15 0.0
  endloop
endfacet
facet normal 0.0 0.0 -1.0
  outer loop
    vertex -12.557035741757886 3.364647586332775 11.0
    vertex -12.557035741757888 -3.364647586332762 11.0
    vertex -12.999999999999998 3.980102097228896e-15 11.0
  endloop
endfacet
facet normal 0.0 0.0 -1.0
  outer loop
    vertex -12.557035741757888 -3.364647586332762 11.0
    vertex -12.557035741757886 3.364647586332775 11.0
    vertex -11.258330249197705 -6.499999999999994 11.0
  endloop
endfacet
facet normal 0.0 0.0 -1.0
  outer loop
    vertex -11.258330249197705 -6.499999999999994 11.0
    vertex -12.557035741757886 3.364647586332775 11.0
    vertex -11.258330249197698 6.500000000000005 11.0
  endloop
endfacet
facet normal 0.0 0.0 -1.0
  outer loop
    vertex -11.258330249197705 -6.499999999999994 11.0
    vertex -11.258330249197698 6.500000000000005 11.0
    vertex -9.192388155425125 -9.19238815542511 11.0
  endloop
endfacet
facet normal 0.0 0.0 -1.0
  outer loop
    vertex -9.192388155425125 -9.19238815542511 11.0
    vertex -11.258330249197698 6.500000000000005 11.0
    vertex -9.192388155425116 9.19238815542512 11.0
  endloop
endfacet
facet normal 0.0 0.0 -1.0
  outer loop
    vertex -9.192388155425125 -9.19238815542511 11.0
    vertex -9.192388155425116 9.19238815542512 11.0
    vertex -6.500000000000006 -11.258330249197696 11.0
  endloop
endfacet
facet normal 0.0 0.0 -1.0
  outer loop
    vertex -6.500000000000006 -11.258330249197696 11.0
    vertex -9.192388155425116 9.19238815542512 11.0
    vertex -6.499999999999996 11.258330249197703 11.0
  endloop
endfacet
facet normal 0.0 0.0 -1.0
  outer loop
    vertex -6.500000000000006 -11.258330249197696 11.0
    vertex -6.499999999999996 11.258330249197703 11.0
    vertex -3.364647586332781 -12.557035741757884 11.0
  endloop
endfacet
facet normal 0.0 0.0 -1.0
  outer loop
    vertex -3.364647586332781 -12.557035741757884 11.0
    vertex -6.499999999999996 11.258330249197703 11.0
    vertex -3.3646475863327656 12.557035741757888 11.0
  endloop
endfacet
facet normal 0.0 0.0 -1.0
  outer loop
    vertex -3.364647586332781 -12.557035741757884 11.0
    vertex -3.3646475863327656 12.557035741757888 11.0
    vertex -4.776122516674676e-15 -12.999999999999998 11.0
  endloop
endfacet
facet normal 0.0 0.0 -1.0
  outer loop
    vertex -4.776122516674676e-15 -12.999999999999998 11.0
    vertex -3.3646475863327656 12.557035741757888 11.0
    vertex 3.1840816777831178e-15 12.999999999999998 11.0
  endloop
endfacet
facet normal 0.0 0.0 -1.0
  outer loop
    vertex -4.776122516674676e-15 -12.999999999999998 11.0
    vertex 3.1840816777831178e-15 12.999999999999998 11.0
    vertex 3.3646475863327616 -12.557035741757888 11.0
  endloop
endfacet
facet normal 0.0 0.0 -1.0
  outer loop
    vertex 3.3646475863327616 -12.557035741757888 11.0
    vertex 3.1840816777831178e-15 12.999999999999998 11.0
    vertex 3.364647586332774 12.557035741757886 11.0
  endloop
endfacet
facet normal 0.0 0.0 -1.0
  outer loop
    vertex 3.3646475863327616 -12.557035741757888 11.0
    vertex 3.364647586332774 12.557035741757886 11.0
    vertex 6.499999999999989 -11.258330249197709 11.0
  endloop
endfacet
facet normal 0.0 0.0 -1.0
  outer loop
    vertex 6.499999999999989 -11.258330249197709 11.0
    vertex 3.364647586332774 12.557035741757886 11.0
    vertex 6.500000000000002 11.2583302491977 11.0
  endloop
endfacet
facet normal 0.0 0.0 -1.0
  outer loop
    vertex 6.499999999999989 -11.258330249197709 11.0
    vertex 6.500000000000002 11.2583302491977 11.0
    vertex 9.192388155425114 -9.192388155425121 11.0
  endloop
endfacet
facet normal 0.0 0.0 -1.0
  outer loop
    vertex 9.192388155425114 -9.192388155425121 11.0
    vertex 6.500000000000002 11.2583302491977 11.0
    vertex 9.19238815542512 9.192388155425116 11.0
  endloop
endfacet
facet normal 0.0 0.0 -1.0
  outer loop
    vertex 9.192388155425114 -9.192388155425121 11.0
    vertex 9.19238815542512 9.192388155425116 11.0
    vertex 11.258330249197696 -6.500000000000006 11.0
  endloop
endfacet
facet normal 0.0 0.0 -1.0
  outer loop
    vertex 11.258330249197696 -6.500000000000006 11.0
    vertex 9.19238815542512 9.192388155425116 11.0
    vertex 11.258330249197703 6.4999999999999964 11.0
  endloop
endfacet
facet normal 0.0 0.0 -1.0
  outer loop
    vertex 11.258330249197696 -6.500000000000006 11.0
    vertex 11.258330249197703 6.4999999999999964 11.0
    vertex 12.557035741757884 -3.364647586332782 11.0
  endloop
endfacet
facet normal 0.0 0.0 -1.0
  outer loop
    vertex 12.557035741757884 -3.364647586332782 11.0
    vertex 11.258330249197703 6.4999999999999964 11.0
    vertex 12.557035741757888 3.364647586332767 11.0
  endloop
endfacet
facet normal 0.0 0.0 -1.0
  outer loop
    vertex 12.557035741757884 -3.364647586332782 11.0
    vertex 12.557035741757888 3.364647586332767 11.0
    vertex 12.999999999999998 -2.388061258337338e-15 11.0
  endloop
endfacet
facet normal -0.9659258262890684 -0.25881904510252046 0.0
  outer loop
    vertex 12.557035741757888 3.364647586332767 11.0
    vertex 12.999999999999998 -2.388061258337338e-15 0.0
    vertex 12.999999999999998 -2.388061258337338e-15 11.0
  endloop
endfacet
facet normal -1.0 2.3168885728681954e-16 0.0
  outer loop
    vertex 12.999999999999998 -2.388061258337338e-15 0.0
    vertex 12.557035741757888 3.364647586332767 11.0
    vertex 12.557035741757888 3.364647586332767 0.0
  endloop
endfacet
facet normal -1.0 2.3168885728681954e-16 0.0
  outer loop
    vertex 12.999999999999998 -2.388061258337338e-15 11.0
    vertex 12.557035741757884 -3.364647586332782 0.0
    vertex 12.557035741757884 -3.364647586332782 11.0
  endloop
endfacet
facet normal -0.9659258262890681 0.25881904510252146 0.0
  outer loop
    vertex 12.557035741757884 -3.364647586332782 0.0
    vertex 12.999999999999998 -2.388061258337338e-15 11.0
    vertex 12.999999999999998 -2.388061258337338e-15 0.0
  endloop
endfacet
facet normal -0.9659258262890681 0.25881904510252146 0.0
  outer loop
    vertex 12.557035741757884 -3.364647586332782 11.0
    vertex 11.258330249197696 -6.500000000000006 0.0
    vertex 11.258330249197696 -6.500000000000006 11.0
  endloop
endfacet
facet normal -0.8660254037844383 0.5000000000000006 0.0
  outer loop
    vertex 11.258330249197696 -6.500000000000006 0.0
    vertex 12.557035741757884 -3.364647586332782 11.0
    vertex 12.557035741757884 -3.364647586332782 0.0
  endloop
endfacet
facet normal -0.8660254037844383 0.5000000000000006 0.0
  outer loop
    vertex 11.258330249197696 -6.500000000000006 11.0
    vertex 9.192388155425114 -9.192388155425121 0.0
    vertex 9.192388155425114 -9.192388155425121 11.0
  endloop
endfacet
facet normal -0.7071067811865472 0.7071067811865478 0.0
  outer loop
    vertex 9.192388155425114 -9.192388155425121 0.0
    vertex 11.258330249197696 -6.500000000000006 11.0
    vertex 11.258330249197696 -6.500000000000006 0.0
  endloop
endfacet
facet normal -0.49999999999999917 0.8660254037844392 0.0
  outer loop
    vertex 6.499999999999989 -11.258330249197709 11.0
    vertex 9.192388155425114 -9.192388155425121 0.0
    vertex 6.499999999999989 -11.258330249197709 0.0
  endloop
endfacet
facet normal -0.7071067811865472 0.7071067811865478 0.0
  outer loop
    vertex 9.192388155425114 -9.192388155425121 0.0
    vertex 6.499999999999989 -11.258330249197709 11.0
    vertex 9.192388155425114 -9.192388155425121 11.0
  endloop
endfacet
facet normal -0.25881904510251996 0.9659258262890684 0.0
  outer loop
    vertex 3.3646475863327616 -12.557035741757888 11.0
    vertex 6.499999999999989 -11.258330249197709 0.0
    vertex 3.3646475863327616 -12.557035741757888 0.0
  endloop
endfacet
facet normal -0.49999999999999917 0.8660254037844392 0.0
  outer loop
    vertex 6.499999999999989 -11.258330249197709 0.0
    vertex 3.3646475863327616 -12.557035741757888 11.0
    vertex 6.499999999999989 -11.258330249197709 11.0
  endloop
endfacet
facet normal 4.1882216509540457e-16 1.0 0.0
  outer loop
    vertex -4.776122516674676e-15 -12.999999999999998 11.0
    vertex 3.3646475863327616 -12.557035741757888 0.0
    vertex -4.776122516674676e-15 -12.999999999999998 0.0
  endloop
endfacet
facet normal -0.25881904510251996 0.9659258262890684 0.0
  outer loop
    vertex 3.3646475863327616 -12.557035741757888 0.0
    vertex -4.776122516674676e-15 -12.999999999999998 11.0
    vertex 3.3646475863327616 -12.557035741757888 11.0
  endloop
endfacet
facet normal 0.2588190451025215 0.9659258262890681 0.0
  outer loop
    vertex -3.364647586332781 -12.557035741757884 11.0
    vertex -4.776122516674676e-15 -12.999999999999998 0.0
    vertex -3.364647586332781 -12.557035741757884 0.0
  endloop
endfacet
facet normal 4.1882216509540457e-16 1.0 0.0
  outer loop
    vertex -4.776122516674676e-15 -12.999999999999998 0.0
    vertex -3.364647586332781 -12.557035741757884 11.0
    vertex -4.776122516674676e-15 -12.999999999999998 11.0
  endloop
endfacet
facet normal 0.5000000000000008 0.8660254037844383 0.0
  outer loop
    vertex -6.500000000000006 -11.258330249197696 11.0
    vertex -3.364647586332781 -12.557035741757884 0.0
    vertex -6.500000000000006 -11.258330249197696 0.0
  endloop
endfacet
facet normal 0.2588190451025215 0.9659258262890681 0.0
  outer loop
    vertex -3.364647586332781 -12.557035741757884 0.0
    vertex -6.500000000000006 -11.258330249197696 11.0
    vertex -3.364647586332781 -12.557035741757884 11.0
  endloop
endfacet
facet normal 0.7071067811865479 0.7071067811865471 0.0
  outer loop
    vertex -9.192388155425125 -9.19238815542511 11.0
    vertex -6.500000000000006 -11.258330249197696 0.0
    vertex -9.192388155425125 -9.19238815542511 0.0
  endloop
endfacet
facet normal 0.5000000000000008 0.8660254037844383 0.0
  outer loop
    vertex -6.500000000000006 -11.258330249197696 0.0
    vertex -9.192388155425125 -9.19238815542511 11.0
    vertex -6.500000000000006 -11.258330249197696 11.0
  endloop
endfacet
facet normal 0.8660254037844389 0.49999999999999956 0.0
  outer loop
    vertex -11.258330249197705 -6.499999999999994 0.0
    vertex -9.192388155425125 -9.19238815542511 11.0
    vertex -9.192388155425125 -9.19238815542511 0.0
  endloop
endfacet
facet normal 0.7071067811865479 0.7071067811865471 0.0
  outer loop
    vertex -9.192388155425125 -9.19238815542511 11.0
    vertex -11.258330249197705 -6.499999999999994 0.0
    vertex -11.258330249197705 -6.499999999999994 11.0
  endloop
endfacet
facet normal 0.9659258262890685 0.25881904510252024 0.0
  outer loop
    vertex -12.557035741757888 -3.364647586332762 0.0
    vertex -11.258330249197705 -6.499999999999994 11.0
    vertex -11.258330249197705 -6.499999999999994 0.0
  endloop
endfacet
facet normal 0.8660254037844389 0.49999999999999956 0.0
  outer loop
    vertex -11.258330249197705 -6.499999999999994 11.0
    vertex -12.557035741757888 -3.364647586332762 0.0
    vertex -12.557035741757888 -3.364647586332762 11.0
  endloop
endfacet
facet normal 1.0 -3.207999562432886e-16 0.0
  outer loop
    vertex -12.999999999999998 3.980102097228896e-15 0.0
    vertex -12.557035741757888 -3.364647586332762 11.0
    vertex -12.557035741757888 -3.364647586332762 0.0
  endloop
endfacet
facet normal 0.9659258262890685 0.25881904510252024 0.0
  outer loop
    vertex -12.557035741757888 -3.364647586332762 11.0
    vertex -12.999999999999998 3.980102097228896e-15 0.0
    vertex -12.999999999999998 3.980102097228896e-15 11.0
  endloop
endfacet
facet normal 0.9659258262890682 -0.25881904510252113 0.0
  outer loop
    vertex -12.557035741757886 3.364647586332775 0.0
    vertex -12.999999999999998 3.980102097228896e-15 11.0
    vertex -12.999999999999998 3.980102097228896e-15 0.0
  endloop
endfacet
facet normal 1.0 -3.207999562432886e-16 0.0
  outer loop
    vertex -12.999999999999998 3.980102097228896e-15 11.0
    vertex -12.557035741757886 3.364647586332775 0.0
    vertex -12.557035741757886 3.364647586332775 11.0
  endloop
endfacet
facet normal 0.8660254037844386 -0.5000000000000003 0.0
  outer loop
    vertex -11.258330249197698 6.500000000000005 0.0
    vertex -12.557035741757886 3.364647586332775 11.0
    vertex -12.557035741757886 3.364647586332775 0.0
  endloop
endfacet
facet normal 0.9659258262890682 -0.25881904510252113 0.0
  outer loop
    vertex -12.557035741757886 3.364647586332775 11.0
    vertex -11.258330249197698 6.500000000000005 0.0
    vertex -11.258330249197698 6.500000000000005 11.0
  endloop
endfacet
facet normal 0.7071067811865472 -0.7071067811865478 0.0
  outer loop
    vertex -9.192388155425116 9.19238815542512 0.0
    vertex -11.258330249197698 6.500000000000005 11.0
    vertex -11.258330249197698 6.500000000000005 0.0
  endloop
endfacet
facet normal 0.8660254037844386 -0.5000000000000003 0.0
  outer loop
    vertex -11.258330249197698 6.500000000000005 11.0
    vertex -9.192388155425116 9.19238815542512 0.0
    vertex -9.192388155425116 9.19238815542512 11.0
  endloop
endfacet
facet normal 0.4999999999999997 -0.8660254037844389 0.0
  outer loop
    vertex -6.499999999999996 11.258330249197703 11.0
    vertex -9.192388155425116 9.19238815542512 0.0
    vertex -6.499999999999996 11.258330249197703 0.0
  endloop
endfacet
facet normal 0.7071067811865472 -0.7071067811865478 0.0
  outer loop
    vertex -9.192388155425116 9.19238815542512 0.0
    vertex -6.499999999999996 11.258330249197703 11.0
    vertex -9.192388155425116 9.19238815542512 11.0
  endloop
endfacet
facet normal 0.25881904510252046 -0.9659258262890684 0.0
  outer loop
    vertex -3.3646475863327656 12.557035741757888 11.0
    vertex -6.499999999999996 11.258330249197703 0.0
    vertex -3.3646475863327656 12.557035741757888 0.0
  endloop
endfacet
facet normal 0.4999999999999997 -0.8660254037844389 0.0
  outer loop
    vertex -6.499999999999996 11.258330249197703 0.0
    vertex -3.3646475863327656 12.557035741757888 11.0
    vertex -6.499999999999996 11.258330249197703 11.0
  endloop
endfacet
facet normal -1.7822219791293813e-16 -1.0 0.0
  outer loop
    vertex 3.1840816777831178e-15 12.999999999999998 11.0
    vertex -3.3646475863327656 12.557035741757888 0.0
    vertex 3.1840816777831178e-15 12.999999999999998 0.0
  endloop
endfacet
facet normal 0.25881904510252046 -0.9659258262890684 0.0
  outer loop
    vertex -3.3646475863327656 12.557035741757888 0.0
    vertex 3.1840816777831178e-15 12.999999999999998 11.0
    vertex -3.3646475863327656 12.557035741757888 11.0
  endloop
endfacet
facet normal -0.258819045102521 -0.9659258262890682 0.0
  outer loop
    vertex 3.364647586332774 12.557035741757886 11.0
    vertex 3.1840816777831178e-15 12.999999999999998 0.0
    vertex 3.364647586332774 12.557035741757886 0.0
  endloop
endfacet
facet normal -1.7822219791293813e-16 -1.0 0.0
  outer loop
    vertex 3.1840816777831178e-15 12.999999999999998 0.0
    vertex 3.364647586332774 12.557035741757886 11.0
    vertex 3.1840816777831178e-15 12.999999999999998 11.0
  endloop
endfacet
facet normal -0.5000000000000001 -0.8660254037844386 0.0
  outer loop
    vertex 6.500000000000002 11.2583302491977 11.0
    vertex 3.364647586332774 12.557035741757886 0.0
    vertex 6.500000000000002 11.2583302491977 0.0
  endloop
endfacet
facet normal -0.258819045102521 -0.9659258262890682 0.0
  outer loop
    vertex 3.364647586332774 12.557035741757886 0.0
    vertex 6.500000000000002 11.2583302491977 11.0
    vertex 3.364647586332774 12.557035741757886 11.0
  endloop
endfacet
facet normal -0.7071067811865477 -0.7071067811865475 0.0
  outer loop
    vertex 9.19238815542512 9.192388155425116 11.0
    vertex 6.500000000000002 11.2583302491977 0.0
    vertex 9.19238815542512 9.192388155425116 0.0
  endloop
endfacet
facet normal -0.5000000000000001 -0.8660254037844386 0.0
  outer loop
    vertex 6.500000000000002 11.2583302491977 0.0
    vertex 9.19238815542512 9.192388155425116 11.0
    vertex 6.500000000000002 11.2583302491977 11.0
  endloop
endfacet
facet normal -0.7071067811865477 -0.7071067811865475 0.0
  outer loop
    vertex 9.19238815542512 9.192388155425116 11.0
    vertex 11.258330249197703 6.4999999999999964 0.0
    vertex 11.258330249197703 6.4999999999999964 11.0
  endloop
endfacet
facet normal -0.8660254037844388 -0.49999999999999967 0.0
  outer loop
    vertex 11.258330249197703 6.4999999999999964 0.0
    vertex 9.19238815542512 9.192388155425116 11.0
    vertex 9.19238815542512 9.192388155425116 0.0
  endloop
endfacet
facet normal -0.8660254037844388 -0.49999999999999967 0.0
  outer loop
    vertex 11.258330249197703 6.4999999999999964 11.0
    vertex 12.557035741757888 3.364647586332767 0.0
    vertex 12.557035741757888 3.364647586332767 11.0
  endloop
endfacet
facet normal -0.9659258262890684 -0.25881904510252046 0.0
  outer loop
    vertex 12.557035741757888 3.364647586332767 0.0
    vertex 11.258330249197703 6.4999999999999964 11.0
    vertex 11.258330249197703 6.4999999999999964 0.0
  endloop
endfacet
facet normal 0.0 0.0 1.0
  outer loop
    vertex -0.27988913795382947 -5.151672651180757 12.0
    vertex -1.7490845402526805 4.591022112548489 12.0
    vertex -1.7490845402526805 -5.151672651180757 12.0
  endloop
endfacet
facet normal 0.0 0.0 1.0
  outer loop
    vertex -1.7490845402526805 4.591022112548489 12.0
    vertex -5.459173939997254 5.896973581258578 12.0
    vertex -5.459173939997254 4.591022112548489 12.0
  endloop
endfacet
facet normal 0.0 0.0 1.0
  outer loop
    vertex -5.459173939997254 5.896973581258578 12.0
    vertex -1.7490845402526805 4.591022112548489 12.0
    vertex 3.4302002617907426 5.896973581258578 12.0
  endloop
endfacet
facet normal 0.0 0.0 1.0
  outer loop
    vertex 3.4302002617907426 5.896973581258578 12.0
    vertex -1.7490845402526805 4.591022112548489 12.0
    vertex -0.27988913795382947 4.591022112548489 12.0
  endloop
endfacet
facet normal 0.0 0.0 1.0
  outer loop
    vertex -0.27988913795382947 4.591022112548489 12.0
    vertex -1.7490845402526805 4.591022112548489 12.0
    vertex -0.27988913795382947 -5.151672651180757 12.0
  endloop
endfacet
facet normal 0.0 0.0 1.0
  outer loop
    vertex 3.4302002617907426 5.896973581258578 12.0
    vertex -0.27988913795382947 4.591022112548489 12.0
    vertex 3.4302002617907426 4.591022112548489 12.0
  endloop
endfacet
facet normal -1.0 0.0 -0.0
  outer loop
    vertex 3.4302002617907426 5.896973581258578 12.999999999999998
    vertex 3.4302002617907426 4.591022112548489 12.0
    vertex 3.4302002617907426 4.591022112548489 12.999999999999998
  endloop
endfacet
facet normal -1.0 0.0 -0.0
  outer loop
    vertex 3.4302002617907426 4.591022112548489 12.0
    vertex 3.4302002617907426 5.896973581258578 12.999999999999998
    vertex 3.4302002617907426 5.896973581258578 12.0
  endloop
endfacet
facet normal -0.0 -1.0 -0.0
  outer loop
    vertex 3.4302002617907426 5.896973581258578 12.999999999999998
    vertex -5.459173939997254 5.896973581258578 12.0
    vertex 3.4302002617907426 5.896973581258578 12.0
  endloop
endfacet
facet normal -0.0 -1.0 -0.0
  outer loop
    vertex -5.459173939997254 5.896973581258578 12.0
    vertex 3.4302002617907426 5.896973581258578 12.999999999999998
    vertex -5.459173939997254 5.896973581258578 12.999999999999998
  endloop
endfacet
facet normal 1.0 0.0 0.0
  outer loop
    vertex -5.459173939997254 5.896973581258578 12.0
    vertex -5.459173939997254 4.591022112548489 12.999999999999998
    vertex -5.459173939997254 4.591022112548489 12.0
  endloop
endfacet
facet normal 1.0 0.0 0.0
  outer loop
    vertex -5.459173939997254 4.591022112548489 12.999999999999998
    vertex -5.459173939997254 5.896973581258578 12.0
    vertex -5.459173939997254 5.896973581258578 12.999999999999998
  endloop
endfacet
facet normal -0.0 1.0 -0.0
  outer loop
    vertex -5.459173939997254 4.591022112548489 12.999999999999998
    vertex -1.7490845402526805 4.591022112548489 12.0
    vertex -5.459173939997254 4.591022112548489 12.0
  endloop
endfacet
facet normal -0.0 1.0 -0.0
  outer loop
    vertex -1.7490845402526805 4.591022112548489 12.0
    vertex -5.459173939997254 4.591022112548489 12.999999999999998
    vertex -1.7490845402526805 4.591022112548489 12.999999999999998
  endloop
endfacet
facet normal 1.0 0.0 0.0
  outer loop
    vertex -1.7490845402526805 4.591022112548489 12.0
    vertex -1.7490845402526805 -5.151672651180757 12.999999999999998
    vertex -1.7490845402526805 -5.151672651180757 12.0
  endloop
endfacet
facet normal 1.0 0.0 0.0
  outer loop
    vertex -1.7490845402526805 -5.151672651180757 12.999999999999998
    vertex -1.7490845402526805 4.591022112548489 12.0
    vertex -1.7490845402526805 4.591022112548489 12.999999999999998
  endloop
endfacet
facet normal -0.0 1.0 -0.0
  outer loop
    vertex -1.7490845402526805 -5.151672651180757 12.999999999999998
    vertex -0.27988913795382947 -5.151672651180757 12.0
    vertex -1.7490845402526805 -5.151672651180757 12.0
  endloop
endfacet
facet normal -0.0 1.0 -0.0
  outer loop
    vertex -0.27988913795382947 -5.151672651180757 12.0
    vertex -1.7490845402526805 -5.151672651180757 12.999999999999998
    vertex -0.27988913795382947 -5.151672651180757 12.999999999999998
  endloop
endfacet
facet normal -1.0 0.0 -0.0
  outer loop
    vertex -0.27988913795382947 4.591022112548489 12.999999999999998
    vertex -0.27988913795382947 -5.151672651180757 12.0
    vertex -0.27988913795382947 -5.151672651180757 12.999999999999998
  endloop
endfacet
facet normal -1.0 0.0 -0.0
  outer loop
    vertex -0.27988913795382947 -5.151672651180757 12.0
    vertex -0.27988913795382947 4.591022112548489 12.999999999999998
    vertex -0.27988913795382947 4.591022112548489 12.0
  endloop
endfacet
facet normal -0.0 1.0 -0.0
  outer loop
    vertex -0.27988913795382947 4.591022112548489 12.999999999999998
    vertex 3.4302002617907426 4.591022112548489 12.0
    vertex -0.27988913795382947 4.591022112548489 12.0
  endloop
endfacet
facet normal -0.0 1.0 -0.0
  outer loop
    vertex 3.4302002617907426 4.591022112548489 12.0
    vertex -0.27988913795382947 4.591022112548489 12.999999999999998
    vertex 3.4302002617907426 4.591022112548489 12.999999999999998
  endloop
endfacet
facet normal 0.0 0.0 1.0
  outer loop
    vertex 12.564440363961879 -5.151672651180757 12.0
    vertex 11.095244961663028 0.25763769364682976 12.0
    vertex 11.095244961663028 -5.151672651180757 12.0
  endloop
endfacet
facet normal 0.0 0.0 1.0
  outer loop
    vertex 11.095244961663028 0.25763769364682976 12.0
    vertex 12.564440363961879 -5.151672651180757 12.0
    vertex 11.095244961663028 1.563589162356919 12.0
  endloop
endfacet
facet normal 0.0 0.0 1.0
  outer loop
    vertex 11.095244961663028 1.563589162356919 12.0
    vertex 12.564440363961879 -5.151672651180757 12.0
    vertex 11.095244961663028 5.896973581258578 12.0
  endloop
endfacet
facet normal 0.0 0.0 1.0
  outer loop
    vertex 11.095244961663028 5.896973581258578 12.0
    vertex 12.564440363961879 -5.151672651180757 12.0
    vertex 12.564440363961879 5.896973581258578 12.0
  endloop
endfacet
facet normal 0.0 0.0 1.0
  outer loop
    vertex 11.095244961663028 0.25763769364682976 12.0
    vertex 6.012422484012962 1.563589162356919 12.0
    vertex 6.012422484012962 0.25763769364682976 12.0
  endloop
endfacet
facet normal 0.0 0.0 1.0
  outer loop
    vertex 6.012422484012962 1.563589162356919 12.0
    vertex 11.095244961663028 0.25763769364682976 12.0
    vertex 11.095244961663028 1.563589162356919 12.0
  endloop
endfacet
facet normal 0.0 0.0 1.0
  outer loop
    vertex 6.012422484012962 -5.151672651180757 12.0
    vertex 4.543227081714112 5.896973581258578 12.0
    vertex 4.543227081714112 -5.151672651180757 12.0
  endloop
endfacet
facet normal 0.0 0.0 1.0
  outer loop
    vertex 4.543227081714112 5.896973581258578 12.0
    vertex 6.012422484012962 -5.151672651180757 12.0
    vertex 6.012422484012962 5.896973581258578 12.0
  endloop
endfacet
facet normal 0.0 0.0 1.0
  outer loop
    vertex 6.012422484012962 5.896973581258578 12.0
    vertex 6.012422484012962 -5.151672651180757 12.0
    vertex 6.012422484012962 0.25763769364682976 12.0
  endloop
endfacet
facet normal 0.0 0.0 1.0
  outer loop
    vertex 6.012422484012962 5.896973581258578 12.0
    vertex 6.012422484012962 0.25763769364682976 12.0
    vertex 6.012422484012962 1.563589162356919 12.0
  endloop
endfacet
facet normal 1.0 0.0 0.0
  outer loop
    vertex 4.543227081714112 5.896973581258578 12.0
    vertex 4.543227081714112 -5.151672651180757 12.999999999999998
    vertex 4.543227081714112 -5.151672651180757 12.0
  endloop
endfacet
facet normal 1.0 0.0 0.0
  outer loop
    vertex 4.543227081714112 -5.151672651180757 12.999999999999998
    vertex 4.543227081714112 5.896973581258578 12.0
    vertex 4.543227081714112 5.896973581258578 12.999999999999998
  endloop
endfacet
facet normal -0.0 1.0 -0.0
  outer loop
    vertex 4.543227081714112 -5.151672651180757 12.999999999999998
    vertex 6.012422484012962 -5.151672651180757 12.0
    vertex 4.543227081714112 -5.151672651180757 12.0
  endloop
endfacet
facet normal -0.0 1.0 -0.0
  outer loop
    vertex 6.012422484012962 -5.151672651180757 12.0
    vertex 4.543227081714112 -5.151672651180757 12.999999999999998
    vertex 6.012422484012962 -5.151672651180757 12.999999999999998
  endloop
endfacet
facet normal -1.0 0.0 -0.0
  outer loop
    vertex 6.012422484012962 0.25763769364682976 12.999999999999998
    vertex 6.012422484012962 -5.151672651180757 12.0
    vertex 6.012422484012962 -5.151672651180757 12.999999999999998
  endloop
endfacet
facet normal -1.0 0.0 -0.0
  outer loop
    vertex 6.012422484012962 -5.151672651180757 12.0
    vertex 6.012422484012962 0.25763769364682976 12.999999999999998
    vertex 6.012422484012962 0.25763769364682976 12.0
  endloop
endfacet
facet normal -0.0 1.0 -0.0
  outer loop
    vertex 6.012422484012962 0.25763769364682976 12.999999999999998
    vertex 11.095244961663028 0.25763769364682976 12.0
    vertex 6.012422484012962 0.25763769364682976 12.0
  endloop
endfacet
facet normal -0.0 1.0 -0.0
  outer loop
    vertex 11.095244961663028 0.25763769364682976 12.0
    vertex 6.012422484012962 0.25763769364682976 12.999999999999998
    vertex 11.095244961663028 0.25763769364682976 12.999999999999998
  endloop
endfacet
facet normal 1.0 0.0 0.0
  outer loop
    vertex 11.095244961663028 0.25763769364682976 12.0
    vertex 11.095244961663028 -5.151672651180757 12.999999999999998
    vertex 11.095244961663028 -5.151672651180757 12.0
  endloop
endfacet
facet normal 1.0 0.0 0.0
  outer loop
    vertex 11.095244961663028 -5.151672651180757 12.999999999999998
    vertex 11.095244961663028 0.25763769364682976 12.0
    vertex 11.095244961663028 0.25763769364682976 12.999999999999998
  endloop
endfacet
facet normal -0.0 1.0 -0.0
  outer loop
    vertex 11.095244961663028 -5.151672651180757 12.999999999999998
    vertex 12.564440363961879 -5.151672651180757 12.0
    vertex 11.095244961663028 -5.151672651180757 12.0
  endloop
endfacet
facet normal -0.0 1.0 -0.0
  outer loop
    vertex 12.564440363961879 -5.151672651180757 12.0
    vertex 11.095244961663028 -5.151672651180757 12.999999999999998
    vertex 12.564440363961879 -5.151672651180757 12.999999999999998
  endloop
endfacet
facet normal -1.0 0.0 -0.0
  outer loop
    vertex 12.564440363961879 5.896973581258578 12.999999999999998
    vertex 12.564440363961879 -5.151672651180757 12.0
    vertex 12.564440363961879 -5.151672651180757 12.999999999999998
  endloop
endfacet
facet normal -1.0 0.0 -0.0
  outer loop
    vertex 12.564440363961879 -5.151672651180757 12.0
    vertex 12.564440363961879 5.896973581258578 12.999999999999998
    vertex 12.564440363961879 5.896973581258578 12.0
  endloop
endfacet
facet normal -0.0 -1.0 -0.0
  outer loop
    vertex 12.564440363961879 5.896973581258578 12.999999999999998
    vertex 11.095244961663028 5.896973581258578 12.0
    vertex 12.564440363961879 5.896973581258578 12.0
  endloop
endfacet
facet normal -0.0 -1.0 -0.0
  outer loop
    vertex 11.095244961663028 5.896973581258578 12.0
    vertex 12.564440363961879 5.896973581258578 12.999999999999998
    vertex 11.095244961663028 5.896973581258578 12.999999999999998
  endloop
endfacet
facet normal 1.0 0.0 0.0
  outer loop
    vertex 11.095244961663028 5.896973581258578 12.0
    vertex 11.095244961663028 1.563589162356919 12.999999999999998
    vertex 11.095244961663028 1.563589162356919 12.0
  endloop
endfacet
facet normal 1.0 0.0 0.0
  outer loop
    vertex 11.095244961663028 1.563589162356919 12.999999999999998
    vertex 11.095244961663028 5.896973581258578 12.0
    vertex 11.095244961663028 5.896973581258578 12.999999999999998
  endloop
endfacet
facet normal -0.0 -1.0 -0.0
  outer loop
    vertex 11.095244961663028 1.563589162356919 12.999999999999998
    vertex 6.012422484012962 1.563589162356919 12.0
    vertex 11.095244961663028 1.563589162356919 12.0
  endloop
endfacet
facet normal -0.0 -1.0 -0.0
  outer loop
    vertex 6.012422484012962 1.563589162356919 12.0
    vertex 11.095244961663028 1.563589162356919 12.999999999999998
    vertex 6.012422484012962 1.563589162356919 12.999999999999998
  endloop
endfacet
facet normal -1.0 0.0 -0.0
  outer loop
    vertex 6.012422484012962 5.896973581258578 12.999999999999998
    vertex 6.012422484012962 1.563589162356919 12.0
    vertex 6.012422484012962 1.563589162356919 12.999999999999998
  endloop
endfacet
facet normal -1.0 0.0 -0.0
  outer loop
    vertex 6.012422484012962 1.563589162356919 12.0
    vertex 6.012422484012962 5.896973581258578 12.999999999999998
    vertex 6.012422484012962 5.896973581258578 12.0
  endloop
endfacet
facet normal -0.0 -1.0 -0.0
  outer loop
    vertex 6.012422484012962 5.896973581258578 12.999999999999998
    vertex 4.543227081714112 5.896973581258578 12.0
    vertex 6.012422484012962 5.896973581258578 12.0
  endloop
endfacet
facet normal -0.0 -1.0 -0.0
  outer loop
    vertex 4.543227081714112 5.896973581258578 12.0
    vertex 6.012422484012962 5.896973581258578 12.999999999999998
    vertex 4.543227081714112 5.896973581258578 12.999999999999998
  endloop
endfacet
facet normal 0.0 0.0 1.0
  outer loop
    vertex -11.892468959154343 -5.151672651180757 12.0
    vertex -10.423273556855492 -3.8457211824706676 12.0
    vertex -11.892468959154343 5.896973581258578 12.0
  endloop
endfacet
facet normal 0.0 0.0 1.0
  outer loop
    vertex -10.423273556855492 -3.8457211824706676 12.0
    vertex -11.892468959154343 -5.151672651180757 12.0
    vertex -5.488854655195211 -5.151672651180757 12.0
  endloop
endfacet
facet normal 0.0 0.0 1.0
  outer loop
    vertex -10.423273556855492 -3.8457211824706676 12.0
    vertex -5.488854655195211 -5.151672651180757 12.0
    vertex -5.488854655195211 -3.8457211824706676 12.0
  endloop
endfacet
facet normal 0.0 0.0 1.0
  outer loop
    vertex -10.423273556855492 5.896973581258578 12.0
    vertex -11.892468959154343 5.896973581258578 12.0
    vertex -10.423273556855492 -3.8457211824706676 12.0
  endloop
endfacet
facet normal -0.0 1.0 -0.0
  outer loop
    vertex -11.892468959154343 -5.151672651180757 12.999999999999998
    vertex -5.488854655195211 -5.151672651180757 12.0
    vertex -11.892468959154343 -5.151672651180757 12.0
  endloop
endfacet
facet normal -0.0 1.0 -0.0
  outer loop
    vertex -5.488854655195211 -5.151672651180757 12.0
    vertex -11.892468959154343 -5.151672651180757 12.999999999999998
    vertex -5.488854655195211 -5.151672651180757 12.999999999999998
  endloop
endfacet
facet normal -1.0 0.0 -0.0
  outer loop
    vertex -5.488854655195211 -3.8457211824706676 12.999999999999998
    vertex -5.488854655195211 -5.151672651180757 12.0
    vertex -5.488854655195211 -5.151672651180757 12.999999999999998
  endloop
endfacet
facet normal -1.0 0.0 -0.0
  outer loop
    vertex -5.488854655195211 -5.151672651180757 12.0
    vertex -5.488854655195211 -3.8457211824706676 12.999999999999998
    vertex -5.488854655195211 -3.8457211824706676 12.0
  endloop
endfacet
facet normal -0.0 -1.0 -0.0
  outer loop
    vertex -5.488854655195211 -3.8457211824706676 12.999999999999998
    vertex -10.423273556855492 -3.8457211824706676 12.0
    vertex -5.488854655195211 -3.8457211824706676 12.0
  endloop
endfacet
facet normal -0.0 -1.0 -0.0
  outer loop
    vertex -10.423273556855492 -3.8457211824706676 12.0
    vertex -5.488854655195211 -3.8457211824706676 12.999999999999998
    vertex -10.423273556855492 -3.8457211824706676 12.999999999999998
  endloop
endfacet
facet normal -1.0 0.0 -0.0
  outer loop
    vertex -10.423273556855492 5.896973581258578 12.999999999999998
    vertex -10.423273556855492 -3.8457211824706676 12.0
    vertex -10.423273556855492 -3.8457211824706676 12.999999999999998
  endloop
endfacet
facet normal -1.0 0.0 -0.0
  outer loop
    vertex -10.423273556855492 -3.8457211824706676 12.0
    vertex -10.423273556855492 5.896973581258578 12.999999999999998
    vertex -10.423273556855492 5.896973581258578 12.0
  endloop
endfacet
facet normal -0.0 -1.0 -0.0
  outer loop
    vertex -10.423273556855492 5.896973581258578 12.999999999999998
    vertex -11.892468959154343 5.896973581258578 12.0
    vertex -10.423273556855492 5.896973581258578 12.0
  endloop
endfacet
facet normal -0.0 -1.0 -0.0
  outer loop
    vertex -11.892468959154343 5.896973581258578 12.0
    vertex -10.423273556855492 5.896973581258578 12.999999999999998
    vertex -11.892468959154343 5.896973581258578 12.999999999999998
  endloop
endfacet
facet normal 1.0 0.0 0.0
  outer loop
    vertex -11.892468959154343 5.896973581258578 12.0
    vertex -11.892468959154343 -5.151672651180757 12.999999999999998
    vertex -11.892468959154343 -5.151672651180757 12.0
  endloop
endfacet
facet normal 1.0 0.0 0.0
  outer loop
    vertex -11.892468959154343 -5.151672651180757 12.999999999999998
    vertex -11.892468959154343 5.896973581258578 12.0
    vertex -11.892468959154343 5.896973581258578 12.999999999999998
  endloop
endfacet
endsolid Untitled-5429f787
